<?xml version="1.0" encoding="utf-8"?>
<!-- Generator: Adobe Illustrator 23.0.6, SVG Export Plug-In . SVG Version: 6.00 Build 0)  -->
<svg version="1.1" id="레이어_1" xmlns="http://www.w3.org/2000/svg" xmlns:xlink="http://www.w3.org/1999/xlink" x="0px"
	 y="0px" viewBox="0 0 90 90" style="enable-background:new 0 0 90 90;" xml:space="preserve">
<style type="text/css">
	.st0{fill:#FFD04E;}
	.st1{fill:#1D1D1B;}
</style>
<rect class="st0" width="90" height="90"/>
<title>대지 1</title>
<g id="XMLID_1_">
	<g>
		<rect x="79" y="74.2" class="st1" width="5.3" height="5.3"/>
		<rect x="79" y="11.1" class="st1" width="5.3" height="5.3"/>
		<rect x="73.7" y="74.2" class="st1" width="5.3" height="5.3"/>
		<rect x="73.7" y="68.9" class="st1" width="5.3" height="5.3"/>
		<rect x="73.7" y="21.6" class="st1" width="5.3" height="5.3"/>
		<rect x="68.5" y="74.2" class="st1" width="5.3" height="5.3"/>
		<rect x="68.5" y="68.9" class="st1" width="5.3" height="5.3"/>
		<rect x="68.5" y="63.7" class="st1" width="5.3" height="5.3"/>
		<rect x="68.5" y="58.4" class="st1" width="5.3" height="5.3"/>
		<rect x="68.5" y="53.2" class="st1" width="5.3" height="5.3"/>
		<rect x="68.5" y="47.9" class="st1" width="5.3" height="5.3"/>
		<rect x="68.5" y="42.6" class="st1" width="5.3" height="5.3"/>
		<rect x="68.5" y="37.4" class="st1" width="5.3" height="5.3"/>
		<rect x="68.5" y="26.8" class="st1" width="5.3" height="5.3"/>
		<rect x="68.5" y="5.8" class="st1" width="5.3" height="5.3"/>
		<rect x="63.2" y="74.2" class="st1" width="5.3" height="5.3"/>
		<rect x="63.2" y="68.9" class="st1" width="5.3" height="5.3"/>
		<rect x="63.2" y="63.7" class="st1" width="5.3" height="5.3"/>
		<rect x="63.2" y="58.4" class="st1" width="5.3" height="5.3"/>
		<rect x="63.2" y="53.2" class="st1" width="5.3" height="5.3"/>
		<rect x="63.2" y="47.9" class="st1" width="5.3" height="5.3"/>
		<rect x="63.2" y="42.6" class="st1" width="5.3" height="5.3"/>
		<rect x="63.2" y="37.4" class="st1" width="5.3" height="5.3"/>
		<rect x="63.2" y="21.6" class="st1" width="5.3" height="5.3"/>
		<rect x="63.2" y="11.1" class="st1" width="5.3" height="5.3"/>
		<rect x="57.9" y="58.4" class="st1" width="5.3" height="5.3"/>
		<rect x="57.9" y="53.2" class="st1" width="5.3" height="5.3"/>
		<rect x="57.9" y="47.9" class="st1" width="5.3" height="5.3"/>
		<rect x="57.9" y="42.6" class="st1" width="5.3" height="5.3"/>
		<rect x="57.9" y="37.4" class="st1" width="5.3" height="5.3"/>
		<rect x="57.9" y="26.8" class="st1" width="5.3" height="5.3"/>
		<rect x="57.9" y="5.8" class="st1" width="5.3" height="5.3"/>
		<rect x="52.7" y="74.2" class="st1" width="5.3" height="5.3"/>
		<rect x="52.7" y="68.9" class="st1" width="5.3" height="5.3"/>
		<rect x="52.7" y="63.7" class="st1" width="5.3" height="5.3"/>
		<rect x="52.7" y="11.1" class="st1" width="5.3" height="5.3"/>
		<rect x="47.4" y="74.2" class="st1" width="5.3" height="5.3"/>
		<rect x="47.4" y="68.9" class="st1" width="5.3" height="5.3"/>
		<rect x="47.4" y="63.7" class="st1" width="5.3" height="5.3"/>
		<rect x="47.4" y="58.4" class="st1" width="5.3" height="5.3"/>
		<rect x="47.4" y="53.2" class="st1" width="5.3" height="5.3"/>
		<rect x="47.4" y="47.9" class="st1" width="5.3" height="5.3"/>
		<rect x="47.4" y="42.6" class="st1" width="5.3" height="5.3"/>
		<rect x="47.4" y="37.4" class="st1" width="5.3" height="5.3"/>
		<rect x="47.4" y="32.1" class="st1" width="5.3" height="5.3"/>
		<rect x="47.4" y="26.8" class="st1" width="5.3" height="5.3"/>
		<rect x="47.4" y="21.6" class="st1" width="5.3" height="5.3"/>
		<rect x="47.4" y="5.8" class="st1" width="5.3" height="5.3"/>
		<rect x="42.1" y="74.2" class="st1" width="5.3" height="5.3"/>
		<rect x="42.1" y="68.9" class="st1" width="5.3" height="5.3"/>
		<rect x="42.1" y="63.7" class="st1" width="5.3" height="5.3"/>
		<rect x="42.1" y="58.4" class="st1" width="5.3" height="5.3"/>
		<rect x="42.1" y="53.2" class="st1" width="5.3" height="5.3"/>
		<rect x="42.1" y="47.9" class="st1" width="5.3" height="5.3"/>
		<rect x="42.1" y="42.6" class="st1" width="5.3" height="5.3"/>
		<rect x="42.1" y="37.4" class="st1" width="5.3" height="5.3"/>
		<rect x="42.1" y="32.1" class="st1" width="5.3" height="5.3"/>
		<rect x="42.1" y="21.6" class="st1" width="5.3" height="5.3"/>
		<rect x="36.9" y="74.2" class="st1" width="5.3" height="5.3"/>
		<rect x="36.9" y="58.4" class="st1" width="5.3" height="5.3"/>
		<rect x="36.9" y="53.2" class="st1" width="5.3" height="5.3"/>
		<rect x="36.9" y="47.9" class="st1" width="5.3" height="5.3"/>
		<rect x="36.9" y="42.6" class="st1" width="5.3" height="5.3"/>
		<rect x="36.9" y="37.4" class="st1" width="5.3" height="5.3"/>
		<rect x="36.9" y="32.1" class="st1" width="5.3" height="5.3"/>
		<rect x="36.9" y="21.6" class="st1" width="5.3" height="5.3"/>
		<rect x="36.9" y="11.1" class="st1" width="5.3" height="5.3"/>
		<rect x="31.6" y="74.2" class="st1" width="5.3" height="5.3"/>
		<rect x="31.6" y="32.1" class="st1" width="5.3" height="5.3"/>
		<rect x="31.6" y="21.6" class="st1" width="5.3" height="5.3"/>
		<rect x="31.6" y="11.1" class="st1" width="5.3" height="5.3"/>
		<rect x="26.3" y="74.2" class="st1" width="5.3" height="5.3"/>
		<rect x="26.3" y="32.1" class="st1" width="5.3" height="5.3"/>
		<rect x="26.3" y="21.6" class="st1" width="5.3" height="5.3"/>
		<rect x="26.3" y="11.1" class="st1" width="5.3" height="5.3"/>
		<rect x="21.1" y="74.2" class="st1" width="5.3" height="5.3"/>
		<rect x="21.1" y="21.6" class="st1" width="5.3" height="5.3"/>
		<rect x="21.1" y="16.3" class="st1" width="5.3" height="5.3"/>
		<rect x="15.8" y="47.9" class="st1" width="5.3" height="5.3"/>
		<rect x="15.8" y="42.6" class="st1" width="5.3" height="5.3"/>
		<rect x="15.8" y="37.4" class="st1" width="5.3" height="5.3"/>
		<rect x="15.8" y="21.6" class="st1" width="5.3" height="5.3"/>
		<rect x="10.5" y="63.7" class="st1" width="5.3" height="5.3"/>
		<rect x="10.5" y="58.4" class="st1" width="5.3" height="5.3"/>
		<rect x="10.5" y="53.2" class="st1" width="5.3" height="5.3"/>
		<rect x="5.3" y="74.2" class="st1" width="5.3" height="5.3"/>
		<rect x="5.3" y="68.9" class="st1" width="5.3" height="5.3"/>
	</g>
</g>
</svg>
