<svg id="레이어_1" data-name="레이어 1" xmlns="http://www.w3.org/2000/svg" viewBox="0 0 90 90"><title>대지 1</title><rect x="73.74" y="37.37" width="5.27" height="5.26"/><rect x="73.74" y="16.32" width="5.27" height="5.26"/><rect x="68.48" y="79.47" width="5.26" height="5.27"/><rect x="68.48" y="42.63" width="5.26" height="5.26"/><rect x="68.48" y="37.37" width="5.26" height="5.26"/><rect x="68.48" y="21.58" width="5.26" height="5.26"/><rect x="68.48" y="16.32" width="5.26" height="5.26"/><rect x="63.21" y="74.21" width="5.27" height="5.26"/><rect x="63.21" y="37.37" width="5.27" height="5.26"/><rect x="63.21" y="16.32" width="5.27" height="5.26"/><rect x="57.94" y="68.95" width="5.27" height="5.26"/><rect x="57.94" y="37.37" width="5.27" height="5.26"/><rect x="57.94" y="16.32" width="5.27" height="5.26"/><rect x="52.67" y="63.68" width="5.27" height="5.27"/><rect x="52.67" y="58.42" width="5.27" height="5.26"/><rect x="52.67" y="53.16" width="5.27" height="5.26"/><rect x="52.67" y="47.89" width="5.27" height="5.27"/><rect x="52.67" y="42.63" width="5.27" height="5.26"/><rect x="52.67" y="37.37" width="5.27" height="5.26"/><rect x="52.67" y="32.11" width="5.27" height="5.26"/><rect x="52.67" y="26.84" width="5.27" height="5.27"/><rect x="52.67" y="21.58" width="5.27" height="5.26"/><rect x="52.67" y="16.32" width="5.27" height="5.26"/><rect x="47.41" y="63.68" width="5.26" height="5.27"/><rect x="47.41" y="53.16" width="5.26" height="5.26"/><rect x="47.41" y="42.63" width="5.26" height="5.26"/><rect x="47.41" y="37.37" width="5.26" height="5.26"/><rect x="47.41" y="32.11" width="5.26" height="5.26"/><rect x="47.41" y="21.58" width="5.26" height="5.26"/><rect x="47.41" y="16.32" width="5.26" height="5.26"/><rect x="47.41" y="11.05" width="5.26" height="5.27"/><rect x="42.14" y="68.95" width="5.27" height="5.26"/><rect x="42.14" y="47.89" width="5.27" height="5.27"/><rect x="42.14" y="37.37" width="5.27" height="5.26"/><rect x="42.14" y="26.84" width="5.27" height="5.27"/><rect x="42.14" y="16.32" width="5.27" height="5.26"/><rect x="42.14" y="5.79" width="5.27" height="5.26"/><rect x="36.87" y="63.68" width="5.27" height="5.27"/><rect x="36.87" y="53.16" width="5.27" height="5.26"/><rect x="36.87" y="42.63" width="5.27" height="5.26"/><rect x="36.87" y="37.37" width="5.27" height="5.26"/><rect x="36.87" y="32.11" width="5.27" height="5.26"/><rect x="36.87" y="21.58" width="5.27" height="5.26"/><rect x="36.87" y="16.32" width="5.27" height="5.26"/><rect x="36.87" y="11.05" width="5.27" height="5.27"/><rect x="31.6" y="63.68" width="5.27" height="5.27"/><rect x="31.6" y="58.42" width="5.27" height="5.26"/><rect x="31.6" y="53.16" width="5.27" height="5.26"/><rect x="31.6" y="47.89" width="5.27" height="5.27"/><rect x="31.6" y="42.63" width="5.27" height="5.26"/><rect x="31.6" y="37.37" width="5.27" height="5.26"/><rect x="31.6" y="32.11" width="5.27" height="5.26"/><rect x="31.6" y="26.84" width="5.27" height="5.27"/><rect x="31.6" y="21.58" width="5.27" height="5.26"/><rect x="31.6" y="16.32" width="5.27" height="5.26"/><rect x="26.34" y="68.95" width="5.26" height="5.26"/><rect x="26.34" y="37.37" width="5.26" height="5.26"/><rect x="26.34" y="16.32" width="5.26" height="5.26"/><rect x="21.07" y="74.21" width="5.27" height="5.26"/><rect x="21.07" y="37.37" width="5.27" height="5.26"/><rect x="21.07" y="16.32" width="5.27" height="5.26"/><rect x="15.8" y="79.47" width="5.27" height="5.27"/><rect x="15.8" y="42.63" width="5.27" height="5.26"/><rect x="15.8" y="37.37" width="5.27" height="5.26"/><rect x="15.8" y="21.58" width="5.27" height="5.26"/><rect x="15.8" y="16.32" width="5.27" height="5.26"/><rect x="10.53" y="37.37" width="5.27" height="5.26"/><rect x="10.53" y="16.32" width="5.27" height="5.26"/></svg>