<svg id="레이어_1" data-name="레이어 1" xmlns="http://www.w3.org/2000/svg" viewBox="0 0 90 90"><title>대지 1</title><rect x="79.01" y="74.21" width="5.27" height="5.26"/><rect x="79.01" y="11.05" width="5.27" height="5.27"/><rect x="73.74" y="74.21" width="5.27" height="5.26"/><rect x="73.74" y="68.95" width="5.27" height="5.26"/><rect x="73.74" y="21.58" width="5.27" height="5.26"/><rect x="68.48" y="74.21" width="5.26" height="5.26"/><rect x="68.48" y="68.95" width="5.26" height="5.26"/><rect x="68.48" y="63.68" width="5.26" height="5.27"/><rect x="68.48" y="58.42" width="5.26" height="5.26"/><rect x="68.48" y="53.16" width="5.26" height="5.26"/><rect x="68.48" y="47.89" width="5.26" height="5.27"/><rect x="68.48" y="42.63" width="5.26" height="5.26"/><rect x="68.48" y="37.37" width="5.26" height="5.26"/><rect x="68.48" y="26.84" width="5.26" height="5.27"/><rect x="68.48" y="5.79" width="5.26" height="5.26"/><rect x="63.21" y="74.21" width="5.27" height="5.26"/><rect x="63.21" y="68.95" width="5.27" height="5.26"/><rect x="63.21" y="63.68" width="5.27" height="5.27"/><rect x="63.21" y="58.42" width="5.27" height="5.26"/><rect x="63.21" y="53.16" width="5.27" height="5.26"/><rect x="63.21" y="47.89" width="5.27" height="5.27"/><rect x="63.21" y="42.63" width="5.27" height="5.26"/><rect x="63.21" y="37.37" width="5.27" height="5.26"/><rect x="63.21" y="21.58" width="5.27" height="5.26"/><rect x="63.21" y="11.05" width="5.27" height="5.27"/><rect x="57.94" y="58.42" width="5.27" height="5.26"/><rect x="57.94" y="53.16" width="5.27" height="5.26"/><rect x="57.94" y="47.89" width="5.27" height="5.27"/><rect x="57.94" y="42.63" width="5.27" height="5.26"/><rect x="57.94" y="37.37" width="5.27" height="5.26"/><rect x="57.94" y="26.84" width="5.27" height="5.27"/><rect x="57.94" y="5.79" width="5.27" height="5.26"/><rect x="52.67" y="74.21" width="5.27" height="5.26"/><rect x="52.67" y="68.95" width="5.27" height="5.26"/><rect x="52.67" y="63.68" width="5.27" height="5.27"/><rect x="52.67" y="11.05" width="5.27" height="5.27"/><rect x="47.41" y="74.21" width="5.26" height="5.26"/><rect x="47.41" y="68.95" width="5.26" height="5.26"/><rect x="47.41" y="63.68" width="5.26" height="5.27"/><rect x="47.41" y="58.42" width="5.26" height="5.26"/><rect x="47.41" y="53.16" width="5.26" height="5.26"/><rect x="47.41" y="47.89" width="5.26" height="5.27"/><rect x="47.41" y="42.63" width="5.26" height="5.26"/><rect x="47.41" y="37.37" width="5.26" height="5.26"/><rect x="47.41" y="32.11" width="5.26" height="5.26"/><rect x="47.41" y="26.84" width="5.26" height="5.27"/><rect x="47.41" y="21.58" width="5.26" height="5.26"/><rect x="47.41" y="5.79" width="5.26" height="5.26"/><rect x="42.14" y="74.21" width="5.27" height="5.26"/><rect x="42.14" y="68.95" width="5.27" height="5.26"/><rect x="42.14" y="63.68" width="5.27" height="5.27"/><rect x="42.14" y="58.42" width="5.27" height="5.26"/><rect x="42.14" y="53.16" width="5.27" height="5.26"/><rect x="42.14" y="47.89" width="5.27" height="5.27"/><rect x="42.14" y="42.63" width="5.27" height="5.26"/><rect x="42.14" y="37.37" width="5.27" height="5.26"/><rect x="42.14" y="32.11" width="5.27" height="5.26"/><rect x="42.14" y="21.58" width="5.27" height="5.26"/><rect x="36.87" y="74.21" width="5.27" height="5.26"/><rect x="36.87" y="58.42" width="5.27" height="5.26"/><rect x="36.87" y="53.16" width="5.27" height="5.26"/><rect x="36.87" y="47.89" width="5.27" height="5.27"/><rect x="36.87" y="42.63" width="5.27" height="5.26"/><rect x="36.87" y="37.37" width="5.27" height="5.26"/><rect x="36.87" y="32.11" width="5.27" height="5.26"/><rect x="36.87" y="21.58" width="5.27" height="5.26"/><rect x="36.87" y="11.05" width="5.27" height="5.27"/><rect x="31.6" y="74.21" width="5.27" height="5.26"/><rect x="31.6" y="32.11" width="5.27" height="5.26"/><rect x="31.6" y="21.58" width="5.27" height="5.26"/><rect x="31.6" y="11.05" width="5.27" height="5.27"/><rect x="26.34" y="74.21" width="5.26" height="5.26"/><rect x="26.34" y="32.11" width="5.26" height="5.26"/><rect x="26.34" y="21.58" width="5.26" height="5.26"/><rect x="26.34" y="11.05" width="5.26" height="5.27"/><rect x="21.07" y="74.21" width="5.27" height="5.26"/><rect x="21.07" y="21.58" width="5.27" height="5.26"/><rect x="21.07" y="16.32" width="5.27" height="5.26"/><rect x="15.8" y="47.89" width="5.27" height="5.27"/><rect x="15.8" y="42.63" width="5.27" height="5.26"/><rect x="15.8" y="37.37" width="5.27" height="5.26"/><rect x="15.8" y="21.58" width="5.27" height="5.26"/><rect x="10.53" y="63.68" width="5.27" height="5.27"/><rect x="10.53" y="58.42" width="5.27" height="5.26"/><rect x="10.53" y="53.16" width="5.27" height="5.26"/><rect x="5.27" y="74.21" width="5.26" height="5.26"/><rect x="5.27" y="68.95" width="5.26" height="5.26"/></svg>