<svg xmlns="http://www.w3.org/2000/svg" viewBox="0 0 139.56 193.21"><defs><style>.cls-1{fill:#1d1d1b;}.cls-2{fill:#fff29f;}.cls-3{fill:#ffde01;}.cls-4{fill:#ffbc04;}</style></defs><title>Asset 4</title><g id="Layer_2" data-name="Layer 2"><g id="Layer_1-2" data-name="Layer 1"><rect class="cls-1" x="183.78" y="83.61" width="5.08" height="5.05" transform="translate(-103.18 78.01) rotate(-45)"/><rect class="cls-1" x="180.2" y="80.01" width="5.08" height="5.08" transform="translate(-101.7 74.43) rotate(-45)"/><rect class="cls-1" x="187.37" y="94.34" width="5.05" height="5.05" transform="translate(-109.72 83.68) rotate(-45)"/><rect class="cls-1" x="183.79" y="90.75" width="5.05" height="5.08" transform="translate(-108.24 80.11) rotate(-45)"/><rect class="cls-2" x="180.21" y="87.19" width="5.05" height="5.05" transform="translate(-106.76 76.53) rotate(-45)"/><rect class="cls-1" x="176.64" y="83.59" width="5.05" height="5.08" transform="translate(-105.28 72.95) rotate(-45)"/><rect class="cls-1" x="173.06" y="80.03" width="5.05" height="5.05" transform="translate(-103.79 69.37) rotate(-45)"/><rect class="cls-1" x="194.5" y="108.65" width="5.08" height="5.05" transform="translate(-117.74 92.93) rotate(-45)"/><rect class="cls-1" x="190.94" y="105.08" width="5.08" height="5.05" transform="translate(-116.27 89.36) rotate(-45)"/><rect class="cls-1" x="187.36" y="101.49" width="5.08" height="5.08" transform="translate(-114.78 85.78) rotate(-45)"/><rect class="cls-2" x="183.78" y="97.92" width="5.08" height="5.05" transform="translate(-113.3 82.2) rotate(-45)"/><rect class="cls-2" x="180.2" y="94.33" width="5.08" height="5.08" transform="translate(-111.82 78.62) rotate(-45)"/><rect class="cls-2" x="176.62" y="90.76" width="5.08" height="5.05" transform="translate(-110.34 75.04) rotate(-45)"/><rect class="cls-2" x="173.04" y="87.17" width="5.08" height="5.08" transform="translate(-108.85 71.47) rotate(-45)"/><rect class="cls-1" x="169.46" y="83.61" width="5.08" height="5.05" transform="translate(-107.37 67.89) rotate(-45)"/><rect class="cls-1" x="165.88" y="80.01" width="5.08" height="5.08" transform="translate(-105.89 64.31) rotate(-45)"/><rect class="cls-1" x="201.68" y="122.95" width="5.05" height="5.08" transform="translate(-125.77 102.18) rotate(-45)"/><rect class="cls-1" x="198.1" y="119.38" width="5.05" height="5.05" transform="translate(-124.29 98.6) rotate(-45)"/><rect class="cls-1" x="194.52" y="115.79" width="5.05" height="5.08" transform="translate(-122.81 95.02) rotate(-45)"/><rect class="cls-2" x="190.94" y="112.23" width="5.05" height="5.05" transform="translate(-121.32 91.45) rotate(-45)"/><rect class="cls-2" x="187.37" y="108.66" width="5.05" height="5.05" transform="translate(-119.85 87.88) rotate(-45)"/><rect class="cls-2" x="183.79" y="105.07" width="5.05" height="5.08" transform="translate(-118.36 84.3) rotate(-45)"/><rect class="cls-2" x="180.21" y="101.5" width="5.05" height="5.05" transform="translate(-116.88 80.72) rotate(-45)"/><rect class="cls-2" x="176.64" y="97.91" width="5.05" height="5.08" transform="translate(-115.4 77.14) rotate(-45)"/><rect class="cls-2" x="173.06" y="94.34" width="5.05" height="5.05" transform="translate(-113.92 73.56) rotate(-45)"/><rect class="cls-2" x="169.48" y="90.75" width="5.05" height="5.08" transform="translate(-112.43 69.98) rotate(-45)"/><rect class="cls-2" x="165.9" y="87.19" width="5.05" height="5.05" transform="translate(-110.95 66.4) rotate(-45)"/><rect class="cls-1" x="162.32" y="83.59" width="5.05" height="5.08" transform="translate(-109.47 62.83) rotate(-45)"/><rect class="cls-1" x="158.74" y="80.03" width="5.05" height="5.05" transform="translate(-107.99 59.25) rotate(-45)"/><rect class="cls-1" x="205.24" y="133.69" width="5.08" height="5.08" transform="translate(-132.31 107.86) rotate(-45)"/><rect class="cls-1" x="201.66" y="130.12" width="5.08" height="5.05" transform="translate(-130.83 104.28) rotate(-45)"/><rect class="cls-1" x="198.08" y="126.53" width="5.08" height="5.08" transform="translate(-129.35 100.7) rotate(-45)"/><rect class="cls-2" x="194.5" y="122.96" width="5.08" height="5.05" transform="translate(-127.87 97.12) rotate(-45)"/><rect class="cls-2" x="190.93" y="119.37" width="5.08" height="5.08" transform="translate(-126.38 93.54) rotate(-45)"/><rect class="cls-2" x="187.35" y="115.81" width="5.08" height="5.05" transform="translate(-124.9 89.96) rotate(-45)"/><rect class="cls-2" x="183.78" y="112.24" width="5.08" height="5.05" transform="translate(-123.42 86.4) rotate(-45)"/><rect class="cls-2" x="180.2" y="108.64" width="5.08" height="5.08" transform="translate(-121.94 82.82) rotate(-45)"/><rect class="cls-2" x="176.62" y="105.08" width="5.08" height="5.05" transform="translate(-120.46 79.24) rotate(-45)"/><rect class="cls-2" x="173.04" y="101.49" width="5.08" height="5.08" transform="translate(-118.98 75.66) rotate(-45)"/><rect class="cls-2" x="169.46" y="97.92" width="5.08" height="5.05" transform="translate(-117.49 72.08) rotate(-45)"/><rect class="cls-2" x="165.88" y="94.33" width="5.08" height="5.08" transform="translate(-116.01 68.5) rotate(-45)"/><rect class="cls-3" x="162.31" y="90.76" width="5.08" height="5.05" transform="translate(-114.53 64.92) rotate(-45)"/><rect class="cls-3" x="158.73" y="87.17" width="5.08" height="5.08" transform="translate(-113.05 61.34) rotate(-45)"/><rect class="cls-1" x="155.15" y="83.61" width="5.08" height="5.05" transform="translate(-111.56 57.76) rotate(-45)"/><rect class="cls-1" x="151.57" y="80.01" width="5.08" height="5.08" transform="translate(-110.08 54.19) rotate(-45)"/><rect class="cls-1" x="212.41" y="148.02" width="5.05" height="5.05" transform="translate(-140.34 117.11) rotate(-45)"/><rect class="cls-1" x="208.83" y="144.42" width="5.05" height="5.08" transform="translate(-138.86 113.53) rotate(-45)"/><rect class="cls-1" x="205.26" y="140.86" width="5.05" height="5.05" transform="translate(-137.38 109.95) rotate(-45)"/><rect class="cls-2" x="201.68" y="137.26" width="5.05" height="5.08" transform="translate(-135.89 106.38) rotate(-45)"/><rect class="cls-2" x="198.1" y="133.7" width="5.05" height="5.05" transform="translate(-134.41 102.8) rotate(-45)"/><rect class="cls-2" x="194.52" y="130.11" width="5.05" height="5.08" transform="translate(-132.93 99.22) rotate(-45)"/><rect class="cls-2" x="190.94" y="126.54" width="5.05" height="5.05" transform="translate(-131.45 95.64) rotate(-45)"/><rect class="cls-2" x="187.36" y="122.95" width="5.05" height="5.08" transform="translate(-129.96 92.06) rotate(-45)"/><rect class="cls-2" x="183.78" y="119.38" width="5.05" height="5.05" transform="translate(-128.48 88.48) rotate(-45)"/><rect class="cls-2" x="180.21" y="115.82" width="5.05" height="5.05" transform="translate(-127 84.91) rotate(-45)"/><rect class="cls-2" x="176.64" y="112.22" width="5.05" height="5.08" transform="translate(-125.52 81.33) rotate(-45)"/><rect class="cls-3" x="173.06" y="108.66" width="5.05" height="5.05" transform="translate(-124.04 77.76) rotate(-45)"/><rect class="cls-3" x="169.48" y="105.07" width="5.05" height="5.08" transform="translate(-122.56 74.18) rotate(-45)"/><rect class="cls-3" x="165.9" y="101.5" width="5.05" height="5.05" transform="translate(-121.07 70.6) rotate(-45)"/><rect class="cls-3" x="162.32" y="97.91" width="5.05" height="5.08" transform="translate(-119.59 67.02) rotate(-45)"/><rect class="cls-3" x="158.74" y="94.34" width="5.05" height="5.05" transform="translate(-118.11 63.44) rotate(-45)"/><rect class="cls-3" x="155.16" y="90.75" width="5.05" height="5.08" transform="translate(-116.63 59.86) rotate(-45)"/><rect class="cls-3" x="151.58" y="87.19" width="5.05" height="5.05" transform="translate(-115.14 56.28) rotate(-45)"/><rect class="cls-1" x="148" y="83.59" width="5.05" height="5.08" transform="translate(-113.66 52.7) rotate(-45)"/><rect class="cls-1" x="144.43" y="80.03" width="5.05" height="5.05" transform="translate(-112.18 49.12) rotate(-45)"/><rect class="cls-1" x="219.58" y="162.31" width="5.05" height="5.08" transform="translate(-148.36 126.37) rotate(-45)"/><rect class="cls-1" x="216" y="158.74" width="5.05" height="5.05" transform="translate(-146.87 122.79) rotate(-45)"/><rect class="cls-1" x="212.42" y="155.15" width="5.05" height="5.08" transform="translate(-145.39 119.21) rotate(-45)"/><rect class="cls-2" x="208.84" y="151.58" width="5.05" height="5.05" transform="translate(-143.91 115.63) rotate(-45)"/><rect class="cls-2" x="205.27" y="147.99" width="5.05" height="5.08" transform="translate(-142.43 112.05) rotate(-45)"/><rect class="cls-2" x="201.69" y="144.43" width="5.05" height="5.05" transform="translate(-140.94 108.48) rotate(-45)"/><rect class="cls-2" x="198.11" y="140.83" width="5.05" height="5.08" transform="translate(-139.46 104.9) rotate(-45)"/><rect class="cls-2" x="194.53" y="137.27" width="5.05" height="5.05" transform="translate(-137.98 101.32) rotate(-45)"/><rect class="cls-2" x="190.95" y="133.68" width="5.05" height="5.08" transform="translate(-136.5 97.74) rotate(-45)"/><rect class="cls-2" x="187.37" y="130.11" width="5.05" height="5.05" transform="translate(-135.01 94.16) rotate(-45)"/><rect class="cls-2" x="183.79" y="126.52" width="5.05" height="5.08" transform="translate(-133.53 90.58) rotate(-45)"/><rect class="cls-3" x="180.21" y="122.95" width="5.05" height="5.05" transform="translate(-132.05 87) rotate(-45)"/><rect class="cls-3" x="176.65" y="119.38" width="5.05" height="5.05" transform="translate(-130.57 83.43) rotate(-45)"/><rect class="cls-3" x="173.07" y="115.79" width="5.05" height="5.08" transform="translate(-129.09 79.86) rotate(-45)"/><rect class="cls-3" x="169.49" y="112.23" width="5.05" height="5.05" transform="translate(-127.61 76.28) rotate(-45)"/><rect class="cls-3" x="165.91" y="108.63" width="5.05" height="5.08" transform="translate(-126.12 72.7) rotate(-45)"/><rect class="cls-3" x="162.33" y="105.07" width="5.05" height="5.05" transform="translate(-124.64 69.12) rotate(-45)"/><rect class="cls-3" x="158.75" y="101.48" width="5.05" height="5.08" transform="translate(-123.16 65.54) rotate(-45)"/><rect class="cls-3" x="155.17" y="97.91" width="5.05" height="5.05" transform="translate(-121.68 61.96) rotate(-45)"/><rect class="cls-3" x="151.59" y="94.32" width="5.05" height="5.08" transform="translate(-120.19 58.38) rotate(-45)"/><rect class="cls-3" x="148.02" y="90.75" width="5.05" height="5.05" transform="translate(-118.71 54.8) rotate(-45)"/><rect class="cls-3" x="144.44" y="87.16" width="5.05" height="5.08" transform="translate(-117.23 51.23) rotate(-45)"/><rect class="cls-1" x="140.86" y="83.6" width="5.05" height="5.05" transform="translate(-115.75 47.65) rotate(-45)"/><rect class="cls-1" x="137.28" y="80" width="5.05" height="5.08" transform="translate(-114.27 44.07) rotate(-45)"/><rect class="cls-1" x="223.14" y="173.04" width="5.08" height="5.08" transform="translate(-154.9 132.04) rotate(-45)"/><rect class="cls-1" x="219.57" y="169.48" width="5.08" height="5.05" transform="translate(-153.42 128.47) rotate(-45)"/><rect class="cls-2" x="215.99" y="165.88" width="5.08" height="5.08" transform="translate(-151.93 124.89) rotate(-45)"/><rect class="cls-2" x="212.41" y="162.32" width="5.08" height="5.05" transform="translate(-150.45 121.31) rotate(-45)"/><rect class="cls-2" x="208.83" y="158.73" width="5.08" height="5.08" transform="translate(-148.97 117.73) rotate(-45)"/><rect class="cls-2" x="205.25" y="155.16" width="5.08" height="5.05" transform="translate(-147.49 114.15) rotate(-45)"/><rect class="cls-2" x="201.67" y="151.57" width="5.08" height="5.08" transform="translate(-146.01 110.57) rotate(-45)"/><rect class="cls-2" x="198.09" y="148" width="5.08" height="5.05" transform="translate(-144.52 106.99) rotate(-45)"/><rect class="cls-3" x="194.51" y="144.41" width="5.08" height="5.08" transform="translate(-143.04 103.41) rotate(-45)"/><rect class="cls-3" x="190.94" y="140.85" width="5.08" height="5.05" transform="translate(-141.56 99.84) rotate(-45)"/><rect class="cls-3" x="187.36" y="137.25" width="5.08" height="5.08" transform="translate(-140.08 96.26) rotate(-45)"/><rect class="cls-3" x="183.78" y="133.69" width="5.08" height="5.05" transform="translate(-138.59 92.68) rotate(-45)"/><rect class="cls-3" x="180.2" y="130.1" width="5.08" height="5.08" transform="translate(-137.11 89.1) rotate(-45)"/><rect class="cls-3" x="176.62" y="126.53" width="5.08" height="5.05" transform="translate(-135.63 85.52) rotate(-45)"/><rect class="cls-3" x="173.05" y="122.96" width="5.08" height="5.05" transform="translate(-134.15 81.95) rotate(-45)"/><rect class="cls-3" x="169.47" y="119.37" width="5.08" height="5.08" transform="translate(-132.67 78.37) rotate(-45)"/><rect class="cls-3" x="165.89" y="115.81" width="5.08" height="5.05" transform="translate(-131.19 74.79) rotate(-45)"/><rect class="cls-3" x="162.32" y="112.21" width="5.08" height="5.08" transform="translate(-129.7 71.22) rotate(-45)"/><rect class="cls-3" x="158.74" y="108.65" width="5.08" height="5.05" transform="translate(-128.22 67.64) rotate(-45)"/><rect class="cls-3" x="155.16" y="105.06" width="5.08" height="5.08" transform="translate(-126.74 64.06) rotate(-45)"/><rect class="cls-3" x="151.58" y="101.49" width="5.08" height="5.05" transform="translate(-125.26 60.48) rotate(-45)"/><rect class="cls-3" x="148" y="97.9" width="5.08" height="5.08" transform="translate(-123.77 56.9) rotate(-45)"/><rect class="cls-3" x="144.42" y="94.33" width="5.08" height="5.05" transform="translate(-122.29 53.32) rotate(-45)"/><rect class="cls-3" x="140.84" y="90.74" width="5.08" height="5.08" transform="translate(-120.81 49.74) rotate(-45)"/><rect class="cls-3" x="137.26" y="87.18" width="5.08" height="5.05" transform="translate(-119.33 46.16) rotate(-45)"/><rect class="cls-1" x="133.69" y="83.58" width="5.08" height="5.08" transform="translate(-117.84 42.59) rotate(-45)"/><rect class="cls-1" x="130.11" y="80.02" width="5.08" height="5.05" transform="translate(-116.36 39.01) rotate(-45)"/><rect class="cls-1" x="230.32" y="187.37" width="5.05" height="5.05" transform="translate(-162.93 141.3) rotate(-45)"/><rect class="cls-1" x="226.74" y="183.78" width="5.05" height="5.08" transform="translate(-161.44 137.72) rotate(-45)"/><rect class="cls-1" x="223.16" y="180.21" width="5.05" height="5.05" transform="translate(-159.96 134.14) rotate(-45)"/><rect class="cls-2" x="219.58" y="176.62" width="5.05" height="5.08" transform="translate(-158.48 130.56) rotate(-45)"/><rect class="cls-2" x="216" y="173.06" width="5.05" height="5.05" transform="translate(-157 126.98) rotate(-45)"/><rect class="cls-2" x="212.42" y="169.46" width="5.05" height="5.08" transform="translate(-155.51 123.41) rotate(-45)"/><rect class="cls-2" x="208.84" y="165.9" width="5.05" height="5.05" transform="translate(-154.03 119.83) rotate(-45)"/><rect class="cls-2" x="205.27" y="162.31" width="5.05" height="5.08" transform="translate(-152.55 116.25) rotate(-45)"/><rect class="cls-3" x="201.69" y="158.74" width="5.05" height="5.05" transform="translate(-151.07 112.67) rotate(-45)"/><rect class="cls-3" x="198.11" y="155.15" width="5.05" height="5.08" transform="translate(-149.58 109.09) rotate(-45)"/><rect class="cls-3" x="194.53" y="151.58" width="5.05" height="5.05" transform="translate(-148.1 105.51) rotate(-45)"/><rect class="cls-3" x="190.95" y="147.99" width="5.05" height="5.08" transform="translate(-146.62 101.93) rotate(-45)"/><rect class="cls-3" x="187.37" y="144.43" width="5.05" height="5.05" transform="translate(-145.14 98.35) rotate(-45)"/><rect class="cls-3" x="183.79" y="140.83" width="5.05" height="5.08" transform="translate(-143.65 94.77) rotate(-45)"/><rect class="cls-3" x="180.21" y="137.27" width="5.05" height="5.05" transform="translate(-142.17 91.2) rotate(-45)"/><rect class="cls-3" x="176.64" y="133.68" width="5.05" height="5.08" transform="translate(-140.69 87.62) rotate(-45)"/><rect class="cls-3" x="173.06" y="130.11" width="5.05" height="5.05" transform="translate(-139.21 84.04) rotate(-45)"/><rect class="cls-3" x="169.49" y="126.54" width="5.05" height="5.05" transform="translate(-137.73 80.47) rotate(-45)"/><rect class="cls-3" x="165.91" y="122.95" width="5.05" height="5.08" transform="translate(-136.25 76.89) rotate(-45)"/><rect class="cls-3" x="162.33" y="119.38" width="5.05" height="5.05" transform="translate(-134.76 73.31) rotate(-45)"/><rect class="cls-3" x="158.75" y="115.79" width="5.05" height="5.08" transform="translate(-133.28 69.73) rotate(-45)"/><rect class="cls-3" x="155.17" y="112.23" width="5.05" height="5.05" transform="translate(-131.8 66.15) rotate(-45)"/><rect class="cls-3" x="151.59" y="108.63" width="5.05" height="5.08" transform="translate(-130.32 62.58) rotate(-45)"/><rect class="cls-3" x="148.02" y="105.07" width="5.05" height="5.05" transform="translate(-128.83 59) rotate(-45)"/><rect class="cls-3" x="144.44" y="101.48" width="5.05" height="5.08" transform="translate(-127.35 55.42) rotate(-45)"/><rect class="cls-3" x="140.86" y="97.91" width="5.05" height="5.05" transform="translate(-125.87 51.84) rotate(-45)"/><rect class="cls-3" x="137.28" y="94.32" width="5.05" height="5.08" transform="translate(-124.39 48.26) rotate(-45)"/><rect class="cls-4" x="133.7" y="90.75" width="5.05" height="5.05" transform="translate(-122.91 44.68) rotate(-45)"/><rect class="cls-4" x="130.12" y="87.16" width="5.05" height="5.08" transform="translate(-121.42 41.1) rotate(-45)"/><rect class="cls-1" x="126.54" y="83.6" width="5.05" height="5.05" transform="translate(-119.94 37.52) rotate(-45)"/><rect class="cls-1" x="122.96" y="80" width="5.05" height="5.08" transform="translate(-118.46 33.95) rotate(-45)"/><rect class="cls-1" x="223.14" y="187.36" width="5.08" height="5.08" transform="translate(-165.02 136.24) rotate(-45)"/><rect class="cls-2" x="219.57" y="183.79" width="5.08" height="5.05" transform="translate(-163.54 132.66) rotate(-45)"/><rect class="cls-2" x="215.99" y="180.2" width="5.08" height="5.08" transform="translate(-162.06 129.08) rotate(-45)"/><rect class="cls-2" x="212.41" y="176.64" width="5.08" height="5.05" transform="translate(-160.57 125.5) rotate(-45)"/><rect class="cls-2" x="208.83" y="173.04" width="5.08" height="5.08" transform="translate(-159.09 121.92) rotate(-45)"/><rect class="cls-3" x="205.25" y="169.48" width="5.08" height="5.05" transform="translate(-157.61 118.34) rotate(-45)"/><rect class="cls-3" x="201.67" y="165.88" width="5.08" height="5.08" transform="translate(-156.13 114.77) rotate(-45)"/><rect class="cls-3" x="198.09" y="162.32" width="5.08" height="5.05" transform="translate(-154.64 111.19) rotate(-45)"/><rect class="cls-3" x="194.51" y="158.73" width="5.08" height="5.08" transform="translate(-153.16 107.61) rotate(-45)"/><rect class="cls-3" x="190.94" y="155.16" width="5.08" height="5.05" transform="translate(-151.68 104.03) rotate(-45)"/><rect class="cls-3" x="187.36" y="151.57" width="5.08" height="5.08" transform="translate(-150.2 100.45) rotate(-45)"/><rect class="cls-3" x="183.78" y="148" width="5.08" height="5.05" transform="translate(-148.72 96.87) rotate(-45)"/><rect class="cls-3" x="180.2" y="144.41" width="5.08" height="5.08" transform="translate(-147.23 93.29) rotate(-45)"/><rect class="cls-3" x="176.62" y="140.85" width="5.08" height="5.05" transform="translate(-145.75 89.71) rotate(-45)"/><rect class="cls-3" x="173.04" y="137.25" width="5.08" height="5.08" transform="translate(-144.27 86.13) rotate(-45)"/><rect class="cls-3" x="169.46" y="133.69" width="5.08" height="5.05" transform="translate(-142.79 82.56) rotate(-45)"/><rect class="cls-3" x="165.89" y="130.12" width="5.08" height="5.05" transform="translate(-141.31 78.99) rotate(-45)"/><rect class="cls-3" x="162.32" y="126.53" width="5.08" height="5.08" transform="translate(-139.83 75.41) rotate(-45)"/><rect class="cls-3" x="158.74" y="122.96" width="5.08" height="5.05" transform="translate(-138.34 71.83) rotate(-45)"/><rect class="cls-3" x="155.16" y="119.37" width="5.08" height="5.08" transform="translate(-136.86 68.25) rotate(-45)"/><rect class="cls-3" x="151.58" y="115.81" width="5.08" height="5.05" transform="translate(-135.38 64.67) rotate(-45)"/><rect class="cls-3" x="148" y="112.21" width="5.08" height="5.08" transform="translate(-133.9 61.09) rotate(-45)"/><rect class="cls-4" x="144.42" y="108.65" width="5.08" height="5.05" transform="translate(-132.41 57.51) rotate(-45)"/><rect class="cls-4" x="140.84" y="105.06" width="5.08" height="5.08" transform="translate(-130.93 53.94) rotate(-45)"/><rect class="cls-4" x="137.26" y="101.49" width="5.08" height="5.05" transform="translate(-129.45 50.36) rotate(-45)"/><rect class="cls-4" x="133.69" y="97.9" width="5.08" height="5.08" transform="translate(-127.97 46.78) rotate(-45)"/><rect class="cls-4" x="130.11" y="94.33" width="5.08" height="5.05" transform="translate(-126.48 43.2) rotate(-45)"/><rect class="cls-4" x="126.53" y="90.74" width="5.08" height="5.08" transform="translate(-125 39.62) rotate(-45)"/><rect class="cls-4" x="122.95" y="87.18" width="5.08" height="5.05" transform="translate(-123.52 36.04) rotate(-45)"/><rect class="cls-1" x="119.37" y="83.58" width="5.08" height="5.08" transform="translate(-122.04 32.46) rotate(-45)"/><rect class="cls-1" x="115.79" y="80.02" width="5.08" height="5.05" transform="translate(-120.55 28.88) rotate(-45)"/><rect class="cls-1" x="216" y="187.37" width="5.05" height="5.05" transform="translate(-167.12 131.18) rotate(-45)"/><rect class="cls-3" x="212.42" y="183.78" width="5.05" height="5.08" transform="translate(-165.64 127.6) rotate(-45)"/><rect class="cls-3" x="208.84" y="180.21" width="5.05" height="5.05" transform="translate(-164.15 124.02) rotate(-45)"/><rect class="cls-3" x="205.27" y="176.62" width="5.05" height="5.08" transform="translate(-162.67 120.44) rotate(-45)"/><rect class="cls-3" x="201.69" y="173.06" width="5.05" height="5.05" transform="translate(-161.19 116.86) rotate(-45)"/><rect class="cls-3" x="198.11" y="169.46" width="5.05" height="5.08" transform="translate(-159.71 113.28) rotate(-45)"/><rect class="cls-3" x="194.53" y="165.9" width="5.05" height="5.05" transform="translate(-158.22 109.7) rotate(-45)"/><rect class="cls-3" x="190.95" y="162.31" width="5.05" height="5.08" transform="translate(-156.74 106.13) rotate(-45)"/><rect class="cls-3" x="187.37" y="158.74" width="5.05" height="5.05" transform="translate(-155.26 102.55) rotate(-45)"/><rect class="cls-3" x="183.79" y="155.15" width="5.05" height="5.08" transform="translate(-153.78 98.97) rotate(-45)"/><rect class="cls-3" x="180.21" y="151.58" width="5.05" height="5.05" transform="translate(-152.29 95.39) rotate(-45)"/><rect class="cls-3" x="176.64" y="147.99" width="5.05" height="5.08" transform="translate(-150.81 91.81) rotate(-45)"/><rect class="cls-3" x="173.06" y="144.43" width="5.05" height="5.05" transform="translate(-149.33 88.23) rotate(-45)"/><rect class="cls-3" x="169.48" y="140.83" width="5.05" height="5.08" transform="translate(-147.85 84.65) rotate(-45)"/><rect class="cls-3" x="165.9" y="137.27" width="5.05" height="5.05" transform="translate(-146.36 81.07) rotate(-45)"/><rect class="cls-3" x="162.33" y="133.7" width="5.05" height="5.05" transform="translate(-144.89 77.51) rotate(-45)"/><rect class="cls-3" x="158.75" y="130.11" width="5.05" height="5.08" transform="translate(-143.4 73.93) rotate(-45)"/><rect class="cls-4" x="155.17" y="126.54" width="5.05" height="5.05" transform="translate(-141.92 70.35) rotate(-45)"/><rect class="cls-4" x="151.59" y="122.95" width="5.05" height="5.08" transform="translate(-140.44 66.77) rotate(-45)"/><rect class="cls-4" x="148.02" y="119.38" width="5.05" height="5.05" transform="translate(-138.96 63.19) rotate(-45)"/><rect class="cls-4" x="144.44" y="115.79" width="5.05" height="5.08" transform="translate(-137.47 59.61) rotate(-45)"/><rect class="cls-4" x="140.86" y="112.23" width="5.05" height="5.05" transform="translate(-135.99 56.03) rotate(-45)"/><rect class="cls-4" x="137.28" y="108.63" width="5.05" height="5.08" transform="translate(-134.51 52.45) rotate(-45)"/><rect class="cls-4" x="133.7" y="105.07" width="5.05" height="5.05" transform="translate(-133.03 48.87) rotate(-45)"/><rect class="cls-4" x="130.12" y="101.48" width="5.05" height="5.08" transform="translate(-131.55 45.3) rotate(-45)"/><rect class="cls-4" x="126.54" y="97.91" width="5.05" height="5.05" transform="translate(-130.06 41.72) rotate(-45)"/><rect class="cls-4" x="122.96" y="94.32" width="5.05" height="5.08" transform="translate(-128.58 38.14) rotate(-45)"/><rect class="cls-4" x="119.38" y="90.75" width="5.05" height="5.05" transform="translate(-127.1 34.56) rotate(-45)"/><rect class="cls-4" x="115.81" y="87.16" width="5.05" height="5.08" transform="translate(-125.62 30.98) rotate(-45)"/><rect class="cls-1" x="112.23" y="83.6" width="5.05" height="5.05" transform="translate(-124.13 27.4) rotate(-45)"/><rect class="cls-1" x="108.65" y="80" width="5.05" height="5.08" transform="translate(-122.65 23.82) rotate(-45)"/><rect class="cls-1" x="208.83" y="187.36" width="5.08" height="5.08" transform="translate(-169.21 126.12) rotate(-45)"/><rect class="cls-3" x="205.25" y="183.79" width="5.08" height="5.05" transform="translate(-167.73 122.54) rotate(-45)"/><rect class="cls-3" x="201.67" y="180.2" width="5.08" height="5.08" transform="translate(-166.25 118.96) rotate(-45)"/><rect class="cls-3" x="198.09" y="176.64" width="5.08" height="5.05" transform="translate(-164.77 115.38) rotate(-45)"/><rect class="cls-3" x="194.51" y="173.04" width="5.08" height="5.08" transform="translate(-163.28 111.8) rotate(-45)"/><rect class="cls-3" x="190.94" y="169.48" width="5.08" height="5.05" transform="translate(-161.8 108.22) rotate(-45)"/><rect class="cls-3" x="187.36" y="165.88" width="5.08" height="5.08" transform="translate(-160.32 104.64) rotate(-45)"/><rect class="cls-3" x="183.78" y="162.32" width="5.08" height="5.05" transform="translate(-158.84 101.06) rotate(-45)"/><rect class="cls-3" x="180.2" y="158.73" width="5.08" height="5.08" transform="translate(-157.36 97.49) rotate(-45)"/><rect class="cls-3" x="176.62" y="155.16" width="5.08" height="5.05" transform="translate(-155.87 93.91) rotate(-45)"/><rect class="cls-3" x="173.04" y="151.57" width="5.08" height="5.08" transform="translate(-154.39 90.33) rotate(-45)"/><rect class="cls-3" x="169.46" y="148" width="5.08" height="5.05" transform="translate(-152.91 86.75) rotate(-45)"/><rect class="cls-4" x="165.88" y="144.41" width="5.08" height="5.08" transform="translate(-151.43 83.17) rotate(-45)"/><rect class="cls-4" x="162.31" y="140.85" width="5.08" height="5.05" transform="translate(-149.94 79.59) rotate(-45)"/><rect class="cls-4" x="158.74" y="137.28" width="5.08" height="5.05" transform="translate(-148.47 76.02) rotate(-45)"/><rect class="cls-4" x="155.16" y="133.69" width="5.08" height="5.08" transform="translate(-146.98 72.44) rotate(-45)"/><rect class="cls-4" x="151.58" y="130.12" width="5.08" height="5.05" transform="translate(-145.5 68.87) rotate(-45)"/><rect class="cls-4" x="148" y="126.53" width="5.08" height="5.08" transform="translate(-144.02 65.29) rotate(-45)"/><rect class="cls-4" x="144.42" y="122.96" width="5.08" height="5.05" transform="translate(-142.54 61.71) rotate(-45)"/><rect class="cls-4" x="140.84" y="119.37" width="5.08" height="5.08" transform="translate(-141.05 58.13) rotate(-45)"/><rect class="cls-4" x="137.26" y="115.81" width="5.08" height="5.05" transform="translate(-139.57 54.55) rotate(-45)"/><rect class="cls-4" x="133.69" y="112.21" width="5.08" height="5.08" transform="translate(-138.09 50.97) rotate(-45)"/><rect class="cls-4" x="130.11" y="108.65" width="5.08" height="5.05" transform="translate(-136.61 47.39) rotate(-45)"/><rect class="cls-4" x="126.53" y="105.06" width="5.08" height="5.08" transform="translate(-135.12 43.81) rotate(-45)"/><rect class="cls-4" x="122.95" y="101.49" width="5.08" height="5.05" transform="translate(-133.64 40.23) rotate(-45)"/><rect class="cls-4" x="119.37" y="97.9" width="5.08" height="5.08" transform="translate(-132.16 36.66) rotate(-45)"/><rect class="cls-4" x="115.79" y="94.33" width="5.08" height="5.05" transform="translate(-130.68 33.08) rotate(-45)"/><rect class="cls-4" x="112.21" y="90.74" width="5.08" height="5.08" transform="translate(-129.19 29.5) rotate(-45)"/><rect class="cls-4" x="108.63" y="87.18" width="5.08" height="5.05" transform="translate(-127.71 25.92) rotate(-45)"/><rect class="cls-1" x="105.06" y="83.58" width="5.08" height="5.08" transform="translate(-126.23 22.34) rotate(-45)"/><rect class="cls-1" x="101.48" y="80.02" width="5.08" height="5.05" transform="translate(-124.75 18.76) rotate(-45)"/><rect class="cls-1" x="201.69" y="187.37" width="5.05" height="5.05" transform="translate(-171.31 121.05) rotate(-45)"/><rect class="cls-3" x="198.11" y="183.78" width="5.05" height="5.08" transform="translate(-169.83 117.48) rotate(-45)"/><rect class="cls-3" x="194.53" y="180.21" width="5.05" height="5.05" transform="translate(-168.35 113.9) rotate(-45)"/><rect class="cls-3" x="190.95" y="176.62" width="5.05" height="5.08" transform="translate(-166.86 110.32) rotate(-45)"/><rect class="cls-3" x="187.37" y="173.06" width="5.05" height="5.05" transform="translate(-165.38 106.74) rotate(-45)"/><rect class="cls-3" x="183.79" y="169.46" width="5.05" height="5.08" transform="translate(-163.9 103.16) rotate(-45)"/><rect class="cls-3" x="180.21" y="165.9" width="5.05" height="5.05" transform="translate(-162.42 99.58) rotate(-45)"/><rect class="cls-3" x="176.64" y="162.31" width="5.05" height="5.08" transform="translate(-160.93 96) rotate(-45)"/><rect class="cls-3" x="173.06" y="158.74" width="5.05" height="5.05" transform="translate(-159.45 92.42) rotate(-45)"/><rect class="cls-3" x="169.48" y="155.15" width="5.05" height="5.08" transform="translate(-157.97 88.85) rotate(-45)"/><rect class="cls-3" x="165.9" y="151.58" width="5.05" height="5.05" transform="translate(-156.49 85.27) rotate(-45)"/><rect class="cls-4" x="162.32" y="147.99" width="5.05" height="5.08" transform="translate(-155 81.69) rotate(-45)"/><rect class="cls-4" x="158.74" y="144.43" width="5.05" height="5.05" transform="translate(-153.52 78.11) rotate(-45)"/><rect class="cls-4" x="155.17" y="140.86" width="5.05" height="5.05" transform="translate(-152.04 74.54) rotate(-45)"/><rect class="cls-4" x="151.59" y="137.26" width="5.05" height="5.08" transform="translate(-150.56 70.96) rotate(-45)"/><rect class="cls-4" x="148.02" y="133.7" width="5.05" height="5.05" transform="translate(-149.08 67.38) rotate(-45)"/><rect class="cls-4" x="144.44" y="130.11" width="5.05" height="5.08" transform="translate(-147.6 63.8) rotate(-45)"/><rect class="cls-4" x="140.86" y="126.54" width="5.05" height="5.05" transform="translate(-146.11 60.23) rotate(-45)"/><rect class="cls-4" x="137.28" y="122.95" width="5.05" height="5.08" transform="translate(-144.63 56.65) rotate(-45)"/><rect x="133.7" y="119.38" width="5.05" height="5.05" transform="translate(-143.15 53.07) rotate(-45)"/><rect class="cls-1" x="130.12" y="115.79" width="5.05" height="5.08" transform="translate(-141.67 49.49) rotate(-45)"/><rect class="cls-1" x="126.54" y="112.23" width="5.05" height="5.05" transform="translate(-140.19 45.91) rotate(-45)"/><rect class="cls-1" x="122.96" y="108.63" width="5.05" height="5.08" transform="translate(-138.7 42.33) rotate(-45)"/><rect class="cls-1" x="119.38" y="105.07" width="5.05" height="5.05" transform="translate(-137.22 38.75) rotate(-45)"/><rect class="cls-1" x="115.81" y="101.48" width="5.05" height="5.08" transform="translate(-135.74 35.17) rotate(-45)"/><rect class="cls-1" x="112.23" y="97.91" width="5.05" height="5.05" transform="translate(-134.26 31.59) rotate(-45)"/><rect class="cls-1" x="108.65" y="94.32" width="5.05" height="5.08" transform="translate(-132.77 28.02) rotate(-45)"/><rect class="cls-1" x="105.07" y="90.75" width="5.05" height="5.05" transform="translate(-131.29 24.44) rotate(-45)"/><rect class="cls-1" x="101.49" y="87.16" width="5.05" height="5.08" transform="translate(-129.81 20.86) rotate(-45)"/><rect class="cls-1" x="97.91" y="83.6" width="5.05" height="5.05" transform="translate(-128.33 17.28) rotate(-45)"/><rect class="cls-1" x="194.51" y="187.36" width="5.08" height="5.08" transform="translate(-173.41 115.99) rotate(-45)"/><rect class="cls-3" x="190.94" y="183.79" width="5.08" height="5.05" transform="translate(-171.92 112.41) rotate(-45)"/><rect class="cls-3" x="187.36" y="180.2" width="5.08" height="5.08" transform="translate(-170.44 108.84) rotate(-45)"/><rect class="cls-3" x="183.78" y="176.64" width="5.08" height="5.05" transform="translate(-168.96 105.26) rotate(-45)"/><rect class="cls-3" x="180.2" y="173.04" width="5.08" height="5.08" transform="translate(-167.48 101.68) rotate(-45)"/><rect class="cls-3" x="176.62" y="169.48" width="5.08" height="5.05" transform="translate(-166 98.1) rotate(-45)"/><rect class="cls-3" x="173.04" y="165.88" width="5.08" height="5.08" transform="translate(-164.51 94.52) rotate(-45)"/><rect class="cls-3" x="169.46" y="162.32" width="5.08" height="5.05" transform="translate(-163.03 90.94) rotate(-45)"/><rect class="cls-3" x="165.88" y="158.73" width="5.08" height="5.08" transform="translate(-161.55 87.36) rotate(-45)"/><rect class="cls-3" x="162.31" y="155.16" width="5.08" height="5.05" transform="translate(-160.07 83.78) rotate(-45)"/><rect class="cls-3" x="158.73" y="151.57" width="5.08" height="5.08" transform="translate(-158.58 80.21) rotate(-45)"/><rect class="cls-1" x="155.15" y="148" width="5.08" height="5.05" transform="translate(-157.1 76.63) rotate(-45)"/><rect class="cls-1" x="151.58" y="144.44" width="5.08" height="5.05" transform="translate(-155.62 73.06) rotate(-45)"/><rect class="cls-1" x="148" y="140.84" width="5.08" height="5.08" transform="translate(-154.14 69.48) rotate(-45)"/><rect class="cls-1" x="144.42" y="137.28" width="5.08" height="5.05" transform="translate(-152.66 65.9) rotate(-45)"/><rect class="cls-1" x="140.84" y="133.69" width="5.08" height="5.08" transform="translate(-151.18 62.32) rotate(-45)"/><rect class="cls-1" x="137.26" y="130.12" width="5.08" height="5.05" transform="translate(-149.69 58.74) rotate(-45)"/><rect class="cls-1" x="133.69" y="126.53" width="5.08" height="5.08" transform="translate(-148.21 55.16) rotate(-45)"/><rect x="130.11" y="122.96" width="5.08" height="5.05" transform="translate(-146.73 51.59) rotate(-45)"/><rect x="194.53" y="194.53" width="5.05" height="5.05" transform="translate(-178.47 118.09) rotate(-45)"/><rect class="cls-1" x="190.95" y="190.94" width="5.05" height="5.08" transform="translate(-176.99 114.51) rotate(-45)"/><rect class="cls-1" x="187.37" y="187.37" width="5.05" height="5.05" transform="translate(-175.5 110.93) rotate(-45)"/><rect class="cls-2" x="183.79" y="183.78" width="5.05" height="5.08" transform="translate(-174.02 107.35) rotate(-45)"/><rect class="cls-3" x="180.21" y="180.21" width="5.05" height="5.05" transform="translate(-172.54 103.77) rotate(-45)"/><rect class="cls-3" x="176.64" y="176.62" width="5.05" height="5.08" transform="translate(-171.06 100.2) rotate(-45)"/><rect class="cls-3" x="173.06" y="173.06" width="5.05" height="5.05" transform="translate(-169.57 96.62) rotate(-45)"/><rect class="cls-3" x="169.48" y="169.46" width="5.05" height="5.08" transform="translate(-168.09 93.04) rotate(-45)"/><rect class="cls-3" x="165.9" y="165.9" width="5.05" height="5.05" transform="translate(-166.61 89.46) rotate(-45)"/><rect class="cls-3" x="162.32" y="162.31" width="5.05" height="5.08" transform="translate(-165.13 85.88) rotate(-45)"/><rect class="cls-3" x="158.74" y="158.74" width="5.05" height="5.05" transform="translate(-163.64 82.3) rotate(-45)"/><rect class="cls-3" x="155.16" y="155.15" width="5.05" height="5.08" transform="translate(-162.16 78.72) rotate(-45)"/><rect class="cls-1" x="151.58" y="151.58" width="5.05" height="5.05" transform="translate(-160.68 75.14) rotate(-45)"/><rect class="cls-1" x="148.02" y="148.02" width="5.05" height="5.05" transform="translate(-159.2 71.58) rotate(-45)"/><rect class="cls-1" x="205.25" y="212.42" width="5.08" height="5.05" transform="translate(-187.98 130.92) rotate(-45)"/><rect class="cls-1" x="201.67" y="208.83" width="5.08" height="5.08" transform="translate(-186.49 127.34) rotate(-45)"/><rect class="cls-1" x="198.09" y="205.27" width="5.08" height="5.05" transform="translate(-185.01 123.76) rotate(-45)"/><rect class="cls-1" x="194.51" y="201.67" width="5.08" height="5.08" transform="translate(-183.53 120.19) rotate(-45)"/><rect class="cls-2" x="190.94" y="198.11" width="5.08" height="5.05" transform="translate(-182.05 116.61) rotate(-45)"/><rect class="cls-2" x="187.36" y="194.51" width="5.08" height="5.08" transform="translate(-180.56 113.03) rotate(-45)"/><rect class="cls-2" x="183.78" y="190.95" width="5.08" height="5.05" transform="translate(-179.08 109.45) rotate(-45)"/><rect class="cls-2" x="180.2" y="187.36" width="5.08" height="5.08" transform="translate(-177.6 105.87) rotate(-45)"/><rect class="cls-2" x="176.62" y="183.79" width="5.08" height="5.05" transform="translate(-176.12 102.29) rotate(-45)"/><rect class="cls-3" x="173.04" y="180.2" width="5.08" height="5.08" transform="translate(-174.64 98.71) rotate(-45)"/><rect class="cls-3" x="169.46" y="176.64" width="5.08" height="5.05" transform="translate(-173.15 95.13) rotate(-45)"/><rect class="cls-3" x="165.88" y="173.04" width="5.08" height="5.08" transform="translate(-171.67 91.56) rotate(-45)"/><rect class="cls-3" x="162.31" y="169.48" width="5.08" height="5.05" transform="translate(-170.19 87.98) rotate(-45)"/><rect class="cls-3" x="158.73" y="165.88" width="5.08" height="5.08" transform="translate(-168.71 84.4) rotate(-45)"/><rect class="cls-3" x="155.15" y="162.32" width="5.08" height="5.05" transform="translate(-167.22 80.82) rotate(-45)"/><rect class="cls-3" x="151.57" y="158.73" width="5.08" height="5.08" transform="translate(-165.74 77.24) rotate(-45)"/><rect class="cls-3" x="147.99" y="155.16" width="5.08" height="5.05" transform="translate(-164.26 73.66) rotate(-45)"/><rect class="cls-1" x="144.42" y="151.59" width="5.08" height="5.05" transform="translate(-162.78 70.09) rotate(-45)"/><rect class="cls-1" x="140.84" y="148" width="5.08" height="5.08" transform="translate(-161.3 66.51) rotate(-45)"/><rect class="cls-1" x="219.57" y="233.89" width="5.05" height="5.05" transform="translate(-198.96 147.32) rotate(-45)"/><rect class="cls-1" x="215.99" y="230.29" width="5.05" height="5.08" transform="translate(-197.48 143.74) rotate(-45)"/><rect class="cls-1" x="212.41" y="226.73" width="5.05" height="5.05" transform="translate(-196 140.17) rotate(-45)"/><rect class="cls-1" x="208.83" y="223.13" width="5.05" height="5.08" transform="translate(-194.52 136.59) rotate(-45)"/><rect class="cls-1" x="205.26" y="219.57" width="5.05" height="5.05" transform="translate(-193.03 133.01) rotate(-45)"/><rect class="cls-2" x="201.69" y="216" width="5.05" height="5.05" transform="translate(-191.56 129.44) rotate(-45)"/><rect class="cls-2" x="198.11" y="212.41" width="5.05" height="5.08" transform="translate(-190.07 125.86) rotate(-45)"/><rect class="cls-2" x="194.53" y="208.84" width="5.05" height="5.05" transform="translate(-188.59 122.28) rotate(-45)"/><rect class="cls-2" x="190.95" y="205.25" width="5.05" height="5.08" transform="translate(-187.11 118.7) rotate(-45)"/><rect class="cls-2" x="187.37" y="201.69" width="5.05" height="5.05" transform="translate(-185.63 115.12) rotate(-45)"/><rect class="cls-2" x="183.79" y="198.09" width="5.05" height="5.08" transform="translate(-184.14 111.55) rotate(-45)"/><rect class="cls-2" x="180.21" y="194.53" width="5.05" height="5.05" transform="translate(-182.66 107.97) rotate(-45)"/><rect class="cls-3" x="176.64" y="190.94" width="5.05" height="5.08" transform="translate(-181.18 104.39) rotate(-45)"/><rect class="cls-3" x="173.06" y="187.37" width="5.05" height="5.05" transform="translate(-179.7 100.81) rotate(-45)"/><rect class="cls-3" x="169.48" y="183.78" width="5.05" height="5.08" transform="translate(-178.21 97.23) rotate(-45)"/><rect class="cls-3" x="165.9" y="180.21" width="5.05" height="5.05" transform="translate(-176.73 93.65) rotate(-45)"/><rect class="cls-3" x="162.32" y="176.62" width="5.05" height="5.08" transform="translate(-175.25 90.07) rotate(-45)"/><rect class="cls-3" x="158.74" y="173.06" width="5.05" height="5.05" transform="translate(-173.77 86.49) rotate(-45)"/><rect class="cls-3" x="155.16" y="169.46" width="5.05" height="5.08" transform="translate(-172.28 82.92) rotate(-45)"/><rect class="cls-3" x="151.58" y="165.9" width="5.05" height="5.05" transform="translate(-170.8 79.34) rotate(-45)"/><rect class="cls-3" x="148" y="162.31" width="5.05" height="5.08" transform="translate(-169.32 75.76) rotate(-45)"/><rect class="cls-3" x="144.43" y="158.74" width="5.05" height="5.05" transform="translate(-167.84 72.18) rotate(-45)"/><rect class="cls-3" x="140.86" y="155.17" width="5.05" height="5.05" transform="translate(-166.36 68.61) rotate(-45)"/><rect class="cls-1" x="137.28" y="151.58" width="5.05" height="5.08" transform="translate(-164.88 65.03) rotate(-45)"/><rect class="cls-1" x="133.7" y="148.02" width="5.05" height="5.05" transform="translate(-163.39 61.45) rotate(-45)"/><rect class="cls-1" x="212.4" y="233.87" width="5.08" height="5.08" transform="translate(-201.06 142.26) rotate(-45)"/><rect class="cls-2" x="208.82" y="230.31" width="5.08" height="5.05" transform="translate(-199.58 138.68) rotate(-45)"/><rect class="cls-2" x="205.24" y="226.71" width="5.08" height="5.08" transform="translate(-198.09 135.1) rotate(-45)"/><rect class="cls-2" x="201.66" y="223.15" width="5.08" height="5.05" transform="translate(-196.61 131.53) rotate(-45)"/><rect class="cls-2" x="198.09" y="219.58" width="5.08" height="5.05" transform="translate(-195.13 127.96) rotate(-45)"/><rect class="cls-3" x="194.51" y="215.99" width="5.08" height="5.08" transform="translate(-193.65 124.38) rotate(-45)"/><rect class="cls-3" x="190.94" y="212.42" width="5.08" height="5.05" transform="translate(-192.17 120.8) rotate(-45)"/><rect class="cls-3" x="187.36" y="208.83" width="5.08" height="5.08" transform="translate(-190.69 117.22) rotate(-45)"/><rect class="cls-3" x="183.78" y="205.27" width="5.08" height="5.05" transform="translate(-189.2 113.64) rotate(-45)"/><rect class="cls-3" x="180.2" y="201.67" width="5.08" height="5.08" transform="translate(-187.72 110.06) rotate(-45)"/><rect class="cls-3" x="176.62" y="198.11" width="5.08" height="5.05" transform="translate(-186.24 106.48) rotate(-45)"/><rect class="cls-3" x="173.04" y="194.51" width="5.08" height="5.08" transform="translate(-184.76 102.91) rotate(-45)"/><rect class="cls-3" x="169.46" y="190.95" width="5.08" height="5.05" transform="translate(-183.28 99.33) rotate(-45)"/><rect class="cls-3" x="165.88" y="187.36" width="5.08" height="5.08" transform="translate(-181.79 95.75) rotate(-45)"/><rect class="cls-3" x="162.31" y="183.79" width="5.08" height="5.05" transform="translate(-180.31 92.17) rotate(-45)"/><rect class="cls-3" x="158.73" y="180.2" width="5.08" height="5.08" transform="translate(-178.83 88.59) rotate(-45)"/><rect class="cls-3" x="155.15" y="176.64" width="5.08" height="5.05" transform="translate(-177.35 85.01) rotate(-45)"/><rect class="cls-3" x="151.57" y="173.04" width="5.08" height="5.08" transform="translate(-175.86 81.43) rotate(-45)"/><rect class="cls-3" x="147.99" y="169.48" width="5.08" height="5.05" transform="translate(-174.38 77.85) rotate(-45)"/><rect class="cls-3" x="144.41" y="165.88" width="5.08" height="5.08" transform="translate(-172.9 74.28) rotate(-45)"/><rect class="cls-3" x="140.83" y="162.32" width="5.08" height="5.05" transform="translate(-171.42 70.7) rotate(-45)"/><rect class="cls-3" x="137.26" y="158.75" width="5.08" height="5.05" transform="translate(-169.94 67.13) rotate(-45)"/><rect class="cls-3" x="133.69" y="155.16" width="5.08" height="5.08" transform="translate(-168.46 63.55) rotate(-45)"/><rect class="cls-1" x="130.11" y="151.59" width="5.08" height="5.05" transform="translate(-166.97 59.97) rotate(-45)"/><rect class="cls-1" x="126.53" y="148" width="5.08" height="5.08" transform="translate(-165.49 56.39) rotate(-45)"/><rect class="cls-1" x="205.26" y="233.89" width="5.05" height="5.05" transform="translate(-203.16 137.2) rotate(-45)"/><rect class="cls-3" x="201.68" y="230.29" width="5.05" height="5.08" transform="translate(-201.67 133.62) rotate(-45)"/><rect class="cls-3" x="198.1" y="226.73" width="5.05" height="5.05" transform="translate(-200.19 130.04) rotate(-45)"/><rect class="cls-3" x="194.53" y="223.16" width="5.05" height="5.05" transform="translate(-198.71 126.48) rotate(-45)"/><rect class="cls-3" x="190.95" y="219.57" width="5.05" height="5.08" transform="translate(-197.23 122.9) rotate(-45)"/><rect class="cls-3" x="187.37" y="216" width="5.05" height="5.05" transform="translate(-195.75 119.32) rotate(-45)"/><rect class="cls-3" x="183.79" y="212.41" width="5.05" height="5.08" transform="translate(-194.27 115.74) rotate(-45)"/><rect class="cls-3" x="180.21" y="208.84" width="5.05" height="5.05" transform="translate(-192.78 112.16) rotate(-45)"/><rect class="cls-3" x="176.64" y="205.25" width="5.05" height="5.08" transform="translate(-191.3 108.58) rotate(-45)"/><rect class="cls-3" x="173.06" y="201.69" width="5.05" height="5.05" transform="translate(-189.82 105) rotate(-45)"/><rect class="cls-3" x="169.48" y="198.09" width="5.05" height="5.08" transform="translate(-188.34 101.42) rotate(-45)"/><rect class="cls-3" x="165.9" y="194.53" width="5.05" height="5.05" transform="translate(-186.85 97.84) rotate(-45)"/><rect class="cls-3" x="162.32" y="190.94" width="5.05" height="5.08" transform="translate(-185.37 94.27) rotate(-45)"/><rect class="cls-3" x="158.74" y="187.37" width="5.05" height="5.05" transform="translate(-183.89 90.69) rotate(-45)"/><rect class="cls-3" x="155.16" y="183.78" width="5.05" height="5.08" transform="translate(-182.41 87.11) rotate(-45)"/><rect class="cls-3" x="151.58" y="180.21" width="5.05" height="5.05" transform="translate(-180.92 83.53) rotate(-45)"/><rect class="cls-3" x="148" y="176.62" width="5.05" height="5.08" transform="translate(-179.44 79.95) rotate(-45)"/><rect class="cls-3" x="144.43" y="173.06" width="5.05" height="5.05" transform="translate(-177.96 76.37) rotate(-45)"/><rect class="cls-3" x="140.85" y="169.46" width="5.05" height="5.08" transform="translate(-176.48 72.79) rotate(-45)"/><rect class="cls-3" x="137.27" y="165.9" width="5.05" height="5.05" transform="translate(-174.99 69.21) rotate(-45)"/><rect class="cls-3" x="133.7" y="162.33" width="5.05" height="5.05" transform="translate(-173.52 65.65) rotate(-45)"/><rect class="cls-3" x="130.12" y="158.74" width="5.05" height="5.08" transform="translate(-172.03 62.07) rotate(-45)"/><rect class="cls-3" x="126.54" y="155.17" width="5.05" height="5.05" transform="translate(-170.55 58.49) rotate(-45)"/><rect class="cls-1" x="122.96" y="151.58" width="5.05" height="5.08" transform="translate(-169.07 54.91) rotate(-45)"/><rect class="cls-1" x="119.38" y="148.02" width="5.05" height="5.05" transform="translate(-167.59 51.33) rotate(-45)"/><rect class="cls-1" x="198.08" y="233.87" width="5.08" height="5.08" transform="translate(-205.25 132.14) rotate(-45)"/><rect class="cls-3" x="194.5" y="230.31" width="5.08" height="5.05" transform="translate(-203.77 128.56) rotate(-45)"/><rect class="cls-3" x="190.94" y="226.74" width="5.08" height="5.05" transform="translate(-202.29 124.99) rotate(-45)"/><rect class="cls-3" x="187.36" y="223.14" width="5.08" height="5.08" transform="translate(-200.81 121.41) rotate(-45)"/><rect class="cls-3" x="183.78" y="219.58" width="5.08" height="5.05" transform="translate(-199.33 117.84) rotate(-45)"/><rect class="cls-3" x="180.2" y="215.99" width="5.08" height="5.08" transform="translate(-197.84 114.26) rotate(-45)"/><rect class="cls-3" x="176.62" y="212.42" width="5.08" height="5.05" transform="translate(-196.36 110.68) rotate(-45)"/><rect class="cls-3" x="173.04" y="208.83" width="5.08" height="5.08" transform="translate(-194.88 107.1) rotate(-45)"/><rect class="cls-3" x="169.46" y="205.27" width="5.08" height="5.05" transform="translate(-193.4 103.52) rotate(-45)"/><rect class="cls-3" x="165.88" y="201.67" width="5.08" height="5.08" transform="translate(-191.92 99.94) rotate(-45)"/><rect class="cls-3" x="162.31" y="198.11" width="5.08" height="5.05" transform="translate(-190.43 96.36) rotate(-45)"/><rect class="cls-3" x="158.73" y="194.51" width="5.08" height="5.08" transform="translate(-188.95 92.78) rotate(-45)"/><rect class="cls-3" x="155.15" y="190.95" width="5.08" height="5.05" transform="translate(-187.47 89.2) rotate(-45)"/><rect class="cls-3" x="151.57" y="187.36" width="5.08" height="5.08" transform="translate(-185.99 85.63) rotate(-45)"/><rect class="cls-4" x="147.99" y="183.79" width="5.08" height="5.05" transform="translate(-184.5 82.05) rotate(-45)"/><rect class="cls-4" x="144.41" y="180.2" width="5.08" height="5.08" transform="translate(-183.02 78.47) rotate(-45)"/><rect class="cls-4" x="140.83" y="176.64" width="5.08" height="5.05" transform="translate(-181.54 74.89) rotate(-45)"/><rect class="cls-4" x="137.25" y="173.04" width="5.08" height="5.08" transform="translate(-180.06 71.31) rotate(-45)"/><rect class="cls-4" x="133.68" y="169.48" width="5.08" height="5.05" transform="translate(-178.57 67.73) rotate(-45)"/><rect class="cls-4" x="130.11" y="165.91" width="5.08" height="5.05" transform="translate(-177.1 64.16) rotate(-45)"/><rect class="cls-4" x="126.53" y="162.32" width="5.08" height="5.08" transform="translate(-175.61 60.58) rotate(-45)"/><rect class="cls-4" x="122.95" y="158.75" width="5.08" height="5.05" transform="translate(-174.13 57.01) rotate(-45)"/><rect class="cls-4" x="119.37" y="155.16" width="5.08" height="5.08" transform="translate(-172.65 53.43) rotate(-45)"/><rect class="cls-1" x="115.79" y="151.59" width="5.08" height="5.05" transform="translate(-171.17 49.85) rotate(-45)"/><rect class="cls-1" x="112.21" y="148" width="5.08" height="5.08" transform="translate(-169.68 46.27) rotate(-45)"/><rect class="cls-1" x="190.94" y="233.89" width="5.05" height="5.05" transform="translate(-207.35 127.08) rotate(-45)"/><rect class="cls-3" x="187.37" y="230.32" width="5.05" height="5.05" transform="translate(-205.87 123.51) rotate(-45)"/><rect class="cls-3" x="183.79" y="226.72" width="5.05" height="5.08" transform="translate(-204.39 119.93) rotate(-45)"/><rect class="cls-3" x="180.21" y="223.16" width="5.05" height="5.05" transform="translate(-202.91 116.35) rotate(-45)"/><rect class="cls-3" x="176.64" y="219.57" width="5.05" height="5.08" transform="translate(-201.42 112.77) rotate(-45)"/><rect class="cls-3" x="173.06" y="216" width="5.05" height="5.05" transform="translate(-199.94 109.2) rotate(-45)"/><rect class="cls-4" x="169.48" y="212.41" width="5.05" height="5.08" transform="translate(-198.46 105.62) rotate(-45)"/><rect class="cls-4" x="165.9" y="208.84" width="5.05" height="5.05" transform="translate(-196.98 102.04) rotate(-45)"/><rect class="cls-4" x="162.32" y="205.25" width="5.05" height="5.08" transform="translate(-195.49 98.46) rotate(-45)"/><rect class="cls-4" x="158.74" y="201.69" width="5.05" height="5.05" transform="translate(-194.01 94.88) rotate(-45)"/><rect class="cls-4" x="155.16" y="198.09" width="5.05" height="5.08" transform="translate(-192.53 91.3) rotate(-45)"/><rect class="cls-4" x="151.58" y="194.53" width="5.05" height="5.05" transform="translate(-191.05 87.72) rotate(-45)"/><rect class="cls-4" x="148" y="190.94" width="5.05" height="5.08" transform="translate(-189.56 84.14) rotate(-45)"/><rect class="cls-4" x="144.43" y="187.37" width="5.05" height="5.05" transform="translate(-188.08 80.57) rotate(-45)"/><rect class="cls-4" x="140.85" y="183.78" width="5.05" height="5.08" transform="translate(-186.6 76.99) rotate(-45)"/><rect class="cls-4" x="137.27" y="180.21" width="5.05" height="5.05" transform="translate(-185.12 73.41) rotate(-45)"/><rect class="cls-4" x="133.69" y="176.62" width="5.05" height="5.08" transform="translate(-183.63 69.83) rotate(-45)"/><rect class="cls-4" x="130.11" y="173.06" width="5.05" height="5.05" transform="translate(-182.15 66.25) rotate(-45)"/><rect class="cls-4" x="126.54" y="169.49" width="5.05" height="5.05" transform="translate(-180.67 62.68) rotate(-45)"/><rect class="cls-4" x="122.96" y="165.89" width="5.05" height="5.08" transform="translate(-179.19 59.1) rotate(-45)"/><rect class="cls-4" x="119.38" y="162.33" width="5.05" height="5.05" transform="translate(-177.71 55.52) rotate(-45)"/><rect class="cls-4" x="115.81" y="158.74" width="5.05" height="5.08" transform="translate(-176.23 51.94) rotate(-45)"/><rect class="cls-4" x="112.23" y="155.17" width="5.05" height="5.05" transform="translate(-174.74 48.37) rotate(-45)"/><rect class="cls-1" x="108.65" y="151.58" width="5.05" height="5.08" transform="translate(-173.26 44.79) rotate(-45)"/><rect class="cls-1" x="105.07" y="148.02" width="5.05" height="5.05" transform="translate(-171.78 41.21) rotate(-45)"/><rect class="cls-1" x="183.78" y="233.9" width="5.08" height="5.05" transform="translate(-209.45 122.03) rotate(-45)"/><rect class="cls-3" x="180.2" y="230.3" width="5.08" height="5.08" transform="translate(-207.97 118.45) rotate(-45)"/><rect class="cls-3" x="176.62" y="226.74" width="5.08" height="5.05" transform="translate(-206.48 114.87) rotate(-45)"/><rect class="cls-3" x="173.04" y="223.14" width="5.08" height="5.08" transform="translate(-205 111.29) rotate(-45)"/><rect class="cls-3" x="169.46" y="219.58" width="5.08" height="5.05" transform="translate(-203.52 107.71) rotate(-45)"/><rect class="cls-3" x="165.88" y="215.99" width="5.08" height="5.08" transform="translate(-202.04 104.13) rotate(-45)"/><rect class="cls-1" x="162.31" y="212.42" width="5.08" height="5.05" transform="translate(-200.56 100.56) rotate(-45)"/><rect class="cls-1" x="158.73" y="208.83" width="5.08" height="5.08" transform="translate(-199.07 96.98) rotate(-45)"/><rect class="cls-1" x="155.15" y="205.27" width="5.08" height="5.05" transform="translate(-197.59 93.4) rotate(-45)"/><rect class="cls-1" x="151.57" y="201.67" width="5.08" height="5.08" transform="translate(-196.11 89.82) rotate(-45)"/><rect x="147.99" y="198.11" width="5.08" height="5.05" transform="translate(-194.63 86.24) rotate(-45)"/><rect x="144.41" y="194.51" width="5.08" height="5.08" transform="translate(-193.14 82.66) rotate(-45)"/><rect x="140.83" y="190.95" width="5.08" height="5.05" transform="translate(-191.66 79.08) rotate(-45)"/><rect x="137.25" y="187.36" width="5.08" height="5.08" transform="translate(-190.18 75.5) rotate(-45)"/><rect x="133.68" y="183.79" width="5.08" height="5.05" transform="translate(-188.7 71.93) rotate(-45)"/><rect x="130.1" y="180.2" width="5.08" height="5.08" transform="translate(-187.21 68.35) rotate(-45)"/><rect x="126.52" y="176.64" width="5.08" height="5.05" transform="translate(-185.73 64.77) rotate(-45)"/><rect x="122.95" y="173.07" width="5.08" height="5.05" transform="translate(-184.25 61.2) rotate(-45)"/><rect x="119.37" y="169.47" width="5.08" height="5.08" transform="translate(-182.77 57.62) rotate(-45)"/><rect x="115.79" y="165.91" width="5.08" height="5.05" transform="translate(-181.29 54.04) rotate(-45)"/><rect x="112.21" y="162.32" width="5.08" height="5.08" transform="translate(-179.81 50.46) rotate(-45)"/><rect x="108.63" y="158.75" width="5.08" height="5.05" transform="translate(-178.32 46.88) rotate(-45)"/><rect x="105.06" y="155.16" width="5.08" height="5.08" transform="translate(-176.84 43.31) rotate(-45)"/><rect class="cls-1" x="101.48" y="151.59" width="5.08" height="5.05" transform="translate(-175.36 39.73) rotate(-45)"/><rect class="cls-1" x="97.9" y="148" width="5.08" height="5.08" transform="translate(-173.88 36.15) rotate(-45)"/><rect class="cls-1" x="198.1" y="255.36" width="5.05" height="5.05" transform="translate(-220.44 138.43) rotate(-45)"/><rect class="cls-1" x="194.52" y="251.76" width="5.05" height="5.08" transform="translate(-218.95 134.85) rotate(-45)"/><rect class="cls-1" x="190.94" y="248.2" width="5.05" height="5.05" transform="translate(-217.47 131.27) rotate(-45)"/><rect class="cls-1" x="187.36" y="244.61" width="5.05" height="5.08" transform="translate(-215.99 127.69) rotate(-45)"/><rect class="cls-1" x="183.78" y="241.04" width="5.05" height="5.05" transform="translate(-214.51 124.11) rotate(-45)"/><rect class="cls-1" x="180.21" y="237.47" width="5.05" height="5.05" transform="translate(-213.03 120.55) rotate(-45)"/><rect class="cls-1" x="176.64" y="233.88" width="5.05" height="5.08" transform="translate(-211.55 116.97) rotate(-45)"/><rect class="cls-3" x="173.06" y="230.32" width="5.05" height="5.05" transform="translate(-210.06 113.39) rotate(-45)"/><rect class="cls-3" x="169.48" y="226.72" width="5.05" height="5.08" transform="translate(-208.58 109.81) rotate(-45)"/><rect class="cls-3" x="165.9" y="223.16" width="5.05" height="5.05" transform="translate(-207.1 106.23) rotate(-45)"/><rect class="cls-3" x="162.32" y="219.57" width="5.05" height="5.08" transform="translate(-205.62 102.65) rotate(-45)"/><rect class="cls-3" x="158.74" y="216" width="5.05" height="5.05" transform="translate(-204.13 99.07) rotate(-45)"/><rect class="cls-1" x="155.16" y="212.41" width="5.05" height="5.08" transform="translate(-202.65 95.49) rotate(-45)"/><rect class="cls-1" x="151.58" y="208.84" width="5.05" height="5.05" transform="translate(-201.17 91.92) rotate(-45)"/><rect class="cls-1" x="201.69" y="266.08" width="5.05" height="5.05" transform="translate(-226.97 144.11) rotate(-45)"/><rect class="cls-1" x="198.11" y="262.49" width="5.05" height="5.08" transform="translate(-225.49 140.53) rotate(-45)"/><rect class="cls-1" x="194.53" y="258.93" width="5.05" height="5.05" transform="translate(-224 136.95) rotate(-45)"/><rect class="cls-3" x="190.95" y="255.33" width="5.05" height="5.08" transform="translate(-222.52 133.37) rotate(-45)"/><rect class="cls-3" x="187.37" y="251.77" width="5.05" height="5.05" transform="translate(-221.04 129.79) rotate(-45)"/><rect class="cls-3" x="183.79" y="248.18" width="5.05" height="5.08" transform="translate(-219.56 126.21) rotate(-45)"/><rect class="cls-3" x="180.21" y="244.61" width="5.05" height="5.05" transform="translate(-218.07 122.64) rotate(-45)"/><rect class="cls-3" x="176.65" y="241.04" width="5.05" height="5.05" transform="translate(-216.6 119.07) rotate(-45)"/><rect class="cls-3" x="173.07" y="237.45" width="5.05" height="5.08" transform="translate(-215.11 115.49) rotate(-45)"/><rect class="cls-3" x="169.49" y="233.89" width="5.05" height="5.05" transform="translate(-213.63 111.91) rotate(-45)"/><rect class="cls-3" x="165.91" y="230.29" width="5.05" height="5.08" transform="translate(-212.15 108.33) rotate(-45)"/><rect class="cls-3" x="162.33" y="226.73" width="5.05" height="5.05" transform="translate(-210.67 104.75) rotate(-45)"/><rect class="cls-3" x="158.75" y="223.13" width="5.05" height="5.08" transform="translate(-209.18 101.17) rotate(-45)"/><rect class="cls-3" x="155.17" y="219.57" width="5.05" height="5.05" transform="translate(-207.7 97.59) rotate(-45)"/><rect class="cls-3" x="151.59" y="215.98" width="5.05" height="5.08" transform="translate(-206.22 94.02) rotate(-45)"/><rect class="cls-1" x="148.02" y="212.41" width="5.05" height="5.05" transform="translate(-204.74 90.44) rotate(-45)"/><rect class="cls-1" x="144.44" y="208.82" width="5.05" height="5.08" transform="translate(-203.26 86.86) rotate(-45)"/><rect class="cls-1" x="190.94" y="262.51" width="5.08" height="5.05" transform="translate(-227.58 135.47) rotate(-45)"/><rect class="cls-1" x="187.36" y="258.91" width="5.08" height="5.08" transform="translate(-226.1 131.89) rotate(-45)"/><rect class="cls-1" x="183.78" y="255.35" width="5.08" height="5.05" transform="translate(-224.62 128.31) rotate(-45)"/><rect class="cls-1" x="180.2" y="251.75" width="5.08" height="5.08" transform="translate(-223.14 124.73) rotate(-45)"/><rect class="cls-3" x="176.62" y="248.19" width="5.08" height="5.05" transform="translate(-221.65 121.15) rotate(-45)"/><rect class="cls-3" x="173.05" y="244.62" width="5.08" height="5.05" transform="translate(-220.18 117.59) rotate(-45)"/><rect class="cls-3" x="169.47" y="241.03" width="5.08" height="5.08" transform="translate(-218.69 114.01) rotate(-45)"/><rect class="cls-3" x="165.89" y="237.46" width="5.08" height="5.05" transform="translate(-217.21 110.43) rotate(-45)"/><rect class="cls-3" x="162.32" y="233.87" width="5.08" height="5.08" transform="translate(-215.73 106.85) rotate(-45)"/><rect class="cls-3" x="158.74" y="230.31" width="5.08" height="5.05" transform="translate(-214.25 103.27) rotate(-45)"/><rect class="cls-3" x="155.16" y="226.71" width="5.08" height="5.08" transform="translate(-212.76 99.69) rotate(-45)"/><rect class="cls-3" x="151.58" y="223.15" width="5.08" height="5.05" transform="translate(-211.28 96.11) rotate(-45)"/><rect class="cls-3" x="148" y="219.56" width="5.08" height="5.08" transform="translate(-209.8 92.53) rotate(-45)"/><rect class="cls-3" x="144.42" y="215.99" width="5.08" height="5.05" transform="translate(-208.32 88.95) rotate(-45)"/><rect class="cls-1" x="140.84" y="212.4" width="5.08" height="5.08" transform="translate(-206.83 85.38) rotate(-45)"/><rect class="cls-1" x="137.26" y="208.83" width="5.08" height="5.05" transform="translate(-205.35 81.8) rotate(-45)"/><rect class="cls-1" x="173.06" y="251.77" width="5.05" height="5.05" transform="translate(-225.23 119.67) rotate(-45)"/><rect class="cls-1" x="169.49" y="248.2" width="5.05" height="5.05" transform="translate(-223.75 116.1) rotate(-45)"/><rect class="cls-1" x="165.91" y="244.61" width="5.05" height="5.08" transform="translate(-222.27 112.52) rotate(-45)"/><rect class="cls-1" x="162.33" y="241.04" width="5.05" height="5.05" transform="translate(-220.79 108.95) rotate(-45)"/><rect class="cls-3" x="158.75" y="237.45" width="5.05" height="5.08" transform="translate(-219.31 105.37) rotate(-45)"/><rect class="cls-3" x="155.17" y="233.89" width="5.05" height="5.05" transform="translate(-217.82 101.79) rotate(-45)"/><rect class="cls-3" x="151.59" y="230.29" width="5.05" height="5.08" transform="translate(-216.34 98.21) rotate(-45)"/><rect class="cls-3" x="148.02" y="226.73" width="5.05" height="5.05" transform="translate(-214.86 94.63) rotate(-45)"/><rect class="cls-3" x="144.44" y="223.13" width="5.05" height="5.08" transform="translate(-213.38 91.05) rotate(-45)"/><rect class="cls-3" x="140.86" y="219.57" width="5.05" height="5.05" transform="translate(-211.9 87.47) rotate(-45)"/><rect class="cls-3" x="137.28" y="215.98" width="5.05" height="5.08" transform="translate(-210.41 83.89) rotate(-45)"/><rect class="cls-1" x="133.7" y="212.41" width="5.05" height="5.05" transform="translate(-208.93 80.31) rotate(-45)"/><rect class="cls-1" x="130.12" y="208.82" width="5.05" height="5.08" transform="translate(-207.45 76.74) rotate(-45)"/><rect class="cls-1" x="155.16" y="241.03" width="5.08" height="5.08" transform="translate(-222.89 103.88) rotate(-45)"/><rect class="cls-1" x="151.58" y="237.46" width="5.08" height="5.05" transform="translate(-221.4 100.31) rotate(-45)"/><rect class="cls-1" x="148" y="233.87" width="5.08" height="5.08" transform="translate(-219.92 96.73) rotate(-45)"/><rect x="144.42" y="230.31" width="5.08" height="5.05" transform="translate(-218.44 93.15) rotate(-45)"/><rect class="cls-4" x="140.84" y="226.71" width="5.08" height="5.08" transform="translate(-216.96 89.57) rotate(-45)"/><rect class="cls-4" x="137.26" y="223.15" width="5.08" height="5.05" transform="translate(-215.47 85.99) rotate(-45)"/><rect class="cls-4" x="133.69" y="219.56" width="5.08" height="5.08" transform="translate(-213.99 82.41) rotate(-45)"/><rect class="cls-4" x="130.11" y="215.99" width="5.08" height="5.05" transform="translate(-212.51 78.83) rotate(-45)"/><rect x="126.53" y="212.4" width="5.08" height="5.08" transform="translate(-211.03 75.25) rotate(-45)"/><rect class="cls-1" x="122.95" y="208.83" width="5.08" height="5.05" transform="translate(-209.54 71.67) rotate(-45)"/><rect x="140.86" y="233.89" width="5.05" height="5.05" transform="translate(-222.02 91.67) rotate(-45)"/><rect x="137.28" y="230.29" width="5.05" height="5.08" transform="translate(-220.54 88.09) rotate(-45)"/><rect class="cls-1" x="133.7" y="226.73" width="5.05" height="5.05" transform="translate(-219.05 84.51) rotate(-45)"/><rect class="cls-4" x="130.12" y="223.13" width="5.05" height="5.08" transform="translate(-217.57 80.93) rotate(-45)"/><rect class="cls-4" x="126.54" y="219.57" width="5.05" height="5.05" transform="translate(-216.09 77.35) rotate(-45)"/><rect class="cls-4" x="122.96" y="215.98" width="5.05" height="5.08" transform="translate(-214.61 73.77) rotate(-45)"/><rect class="cls-4" x="119.38" y="212.41" width="5.05" height="5.05" transform="translate(-213.12 70.19) rotate(-45)"/><rect class="cls-1" x="115.81" y="208.82" width="5.05" height="5.08" transform="translate(-211.64 66.61) rotate(-45)"/><rect class="cls-1" x="126.53" y="226.71" width="5.08" height="5.08" transform="translate(-221.15 79.45) rotate(-45)"/><rect class="cls-1" x="122.95" y="223.15" width="5.08" height="5.05" transform="translate(-219.67 75.87) rotate(-45)"/><rect class="cls-1" x="119.37" y="219.56" width="5.08" height="5.08" transform="translate(-218.18 72.29) rotate(-45)"/><rect class="cls-4" x="115.79" y="215.99" width="5.08" height="5.05" transform="translate(-216.7 68.71) rotate(-45)"/><rect class="cls-4" x="112.21" y="212.4" width="5.08" height="5.08" transform="translate(-215.22 65.13) rotate(-45)"/><rect class="cls-1" x="108.63" y="208.83" width="5.08" height="5.05" transform="translate(-213.74 61.55) rotate(-45)"/><rect class="cls-1" x="112.23" y="219.57" width="5.05" height="5.05" transform="translate(-220.28 67.23) rotate(-45)"/><rect class="cls-1" x="108.65" y="215.98" width="5.05" height="5.08" transform="translate(-218.8 63.65) rotate(-45)"/><rect class="cls-1" x="105.07" y="212.41" width="5.05" height="5.05" transform="translate(-217.32 60.07) rotate(-45)"/><rect class="cls-1" x="101.49" y="208.82" width="5.05" height="5.08" transform="translate(-215.83 56.49) rotate(-45)"/></g></g></svg>