<svg id="Layer_1" data-name="Layer 1" xmlns="http://www.w3.org/2000/svg" viewBox="0 0 129.25 86.8"><defs><style>.cls-1,.cls-2{fill:none;}.cls-2{font-size:8px;font-family:Gotham-Book, Gotham;}.cls-3{letter-spacing:-0.01em;}.cls-4{letter-spacing:-0.01em;}.cls-5{letter-spacing:0em;}.cls-6{font-family:Gotham-Medium, Gotham;font-weight:500;}.cls-7{font-size:11px;}.cls-7,.cls-8{font-family:Courier-Bold, Courier;font-weight:700;}.cls-8{font-size:10px;}.cls-9{fill:#1d1d1b;}</style></defs><title>Artboard 1</title><rect class="cls-1" x="1" y="1" width="127.25" height="18.04"/><rect class="cls-1" x="1" y="67.82" width="127.25" height="17.98"/><rect class="cls-1" x="1" y="1" width="127.25" height="84.8"/><path class="cls-1" d="M45.41,12.28l1-3.5a.51.51,0,0,1,.12-.24.41.41,0,0,1,.25,0h.26a.48.48,0,0,1,.24,0,.51.51,0,0,1,.13.21l1.14,3.53.58-4.66h-.92a.7.7,0,0,1-.4-.09.37.37,0,0,1-.13-.3.36.36,0,0,1,.12-.31.8.8,0,0,1,.45-.09h1.89a.3.3,0,0,1,.23.11.43.43,0,0,1,.1.29.34.34,0,0,1-.11.29.45.45,0,0,1-.33.1H50l-.83,5.86a.63.63,0,0,1-.07.24.21.21,0,0,1-.16.06h-.42a.34.34,0,0,1-.2,0,.46.46,0,0,1-.13-.2l-1.27-4-1.12,4a.36.36,0,0,1-.11.19.36.36,0,0,1-.21,0H45a.21.21,0,0,1-.17-.06.38.38,0,0,1-.08-.25l-.89-5.85H43.8a.5.5,0,0,1-.35-.1.37.37,0,0,1-.11-.29.46.46,0,0,1,.09-.29.31.31,0,0,1,.23-.11h1.9a.76.76,0,0,1,.44.09.36.36,0,0,1,.12.31.36.36,0,0,1-.12.3.7.7,0,0,1-.39.09h-.83Z"/><path class="cls-1" d="M55.47,13a3.59,3.59,0,0,1-1,.66,3.15,3.15,0,0,1-1.16.23,2,2,0,0,1-1.41-.49,1.63,1.63,0,0,1-.54-1.27A1.67,1.67,0,0,1,52,10.74a3.4,3.4,0,0,1,2-.51,5.32,5.32,0,0,1,.69,0,6.35,6.35,0,0,1,.71.14v0a1.4,1.4,0,0,0-.32-1,1.41,1.41,0,0,0-1-.32,2.53,2.53,0,0,0-1,.25,2.5,2.5,0,0,1-.74.24.34.34,0,0,1-.28-.13A.53.53,0,0,1,52,9.05c0-.23.21-.42.65-.59a4.8,4.8,0,0,1,1.65-.24,2.12,2.12,0,0,1,1.56.53,2.11,2.11,0,0,1,.53,1.55V13h.28a1.15,1.15,0,0,1,.56.09.36.36,0,0,1,.14.32.39.39,0,0,1-.12.31.49.49,0,0,1-.35.11h-.92a.36.36,0,0,1-.27-.1.56.56,0,0,1-.14-.29Zm0-1.85A5.29,5.29,0,0,0,54.8,11a4,4,0,0,0-.6,0,2.85,2.85,0,0,0-1.42.31.92.92,0,0,0-.52.82.83.83,0,0,0,.32.66,1.32,1.32,0,0,0,.83.25,2.57,2.57,0,0,0,1.38-.39c.43-.26.64-.53.64-.81Z"/><path class="cls-1" d="M60.94,7h-1a1.65,1.65,0,0,1-.71-.09.35.35,0,0,1-.15-.33.42.42,0,0,1,.12-.32.52.52,0,0,1,.35-.1h1.94a.43.43,0,0,1,.24.06.23.23,0,0,1,.09.18V13h1.84a.5.5,0,0,1,.33.1.44.44,0,0,1,.1.31.46.46,0,0,1-.1.33.59.59,0,0,1-.38.09H59.29a.52.52,0,0,1-.35-.11.46.46,0,0,1,0-.62.65.65,0,0,1,.37-.1h1.63Z"/><path class="cls-1" d="M68.14,7h-1a1.65,1.65,0,0,1-.71-.09.35.35,0,0,1-.14-.33.42.42,0,0,1,.12-.32.49.49,0,0,1,.34-.1h1.94a.4.4,0,0,1,.24.06.23.23,0,0,1,.09.18V13h1.84a.5.5,0,0,1,.33.1.4.4,0,0,1,.1.31.42.42,0,0,1-.1.33.59.59,0,0,1-.38.09H66.49a.52.52,0,0,1-.35-.11.46.46,0,0,1,0-.62.65.65,0,0,1,.37-.1h1.63Z"/><path class="cls-1" d="M73.75,11.33a1.8,1.8,0,0,0,.57,1.31,2.08,2.08,0,0,0,1.43.46,3.59,3.59,0,0,0,1.5-.37,4,4,0,0,1,1-.36.39.39,0,0,1,.29.11.34.34,0,0,1,.12.27.42.42,0,0,1-.13.31,1.15,1.15,0,0,1-.39.28,5.81,5.81,0,0,1-1.21.43,4.8,4.8,0,0,1-1.24.16,3,3,0,0,1-2.14-.77,2.74,2.74,0,0,1-.8-2.05A2.72,2.72,0,0,1,73.58,9a3.1,3.1,0,0,1,2.22-.81,2.93,2.93,0,0,1,2,.75,2.39,2.39,0,0,1,.81,1.82.56.56,0,0,1-.14.44,1.51,1.51,0,0,1-.74.11h-4Zm0-.77h3.81A1.66,1.66,0,0,0,77,9.44,1.8,1.8,0,0,0,75.8,9a2.08,2.08,0,0,0-1.32.41A1.93,1.93,0,0,0,73.78,10.56Z"/><path class="cls-1" d="M84.53,8.69a.76.76,0,0,1,.42.1.37.37,0,0,1,.13.32.39.39,0,0,1-.12.31.56.56,0,0,1-.37.1H82.22v2a2.11,2.11,0,0,0,.25,1.26,1,1,0,0,0,.85.31,3.62,3.62,0,0,0,1.28-.31,3.5,3.5,0,0,1,.92-.31.33.33,0,0,1,.27.11.4.4,0,0,1,.12.29.46.46,0,0,1-.15.34,1.43,1.43,0,0,1-.48.28,7.6,7.6,0,0,1-1,.33,3.85,3.85,0,0,1-.86.1,2.78,2.78,0,0,1-1.15-.21,1.5,1.5,0,0,1-.7-.66,1.6,1.6,0,0,1-.17-.48,5.94,5.94,0,0,1,0-.87V9.52h-1a.52.52,0,0,1-.36-.1.4.4,0,0,1-.11-.31A.35.35,0,0,1,80,8.78a1.5,1.5,0,0,1,.65-.09h.66V7.18a.54.54,0,0,1,.11-.37.45.45,0,0,1,.34-.12.41.41,0,0,1,.36.15,1.45,1.45,0,0,1,.1.66V8.69Z"/><text class="cls-2" transform="translate(13.28 79.58)">Mining R<tspan class="cls-3" x="34.5" y="0">a</tspan><tspan class="cls-4" x="39.1" y="0">t</tspan><tspan class="cls-5" x="42.21" y="0">e</tspan><tspan class="cls-6" x="46.94" y="0"> </tspan><tspan class="cls-7" x="49.34" y="0">0.00001%</tspan><tspan class="cls-8" x="102.15" y="0"> </tspan></text><path class="cls-9" d="M53.86,58.62V54.31H49.55V50h8.61v4.31H71.08V45.7H58.16V41.39h4.31V37.08h4.31v-4.3H53.86V28.47H79.7v4.31H75.39v4.3H71.08v4.31h4.31V45.7H79.7v8.61H75.39v4.31Z"/></svg>