<svg id="Layer_1" data-name="Layer 1" xmlns="http://www.w3.org/2000/svg" viewBox="0 0 74.12 70.59"><defs><style>.cls-1{fill:#aaa;}.cls-2{fill:#444;}.cls-3{fill:#fff;}.cls-4{fill:#f2b44d;}.cls-5{fill:#d39c4a;}</style></defs><title>Artboard 1</title><rect class="cls-1" y="42.35" width="1.76" height="1.77"/><rect class="cls-1" y="40.59" width="1.76" height="1.76"/><rect class="cls-1" y="38.82" width="1.76" height="1.77"/><rect class="cls-1" y="37.06" width="1.76" height="1.76"/><rect class="cls-1" x="1.76" y="42.35" width="1.77" height="1.77"/><rect x="1.76" y="40.59" width="1.77" height="1.76"/><rect x="1.76" y="38.82" width="1.77" height="1.77"/><rect x="1.76" y="37.06" width="1.77" height="1.76"/><rect class="cls-1" x="1.76" y="35.29" width="1.77" height="1.77"/><rect class="cls-1" x="1.76" y="33.53" width="1.77" height="1.76"/><rect class="cls-1" x="3.53" y="40.59" width="1.76" height="1.76"/><rect x="3.53" y="38.82" width="1.76" height="1.77"/><rect x="3.53" y="37.06" width="1.76" height="1.76"/><rect x="3.53" y="35.29" width="1.76" height="1.77"/><rect x="3.53" y="33.53" width="1.76" height="1.76"/><rect class="cls-1" x="3.53" y="31.76" width="1.76" height="1.77"/><rect class="cls-1" x="5.29" y="38.82" width="1.77" height="1.77"/><rect x="5.29" y="37.06" width="1.77" height="1.76"/><rect x="5.29" y="35.29" width="1.77" height="1.77"/><rect x="5.29" y="33.53" width="1.77" height="1.76"/><rect x="5.29" y="31.76" width="1.77" height="1.77"/><rect class="cls-1" x="5.29" y="30" width="1.77" height="1.76"/><rect class="cls-1" x="7.06" y="37.06" width="1.76" height="1.76"/><rect x="7.06" y="35.29" width="1.76" height="1.77"/><rect x="7.06" y="33.53" width="1.76" height="1.76"/><rect x="7.06" y="31.76" width="1.76" height="1.77"/><rect x="7.06" y="30" width="1.76" height="1.76"/><rect class="cls-1" x="7.06" y="28.24" width="1.76" height="1.76"/><rect class="cls-1" x="8.82" y="35.29" width="1.77" height="1.77"/><rect x="8.82" y="33.53" width="1.77" height="1.76"/><rect x="8.82" y="31.76" width="1.77" height="1.77"/><rect x="8.82" y="30" width="1.77" height="1.76"/><rect x="8.82" y="28.24" width="1.77" height="1.76"/><rect class="cls-1" x="8.82" y="26.47" width="1.77" height="1.77"/><rect class="cls-1" x="10.59" y="33.53" width="1.76" height="1.76"/><rect x="10.59" y="31.76" width="1.76" height="1.77"/><rect x="10.59" y="30" width="1.76" height="1.76"/><rect x="10.59" y="28.24" width="1.76" height="1.76"/><rect x="10.59" y="26.47" width="1.76" height="1.77"/><rect class="cls-1" x="10.59" y="24.71" width="1.76" height="1.76"/><rect class="cls-1" x="12.35" y="31.76" width="1.77" height="1.77"/><rect x="12.35" y="30" width="1.77" height="1.76"/><rect x="12.35" y="28.24" width="1.77" height="1.76"/><rect x="12.35" y="26.47" width="1.77" height="1.77"/><rect x="12.35" y="24.71" width="1.77" height="1.76"/><rect class="cls-1" x="12.35" y="22.94" width="1.77" height="1.77"/><rect class="cls-1" x="14.12" y="30" width="1.76" height="1.76"/><rect x="14.12" y="28.24" width="1.76" height="1.76"/><rect x="14.12" y="26.47" width="1.76" height="1.77"/><rect x="14.12" y="24.71" width="1.76" height="1.76"/><rect class="cls-1" x="14.12" y="22.94" width="1.76" height="1.77"/><rect class="cls-1" x="14.12" y="21.18" width="1.76" height="1.76"/><rect class="cls-1" x="14.12" y="19.41" width="1.76" height="1.77"/><rect class="cls-1" x="15.88" y="30" width="1.77" height="1.76"/><rect x="15.88" y="28.24" width="1.77" height="1.76"/><rect x="15.88" y="26.47" width="1.77" height="1.77"/><rect x="15.88" y="24.71" width="1.77" height="1.76"/><rect x="15.88" y="22.94" width="1.77" height="1.77"/><rect class="cls-2" x="15.88" y="21.18" width="1.77" height="1.76"/><rect class="cls-2" x="15.88" y="19.41" width="1.77" height="1.77"/><rect class="cls-1" x="15.88" y="17.65" width="1.77" height="1.76"/><rect class="cls-1" x="17.65" y="28.24" width="1.76" height="1.76"/><rect x="17.65" y="26.47" width="1.76" height="1.77"/><rect x="17.65" y="24.71" width="1.76" height="1.76"/><rect class="cls-2" x="17.65" y="22.94" width="1.76" height="1.77"/><rect class="cls-3" x="17.65" y="21.18" width="1.76" height="1.76"/><rect class="cls-2" x="17.65" y="19.41" width="1.76" height="1.77"/><rect class="cls-4" x="17.65" y="17.65" width="1.76" height="1.76"/><rect class="cls-1" x="17.65" y="15.88" width="1.76" height="1.77"/><rect class="cls-1" x="19.41" y="28.24" width="1.76" height="1.76"/><rect x="19.41" y="26.47" width="1.76" height="1.77"/><rect class="cls-2" x="19.41" y="24.71" width="1.76" height="1.76"/><rect class="cls-2" x="19.41" y="22.94" width="1.76" height="1.77"/><rect x="19.41" y="21.18" width="1.76" height="1.76"/><rect x="19.41" y="19.41" width="1.76" height="1.77"/><rect class="cls-2" x="19.41" y="17.65" width="1.76" height="1.76"/><rect class="cls-4" x="19.41" y="15.88" width="1.76" height="1.77"/><rect class="cls-1" x="19.41" y="14.12" width="1.76" height="1.76"/><rect class="cls-1" x="21.17" y="28.24" width="1.77" height="1.76"/><rect class="cls-2" x="21.17" y="26.47" width="1.77" height="1.77"/><rect class="cls-2" x="21.17" y="24.71" width="1.77" height="1.76"/><rect x="21.17" y="22.94" width="1.77" height="1.77"/><rect x="21.17" y="21.18" width="1.77" height="1.76"/><rect x="21.17" y="19.41" width="1.77" height="1.77"/><rect class="cls-2" x="21.17" y="17.65" width="1.77" height="1.76"/><rect class="cls-4" x="21.17" y="15.88" width="1.77" height="1.77"/><rect class="cls-4" x="21.17" y="14.12" width="1.77" height="1.76"/><rect class="cls-1" x="21.17" y="12.35" width="1.77" height="1.77"/><rect class="cls-1" x="22.94" y="28.24" width="1.76" height="1.76"/><rect class="cls-2" x="22.94" y="26.47" width="1.76" height="1.77"/><rect x="22.94" y="24.71" width="1.76" height="1.76"/><rect x="22.94" y="22.94" width="1.76" height="1.77"/><rect x="22.94" y="21.18" width="1.76" height="1.76"/><rect x="22.94" y="19.41" width="1.76" height="1.77"/><rect x="22.94" y="17.65" width="1.76" height="1.76"/><rect class="cls-2" x="22.94" y="15.88" width="1.76" height="1.77"/><rect class="cls-4" x="22.94" y="14.12" width="1.76" height="1.76"/><rect class="cls-4" x="22.94" y="12.35" width="1.76" height="1.77"/><rect class="cls-1" x="22.94" y="10.59" width="1.76" height="1.76"/><rect class="cls-1" x="24.7" y="28.24" width="1.77" height="1.76"/><rect x="24.7" y="26.47" width="1.77" height="1.77"/><rect x="24.7" y="24.71" width="1.77" height="1.76"/><rect x="24.7" y="22.94" width="1.77" height="1.77"/><rect x="24.7" y="21.18" width="1.77" height="1.76"/><rect x="24.7" y="19.41" width="1.77" height="1.77"/><rect x="24.7" y="17.65" width="1.77" height="1.76"/><rect x="24.7" y="15.88" width="1.77" height="1.77"/><rect class="cls-2" x="24.7" y="14.12" width="1.77" height="1.76"/><rect class="cls-2" x="24.7" y="12.35" width="1.77" height="1.77"/><rect class="cls-1" x="24.7" y="10.59" width="1.77" height="1.76"/><rect class="cls-4" x="26.47" y="28.24" width="1.76" height="1.76"/><rect class="cls-1" x="26.47" y="26.47" width="1.76" height="1.77"/><rect x="26.47" y="24.71" width="1.76" height="1.76"/><rect x="26.47" y="22.94" width="1.76" height="1.77"/><rect x="26.47" y="21.18" width="1.76" height="1.76"/><rect x="26.47" y="19.41" width="1.76" height="1.77"/><rect x="26.47" y="17.65" width="1.76" height="1.76"/><rect x="26.47" y="15.88" width="1.76" height="1.77"/><rect x="26.47" y="14.12" width="1.76" height="1.76"/><rect x="26.47" y="12.35" width="1.76" height="1.77"/><rect class="cls-1" x="26.47" y="10.59" width="1.76" height="1.76"/><rect class="cls-4" x="28.23" y="30" width="1.77" height="1.76"/><rect class="cls-5" x="28.23" y="28.24" width="1.77" height="1.76"/><rect class="cls-5" x="28.23" y="26.47" width="1.77" height="1.77"/><rect class="cls-1" x="28.23" y="24.71" width="1.77" height="1.76"/><rect x="28.23" y="22.94" width="1.77" height="1.77"/><rect x="28.23" y="21.18" width="1.77" height="1.76"/><rect x="28.23" y="19.41" width="1.77" height="1.77"/><rect x="28.23" y="17.65" width="1.77" height="1.76"/><rect x="28.23" y="15.88" width="1.77" height="1.77"/><rect x="28.23" y="14.12" width="1.77" height="1.76"/><rect x="28.23" y="12.35" width="1.77" height="1.77"/><rect class="cls-1" x="28.23" y="10.59" width="1.77" height="1.76"/><rect class="cls-4" x="30" y="31.76" width="1.76" height="1.77"/><rect class="cls-5" x="30" y="30" width="1.76" height="1.76"/><rect class="cls-4" x="30" y="28.24" width="1.76" height="1.76"/><rect class="cls-4" x="30" y="26.47" width="1.76" height="1.77"/><rect class="cls-4" x="30" y="24.71" width="1.76" height="1.76"/><rect class="cls-1" x="30" y="22.94" width="1.76" height="1.77"/><rect x="30" y="21.18" width="1.76" height="1.76"/><rect x="30" y="19.41" width="1.76" height="1.77"/><rect x="30" y="17.65" width="1.76" height="1.76"/><rect x="30" y="15.88" width="1.76" height="1.77"/><rect x="30" y="14.12" width="1.76" height="1.76"/><rect x="30" y="12.35" width="1.76" height="1.77"/><rect x="30" y="10.59" width="1.76" height="1.76"/><rect class="cls-1" x="30" y="8.82" width="1.76" height="1.77"/><rect class="cls-4" x="31.76" y="33.53" width="1.77" height="1.76"/><rect class="cls-5" x="31.76" y="31.76" width="1.77" height="1.77"/><rect class="cls-4" x="31.76" y="30" width="1.77" height="1.76"/><rect class="cls-4" x="31.76" y="28.24" width="1.77" height="1.76"/><rect class="cls-4" x="31.76" y="26.47" width="1.77" height="1.77"/><rect class="cls-4" x="31.76" y="24.71" width="1.77" height="1.76"/><rect class="cls-4" x="31.76" y="22.94" width="1.77" height="1.77"/><rect class="cls-1" x="31.76" y="21.18" width="1.77" height="1.76"/><rect class="cls-1" x="31.76" y="19.41" width="1.77" height="1.77"/><rect class="cls-1" x="31.76" y="17.65" width="1.77" height="1.76"/><rect class="cls-1" x="31.76" y="15.88" width="1.77" height="1.77"/><rect x="31.76" y="14.12" width="1.77" height="1.76"/><rect x="31.76" y="12.35" width="1.77" height="1.77"/><rect x="31.76" y="10.59" width="1.77" height="1.76"/><rect x="31.76" y="8.82" width="1.77" height="1.77"/><rect class="cls-1" x="31.76" y="7.06" width="1.77" height="1.76"/><rect class="cls-4" x="33.53" y="35.29" width="1.76" height="1.77"/><rect class="cls-5" x="33.53" y="33.53" width="1.76" height="1.76"/><rect class="cls-4" x="33.53" y="31.76" width="1.76" height="1.77"/><rect class="cls-4" x="33.53" y="30" width="1.76" height="1.76"/><rect class="cls-4" x="33.53" y="28.24" width="1.76" height="1.76"/><rect class="cls-4" x="33.53" y="26.47" width="1.76" height="1.77"/><rect class="cls-4" x="33.53" y="24.71" width="1.76" height="1.76"/><rect class="cls-1" x="33.53" y="14.12" width="1.76" height="1.76"/><rect x="33.53" y="12.35" width="1.76" height="1.77"/><rect x="33.53" y="10.59" width="1.76" height="1.76"/><rect x="33.53" y="8.82" width="1.76" height="1.77"/><rect class="cls-1" x="33.53" y="7.06" width="1.76" height="1.76"/><rect class="cls-4" x="35.29" y="37.06" width="1.77" height="1.76"/><rect class="cls-5" x="35.29" y="35.29" width="1.77" height="1.77"/><rect class="cls-4" x="35.29" y="33.53" width="1.77" height="1.76"/><rect class="cls-4" x="35.29" y="31.76" width="1.77" height="1.77"/><rect class="cls-4" x="35.29" y="30" width="1.77" height="1.76"/><rect class="cls-4" x="35.29" y="28.24" width="1.77" height="1.76"/><rect class="cls-1" x="35.29" y="14.12" width="1.77" height="1.76"/><rect x="35.29" y="12.35" width="1.77" height="1.77"/><rect x="35.29" y="10.59" width="1.77" height="1.76"/><rect x="35.29" y="8.82" width="1.77" height="1.77"/><rect x="35.29" y="7.06" width="1.77" height="1.76"/><rect class="cls-1" x="35.29" y="5.29" width="1.77" height="1.77"/><rect class="cls-4" x="37.06" y="38.82" width="1.76" height="1.77"/><rect class="cls-5" x="37.06" y="37.06" width="1.76" height="1.76"/><rect class="cls-4" x="37.06" y="35.29" width="1.76" height="1.77"/><rect class="cls-4" x="37.06" y="33.53" width="1.76" height="1.76"/><rect class="cls-4" x="37.06" y="31.76" width="1.76" height="1.77"/><rect class="cls-4" x="37.06" y="30" width="1.76" height="1.76"/><rect class="cls-1" x="37.06" y="12.35" width="1.76" height="1.77"/><rect x="37.06" y="10.59" width="1.76" height="1.76"/><rect x="37.06" y="8.82" width="1.76" height="1.77"/><rect x="37.06" y="7.06" width="1.76" height="1.76"/><rect x="37.06" y="5.29" width="1.76" height="1.77"/><rect class="cls-1" x="37.06" y="3.53" width="1.76" height="1.76"/><rect class="cls-4" x="38.82" y="40.59" width="1.77" height="1.76"/><rect class="cls-5" x="38.82" y="38.82" width="1.77" height="1.77"/><rect class="cls-4" x="38.82" y="37.06" width="1.77" height="1.76"/><rect class="cls-4" x="38.82" y="35.29" width="1.77" height="1.77"/><rect class="cls-4" x="38.82" y="33.53" width="1.77" height="1.76"/><rect class="cls-4" x="38.82" y="31.76" width="1.77" height="1.77"/><rect class="cls-1" x="38.82" y="10.59" width="1.77" height="1.76"/><rect x="38.82" y="8.82" width="1.77" height="1.77"/><rect x="38.82" y="7.06" width="1.77" height="1.76"/><rect x="38.82" y="5.29" width="1.77" height="1.77"/><rect class="cls-1" x="38.82" y="3.53" width="1.77" height="1.76"/><rect class="cls-4" x="40.59" y="42.35" width="1.76" height="1.77"/><rect class="cls-5" x="40.59" y="40.59" width="1.76" height="1.76"/><rect class="cls-4" x="40.59" y="38.82" width="1.76" height="1.77"/><rect class="cls-4" x="40.59" y="37.06" width="1.76" height="1.76"/><rect class="cls-4" x="40.59" y="35.29" width="1.76" height="1.77"/><rect class="cls-4" x="40.59" y="33.53" width="1.76" height="1.76"/><rect class="cls-1" x="40.59" y="8.82" width="1.76" height="1.77"/><rect x="40.59" y="7.06" width="1.76" height="1.76"/><rect x="40.59" y="5.29" width="1.76" height="1.77"/><rect x="40.59" y="3.53" width="1.76" height="1.76"/><rect class="cls-1" x="40.59" y="1.76" width="1.76" height="1.77"/><rect class="cls-4" x="42.35" y="44.12" width="1.77" height="1.76"/><rect class="cls-5" x="42.35" y="42.35" width="1.77" height="1.77"/><rect class="cls-4" x="42.35" y="40.59" width="1.77" height="1.76"/><rect class="cls-4" x="42.35" y="38.82" width="1.77" height="1.77"/><rect class="cls-4" x="42.35" y="37.06" width="1.77" height="1.76"/><rect class="cls-4" x="42.35" y="35.29" width="1.77" height="1.77"/><rect class="cls-1" x="42.35" y="7.06" width="1.77" height="1.76"/><rect x="42.35" y="5.29" width="1.77" height="1.77"/><rect x="42.35" y="3.53" width="1.77" height="1.76"/><rect x="42.35" y="1.76" width="1.77" height="1.77"/><rect class="cls-1" x="42.35" width="1.77" height="1.76"/><rect class="cls-4" x="44.12" y="45.88" width="1.76" height="1.77"/><rect class="cls-5" x="44.12" y="44.12" width="1.76" height="1.76"/><rect class="cls-4" x="44.12" y="42.35" width="1.76" height="1.77"/><rect class="cls-4" x="44.12" y="40.59" width="1.76" height="1.76"/><rect class="cls-4" x="44.12" y="38.82" width="1.76" height="1.77"/><rect class="cls-4" x="44.12" y="37.06" width="1.76" height="1.76"/><rect class="cls-1" x="44.12" y="7.06" width="1.76" height="1.76"/><rect x="44.12" y="5.29" width="1.76" height="1.77"/><rect x="44.12" y="3.53" width="1.76" height="1.76"/><rect x="44.12" y="1.76" width="1.76" height="1.77"/><rect class="cls-1" x="44.12" width="1.76" height="1.76"/><rect class="cls-4" x="45.88" y="47.65" width="1.77" height="1.76"/><rect class="cls-5" x="45.88" y="45.88" width="1.77" height="1.77"/><rect class="cls-4" x="45.88" y="44.12" width="1.77" height="1.76"/><rect class="cls-4" x="45.88" y="42.35" width="1.77" height="1.77"/><rect class="cls-4" x="45.88" y="40.59" width="1.77" height="1.76"/><rect class="cls-4" x="45.88" y="38.82" width="1.77" height="1.77"/><rect class="cls-1" x="45.88" y="5.29" width="1.77" height="1.77"/><rect x="45.88" y="3.53" width="1.77" height="1.76"/><rect x="45.88" y="1.76" width="1.77" height="1.77"/><rect class="cls-1" x="45.88" width="1.77" height="1.76"/><rect class="cls-4" x="47.65" y="49.41" width="1.76" height="1.77"/><rect class="cls-5" x="47.65" y="47.65" width="1.76" height="1.76"/><rect class="cls-4" x="47.65" y="45.88" width="1.76" height="1.77"/><rect class="cls-4" x="47.65" y="44.12" width="1.76" height="1.76"/><rect class="cls-4" x="47.65" y="42.35" width="1.76" height="1.77"/><rect class="cls-4" x="47.65" y="40.59" width="1.76" height="1.76"/><rect class="cls-1" x="47.65" y="3.53" width="1.76" height="1.76"/><rect x="47.65" y="1.76" width="1.76" height="1.77"/><rect class="cls-1" x="47.65" width="1.76" height="1.76"/><rect class="cls-4" x="49.41" y="51.18" width="1.76" height="1.76"/><rect class="cls-5" x="49.41" y="49.41" width="1.76" height="1.77"/><rect class="cls-4" x="49.41" y="47.65" width="1.76" height="1.76"/><rect class="cls-4" x="49.41" y="45.88" width="1.76" height="1.77"/><rect class="cls-4" x="49.41" y="44.12" width="1.76" height="1.76"/><rect class="cls-4" x="49.41" y="42.35" width="1.76" height="1.77"/><rect class="cls-1" x="49.41" y="1.76" width="1.76" height="1.77"/><rect class="cls-4" x="51.17" y="52.94" width="1.77" height="1.77"/><rect class="cls-5" x="51.17" y="51.18" width="1.77" height="1.76"/><rect class="cls-4" x="51.17" y="49.41" width="1.77" height="1.77"/><rect class="cls-4" x="51.17" y="47.65" width="1.77" height="1.76"/><rect class="cls-4" x="51.17" y="45.88" width="1.77" height="1.77"/><rect class="cls-4" x="51.17" y="44.12" width="1.77" height="1.76"/><rect class="cls-4" x="52.94" y="54.71" width="1.76" height="1.76"/><rect class="cls-5" x="52.94" y="52.94" width="1.76" height="1.77"/><rect class="cls-4" x="52.94" y="51.18" width="1.76" height="1.76"/><rect class="cls-4" x="52.94" y="49.41" width="1.76" height="1.77"/><rect class="cls-4" x="52.94" y="47.65" width="1.76" height="1.76"/><rect class="cls-4" x="52.94" y="45.88" width="1.76" height="1.77"/><rect class="cls-4" x="54.7" y="56.47" width="1.77" height="1.77"/><rect class="cls-5" x="54.7" y="54.71" width="1.77" height="1.76"/><rect class="cls-4" x="54.7" y="52.94" width="1.77" height="1.77"/><rect class="cls-4" x="54.7" y="51.18" width="1.77" height="1.76"/><rect class="cls-4" x="54.7" y="49.41" width="1.77" height="1.77"/><rect class="cls-4" x="54.7" y="47.65" width="1.77" height="1.76"/><rect class="cls-4" x="56.47" y="58.24" width="1.76" height="1.76"/><rect class="cls-5" x="56.47" y="56.47" width="1.76" height="1.77"/><rect class="cls-4" x="56.47" y="54.71" width="1.76" height="1.76"/><rect class="cls-4" x="56.47" y="52.94" width="1.76" height="1.77"/><rect class="cls-4" x="56.47" y="51.18" width="1.76" height="1.76"/><rect class="cls-4" x="56.47" y="49.41" width="1.76" height="1.77"/><rect class="cls-4" x="58.23" y="60" width="1.77" height="1.76"/><rect class="cls-5" x="58.23" y="58.24" width="1.77" height="1.76"/><rect class="cls-4" x="58.23" y="56.47" width="1.77" height="1.77"/><rect class="cls-4" x="58.23" y="54.71" width="1.77" height="1.76"/><rect class="cls-4" x="58.23" y="52.94" width="1.77" height="1.77"/><rect class="cls-4" x="58.23" y="51.18" width="1.77" height="1.76"/><rect class="cls-4" x="60" y="61.76" width="1.76" height="1.77"/><rect class="cls-5" x="60" y="60" width="1.76" height="1.76"/><rect class="cls-4" x="60" y="58.24" width="1.76" height="1.76"/><rect class="cls-4" x="60" y="56.47" width="1.76" height="1.77"/><rect class="cls-4" x="60" y="54.71" width="1.76" height="1.76"/><rect class="cls-4" x="60" y="52.94" width="1.76" height="1.77"/><rect class="cls-4" x="61.76" y="63.53" width="1.77" height="1.76"/><rect class="cls-5" x="61.76" y="61.76" width="1.77" height="1.77"/><rect class="cls-4" x="61.76" y="60" width="1.77" height="1.76"/><rect class="cls-4" x="61.76" y="58.24" width="1.77" height="1.76"/><rect class="cls-4" x="61.76" y="56.47" width="1.77" height="1.77"/><rect class="cls-4" x="61.76" y="54.71" width="1.77" height="1.76"/><rect class="cls-4" x="63.53" y="65.29" width="1.76" height="1.77"/><rect class="cls-5" x="63.53" y="63.53" width="1.76" height="1.76"/><rect class="cls-4" x="63.53" y="61.76" width="1.76" height="1.77"/><rect class="cls-4" x="63.53" y="60" width="1.76" height="1.76"/><rect class="cls-4" x="63.53" y="58.24" width="1.76" height="1.76"/><rect class="cls-4" x="63.53" y="56.47" width="1.76" height="1.77"/><rect class="cls-4" x="65.29" y="67.06" width="1.77" height="1.76"/><rect class="cls-5" x="65.29" y="65.29" width="1.77" height="1.77"/><rect class="cls-4" x="65.29" y="63.53" width="1.77" height="1.76"/><rect class="cls-4" x="65.29" y="61.76" width="1.77" height="1.77"/><rect class="cls-4" x="65.29" y="60" width="1.77" height="1.76"/><rect class="cls-4" x="65.29" y="58.24" width="1.77" height="1.76"/><rect class="cls-5" x="67.06" y="68.82" width="1.76" height="1.77"/><rect class="cls-5" x="67.06" y="67.06" width="1.76" height="1.76"/><rect class="cls-4" x="67.06" y="65.29" width="1.76" height="1.77"/><rect class="cls-4" x="67.06" y="63.53" width="1.76" height="1.76"/><rect class="cls-4" x="67.06" y="61.76" width="1.76" height="1.77"/><rect class="cls-4" x="67.06" y="60" width="1.76" height="1.76"/><rect class="cls-5" x="68.82" y="68.82" width="1.77" height="1.77"/><rect class="cls-4" x="68.82" y="67.06" width="1.77" height="1.76"/><rect class="cls-4" x="68.82" y="65.29" width="1.77" height="1.77"/><rect class="cls-4" x="68.82" y="63.53" width="1.77" height="1.76"/><rect class="cls-4" x="68.82" y="61.76" width="1.77" height="1.77"/><rect class="cls-4" x="70.59" y="68.82" width="1.76" height="1.77"/><rect class="cls-4" x="70.59" y="67.06" width="1.76" height="1.76"/><rect class="cls-4" x="70.59" y="65.29" width="1.76" height="1.77"/><rect class="cls-4" x="70.59" y="63.53" width="1.76" height="1.76"/><rect class="cls-4" x="72.35" y="68.82" width="1.77" height="1.77"/><rect class="cls-4" x="72.35" y="67.06" width="1.77" height="1.76"/><rect class="cls-4" x="72.35" y="65.29" width="1.77" height="1.77"/></svg>