<?xml version="1.0" encoding="utf-8"?>
<!-- Generator: Adobe Illustrator 23.0.6, SVG Export Plug-In . SVG Version: 6.00 Build 0)  -->
<svg version="1.1" id="레이어_1" xmlns="http://www.w3.org/2000/svg" xmlns:xlink="http://www.w3.org/1999/xlink" x="0px"
	 y="0px" viewBox="0 0 90 90" style="enable-background:new 0 0 90 90;" xml:space="preserve">
<style type="text/css">
	.st0{fill:#F7931E;}
	.st1{fill:#FBB03B;}
	.st2{fill:none;stroke:#FFFFFF;stroke-width:0.75;stroke-linecap:square;stroke-miterlimit:10;}
	.st3{fill:none;stroke:#000000;stroke-linecap:square;stroke-miterlimit:10;}
</style>
<title>대지 1</title>
<g id="XMLID_1_">
	<g>
		<rect x="80.7" y="75.7" class="st0" width="5.3" height="5.3"/>
		<rect x="80.7" y="70.4" class="st0" width="5.3" height="5.3"/>
		<rect x="75.4" y="75.7" class="st0" width="5.3" height="5.3"/>
		<rect x="70.2" y="70.4" class="st0" width="5.3" height="5.3"/>
		<rect x="64.9" y="65.2" class="st0" width="5.3" height="5.3"/>
		<rect x="59.6" y="59.9" class="st0" width="5.3" height="5.3"/>
		<rect x="54.4" y="54.6" class="st0" width="5.3" height="5.3"/>
		<rect x="49.1" y="49.4" class="st0" width="5.3" height="5.3"/>
		<rect x="43.8" y="44.1" class="st0" width="5.3" height="5.3"/>
		<rect x="38.6" y="38.8" class="st0" width="5.3" height="5.3"/>
		<polygon class="st1" points="75.4,65.2 75.4,59.9 70.2,59.9 70.2,54.6 64.9,54.6 64.9,49.4 59.6,49.4 59.6,44.1 54.4,44.1 
			54.4,38.8 49.1,38.8 49.1,33.6 43.8,33.6 38.6,33.6 38.6,38.8 43.8,38.8 43.8,44.1 49.1,44.1 49.1,49.4 54.4,49.4 54.4,54.6 
			59.6,54.6 59.6,59.9 64.9,59.9 64.9,65.2 70.2,65.2 70.2,70.4 75.4,70.4 75.4,75.7 80.7,75.7 80.7,70.4 80.7,65.2 		"/>
		<rect x="28" y="23" class="st1" width="5.3" height="5.3"/>
		<polygon points="54.4,2 49.1,2 49.1,7.3 43.8,7.3 43.8,12.5 38.6,12.5 38.6,17.8 33.3,17.8 33.3,23 33.3,28.3 28,28.3 22.8,28.3 
			22.8,33.6 17.5,33.6 17.5,38.8 12.2,38.8 12.2,44.1 7,44.1 7,49.4 7,54.6 12.2,54.6 12.2,49.4 17.5,49.4 17.5,44.1 22.8,44.1 
			22.8,38.8 28,38.8 33.3,38.8 38.6,38.8 38.6,33.6 43.8,33.6 43.8,28.3 43.8,23 43.8,17.8 49.1,17.8 49.1,12.5 54.4,12.5 54.4,7.3 
			59.6,7.3 59.6,2 		"/>
	</g>
</g>
<path class="st2" d="M64.9,65.2L64.9,65.2l-5.3,0v-5.3h-5.3v-5.3h-5.3v-5.3h-5.3v-5.3h-5.3v-5.3h-5.3H28h-5.3v5.3h-5.3v5.3h-5.3v5.3
	H6.9v-5.3v-5.3h5.3v-5.3h5.3v-5.3h5.3v-5.3H28V23h5.3v-5.3h5.3v-5.3h5.3V7.2h5.3V2h5.3h5.3v5.3h-5.3v5.3h-5.3v5.3h-5.3V23v5.3v5.3
	h5.3v5.3h5.3v5.3h5.3v5.3h5.3v5.3h5.3v5.3h5.3v5.3h5.3v5.3v0H86v5.3V81h-5.3h-5.3v-5.3h-5.3v-5.3 M64.9,65.2v5.3h5.3v0"/>
<path class="st3" d="M-13.5,108.4"/>
</svg>
