<svg id="레이어_1" data-name="레이어 1" xmlns="http://www.w3.org/2000/svg" viewBox="0 0 90 90"><defs><style>.cls-1{fill:#f7931e;}.cls-2{fill:#fbb03b;}</style></defs><title>대지 1</title><rect class="cls-1" x="6.96" y="75.68" width="5.27" height="5.27"/><rect class="cls-1" x="6.96" y="70.42" width="5.27" height="5.26"/><rect x="80.7" y="49.37" width="5.27" height="5.26"/><rect x="80.7" y="44.11" width="5.27" height="5.26"/><rect x="75.44" y="44.11" width="5.26" height="5.26"/><rect x="75.44" y="38.84" width="5.26" height="5.27"/><rect x="70.17" y="38.84" width="5.27" height="5.27"/><rect x="70.17" y="33.58" width="5.27" height="5.26"/><rect x="64.9" y="33.58" width="5.27" height="5.26"/><rect x="64.9" y="28.32" width="5.27" height="5.26"/><rect x="59.63" y="33.58" width="5.27" height="5.26"/><rect x="59.63" y="28.32" width="5.27" height="5.26"/><rect class="cls-2" x="59.63" y="23.05" width="5.27" height="5.27"/><rect x="54.37" y="33.58" width="5.26" height="5.26"/><rect x="54.37" y="28.32" width="5.26" height="5.26"/><rect x="54.37" y="23.05" width="5.26" height="5.27"/><rect x="54.37" y="17.79" width="5.26" height="5.26"/><rect class="cls-1" x="49.1" y="38.84" width="5.27" height="5.27"/><rect class="cls-2" x="49.1" y="33.58" width="5.27" height="5.26"/><rect x="49.1" y="28.32" width="5.27" height="5.26"/><rect x="49.1" y="23.05" width="5.27" height="5.27"/><rect x="49.1" y="17.79" width="5.27" height="5.26"/><rect x="49.1" y="12.53" width="5.27" height="5.26"/><rect class="cls-1" x="43.83" y="44.11" width="5.27" height="5.26"/><rect class="cls-2" x="43.83" y="38.84" width="5.27" height="5.27"/><rect class="cls-2" x="43.83" y="33.58" width="5.27" height="5.26"/><rect x="43.83" y="12.53" width="5.27" height="5.26"/><rect x="43.83" y="7.26" width="5.27" height="5.27"/><rect class="cls-1" x="38.56" y="49.37" width="5.27" height="5.26"/><rect class="cls-2" x="38.56" y="44.11" width="5.27" height="5.26"/><rect class="cls-2" x="38.56" y="38.84" width="5.27" height="5.27"/><rect x="38.56" y="7.26" width="5.27" height="5.27"/><rect x="38.56" y="2" width="5.27" height="5.26"/><rect class="cls-1" x="33.3" y="54.63" width="5.26" height="5.26"/><rect class="cls-2" x="33.3" y="49.37" width="5.26" height="5.26"/><rect class="cls-2" x="33.3" y="44.11" width="5.26" height="5.26"/><rect x="33.3" y="2" width="5.26" height="5.26"/><rect class="cls-1" x="28.03" y="59.89" width="5.27" height="5.27"/><rect class="cls-2" x="28.03" y="54.63" width="5.27" height="5.26"/><rect class="cls-2" x="28.03" y="49.37" width="5.27" height="5.26"/><rect class="cls-1" x="22.76" y="65.16" width="5.27" height="5.26"/><rect class="cls-2" x="22.76" y="59.89" width="5.27" height="5.27"/><rect class="cls-2" x="22.76" y="54.63" width="5.27" height="5.26"/><rect class="cls-1" x="17.49" y="70.42" width="5.27" height="5.26"/><rect class="cls-2" x="17.49" y="65.16" width="5.27" height="5.26"/><rect class="cls-2" x="17.49" y="59.89" width="5.27" height="5.27"/><rect class="cls-1" x="12.23" y="75.68" width="5.26" height="5.27"/><rect class="cls-2" x="12.23" y="70.42" width="5.26" height="5.26"/><rect class="cls-2" x="12.23" y="65.16" width="5.26" height="5.26"/></svg>