<svg id="레이어_1" data-name="레이어 1" xmlns="http://www.w3.org/2000/svg" viewBox="0 0 63.21 89.47"><defs><style>.cls-1{fill:#3e3a36;}.cls-2{fill:#fab237;}.cls-3{fill:#fada3a;}.cls-4{fill:#fcf199;}</style></defs><title>대지 1</title><rect class="cls-1" x="57.95" y="26.31" width="5.26" height="5.27"/><rect class="cls-1" x="52.68" y="52.63" width="5.27" height="5.26"/><rect class="cls-1" x="52.68" y="31.58" width="5.27" height="5.26"/><rect class="cls-1" x="52.68" y="26.31" width="5.27" height="5.27"/><rect class="cls-1" x="52.68" y="5.26" width="5.27" height="5.26"/><rect class="cls-1" x="52.68" width="5.27" height="5.26"/><rect class="cls-1" x="47.41" y="57.89" width="5.27" height="5.26"/><rect class="cls-1" x="47.41" y="52.63" width="5.27" height="5.26"/><rect class="cls-1" x="47.41" y="42.1" width="5.27" height="5.26"/><rect class="cls-1" x="47.41" y="36.84" width="5.27" height="5.26"/><rect class="cls-2" x="47.41" y="31.58" width="5.27" height="5.26"/><rect class="cls-1" x="47.41" y="26.31" width="5.27" height="5.27"/><rect class="cls-1" x="47.41" y="15.79" width="5.27" height="5.26"/><rect class="cls-1" x="47.41" y="10.52" width="5.27" height="5.27"/><rect class="cls-2" x="47.41" y="5.26" width="5.27" height="5.26"/><rect class="cls-1" x="47.41" width="5.27" height="5.26"/><rect class="cls-1" x="42.14" y="63.15" width="5.27" height="5.27"/><rect class="cls-2" x="42.14" y="57.89" width="5.27" height="5.26"/><rect class="cls-1" x="42.14" y="52.63" width="5.27" height="5.26"/><rect class="cls-1" x="42.14" y="47.36" width="5.27" height="5.27"/><rect class="cls-1" x="42.14" y="42.1" width="5.27" height="5.26"/><rect class="cls-2" x="42.14" y="36.84" width="5.27" height="5.26"/><rect class="cls-3" x="42.14" y="31.58" width="5.27" height="5.26"/><rect class="cls-1" x="42.14" y="26.31" width="5.27" height="5.27"/><rect class="cls-1" x="42.14" y="21.05" width="5.27" height="5.26"/><rect class="cls-2" x="42.14" y="15.79" width="5.27" height="5.26"/><rect class="cls-2" x="42.14" y="10.52" width="5.27" height="5.27"/><rect class="cls-3" x="42.14" y="5.26" width="5.27" height="5.26"/><rect class="cls-1" x="42.14" width="5.27" height="5.26"/><rect class="cls-1" x="36.88" y="68.42" width="5.26" height="5.26"/><rect class="cls-2" x="36.88" y="63.15" width="5.26" height="5.27"/><rect class="cls-3" x="36.88" y="57.89" width="5.26" height="5.26"/><rect class="cls-1" x="36.88" y="52.63" width="5.26" height="5.26"/><rect class="cls-2" x="36.88" y="47.36" width="5.26" height="5.27"/><rect class="cls-2" x="36.88" y="42.1" width="5.26" height="5.26"/><rect class="cls-3" x="36.88" y="36.84" width="5.26" height="5.26"/><rect class="cls-3" x="36.88" y="31.58" width="5.26" height="5.26"/><rect class="cls-1" x="36.88" y="26.31" width="5.26" height="5.27"/><rect class="cls-2" x="36.88" y="21.05" width="5.26" height="5.26"/><rect class="cls-2" x="36.88" y="15.79" width="5.26" height="5.26"/><rect class="cls-3" x="36.88" y="10.52" width="5.26" height="5.27"/><rect class="cls-3" x="36.88" y="5.26" width="5.26" height="5.26"/><rect class="cls-1" x="36.88" width="5.26" height="5.26"/><rect class="cls-1" x="31.61" y="73.68" width="5.27" height="5.26"/><rect class="cls-3" x="31.61" y="68.42" width="5.27" height="5.26"/><rect class="cls-3" x="31.61" y="63.15" width="5.27" height="5.27"/><rect class="cls-3" x="31.61" y="57.89" width="5.27" height="5.26"/><rect class="cls-2" x="31.61" y="52.63" width="5.27" height="5.26"/><rect class="cls-3" x="31.61" y="47.36" width="5.27" height="5.27"/><rect class="cls-3" x="31.61" y="42.1" width="5.27" height="5.26"/><rect class="cls-3" x="31.61" y="36.84" width="5.27" height="5.26"/><rect class="cls-3" x="31.61" y="31.58" width="5.27" height="5.26"/><rect class="cls-2" x="31.61" y="26.31" width="5.27" height="5.27"/><rect class="cls-3" x="31.61" y="21.05" width="5.27" height="5.26"/><rect class="cls-3" x="31.61" y="15.79" width="5.27" height="5.26"/><rect class="cls-3" x="31.61" y="10.52" width="5.27" height="5.27"/><rect class="cls-3" x="31.61" y="5.26" width="5.27" height="5.26"/><rect class="cls-1" x="31.61" width="5.27" height="5.26"/><rect class="cls-1" x="26.34" y="78.94" width="5.27" height="5.27"/><rect class="cls-3" x="26.34" y="73.68" width="5.27" height="5.26"/><rect class="cls-3" x="26.34" y="68.42" width="5.27" height="5.26"/><rect class="cls-3" x="26.34" y="63.15" width="5.27" height="5.27"/><rect class="cls-3" x="26.34" y="57.89" width="5.27" height="5.26"/><rect class="cls-3" x="26.34" y="52.63" width="5.27" height="5.26"/><rect class="cls-4" x="26.34" y="47.36" width="5.27" height="5.27"/><rect class="cls-4" x="26.34" y="42.1" width="5.27" height="5.26"/><rect class="cls-3" x="26.34" y="36.84" width="5.27" height="5.26"/><rect class="cls-3" x="26.34" y="31.58" width="5.27" height="5.26"/><rect class="cls-3" x="26.34" y="26.31" width="5.27" height="5.27"/><rect class="cls-3" x="26.34" y="21.05" width="5.27" height="5.26"/><rect class="cls-3" x="26.34" y="15.79" width="5.27" height="5.26"/><rect class="cls-4" x="26.34" y="10.52" width="5.27" height="5.27"/><rect class="cls-4" x="26.34" y="5.26" width="5.27" height="5.26"/><rect class="cls-1" x="26.34" width="5.27" height="5.26"/><rect class="cls-1" x="21.07" y="84.21" width="5.27" height="5.26"/><rect class="cls-3" x="21.07" y="78.94" width="5.27" height="5.27"/><rect class="cls-3" x="21.07" y="73.68" width="5.27" height="5.26"/><rect class="cls-1" x="21.07" y="68.42" width="5.27" height="5.26"/><rect class="cls-1" x="21.07" y="63.15" width="5.27" height="5.27"/><rect class="cls-3" x="21.07" y="57.89" width="5.27" height="5.26"/><rect class="cls-4" x="21.07" y="52.63" width="5.27" height="5.26"/><rect class="cls-1" x="21.07" y="47.36" width="5.27" height="5.27"/><rect class="cls-3" x="21.07" y="42.1" width="5.27" height="5.26"/><rect class="cls-3" x="21.07" y="36.84" width="5.27" height="5.26"/><rect class="cls-3" x="21.07" y="31.58" width="5.27" height="5.26"/><rect class="cls-3" x="21.07" y="26.31" width="5.27" height="5.27"/><rect class="cls-4" x="21.07" y="21.05" width="5.27" height="5.26"/><rect class="cls-4" x="21.07" y="15.79" width="5.27" height="5.26"/><rect class="cls-4" x="21.07" y="10.52" width="5.27" height="5.27"/><rect class="cls-1" x="21.07" y="5.26" width="5.27" height="5.26"/><rect class="cls-1" x="21.07" width="5.27" height="5.26"/><rect class="cls-1" x="15.81" y="84.21" width="5.26" height="5.26"/><rect class="cls-1" x="15.81" y="78.94" width="5.26" height="5.27"/><rect class="cls-1" x="15.81" y="73.68" width="5.26" height="5.26"/><rect class="cls-1" x="15.81" y="63.15" width="5.26" height="5.27"/><rect class="cls-4" x="15.81" y="57.89" width="5.26" height="5.26"/><rect class="cls-1" x="15.81" y="52.63" width="5.26" height="5.26"/><rect class="cls-1" x="15.81" y="42.1" width="5.26" height="5.26"/><rect class="cls-3" x="15.81" y="36.84" width="5.26" height="5.26"/><rect class="cls-4" x="15.81" y="31.58" width="5.26" height="5.26"/><rect class="cls-4" x="15.81" y="26.31" width="5.26" height="5.27"/><rect class="cls-4" x="15.81" y="21.05" width="5.26" height="5.26"/><rect class="cls-1" x="15.81" y="15.79" width="5.26" height="5.26"/><rect class="cls-1" x="15.81" y="10.52" width="5.26" height="5.27"/><rect class="cls-1" x="10.54" y="63.15" width="5.27" height="5.27"/><rect class="cls-1" x="10.54" y="57.89" width="5.27" height="5.26"/><rect class="cls-1" x="10.54" y="42.1" width="5.27" height="5.26"/><rect class="cls-4" x="10.54" y="36.84" width="5.27" height="5.26"/><rect class="cls-4" x="10.54" y="31.58" width="5.27" height="5.26"/><rect class="cls-1" x="10.54" y="26.31" width="5.27" height="5.27"/><rect class="cls-1" x="10.54" y="21.05" width="5.27" height="5.26"/><rect class="cls-1" x="5.27" y="63.15" width="5.27" height="5.27"/><rect class="cls-1" x="5.27" y="42.1" width="5.27" height="5.26"/><rect class="cls-1" x="5.27" y="36.84" width="5.27" height="5.26"/><rect class="cls-1" x="5.27" y="31.58" width="5.27" height="5.26"/><rect class="cls-1" y="42.1" width="5.27" height="5.26"/></svg>