<?xml version="1.0" encoding="utf-8"?>
<!-- Generator: Adobe Illustrator 24.0.0, SVG Export Plug-In . SVG Version: 6.00 Build 0)  -->
<svg version="1.1" id="Layer_1" xmlns="http://www.w3.org/2000/svg" xmlns:xlink="http://www.w3.org/1999/xlink" x="0px" y="0px"
	 viewBox="0 0 972.5 524" style="enable-background:new 0 0 972.5 524;" xml:space="preserve">
<style type="text/css">
	.st0{fill:#01CBE1;}
</style>
<path class="st0" d="M497.6,246.8l4.7-0.7l-0.2-1.7l-8.3,1.3l1.8,8.2l1.7-0.4l-1.2-5.3c4.5,3.1,7.2,8.3,7.2,13.9
	c0,9.3-7.6,16.9-16.9,16.9l0,0c-9.3,0-16.9-7.6-16.9-16.9c0-9.3,7.6-16.9,16.9-16.9l0,0v-2l0,0c-10.4,0-18.9,8.5-18.9,18.9
	S476,281,486.4,281l0,0c10.4,0,18.9-8.5,18.9-18.9C505.2,256,502.3,250.4,497.6,246.8z"/>
</svg>
