<?xml version="1.0" encoding="utf-8"?>
<!-- Generator: Adobe Illustrator 24.0.0, SVG Export Plug-In . SVG Version: 6.00 Build 0)  -->
<svg version="1.1" id="Layer_1" xmlns="http://www.w3.org/2000/svg" xmlns:xlink="http://www.w3.org/1999/xlink" x="0px" y="0px"
	 viewBox="0 0 972.5 524" style="enable-background:new 0 0 972.5 524;" xml:space="preserve">
<style type="text/css">
	.st0{fill:#01CBE1;}
</style>
<path class="st0" d="M499.5,242.3l6.5-1.2l-0.3-1.7l-10.1,1.9l2.6,9.8l1.7-0.4l-1.8-7c6.1,4,9.9,10.9,9.9,18.3
	c0,12-9.7,21.7-21.7,21.7c-12,0-21.7-9.7-21.7-21.7c0-12,9.7-21.7,21.7-21.7v-2c-13.1,0-23.7,10.6-23.7,23.7s10.6,23.7,23.7,23.7
	c13.1,0,23.7-10.6,23.7-23.7C510,254,506,246.7,499.5,242.3z"/>
</svg>
