<svg xmlns="http://www.w3.org/2000/svg" xmlns:xlink="http://www.w3.org/1999/xlink" viewBox="0 0 1247.49 573.89"><defs><style>.cls-1,.cls-11{fill:#1b293d;}.cls-1{opacity:0;}.cls-2,.cls-3,.cls-6,.cls-9{fill:#00cee5;}.cls-10,.cls-2,.cls-20,.cls-7,.cls-9{isolation:isolate;}.cls-4{fill:#ff5400;}.cls-5{fill:#fff;opacity:0.13;}.cls-10,.cls-11,.cls-6,.cls-8,.cls-9{stroke:#00cee5;stroke-miterlimit:10;}.cls-10,.cls-12,.cls-8{fill:none;}.cls-10,.cls-11,.cls-8,.cls-9{stroke-width:3px;}.cls-13{fill:#d9d9d9;}.cls-14{fill:url(#linear-gradient);}.cls-15{fill:url(#linear-gradient-2);}.cls-16{fill:url(#linear-gradient-3);}.cls-17{fill:url(#linear-gradient-4);}.cls-18{fill:url(#linear-gradient-5);}.cls-19{fill:#00cbe2;}.cls-20{fill:#00cde4;}</style><linearGradient id="linear-gradient" x1="351.14" y1="210.83" x2="323.87" y2="252.72" gradientUnits="userSpaceOnUse"><stop offset="0" stop-color="#fff"/><stop offset="1" stop-color="#ff5400"/></linearGradient><linearGradient id="linear-gradient-2" x1="355.58" y1="213.72" x2="328.31" y2="255.61" xlink:href="#linear-gradient"/><linearGradient id="linear-gradient-3" x1="348.24" y1="208.94" x2="320.97" y2="250.83" xlink:href="#linear-gradient"/><linearGradient id="linear-gradient-4" x1="345.44" y1="207.12" x2="318.17" y2="249.01" xlink:href="#linear-gradient"/><linearGradient id="linear-gradient-5" x1="356.66" y1="214.42" x2="329.39" y2="256.32" xlink:href="#linear-gradient"/></defs><title>diagram.svg</title><g id="Layer_2" data-name="Layer 2"><g id="Layer_1-2" data-name="Layer 1"><rect class="cls-1" width="1247.49" height="573.89"/><path class="cls-2" d="M955.51,286.09s-1.72-6.27-6.68-10a26.82,26.82,0,0,0-10-4.89,60.89,60.89,0,0,0,10-6.75,18.53,18.53,0,0,0,6.35-10.5,30.55,30.55,0,0,0-14,4.23c-4.09,2.44-6.74,4.29-9.58,5.35a17.23,17.23,0,0,1-6.87.92,21,21,0,0,1-8-2.18,28.26,28.26,0,0,0,13.28-9.51s-4.89-4-19.23-4a73.92,73.92,0,0,0-16.19,1.66,49.67,49.67,0,0,0-19.31-3.71c-2,0-4,.14-6,.34a67.25,67.25,0,0,0-17.91,4.69c-11.11,4.62-19.63,11.5-22.67,16.46-.73,1.25.59,2.24.59,3.17s-1.45,2-.79,3c2.31,3.44,8.72,7,18,9.85,2.44.73,5.15,1.46,8,2.05a63.26,63.26,0,0,0,11.11,9.78c6.94,4.5,17.18,4.7,17.18,4.7a75.49,75.49,0,0,0-8.26-11.7l3.84.19a66.83,66.83,0,0,0,18.5-1.38,34.31,34.31,0,0,0,14.54,2.38c10.78-.8,16.26-4.23,16.26-4.23S925,283,915.59,279.82c2.84-1.66,5.22-2.78,7.6-2.78a21.56,21.56,0,0,1,9,2.11c3,1.33,5.82,3.18,10,4.83C950,287.15,955.51,286.09,955.51,286.09ZM842.82,271.75a3.64,3.64,0,1,1,3.63-3.63h0A3.62,3.62,0,0,1,842.82,271.75Z"/><path id="플랑크톤1" class="cls-3" d="M460.91,276.77l-4.83-4.95s-2.37-.6-1.85.72,4.23,5.23,4.23,5.23l-.13.72-4.69-1.72s-3,.27-.73,1.72a29.76,29.76,0,0,0,5.22,2.65l-.52,1.25-4.37,2.51s-1.85,1.13.53,1a11,11,0,0,0,4.69-1.72l.4,1.12-4.23,4.36s-2,2.65,1.12.73A21.15,21.15,0,0,0,461,285.9l.92,7.46s-.4,1.13.73.73.86-2.84.86-2.84v-4.36l4.43,4.82s1.85,1.85.72-1.12a32.56,32.56,0,0,0-2.51-5.35l5.62,2.11s1.72.26,0-1.65a33.65,33.65,0,0,0-5.62-2.84l-.13-1.39,6.48-2.65s.72-1.71-1.26-1.38-4.76,1.12-4.76,1.12l2.84-4.5s.27-1.71-1-.85a53.07,53.07,0,0,0-4,3.83l-1.26-.86v-4.63s-1.45-1.25-1.72,0S460.91,276.77,460.91,276.77Z"/><path id="플랑크톤1-2" class="cls-3" d="M512.6,294.82,510,292.18s-1.26-.34-1,.39a16.24,16.24,0,0,0,2.25,2.78l-.07.39-2.51-.92s-1.59.13-.4.92a15.36,15.36,0,0,0,2.78,1.39l-.27.66-2.31,1.33s-1,.59.26.52a5.48,5.48,0,0,0,2.52-.92l.19.59-2.24,2.32s-1.06,1.39.59.39a12,12,0,0,0,2.78-2.38l.46,4s-.2.59.4.39.46-1.52.46-1.52v-2.31l2.38,2.58s1,1,.4-.6a22.92,22.92,0,0,0-1.33-2.84l3,1.12s.92.14,0-.86a19,19,0,0,0-3-1.52l-.06-.72,3.5-1.39s.4-.93-.66-.73-2.51.6-2.51.6l1.52-2.38s.13-.93-.53-.47c-.73.67-1.45,1.33-2.12,2.05l-.66-.46v-2.51s-.79-.66-.92,0S512.6,294.82,512.6,294.82Z"/><path id="플랑크톤2" class="cls-3" d="M489.6,300.7s-3.57-1.78-5-1.52a3.64,3.64,0,0,0-3.1,2.18c-.67,1.46-1.19,5.75-1.66,6.68a26.1,26.1,0,0,1-1.38,3.1c-.47.6-.86,1.53-.6,1.86s1.79-1.72,1.79-1.72a18.48,18.48,0,0,0,1.18-2.51c.2-.8.6-2.19.86-3a26,26,0,0,1,1-3.31c.33-.53-.07-1.32,1.32-1.39a6.93,6.93,0,0,1,3.24.66,12.43,12.43,0,0,0,2.31.6v1.65a16.52,16.52,0,0,0-3.37,1.85c-.93.86-2.51,5.09-2.51,5.09a4.92,4.92,0,0,0-.4,2.12c.2.59.93,0,.93,0l1.38-3.31s1.72-2.64,1.92-2.84,1.59-1.32,1.59-1.32l.06,1.85s-1.65,2.44-2.11,3.3a15,15,0,0,0-.93,3.77c.07.2.47,1.12.47,1.12a7.71,7.71,0,0,0,1.19-2.38c0-.66.26-2.24.66-2.51a6.25,6.25,0,0,1,1.12-.59l.26,2,.73,2s1.52,2.45,2.18,3.44a8.34,8.34,0,0,1,.86,3.31v5.68s1.19-.93,1.19-1.12.86-2.52.86-2.52l1-.06c.4.46.86.92,1.32,1.39.2.06,1.39.19,1.52-.07a17.52,17.52,0,0,0,.47-1.72,27.1,27.1,0,0,1-2-2.25c-.26-.46-.86-1.45-.86-1.45l.2-5.22-.72-5.49.46-1.06a16.85,16.85,0,0,1,1.19,2c.59,1.06,1.32,3.63,1.72,3.9a3.23,3.23,0,0,1,.92,1v-2.38a6.24,6.24,0,0,1-1-2.12,7.67,7.67,0,0,0-1.72-3,5.9,5.9,0,0,0-1.78-.92l-.93-.66v-.93a6,6,0,0,1,1.85.07,14.65,14.65,0,0,0,2.65,1.85,8.63,8.63,0,0,1,2.57,2.31c.53.66.8,1.06.8,1.06v-2a9,9,0,0,0-1.19-1.85,17.56,17.56,0,0,0-2.65-2.32,18.73,18.73,0,0,0-2.18-.46,13.73,13.73,0,0,0-2.31-.07c-.6,0-.66-.86-.66-.86v-1.38a13.19,13.19,0,0,0,1.52-1.13c.86-.72,1.06-1.45,2.44-1.32a3.43,3.43,0,0,1,2.45,1.79c.33.59,2.38,2.84,2.58,3.37a10.44,10.44,0,0,0,1.85,2.31,5.86,5.86,0,0,0,1.92,1,7.71,7.71,0,0,0,1.78-.2,1.7,1.7,0,0,0-1.19-1.38,8.31,8.31,0,0,1-2.51-1.19c-.2-.2-2.45-3-2.71-3.31s-2.12-2.84-2.45-3.24a2.69,2.69,0,0,0-1.72-.53,6.17,6.17,0,0,0-2.77,1.39c-.6.66-1.32,1.92-2.12,2.25a12.24,12.24,0,0,1-2.64.53A5.4,5.4,0,0,1,489.6,300.7Z"/><path id="플랑크톤3" class="cls-3" d="M491,277s-3.3,1.79-4.09,2.78a9.81,9.81,0,0,0-1.39,3.37,20.73,20.73,0,0,0,2.25,4.16c.19.07,4.95,0,4.95,0s.2,1.13.66,1a3.78,3.78,0,0,0,1.46-1.19c.06-.2,1-.6,1-.6a4,4,0,0,1-.46,1.39,14.48,14.48,0,0,0-.93,2.31h1.39s.59-1.65.79-2a2.74,2.74,0,0,1,1.06-.73v1.19c0,.46-.93,1.65-1,1.85a5.31,5.31,0,0,0-.2,1.46c.07.2.66.26.93,0a11,11,0,0,0,1-1.85,1.07,1.07,0,0,1,1-.66c.46.06,0,1,0,1.45s-.8,1.45-.86,1.72-.33,2-.07,1.45A24.15,24.15,0,0,1,500,292s.86-.53.8.33a14.93,14.93,0,0,0,0,3.5,20,20,0,0,0,1.65,2.38c.2.07,1.12,1.32,1.45,1.12s.93-.19.86-.86-.33-.79-1.06-1.65a3.15,3.15,0,0,1-1.12-2.31c-.07-1.19-.07-2.58-.13-4.17a37.94,37.94,0,0,0-.2-3.83,7.06,7.06,0,0,0-1.45-4c-.8-.8-1.33-2.25-2.52-3a9.75,9.75,0,0,0-3.1-1.71,14.71,14.71,0,0,0-2.51-.53A4.56,4.56,0,0,1,491,277Z"/><path id="플랑크톤3-2" class="cls-3" d="M524.83,262.7a14.75,14.75,0,0,0-3.05-.53,4.78,4.78,0,0,0-2,.92,20.55,20.55,0,0,0-.8,2.84c.07.14,2.25,2.12,2.25,2.12s-.4.59-.13.73a2.4,2.4,0,0,0,1.19.06c.13-.06.72.2.72.2a1.49,1.49,0,0,1-.79.4,13.4,13.4,0,0,0-1.39.66l.6.59s1-.52,1.19-.59a3.62,3.62,0,0,1,.79.13l-.53.53c-.2.2-1.12.33-1.25.4a2.79,2.79,0,0,0-.73.53c-.07.13.2.39.4.39a4,4,0,0,0,1.25-.39.59.59,0,0,1,.73.13c.13.2-.46.46-.6.66s-1,.33-1.12.4-1,.72-.66.66l1.59-.33s.59.13.19.52a9.54,9.54,0,0,0-1.52,1.59c-.13.6-.19,1.19-.26,1.79.07.13,0,1.05.13,1.12s.53.33.79,0,.2-.53.2-1.19a2.13,2.13,0,0,1,.47-1.52c.46-.53,1-1.19,1.71-1.92s1.06-1.19,1.52-1.78a4.53,4.53,0,0,0,1.06-2.38,9.62,9.62,0,0,0,.2-2.45,7.84,7.84,0,0,0-.66-2.11,9.15,9.15,0,0,0-.93-1.32A2.85,2.85,0,0,1,524.83,262.7Z"/><circle id="미세플라스틱" class="cls-4" cx="512.93" cy="297.53" r="0.93"/><path id="미세_플라스틱2" data-name="미세 플라스틱2" class="cls-5" d="M461,257.14c-.86,1.19-.33.93-1.39,2.05s-1.46,1.46-1.46,1.92-.06.86.73.86.93-.66,1.46,0,.13.86.92.92a2,2,0,0,0,1.39-.33,8.76,8.76,0,0,0,1.06-1.05c.19-.4.72-.4,0-1.52s-1.59-2.32-1.59-2.32Z"/><path id="미세_플라스틱2-2" data-name="미세 플라스틱2-2" class="cls-5" d="M445.31,308.28c-1,0-.59.2-1.59.13s-1.32-.2-1.58,0-.46.33-.13.73.72.19.59.79-.4.4-.13.86a1.64,1.64,0,0,0,.73.59,4.91,4.91,0,0,0,.92.14c.33-.07.46.19.79-.6s.6-1.72.6-1.72Z"/><path id="미세_플라스틱2-3" data-name="미세 플라스틱2-3" class="cls-5" d="M512.2,280.61a12.27,12.27,0,0,1-1.45.73c-.93.33-1.33.33-1.46.59s-.33.46.13.73.73-.07.8.46-.2.53.2.79a1.43,1.43,0,0,0,.86.27,3.54,3.54,0,0,0,.92-.27c.27-.13.53,0,.46-.86s-.13-1.78-.13-1.78Z"/><path id="미세_플라스틱3" data-name="미세 플라스틱3" class="cls-5" d="M480.61,289.47c-1,.52-2.38.46-2.85,1.45s-.52,1.85-.72,2.18-1.39,1.45-1.46,1.79-2.44,1.65-.72,1.52a22.28,22.28,0,0,0,4.62-1c.93-.19,3.11-.33,3.31-1a8.32,8.32,0,0,0,.53-3.17c-.27-.86-.53-1.72-.86-2.58Z"/><path id="미세_플라스틱3-2" data-name="미세 플라스틱3-2" class="cls-5" d="M505,259.66c-.73.39-1.79.33-2.12,1s-.4,1.39-.53,1.66-1.06,1.05-1.06,1.32-1.85,1.19-.52,1.12a14.76,14.76,0,0,0,3.43-.73c.66-.19,2.32-.26,2.45-.72a6.94,6.94,0,0,0,.4-2.32c-.2-.66-.4-1.25-.67-1.91Z"/><path id="미세_플라스틱_4" data-name="미세 플라스틱 4" class="cls-5" d="M475,264.15a37.6,37.6,0,0,0-.33-4.89l-6.61-8.53a3.88,3.88,0,0,1,2-1.72c1.26-.39,8.66-3.63,9.39-4s7.27-4,7.27-4a3.15,3.15,0,0,0,1.19,2.57,14.38,14.38,0,0,0,4.76,2.85c.79.19,3.76.59,4.69,1.12s4.3,2.45,4.63,3-1.92,2-1.92,2l-10.91,6.75-9.32,5.61Z"/><path id="플라스틱" class="cls-5" d="M528.79,250.07c-1.06-.33-1.65-.92-2.11,0s-.4,1.59-1.19,2.12a7.84,7.84,0,0,0-1.59,1.45,2.24,2.24,0,0,0-.53,1.92c.2.66-.53,2,1.06,1.45s1.65-1.25,2.71-.92,1.92,1.32,2.44,1.05,2.19-.86,2.19-.86a4.58,4.58,0,0,0,1.58-1.18c.4-.67-.53-1.26.93-1.06s2.11.53,3.24.72,1.91.73,2.11-.19a7.9,7.9,0,0,0,.53-2.65c-.13-.86-.33-3.57-.66-4s-.2-1.19-1.19-1.06a14.47,14.47,0,0,0-3.9,1.39c-.86.39-3.24,1.65-3.24,1.65Z"/><line class="cls-6" x1="549.61" y1="274.79" x2="592.44" y2="274.79"/><polygon class="cls-6" points="591.52 278.1 597.2 274.79 591.52 271.49 591.52 278.1"/><line class="cls-6" x1="739.97" y1="274.79" x2="782.8" y2="274.79"/><polygon class="cls-6" points="781.87 278.1 787.56 274.79 781.87 271.49 781.87 278.1"/><g class="cls-7"><line class="cls-6" x1="988.49" y1="274.79" x2="1031.32" y2="274.79"/><polygon class="cls-6" points="1030.4 278.1 1036.08 274.79 1030.4 271.49 1030.4 278.1"/></g><g class="cls-7"><path class="cls-3" d="M639.77,277.9a11.72,11.72,0,0,1,8.46,5.55,19.18,19.18,0,0,0,1.12,1.79,21.54,21.54,0,0,0,4.89,5.88,7.12,7.12,0,0,0,3.57,1.39,15.76,15.76,0,0,1,1.79.26,32.15,32.15,0,0,1,5.55,1.72,23.11,23.11,0,0,1,5,2.77,8.89,8.89,0,0,0,1.71,1,38.53,38.53,0,0,0,6.08,2.31c1.66.53,2.91.79,3.11.86-2.31-.79-4.1-8-1.52-13a21.06,21.06,0,0,0,1.92-8.26,7.53,7.53,0,0,1,3.83,2.71,5.21,5.21,0,0,0,5.42,2.44s-2.84-2.11-3.17-7,7.47-8.07,7.47-8.07-6.61-.53-11.3,1.85a6.18,6.18,0,0,1-3,.8,11.6,11.6,0,0,0-1.12-2.65c-.53-.86-1.19-1.72-1.85-2.71-2.51-3.77-5-8.53-1.78-13.48.06-.07.06-.13.13-.2,3.57-5.16,29.68-7.14,29.68-7.14,3.43-1.59-5.29-1-5.29-1a152.61,152.61,0,0,0-26,5c-2.31.73-4.43,1.46-6.34,2.25-1.26.53-2.38,1-3.51,1.52q-2.28,1.09-4.56,2.38a36.89,36.89,0,0,0-4.23,2.91,26,26,0,0,0-4.62,4.76,16.89,16.89,0,0,0-2.19,3.83c-3,6.74-7.6,5.62-9.18,6.61S639.77,277.9,639.77,277.9Z"/><path class="cls-3" d="M649.35,285.24a21.54,21.54,0,0,0,4.89,5.88,42.26,42.26,0,0,1,.4-10.84c.73-4.63,2.05-9.19,2.05-13.88a25,25,0,0,0-.86-6.55,26.41,26.41,0,0,0-4.63,4.76,32.86,32.86,0,0,1-.39,10.18C650.34,278.29,649.62,281.73,649.35,285.24Z"/><path class="cls-3" d="M659.6,292.84a32.12,32.12,0,0,1,5.55,1.71,47.75,47.75,0,0,1-.2-5.35,81.24,81.24,0,0,1,.73-8.92,83.31,83.31,0,0,0,1-9.92,56.3,56.3,0,0,0-2-15.86q-2.28,1.09-4.56,2.38a33.28,33.28,0,0,1,.86,4.49,78,78,0,0,1-.33,14.08C660.06,281.27,659.33,287.09,659.6,292.84Z"/><path class="cls-3" d="M670.7,274.79c-.33,7.93-1.52,16.13,1.12,23.6a37.57,37.57,0,0,0,6.08,2.31l-.19-1a67.61,67.61,0,0,1-1.26-15.07c.2-5.68,1.06-11.3,1.19-17-2.51-3.76-5-8.52-1.78-13.48a29,29,0,0,0-1.39-3.24c-2.32.73-4.43,1.46-6.35,2.25C670.37,260,671,267.46,670.7,274.79Z"/><path class="cls-3" d="M648.56,284.44a21.19,21.19,0,0,0,4.89,5.88,42.28,42.28,0,0,1,.4-10.84c.72-4.62,2-9.18,2-13.88a24.89,24.89,0,0,0-.85-6.54,26.41,26.41,0,0,0-4.63,4.76A32.86,32.86,0,0,1,650,274C649.48,277.5,648.82,280.94,648.56,284.44Z"/><path class="cls-3" d="M658.8,292a30.8,30.8,0,0,1,5.55,1.72,48,48,0,0,1-.19-5.36,81.22,81.22,0,0,1,.72-8.92,85.47,85.47,0,0,0,1-9.92,56.3,56.3,0,0,0-2-15.86q-2.28,1.1-4.56,2.38a33.11,33.11,0,0,1,.85,4.5,76.07,76.07,0,0,1-.33,14.07C659.27,280.48,658.54,286.29,658.8,292Z"/><path class="cls-3" d="M669.91,274c-.33,7.93-1.52,16.13,1.12,23.6a38.53,38.53,0,0,0,6.08,2.31l-.2-1a68.2,68.2,0,0,1-1.25-15.07c.2-5.69,1.05-11.31,1.19-17-2.51-3.77-5-8.53-1.79-13.48a26.54,26.54,0,0,0-1.39-3.24c-2.31.72-4.42,1.45-6.34,2.25C669.58,259.19,670.17,266.66,669.91,274Z"/><circle class="cls-3" cx="652.79" cy="269.7" r="1.72"/><path class="cls-3" d="M664.55,265.67c.6-.33,1.52-.53,1.79.13a.81.81,0,0,1-.07.66,10.29,10.29,0,0,1-2.31,3.37,4,4,0,0,0-1,3.84,9.37,9.37,0,0,0,1,1.58,1.8,1.8,0,0,1,.13,1.72c-.26.47-.86.6-1.26.93a3.12,3.12,0,0,0-1.05,2.51c0,.93.2,1.92.26,2.84,0,.6-.2,1.32-.79,1.26a1,1,0,0,1-.6-.4,13.5,13.5,0,0,1-3.24-10.64C658.08,270.23,661.78,267.19,664.55,265.67Z"/><path class="cls-3" d="M665.81,265.67c.59-.33,1.52-.53,1.78.13a.77.77,0,0,1-.06.66,10.48,10.48,0,0,1-2.32,3.37,4,4,0,0,0-1,3.84,10.85,10.85,0,0,0,1,1.58,1.63,1.63,0,0,1,.14,1.72c-.27.47-.86.6-1.26.93a3,3,0,0,0-1.06,2.51c0,.93.27,1.92.33,2.84,0,.6-.19,1.32-.79,1.26a1,1,0,0,1-.59-.4,13.5,13.5,0,0,1-3.24-10.64C659.33,270.23,663,267.19,665.81,265.67Z"/><ellipse class="cls-3" cx="652.13" cy="269.57" rx="1.32" ry="1.85"/><g id="미세_플라스틱_그룹" data-name="미세 플라스틱 그룹"><circle id="미세플라스틱-2" class="cls-3" cx="663.03" cy="272.81" r="1.19"/><circle id="미세플라스틱-3" class="cls-3" cx="664.49" cy="270.56" r="1.19"/><circle id="미세플라스틱-4" class="cls-3" cx="662.17" cy="268.38" r="1.19"/><circle id="미세플라스틱-5" class="cls-3" cx="663.56" cy="267.46" r="1.19"/><circle id="미세플라스틱-6" class="cls-3" cx="665.68" cy="273.47" r="1.19"/><circle id="미세플라스틱-7" class="cls-3" cx="661.05" cy="271.35" r="1.19"/><circle id="미세플라스틱-8" class="cls-3" cx="659.86" cy="269.64" r="1.19"/><circle id="미세플라스틱-9" class="cls-3" cx="667.26" cy="271.35" r="1.19"/><circle id="미세플라스틱-10" class="cls-3" cx="665.35" cy="268.38" r="1.19"/><circle id="미세플라스틱-11" class="cls-3" cx="667" cy="267.46" r="1.19"/><circle id="미세플라스틱-12" class="cls-3" cx="669.11" cy="272.94" r="1.19"/><circle id="미세플라스틱-13" class="cls-3" cx="670.3" cy="270.56" r="1.19"/><circle id="미세플라스틱-14" class="cls-3" cx="672.62" cy="272.81" r="1.19"/><circle id="미세플라스틱-15" class="cls-3" cx="668.45" cy="269.17" r="1.19"/><circle id="미세플라스틱-16" class="cls-3" cx="670.77" cy="277.44" r="1.19"/><circle id="미세플라스틱-17" class="cls-3" cx="672.62" cy="275.85" r="1.19"/><path id="미세플라스틱-18" class="cls-3" d="M670,279.29a1.19,1.19,0,1,1-1.19,1.19A1.19,1.19,0,0,1,670,279.29Z"/><circle id="미세플라스틱-19" class="cls-3" cx="668.45" cy="281.93" r="1.19"/><circle id="미세플라스틱-20" class="cls-3" cx="672.62" cy="279.29" r="1.19"/><circle id="미세플라스틱-21" class="cls-3" cx="668.45" cy="275.59" r="1.19"/><circle id="미세플라스틱-22" class="cls-3" cx="670.77" cy="274.66" r="1.19"/><circle id="미세플라스틱-23" class="cls-3" cx="667.59" cy="278.89" r="1.19"/><circle id="미세플라스틱-24" class="cls-3" cx="666.27" cy="281.4" r="1.19"/><circle id="미세플라스틱-25" class="cls-3" cx="662.77" cy="281.4" r="1.19"/><circle id="미세플라스틱-26" class="cls-3" cx="664.69" cy="282.39" r="1.19"/><circle id="미세플라스틱-27" class="cls-3" cx="666.34" cy="276.71" r="1.19"/><circle id="미세플라스틱-28" class="cls-3" cx="664.49" cy="279.29" r="1.19"/><circle id="미세플라스틱-29" class="cls-3" cx="660.98" cy="279.29" r="1.19"/><circle id="미세플라스틱-30" class="cls-3" cx="659.6" cy="278.03" r="1.19"/><circle id="미세플라스틱-31" class="cls-3" cx="664.22" cy="275.59" r="1.19"/><circle id="미세플라스틱-32" class="cls-3" cx="662.77" cy="277.11" r="1.19"/><circle id="미세플라스틱-33" class="cls-3" cx="659.33" cy="276.25" r="1.19"/><circle id="미세플라스틱-34" class="cls-3" cx="661.58" cy="274.66" r="1.19"/><circle id="미세플라스틱-35" class="cls-3" cx="659.07" cy="272.94" r="1.19"/><circle id="미세플라스틱-36" class="cls-3" cx="659.86" cy="273.8" r="1.19"/></g></g><g id="미세_플라스틱_그룹-2" data-name="미세 플라스틱 그룹-2"><circle id="미세플라스틱-37" class="cls-4" cx="885.51" cy="262.1" r="1.39"/><circle id="미세플라스틱-38" class="cls-4" cx="887.17" cy="259.52" r="1.39"/><circle id="미세플라스틱-39" class="cls-4" cx="884.52" cy="256.95" r="1.39"/><circle id="미세플라스틱-40" class="cls-4" cx="886.11" cy="255.95" r="1.39"/><circle id="미세플라스틱-41" class="cls-4" cx="888.55" cy="262.83" r="1.39"/><circle id="미세플라스틱-42" class="cls-4" cx="883.27" cy="260.38" r="1.39"/><circle id="미세플라스틱-43" class="cls-4" cx="881.94" cy="258.47" r="1.39"/><circle id="미세플라스틱-44" class="cls-4" cx="890.34" cy="260.38" r="1.39"/><circle id="미세플라스틱-45" class="cls-4" cx="888.16" cy="256.95" r="1.39"/><circle id="미세플라스틱-46" class="cls-4" cx="890.07" cy="255.95" r="1.39"/><circle id="미세플라스틱-47" class="cls-4" cx="892.45" cy="262.23" r="1.39"/><circle id="미세플라스틱-48" class="cls-4" cx="893.84" cy="259.52" r="1.39"/><circle id="미세플라스틱-49" class="cls-4" cx="896.42" cy="262.1" r="1.39"/><circle id="미세플라스틱-50" class="cls-4" cx="891.73" cy="257.94" r="1.39"/><circle id="미세플라스틱-51" class="cls-4" cx="894.37" cy="267.39" r="1.39"/><circle id="미세플라스틱-52" class="cls-4" cx="896.42" cy="265.54" r="1.39"/><circle id="미세플라스틱-53" class="cls-4" cx="893.45" cy="270.83" r="1.39"/><circle id="미세플라스틱-54" class="cls-4" cx="891.73" cy="272.48" r="1.39"/><circle id="미세플라스틱-55" class="cls-4" cx="896.42" cy="269.44" r="1.39"/><circle id="미세플라스틱-56" class="cls-4" cx="891.73" cy="265.21" r="1.39"/><circle id="미세플라스틱-57" class="cls-4" cx="894.37" cy="264.15" r="1.39"/><circle id="미세플라스틱-58" class="cls-4" cx="890.67" cy="269.04" r="1.39"/><circle id="미세플라스틱-59" class="cls-4" cx="889.22" cy="271.88" r="1.39"/><circle id="미세플라스틱-60" class="cls-4" cx="885.18" cy="271.88" r="1.39"/><circle id="미세플라스틱-61" class="cls-4" cx="887.43" cy="273.01" r="1.39"/><circle id="미세플라스틱-62" class="cls-4" cx="889.35" cy="266.46" r="1.39"/><circle id="미세플라스틱-63" class="cls-4" cx="887.17" cy="269.44" r="1.39"/><circle id="미세플라스틱-64" class="cls-4" cx="883.13" cy="269.44" r="1.39"/><circle id="미세플라스틱-65" class="cls-4" cx="881.61" cy="268.05" r="1.39"/><circle id="미세플라스틱-66" class="cls-4" cx="886.9" cy="265.21" r="1.39"/><circle id="미세플라스틱-67" class="cls-4" cx="885.18" cy="266.99" r="1.39"/><circle id="미세플라스틱-68" class="cls-4" cx="881.28" cy="266" r="1.39"/><circle id="미세플라스틱-69" class="cls-4" cx="883.86" cy="264.15" r="1.39"/><circle id="미세플라스틱-70" class="cls-4" cx="881.02" cy="262.23" r="1.39"/><circle id="미세플라스틱-71" class="cls-4" cx="881.94" cy="263.22" r="1.39"/></g><g id="미세_플라스틱_그룹-3" data-name="미세 플라스틱 그룹-3"><circle id="미세플라스틱-72" class="cls-4" cx="875.93" cy="272.28" r="1.39"/><circle id="미세플라스틱-73" class="cls-4" cx="877.52" cy="269.7" r="1.39"/><circle id="미세플라스틱-74" class="cls-4" cx="874.87" cy="267.12" r="1.39"/><circle id="미세플라스틱-75" class="cls-4" cx="876.52" cy="266.13" r="1.39"/><circle id="미세플라스틱-76" class="cls-4" cx="878.9" cy="273.01" r="1.39"/><circle id="미세플라스틱-77" class="cls-4" cx="873.62" cy="270.56" r="1.39"/><circle id="미세플라스틱-78" class="cls-4" cx="872.29" cy="268.64" r="1.39"/><circle id="미세플라스틱-79" class="cls-4" cx="880.75" cy="270.56" r="1.39"/><circle id="미세플라스틱-80" class="cls-4" cx="878.51" cy="267.12" r="1.39"/><circle id="미세플라스틱-81" class="cls-4" cx="880.42" cy="266.13" r="1.39"/><circle id="미세플라스틱-82" class="cls-4" cx="882.8" cy="272.41" r="1.39"/><circle id="미세플라스틱-83" class="cls-4" cx="884.19" cy="269.7" r="1.39"/><circle id="미세플라스틱-84" class="cls-4" cx="886.84" cy="272.28" r="1.39"/><circle id="미세플라스틱-85" class="cls-4" cx="882.08" cy="268.12" r="1.39"/><circle id="미세플라스틱-86" class="cls-4" cx="884.72" cy="277.57" r="1.39"/><circle id="미세플라스틱-87" class="cls-4" cx="886.84" cy="275.72" r="1.39"/><circle id="미세플라스틱-88" class="cls-4" cx="883.8" cy="281" r="1.39"/><circle id="미세플라스틱-89" class="cls-4" cx="882.08" cy="282.66" r="1.39"/><circle id="미세플라스틱-90" class="cls-4" cx="886.84" cy="279.62" r="1.39"/><circle id="미세플라스틱-91" class="cls-4" cx="882.08" cy="275.45" r="1.39"/><circle id="미세플라스틱-92" class="cls-4" cx="884.72" cy="274.33" r="1.39"/><circle id="미세플라스틱-93" class="cls-4" cx="881.09" cy="279.22" r="1.39"/><circle id="미세플라스틱-94" class="cls-4" cx="879.63" cy="282.06" r="1.39"/><circle id="미세플라스틱-95" class="cls-4" cx="875.6" cy="282.06" r="1.39"/><circle id="미세플라스틱-96" class="cls-4" cx="877.78" cy="283.19" r="1.39"/><circle id="미세플라스틱-97" class="cls-4" cx="879.7" cy="276.64" r="1.39"/><circle id="미세플라스틱-98" class="cls-4" cx="877.52" cy="279.62" r="1.39"/><circle id="미세플라스틱-99" class="cls-4" cx="873.48" cy="279.62" r="1.39"/><circle id="미세플라스틱-100" class="cls-4" cx="871.96" cy="278.23" r="1.39"/><circle id="미세플라스틱-101" class="cls-4" cx="877.25" cy="275.45" r="1.39"/><circle id="미세플라스틱-102" class="cls-4" cx="875.6" cy="277.17" r="1.39"/><circle id="미세플라스틱-103" class="cls-4" cx="871.63" cy="276.18" r="1.39"/><circle id="미세플라스틱-104" class="cls-4" cx="874.21" cy="274.33" r="1.39"/><circle id="미세플라스틱-105" class="cls-4" cx="871.37" cy="272.41" r="1.39"/><circle id="미세플라스틱-106" class="cls-4" cx="872.29" cy="273.4" r="1.39"/></g><g id="미세_플라스틱_그룹-4" data-name="미세 플라스틱 그룹-4"><circle id="미세플라스틱-107" class="cls-4" cx="872.49" cy="259.59" r="1.39"/><circle id="미세플라스틱-108" class="cls-4" cx="874.15" cy="257.01" r="1.39"/><circle id="미세플라스틱-109" class="cls-4" cx="871.5" cy="254.5" r="1.39"/><circle id="미세플라스틱-110" class="cls-4" cx="873.09" cy="253.44" r="1.39"/><circle id="미세플라스틱-111" class="cls-4" cx="875.53" cy="260.32" r="1.39"/><circle id="미세플라스틱-112" class="cls-4" cx="870.25" cy="257.87" r="1.39"/><circle id="미세플라스틱-113" class="cls-4" cx="868.92" cy="255.95" r="1.39"/><circle id="미세플라스틱-114" class="cls-4" cx="877.32" cy="257.87" r="1.39"/><circle id="미세플라스틱-115" class="cls-4" cx="875.14" cy="254.5" r="1.39"/><circle id="미세플라스틱-116" class="cls-4" cx="876.99" cy="253.44" r="1.39"/><circle id="미세플라스틱-117" class="cls-4" cx="879.43" cy="259.72" r="1.39"/><circle id="미세플라스틱-118" class="cls-4" cx="880.82" cy="257.01" r="1.39"/><circle id="미세플라스틱-119" class="cls-4" cx="883.4" cy="259.59" r="1.39"/><circle id="미세플라스틱-120" class="cls-4" cx="878.71" cy="255.43" r="1.39"/><circle id="미세플라스틱-121" class="cls-4" cx="881.28" cy="264.88" r="1.39"/><circle id="미세플라스틱-122" class="cls-4" cx="883.4" cy="263.03" r="1.39"/><circle id="미세플라스틱-123" class="cls-4" cx="880.42" cy="268.31" r="1.39"/><circle id="미세플라스틱-124" class="cls-4" cx="878.71" cy="269.97" r="1.39"/><circle id="미세플라스틱-125" class="cls-4" cx="883.4" cy="266.93" r="1.39"/><circle id="미세플라스틱-126" class="cls-4" cx="878.71" cy="262.76" r="1.39"/><circle id="미세플라스틱-127" class="cls-4" cx="881.28" cy="261.7" r="1.39"/><circle id="미세플라스틱-128" class="cls-4" cx="877.65" cy="266.53" r="1.39"/><circle id="미세플라스틱-129" class="cls-4" cx="876.19" cy="269.37" r="1.39"/><circle id="미세플라스틱-130" class="cls-4" cx="872.16" cy="269.37" r="1.39"/><circle id="미세플라스틱-131" class="cls-4" cx="874.41" cy="270.5" r="1.39"/><circle id="미세플라스틱-132" class="cls-4" cx="876.33" cy="263.95" r="1.39"/><circle id="미세플라스틱-133" class="cls-4" cx="874.15" cy="266.93" r="1.39"/><circle id="미세플라스틱-134" class="cls-4" cx="870.11" cy="266.93" r="1.39"/><circle id="미세플라스틱-135" class="cls-4" cx="868.59" cy="265.54" r="1.39"/><circle id="미세플라스틱-136" class="cls-4" cx="873.88" cy="262.76" r="1.39"/><circle id="미세플라스틱-137" class="cls-4" cx="872.16" cy="264.48" r="1.39"/><circle id="미세플라스틱-138" class="cls-4" cx="868.26" cy="263.49" r="1.39"/><circle id="미세플라스틱-139" class="cls-4" cx="870.84" cy="261.7" r="1.39"/><circle id="미세플라스틱-140" class="cls-4" cx="868" cy="259.72" r="1.39"/><circle id="미세플라스틱-141" class="cls-4" cx="868.92" cy="260.71" r="1.39"/></g><g id="미세_플라스틱_그룹-5" data-name="미세 플라스틱 그룹-5"><circle id="미세플라스틱-142" class="cls-4" cx="663.1" cy="272.94" r="1.39"/><circle id="미세플라스틱-143" class="cls-4" cx="664.69" cy="270.36" r="1.39"/><circle id="미세플라스틱-144" class="cls-4" cx="662.04" cy="267.79" r="1.39"/><circle id="미세플라스틱-145" class="cls-4" cx="663.63" cy="266.79" r="1.39"/><circle id="미세플라스틱-146" class="cls-4" cx="666.07" cy="273.67" r="1.39"/><circle id="미세플라스틱-147" class="cls-4" cx="660.79" cy="271.22" r="1.39"/><circle id="미세플라스틱-148" class="cls-4" cx="659.46" cy="269.31" r="1.39"/><circle id="미세플라스틱-149" class="cls-4" cx="667.92" cy="271.22" r="1.39"/><circle id="미세플라스틱-150" class="cls-4" cx="665.68" cy="267.79" r="1.39"/><circle id="미세플라스틱-151" class="cls-4" cx="667.59" cy="266.79" r="1.39"/><circle id="미세플라스틱-152" class="cls-4" cx="669.97" cy="273.07" r="1.39"/><circle id="미세플라스틱-153" class="cls-4" cx="671.36" cy="270.36" r="1.39"/><circle id="미세플라스틱-154" class="cls-4" cx="674" cy="272.94" r="1.39"/><circle id="미세플라스틱-155" class="cls-4" cx="669.25" cy="268.78" r="1.39"/><circle id="미세플라스틱-156" class="cls-4" cx="671.89" cy="278.23" r="1.39"/><circle id="미세플라스틱-157" class="cls-4" cx="674" cy="276.38" r="1.39"/><circle id="미세플라스틱-158" class="cls-4" cx="670.96" cy="281.67" r="1.39"/><circle id="미세플라스틱-159" class="cls-4" cx="669.25" cy="283.32" r="1.39"/><circle id="미세플라스틱-160" class="cls-4" cx="674" cy="280.28" r="1.39"/><circle id="미세플라스틱-161" class="cls-4" cx="669.25" cy="276.11" r="1.39"/><circle id="미세플라스틱-162" class="cls-4" cx="671.89" cy="274.99" r="1.39"/><circle id="미세플라스틱-163" class="cls-4" cx="668.25" cy="279.88" r="1.39"/><circle id="미세플라스틱-164" class="cls-4" cx="666.8" cy="282.72" r="1.39"/><circle id="미세플라스틱-165" class="cls-4" cx="662.77" cy="282.72" r="1.39"/><circle id="미세플라스틱-166" class="cls-4" cx="664.95" cy="283.85" r="1.39"/><circle id="미세플라스틱-167" class="cls-4" cx="666.87" cy="277.3" r="1.39"/><circle id="미세플라스틱-168" class="cls-4" cx="664.69" cy="280.28" r="1.39"/><circle id="미세플라스틱-169" class="cls-4" cx="660.65" cy="280.28" r="1.39"/><circle id="미세플라스틱-170" class="cls-4" cx="659.13" cy="278.89" r="1.39"/><circle id="미세플라스틱-171" class="cls-4" cx="664.42" cy="276.11" r="1.39"/><circle id="미세플라스틱-172" class="cls-4" cx="662.77" cy="277.83" r="1.39"/><circle id="미세플라스틱-173" class="cls-4" cx="658.8" cy="276.84" r="1.39"/><circle id="미세플라스틱-174" class="cls-4" cx="661.38" cy="274.99" r="1.39"/><circle id="미세플라스틱-175" class="cls-4" cx="658.54" cy="273.07" r="1.39"/><circle id="미세플라스틱-176" class="cls-4" cx="659.46" cy="274.06" r="1.39"/></g><circle id="미세플라스틱-212" class="cls-4" cx="462.5" cy="283.05" r="1.39"/><circle id="미세플라스틱-213" class="cls-4" cx="492.57" cy="306.58" r="1.39"/><circle id="미세플라스틱-214" class="cls-4" cx="492.57" cy="311.28" r="1.39"/><circle id="미세플라스틱-215" class="cls-4" cx="492.57" cy="282.59" r="1.39"/><circle id="미세플라스틱-216" class="cls-4" cx="524.76" cy="267.98" r="1.39"/><path class="cls-2" d="M591.61,446.59l-4.24-6.82-1.22-6.06,1.37-2,4.85-20.53-4.32-28.57L571.38,362.7l-11.14-5.91,1.89-2.42,4.78-1.37,10.23,2.13L587,362.4l5.07-2L583,346.72l-12-7.43-10.31,7.2-4.17,8.33-5.83-3.1-11.9-.61-2.57-3.56s-2.58-5.76-5-7.43-9-4.09-10.16.08.91,8.26,1.21,11a68.77,68.77,0,0,0,1.37,7l-3.71,3.48L514,370.43,507.2,366l-10.77,2.2L485.3,378.62l-1,16.44,5.38-.83L494.46,383l10.61-8.26,4.78-1.21,1.66.68-3.1,4.62-1.9,18.42,8.34,25.84,13.71,14.7,4.17,2,2.12,10.61-1.29,7.88-2,3.71,3,.83,6.74-4,2.43-7.13,1.21-5.76s-1-.6-2.42-1.59l10,4.7,13,4.32,9.25-3.64,4.32-6.13.53.75,5,5.61,7.73,1.14,2.35-1.9Z"/><g id="미세_플라스틱_그룹-6" data-name="미세 플라스틱 그룹-6"><circle id="미세플라스틱-177" class="cls-4" cx="544.96" cy="392.35" r="2.51"/><circle id="미세플라스틱-178" class="cls-4" cx="547.93" cy="387.66" r="2.51"/><circle id="미세플라스틱-179" class="cls-4" cx="543.11" cy="383.03" r="2.51"/><circle id="미세플라스틱-180" class="cls-4" cx="546.02" cy="381.18" r="2.51"/><circle id="미세플라스틱-181" class="cls-4" cx="550.45" cy="393.67" r="2.51"/><circle id="미세플라스틱-182" class="cls-4" cx="540.86" cy="389.24" r="2.51"/><circle id="미세플라스틱-183" class="cls-4" cx="538.35" cy="385.74" r="2.51"/><circle id="미세플라스틱-184" class="cls-4" cx="553.75" cy="389.24" r="2.51"/><circle id="미세플라스틱-185" class="cls-4" cx="549.72" cy="383.03" r="2.51"/><circle id="미세플라스틱-186" class="cls-4" cx="553.22" cy="381.18" r="2.51"/><circle id="미세플라스틱-187" class="cls-4" cx="557.58" cy="392.61" r="2.51"/><circle id="미세플라스틱-188" class="cls-4" cx="560.16" cy="387.66" r="2.51"/><circle id="미세플라스틱-189" class="cls-4" cx="564.86" cy="392.35" r="2.51"/><circle id="미세플라스틱-190" class="cls-4" cx="556.26" cy="384.75" r="2.51"/><circle id="미세플라스틱-191" class="cls-4" cx="561.02" cy="402" r="2.51"/><circle id="미세플라스틱-192" class="cls-4" cx="564.86" cy="398.63" r="2.51"/><circle id="미세플라스틱-193" class="cls-4" cx="559.37" cy="408.21" r="2.51"/><circle id="미세플라스틱-194" class="cls-4" cx="556.26" cy="411.32" r="2.51"/><circle id="미세플라스틱-195" class="cls-4" cx="564.86" cy="405.77" r="2.51"/><circle id="미세플라스틱-196" class="cls-4" cx="556.26" cy="398.1" r="2.51"/><circle id="미세플라스틱-197" class="cls-4" cx="561.02" cy="396.18" r="2.51"/><circle id="미세플라스틱-198" class="cls-4" cx="554.35" cy="405.04" r="2.51"/><circle id="미세플라스틱-199" class="cls-4" cx="551.7" cy="410.19" r="2.51"/><circle id="미세플라스틱-200" class="cls-4" cx="544.37" cy="410.19" r="2.51"/><circle id="미세플라스틱-201" class="cls-4" cx="548.4" cy="412.24" r="2.51"/><circle id="미세플라스틱-202" class="cls-4" cx="551.9" cy="400.35" r="2.51"/><circle id="미세플라스틱-203" class="cls-4" cx="547.93" cy="405.77" r="2.51"/><circle id="미세플라스틱-204" class="cls-4" cx="540.6" cy="405.77" r="2.51"/><circle id="미세플라스틱-205" class="cls-4" cx="537.82" cy="403.25" r="2.51"/><circle id="미세플라스틱-206" class="cls-4" cx="547.47" cy="398.1" r="2.51"/><circle id="미세플라스틱-207" class="cls-4" cx="544.37" cy="401.27" r="2.51"/><circle id="미세플라스틱-208" class="cls-4" cx="537.23" cy="399.55" r="2.51"/><circle id="미세플라스틱-209" class="cls-4" cx="541.85" cy="396.18" r="2.51"/><circle id="미세플라스틱-210" class="cls-4" cx="536.7" cy="392.61" r="2.51"/><circle id="미세플라스틱-211" class="cls-4" cx="538.35" cy="394.4" r="2.51"/></g><rect class="cls-3" x="187.85" y="203.49" width="36.53" height="13.75" rx="1" transform="translate(412.23 420.73) rotate(-180)"/><path class="cls-3" d="M157.88,74.76h0v4.43a.48.48,0,0,1-.46.5h-.59a.78.78,0,0,0-.69.75l-1.92,54.39a2,2,0,0,1-.26.94l-4.14,7.51a1.83,1.83,0,0,1-1.61,1h-9.87a1.84,1.84,0,0,1-1.61-1l-4.14-7.51a2,2,0,0,1-.26-.94l-1.92-54.39a.78.78,0,0,0-.69-.75h-.59a.48.48,0,0,1-.46-.5V74.76Z"/><polygon class="cls-3" points="143.23 146.81 143.32 146.81 148.26 146.81 147.61 156.6 143.32 156.6 143.23 156.6 138.94 156.6 138.29 146.81 143.23 146.81"/><path class="cls-8" d="M193.72,156.63h7.52a16.7,16.7,0,0,1,16.7,16.7v30.8H193.72V185.85a5,5,0,0,0-5-5H2.06V156.63Z"/><path class="cls-9" d="M75.71,101.19H44.39a3,3,0,0,0-3,3v50.18a2,2,0,0,0,2,2H74.71a2,2,0,0,0,2-2V102.19A1,1,0,0,0,75.71,101.19Z"/><path class="cls-10" d="M59.05,90.28c7.18,0,13,4.79,13,10.7s-5.82,10.71-13,10.71-13-4.79-13-10.71S51.87,90.28,59.05,90.28Zm0-7.52,0,7.52m-11.54-7,19.74.61a2,2,0,0,0,2.06-2v-2.7a2,2,0,0,0-2.1-2l-19.71,1a2,2,0,0,0-1.89,1.94l0,1.09A2,2,0,0,0,47.51,83.25Z"/><path class="cls-3" d="M101.71,79.43h0a2.53,2.53,0,0,1,.91,0,2.34,2.34,0,0,1,1.39.81h0a.92.92,0,0,0,.25.19,1.48,1.48,0,0,0,.84.1l4.91-1a1.3,1.3,0,0,1,1,.17l.12.1.17.15,0,0a.49.49,0,0,1,.11.14,1.48,1.48,0,0,1,.12.29.75.75,0,0,1,.06.13,1.32,1.32,0,0,1-.67,1.42l-2.55.56-2.76.6-.08,0a.81.81,0,0,0-.45.28.41.41,0,0,0-.1.27.55.55,0,0,0,.26.46.51.51,0,0,0,.29.1l.15,0,5.13-1.12a1.32,1.32,0,0,1,1.53,1h0a1.27,1.27,0,0,1-.34,1.15,2.62,2.62,0,0,1-1.11.46c-1.49.28-3,.65-4.46,1l-.25.06a.51.51,0,0,0-.21.1.57.57,0,0,0-.11.11.49.49,0,0,0-.11.29.53.53,0,0,0,.28.51.62.62,0,0,0,.27.09l.14,0,.56-.12h0l4.85-1.05a1.31,1.31,0,0,1,1.25,1,1.27,1.27,0,0,1-.13.84,1.32,1.32,0,0,1-.79.69s-.07,0-.12,0l-2.74.58-1.54.32-.7.16h0a.56.56,0,0,0-.26.15.66.66,0,0,0-.12.17.5.5,0,0,0,0,.32v0s.05.08.07.12a.46.46,0,0,0,.11.16.56.56,0,0,0,.24.13.59.59,0,0,0,.23,0l.51-.11,4.8-1a1.32,1.32,0,0,1,1.27,1,1.28,1.28,0,0,1-.11.82,1.39,1.39,0,0,1-.76.69l-4,.88-.53.11-.55.12a.55.55,0,0,0-.41.41.57.57,0,0,0,0,.13v.12a.67.67,0,0,0,.11.18.55.55,0,0,0,.31.23.49.49,0,0,0,.24,0l.31-.07L113.29,94a1.31,1.31,0,0,1,1.3,1l0,.06a1.33,1.33,0,0,1-1,1.58l-4.9,1a1.9,1.9,0,0,0-.59.37c-.21.34-.09.85.23,1.78a6,6,0,0,0,1.66,2.79,12.83,12.83,0,0,1,5,8.88c.68,4.42,1.76,8.78,2.74,13.15.74,3.35,1.62,6.66,2.38,10a2.46,2.46,0,0,1-1.6,3.12c-1.27.34-2.43-.39-2.81-2-.46-1.86-.73-3.77-1.14-5.65-1.19-5.37-2.43-10.72-3.61-16.09-.68-3.08-1.25-6.17-4.16-8.13A6.56,6.56,0,0,1,105,104a8.75,8.75,0,0,1-1.12-2.4l-.21-1.06-.06-.29L103,97.87h0s0-.09-.05-.15L99.7,82.54A2.62,2.62,0,0,1,101.71,79.43Z"/><path class="cls-11" d="M101.92,122.38a2.83,2.83,0,0,1,1.81-.62H132.4a2.82,2.82,0,0,1,1.8.62,1.72,1.72,0,0,1,.66,1.46L132,154.1a2.31,2.31,0,0,1-2.46,1.8h-23a2.31,2.31,0,0,1-2.46-1.8l-2.85-30.26A1.68,1.68,0,0,1,101.92,122.38Z"/><path class="cls-3" d="M116.38,96a3.9,3.9,0,0,0,3-4.39h0s.32,1.68,2.68,1a.7.7,0,0,1,.81,1A7.19,7.19,0,0,1,115.05,96,3.73,3.73,0,0,0,116.38,96Z"/><path class="cls-3" d="M112.36,94.44l0,0"/><path class="cls-3" d="M113.9,95.41a4.5,4.5,0,0,1-1.47-1.31c-.29-.41-.7-1.11-.7-1.11h0l-2-9.28a4.08,4.08,0,0,1,2.77-4.86,3.91,3.91,0,0,1,4.82,3l2.06,9.54a2.6,2.6,0,0,1,0,.26,3.9,3.9,0,0,1-3,4.39,3.73,3.73,0,0,1-1.33,0h0Z"/><path class="cls-12" d="M336.87,194.17c-.6,1.15-1.17,2.32-1.7,3.5C335.7,196.49,336.27,195.32,336.87,194.17Z"/><path class="cls-12" d="M352.83,213.12a14.92,14.92,0,0,0,1.66-.81c.66-.38,1.32-.73,2-1.06-.66.33-1.32.68-2,1.06A14.92,14.92,0,0,1,352.83,213.12Z"/><path class="cls-12" d="M349.47,214a12.25,12.25,0,0,1-1.71.09A12.25,12.25,0,0,0,349.47,214Z"/><path class="cls-12" d="M362.64,209.39h0c-.36,0-.71.08-1.07.14C361.93,209.47,362.28,209.42,362.64,209.39Z"/><path class="cls-4" d="M332.81,272.86a2.82,2.82,0,0,0,3-3.69,23.49,23.49,0,0,1-.24-2.54c-.1-.69-.09-1.6-.52-2-.6-.55-1.73-1.19-2.34-1a14.35,14.35,0,0,0-4.38,2.51c-.41.35.1,1.76.2,2.68A4.69,4.69,0,0,0,332.81,272.86Z"/><path class="cls-4" d="M311.78,254.46c1.94-1.17-.92-2.89-.7-4.57,0-.23-.81-.82-1.23-.81a10.48,10.48,0,0,0-3.15.55,3.54,3.54,0,0,0-2.65,3.78c.31.4.86,1.79,1.45,1.81C307.62,255.27,310.11,255.46,311.78,254.46Z"/><path class="cls-4" d="M326.4,265.06c.19-1.89-1-2.62-4.56-2.85a3.33,3.33,0,0,0-3.54,2.9c-.16,1.46,1.56,2.81,3.78,3C324.13,268.24,326.23,266.77,326.4,265.06Z"/><path class="cls-4" d="M310.52,264.23c-.36,1-1.23,2.35-.88,2.95.68,1.14,2.08,1.84,3.18,2.71,1.94-.56,3.38-.7,2.56-2.94-.21-.58.05-1.36-.2-1.9a8.89,8.89,0,0,0-1.88-2.86c-.19-.18-1.51.84-2.28,1.35A1.39,1.39,0,0,0,310.52,264.23Z"/><path class="cls-4" d="M283.63,243.26a4.41,4.41,0,0,0-2.5,2.42c-.45,1.48,1.67,3.37,3.36,3.4s3.5-1.31,3.47-2.56S284.84,242.82,283.63,243.26Z"/><path class="cls-4" d="M331.44,277.15c-1.23-.91-2.49-1.38-3.72-.34-.61.52-1.35,1.75-1.13,2.24.66,1.46,1.51,3,4.42,3.05a7.16,7.16,0,0,0,2.08-1.93C333.89,278.65,332.5,278,331.44,277.15Z"/><path class="cls-4" d="M349.64,268.06c.31-.39,1.12-1,1.29-1.76.29-1.31-1.45-2.94-2.81-2.91a1.6,1.6,0,0,0-1.78,1.89C346.42,267,347.26,267.92,349.64,268.06Z"/><path class="cls-4" d="M334.93,286.23c-.63,0-1.86,1.47-1.74,2.07.16.8,1.36,1.39,2.54,2.45,1-1.15,2.12-1.89,2.18-2.71C338.07,286,336.07,286.22,334.93,286.23Z"/><path class="cls-4" d="M412.11,330.29c-.91,1.35-1.94,2.4-1.76,2.7l4.34.61C414.3,332.57,413.33,331.77,412.11,330.29Z"/><path class="cls-4" d="M340.53,263.43c-1.33-.07-2.22.63-1.93,1.87.18.79,1.17,1.39,2.23,2.54,1-1.24,1.93-1.93,2-2.74C343.1,263.47,341.68,263.49,340.53,263.43Z"/><path class="cls-4" d="M319.68,271.23c-1.23,0-2.57.2-2.47,1.69.05.78,1.09,1.49,2.09,2.74,1.05-1.2,2-1.82,2.22-2.65C321.84,271.8,320.87,271.24,319.68,271.23Z"/><path class="cls-4" d="M344.46,272.73c1,.71,1.67,1.58,2.36,1.58s1.64-1.37,1.5-1.65a11.14,11.14,0,0,0-2.08-2.4Z"/><path class="cls-4" d="M295.92,259.88c-.45.82-1.31,1.68-1.23,2.44s1.11,1.47,1.88,1.75c.34.12,1.64-1,1.56-1.42a10.78,10.78,0,0,0-1.45-2.79Z"/><path class="cls-4" d="M314.14,274.38c-.64.68-1.67,1.3-1.78,2.06-.07.51,1.06,1.43,1.83,1.74.42.17,1.19-.56,2.18-1.08Z"/><path class="cls-4" d="M310.09,295.58a10.64,10.64,0,0,0-2,1.84,8.94,8.94,0,0,0,2.05,1.73c.23.1,1-1,1.79-1.81C311.09,296.53,310.28,295.48,310.09,295.58Z"/><path class="cls-4" d="M382.22,264a2.39,2.39,0,0,0,1.53,1.74c.5.12,1.25-.79,2.45-1.65-1.19-.93-1.86-1.85-2.53-1.84S382.21,263.4,382.22,264Z"/><path class="cls-4" d="M300.86,328.17c.55.43,1.09,1.21,1.65,1.22.73,0,1.47-.56,2.87-1.17-1.33-1.06-2.13-2.16-2.72-2.05S301.45,327.45,300.86,328.17Z"/><path class="cls-4" d="M283.93,296.53c.65.6,1.22,1.41,2,1.69.33.12,1.06-.88,1.87-1.6-.78-1-1.3-1.64-1.81-2.3Z"/><path class="cls-4" d="M395.05,307.59c0,.49,1.09,1.49,1.53,1.41a2.52,2.52,0,0,0,1.57-1.61c.11-.52-.67-1.22-1.43-2.46C395.85,306.23,395.07,306.9,395.05,307.59Z"/><path class="cls-4" d="M309.9,271.73c.14-.49-.54-1.2-1.16-2.39-.9,1.16-1.61,1.76-1.82,2.5-.08.3,1,1.33,1.41,1.28A2.28,2.28,0,0,0,309.9,271.73Z"/><path class="cls-4" d="M404.17,297.34c-.54,0-1.26,1-1.44,1.64-.08.34.88.94,1.72,1.77.67-.92,1.5-1.65,1.37-2C405.54,298.15,404.72,297.31,404.17,297.34Z"/><path class="cls-4" d="M376.38,293.38c-.71.27-1.23,1.07-1.83,1.65.57.41,1.11,1.09,1.7,1.14s1.15-.58,2.24-1.19C377.45,294.16,376.73,293.26,376.38,293.38Z"/><path class="cls-4" d="M269.57,276.65c-.06.44.78,1.36,1.3,1.43s1.35-.52,2-.83c0-.28,0-.56.05-.84-.64-.41-1.28-1.13-1.92-1.13A2,2,0,0,0,269.57,276.65Z"/><path class="cls-4" d="M357.88,280.09a6.29,6.29,0,0,0-1.95-1.16c-.48-.09-1.09.53-2.18,1.12,1.26.76,2,1.45,2.74,1.55C356.88,281.64,357.41,280.63,357.88,280.09Z"/><path class="cls-4" d="M352.91,300.76c-.51.08-.89.95-1.33,1.47.57.47,1.1,1.22,1.73,1.31.45.07,1-.74,2.15-1.64C354.18,301.29,353.49,300.67,352.91,300.76Z"/><path class="cls-4" d="M326.69,284.36c-.67.22-1.14,1-1.7,1.61.56.4,1.1,1.08,1.68,1.11s1.14-.63,2.23-1.3C327.8,285,327.09,284.22,326.69,284.36Z"/><path class="cls-4" d="M347.77,292.74c.54.53,1,1.26,1.66,1.52.31.11,1-.7,1.85-1.39-.91-.56-1.44-1.17-1.95-1.14S348.29,292.37,347.77,292.74Z"/><path class="cls-4" d="M342.94,295.71c-.55.13-.94.93-1.4,1.44.51.45,1,1.22,1.53,1.25s1.07-.7,2.17-1.5C344.07,296.26,343.42,295.6,342.94,295.71Z"/><path class="cls-4" d="M336.39,280c.51.58.93,1.4,1.57,1.64.37.14,1.09-.67,2.06-1.33-.9-.71-1.42-1.42-1.86-1.38C337.54,279,337,279.61,336.39,280Z"/><path class="cls-4" d="M316,289.05a2.13,2.13,0,0,0,1.46,1.41c.48,0,1.23-.82,1.42-1.42.12-.33-.65-1-1.31-1.83C316.81,288,315.92,288.63,316,289.05Z"/><path class="cls-4" d="M303.78,274.71c-1-.82-1.64-1.63-2.17-1.59s-1.13.84-1.7,1.31c.47.42.9,1.14,1.4,1.19S302.59,275.18,303.78,274.71Z"/><path class="cls-4" d="M349.27,281.79c0-.5-.77-.93-1.2-1.39-.44.44-1.18.84-1.25,1.34s.58,1,1.19,2C348.66,282.8,349.31,282.26,349.27,281.79Z"/><path class="cls-4" d="M335.61,294.92c-.61.07-1.15.75-1.72,1.17.45.43.85,1.12,1.36,1.23s1.11-.41,2.11-.84C336.53,295.7,336,294.88,335.61,294.92Z"/><path class="cls-4" d="M251.31,236.33c-.19.47.41,1.26.65,1.9l1.06-.52,1.56-1.36c-.51-.41-1-1.16-1.53-1.14A2.31,2.31,0,0,0,251.31,236.33Z"/><path class="cls-4" d="M360,316.62c.44.43.84,1.15,1.33,1.22s1.18-.44,2.22-.9c-.91-.71-1.43-1.44-1.94-1.43S360.58,316.22,360,316.62Z"/><path class="cls-4" d="M355.33,286.32c.1.56.67,1,1.28,1.86l1.62-1.92c-.55-.32-1.09-.88-1.65-.91S355.29,286.05,355.33,286.32Z"/><path class="cls-4" d="M262.15,258.22a5.08,5.08,0,0,0,1.68.89c.45,0,.95-.5,2-1.09-1.14-.52-1.74-1-2.28-1S262.6,257.8,262.15,258.22Z"/><path class="cls-4" d="M368.26,282.58c.48.35.95,1,1.42,1s1.12-.56,2.27-1.2c-1.14-.48-1.72-.95-2.18-.86S368.76,282.2,368.26,282.58Z"/><path class="cls-4" d="M274.74,319.86a5.18,5.18,0,0,0-1.65.93c.38.46.76.91,1.32,1.6.63-.67,1.08-1.14,1.52-1.62C275.53,320.45,275.09,319.81,274.74,319.86Z"/><path class="cls-2" d="M326.75,213.9a1.33,1.33,0,0,0-.09.21h0l.1-.21Z"/><path class="cls-13" d="M355.64,176.12l0,0,0,0Z"/><path class="cls-13" d="M336.07,210.37c1.67.68,3.26,1.34,4.82,2.06h0C339.33,211.71,337.74,211.05,336.07,210.37Z"/><path class="cls-14" d="M367.35,210h0a29.31,29.31,0,0,1-1.07,3.8l-17.95,33.83v0c-1.34,2.73-2.7,5.44-4.11,8.12a3.22,3.22,0,0,1-2.28,1.64c-.69,0-1.51-1.09-2-1.86a10.64,10.64,0,0,1-1.34-3.14c-.47-1.84-1.61-2.59-3.34-2.15a2.78,2.78,0,0,0-2.25,3.39c.07.42.37.86.29,1.24-.17.84-.27,1.94-.84,2.41a5.35,5.35,0,0,1-7.26-.68c-1.37-1.6-2.56-1.65-4.28-.59a4.52,4.52,0,0,1-6.09-1.56,2.86,2.86,0,0,1,.23-2.34c.46-.75,1.5-1.11,2.05-1.83a4.52,4.52,0,0,0,.95-2.4c0-.28-1.19-.77-1.88-.89-1.39-.24-2.57-.45-3.35-1.93a3.23,3.23,0,0,1,.12-3.54c2.71-5,5.22-10.17,7.77-15.29,2-4,4-8.08,5.93-12.12,3.75,1.54,11.11-3.12,14.23-1.68.57.27,1.15.5,1.72.71a15.76,15.76,0,0,0,5.15,1,12.25,12.25,0,0,0,1.71-.09,12.86,12.86,0,0,0,3.36-.89,14.92,14.92,0,0,0,1.66-.81c.66-.38,1.32-.73,2-1.06s1.33-.62,2-.87a16.23,16.23,0,0,1,2-.64c.34-.08.69-.16,1-.21s.71-.11,1.07-.14h.46a38.24,38.24,0,0,1,4.25.63Z"/><path class="cls-13" d="M358.48,210.38c-.68.25-1.34.55-2,.87C357.14,210.93,357.8,210.63,358.48,210.38Z"/><path class="cls-15" d="M358.48,210.38c-.68.25-1.34.55-2,.87C357.14,210.93,357.8,210.63,358.48,210.38Z"/><path class="cls-13" d="M347.76,214.1a15.71,15.71,0,0,1-5.15-1A15.76,15.76,0,0,0,347.76,214.1Z"/><path class="cls-16" d="M347.76,214.1a15.71,15.71,0,0,1-5.15-1A15.76,15.76,0,0,0,347.76,214.1Z"/><path class="cls-13" d="M340.89,212.43c.57.27,1.15.5,1.72.71C342,212.93,341.46,212.7,340.89,212.43Z"/><path class="cls-17" d="M340.89,212.43c.57.27,1.15.5,1.72.71C342,212.93,341.46,212.7,340.89,212.43Z"/><path class="cls-13" d="M360.53,209.74a16.23,16.23,0,0,0-2,.64A16.23,16.23,0,0,1,360.53,209.74Z"/><path class="cls-18" d="M360.53,209.74a16.23,16.23,0,0,0-2,.64A16.23,16.23,0,0,1,360.53,209.74Z"/><path class="cls-2" d="M367.35,210h0c.07,0,.07-.05,0-.15l0,.15Z"/><path class="cls-13" d="M366.82,200.73c-.19.27-.4.61-.64,1C366.42,201.34,366.63,201,366.82,200.73Z"/><path class="cls-13" d="M367.35,210a38.24,38.24,0,0,0-4.25-.63,38.24,38.24,0,0,1,4.25.63Z"/><path class="cls-13" d="M367.35,210h0l0-.15h0Z"/><path class="cls-19" d="M355.59,176.16h0l0,0Z"/><path class="cls-19" d="M355.1,177.4h0l0-.14Z"/><path class="cls-2" d="M340.89,212.43h0c.57.27,1.15.5,1.72.71a15.71,15.71,0,0,0,5.15,1,12.25,12.25,0,0,0,1.71-.09,12.86,12.86,0,0,0,3.36-.89,14.92,14.92,0,0,0,1.66-.81c.66-.38,1.32-.73,2-1.06s1.33-.62,2-.87a16.23,16.23,0,0,1,2-.64c.34-.08.69-.16,1-.21s.71-.11,1.07-.14h.46a38.24,38.24,0,0,1,4.25.63l0-.15a28.34,28.34,0,0,0,.53-9.25s0-.05,0-.08a35.41,35.41,0,0,0-2.73-10c-1.17-2.91.29-5.73,3.42-6.2a.55.55,0,0,0,.32-.17l.07,0,.78-1.28v0l-.2-1.11a1,1,0,0,1-.46-1.34l1-2.1a1,1,0,0,0-.46-1.34l-9.32-4.56a1,1,0,0,0-1.34.46l-1,2.1a1,1,0,0,1-1.34.46l-1,.68,0,0,0,0-.43,1.1,0,.14a.83.83,0,0,0,0,.43c1.47,2.86.8,4.93-2.15,6.07-2.07.79-4.21,1.41-6.21,2.34-3.93,1.83-7.86,4-9.92,7.92-2.38,4.54-8.13,15.11-10.12,19.73h0l-.1.21c3.75,1.54,11.11-3.12,14.23-1.68"/><circle id="미세플라스틱-182-2" data-name="미세플라스틱-182" class="cls-4" cx="148.01" cy="119.12" r="1.5"/><circle id="미세플라스틱-182-3" data-name="미세플라스틱-182" class="cls-4" cx="139.51" cy="100.09" r="1.5"/><circle id="미세플라스틱-182-4" data-name="미세플라스틱-182" class="cls-4" cx="114.54" cy="83.31" r="1.5"/><circle id="미세플라스틱-182-5" data-name="미세플라스틱-182" class="cls-4" cx="116.51" cy="91.7" r="1.5"/><circle id="미세플라스틱-182-6" data-name="미세플라스틱-182" class="cls-4" cx="70.27" cy="126.01" r="1.5"/><circle id="미세플라스틱-182-7" data-name="미세플라스틱-182" class="cls-4" cx="63.1" cy="134.25" r="1.5"/><circle id="미세플라스틱-182-8" data-name="미세플라스틱-182" class="cls-4" cx="52.85" cy="129.97" r="1.5"/><circle id="미세플라스틱-182-9" data-name="미세플라스틱-182" class="cls-4" cx="51.02" cy="144.96" r="1.5"/><circle id="미세플라스틱-182-10" data-name="미세플라스틱-182" class="cls-4" cx="68.3" cy="147.71" r="1.5"/><circle id="미세플라스틱-182-11" data-name="미세플라스틱-182" class="cls-4" cx="140.42" cy="126.37" r="1.5"/><circle id="미세플라스틱-182-12" data-name="미세플라스틱-182" class="cls-4" cx="139.29" cy="114.82" r="1.5"/><circle id="미세플라스틱-182-13" data-name="미세플라스틱-182" class="cls-4" cx="146.76" cy="105.98" r="1.5"/><circle id="미세플라스틱-182-14" data-name="미세플라스틱-182" class="cls-4" cx="198.16" cy="166.71" r="1.5"/><circle id="미세플라스틱-182-15" data-name="미세플라스틱-182" class="cls-4" cx="204.56" cy="178.84" r="1.5"/><circle id="미세플라스틱-182-16" data-name="미세플라스틱-182" class="cls-4" cx="201.02" cy="195.75" r="1.5"/><circle id="미세플라스틱-182-17" data-name="미세플라스틱-182" class="cls-4" cx="202.03" cy="226.87" r="1.5"/><circle id="미세플라스틱-182-18" data-name="미세플라스틱-182" class="cls-4" cx="212.29" cy="220.72" r="1.5"/><circle id="미세플라스틱-182-19" data-name="미세플라스틱-182" class="cls-4" cx="212.29" cy="232.85" r="1.5"/><circle id="미세플라스틱-182-20" data-name="미세플라스틱-182" class="cls-4" cx="205.28" cy="244.14" r="1.5"/><circle id="미세플라스틱-182-21" data-name="미세플라스틱-182" class="cls-4" cx="214.34" cy="244.14" r="1.5"/><circle id="미세플라스틱-182-22" data-name="미세플라스틱-182" class="cls-4" cx="219.96" cy="236.31" r="1.5"/><circle id="미세플라스틱-182-23" data-name="미세플라스틱-182" class="cls-4" cx="219.96" cy="252.33" r="1.5"/><circle id="미세플라스틱-182-24" data-name="미세플라스틱-182" class="cls-4" cx="218" cy="256.6" r="1.5"/><circle id="미세플라스틱-182-25" data-name="미세플라스틱-182" class="cls-4" cx="210.71" cy="252.33" r="1.5"/><circle id="미세플라스틱-182-26" data-name="미세플라스틱-182" class="cls-4" cx="210.71" cy="263.19" r="1.5"/><circle id="미세플라스틱-182-27" data-name="미세플라스틱-182" class="cls-4" cx="210.68" cy="189.79" r="1.5"/><circle id="미세플라스틱-182-28" data-name="미세플라스틱-182" class="cls-4" cx="166.91" cy="167.17" r="1.5"/><circle id="미세플라스틱-182-29" data-name="미세플라스틱-182" class="cls-4" cx="154.37" cy="165.39" r="1.5"/><circle id="미세플라스틱-182-30" data-name="미세플라스틱-182" class="cls-4" cx="140.68" cy="173.22" r="1.5"/><circle id="미세플라스틱-182-31" data-name="미세플라스틱-182" class="cls-4" cx="125.3" cy="165.75" r="1.5"/><circle id="미세플라스틱-182-32" data-name="미세플라스틱-182" class="cls-4" cx="107.89" cy="166.98" r="1.5"/><circle id="미세플라스틱-182-33" data-name="미세플라스틱-182" class="cls-4" cx="80.75" cy="172.05" r="1.5"/><circle id="미세플라스틱-182-34" data-name="미세플라스틱-182" class="cls-4" cx="96.93" cy="173.7" r="1.5"/><path class="cls-20" d="M1232.45,273.08c.27-3.84-5.15-29.15-8.59-38.61a165.55,165.55,0,0,0-8.06-17.84c-1.46-7.34-3.9-18.77-7.54-33-2.38-9.32-5.81-22.74-11.63-25.71a14.63,14.63,0,0,0-5.82-1.66c-6.94-3.57-17.45-4.16-23.33-8.33l-.26-.13-.27-12.75c3.11-3,5-7.54,6.08-12.43,1.92-1.39,3.31-5,3.18-7.47a4.62,4.62,0,0,0-2.12-3.44c-.4-11.7-7.67-19-16.66-19s-16.32,7.34-16.65,19a4.17,4.17,0,0,0-2.12,3.44c-.13,2.38,1.26,6,3.18,7.47,1.05,5,3,9.52,6.21,12.56l-.27,12.36-.59.39c-5.88,4.17-16.46,4.76-23.4,8.33a16.24,16.24,0,0,0-5.55,1.59c-5.82,3-9.25,16.39-11.63,25.71-3.64,14.21-6.08,25.65-7.54,33a165.7,165.7,0,0,0-8.06,17.85c-3.44,9.45-8.93,34.77-8.59,38.6-.27,5.49-1.26,21.15,0,26,.79,3.11,5.08,4.43,6.6,4.43s.53-15.8,3.18-17.78,4,12.16,5.75,9.45c2.11-3.44-2-17.12-4.76-23.93a25.67,25.67,0,0,1,3-8.19c5.75-10.71,11.83-24.85,12.89-29.08.66-2.45,1.19-5.42,1.72-8.53,4.23-8.92,7.86-15.4,13-31.13,1.65,9.45,3.5,19.56,5,28.75a75.33,75.33,0,0,1,.4,17.19,23.7,23.7,0,0,0-1.46,3.83c-5.55,19.43-6.54,33.44-4.69,55.85,1.59,19,3.7,36.82,5.29,48.45-1.32,4.1-2.78,9.72-3.64,19.89-1.25,14.48,3,41.64,3.37,56.19a5.6,5.6,0,0,0-.13,1c-.26,17-5.88,19.1-5.75,24.06.13,4.56,6.15,5.55,10.18,6.08a8.69,8.69,0,0,0,9.25-5.22c1.39-4.23,1-9.65.14-19a40.08,40.08,0,0,0-1-5.56c.2-12.75,3.18-33.57,4.17-46.86a139.49,139.49,0,0,0-1-28.29c1.72-11,6-37.08,7-50.76.47-6,.93-11.37,1.26-16.39a35.33,35.33,0,0,0,10.57,0c.34,5.09.8,10.44,1.26,16.39,1.06,13.75,5.29,39.79,7,50.76a138.76,138.76,0,0,0-1,28.29c1,13.35,4,34.17,4.16,46.86a25.6,25.6,0,0,0-1,5.56c-.86,9.32-1.32,14.74.13,19a8.78,8.78,0,0,0,9.25,5.22c4-.53,10.12-1.52,10.18-6.08.13-5-5.48-7.14-5.75-24.06a4.8,4.8,0,0,0-.13-1c.26-14.55,4.56-41.71,3.37-56.19a87.51,87.51,0,0,0-3.63-19.89c1.58-11.63,3.7-29.48,5.28-48.45,1.85-22.41.8-36.42-4.69-55.85a20.22,20.22,0,0,0-1.72-4.3A79,79,0,0,1,1186,223c1.52-9.39,3.44-19.63,5.09-29.21,5.29,16.12,8.92,22.6,13.22,31.66.53,3.1,1,6.08,1.72,8.52,1.12,4.23,7.13,18.38,12.88,29.08a26.69,26.69,0,0,1,3,8.2c-2.71,6.87-6.88,20.49-4.76,23.93,1.71,2.77,3.1-11.37,5.75-9.45s1.65,17.78,3.17,17.78,5.82-1.33,6.61-4.43C1233.71,294.23,1232.72,278.56,1232.45,273.08Z"/><g id="미세_플라스틱_그룹-6-2" data-name="미세 플라스틱 그룹-6"><circle id="미세플라스틱-177-2" data-name="미세플라스틱-177" class="cls-4" cx="1151.49" cy="212.46" r="2.51"/><circle id="미세플라스틱-178-2" data-name="미세플라스틱-178" class="cls-4" cx="1154.46" cy="207.77" r="2.51"/><circle id="미세플라스틱-179-2" data-name="미세플라스틱-179" class="cls-4" cx="1149.64" cy="203.15" r="2.51"/><circle id="미세플라스틱-180-2" data-name="미세플라스틱-180" class="cls-4" cx="1152.54" cy="201.29" r="2.51"/><circle id="미세플라스틱-181-2" data-name="미세플라스틱-181" class="cls-4" cx="1156.97" cy="213.79" r="2.51"/><circle id="미세플라스틱-182-35" data-name="미세플라스틱-182" class="cls-4" cx="1147.39" cy="209.36" r="2.51"/><circle id="미세플라스틱-183-2" data-name="미세플라스틱-183" class="cls-4" cx="1144.88" cy="205.86" r="2.51"/><circle id="미세플라스틱-184-2" data-name="미세플라스틱-184" class="cls-4" cx="1160.28" cy="209.36" r="2.51"/><circle id="미세플라스틱-185-2" data-name="미세플라스틱-185" class="cls-4" cx="1156.25" cy="203.15" r="2.51"/><circle id="미세플라스틱-186-2" data-name="미세플라스틱-186" class="cls-4" cx="1159.75" cy="201.29" r="2.51"/><circle id="미세플라스틱-187-2" data-name="미세플라스틱-187" class="cls-4" cx="1164.11" cy="212.73" r="2.51"/><circle id="미세플라스틱-188-2" data-name="미세플라스틱-188" class="cls-4" cx="1166.69" cy="207.77" r="2.51"/><circle id="미세플라스틱-189-2" data-name="미세플라스틱-189" class="cls-4" cx="1171.38" cy="212.46" r="2.51"/><circle id="미세플라스틱-190-2" data-name="미세플라스틱-190" class="cls-4" cx="1162.79" cy="204.86" r="2.51"/><circle id="미세플라스틱-191-2" data-name="미세플라스틱-191" class="cls-4" cx="1167.55" cy="222.11" r="2.51"/><circle id="미세플라스틱-192-2" data-name="미세플라스틱-192" class="cls-4" cx="1171.38" cy="218.74" r="2.51"/><circle id="미세플라스틱-193-2" data-name="미세플라스틱-193" class="cls-4" cx="1165.9" cy="228.33" r="2.51"/><circle id="미세플라스틱-194-2" data-name="미세플라스틱-194" class="cls-4" cx="1162.79" cy="231.43" r="2.51"/><circle id="미세플라스틱-195-2" data-name="미세플라스틱-195" class="cls-4" cx="1171.38" cy="225.88" r="2.51"/><circle id="미세플라스틱-196-2" data-name="미세플라스틱-196" class="cls-4" cx="1162.79" cy="218.22" r="2.51"/><circle id="미세플라스틱-197-2" data-name="미세플라스틱-197" class="cls-4" cx="1167.55" cy="216.3" r="2.51"/><circle id="미세플라스틱-198-2" data-name="미세플라스틱-198" class="cls-4" cx="1160.87" cy="225.16" r="2.51"/><circle id="미세플라스틱-199-2" data-name="미세플라스틱-199" class="cls-4" cx="1158.23" cy="230.31" r="2.51"/><circle id="미세플라스틱-200-2" data-name="미세플라스틱-200" class="cls-4" cx="1150.89" cy="230.31" r="2.51"/><circle id="미세플라스틱-201-2" data-name="미세플라스틱-201" class="cls-4" cx="1154.92" cy="232.36" r="2.51"/><circle id="미세플라스틱-202-2" data-name="미세플라스틱-202" class="cls-4" cx="1158.43" cy="220.46" r="2.51"/><circle id="미세플라스틱-203-2" data-name="미세플라스틱-203" class="cls-4" cx="1154.46" cy="225.88" r="2.51"/><circle id="미세플라스틱-204-2" data-name="미세플라스틱-204" class="cls-4" cx="1147.12" cy="225.88" r="2.51"/><circle id="미세플라스틱-205-2" data-name="미세플라스틱-205" class="cls-4" cx="1144.35" cy="223.37" r="2.51"/><circle id="미세플라스틱-206-2" data-name="미세플라스틱-206" class="cls-4" cx="1154" cy="218.22" r="2.51"/><circle id="미세플라스틱-207-2" data-name="미세플라스틱-207" class="cls-4" cx="1150.89" cy="221.39" r="2.51"/><circle id="미세플라스틱-208-2" data-name="미세플라스틱-208" class="cls-4" cx="1143.75" cy="219.67" r="2.51"/><circle id="미세플라스틱-209-2" data-name="미세플라스틱-209" class="cls-4" cx="1148.38" cy="216.3" r="2.51"/><circle id="미세플라스틱-210-2" data-name="미세플라스틱-210" class="cls-4" cx="1143.22" cy="212.73" r="2.51"/><circle id="미세플라스틱-211-2" data-name="미세플라스틱-211" class="cls-4" cx="1144.88" cy="214.51" r="2.51"/></g><path class="cls-11" d="M41.39,101.19H76.71a0,0,0,0,1,0,0v16.07a2,2,0,0,1-2,2H43.39a2,2,0,0,1-2-2V101.19a0,0,0,0,1,0,0Z" transform="translate(118.1 220.45) rotate(-180)"/></g></g></svg>