<svg xmlns="http://www.w3.org/2000/svg" xmlns:xlink="http://www.w3.org/1999/xlink" viewBox="0 0 1232.59 370.61"><defs><style>.cls-1,.cls-2,.cls-5,.cls-8{fill:#00cee5;}.cls-1,.cls-18,.cls-6,.cls-8,.cls-9{isolation:isolate;}.cls-3{fill:#ff5400;}.cls-4{fill:#fff;opacity:0.13;}.cls-19,.cls-5,.cls-7,.cls-8,.cls-9{stroke:#00cee5;stroke-miterlimit:10;}.cls-10,.cls-19,.cls-7,.cls-9{fill:none;}.cls-7,.cls-8,.cls-9{stroke-width:3px;}.cls-11{fill:#d9d9d9;}.cls-12{fill:url(#linear-gradient);}.cls-13{fill:url(#linear-gradient-2);}.cls-14{fill:url(#linear-gradient-3);}.cls-15{fill:url(#linear-gradient-4);}.cls-16{fill:url(#linear-gradient-5);}.cls-17{fill:#00cbe2;}.cls-18{fill:#00cde4;}.cls-19{stroke-width:3.06px;}</style><linearGradient id="linear-gradient" x1="350.58" y1="147.77" x2="323.31" y2="189.66" gradientUnits="userSpaceOnUse"><stop offset="0" stop-color="#fff"/><stop offset="1" stop-color="#ff5400"/></linearGradient><linearGradient id="linear-gradient-2" x1="355.03" y1="150.66" x2="327.76" y2="192.55" xlink:href="#linear-gradient"/><linearGradient id="linear-gradient-3" x1="347.68" y1="145.88" x2="320.41" y2="187.77" xlink:href="#linear-gradient"/><linearGradient id="linear-gradient-4" x1="344.88" y1="144.06" x2="317.61" y2="185.95" xlink:href="#linear-gradient"/><linearGradient id="linear-gradient-5" x1="356.1" y1="151.36" x2="328.83" y2="193.25" xlink:href="#linear-gradient"/></defs><title>diagram2</title><g id="Layer_2" data-name="Layer 2"><g id="Layer_1-2" data-name="Layer 1"><path class="cls-1" d="M955,193.9s-1.72-6.28-6.67-10a27,27,0,0,0-10-4.89,60.39,60.39,0,0,0,10-6.75,18.52,18.52,0,0,0,6.35-10.51,30.75,30.75,0,0,0-14,4.23c-4.1,2.45-6.75,4.3-9.59,5.36a17.23,17.23,0,0,1-6.87.92,21,21,0,0,1-8-2.18,28.29,28.29,0,0,0,13.29-9.52s-4.9-4-19.24-4a74.59,74.59,0,0,0-16.19,1.65,49.8,49.8,0,0,0-19.3-3.7c-2,0-4,.14-6,.33a67.74,67.74,0,0,0-17.91,4.7c-11.1,4.62-19.63,11.5-22.67,16.45-.73,1.26.59,2.25.59,3.18s-1.45,2.05-.79,3c2.32,3.44,8.73,7,18,9.85,2.45.73,5.16,1.45,8,2.05a63.15,63.15,0,0,0,11.1,9.78c6.94,4.5,17.19,4.69,17.19,4.69A75.94,75.94,0,0,0,874,196.75l3.84.19a66.93,66.93,0,0,0,18.51-1.38,34.1,34.1,0,0,0,14.54,2.37c10.77-.79,16.26-4.23,16.26-4.23s-2.65-2.9-12.1-6.08c2.84-1.65,5.22-2.77,7.6-2.77a21.31,21.31,0,0,1,9.06,2.11c3,1.32,5.81,3.18,10,4.83C949.4,195,955,193.9,955,193.9ZM842.26,179.56a3.64,3.64,0,1,1,3.63-3.64h0A3.62,3.62,0,0,1,842.26,179.56Z"/><path id="플랑크톤1" class="cls-2" d="M460.35,184.58l-4.82-5s-2.38-.6-1.85.72,4.23,5.22,4.23,5.22l-.13.73-4.7-1.72s-3,.27-.72,1.72a29.76,29.76,0,0,0,5.22,2.65l-.53,1.25-4.36,2.51s-1.85,1.13.52,1a10.86,10.86,0,0,0,4.7-1.71l.39,1.12-4.23,4.36s-2,2.65,1.13.73a21.12,21.12,0,0,0,5.22-4.5l.92,7.47s-.39,1.13.73.73.86-2.84.86-2.84V194.7l4.43,4.82s1.85,1.85.73-1.12a32.28,32.28,0,0,0-2.52-5.36l5.62,2.12s1.72.26,0-1.65a34.07,34.07,0,0,0-5.62-2.85l-.13-1.38,6.48-2.65s.73-1.72-1.26-1.39-4.75,1.13-4.75,1.13l2.84-4.5s.26-1.71-1-.86c-1.39,1.19-2.71,2.52-4,3.84l-1.26-.86v-4.63s-1.45-1.25-1.71,0S460.35,184.58,460.35,184.58Z"/><path id="플랑크톤1-2" class="cls-2" d="M512,202.63,509.46,200s-1.25-.33-1,.4a16.74,16.74,0,0,0,2.25,2.78l-.07.39-2.51-.92s-1.59.13-.4.92a15.36,15.36,0,0,0,2.78,1.39l-.26.66-2.32,1.32s-1,.6.27.53a5.48,5.48,0,0,0,2.51-.92l.2.59-2.25,2.32s-1.06,1.38.59.39a11.8,11.8,0,0,0,2.78-2.38l.46,4s-.2.6.4.4.46-1.52.46-1.52v-2.31l2.38,2.58s1,1,.4-.6a22.21,22.21,0,0,0-1.32-2.84l3,1.12s.93.13,0-.86a18.49,18.49,0,0,0-3-1.52l-.07-.72,3.5-1.39s.4-.93-.66-.73-2.51.6-2.51.6l1.52-2.38s.13-.93-.53-.47c-.72.66-1.45,1.33-2.11,2l-.66-.46v-2.51s-.8-.66-.93,0S512,202.63,512,202.63Z"/><path id="플랑크톤2" class="cls-2" d="M489,208.51s-3.57-1.78-5-1.52a3.62,3.62,0,0,0-3.11,2.18c-.66,1.46-1.19,5.75-1.65,6.68a26.9,26.9,0,0,1-1.39,3.1c-.46.6-.86,1.52-.6,1.85s1.79-1.71,1.79-1.71a18.11,18.11,0,0,0,1.19-2.52c.2-.79.59-2.18.86-3a24.37,24.37,0,0,1,1-3.3c.33-.53-.07-1.32,1.32-1.39a6.79,6.79,0,0,1,3.24.66,13.5,13.5,0,0,0,2.31.6v1.65a16.52,16.52,0,0,0-3.37,1.85c-.92.86-2.51,5.09-2.51,5.09a5.06,5.06,0,0,0-.4,2.11c.2.6.93,0,.93,0l1.39-3.3s1.72-2.64,1.91-2.84,1.59-1.32,1.59-1.32l.07,1.85s-1.66,2.44-2.12,3.3a15,15,0,0,0-.92,3.77c.06.2.46,1.12.46,1.12a7.83,7.83,0,0,0,1.19-2.38c0-.66.26-2.24.66-2.51a6,6,0,0,1,1.12-.59l.27,2,.72,2s1.52,2.45,2.19,3.44a8.49,8.49,0,0,1,.85,3.3v5.69s1.19-.93,1.19-1.13.86-2.51.86-2.51l1-.06c.39.46.85.92,1.32,1.38.2.07,1.39.2,1.52-.06a16.26,16.26,0,0,0,.46-1.72,25.54,25.54,0,0,1-2-2.25l-.86-1.45.2-5.22-.73-5.49.46-1.06a16.08,16.08,0,0,1,1.19,2c.6,1,1.32,3.63,1.72,3.9a3.26,3.26,0,0,1,.93,1v-2.38a6.08,6.08,0,0,1-1-2.12,7.77,7.77,0,0,0-1.71-3,6,6,0,0,0-1.79-.92l-.92-.66v-.93a6,6,0,0,1,1.85.07,14.73,14.73,0,0,0,2.64,1.85,8.67,8.67,0,0,1,2.58,2.31c.53.66.79,1.06.79,1.06v-2a8.5,8.5,0,0,0-1.19-1.85,17.49,17.49,0,0,0-2.64-2.32,19.63,19.63,0,0,0-2.18-.46,13.84,13.84,0,0,0-2.32-.07c-.59,0-.66-.86-.66-.86v-1.38a13.19,13.19,0,0,0,1.52-1.13c.86-.73,1.06-1.45,2.45-1.32a3.43,3.43,0,0,1,2.44,1.78c.33.6,2.38,2.85,2.58,3.38a10.67,10.67,0,0,0,1.85,2.31,6.06,6.06,0,0,0,1.92,1,8.3,8.3,0,0,0,1.78-.2,1.71,1.71,0,0,0-1.19-1.39,8,8,0,0,1-2.51-1.19c-.2-.19-2.44-3-2.71-3.3s-2.11-2.84-2.44-3.24a2.66,2.66,0,0,0-1.72-.53,6.15,6.15,0,0,0-2.78,1.39c-.59.66-1.32,1.92-2.11,2.25a12.21,12.21,0,0,1-2.65.53A5.94,5.94,0,0,1,489,208.51Z"/><path id="플랑크톤3" class="cls-2" d="M490.43,184.78s-3.31,1.79-4.1,2.78a10.22,10.22,0,0,0-1.39,3.37,21.24,21.24,0,0,0,2.25,4.16c.2.07,5,0,5,0s.19,1.13.66,1a3.64,3.64,0,0,0,1.45-1.19c.07-.19,1-.59,1-.59a3.86,3.86,0,0,1-.46,1.39,14.11,14.11,0,0,0-.93,2.31h1.39s.6-1.65.8-2a2.78,2.78,0,0,1,1.05-.73v1.19c0,.46-.92,1.65-1,1.85a5.26,5.26,0,0,0-.2,1.46c.07.19.66.26.93,0a10.05,10.05,0,0,0,1-1.86,1.08,1.08,0,0,1,1-.66c.46.07,0,1.06,0,1.46s-.79,1.45-.86,1.72-.33,2-.06,1.45a22.19,22.19,0,0,1,1.52-2.11s.86-.53.79.33a14.93,14.93,0,0,0,0,3.5,22.67,22.67,0,0,0,1.65,2.38c.2.06,1.13,1.32,1.46,1.12s.92-.2.86-.86-.34-.79-1.06-1.65A3.13,3.13,0,0,1,502,202.3c-.06-1.19-.06-2.58-.13-4.17a35.23,35.23,0,0,0-.2-3.83,7,7,0,0,0-1.45-4c-.79-.79-1.32-2.24-2.51-3a10,10,0,0,0-3.11-1.72,15.5,15.5,0,0,0-2.51-.52A4.5,4.5,0,0,1,490.43,184.78Z"/><path id="플랑크톤3-2" class="cls-2" d="M524.27,170.5a15.21,15.21,0,0,0-3-.52,4.76,4.76,0,0,0-2.05.92,19.22,19.22,0,0,0-.79,2.84c.06.14,2.24,2.12,2.24,2.12s-.39.59-.13.73a2.41,2.41,0,0,0,1.19.06c.13-.06.73.2.73.2a1.56,1.56,0,0,1-.8.4,12.36,12.36,0,0,0-1.38.66l.59.59s1-.53,1.19-.59a3,3,0,0,1,.79.13l-.52.53c-.2.2-1.13.33-1.26.4a3.22,3.22,0,0,0-.73.52c-.06.14.2.4.4.4a4,4,0,0,0,1.25-.4.61.61,0,0,1,.73.14c.13.19-.46.46-.59.66s-1,.33-1.13.39-1,.73-.66.66l1.59-.33s.59.14.2.53a8.48,8.48,0,0,0-1.52,1.59,15.62,15.62,0,0,0-.27,1.78c.07.14,0,1.06.13,1.13s.53.33.8,0,.2-.53.2-1.19a2.06,2.06,0,0,1,.46-1.52c.46-.53,1.06-1.19,1.72-1.92s1-1.19,1.52-1.78a4.69,4.69,0,0,0,1.06-2.38,9.64,9.64,0,0,0,.19-2.45,7.73,7.73,0,0,0-.66-2.11,9,9,0,0,0-.92-1.33A2.47,2.47,0,0,1,524.27,170.5Z"/><circle id="미세플라스틱" class="cls-3" cx="512.37" cy="205.34" r="0.93"/><path id="미세_플라스틱2" data-name="미세 플라스틱2" class="cls-4" d="M460.42,165c-.86,1.19-.33.93-1.39,2.05s-1.45,1.46-1.45,1.92-.07.86.72.86.93-.66,1.46,0,.13.86.92.92a2,2,0,0,0,1.39-.33,8.09,8.09,0,0,0,1.06-1.05c.2-.4.73-.4,0-1.53s-1.59-2.31-1.59-2.31Z"/><path id="미세_플라스틱2-2" data-name="미세 플라스틱2-2" class="cls-4" d="M444.75,216.09c-1,0-.59.19-1.58.13s-1.32-.2-1.59,0-.46.33-.13.72.73.2.59.8-.39.39-.13.86a1.64,1.64,0,0,0,.73.59,4.83,4.83,0,0,0,.92.13c.33-.06.47.2.8-.59A17.31,17.31,0,0,0,445,217Z"/><path id="미세_플라스틱2-3" data-name="미세 플라스틱2-3" class="cls-4" d="M511.64,188.42a10.31,10.31,0,0,1-1.45.72c-.93.33-1.32.33-1.45.6s-.33.46.13.73.72-.07.79.46-.2.53.2.79a1.43,1.43,0,0,0,.86.27,4,4,0,0,0,.92-.27c.27-.13.53,0,.47-.86s-.14-1.78-.14-1.78Z"/><path id="미세_플라스틱3" data-name="미세 플라스틱3" class="cls-4" d="M480.05,197.27c-1,.53-2.38.47-2.84,1.46s-.53,1.85-.73,2.18-1.39,1.45-1.45,1.78-2.45,1.66-.73,1.52a21.59,21.59,0,0,0,4.63-1c.92-.2,3.1-.33,3.3-1a8.13,8.13,0,0,0,.53-3.17c-.26-.86-.53-1.72-.86-2.58Z"/><path id="미세_플라스틱3-2" data-name="미세 플라스틱3-2" class="cls-4" d="M504.44,167.46c-.73.4-1.79.33-2.12,1.06s-.39,1.39-.52,1.65-1.06,1.06-1.06,1.33-1.85,1.19-.53,1.12a15,15,0,0,0,3.44-.73c.66-.2,2.31-.26,2.44-.72a6.7,6.7,0,0,0,.4-2.32c-.2-.66-.4-1.25-.66-1.91Z"/><path id="미세_플라스틱_4" data-name="미세 플라스틱 4" class="cls-4" d="M474.43,172a37.6,37.6,0,0,0-.33-4.89l-6.61-8.53a3.92,3.92,0,0,1,2-1.72c1.26-.39,8.66-3.63,9.39-4s7.27-4,7.27-4a3.15,3.15,0,0,0,1.19,2.57,14.55,14.55,0,0,0,4.76,2.85c.79.19,3.77.59,4.69,1.12s4.3,2.44,4.63,3-1.92,2-1.92,2l-10.9,6.74-9.32,5.62Z"/><path id="플라스틱" class="cls-4" d="M528.23,157.88c-1.05-.33-1.65-.92-2.11,0s-.4,1.59-1.19,2.12a8.12,8.12,0,0,0-1.59,1.45,2.24,2.24,0,0,0-.53,1.92c.2.66-.52,2,1.06,1.45s1.65-1.26,2.71-.92,1.92,1.32,2.45,1,2.18-.86,2.18-.86a4.49,4.49,0,0,0,1.58-1.19c.4-.66-.52-1.25.93-1.05s2.12.53,3.24.72,1.92.73,2.11-.19a7.9,7.9,0,0,0,.53-2.65c-.13-.86-.33-3.57-.66-4s-.2-1.19-1.19-1.06a14.14,14.14,0,0,0-3.9,1.39c-.86.39-3.24,1.65-3.24,1.65Z"/><line class="cls-5" x1="549.05" y1="182.6" x2="591.89" y2="182.6"/><polygon class="cls-5" points="590.96 185.91 596.64 182.6 590.96 179.3 590.96 185.91"/><line class="cls-5" x1="739.41" y1="182.6" x2="782.24" y2="182.6"/><polygon class="cls-5" points="781.32 185.91 787 182.6 781.32 179.3 781.32 185.91"/><g class="cls-6"><line class="cls-5" x1="987.94" y1="182.6" x2="1030.77" y2="182.6"/><polygon class="cls-5" points="1029.84 185.91 1035.53 182.6 1029.84 179.3 1029.84 185.91"/></g><g class="cls-6"><path class="cls-2" d="M639.21,185.71a11.72,11.72,0,0,1,8.46,5.55c.4.66.73,1.26,1.12,1.78a21.44,21.44,0,0,0,4.9,5.89,7,7,0,0,0,3.56,1.38c.6.07,1.19.14,1.79.27a31.62,31.62,0,0,1,5.55,1.72,22.46,22.46,0,0,1,5,2.77,8.43,8.43,0,0,0,1.72,1,36.91,36.91,0,0,0,6.08,2.32c1.65.53,2.91.79,3.1.86-2.31-.8-4.09-8-1.52-13a21.07,21.07,0,0,0,1.92-8.27,7.65,7.65,0,0,1,3.83,2.71,5.2,5.2,0,0,0,5.42,2.45s-2.84-2.12-3.17-7S694.4,178,694.4,178s-6.61-.53-11.3,1.85a6.13,6.13,0,0,1-3,.79,11.74,11.74,0,0,0-1.13-2.64c-.52-.86-1.19-1.72-1.85-2.71-2.51-3.77-5-8.53-1.78-13.48.07-.07.07-.14.13-.2,3.57-5.16,29.68-7.14,29.68-7.14,3.44-1.59-5.29-1-5.29-1a151.63,151.63,0,0,0-26,5c-2.31.73-4.42,1.46-6.34,2.25-1.26.53-2.38,1-3.5,1.52q-2.28,1.09-4.56,2.38a36,36,0,0,0-4.23,2.91,25.78,25.78,0,0,0-4.63,4.76,16.86,16.86,0,0,0-2.18,3.83c-3,6.74-7.6,5.62-9.19,6.61S639.21,185.71,639.21,185.71Z"/><path class="cls-2" d="M648.79,193a21.44,21.44,0,0,0,4.9,5.89,42.26,42.26,0,0,1,.39-10.84c.73-4.63,2-9.19,2-13.88a24.56,24.56,0,0,0-.86-6.55,26.76,26.76,0,0,0-4.63,4.76,32.86,32.86,0,0,1-.39,10.18C649.79,186.1,649.06,189.54,648.79,193Z"/><path class="cls-2" d="M659,200.64a32.49,32.49,0,0,1,5.55,1.72,50.36,50.36,0,0,1-.2-5.35,81.24,81.24,0,0,1,.73-8.92,83.31,83.31,0,0,0,1-9.92,55.54,55.54,0,0,0-2.05-15.86q-2.28,1.09-4.56,2.38a33.28,33.28,0,0,1,.86,4.49,77,77,0,0,1-.33,14.08C659.5,189.08,658.77,194.89,659,200.64Z"/><path class="cls-2" d="M670.14,182.6c-.33,7.93-1.52,16.13,1.13,23.6a36.88,36.88,0,0,0,6.08,2.31l-.2-1a68.21,68.21,0,0,1-1.26-15.07c.2-5.69,1.06-11.3,1.19-17-2.51-3.77-5-8.52-1.78-13.48a28.2,28.2,0,0,0-1.39-3.24c-2.31.73-4.43,1.45-6.34,2.25A62.23,62.23,0,0,1,670.14,182.6Z"/><path class="cls-2" d="M648,192.25a21.54,21.54,0,0,0,4.89,5.88,42.28,42.28,0,0,1,.4-10.84c.73-4.62,2.05-9.18,2.05-13.88a24.9,24.9,0,0,0-.86-6.54,26.09,26.09,0,0,0-4.63,4.76,32.86,32.86,0,0,1-.39,10.18C648.93,185.31,648.27,188.75,648,192.25Z"/><path class="cls-2" d="M658.25,199.79a32.12,32.12,0,0,1,5.55,1.71,47.84,47.84,0,0,1-.2-5.35,81.24,81.24,0,0,1,.73-8.92,83.31,83.31,0,0,0,1-9.92,56.3,56.3,0,0,0-2.05-15.86q-2.28,1.1-4.56,2.38a33.28,33.28,0,0,1,.86,4.49,78,78,0,0,1-.33,14.08C658.71,188.28,658,194.1,658.25,199.79Z"/><path class="cls-2" d="M669.35,181.81c-.33,7.93-1.52,16.12,1.12,23.59a37.61,37.61,0,0,0,6.08,2.32l-.19-1a67.61,67.61,0,0,1-1.26-15.07c.2-5.69,1.06-11.31,1.19-17-2.51-3.77-5-8.53-1.78-13.48a27.46,27.46,0,0,0-1.39-3.24c-2.32.72-4.43,1.45-6.35,2.24C669,167,669.61,174.47,669.35,181.81Z"/><circle class="cls-2" cx="652.23" cy="177.51" r="1.72"/><path class="cls-2" d="M664,173.48c.59-.33,1.52-.53,1.78.13a.74.74,0,0,1-.07.66,10.4,10.4,0,0,1-2.31,3.37,4,4,0,0,0-1,3.84,9.78,9.78,0,0,0,1,1.58,1.77,1.77,0,0,1,.13,1.72c-.26.46-.86.6-1.25.93a3.1,3.1,0,0,0-1.06,2.51c0,.92.2,1.92.26,2.84,0,.6-.19,1.32-.79,1.26a1,1,0,0,1-.59-.4,13.5,13.5,0,0,1-3.24-10.64C657.52,178,661.22,175,664,173.48Z"/><path class="cls-2" d="M665.25,173.48c.6-.33,1.52-.53,1.79.13a.81.81,0,0,1-.07.66,10.56,10.56,0,0,1-2.31,3.37,4,4,0,0,0-1,3.84,9.78,9.78,0,0,0,1,1.58,1.65,1.65,0,0,1,.13,1.72c-.26.46-.86.6-1.26.93a3,3,0,0,0-1,2.51c0,.92.26,1.92.33,2.84,0,.6-.2,1.32-.8,1.26a1,1,0,0,1-.59-.4,13.5,13.5,0,0,1-3.24-10.64C658.77,178,662.48,175,665.25,173.48Z"/><ellipse class="cls-2" cx="651.57" cy="177.38" rx="1.32" ry="1.85"/><g id="미세_플라스틱_그룹" data-name="미세 플라스틱 그룹"><circle id="미세플라스틱-2" class="cls-2" cx="662.48" cy="180.62" r="1.19"/><circle id="미세플라스틱-3" class="cls-2" cx="663.93" cy="178.37" r="1.19"/><circle id="미세플라스틱-4" class="cls-2" cx="661.62" cy="176.19" r="1.19"/><circle id="미세플라스틱-5" class="cls-2" cx="663" cy="175.26" r="1.19"/><circle id="미세플라스틱-6" class="cls-2" cx="665.12" cy="181.28" r="1.19"/><circle id="미세플라스틱-7" class="cls-2" cx="660.49" cy="179.16" r="1.19"/><circle id="미세플라스틱-8" class="cls-2" cx="659.3" cy="177.45" r="1.19"/><circle id="미세플라스틱-9" class="cls-2" cx="666.71" cy="179.16" r="1.19"/><circle id="미세플라스틱-10" class="cls-2" cx="664.79" cy="176.19" r="1.19"/><circle id="미세플라스틱-11" class="cls-2" cx="666.44" cy="175.26" r="1.19"/><circle id="미세플라스틱-12" class="cls-2" cx="668.56" cy="180.75" r="1.19"/><circle id="미세플라스틱-13" class="cls-2" cx="669.75" cy="178.37" r="1.19"/><circle id="미세플라스틱-14" class="cls-2" cx="672.06" cy="180.62" r="1.19"/><circle id="미세플라스틱-15" class="cls-2" cx="667.9" cy="176.98" r="1.19"/><circle id="미세플라스틱-16" class="cls-2" cx="670.21" cy="185.24" r="1.19"/><circle id="미세플라스틱-17" class="cls-2" cx="672.06" cy="183.66" r="1.19"/><path id="미세플라스틱-18" class="cls-2" d="M669.42,187.1a1.19,1.19,0,1,1-1.19,1.18A1.18,1.18,0,0,1,669.42,187.1Z"/><circle id="미세플라스틱-19" class="cls-2" cx="667.9" cy="189.74" r="1.19"/><circle id="미세플라스틱-20" class="cls-2" cx="672.06" cy="187.1" r="1.19"/><circle id="미세플라스틱-21" class="cls-2" cx="667.9" cy="183.39" r="1.19"/><circle id="미세플라스틱-22" class="cls-2" cx="670.21" cy="182.47" r="1.19"/><circle id="미세플라스틱-23" class="cls-2" cx="667.04" cy="186.7" r="1.19"/><circle id="미세플라스틱-24" class="cls-2" cx="665.71" cy="189.21" r="1.19"/><circle id="미세플라스틱-25" class="cls-2" cx="662.21" cy="189.21" r="1.19"/><circle id="미세플라스틱-26" class="cls-2" cx="664.13" cy="190.2" r="1.19"/><circle id="미세플라스틱-27" class="cls-2" cx="665.78" cy="184.52" r="1.19"/><circle id="미세플라스틱-28" class="cls-2" cx="663.93" cy="187.1" r="1.19"/><circle id="미세플라스틱-29" class="cls-2" cx="660.43" cy="187.1" r="1.19"/><circle id="미세플라스틱-30" class="cls-2" cx="659.04" cy="185.84" r="1.19"/><circle id="미세플라스틱-31" class="cls-2" cx="663.67" cy="183.39" r="1.19"/><circle id="미세플라스틱-32" class="cls-2" cx="662.21" cy="184.91" r="1.19"/><circle id="미세플라스틱-33" class="cls-2" cx="658.77" cy="184.05" r="1.19"/><circle id="미세플라스틱-34" class="cls-2" cx="661.02" cy="182.47" r="1.19"/><circle id="미세플라스틱-35" class="cls-2" cx="658.51" cy="180.75" r="1.19"/><circle id="미세플라스틱-36" class="cls-2" cx="659.3" cy="181.61" r="1.19"/></g></g><g id="미세_플라스틱_그룹-2" data-name="미세 플라스틱 그룹-2"><circle id="미세플라스틱-37" class="cls-3" cx="884.96" cy="169.91" r="1.39"/><circle id="미세플라스틱-38" class="cls-3" cx="886.61" cy="167.33" r="1.39"/><circle id="미세플라스틱-39" class="cls-3" cx="883.97" cy="164.75" r="1.39"/><circle id="미세플라스틱-40" class="cls-3" cx="885.55" cy="163.76" r="1.39"/><circle id="미세플라스틱-41" class="cls-3" cx="888" cy="170.64" r="1.39"/><circle id="미세플라스틱-42" class="cls-3" cx="882.71" cy="168.19" r="1.39"/><circle id="미세플라스틱-43" class="cls-3" cx="881.39" cy="166.27" r="1.39"/><circle id="미세플라스틱-44" class="cls-3" cx="889.78" cy="168.19" r="1.39"/><circle id="미세플라스틱-45" class="cls-3" cx="887.6" cy="164.75" r="1.39"/><circle id="미세플라스틱-46" class="cls-3" cx="889.52" cy="163.76" r="1.39"/><circle id="미세플라스틱-47" class="cls-3" cx="891.9" cy="170.04" r="1.39"/><circle id="미세플라스틱-48" class="cls-3" cx="893.29" cy="167.33" r="1.39"/><circle id="미세플라스틱-49" class="cls-3" cx="895.86" cy="169.91" r="1.39"/><circle id="미세플라스틱-50" class="cls-3" cx="891.17" cy="165.75" r="1.39"/><circle id="미세플라스틱-51" class="cls-3" cx="893.81" cy="175.2" r="1.39"/><circle id="미세플라스틱-52" class="cls-3" cx="895.86" cy="173.35" r="1.39"/><circle id="미세플라스틱-53" class="cls-3" cx="892.89" cy="178.63" r="1.39"/><circle id="미세플라스틱-54" class="cls-3" cx="891.17" cy="180.29" r="1.39"/><circle id="미세플라스틱-55" class="cls-3" cx="895.86" cy="177.25" r="1.39"/><circle id="미세플라스틱-56" class="cls-3" cx="891.17" cy="173.02" r="1.39"/><circle id="미세플라스틱-57" class="cls-3" cx="893.81" cy="171.96" r="1.39"/><circle id="미세플라스틱-58" class="cls-3" cx="890.11" cy="176.85" r="1.39"/><circle id="미세플라스틱-59" class="cls-3" cx="888.66" cy="179.69" r="1.39"/><circle id="미세플라스틱-60" class="cls-3" cx="884.63" cy="179.69" r="1.39"/><circle id="미세플라스틱-61" class="cls-3" cx="886.87" cy="180.82" r="1.39"/><circle id="미세플라스틱-62" class="cls-3" cx="888.79" cy="174.27" r="1.39"/><circle id="미세플라스틱-63" class="cls-3" cx="886.61" cy="177.25" r="1.39"/><circle id="미세플라스틱-64" class="cls-3" cx="882.58" cy="177.25" r="1.39"/><circle id="미세플라스틱-65" class="cls-3" cx="881.06" cy="175.86" r="1.39"/><circle id="미세플라스틱-66" class="cls-3" cx="886.34" cy="173.02" r="1.39"/><circle id="미세플라스틱-67" class="cls-3" cx="884.63" cy="174.8" r="1.39"/><circle id="미세플라스틱-68" class="cls-3" cx="880.73" cy="173.81" r="1.39"/><circle id="미세플라스틱-69" class="cls-3" cx="883.3" cy="171.96" r="1.39"/><circle id="미세플라스틱-70" class="cls-3" cx="880.46" cy="170.04" r="1.39"/><circle id="미세플라스틱-71" class="cls-3" cx="881.39" cy="171.03" r="1.39"/></g><g id="미세_플라스틱_그룹-3" data-name="미세 플라스틱 그룹-3"><circle id="미세플라스틱-72" class="cls-3" cx="875.37" cy="180.09" r="1.39"/><circle id="미세플라스틱-73" class="cls-3" cx="876.96" cy="177.51" r="1.39"/><circle id="미세플라스틱-74" class="cls-3" cx="874.32" cy="174.93" r="1.39"/><circle id="미세플라스틱-75" class="cls-3" cx="875.97" cy="173.94" r="1.39"/><circle id="미세플라스틱-76" class="cls-3" cx="878.35" cy="180.82" r="1.39"/><circle id="미세플라스틱-77" class="cls-3" cx="873.06" cy="178.37" r="1.39"/><circle id="미세플라스틱-78" class="cls-3" cx="871.74" cy="176.45" r="1.39"/><circle id="미세플라스틱-79" class="cls-3" cx="880.2" cy="178.37" r="1.39"/><circle id="미세플라스틱-80" class="cls-3" cx="877.95" cy="174.93" r="1.39"/><circle id="미세플라스틱-81" class="cls-3" cx="879.87" cy="173.94" r="1.39"/><circle id="미세플라스틱-82" class="cls-3" cx="882.25" cy="180.22" r="1.39"/><circle id="미세플라스틱-83" class="cls-3" cx="883.63" cy="177.51" r="1.39"/><circle id="미세플라스틱-84" class="cls-3" cx="886.28" cy="180.09" r="1.39"/><circle id="미세플라스틱-85" class="cls-3" cx="881.52" cy="175.92" r="1.39"/><circle id="미세플라스틱-86" class="cls-3" cx="884.16" cy="185.38" r="1.39"/><circle id="미세플라스틱-87" class="cls-3" cx="886.28" cy="183.53" r="1.39"/><circle id="미세플라스틱-88" class="cls-3" cx="883.24" cy="188.81" r="1.39"/><circle id="미세플라스틱-89" class="cls-3" cx="881.52" cy="190.47" r="1.39"/><circle id="미세플라스틱-90" class="cls-3" cx="886.28" cy="187.43" r="1.39"/><circle id="미세플라스틱-91" class="cls-3" cx="881.52" cy="183.26" r="1.39"/><circle id="미세플라스틱-92" class="cls-3" cx="884.16" cy="182.14" r="1.39"/><circle id="미세플라스틱-93" class="cls-3" cx="880.53" cy="187.03" r="1.39"/><circle id="미세플라스틱-94" class="cls-3" cx="879.07" cy="189.87" r="1.39"/><circle id="미세플라스틱-95" class="cls-3" cx="875.04" cy="189.87" r="1.39"/><circle id="미세플라스틱-96" class="cls-3" cx="877.22" cy="190.99" r="1.39"/><circle id="미세플라스틱-97" class="cls-3" cx="879.14" cy="184.45" r="1.39"/><circle id="미세플라스틱-98" class="cls-3" cx="876.96" cy="187.43" r="1.39"/><circle id="미세플라스틱-99" class="cls-3" cx="872.93" cy="187.43" r="1.39"/><circle id="미세플라스틱-100" class="cls-3" cx="871.41" cy="186.04" r="1.39"/><circle id="미세플라스틱-101" class="cls-3" cx="876.69" cy="183.26" r="1.39"/><circle id="미세플라스틱-102" class="cls-3" cx="875.04" cy="184.98" r="1.39"/><circle id="미세플라스틱-103" class="cls-3" cx="871.08" cy="183.99" r="1.39"/><circle id="미세플라스틱-104" class="cls-3" cx="873.65" cy="182.14" r="1.39"/><circle id="미세플라스틱-105" class="cls-3" cx="870.81" cy="180.22" r="1.39"/><circle id="미세플라스틱-106" class="cls-3" cx="871.74" cy="181.21" r="1.39"/></g><g id="미세_플라스틱_그룹-4" data-name="미세 플라스틱 그룹-4"><circle id="미세플라스틱-107" class="cls-3" cx="871.94" cy="167.4" r="1.39"/><circle id="미세플라스틱-108" class="cls-3" cx="873.59" cy="164.82" r="1.39"/><circle id="미세플라스틱-109" class="cls-3" cx="870.94" cy="162.31" r="1.39"/><circle id="미세플라스틱-110" class="cls-3" cx="872.53" cy="161.25" r="1.39"/><circle id="미세플라스틱-111" class="cls-3" cx="874.98" cy="168.13" r="1.39"/><circle id="미세플라스틱-112" class="cls-3" cx="869.69" cy="165.68" r="1.39"/><circle id="미세플라스틱-113" class="cls-3" cx="868.37" cy="163.76" r="1.39"/><circle id="미세플라스틱-114" class="cls-3" cx="876.76" cy="165.68" r="1.39"/><circle id="미세플라스틱-115" class="cls-3" cx="874.58" cy="162.31" r="1.39"/><circle id="미세플라스틱-116" class="cls-3" cx="876.43" cy="161.25" r="1.39"/><circle id="미세플라스틱-117" class="cls-3" cx="878.88" cy="167.53" r="1.39"/><circle id="미세플라스틱-118" class="cls-3" cx="880.26" cy="164.82" r="1.39"/><circle id="미세플라스틱-119" class="cls-3" cx="882.84" cy="167.4" r="1.39"/><circle id="미세플라스틱-120" class="cls-3" cx="878.15" cy="163.23" r="1.39"/><circle id="미세플라스틱-121" class="cls-3" cx="880.73" cy="172.69" r="1.39"/><circle id="미세플라스틱-122" class="cls-3" cx="882.84" cy="170.84" r="1.39"/><circle id="미세플라스틱-123" class="cls-3" cx="879.87" cy="176.12" r="1.39"/><circle id="미세플라스틱-124" class="cls-3" cx="878.15" cy="177.78" r="1.39"/><circle id="미세플라스틱-125" class="cls-3" cx="882.84" cy="174.74" r="1.39"/><circle id="미세플라스틱-126" class="cls-3" cx="878.15" cy="170.57" r="1.39"/><circle id="미세플라스틱-127" class="cls-3" cx="880.73" cy="169.51" r="1.39"/><circle id="미세플라스틱-128" class="cls-3" cx="877.09" cy="174.34" r="1.39"/><circle id="미세플라스틱-129" class="cls-3" cx="875.64" cy="177.18" r="1.39"/><circle id="미세플라스틱-130" class="cls-3" cx="871.61" cy="177.18" r="1.39"/><circle id="미세플라스틱-131" class="cls-3" cx="873.85" cy="178.3" r="1.39"/><circle id="미세플라스틱-132" class="cls-3" cx="875.77" cy="171.76" r="1.39"/><circle id="미세플라스틱-133" class="cls-3" cx="873.59" cy="174.74" r="1.39"/><circle id="미세플라스틱-134" class="cls-3" cx="869.56" cy="174.74" r="1.39"/><circle id="미세플라스틱-135" class="cls-3" cx="868.04" cy="173.35" r="1.39"/><circle id="미세플라스틱-136" class="cls-3" cx="873.32" cy="170.57" r="1.39"/><circle id="미세플라스틱-137" class="cls-3" cx="871.61" cy="172.29" r="1.39"/><circle id="미세플라스틱-138" class="cls-3" cx="867.71" cy="171.3" r="1.39"/><circle id="미세플라스틱-139" class="cls-3" cx="870.28" cy="169.51" r="1.39"/><circle id="미세플라스틱-140" class="cls-3" cx="867.44" cy="167.53" r="1.39"/><circle id="미세플라스틱-141" class="cls-3" cx="868.37" cy="168.52" r="1.39"/></g><g id="미세_플라스틱_그룹-5" data-name="미세 플라스틱 그룹-5"><circle id="미세플라스틱-142" class="cls-3" cx="662.54" cy="180.75" r="1.39"/><circle id="미세플라스틱-143" class="cls-3" cx="664.13" cy="178.17" r="1.39"/><circle id="미세플라스틱-144" class="cls-3" cx="661.48" cy="175.59" r="1.39"/><circle id="미세플라스틱-145" class="cls-3" cx="663.07" cy="174.6" r="1.39"/><circle id="미세플라스틱-146" class="cls-3" cx="665.52" cy="181.48" r="1.39"/><circle id="미세플라스틱-147" class="cls-3" cx="660.23" cy="179.03" r="1.39"/><circle id="미세플라스틱-148" class="cls-3" cx="658.91" cy="177.11" r="1.39"/><circle id="미세플라스틱-149" class="cls-3" cx="667.37" cy="179.03" r="1.39"/><circle id="미세플라스틱-150" class="cls-3" cx="665.12" cy="175.59" r="1.39"/><circle id="미세플라스틱-151" class="cls-3" cx="667.04" cy="174.6" r="1.39"/><circle id="미세플라스틱-152" class="cls-3" cx="669.42" cy="180.88" r="1.39"/><circle id="미세플라스틱-153" class="cls-3" cx="670.8" cy="178.17" r="1.39"/><circle id="미세플라스틱-154" class="cls-3" cx="673.45" cy="180.75" r="1.39"/><circle id="미세플라스틱-155" class="cls-3" cx="668.69" cy="176.59" r="1.39"/><circle id="미세플라스틱-156" class="cls-3" cx="671.33" cy="186.04" r="1.39"/><circle id="미세플라스틱-157" class="cls-3" cx="673.45" cy="184.19" r="1.39"/><circle id="미세플라스틱-158" class="cls-3" cx="670.41" cy="189.47" r="1.39"/><circle id="미세플라스틱-159" class="cls-3" cx="668.69" cy="191.13" r="1.39"/><circle id="미세플라스틱-160" class="cls-3" cx="673.45" cy="188.09" r="1.39"/><circle id="미세플라스틱-161" class="cls-3" cx="668.69" cy="183.92" r="1.39"/><circle id="미세플라스틱-162" class="cls-3" cx="671.33" cy="182.8" r="1.39"/><circle id="미세플라스틱-163" class="cls-3" cx="667.7" cy="187.69" r="1.39"/><circle id="미세플라스틱-164" class="cls-3" cx="666.24" cy="190.53" r="1.39"/><circle id="미세플라스틱-165" class="cls-3" cx="662.21" cy="190.53" r="1.39"/><circle id="미세플라스틱-166" class="cls-3" cx="664.39" cy="191.66" r="1.39"/><circle id="미세플라스틱-167" class="cls-3" cx="666.31" cy="185.11" r="1.39"/><circle id="미세플라스틱-168" class="cls-3" cx="664.13" cy="188.09" r="1.39"/><circle id="미세플라스틱-169" class="cls-3" cx="660.1" cy="188.09" r="1.39"/><circle id="미세플라스틱-170" class="cls-3" cx="658.58" cy="186.7" r="1.39"/><circle id="미세플라스틱-171" class="cls-3" cx="663.86" cy="183.92" r="1.39"/><circle id="미세플라스틱-172" class="cls-3" cx="662.21" cy="185.64" r="1.39"/><circle id="미세플라스틱-173" class="cls-3" cx="658.25" cy="184.65" r="1.39"/><circle id="미세플라스틱-174" class="cls-3" cx="660.82" cy="182.8" r="1.39"/><circle id="미세플라스틱-175" class="cls-3" cx="657.98" cy="180.88" r="1.39"/><circle id="미세플라스틱-176" class="cls-3" cx="658.91" cy="181.87" r="1.39"/></g><circle id="미세플라스틱-212" class="cls-3" cx="461.94" cy="190.86" r="1.39"/><circle id="미세플라스틱-213" class="cls-3" cx="492.01" cy="214.39" r="1.39"/><circle id="미세플라스틱-214" class="cls-3" cx="492.01" cy="219.09" r="1.39"/><circle id="미세플라스틱-215" class="cls-3" cx="492.01" cy="190.4" r="1.39"/><circle id="미세플라스틱-216" class="cls-3" cx="524.2" cy="175.79" r="1.39"/><path class="cls-1" d="M591.05,354.4l-4.24-6.82-1.21-6.07,1.36-2L591.81,319l-4.32-28.57-16.67-19.93-11.14-5.91,1.9-2.42,4.77-1.37,10.23,2.12,9.85,7.28,5.08-2-9.1-13.72-12-7.42-10.3,7.2L556,262.63l-5.84-3.1-11.89-.61-2.58-3.56s-2.58-5.76-5-7.43-8.94-4.09-10.15.08.9,8.26,1.21,11a65.48,65.48,0,0,0,1.36,7l-3.71,3.48-5.91,8.79-6.82-4.47L495.88,276l-11.14,10.46-1,16.44,5.38-.84,4.78-11.21,10.61-8.26,4.77-1.21L511,282l-3.11,4.62L506,305.07l8.33,25.84L528,345.61l4.16,2,2.13,10.6L533,366.07l-2,3.71,3,.83,6.75-4,2.42-7.13,1.21-5.76s-1-.6-2.42-1.59l10,4.7,13,4.32,9.24-3.64,4.32-6.14.53.76,5,5.61,7.73,1.14,2.35-1.9Z"/><g id="미세_플라스틱_그룹-6" data-name="미세 플라스틱 그룹-6"><circle id="미세플라스틱-177" class="cls-3" cx="544.4" cy="300.16" r="2.51"/><circle id="미세플라스틱-178" class="cls-3" cx="547.38" cy="295.46" r="2.51"/><circle id="미세플라스틱-179" class="cls-3" cx="542.55" cy="290.84" r="2.51"/><circle id="미세플라스틱-180" class="cls-3" cx="545.46" cy="288.99" r="2.51"/><circle id="미세플라스틱-181" class="cls-3" cx="549.89" cy="301.48" r="2.51"/><circle id="미세플라스틱-182" class="cls-3" cx="540.31" cy="297.05" r="2.51"/><circle id="미세플라스틱-183" class="cls-3" cx="537.79" cy="293.55" r="2.51"/><circle id="미세플라스틱-184" class="cls-3" cx="553.19" cy="297.05" r="2.51"/><circle id="미세플라스틱-185" class="cls-3" cx="549.16" cy="290.84" r="2.51"/><circle id="미세플라스틱-186" class="cls-3" cx="552.67" cy="288.99" r="2.51"/><circle id="미세플라스틱-187" class="cls-3" cx="557.03" cy="300.42" r="2.51"/><circle id="미세플라스틱-188" class="cls-3" cx="559.61" cy="295.46" r="2.51"/><circle id="미세플라스틱-189" class="cls-3" cx="564.3" cy="300.16" r="2.51"/><circle id="미세플라스틱-190" class="cls-3" cx="555.71" cy="292.56" r="2.51"/><circle id="미세플라스틱-191" class="cls-3" cx="560.47" cy="309.81" r="2.51"/><circle id="미세플라스틱-192" class="cls-3" cx="564.3" cy="306.44" r="2.51"/><circle id="미세플라스틱-193" class="cls-3" cx="558.81" cy="316.02" r="2.51"/><circle id="미세플라스틱-194" class="cls-3" cx="555.71" cy="319.13" r="2.51"/><circle id="미세플라스틱-195" class="cls-3" cx="564.3" cy="313.58" r="2.51"/><circle id="미세플라스틱-196" class="cls-3" cx="555.71" cy="305.91" r="2.51"/><circle id="미세플라스틱-197" class="cls-3" cx="560.47" cy="303.99" r="2.51"/><circle id="미세플라스틱-198" class="cls-3" cx="553.79" cy="312.85" r="2.51"/><circle id="미세플라스틱-199" class="cls-3" cx="551.15" cy="318" r="2.51"/><circle id="미세플라스틱-200" class="cls-3" cx="543.81" cy="318" r="2.51"/><circle id="미세플라스틱-201" class="cls-3" cx="547.84" cy="320.05" r="2.51"/><circle id="미세플라스틱-202" class="cls-3" cx="551.34" cy="308.16" r="2.51"/><circle id="미세플라스틱-203" class="cls-3" cx="547.38" cy="313.58" r="2.51"/><circle id="미세플라스틱-204" class="cls-3" cx="540.04" cy="313.58" r="2.51"/><circle id="미세플라스틱-205" class="cls-3" cx="537.27" cy="311.06" r="2.51"/><circle id="미세플라스틱-206" class="cls-3" cx="546.92" cy="305.91" r="2.51"/><circle id="미세플라스틱-207" class="cls-3" cx="543.81" cy="309.08" r="2.51"/><circle id="미세플라스틱-208" class="cls-3" cx="536.67" cy="307.36" r="2.51"/><circle id="미세플라스틱-209" class="cls-3" cx="541.3" cy="303.99" r="2.51"/><circle id="미세플라스틱-210" class="cls-3" cx="536.14" cy="300.42" r="2.51"/><circle id="미세플라스틱-211" class="cls-3" cx="537.79" cy="302.21" r="2.51"/></g><rect class="cls-2" x="187.29" y="156.11" width="36.53" height="13.75" rx="1" transform="translate(411.11 325.97) rotate(-180)"/><path class="cls-2" d="M157.33,27.38h0v4.43a.48.48,0,0,1-.47.5h-.58a.78.78,0,0,0-.7.75l-1.92,54.39a2,2,0,0,1-.26.94l-4.13,7.51a1.85,1.85,0,0,1-1.61,1h-9.88a1.85,1.85,0,0,1-1.61-1L132,88.39a2.16,2.16,0,0,1-.25-.94l-1.92-54.39a.78.78,0,0,0-.7-.75h-.58a.48.48,0,0,1-.47-.5V27.38Z"/><polygon class="cls-2" points="142.67 99.43 142.76 99.43 147.7 99.43 147.05 109.22 142.76 109.22 142.67 109.22 138.39 109.22 137.73 99.43 142.67 99.43"/><path class="cls-7" d="M193.16,109.26h7.53A16.69,16.69,0,0,1,217.38,126v30.8H193.16V138.47a5,5,0,0,0-5-5H1.5V109.26Z"/><path class="cls-8" d="M75.15,72.53H43.83c-1.65,0-3,.89-3,2v33.15c0,.73.9,1.33,2,1.33H74.15c1.1,0,2-.6,2-1.33V73.2C76.15,72.83,75.7,72.53,75.15,72.53Z"/><path class="cls-9" d="M45.49,53.6c0-5.91,5.82-10.7,13-10.7s13,4.79,13,10.7m-13-18.22,0,7.52M47,35.87l19.73.61a2,2,0,0,0,2.07-2v-2.7a2,2,0,0,0-2.11-2l-19.7,1a2,2,0,0,0-1.9,1.94l0,1.09A2,2,0,0,0,47,35.87Z"/><path class="cls-2" d="M114.48,64a12.9,12.9,0,0,0-5-8.88,5.93,5.93,0,0,1-1.67-2.79c-.32-.93-.43-1.44-.23-1.78a2.17,2.17,0,0,1,.59-.37l4.91-1a1.34,1.34,0,0,0,1-1.58l0-.06a1.3,1.3,0,0,0-1.29-1l-4.88,1.06-.31.07a.44.44,0,0,1-.23,0,.54.54,0,0,1-.32-.23.4.4,0,0,1-.1-.18.48.48,0,0,1,0-.12.57.57,0,0,1,0-.13.55.55,0,0,1,.41-.41l.54-.12.54-.11,4-.88a1.33,1.33,0,0,0,.76-.69,1.27,1.27,0,0,0,.12-.82A1.32,1.32,0,0,0,112,43l-4.8,1-.51.11a.59.59,0,0,1-.23,0,.56.56,0,0,1-.24-.13.44.44,0,0,1-.1-.16.5.5,0,0,1-.08-.12v0a.58.58,0,0,1,0-.32.66.66,0,0,1,.12-.17.61.61,0,0,1,.26-.15h0l.7-.16,1.54-.32,2.75-.58.11,0a1.36,1.36,0,0,0,.92-1.53,1.3,1.3,0,0,0-1.25-1l-4.85,1h0l-.55.12-.14,0a.62.62,0,0,1-.27-.09.55.55,0,0,1-.29-.51.49.49,0,0,1,.11-.29.57.57,0,0,1,.11-.11.67.67,0,0,1,.21-.1l.26-.06c1.48-.34,3-.71,4.45-1a2.57,2.57,0,0,0,1.11-.46,1.3,1.3,0,0,0,.35-1.15h0a1.33,1.33,0,0,0-1.53-1l-5.14,1.12-.14,0a.54.54,0,0,1-.3-.1.55.55,0,0,1-.26-.46.46.46,0,0,1,.1-.27.8.8,0,0,1,.46-.28l.07,0,2.76-.6,2.56-.56a1.32,1.32,0,0,0,.66-1.42s0-.08-.05-.13a1.2,1.2,0,0,0-.13-.28.56.56,0,0,0-.1-.15s0,0,0,0l-.17-.15-.11-.1a1.32,1.32,0,0,0-1-.17l-4.9,1a1.52,1.52,0,0,1-.85-.1.92.92,0,0,1-.25-.19h0a2.31,2.31,0,0,0-1.39-.81,2.52,2.52,0,0,0-.91,0h0a2.61,2.61,0,0,0-2,3.11l3.28,15.19a.67.67,0,0,0,.06.15h0l.57,2.33.06.29.21,1.06a9.37,9.37,0,0,0,1.12,2.4,6.56,6.56,0,0,0,1.84,1.87c2.91,2,3.48,5.05,4.16,8.13.57,2.6,1.16,5.21,1.75,7.81h4.4C115.79,71,115,67.51,114.48,64Z"/><path class="cls-7" d="M116.58,74.38h15.26a2.87,2.87,0,0,1,1.81.62,1.74,1.74,0,0,1,.65,1.46l-2.85,30.27a2.32,2.32,0,0,1-2.46,1.79H106a2.31,2.31,0,0,1-2.46-1.79l-2.85-30.27a1.74,1.74,0,0,1,.65-1.46,2.87,2.87,0,0,1,1.81-.62h13.41Z"/><path class="cls-2" d="M116.6,48.61a3.89,3.89,0,0,0,3-4.39h0s.32,1.68,2.67,1a.7.7,0,0,1,.81,1,7.16,7.16,0,0,1-7.84,2.45A3.73,3.73,0,0,0,116.6,48.61Z"/><path class="cls-2" d="M112.59,47.06l0,0"/><path class="cls-2" d="M114.12,48a4.5,4.5,0,0,1-1.47-1.31c-.28-.4-.7-1.1-.7-1.1h0l-2-9.29a4.09,4.09,0,0,1,2.77-4.86,3.92,3.92,0,0,1,4.83,3L119.6,44a2.6,2.6,0,0,1,0,.26,3.89,3.89,0,0,1-3,4.39,3.68,3.68,0,0,1-1.32,0h0Z"/><path class="cls-10" d="M336.31,131.1c-.6,1.16-1.16,2.33-1.7,3.51C335.15,133.43,335.71,132.26,336.31,131.1Z"/><path class="cls-10" d="M352.28,150.06a15.69,15.69,0,0,0,1.65-.81c.66-.38,1.32-.73,2-1.06-.67.33-1.33.68-2,1.06A15.69,15.69,0,0,1,352.28,150.06Z"/><path class="cls-10" d="M348.91,151a12.11,12.11,0,0,1-1.7.09A12.11,12.11,0,0,0,348.91,151Z"/><path class="cls-10" d="M362.09,146.33a3.36,3.36,0,0,1,.45,0,3.36,3.36,0,0,0-.45,0c-.36,0-.72.08-1.07.13C361.37,146.41,361.73,146.36,362.09,146.33Z"/><path class="cls-3" d="M332.25,209.8a2.82,2.82,0,0,0,3-3.69,23.49,23.49,0,0,1-.24-2.54c-.1-.69-.09-1.6-.52-2-.6-.56-1.73-1.19-2.33-1a14.4,14.4,0,0,0-4.39,2.51c-.4.35.1,1.76.2,2.68A4.72,4.72,0,0,0,332.25,209.8Z"/><path class="cls-3" d="M311.22,191.39c1.94-1.16-.91-2.88-.7-4.56,0-.23-.8-.82-1.22-.81a10.54,10.54,0,0,0-3.16.55,3.53,3.53,0,0,0-2.65,3.77c.31.41.86,1.8,1.45,1.82C307.06,192.21,309.56,192.4,311.22,191.39Z"/><path class="cls-3" d="M325.84,202c.19-1.89-1-2.62-4.56-2.85a3.33,3.33,0,0,0-3.54,2.9c-.16,1.46,1.56,2.81,3.78,3C323.57,205.18,325.67,203.71,325.84,202Z"/><path class="cls-3" d="M310,201.17c-.36,1-1.23,2.35-.87,3,.68,1.13,2.07,1.83,3.17,2.71,1.94-.56,3.38-.7,2.57-2.94-.22-.58.05-1.36-.21-1.9a8.89,8.89,0,0,0-1.88-2.86c-.19-.18-1.51.84-2.28,1.35A1.46,1.46,0,0,0,310,201.17Z"/><path class="cls-3" d="M283.08,180.2a4.44,4.44,0,0,0-2.51,2.41c-.45,1.49,1.67,3.38,3.37,3.41s3.49-1.31,3.47-2.57C287.38,182.36,284.29,179.76,283.08,180.2Z"/><path class="cls-3" d="M330.88,214.09c-1.23-.91-2.48-1.38-3.71-.34-.62.52-1.36,1.74-1.14,2.24.66,1.46,1.51,3,4.42,3a6.9,6.9,0,0,0,2.09-1.93C333.34,215.59,332,214.89,330.88,214.09Z"/><path class="cls-3" d="M349.09,205c.3-.39,1.12-1,1.28-1.76.29-1.31-1.44-2.94-2.8-2.91a1.59,1.59,0,0,0-1.78,1.89C345.86,203.93,346.7,204.86,349.09,205Z"/><path class="cls-3" d="M334.37,223.16c-.63,0-1.86,1.48-1.74,2.07.17.81,1.37,1.4,2.54,2.46,1-1.15,2.12-1.89,2.19-2.72C337.51,223,335.51,223.16,334.37,223.16Z"/><path class="cls-3" d="M411.55,267.23c-.91,1.35-1.94,2.39-1.76,2.7l4.34.61C413.74,269.51,412.77,268.71,411.55,267.23Z"/><path class="cls-3" d="M340,200.37c-1.32-.07-2.22.62-1.93,1.87.18.79,1.17,1.38,2.23,2.54,1-1.24,1.93-1.93,2.05-2.74C342.55,200.41,341.12,200.43,340,200.37Z"/><path class="cls-3" d="M319.13,208.17c-1.23,0-2.57.2-2.47,1.69,0,.78,1.08,1.49,2.08,2.74,1.05-1.2,2-1.83,2.22-2.65C321.28,208.73,320.31,208.18,319.13,208.17Z"/><path class="cls-3" d="M343.9,209.67c1,.71,1.67,1.58,2.36,1.58s1.64-1.37,1.5-1.65a11.14,11.14,0,0,0-2.08-2.4Z"/><path class="cls-3" d="M295.37,196.82c-.45.82-1.31,1.68-1.23,2.44s1.1,1.47,1.88,1.75c.33.12,1.63-1,1.55-1.42a10.48,10.48,0,0,0-1.45-2.79Z"/><path class="cls-3" d="M313.58,211.31c-.64.68-1.67,1.31-1.78,2.06-.07.52,1.06,1.44,1.83,1.75.42.17,1.2-.56,2.18-1.08Z"/><path class="cls-3" d="M309.53,232.52a10.64,10.64,0,0,0-2,1.84,8.78,8.78,0,0,0,2.06,1.73c.23.1,1-1,1.79-1.81C310.53,233.47,309.72,232.42,309.53,232.52Z"/><path class="cls-3" d="M381.66,201a2.42,2.42,0,0,0,1.54,1.74c.5.12,1.24-.79,2.45-1.65-1.2-.93-1.87-1.85-2.53-1.84S381.65,200.33,381.66,201Z"/><path class="cls-3" d="M300.31,265.11c.54.43,1.08,1.2,1.64,1.22.73,0,1.48-.56,2.87-1.17-1.32-1.06-2.12-2.16-2.72-2.06S300.9,264.39,300.31,265.11Z"/><path class="cls-3" d="M283.37,233.47c.65.6,1.22,1.41,2,1.69.33.12,1.07-.88,1.87-1.6l-1.81-2.3Z"/><path class="cls-3" d="M394.5,244.53c0,.49,1.09,1.49,1.52,1.4a2.44,2.44,0,0,0,1.57-1.6c.11-.52-.66-1.22-1.42-2.46C395.3,243.17,394.52,243.84,394.5,244.53Z"/><path class="cls-3" d="M309.35,208.67c.13-.49-.54-1.2-1.16-2.39-.9,1.16-1.61,1.76-1.82,2.5-.09.3,1,1.33,1.41,1.27A2.29,2.29,0,0,0,309.35,208.67Z"/><path class="cls-3" d="M403.61,234.27c-.54,0-1.26,1-1.43,1.65-.09.34.88.94,1.72,1.76.66-.91,1.5-1.64,1.36-2C405,235.08,404.17,234.25,403.61,234.27Z"/><path class="cls-3" d="M375.83,230.32c-.72.26-1.24,1.07-1.83,1.65.56.41,1.1,1.09,1.69,1.14s1.16-.58,2.24-1.19C376.89,231.09,376.17,230.19,375.83,230.32Z"/><path class="cls-3" d="M269,213.59c-.06.44.78,1.36,1.3,1.43s1.35-.52,2-.83c0-.28,0-.56.05-.84-.64-.41-1.29-1.13-1.92-1.13A2,2,0,0,0,269,213.59Z"/><path class="cls-3" d="M357.32,217a6.25,6.25,0,0,0-1.94-1.16c-.49-.09-1.09.52-2.19,1.12,1.26.76,2,1.45,2.74,1.54C356.33,218.58,356.85,217.56,357.32,217Z"/><path class="cls-3" d="M352.35,237.7c-.5.08-.89,1-1.32,1.47.57.47,1.1,1.21,1.73,1.31.44.07,1-.74,2.14-1.64C353.62,238.23,352.93,237.61,352.35,237.7Z"/><path class="cls-3" d="M326.13,221.29c-.67.22-1.14,1.05-1.69,1.62.55.39,1.1,1.08,1.67,1.11s1.14-.63,2.24-1.31C327.25,222,326.53,221.16,326.13,221.29Z"/><path class="cls-3" d="M347.21,229.68c.54.53,1,1.26,1.67,1.51.3.12,1-.69,1.84-1.38-.9-.56-1.44-1.17-2-1.15S347.73,229.31,347.21,229.68Z"/><path class="cls-3" d="M342.39,232.65c-.55.13-.95.93-1.41,1.44.51.45,1,1.21,1.53,1.25s1.08-.7,2.17-1.5C343.52,233.19,342.86,232.54,342.39,232.65Z"/><path class="cls-3" d="M335.83,216.93c.52.57.94,1.4,1.58,1.64.36.14,1.09-.67,2.06-1.33-.91-.71-1.43-1.42-1.87-1.38C337,215.92,336.42,216.54,335.83,216.93Z"/><path class="cls-3" d="M315.44,226a2.09,2.09,0,0,0,1.46,1.41c.47,0,1.22-.82,1.42-1.42.11-.33-.66-1-1.32-1.83C316.25,225,315.36,225.57,315.44,226Z"/><path class="cls-3" d="M303.22,211.65c-1.05-.82-1.64-1.63-2.17-1.6s-1.13.84-1.7,1.31c.47.43.9,1.14,1.41,1.2S302,212.12,303.22,211.65Z"/><path class="cls-3" d="M348.71,218.73c0-.5-.77-.93-1.19-1.4-.45.45-1.19.85-1.26,1.35s.58,1,1.2,2C348.1,219.73,348.76,219.19,348.71,218.73Z"/><path class="cls-3" d="M335.05,231.86c-.61.06-1.15.75-1.72,1.16.45.44.85,1.13,1.37,1.23s1.11-.41,2.1-.83C336,232.64,335.46,231.82,335.05,231.86Z"/><path class="cls-3" d="M250.75,173.26c-.18.48.41,1.26.66,1.91l1.05-.52,1.56-1.36c-.51-.41-1-1.16-1.52-1.14A2.32,2.32,0,0,0,250.75,173.26Z"/><path class="cls-3" d="M359.48,253.56c.44.43.84,1.15,1.34,1.22s1.17-.45,2.22-.9c-.92-.72-1.44-1.44-1.94-1.43S360,253.16,359.48,253.56Z"/><path class="cls-3" d="M354.77,223.26c.1.56.67,1,1.28,1.86l1.63-1.92c-.55-.32-1.09-.88-1.66-.91S354.73,223,354.77,223.26Z"/><path class="cls-3" d="M261.59,195.16c.56.31,1.1.83,1.68.88s1-.49,2-1.08c-1.13-.52-1.74-1-2.27-1S262.05,194.74,261.59,195.16Z"/><path class="cls-3" d="M367.71,219.52c.47.35,1,1,1.41,1s1.12-.55,2.27-1.19c-1.14-.48-1.71-1-2.17-.86S368.21,219.14,367.71,219.52Z"/><path class="cls-3" d="M274.18,256.8a5,5,0,0,0-1.64.93c.37.46.75.91,1.32,1.59l1.52-1.61C275,257.38,274.53,256.75,274.18,256.8Z"/><path class="cls-1" d="M326.19,150.84l-.09.2h0l.1-.2Z"/><path class="cls-11" d="M355.08,113.06h0Z"/><path class="cls-11" d="M335.52,147.31c1.66.67,3.25,1.34,4.81,2.06h0C338.77,148.65,337.18,148,335.52,147.31Z"/><path class="cls-12" d="M366.79,147h0a29.94,29.94,0,0,1-1.07,3.8l-17.94,33.83v0c-1.34,2.72-2.69,5.44-4.1,8.12a3.22,3.22,0,0,1-2.28,1.63c-.69,0-1.51-1.08-2-1.85a11.19,11.19,0,0,1-1.34-3.14c-.47-1.84-1.61-2.6-3.34-2.15a2.77,2.77,0,0,0-2.24,3.39c.06.42.37.86.29,1.24-.18.84-.28,1.94-.85,2.4a5.34,5.34,0,0,1-7.26-.67c-1.36-1.6-2.56-1.65-4.27-.59a4.52,4.52,0,0,1-6.09-1.56,2.82,2.82,0,0,1,.23-2.34c.45-.75,1.5-1.12,2-1.83a4.52,4.52,0,0,0,.95-2.4c0-.28-1.19-.78-1.88-.89-1.38-.24-2.57-.46-3.34-1.94a3.21,3.21,0,0,1,.11-3.53c2.71-5,5.23-10.17,7.78-15.3,2-4,3.95-8.07,5.92-12.12,3.75,1.55,11.11-3.12,14.23-1.67.58.26,1.15.5,1.73.71a15.66,15.66,0,0,0,5.15,1,12.11,12.11,0,0,0,1.7-.09,13.45,13.45,0,0,0,3.37-.89,15.69,15.69,0,0,0,1.65-.81c.66-.38,1.32-.73,2-1.06s1.33-.62,2-.88a16.7,16.7,0,0,1,2.05-.63c.35-.09.69-.16,1-.22s.71-.1,1.07-.13a3.36,3.36,0,0,1,.45,0,38.24,38.24,0,0,1,4.25.63Z"/><path class="cls-11" d="M357.92,147.31c-.67.26-1.34.55-2,.88C356.58,147.86,357.25,147.57,357.92,147.31Z"/><path class="cls-13" d="M357.92,147.31c-.67.26-1.34.55-2,.88C356.58,147.86,357.25,147.57,357.92,147.31Z"/><path class="cls-11" d="M347.21,151a15.66,15.66,0,0,1-5.15-1A15.66,15.66,0,0,0,347.21,151Z"/><path class="cls-14" d="M347.21,151a15.66,15.66,0,0,1-5.15-1A15.66,15.66,0,0,0,347.21,151Z"/><path class="cls-11" d="M340.33,149.37c.58.26,1.15.5,1.73.71C341.48,149.87,340.91,149.63,340.33,149.37Z"/><path class="cls-15" d="M340.33,149.37c.58.26,1.15.5,1.73.71C341.48,149.87,340.91,149.63,340.33,149.37Z"/><path class="cls-11" d="M360,146.68a16.7,16.7,0,0,0-2.05.63A16.7,16.7,0,0,1,360,146.68Z"/><path class="cls-16" d="M360,146.68a16.7,16.7,0,0,0-2.05.63A16.7,16.7,0,0,1,360,146.68Z"/><path class="cls-1" d="M366.79,147h0c.07,0,.07-.05,0-.15l0,.15Z"/><path class="cls-11" d="M366.26,137.67a11.68,11.68,0,0,0-.63,1A11.68,11.68,0,0,1,366.26,137.67Z"/><path class="cls-11" d="M366.79,147a38.24,38.24,0,0,0-4.25-.63,38.24,38.24,0,0,1,4.25.63Z"/><path class="cls-11" d="M366.79,147h0l0-.15h0Z"/><path class="cls-17" d="M355,113.1h0l0,0Z"/><path class="cls-17" d="M354.54,114.34h0a.68.68,0,0,1,0-.14Z"/><path class="cls-1" d="M340.33,149.37h0c.58.26,1.15.5,1.73.71a15.66,15.66,0,0,0,5.15,1,12.11,12.11,0,0,0,1.7-.09,13.45,13.45,0,0,0,3.37-.89,15.69,15.69,0,0,0,1.65-.81c.66-.38,1.32-.73,2-1.06s1.33-.62,2-.88a16.7,16.7,0,0,1,2.05-.63c.35-.09.69-.16,1-.22s.71-.1,1.07-.13a3.36,3.36,0,0,1,.45,0,38.24,38.24,0,0,1,4.25.63l0-.15a28.34,28.34,0,0,0,.53-9.25s0-.06,0-.08a35.43,35.43,0,0,0-2.74-10,4.32,4.32,0,0,1,3.42-6.21.49.49,0,0,0,.32-.16l.07,0,.78-1.27,0,0-.2-1.11a1,1,0,0,1-.46-1.34l1-2.11a1,1,0,0,0-.46-1.33l-9.33-4.56a1,1,0,0,0-1.34.46l-1,2.1a1,1,0,0,1-1.33.46l-1,.68,0,0,0,0-.44,1.1a.68.68,0,0,0,0,.14.75.75,0,0,0,0,.43c1.47,2.86.8,4.93-2.15,6.06-2.06.8-4.2,1.42-6.2,2.35-3.94,1.83-7.86,4-9.93,7.91-2.38,4.55-8.12,15.12-10.12,19.74h0l-.1.2c3.75,1.55,11.11-3.12,14.23-1.67"/><circle id="미세플라스틱-182-2" data-name="미세플라스틱-182" class="cls-3" cx="147.45" cy="71.74" r="1.5"/><circle id="미세플라스틱-182-3" data-name="미세플라스틱-182" class="cls-3" cx="138.96" cy="52.71" r="1.5"/><circle id="미세플라스틱-182-4" data-name="미세플라스틱-182" class="cls-3" cx="147.28" cy="42.24" r="1.5"/><circle id="미세플라스틱-182-5" data-name="미세플라스틱-182" class="cls-3" cx="113.98" cy="35.93" r="1.5"/><circle id="미세플라스틱-182-6" data-name="미세플라스틱-182" class="cls-3" cx="115.95" cy="44.32" r="1.5"/><circle id="미세플라스틱-182-7" data-name="미세플라스틱-182" class="cls-3" cx="69.72" cy="78.63" r="1.5"/><circle id="미세플라스틱-182-8" data-name="미세플라스틱-182" class="cls-3" cx="62.54" cy="86.87" r="1.5"/><circle id="미세플라스틱-182-9" data-name="미세플라스틱-182" class="cls-3" cx="52.29" cy="82.59" r="1.5"/><circle id="미세플라스틱-182-10" data-name="미세플라스틱-182" class="cls-3" cx="67.74" cy="100.33" r="1.5"/><circle id="미세플라스틱-182-11" data-name="미세플라스틱-182" class="cls-3" cx="139.86" cy="78.99" r="1.5"/><circle id="미세플라스틱-182-12" data-name="미세플라스틱-182" class="cls-3" cx="138.73" cy="67.44" r="1.5"/><circle id="미세플라스틱-182-13" data-name="미세플라스틱-182" class="cls-3" cx="146.2" cy="58.6" r="1.5"/><circle id="미세플라스틱-182-14" data-name="미세플라스틱-182" class="cls-3" cx="197.61" cy="119.34" r="1.5"/><circle id="미세플라스틱-182-15" data-name="미세플라스틱-182" class="cls-3" cx="204" cy="131.47" r="1.5"/><circle id="미세플라스틱-182-16" data-name="미세플라스틱-182" class="cls-3" cx="200.46" cy="148.37" r="1.5"/><circle id="미세플라스틱-182-17" data-name="미세플라스틱-182" class="cls-3" cx="201.47" cy="179.49" r="1.5"/><circle id="미세플라스틱-182-18" data-name="미세플라스틱-182" class="cls-3" cx="211.73" cy="173.34" r="1.5"/><circle id="미세플라스틱-182-19" data-name="미세플라스틱-182" class="cls-3" cx="211.73" cy="185.47" r="1.5"/><circle id="미세플라스틱-182-20" data-name="미세플라스틱-182" class="cls-3" cx="204.72" cy="196.76" r="1.5"/><circle id="미세플라스틱-182-21" data-name="미세플라스틱-182" class="cls-3" cx="213.78" cy="196.76" r="1.5"/><circle id="미세플라스틱-182-22" data-name="미세플라스틱-182" class="cls-3" cx="219.41" cy="188.93" r="1.5"/><circle id="미세플라스틱-182-23" data-name="미세플라스틱-182" class="cls-3" cx="219.41" cy="204.95" r="1.5"/><circle id="미세플라스틱-182-24" data-name="미세플라스틱-182" class="cls-3" cx="217.45" cy="209.22" r="1.5"/><circle id="미세플라스틱-182-25" data-name="미세플라스틱-182" class="cls-3" cx="210.15" cy="204.95" r="1.5"/><circle id="미세플라스틱-182-26" data-name="미세플라스틱-182" class="cls-3" cx="210.15" cy="215.81" r="1.5"/><circle id="미세플라스틱-182-27" data-name="미세플라스틱-182" class="cls-3" cx="210.12" cy="142.41" r="1.5"/><circle id="미세플라스틱-182-28" data-name="미세플라스틱-182" class="cls-3" cx="166.35" cy="119.79" r="1.5"/><circle id="미세플라스틱-182-29" data-name="미세플라스틱-182" class="cls-3" cx="153.82" cy="118.01" r="1.5"/><circle id="미세플라스틱-182-30" data-name="미세플라스틱-182" class="cls-3" cx="140.12" cy="125.84" r="1.5"/><circle id="미세플라스틱-182-31" data-name="미세플라스틱-182" class="cls-3" cx="124.74" cy="118.37" r="1.5"/><circle id="미세플라스틱-182-32" data-name="미세플라스틱-182" class="cls-3" cx="107.33" cy="119.6" r="1.5"/><circle id="미세플라스틱-182-33" data-name="미세플라스틱-182" class="cls-3" cx="80.2" cy="124.67" r="1.5"/><circle id="미세플라스틱-182-34" data-name="미세플라스틱-182" class="cls-3" cx="96.37" cy="126.32" r="1.5"/><path class="cls-18" d="M1231.9,180.31c.26-3.83-5.16-29.15-8.6-38.6a165.7,165.7,0,0,0-8.06-17.85c-1.45-7.33-3.9-18.77-7.53-33-2.38-9.32-5.82-22.73-11.64-25.71a14.74,14.74,0,0,0-5.81-1.65c-6.94-3.57-17.45-4.17-23.34-8.33l-.26-.13-.26-12.76c3.1-3,5-7.53,6.08-12.42,1.91-1.39,3.3-5,3.17-7.47a4.59,4.59,0,0,0-2.12-3.44c-.39-11.7-7.66-19-16.65-19s-16.33,7.34-16.66,19a4.15,4.15,0,0,0-2.11,3.44c-.14,2.38,1.25,6,3.17,7.47,1.06,4.95,3,9.51,6.21,12.55l-.26,12.36-.6.4c-5.88,4.16-16.46,4.76-23.4,8.33a16.31,16.31,0,0,0-5.55,1.59c-5.81,3-9.25,16.39-11.63,25.71-3.64,14.21-6.08,25.64-7.54,33a165.55,165.55,0,0,0-8.06,17.84c-3.44,9.46-8.92,34.77-8.59,38.61-.27,5.48-1.26,21.15,0,26,.79,3.1,5.09,4.43,6.61,4.43s.53-15.8,3.17-17.78,4,12.16,5.75,9.45c2.12-3.44-2.05-17.12-4.76-23.93a25.73,25.73,0,0,1,3-8.2c5.75-10.7,11.83-24.85,12.89-29.08.66-2.44,1.19-5.42,1.72-8.52,4.23-8.93,7.87-15.4,13-31.14,1.65,9.46,3.5,19.57,5,28.76a74.69,74.69,0,0,1,.4,17.18,24,24,0,0,0-1.45,3.83c-5.56,19.44-6.55,33.45-4.7,55.86,1.59,19,3.71,36.81,5.29,48.45-1.32,4.09-2.77,9.71-3.63,19.89-1.26,14.48,3,41.64,3.37,56.18a4.8,4.8,0,0,0-.13,1c-.27,17-5.89,19.11-5.76,24.06.14,4.56,6.15,5.55,10.18,6.08a8.71,8.71,0,0,0,9.26-5.22c1.39-4.23,1-9.65.13-19a41.44,41.44,0,0,0-1-5.55c.2-12.76,3.17-33.58,4.16-46.86a138.73,138.73,0,0,0-1-28.29c1.72-11,6-37.08,7-50.76.46-6,.92-11.37,1.25-16.4a35.4,35.4,0,0,0,10.58,0c.33,5.09.79,10.45,1.25,16.4,1.06,13.74,5.29,39.79,7,50.76a138.73,138.73,0,0,0-1,28.29c1.06,13.35,4,34.17,4.16,46.86a25.51,25.51,0,0,0-1,5.55c-.86,9.32-1.32,14.74.13,19a8.78,8.78,0,0,0,9.26,5.22c4-.53,10.11-1.52,10.18-6.08.13-5-5.49-7.14-5.75-24.06a4.82,4.82,0,0,0-.14-1c.27-14.54,4.56-41.7,3.37-56.18a87.39,87.39,0,0,0-3.63-19.89c1.59-11.64,3.7-29.48,5.29-48.45,1.85-22.41.79-36.42-4.7-55.86A20.11,20.11,0,0,0,1185,147a78.32,78.32,0,0,1,.39-16.72c1.52-9.39,3.44-19.63,5.09-29.22,5.29,16.13,8.92,22.61,13.22,31.66.53,3.11,1.06,6.08,1.72,8.53,1.12,4.23,7.14,18.37,12.89,29.08a26.83,26.83,0,0,1,3,8.2c-2.71,6.87-6.88,20.49-4.76,23.92,1.72,2.78,3.11-11.37,5.75-9.45s1.65,17.78,3.17,17.78,5.82-1.32,6.61-4.43C1233.15,201.46,1232.16,185.8,1231.9,180.31Z"/><g id="미세_플라스틱_그룹-6-2" data-name="미세 플라스틱 그룹-6"><circle id="미세플라스틱-177-2" data-name="미세플라스틱-177" class="cls-3" cx="1150.93" cy="119.7" r="2.51"/><circle id="미세플라스틱-178-2" data-name="미세플라스틱-178" class="cls-3" cx="1153.9" cy="115.01" r="2.51"/><circle id="미세플라스틱-179-2" data-name="미세플라스틱-179" class="cls-3" cx="1149.08" cy="110.38" r="2.51"/><circle id="미세플라스틱-180-2" data-name="미세플라스틱-180" class="cls-3" cx="1151.99" cy="108.53" r="2.51"/><circle id="미세플라스틱-181-2" data-name="미세플라스틱-181" class="cls-3" cx="1156.42" cy="121.02" r="2.51"/><circle id="미세플라스틱-182-35" data-name="미세플라스틱-182" class="cls-3" cx="1146.83" cy="116.59" r="2.51"/><circle id="미세플라스틱-183-2" data-name="미세플라스틱-183" class="cls-3" cx="1144.32" cy="113.09" r="2.51"/><circle id="미세플라스틱-184-2" data-name="미세플라스틱-184" class="cls-3" cx="1159.72" cy="116.59" r="2.51"/><circle id="미세플라스틱-185-2" data-name="미세플라스틱-185" class="cls-3" cx="1155.69" cy="110.38" r="2.51"/><circle id="미세플라스틱-186-2" data-name="미세플라스틱-186" class="cls-3" cx="1159.19" cy="108.53" r="2.51"/><circle id="미세플라스틱-187-2" data-name="미세플라스틱-187" class="cls-3" cx="1163.55" cy="119.97" r="2.51"/><circle id="미세플라스틱-188-2" data-name="미세플라스틱-188" class="cls-3" cx="1166.13" cy="115.01" r="2.51"/><circle id="미세플라스틱-189-2" data-name="미세플라스틱-189" class="cls-3" cx="1170.82" cy="119.7" r="2.51"/><circle id="미세플라스틱-190-2" data-name="미세플라스틱-190" class="cls-3" cx="1162.23" cy="112.1" r="2.51"/><circle id="미세플라스틱-191-2" data-name="미세플라스틱-191" class="cls-3" cx="1166.99" cy="129.35" r="2.51"/><circle id="미세플라스틱-192-2" data-name="미세플라스틱-192" class="cls-3" cx="1170.82" cy="125.98" r="2.51"/><circle id="미세플라스틱-193-2" data-name="미세플라스틱-193" class="cls-3" cx="1165.34" cy="135.56" r="2.51"/><circle id="미세플라스틱-194-2" data-name="미세플라스틱-194" class="cls-3" cx="1162.23" cy="138.67" r="2.51"/><circle id="미세플라스틱-195-2" data-name="미세플라스틱-195" class="cls-3" cx="1170.82" cy="133.12" r="2.51"/><circle id="미세플라스틱-196-2" data-name="미세플라스틱-196" class="cls-3" cx="1162.23" cy="125.45" r="2.51"/><circle id="미세플라스틱-197-2" data-name="미세플라스틱-197" class="cls-3" cx="1166.99" cy="123.53" r="2.51"/><circle id="미세플라스틱-198-2" data-name="미세플라스틱-198" class="cls-3" cx="1160.31" cy="132.39" r="2.51"/><circle id="미세플라스틱-199-2" data-name="미세플라스틱-199" class="cls-3" cx="1157.67" cy="137.55" r="2.51"/><circle id="미세플라스틱-200-2" data-name="미세플라스틱-200" class="cls-3" cx="1150.33" cy="137.55" r="2.51"/><circle id="미세플라스틱-201-2" data-name="미세플라스틱-201" class="cls-3" cx="1154.37" cy="139.6" r="2.51"/><circle id="미세플라스틱-202-2" data-name="미세플라스틱-202" class="cls-3" cx="1157.87" cy="127.7" r="2.51"/><circle id="미세플라스틱-203-2" data-name="미세플라스틱-203" class="cls-3" cx="1153.9" cy="133.12" r="2.51"/><circle id="미세플라스틱-204-2" data-name="미세플라스틱-204" class="cls-3" cx="1146.57" cy="133.12" r="2.51"/><circle id="미세플라스틱-205-2" data-name="미세플라스틱-205" class="cls-3" cx="1143.79" cy="130.61" r="2.51"/><circle id="미세플라스틱-206-2" data-name="미세플라스틱-206" class="cls-3" cx="1153.44" cy="125.45" r="2.51"/><circle id="미세플라스틱-207-2" data-name="미세플라스틱-207" class="cls-3" cx="1150.33" cy="128.62" r="2.51"/><circle id="미세플라스틱-208-2" data-name="미세플라스틱-208" class="cls-3" cx="1143.2" cy="126.91" r="2.51"/><circle id="미세플라스틱-209-2" data-name="미세플라스틱-209" class="cls-3" cx="1147.82" cy="123.53" r="2.51"/><circle id="미세플라스틱-210-2" data-name="미세플라스틱-210" class="cls-3" cx="1142.67" cy="119.97" r="2.51"/><circle id="미세플라스틱-211-2" data-name="미세플라스틱-211" class="cls-3" cx="1144.32" cy="121.75" r="2.51"/></g><path class="cls-19" d="M40.83,53.81H76.15a0,0,0,0,1,0,0V70.63a2,2,0,0,1-2,2H42.83a2,2,0,0,1-2-2V53.81a0,0,0,0,1,0,0Z" transform="translate(116.98 126.44) rotate(-180)"/></g></g></svg>