<?xml version="1.0" encoding="utf-8"?>
<!-- Generator: Adobe Illustrator 24.0.1, SVG Export Plug-In . SVG Version: 6.00 Build 0)  -->
<svg version="1.1" id="Layer_1" xmlns="http://www.w3.org/2000/svg" xmlns:xlink="http://www.w3.org/1999/xlink" x="0px" y="0px"
	 viewBox="0 0 1708 782.4" style="enable-background:new 0 0 1708 782.4;" xml:space="preserve">
<style type="text/css">
	.st0{fill:#051027;}
	.st1{font-family:'ProximaNova-Regular';}
	.st2{font-size:20px;}
	.st3{fill:#00CBE1;}
	.st4{fill:#EE4324;}
	.st5{font-size:24px;}
	.st6{fill:none;stroke:#FFFFFF;stroke-miterlimit:10;}
	.st7{font-family:'ProximaNova-Medium';}
	.st8{letter-spacing:-1;}
	.st9{letter-spacing:-2;}
	.st10{font-family:'ProximaNova-Light';}
	.st11{font-size:30px;}
	.st12{fill:#FFFFFF;}
</style>
<title>gd3</title>
<text transform="matrix(1 0 0 1 1638.9 578.73)" class="st0 st1 st2">45</text>
<text transform="matrix(1 0 0 1 1637.8 429.23)" class="st0 st1 st2">90</text>
<text transform="matrix(1 0 0 1 1632.14 279.73)" class="st0 st1 st2">135</text>
<text transform="matrix(1 0 0 1 1631.22 130.13)" class="st0 st1 st2">180</text>
<rect x="6.4" y="138.9" class="st3" width="73.1" height="584.4"/>
<rect x="120.5" y="246.2" class="st3" width="73.1" height="477.1"/>
<rect x="120.5" y="454.8" class="st4" width="73.1" height="268.4"/>
<rect x="234.7" y="394" class="st3" width="73.1" height="329.2"/>
<rect x="348.8" y="400.3" class="st3" width="73" height="322.9"/>
<rect x="463" y="400.3" class="st3" width="73" height="322.9"/>
<rect x="577.1" y="457.8" class="st3" width="73" height="265.5"/>
<rect x="691.2" y="489.7" class="st3" width="73" height="233.5"/>
<rect x="805.4" y="492.4" class="st3" width="73" height="230.9"/>
<rect x="919.5" y="495" class="st3" width="73" height="228.2"/>
<rect x="1033.7" y="552.5" class="st3" width="73.1" height="170.8"/>
<rect x="1147.8" y="557.1" class="st3" width="73.1" height="166.1"/>
<rect x="1261.9" y="580.7" class="st3" width="73.1" height="142.5"/>
<rect x="1376.1" y="616.3" class="st3" width="73.1" height="107"/>
<rect x="1490.2" y="654.5" class="st3" width="73.1" height="68.8"/>
<text transform="matrix(1 0 0 1 1475.54 774.64)" class="st0 st1 st5">Indonesia</text>
<text transform="matrix(1 0 0 1 1383.72 774.64)" class="st0 st1 st5">Brazil</text>
<text transform="matrix(1 0 0 1 1264.38 774.64)" class="st0 st1 st5">Russia</text>
<text transform="matrix(1 0 0 1 1138.85 774.64)" class="st0 st1 st5">A</text>
<text transform="matrix(1 0 0 1 1154.35 774.64)" class="st0 st1 st5">ustralia</text>
<text transform="matrix(1 0 0 1 1054.5699 774.64)" class="st0 st1 st5">UK</text>
<text transform="matrix(1 0 0 1 919.85 774.64)" class="st0 st1 st5">France</text>
<text transform="matrix(1 0 0 1 811.53 774.64)" class="st0 st1 st5">China</text>
<text transform="matrix(1 0 0 1 695.91 774.64)" class="st0 st1 st5">Japan</text>
<text transform="matrix(1 0 0 1 573.02 774.64)" class="st0 st1 st5">Canada</text>
<text transform="matrix(1 0 0 1 451.69 774.64)" class="st0 st1 st5">Germany</text>
<text transform="matrix(1 0 0 1 364.03 774.64)" class="st0 st1 st5">Italy</text>
<text transform="matrix(1 0 0 1 247.98 774.64)" class="st0 st1 st5">U</text>
<text transform="matrix(1 0 0 1 264.78 774.64)" class="st0 st1 st5">S</text>
<text transform="matrix(1 0 0 1 278.6 774.64)" class="st0 st1 st5">A</text>
<text transform="matrix(1 0 0 1 116.54 774.64)" class="st4 st1 st5">S.</text>
<text transform="matrix(1 0 0 1 136.12 774.64)" class="st4 st1 st5">K</text>
<text transform="matrix(1 0 0 1 149.73 774.64)" class="st4 st1 st5">orea</text>
<text transform="matrix(1 0 0 1 0 774.64)" class="st0 st1 st5">Belgium</text>
<line class="st6" x1="6.4" y1="573.5" x2="1604.4" y2="573.8"/>
<line class="st6" x1="6.4" y1="723" x2="1604.4" y2="723.2"/>
<line class="st6" x1="6.4" y1="424" x2="1604.4" y2="424.2"/>
<line class="st6" x1="6.4" y1="274.5" x2="1604.4" y2="274.8"/>
<line class="st6" x1="6.4" y1="125.1" x2="1604.4" y2="125.1"/>
<text transform="matrix(1 0 0 1 15.17 119.11)" class="st3 st7 st5">175.9</text>
<text transform="matrix(1 0 0 1 139.13 235.11)" class="st3 st7 st5">143</text>
<text transform="matrix(1 0 0 1 251.06 383.02)" class="st3 st7 st5">9</text>
<text transform="matrix(1 0 0 1 265.36 383.02)" class="st3 st7 st5">9</text>
<text transform="matrix(1 0 0 1 279 383.02)" class="st3 st7 st5 st8">.</text>
<text transform="matrix(1 0 0 1 282.69 383.02)" class="st3 st7 st5">1</text>
<text transform="matrix(1 0 0 1 363.1 389.34)" class="st3 st7 st5">9</text>
<text transform="matrix(1 0 0 1 377.4 389.34)" class="st3 st7 st5 st9">7</text>
<text transform="matrix(1 0 0 1 387.65 389.34)" class="st3 st7 st5">.2</text>
<text transform="matrix(1 0 0 1 477.25 389.34)" class="st3 st7 st5">9</text>
<text transform="matrix(1 0 0 1 491.55 389.34)" class="st3 st7 st5 st9">7</text>
<text transform="matrix(1 0 0 1 501.8 389.34)" class="st3 st7 st5">.2</text>
<text transform="matrix(1 0 0 1 590.57 446.81)" class="st3 st7 st5">7</text>
<text transform="matrix(1 0 0 1 603.12 446.81)" class="st3 st7 st5">9</text>
<text transform="matrix(1 0 0 1 616.75 446.81)" class="st3 st7 st5">.2</text>
<text transform="matrix(1 0 0 1 704.81 478.7)" class="st3 st7 st5">7</text>
<text transform="matrix(1 0 0 1 717.36 478.7)" class="st3 st7 st5">0</text>
<text transform="matrix(1 0 0 1 731.43 478.7)" class="st3 st7 st5">.3</text>
<text transform="matrix(1 0 0 1 817.9399 481.36)" class="st3 st7 st5">6</text>
<text transform="matrix(1 0 0 1 832.24 481.36)" class="st3 st7 st5">9</text>
<text transform="matrix(1 0 0 1 845.88 481.36)" class="st3 st7 st5">.5</text>
<text transform="matrix(1 0 0 1 933.52 484.02)" class="st3 st7 st5">68</text>
<text transform="matrix(1 0 0 1 961.9399 484.02)" class="st3 st7 st5 st8">.</text>
<text transform="matrix(1 0 0 1 966.02 484.02)" class="st3 st7 st5">7</text>
<text transform="matrix(1 0 0 1 1049.05 541.49)" class="st3 st7 st5">51.4</text>
<text transform="matrix(1 0 0 1 1169.8199 546.15)" class="st3 st7 st5">50</text>
<text transform="matrix(1 0 0 1 1504.3199 643.49)" class="st3 st7 st5">2</text>
<text transform="matrix(1 0 0 1 1518.5 643.49)" class="st3 st7 st5">0</text>
<text transform="matrix(1 0 0 1 1532.5699 643.49)" class="st3 st7 st5 st8">.</text>
<text transform="matrix(1 0 0 1 1536.6499 643.49)" class="st3 st7 st5">7</text>
<text transform="matrix(1 0 0 1 1274.54 569.73)" class="st3 st7 st5">42.9</text>
<text transform="matrix(1 0 0 1 1388.79 605.28)" class="st3 st7 st5">32.2</text>
<text transform="matrix(1 0 0 1 1603.9301 90.23)" class="st0 st1 st2">k</text>
<text transform="matrix(1 0 0 1 1613.75 90.23)" class="st0 st1 st2">g /capita</text>
<text transform="matrix(1 0 0 1 6.37 24.99)" class="st0 st10 st11">Global Consumption of Plastic  By </text>
<text transform="matrix(1 0 0 1 449.64 24.99)" class="st0 st10 st11">R</text>
<text transform="matrix(1 0 0 1 466.56 24.99)" class="st0 st10 st11">egion (2019)</text>
<text transform="matrix(1 0 0 1 1649.62 728.23)" class="st0 st1 st2">0</text>
<rect x="891" y="54" class="st4" width="29" height="29"/>
<rect x="891" y="0.5" class="st3" width="29" height="29"/>
<g>
	<path class="st0" d="M940.1,9.8H936V8.4h9.8v1.4h-4.1v11.5h-1.6L940.1,9.8z"/>
	<path class="st0" d="M953.4,8.2c3.5-0.1,6.4,2.7,6.4,6.2c0,0.1,0,0.3,0,0.4c0.1,3.5-2.6,6.5-6.2,6.7c-3.5,0.1-6.5-2.6-6.7-6.2
		c0-0.2,0-0.4,0-0.5c-0.2-3.5,2.5-6.5,5.9-6.7C953.1,8.2,953.2,8.2,953.4,8.2z M953.4,9.6c-2.9,0-4.8,2.2-4.8,5.3s1.8,5.3,4.8,5.3
		s4.8-2.2,4.8-5.3S956.3,9.6,953.4,9.6z"/>
	<path class="st0" d="M965,9.8h-4.1V8.4h9.8v1.4h-4.1v11.5H965L965,9.8z"/>
	<path class="st0" d="M979.7,18.5h-6.6l-1.1,2.9h-1.8l5.2-12.9h2l5.2,12.9h-1.8L979.7,18.5z M973.6,17h5.6l-2.8-7.2L973.6,17z"/>
	<path class="st0" d="M984.3,8.4h1.6v11.5h6v1.4h-7.6V8.4z"/>
	<path class="st0" d="M999.3,8.4h5.2c2.1-0.1,3.9,1.4,4.1,3.5c0,0.1,0,0.3,0,0.4c0.1,2.1-1.6,3.9-3.7,3.9c-0.1,0-0.2,0-0.3,0h-3.6
		v5.1h-1.6L999.3,8.4z M1004.3,9.8h-3.4v4.9h3.4c1.4,0.1,2.5-0.9,2.6-2.3c0.1-1.4-0.9-2.5-2.3-2.6C1004.5,9.8,1004.4,9.8,1004.3,9.8
		z"/>
	<path class="st0" d="M1010.7,8.4h1.6v11.5h6v1.4h-7.6V8.4z"/>
	<path class="st0" d="M1028.7,18.5h-6.6l-1.1,2.9h-1.8l5.2-12.9h2l5.2,12.9h-1.8L1028.7,18.5z M1022.6,17h5.6l-2.8-7.2L1022.6,17z"
		/>
	<path class="st0" d="M1033.2,18.3c1,1.2,2.5,1.8,4.1,1.8c2.3,0,3.1-1.2,3.1-2.2c0-1.6-1.6-2-3.3-2.5c-2.1-0.5-4.4-1.1-4.4-3.7
		c0-2.1,1.9-3.6,4.4-3.6c1.7-0.1,3.4,0.6,4.6,1.8l-1,1.2c-1-1-2.3-1.6-3.8-1.6c-1.6,0-2.7,0.8-2.7,2.1s1.5,1.7,3.1,2.1
		c2.1,0.6,4.5,1.2,4.5,3.9c0,1.9-1.3,3.8-4.8,3.8c-1.9,0.1-3.7-0.7-5-2.1L1033.2,18.3z"/>
	<path class="st0" d="M1047.5,9.8h-4V8.4h9.8v1.4h-4.1v11.5h-1.6L1047.5,9.8z"/>
	<path class="st0" d="M1055.4,8.4h1.6v12.9h-1.6V8.4z"/>
	<path class="st0" d="M1059.5,14.9c-0.1-3.6,2.7-6.5,6.3-6.7c0.1,0,0.2,0,0.3,0c2-0.1,3.9,0.9,5,2.6l-1.4,0.8
		c-0.8-1.2-2.2-1.9-3.6-1.9c-2.7,0-5,2.2-4.9,5c0,0.1,0,0.2,0,0.3c-0.2,2.7,1.9,5.1,4.7,5.3c0.1,0,0.2,0,0.3,0
		c1.4,0,2.8-0.7,3.6-1.9l1.4,0.8c-1.1,1.6-3,2.6-5,2.6c-3.6,0.1-6.5-2.8-6.6-6.3C1059.5,15.2,1059.5,15,1059.5,14.9z"/>
	<path class="st0" d="M1085.2,10.9l-2.9,10.4h-1.7l-3.7-12.9h1.8l2.9,10.8l3-10.8h1.3l3,10.8l2.9-10.8h1.8l-3.7,12.9h-1.8
		L1085.2,10.9z"/>
	<path class="st0" d="M1102.6,18.5h-6.6l-1.1,2.9h-1.8l5.2-12.9h2l5.2,12.9h-1.8L1102.6,18.5z M1096.5,17h5.6l-2.8-7.2L1096.5,17z"
		/>
	<path class="st0" d="M1107.1,18.3c1,1.2,2.5,1.8,4.1,1.8c2.3,0,3-1.2,3-2.2c0-1.6-1.6-2-3.3-2.5c-2.1-0.5-4.4-1.1-4.4-3.7
		c0-2.1,1.9-3.6,4.4-3.6c1.7-0.1,3.4,0.6,4.6,1.8l-1,1.2c-1-1-2.3-1.6-3.7-1.6c-1.6,0-2.7,0.8-2.7,2.1s1.5,1.7,3.1,2.1
		c2.1,0.6,4.5,1.2,4.5,3.9c0,1.9-1.3,3.8-4.8,3.8c-1.9,0.1-3.7-0.7-5-2.1L1107.1,18.3z"/>
	<path class="st0" d="M1121.4,9.8h-4.1V8.4h9.8v1.4h-4.1v11.5h-1.6L1121.4,9.8z"/>
	<path class="st0" d="M1129.2,8.4h8.5v1.4h-6.9V14h6.7v1.5h-6.7v4.4h6.9v1.4h-8.5V8.4z"/>
	<path class="st0" d="M1141,11.8c0.6,0,1.1,0.5,1.1,1.1c0,0.6-0.5,1.1-1.1,1.1s-1.1-0.5-1.1-1.1C1139.9,12.3,1140.4,11.8,1141,11.8z
		 M1141,19.4c0.6,0,1.1,0.5,1.1,1.1s-0.5,1.1-1.1,1.1s-1.1-0.5-1.1-1.1S1140.4,19.4,1141,19.4z"/>
	<path class="st0" d="M1151.7,10.5l-2.1,2.2l-1-1l3.2-3.3h1.4v12.9h-1.6L1151.7,10.5z"/>
	<path class="st0" d="M1160.8,8.2c3.5,0,4.9,3.5,4.9,6.7s-1.4,6.7-4.9,6.7s-5-3.6-5-6.7S1157.2,8.2,1160.8,8.2z M1160.8,9.7
		c-2.5,0-3.3,2.7-3.3,5.2s0.8,5.3,3.3,5.3s3.3-2.7,3.3-5.3S1163.2,9.7,1160.8,9.7z"/>
	<path class="st0" d="M1172.6,8.2c3.5,0,5,3.5,5,6.7s-1.4,6.7-5,6.7s-5-3.6-5-6.7S1169.1,8.2,1172.6,8.2z M1172.6,9.7
		c-2.5,0-3.3,2.7-3.3,5.2s0.8,5.3,3.3,5.3s3.3-2.7,3.3-5.3S1175.1,9.7,1172.6,9.7z"/>
	<path class="st0" d="M1182.2,8.2c1.7,0,3.1,1.3,3.2,3c0,0.1,0,0.1,0,0.2c0,1.7-1.4,3.1-3.1,3.1c-1.7,0-3.1-1.4-3.1-3.1
		c-0.1-1.7,1.2-3.1,2.9-3.2C1182.1,8.2,1182.2,8.2,1182.2,8.2z M1182.2,9.2c-1.1,0-2,1-2,2.1c0,0,0,0.1,0,0.1
		c-0.1,1.1,0.7,2.1,1.8,2.2c1.1,0.1,2.1-0.7,2.2-1.8c0-0.1,0-0.3,0-0.4c0.1-1.1-0.7-2.1-1.9-2.2C1182.3,9.2,1182.3,9.2,1182.2,9.2z
		 M1189.3,8.4h1.1l-8.3,12.9h-1L1189.3,8.4z M1189,15.2c1.7,0,3.1,1.3,3.1,3c0,0.1,0,0.1,0,0.2c0.1,1.7-1.2,3.2-2.9,3.3
		s-3.2-1.2-3.3-2.9c0-0.1,0-0.2,0-0.4c-0.1-1.7,1.2-3.1,2.9-3.2C1188.9,15.2,1189,15.2,1189,15.2L1189,15.2z M1189,16.2
		c-1.1,0-2,1-2,2.1c0,0,0,0.1,0,0.1c-0.1,1.1,0.6,2.1,1.7,2.2c1.1,0.1,2.1-0.6,2.2-1.7c0-0.2,0-0.3,0-0.5c0.1-1.1-0.7-2.1-1.9-2.2
		C1189.1,16.2,1189.1,16.2,1189,16.2L1189,16.2z"/>
</g>
<g>
	<path class="st0" d="M936,62h5.2c2.1-0.2,4.1,1.3,4.3,3.5c0.2,2.1-1.3,4.1-3.5,4.3c-0.3,0-0.6,0-0.8,0h-3.6v5.1H936V62z
		 M941.1,63.4h-3.4v4.9h3.4c1.4,0,2.5-1.1,2.5-2.5C943.5,64.5,942.4,63.4,941.1,63.4L941.1,63.4z"/>
	<path class="st0" d="M947.5,62h1.6v11.5h6v1.4h-7.6V62z"/>
	<path class="st0" d="M965.5,72.1H959l-1.1,2.9H956l5.2-12.9h2l5.2,12.9h-1.8L965.5,72.1z M959.4,70.7h5.6l-2.8-7.2L959.4,70.7z"/>
	<path class="st0" d="M970.1,71.9c1,1.2,2.5,1.8,4.1,1.8c2.3,0,3.1-1.2,3.1-2.2c0-1.6-1.6-2-3.3-2.5c-2.1-0.5-4.4-1.1-4.4-3.7
		c0-2.1,1.9-3.6,4.4-3.6c1.7-0.1,3.4,0.6,4.6,1.8l-1,1.2c-1-1-2.3-1.6-3.7-1.6c-1.6,0-2.7,0.8-2.7,2.1c0,1.2,1.5,1.7,3.2,2.1
		c2.1,0.6,4.5,1.2,4.5,3.9c0,1.9-1.3,3.8-4.8,3.8c-1.9,0.1-3.7-0.7-5-2.1L970.1,71.9z"/>
	<path class="st0" d="M984.3,63.4h-4.1V62h9.8v1.4H986v11.5h-1.6L984.3,63.4z"/>
	<path class="st0" d="M992.2,62h1.6v12.9h-1.6L992.2,62z"/>
	<path class="st0" d="M996.3,68.4c-0.1-3.6,2.7-6.5,6.3-6.7c0.1,0,0.3,0,0.4,0c2,0,3.9,0.9,5,2.6l-1.4,0.8c-0.8-1.2-2.2-1.9-3.6-1.9
		c-2.9,0.2-5.1,2.7-4.9,5.6c0.2,2.6,2.3,4.7,4.9,4.9c1.4,0,2.8-0.7,3.6-1.9l1.4,0.8c-1.1,1.6-3,2.6-5,2.6c-3.6,0.1-6.5-2.7-6.7-6.3
		C996.3,68.8,996.3,68.6,996.3,68.4z"/>
	<path class="st0" d="M1015,62h5.2c2.1-0.2,4.1,1.3,4.3,3.5c0.2,2.1-1.3,4.1-3.5,4.3c-0.3,0-0.6,0-0.8,0h-3.6v5.1h-1.6V62z
		 M1020,63.4h-3.4v4.9h3.4c1.4,0,2.5-1.1,2.5-2.5C1022.4,64.5,1021.3,63.4,1020,63.4L1020,63.4z"/>
	<path class="st0" d="M1033,72.1h-6.6l-1.1,2.9h-1.8l5.2-12.9h2l5.2,12.9h-1.8L1033,72.1z M1026.9,70.6h5.6l-2.8-7.2L1026.9,70.6z"
		/>
	<path class="st0" d="M1036.4,68.4c-0.1-3.6,2.7-6.5,6.3-6.7c0.1,0,0.2,0,0.3,0c2-0.1,3.9,0.9,5,2.6l-1.4,0.8
		c-0.8-1.2-2.2-1.9-3.6-1.9c-2.9,0.2-5.1,2.7-4.9,5.6c0.2,2.6,2.3,4.7,4.9,4.9c1.4,0,2.8-0.7,3.6-1.9l1.4,0.8c-1.1,1.6-3,2.6-5,2.6
		c-3.6,0.1-6.5-2.7-6.6-6.3C1036.4,68.7,1036.4,68.6,1036.4,68.4z"/>
	<path class="st0" d="M1053,69.1l-1.3,1.5V75h-1.6V62h1.6v6.7l5.7-6.7h2l-5.4,6.1l5.9,6.8h-2L1053,69.1z"/>
	<path class="st0" d="M1069.9,72.1h-6.6l-1.1,2.9h-1.8l5.2-12.9h2l5.2,12.9h-1.8L1069.9,72.1z M1063.8,70.7h5.6l-2.8-7.2
		L1063.8,70.7z"/>
	<path class="st0" d="M1079.9,61.8c2,0,3.8,0.9,5,2.4l-1.3,0.8c-0.9-1.1-2.3-1.8-3.8-1.8c-2.9,0.2-5.1,2.7-4.9,5.6
		c0.2,2.6,2.3,4.8,4.9,4.9c1.3,0,2.5-0.5,3.5-1.4v-2.6h-4.4v-1.4h6.1V73c-1.3,1.4-3.2,2.2-5.1,2.2c-3.7,0-6.7-3-6.7-6.7
		C1073.2,64.8,1076.2,61.8,1079.9,61.8z"/>
	<path class="st0" d="M1087.6,62h1.6v12.9h-1.6V62z"/>
	<path class="st0" d="M1093.9,64.5v10.4h-1.6V62h1.6l7.5,10.2V62h1.6v12.9h-1.5L1093.9,64.5z"/>
	<path class="st0" d="M1112.2,61.8c2,0,3.8,0.9,5,2.4l-1.3,0.8c-0.9-1.1-2.3-1.8-3.7-1.8c-2.9,0.2-5.1,2.7-4.9,5.6
		c0.2,2.6,2.3,4.8,4.9,4.9c1.3,0,2.5-0.5,3.5-1.4v-2.6h-4.4v-1.4h6.1V73c-1.3,1.4-3.1,2.2-5.1,2.2c-3.7,0-6.7-3-6.7-6.7
		C1105.5,64.8,1108.5,61.8,1112.2,61.8L1112.2,61.8z"/>
	<path class="st0" d="M1131.9,64.5l-2.9,10.4h-1.7l-3.7-12.9h1.8l2.9,10.8l3-10.8h1.3l3,10.8l2.9-10.8h1.8l-3.7,12.9h-1.8
		L1131.9,64.5z"/>
	<path class="st0" d="M1149.3,72.1h-6.6l-1.1,2.9h-1.8L1145,62h2l5.2,12.9h-1.8L1149.3,72.1z M1143.2,70.7h5.6l-2.8-7.2L1143.2,70.7
		z"/>
	<path class="st0" d="M1153.8,71.9c1,1.2,2.5,1.8,4.1,1.8c2.3,0,3-1.2,3-2.2c0-1.6-1.6-2-3.3-2.5c-2.1-0.5-4.4-1.1-4.4-3.7
		c0-2.1,1.9-3.6,4.4-3.6c1.7-0.1,3.4,0.6,4.6,1.8l-1,1.2c-1-1-2.3-1.6-3.7-1.6c-1.6,0-2.7,0.8-2.7,2.1c0,1.2,1.5,1.7,3.1,2.1
		c2.1,0.6,4.5,1.2,4.5,3.9c0,1.9-1.3,3.8-4.8,3.8c-1.9,0.1-3.7-0.7-5-2.1L1153.8,71.9z"/>
	<path class="st0" d="M1168.1,63.4h-4.1V62h9.8v1.4h-4.1v11.5h-1.6V63.4z"/>
	<path class="st0" d="M1175.9,62h8.5v1.4h-6.9v4.2h6.7V69h-6.7v4.4h6.9v1.4h-8.5V62z"/>
	<path class="st0" d="M1187.7,65.4c0.6,0,1.1,0.5,1.1,1.1c0,0.6-0.5,1.1-1.1,1.1s-1.1-0.5-1.1-1.1
		C1186.6,65.9,1187.1,65.4,1187.7,65.4z M1187.7,73c0.6,0,1.1,0.5,1.1,1.1c0,0.6-0.5,1.1-1.1,1.1s-1.1-0.5-1.1-1.1
		C1186.6,73.5,1187.1,73,1187.7,73z"/>
	<path class="st0" d="M1197.2,72c0.8,1.1,2.2,1.8,3.6,1.7c1.5,0.1,2.9-1.1,3-2.6c0-0.1,0-0.1,0-0.2c0-1.5-1.1-2.8-2.7-2.8
		c-0.1,0-0.2,0-0.3,0c-1.1,0-2.2,0.4-3,1.2l-1.2-0.4v-7h7.9v1.4h-6.3v4.5c0.8-0.7,1.9-1.1,3-1.1c2.2-0.1,4,1.6,4.1,3.8
		c0,0.1,0,0.2,0,0.3c0,2.3-1.9,4.3-4.2,4.3c-0.1,0-0.3,0-0.4,0c-1.8,0.1-3.5-0.7-4.6-2.1L1197.2,72z"/>
	<path class="st0" d="M1213.2,71.7h-6.2v-1.3l5.6-8.3h2.2v8.2h1.8v1.4h-1.8V75h-1.6V71.7z M1208.6,70.2h4.6v-6.8L1208.6,70.2z"/>
	<path class="st0" d="M1220.9,61.8c1.7,0,3.1,1.3,3.2,3c0,0.1,0,0.1,0,0.2c-0.1,1.7-1.5,3.1-3.2,3s-3.1-1.5-3-3.2
		C1217.9,63.1,1219.3,61.8,1220.9,61.8z M1220.9,62.8c-1.2-0.1-2.3,0.8-2.4,2c-0.1,1.2,0.8,2.3,2,2.4c1.2,0.1,2.3-0.8,2.4-2
		c0-0.1,0-0.1,0-0.2c0.1-1.1-0.7-2.1-1.8-2.2C1221,62.8,1221,62.8,1220.9,62.8L1220.9,62.8z M1228,62h1.1l-8.3,12.9h-1.1L1228,62z
		 M1227.7,68.8c1.7,0,3.1,1.3,3.1,3c0,0.1,0,0.1,0,0.2c0.1,1.7-1.2,3.2-2.9,3.3c-1.7,0.1-3.2-1.2-3.3-2.9c0-0.1,0-0.2,0-0.4
		c-0.1-1.7,1.2-3.1,2.9-3.2C1227.6,68.8,1227.6,68.8,1227.7,68.8L1227.7,68.8z M1227.7,69.8c-1.2-0.1-2.3,0.7-2.5,2s0.7,2.3,2,2.5
		c1.2,0.1,2.3-0.7,2.5-2c0-0.1,0-0.2,0-0.2c0.1-1.1-0.7-2.1-1.9-2.2C1227.8,69.8,1227.7,69.8,1227.7,69.8L1227.7,69.8z"/>
</g>
<path class="st12" d="M136.7,593.2c1.1,1.3,2.7,2.1,4.4,2c1.8,0.2,3.3-1.1,3.5-2.9c0-0.1,0-0.2,0-0.2c0-1.9-1.4-3.1-3.4-3.1
	c-1.3,0-2.6,0.5-3.6,1.4l-1.7-0.5V581h10.1v2.1h-7.7v5.1c1-0.9,2.3-1.4,3.7-1.4c2.7-0.1,5,2,5.1,4.7c0,0.2,0,0.3,0,0.5
	c0,3.3-2.5,5.3-5.9,5.3c-2.2,0.1-4.4-0.8-5.8-2.5L136.7,593.2z"/>
<path class="st12" d="M156.4,593.2h-7.6v-2l6.7-10.2h3.3V591h2.2v2.1h-2.2v3.9h-2.4V593.2z M151.2,591.1h5.2v-7.9L151.2,591.1z"/>
<path class="st12" d="M166.4,580.8c2.2,0.3,3.7,2.3,3.4,4.5c-0.3,1.8-1.6,3.1-3.4,3.4c-2.2-0.3-3.7-2.3-3.4-4.5
	C163.2,582.4,164.6,581,166.4,580.8z M166.4,582.2c-1.4-0.2-2.7,0.9-2.8,2.3c-0.2,1.4,0.9,2.7,2.3,2.8s2.7-0.9,2.8-2.3
	c0-0.1,0-0.2,0-0.3c0.1-1.3-0.8-2.4-2.1-2.6C166.5,582.2,166.4,582.2,166.4,582.2z M175.1,581h1.5l-10.2,16h-1.4L175.1,581z
	 M174.9,589.4c2.2,0,4,1.7,4.1,3.9c0,2.2-1.7,4-3.9,4.1c-2.2,0-4-1.7-4.1-3.9c0,0,0-0.1,0-0.1c-0.1-2.1,1.5-3.9,3.6-4
	C174.7,589.4,174.8,589.4,174.9,589.4L174.9,589.4z M174.9,590.8c-1.4-0.2-2.7,0.9-2.8,2.3c-0.2,1.4,0.9,2.7,2.3,2.8
	s2.7-0.9,2.8-2.3c0-0.1,0-0.2,0-0.3c0.1-1.3-0.8-2.4-2.1-2.6C175,590.8,174.9,590.8,174.9,590.8L174.9,590.8z"/>
</svg>
