<svg xmlns="http://www.w3.org/2000/svg" viewBox="0 0 1689.15 785.54"><defs><style>.cls-1{font-size:20px;}.cls-1,.cls-17,.cls-4{fill:#003755;}.cls-1,.cls-17,.cls-4,.cls-7{font-family:ProximaNova-Regular, Proxima Nova;}.cls-10,.cls-2{fill:#49f0f0;}.cls-3,.cls-7{fill:#ef4325;}.cls-10,.cls-4,.cls-7{font-size:24px;}.cls-5{letter-spacing:-0.01em;}.cls-6{letter-spacing:-0.01em;}.cls-8{letter-spacing:-0.03em;}.cls-9{fill:none;stroke:#fff;stroke-miterlimit:10;}.cls-10{font-family:ProximaNova-Medium, Proxima Nova;font-weight:500;}.cls-11{letter-spacing:-0.03em;}.cls-12{letter-spacing:-0.08em;}.cls-13{letter-spacing:0em;}.cls-14{letter-spacing:-0.1em;}.cls-15{letter-spacing:-0.07em;}.cls-16{letter-spacing:-0.02em;}.cls-17{font-size:30px;}.cls-18{letter-spacing:-0.03em;}.cls-19{letter-spacing:-0.03em;}.cls-20{letter-spacing:-0.07em;}.cls-21{letter-spacing:-0.01em;}.cls-22{letter-spacing:-0.01em;}.cls-23{letter-spacing:-0.05em;}.cls-24{letter-spacing:-0.01em;}.cls-25{letter-spacing:-0.01em;}.cls-26{letter-spacing:-0.08em;}.cls-27{letter-spacing:-0.04em;}.cls-28{fill:#fff;}</style></defs><title>gr2</title><g id="Layer_2" data-name="Layer 2"><g id="Layer_1-2" data-name="Layer 1"><text class="cls-1" transform="translate(1638.9 581.83)">45</text><text class="cls-1" transform="translate(1637.8 432.33)">90</text><text class="cls-1" transform="translate(1632.14 282.83)">135</text><text class="cls-1" transform="translate(1631.22 133.23)">180</text><rect class="cls-2" x="6.37" y="141.97" width="73.05" height="584.38"/><rect class="cls-2" x="120.52" y="249.28" width="73.05" height="477.07"/><rect class="cls-3" x="120.52" y="457.92" width="73.05" height="268.43"/><rect class="cls-2" x="234.66" y="397.12" width="73.05" height="329.23"/><rect class="cls-2" x="348.8" y="403.43" width="73.05" height="322.92"/><rect class="cls-2" x="462.95" y="403.43" width="73.05" height="322.92"/><rect class="cls-2" x="577.09" y="460.91" width="73.05" height="265.45"/><rect class="cls-2" x="691.23" y="492.8" width="73.05" height="233.55"/><rect class="cls-2" x="805.37" y="495.46" width="73.05" height="230.89"/><rect class="cls-2" x="919.52" y="498.12" width="73.05" height="228.24"/><rect class="cls-2" x="1033.66" y="555.59" width="73.05" height="170.76"/><rect class="cls-2" x="1147.8" y="560.24" width="73.05" height="166.11"/><rect class="cls-2" x="1261.95" y="583.83" width="73.05" height="142.52"/><rect class="cls-2" x="1376.09" y="619.38" width="73.05" height="106.98"/><rect class="cls-2" x="1490.23" y="657.58" width="73.05" height="68.77"/><text class="cls-4" transform="translate(1475.54 777.74)">Indonesia</text><text class="cls-4" transform="translate(1383.72 777.74)">Brazil</text><text class="cls-4" transform="translate(1264.38 777.74)">Russia</text><text class="cls-4" transform="translate(1138.85 777.74)"><tspan class="cls-5">A</tspan><tspan x="15.5" y="0">ustralia</tspan></text><text class="cls-4" transform="translate(1054.57 777.74)">UK</text><text class="cls-4" transform="translate(919.85 777.74)">France</text><text class="cls-4" transform="translate(811.53 777.74)">China</text><text class="cls-4" transform="translate(695.91 777.74)">Japan</text><text class="cls-4" transform="translate(573.02 777.74)">Canada</text><text class="cls-4" transform="translate(451.69 777.74)">Germany</text><text class="cls-4" transform="translate(364.03 777.74)">Italy</text><text class="cls-4" transform="translate(247.98 777.74)">U<tspan class="cls-6" x="16.8" y="0">S</tspan><tspan x="30.62" y="0">A</tspan></text><text class="cls-7" transform="translate(116.54 777.74)">S.<tspan class="cls-8" x="19.58" y="0">K</tspan><tspan x="33.19" y="0">orea</tspan></text><text class="cls-4" transform="translate(0 777.74)">Belgium</text><line class="cls-9" x1="6.43" y1="576.65" x2="1604.43" y2="576.85"/><line class="cls-9" x1="6.43" y1="726.15" x2="1604.43" y2="726.35"/><line class="cls-9" x1="6.43" y1="427.15" x2="1604.43" y2="427.35"/><line class="cls-9" x1="6.43" y1="277.65" x2="1604.43" y2="277.85"/><line class="cls-9" x1="6.43" y1="128.15" x2="1604.43" y2="128.15"/><text class="cls-10" transform="translate(15.17 122.22)">175.9</text><text class="cls-10" transform="translate(139.13 238.22)">143</text><text class="cls-10" transform="translate(251.06 386.13)">9<tspan class="cls-11" x="14.3" y="0">9</tspan><tspan class="cls-12" x="27.94" y="0">.</tspan><tspan class="cls-13" x="31.63" y="0">1</tspan></text><text class="cls-10" transform="translate(363.1 392.44)">9<tspan class="cls-14" x="14.3" y="0">7</tspan><tspan x="24.55" y="0">.2</tspan></text><text class="cls-10" transform="translate(477.25 392.44)">9<tspan class="cls-14" x="14.3" y="0">7</tspan><tspan x="24.55" y="0">.2</tspan></text><text class="cls-10" transform="translate(590.57 449.92)">7<tspan class="cls-11" x="12.55" y="0">9</tspan><tspan x="26.18" y="0">.2</tspan></text><text class="cls-10" transform="translate(704.81 481.81)">7<tspan class="cls-11" x="12.55" y="0">0</tspan><tspan x="26.62" y="0">.3</tspan></text><text class="cls-10" transform="translate(817.94 484.47)">6<tspan class="cls-11" x="14.3" y="0">9</tspan><tspan x="27.94" y="0">.5</tspan></text><text class="cls-10" transform="translate(933.52 487.13)">68<tspan class="cls-15" x="28.42" y="0">.</tspan><tspan x="32.5" y="0">7</tspan></text><text class="cls-10" transform="translate(1049.05 544.6)">51.4</text><text class="cls-10" transform="translate(1169.82 549.25)">50</text><text class="cls-10" transform="translate(1504.32 646.59)">2<tspan class="cls-11" x="14.18" y="0">0</tspan><tspan class="cls-15" x="28.25" y="0">.</tspan><tspan x="32.33" y="0">7</tspan></text><text class="cls-10" transform="translate(1274.54 572.84)">42.9</text><text class="cls-10" transform="translate(1388.79 608.39)">32.2</text><text class="cls-1" transform="translate(1603.93 93.33)"><tspan class="cls-16">k</tspan><tspan x="9.82" y="0">g /capita</tspan></text><text class="cls-17" transform="translate(6.37 24.99)"><tspan xml:space="preserve">Global Consumption of Plastic  By </tspan><tspan class="cls-18" x="450.47" y="0">R</tspan><tspan x="467.81" y="0">egion (2019)</tspan></text><text class="cls-1" transform="translate(1649.62 731.33)">0</text><rect class="cls-2" x="1224.43" y="8.08" width="29" height="29"/><rect class="cls-3" x="1224.43" y="61.65" width="29" height="29"/><text class="cls-17" transform="translate(1265.66 34.95) scale(0.58)"><tspan class="cls-19">TO</tspan><tspan class="cls-20" x="38.43" y="0">T</tspan><tspan x="53.52" y="0">AL PL</tspan><tspan class="cls-21" x="129.21" y="0">A</tspan><tspan class="cls-22" x="148.53" y="0">S</tspan><tspan x="165.93" y="0">TIC </tspan><tspan class="cls-23" x="218.22" y="0">W</tspan><tspan class="cls-24" x="243.3" y="0">A</tspan><tspan class="cls-25" x="262.62" y="0">S</tspan><tspan x="280.02" y="0">TE: 100%</tspan></text><text class="cls-17" transform="translate(1265.66 85.11) scale(0.58)">PL<tspan class="cls-21" x="32.91" y="0">A</tspan><tspan class="cls-22" x="52.23" y="0">S</tspan><tspan x="69.63" y="0">TIC </tspan><tspan class="cls-26" x="121.92" y="0">P</tspan><tspan class="cls-27" x="137.22" y="0">A</tspan><tspan x="155.85" y="0">CK</tspan><tspan class="cls-27" x="194.16" y="0">A</tspan><tspan x="212.79" y="0">GING </tspan><tspan class="cls-23" x="291.72" y="0">W</tspan><tspan class="cls-21" x="316.8" y="0">A</tspan><tspan class="cls-22" x="336.12" y="0">S</tspan><tspan x="353.52" y="0">TE: 54% </tspan></text><path class="cls-28" d="M136.71,596.25a5.36,5.36,0,0,0,4.37,2,3.2,3.2,0,0,0,3.48-3.12c0-1.92-1.37-3.14-3.43-3.14a5,5,0,0,0-3.6,1.43l-1.73-.55v-8.78h10.13v2.11H138.2v5.11a5.29,5.29,0,0,1,3.67-1.41,4.93,4.93,0,0,1,5.12,5.13c0,3.29-2.5,5.36-5.88,5.36a6.94,6.94,0,0,1-5.81-2.52Z"/><path class="cls-28" d="M156.44,596.28h-7.61v-2l6.72-10.2h3.29v10.06h2.21v2.11h-2.21v3.84h-2.4Zm-5.23-2.11h5.23v-7.88Z"/><path class="cls-28" d="M166.38,583.87a4,4,0,0,1,0,7.92,4,4,0,0,1,0-7.92Zm0,1.41a2.58,2.58,0,1,0,2.28,2.57A2.34,2.34,0,0,0,166.38,585.28Zm8.71-1.17h1.46l-10.24,16h-1.44Zm-.22,8.37a4,4,0,1,1-3.91,4A3.82,3.82,0,0,1,174.87,592.48Zm0,1.42a2.57,2.57,0,1,0,2.28,2.57A2.35,2.35,0,0,0,174.87,593.9Z"/></g></g></svg>