<svg xmlns="http://www.w3.org/2000/svg" viewBox="0 0 1800.35 906.86"><defs><style>.cls-1{opacity:0.12;}.cls-2,.cls-7{fill:#f2e0de;}.cls-3{fill:#ff6200;}.cls-4{opacity:0.32;}.cls-5{fill:none;stroke:#f2e0de;stroke-miterlimit:10;}.cls-6,.cls-7{font-size:7px;font-family:Gotham-Book, Gotham;}.cls-6{fill:#fff;}.cls-8{letter-spacing:-0.03em;}</style></defs><title>Asset 5</title><g id="Layer_2" data-name="Layer 2"><g id="Layer_1-2" data-name="Layer 1"><g class="cls-1"><path class="cls-2" d="M144.39,146.49l3.59,1.84,3.79-2.19-4.54-.68c2-4.17,6.36-4,9.59-5.77.23-1.26.46-2.56.85-4.66l6.19,5.08.62-4.24c1.27.9,2.12,1.59,3.34.09.44-.55,2.12-.09,3.92-.09l-1.6-3.66,4.25-2.15,6.05,2,1-2.69,6.19-2c1.23,2.43-4.07,2.78-1.3,6,.72-1.18,1.41-2.33,2.21-3.66l2.52,4.3c2.06-2.28,1.05-5.73,3.86-6.51a12.82,12.82,0,0,1,3,0v4.32a12.68,12.68,0,0,1,2.9-1.44,17.73,17.73,0,0,1,3.32,0l5.3,3.76-5.68,4.53c.92,3.74,2.84.22,4.75.19l2,1.57c2.39-.81,5.24-3.6,7.33.69l-3.05,1.43c4,1.47,8.28-.8,11.63,2,5.61-1,9.52,2.54,13.14,5.66,1.84,1.58,4,.63,5.56,2.24,1.16,1.19,2.95,1.76,5.3,3.08.34.54,1.27,2.06,2.7,4.38v5.47l-6.51,4.63c-5.24-.09-10.87.72-16.12-1.45-4.84-2-10.35-2.25-15.31-6.86,2.68,5.11,2.68,5.11,9.59,8.75,1.31,3.21-1.18,6.89,1.43,10.05.89,1.08-.28,3.37,1.59,4.23a35.39,35.39,0,0,0,4.19,1.39l.44,2.14h7.18a11.47,11.47,0,0,0-1.66-2.65c-1.37-1.18-2.91-2.16-4.24-3.12v-4c6-.08,10.43,5.62,17.09,3.79l-3.29-6c1.9-5.61,8.15-5.23,10.93-9.31l8,3.55,2.78-5.3-4.52-3.34c.79-2.2,1.74-4.82,2.84-7.84l-3-3.58h9.88l3.6,6.24c-3.17.66-6.75.54-6.2,5.42l4.92,3.6h2.81l3.52-3.52v-3a43.11,43.11,0,0,0,4.31-1.38,9.58,9.58,0,0,0,3.36-2.06c3.38-3.83,7.66-4.68,12.39-4.14,1.32-1,2.52-2,3.85-2.87a51,51,0,0,1,4.61-2.2c-1.39,2.92-2.34,4.93-3.54,7.47l4.86.48c3.61-2.16,6.38-6.77,11.59-2.57,2.33-2.48,4.76-5,8.65-4.61.82,1.88,1.65,3.82,2.83,6.57.63-3.74,3.76-3.87,5.26-6.09q-1.29-3.39-2.79-7.27c-2.58-.79-6.09.8-7.41-3.33l2-2.48,7.75,5.52h10.52c7.69,4.29,15.93,7.14,21.42,14.08h3l1.94-3.7-2.17-.8L373.38,145l-5.63-2.29c1-2.85,1.77-5.12,2.55-7.36l-4.24-3.93c3.36-3,6.67-5.25,8.89-8.25s3.17-6.67,4.77-10.22c4.37,2.73,8.85,1.39,13.12,1.81,2.3,1.92,3.21,4,.65,6.36,1,3.05-2.28,4.24-3.26,6.9L393,129.2c.56,1.14,1.33,2.71,2.19,4.44l-1.73,3.43v12.27c1.3,1.26,2.65,2.57,3.78,3.65-.45,2.11-.85,4-1.16,5.43L387,168.66l-9-.95c0,.35-.05.81-.09,1.43l6.05,2,2.05-1.32,4.64,1.66c4.86-3.79,9.39-7.69,12.35-12.17-.51-3.2-.92-5.83-1.37-8.67l9-2.69c-4-2.65-7.22,1.05-10.83.61l-1.9-2c-1.47-4.37,1.5-7.72,3-11.79-1.49-2.39-3-4.82-4.6-7.41.8-3.31,4.44-3.92,7.17-6.1v-6.57l1.89-.1c.74,1.32,1.47,2.65,2.3,4.14-.87,1.64-1.78,3.39-2.53,4.81l1.55,4.91a34.73,34.73,0,0,1,6.18.73c1.84.51,3.48,1.76,5.67,2.93-1.6-2.93-1.6-2.93-9.93-7.34.85-1.1,1.65-2.15,2.64-3.42l5.63,1.73.52-.63-5.18-4.28c2.3-.33,4-1.12,5.06-.64,4.62,2,10.06,1.58,14.12,5.41,1.12,1.07,3.62,3.42,6.25.32l-3.13-3.72-5.7-2a23.77,23.77,0,0,0-.06-4.26c-.2-1-.94-2-1.72-3.46a17.82,17.82,0,0,1,3.79-2.23,37.42,37.42,0,0,1,7.18-1.43c2.58-.23,5.21.18,7.78-.11,3.3-.36,6.57-1.13,9.78-1.71.07-.67.11-1.12.17-1.72L453,101.29c.48-.53.92-1,1.36-1.53l-1.11-1.12c1-2,2-4.08,3.12-6.42h3.53c5.94-4.24,12.4-5.57,19.45-6,.2-.58.48-1.38.82-2.38,4.63-.38,8.85-3.46,14.21-2.84l-2,2.23h5.46L500.09,81l4.64,1.45-2.64-2.92,8.71-.41V74.21l8.26-7.28c5.27-1,9.28.06,14,2l-4.53,3.73c3.28,1.54,6.07.64,9.31,1.11-.47,1.61-.93,3.15-1.41,4.78,3,2.26,4.51-.34,6.4-2.11,3.17,0,6.48-.22,9.74.06,2.88.25,5.71,1.06,9.15,1.73.63,1,1.45,3.51,2.57,3.64,2.68.34,1.48,3.24,3.28,3.79-2.3,1.45-1,3.84-1.57,6-2.2,1.41-5,2.5-6.78,4.52-2.19,2.51-5.63,1.75-7.83,4.08-2,2.11-4.65,3.57-7.58,5.74h-3.4l-8.25,6.4.48.9c3.05-1,6.1-2.67,9.16-2.7,3.56,0,4.85-4.57,9.32-2.82l-1.72-2.18c2.3-2.06,2.3-2.06,6.33-2.3l1.38,2.85c3.15-.19,5.38.87,7.06-1.59l2.56,3.85c3.33-.72,6.9-2,10.49-2.1s7.12,1,10.9,1.61l2.58,6c1.45-.9,2.37-1.48,3.28-2.06,5,2.59,10.39.91,15.85,1.53V107l4.79-2.46,2.78,2.59,7.44,1.72,1.9-1.29c2.83,1.27,5.94,2.31,7.33,5.43,1.16,2.58,1.91,5.33,2.95,8.3l-3.87.71c-.13.17-.4.45-.38.49a4.7,4.7,0,0,0,1,1c2.66,1.75,1.19,6,4.49,7.36,2,.83,4,1.79,5.9,2.68l6.42-9.47,4.42,3.31c1.82-.53,4.11.53,6.71-1.07,2.84-1.74,5.91,1.14,9,1.59,1.42.2,2.79.68,5.27,1.32-1.25-1.49-1.66-2-2.07-2.45,2.74-2.4,5.3.32,8.2.82-.22-2.09-.4-3.7-.6-5.6l-3.31-1.37,5-2.93,1.33,1.34,2.74-4.24,21.4,3,2,1.81c-.22.22-.43.56-.55.53a11,11,0,0,0-5.11-.41l4,2.81-2.87,1.37c.31.77.6,1.51,1.06,2.67,2.6-1.59,4.52-3,5.07-6h10.6l5.69,3.61-6.64.7.07.78h4.82l2.49,3.16h5l2.84,4.43c2.57-.26,5.71-.72,8.87-.85,6-.26,12.07-.94,18-.22,2.74.34,5.14,3.52,7.89,5.56-.49,1.73-.91,3.18-1.42,4.93l5,.5c.2,1.35.4,2.65.65,4.26l3.25-3.06c4,0,8-.22,12,.07,3.56.26,7.08,1.09,10.29,1.62l4.33-4.33h6.37c.05.83.09,1.47.13,2.16l-5.2,1.26,7.57,6.14h4.28c1.78-3.25-1-4.67-2.78-6.64l1.77-4.16c4.25-1.18,7.24,1.16,10.71,2,4.37-2.11,9.3-.26,14-1l2.94,2.79a20.87,20.87,0,0,1,10.81,3.62c4.85,3.35,10.25,5.89,15.53,8.57,3.65,1.86,7.4,3.48,9.82,7.57v5.15l2.17,2.1,2.37-2.57-1.44-2.36c.13-.15.41-.71.61-.68,3.79.52,7.57,1.1,11.05,1.63l7.91,6.64c.62,2.39-3.91.84-2.85,3.61l-5.1,1.83-2.94-1.63c-.42,3.57-.78,6.58-1.21,10.26l-5.07.29c-3.92-2.32-7.84-3.38-9.71-7.52-.6-1.32-3.35-1.9-5.23-2.33-1.16-.26-2.52.4-4.54.78L866,175.66l-.83.81c-.24-1.29-.49-2.59-.82-4.34l-3.48,2a12,12,0,0,1,1.14,2.68,21.18,21.18,0,0,1,0,3.47c-3.1,3.91-7,5.85-12.81,4.81l-2.79-2.8-2.92,2.34C849,186.52,854,188.6,855,195.25c.32,2.06,1.83,3.93,3,6.18l-3.6,2-7.15-2.67c-3,3.37-6.34,5.95-11.46,6.06-2,0-4,2.59-6,4-4.64,3.12-9.3,6.22-14.44,9.65-.85-1.08-2.12-2.72-3.07-3.94-5.41-.34-9.33,1.68-13.1,4.78a20.75,20.75,0,0,1-.78-2.31c-.12-.67-.1-1.36-.21-3.14l-4.82,5.73L789,220.36l-9,13v2.85h5.49l-3.22,7.45,4.83,2.81L781.43,248l-2.93,4.88c.59,1.65,1.17,3.3,2,5.55l-5.1.57-5.49,5.48c.29.52.72,1.29,1.46,2.59l-6.78,3.22V275l-8.19,8.18c-.56-3.66-2.3-6.63-2-10.27.13-1.88-.89-3.83-1.3-5.77s.91-4.27-1.23-5.86c-.19-6.33-1.29-12.74,3.52-18.22,1.34-1.54,1.64-4,2.6-6.52l6.47-2.39c5-5.28,11.43-10.66,16.23-17.56a3.15,3.15,0,0,1,2.18-1.41c3,.23,3.8-1.79,4.64-4,1.21-3.22,2.6-6.38,3.89-9.52-2.55-1.48-4.2-.54-5.64,1.36-.09,1.53-.18,3.11-.29,5l-5.19,2.19-7.62,5.49-2.42-4.25,1.87-2.32-5-2.73L764.89,208h-7.18c-.24,1.25-.48,2.54-.77,4.06-4.49,2.53-8.51,5.79-10.76,10.94l2.56,2.74c-1.39.7-2.7,1.75-4.14,2-4.16.71-8.37,1.1-13.61,1.75l5-4.06-6.35-.64-3.38-3-6.7,4.34c-.37-.24-1-1-1.39-.86-5.6,1.45-7.91,1.46-11.93.39-3.77-1-7.71-1.67-11.14.81a65.4,65.4,0,0,0-8.53,7.22c-2.87,2.92-5.36,6.07-8.89,8.45-2.89,1.95-4.38,6-7.31,7.88a31.78,31.78,0,0,0-7.9,7.37c-.11.14,0,.46,0,.72,1.86,2.25,3.5.31,5.72-.49v6.82l3.79-5.34c.27,3,.42,4.78.52,5.93l4.64-4.64c5.71.1,7.2,4.18,10.8,6.34-.19,4,.9,8.61-1.46,12.82-1.57,2.8-1.26,5.7-1.37,8.64-.22,6-2,11.37-6.17,15.83-.78.85-1.94,1.59-2.25,2.6-1.68,5.4-5.76,9-9.06,13.3a90.87,90.87,0,0,1-7.75,8.71,85.2,85.2,0,0,1-7.09,5.77L648.68,331c-4.41.05-6.86,2.84-9.36,5.49-1.19,1.25-2.32,5.26-2.5,7.82l-10.26,7.47,8.52,10.93c.61,4.12,1.18,7.89,1.79,11.92h-3.15c-3.08,2.86-5.41,6.27-10.13,5.9-.55-1-1.15-2.16-1.51-2.85.45-4.2.87-8.07,1.39-12.85,0-.1-.59-1.25-1.27-2.66H616V357l2.69-2.7-6.42-4.9-11.48,7.49c-.29-1.92-.55-3.58-.85-5.51l3.38-3.18c-.46-1.23-1-2.65-1.55-4.08-.73.1-1.16,0-1.37.21-4.14,3.54-8.26,7.1-11.16,9.61l-6.3,1.49c.47,1.82.9,3.43,1.34,5.14h5.59c.26,1.49.48,2.79.74,4.3l2.55.18,3.9-4.29c3.47,1.84,6.16,3.26,9.4,5l-7,2.66-7.73,7.72c0,.25-.3,1.25.05,1.62,3.65,3.8,5.1,8.7,7.06,13.37.66,1.58,3.32,2,2.53,5.08l-3.72-3.1c-.71,3.63,2,4.17,4,4.85v3.33l-3,1.08,3.95,2.9a14,14,0,0,0-.83,2.77,31.89,31.89,0,0,0,0,4l-8.45,10.58v5.21c-3.19,1.86-5.19,5-8.21,7.08s-5.43,5.22-7.83,7.62c-10.31,1.09-19.48,4-27.14,12.18-.42-2.27-.77-4.09-1.16-6.15l-2.3,1.47-2.64-1.52L535.38,452l-3.17,4.69v8.72L546,480.59c.8,3.54.35,6.16,1.52,8.89.88,2-.71,5.15-1.21,7.85-2.87,2.75-5.35,6.16-10,6.39-.91,0-1.9,1.22-2.61,2.08s-1.26,2.34-2.08,3.36a48.57,48.57,0,0,1-3.44,3.45c-1.63-3-1.63-3-.16-6.1-.61-2.52-2.44-3.06-4.79-2.88-2.44-2.27-5.32-4.17-5.64-8.14-.09-1.08-1.87-2-2.92-3.07l-4.77-.25-.49-2.4h-4c.55.89,1,1.57,1.25,2-1.57,5-3.09,9.78-4.52,14.28l6,8.07-1.36,1.51c3.29,5.94,10.18,8.33,14.13,14.81,0,.93,0,2.78,0,4.64,0,3.39-.33,6.8,2.18,9.73.71.83.52,2.44.81,4.11-8.25-4-13.71-9.68-16.78-18-.51-3.37-1.08-7.15-1.65-11l-6.8-6.4c.48-8.14.93-15.69,1.36-22.86-4.16-4.8-4.6-6.38-4.6-15.69l-3-5.13c-.5.14-1,.13-1.12.35-1.1,1.68-2.14,3.4-3,4.85-2.8.27-5.19.81-6.74-1.67,2.52-4.8.87-9.53-.59-14.68l-7.6-7.35-2.32-10c-2.88-.27-3.67,1.47-4.13,3.82l-12.21,2.19-3.16,3.09c.58,3.46-1.71,5-4.2,6.39-1,.55-2.33,1.12-2.64,2-1.58,4.48-5.35,7.26-8.75,9.67-4.24,3-7.39,7-11.29,10.16,0,4.06.22,8.08-.07,12.06-.26,3.58-1.1,7.11-1.87,11.77L413.88,515c-.86-.12-2.47.13-3-.5-1.34-1.69-2.84-3.66-3.14-5.7a36.14,36.14,0,0,0-4.26-11.71c-1.51-2.85-1.93-6.26-3-9.37-.83-2.48-1.8-4.91-2.82-7.32-2.17-5.11-2.91-10.6-4.15-15.95-1-4.47-3.11-9-.42-13.82.57-1-1.22-3.35-2.31-6-1.35,2.7-2.34,4.7-3.3,6.63h-3.21l-7.8-7.77,4-1,.25-2.29-3.43,1.56c-3.61-5.11-10.78-7.07-11.9-14.64-5.86.7-11-.16-16.31,1.31-3.62,1-8.27,1.55-12.07-1.12-4.49,1.19-8.3-2.23-12.92-1.28a38.88,38.88,0,0,0-1.47-4.11,37.33,37.33,0,0,0-2.27-3.58c-1.46.64-2.65,1.16-3.85,1.67-1,.43-2,.84-3.08,1.28a64.46,64.46,0,0,1-6.37-2.51,46.35,46.35,0,0,1-8.47-5.1c-1.81-1.5-3.77-3.84-4-6-.31-2.81-2.23-3.9-3.56-5.76h-6.13l-2,2.33c1.06,5.94,3.31,11.2,7.86,14.47.9,3.72,1.66,6.88,2.46,10.17l4.3-5.54c1.53,3.33,1.73,5.5-.06,7.41.64,1.26,1.25,2.43,1.85,3.62l9.92-1.81c3.45-.63,5-3.47,6.26-6.23.83-1.79,1.47-3.24,3.64-3.37,1.7,10.57,2.37,11.43,10.43,13.2,1.44,2.11,2.95,4.31,4.5,6.59-.46,5.67-5.24,8.32-8.53,12.14v4c-1.25,2.11-4.11,2.42-5,5-.26.76-1.81,1.09-2.8,1.56-.79.37-2.06.43-2.35,1-2,3.87-5.34,4.76-9.23,4.93-.56,0-1,.9-1.65,1.09a8.26,8.26,0,0,1-2.18,0c-2.32,4.42-5.51,7.57-10.82,7.06a82.78,82.78,0,0,1-7.32,5.09c-1.31.72-3.1.55-4.95.83l-1.88,1.87-9.22,2.77.18.6h-5.89c-.93-3.15-1.8-6.08-2.66-9,0-5.68-1.95-10.67-4.89-15.75s-4.54-10.67-9.18-14.6c-.93-.79-1.27-2.28-2.18-4v-6.42l-8.47-10.5c-.66-8-9.21-12.85-10.42-21.23l-5.45,5.54c1.1,2.84,2.08,6.49,3.86,9.71A43,43,0,0,1,228,436.61c.41,1.91.94,3.76,3.34,5,1.75.92,2.34,4,3.65,6.58v10.84l6.5,6.41c2.15,5.95,2.45,11.77,8.8,14.87,3,1.48,4.94,5.32,7.36,8.09l5,5.72L260,495.21l7.7,7.7a15.51,15.51,0,0,1,6.16-2.26c2.27-.2,4.34-2.17,6.64-2.57,2.75-.47,5.64-.11,8.4-.11l6.15-3.22c2.17,4.89-.5,9-1.46,13.1-.73,3.15-1.55,6.48-4.34,8.82a5.36,5.36,0,0,0-1.83,3.42c-.23,5.85-4.36,9.78-7.44,13.85s-6.76,8.14-11.61,10.85a19.69,19.69,0,0,0-7,6.9,35.77,35.77,0,0,1-8.21,9.24c-5.15,4.24-7.66,10-9.57,15.89-1,3.07-3.44,6.67-.21,10.13.35.38,0,1.37,0,2.08a51.92,51.92,0,0,0,.08,7.06,43.29,43.29,0,0,0,1.8,6.3l1.92.5c.15.18.4.34.43.53.06.46-.06,1,0,1.41,1.7,8,1.61,16,1.29,24.06-2.86,4.77-6.25,8.64-11.75,10.71-2.62,1-6.06,2.18-6.68,6.14-.13.87-2.13,1.4-3.19,2.18-3,2.21-4.82,5.65-3.56,8.86a41.2,41.2,0,0,1,2.54,18l-12.55,7.5c.48,2.41,1.29,4.6,1.22,6.75-.06,1.9-1.12,3.76-2.16,7-5.05,3.68-7.15,11.22-11.91,16.87-2.83,3.37-5.65,6.87-9,9.61-1.89,1.53-4.95,1.61-7.7,2.41l-.42,1.93H169.23l.17.72-9.62,3.83-6.16-4.21c-2.11-7-2.11-7-.55-11.09-4.94-7.58-6.57-17.23-12.55-25a111.27,111.27,0,0,1-2.87-17.59,65,65,0,0,0-4.4-17.38c-2-5.15-5.23-9.6-7.28-14.66V633c3-2.78,3-6.45,2.81-9.73l7.36-12.46a38.05,38.05,0,0,1-3.27-16.41c0-2.9-1.76-5.81-2.66-8.73-2.24-7.36-3-8.62-8.46-14.89a43.48,43.48,0,0,1-5.43-7c-1.15-2.05-1.43-4.6-2-6.74l3.38-3.55c-.25-1.63-.51-3.38-.92-6.09l2.14-4.15v-7.5l-7-5.45c-3.24,2.68-7.09,1.07-11.14,1.69l-2.2-4.65.74-.56-6.47-4.79H83.37c-5.09,2.9-9.81,5.73-14.69,8.27a6.75,6.75,0,0,1-4.16.12c-9.06-1.94-10.9-2.12-19.08.74-2.69.94-4.7.92-6.91-.68-1.43-1-3-1.83-4.46-2.86-4.55-3.27-9.2-6.43-13.52-10a10.13,10.13,0,0,1-3.43-5.56c-.63-3.67-2.64-6.17-5.15-8.5-2.35-2.19-4.41-4.54-4.84-6.69L1.4,490.46c3.62-3.76-.61-6-.95-9.74,2.26-3.38-.54-9.23,3.78-13.12,0-2,.8-4.63-.17-6.09-1.85-2.8-.5-5.87-1.71-8.53-.64-1.39-1.5-2.68-2.35-4.19,2.05-5.58,3.91-11.45,8-16.27.93-1.08,1.1-2.82,1.56-4.28,1.69-5.41,6.37-9,8.63-14.1.37-.83,2.35-.95,4.31-1.66l10.1-10.09c-.59-2.67-1.21-5.48-1.61-7.32l5.63-9.43c2.54-1.62,6.73-2.39,8.56-6.07,1.55-3.12,2.34-6.65,5.55-9.33l3.38,2.8,13.13,2c2.88-4.51,8-5.68,12.29-7.88,3.41-1.76,7.83-1.74,11.84-2.09,7.57-.65,15.18-.91,22.75-1.53,1.69-.14,3.31-1.1,4.72-1.59l4.44,4.37-1.24,2c.49,3.33.91,6.15,1.21,8.18l-5.72,4.4,4.42,1.33.69-.8a21.22,21.22,0,0,0,3.06,3.8c1.34,1.07,3.13,2.42,4.61,2.3,3.78-.3,7.13,1.13,10.75,1.88.85,1.95,0,5.37,3.78,5.32,4.1-.05,7.07,2.37,10.21,4.41,2.81,1.83,2.79,1.89,6.48-1.16l-2-6.75,4.65-3-.54-.43,7.91-1.93,3.71,4.47c2.85.35,4.69.08,6.76,1.37a20.34,20.34,0,0,0,9.33,2.83c3.18.18,5.42,1.85,8.53,3.23,2.07-3,5.86-3.07,9-4.79l6,3.07H220a12.31,12.31,0,0,0,5-7.54c.21-.9-.36-2.2.1-2.78,4.31-5.39,4.52-11.65,4.24-18.09,0-.7.74-1.43,1.62-3l-4.05,1.54-1.69-1.46c-3.11,2.24-6.55,3.89-11.12,2.91l-1.86-2.36h-5.13l-2.45,2.45h-4.8l-.51-2.44-3-.31L190,359.88l.72-.86c-.49-3.58-.95-6.91-1.46-10.6L186,347.31l4.82-1.12-1.11-1.74L184.58,341l-3.94,1.38-1.93-1.65c-.21,1.47-.39,2.7-.67,4.63l-6.66-1.65c.09,1-.09,1.92.29,2.52,1.16,1.86,2.53,3.58,3.61,5.05l-1.39,3.13.7.61,2.1-1.63,3.64,2.82c-1.92,1.59-3.63,2.61-4.75,4.08s-1.38,3.16-2,4.7h-2.64c-2.86-1.69-4.56-4.42-5.61-8.07l4.18-.7.08-.62-5.29-.86c-.06-1-.1-1.9-.17-3.27-4-3.66-7.77-7.86-4.57-14.2-2.82-4.21-7.12-7-11.68-8.87-3.28-1.38-4.7-4.38-7.61-6.16-.08-1.09-.16-2.21-.27-3.58-3.06-1.31-5.06-5-9.17-4.59L129,319.37l7.46,7.45-1.19,1,3.27,6.17c5.49,3.64,10.47,6.92,15.39,10.29.34.23.18,1.21.32,2.47l-6.54-1.8c0,.36.87,5.89.85,5.75l-3.81,7.23-1.62-.26c2.2-8.5,1.49-9.88-6.49-15.34-3.19-2.18-6-4.93-9-7.41-1.18-1-2.4-1.93-4.7-3.79-1.6-2.59-2.36-7.58-7.35-10.41l-12.75,7.67c-1.06-.21-3.25-.7-5.45-1.05-2-.33-4.1-.5-6-.71l-2.25,2.25V336l-7.29,4.17-.62-.83L75,346.87v6.51l-3.62,6.92-5.57,4.29-12.94,2-2.77,2.76-4.65-5.74H35.79c.77-2.47,2.15-4.88.35-6.94-3.41-3.91-2.43-8.06-.68-11.93,2.59-5.73,1.59-10.84-1.31-16.15,3.17-2.09,6.15-5.15,10.72-1.91,1.09.78,3.22.12,4.87.12H67.22l1.67-1.67L71,310.35l-4.33-2.68c-.1-.84-.22-1.95-.41-3.64-2-.84-4.26-1.71-6.45-2.68-2-.89-3.95-1.89-5.88-2.81v-4h8.28l5.38,1.55c.37-2.66,1.12-4.86-1.1-6.77l2-1.79,5.94,3.87c.84-3.32,2.84-5.1,6.33-4.08,1.19-3.21,2.1-5.66,3.11-8.36h4.4c5-5,5.84-6.35,7.36-11.86l3.27,1.8.3-3.86,7.31-1.52,2.29-2,3.78,2.19,1.4-3.21c.94-4,.27-8.38-3.77-12.52.41-2.46.92-5.48,1.5-8.92,4.68,1.5,5.73-3.48,9-4.36,3.33,2.44-3,3.95-.76,6.55l4.76,2.31-6.45,4.73,3.37,1.23V253l-2.47.5c-.08,1.05-.17,2.33-.28,3.88l3.72.26,1.68,3.36c2.62-3,6.08-3.85,9.46-4.9.27,2.35,2.43,2.78,4.08,4,3.15-1.54,7.05-1.64,9.67-4.73.55-.65,2.15-.36,3.23-.64s2-.75,3.14-1.17c1.42,1.4,2.77,3.6,5.64,2.39l1.16-2.82,3.21,1.42c3.88-4.16.55-9.59,2.61-15.75l4.62-6.26,4,5.23h4.2c.16-.56.4-1.16.52-1.79.26-1.5.47-3,.76-4.9-3.25-.15-3.69-3.53-5.16-6.52,5-5.89,11.5-3,17.31-3.86L193,222l8.46-5.29c-1.28-1.51-2.44-2.88-3.58-4.21l-20.63,5.09-11.73-5.36c1.12-2.12,2-3.78,2.8-5.27-1-3.49-2-6.87-2.82-9.9.86-3.68,4.44-4.31,6.21-6.88,1.63-2.38,4.94-3.6,7.78-5.51.64-1.43,1.45-3.21,2.19-4.84l2-.41c1.41-3.43-1.34-4.71-3.06-6.67h-8.78c-2.54,2.69-6.32,5.24-3.63,11.12-2.73,2.17-5.78,4.86-9.1,7.16-3.15,2.19-4.85,5.63-6.46,6.81l-4,8.62c.57,1.58,1.17,3.22,1.6,4.42l7.68,6.92c-3.9,2.29-3.61,7.74-8.55,8.56-2.32,3.59-3.23,7.33-1.38,11.45a17.44,17.44,0,0,1,.75,3.16l-5.85,5.21-2.59-1.46c-3.06.68-3,3.16-3.36,5.51H133.5c-2.07-9.38-7.84-17.47-10-26.92-.12-.52-1-.87-1.56-1.35-2.13,1.84-4.14,3.67-6.24,5.38s-4.25,3.26-6.24,4.78l-4.74-1.71L100.21,227l2.44-4.9c-2,.77-3,1.18-4.57,1.81-.2-2-.37-3.65-.59-5.79l4,1.62c.18-1.15.3-2,.47-3l-4.23-.32c.19-3-1-6.2.94-8.75-.46-1.62-.88-3.07-1.14-4l6.91-5.6H107c1.06-3.88,7.08-3.58,6.4-8.76l2.9,2.21c2.39-3.78,4.43-7.71,9.69-7.82l-1.7-2.69c1.15-1,2.37-2.15,4.34-4a10.86,10.86,0,0,0,1.52-3.72c.2-1.9,1-2.66,2.34-4,2.72-2.7,4.18-6.65,6.28-10,1.43-2.28,3.08-4.43,4.66-6.67l2.23,2c.08-1.74.13-3,.18-4.15L138,151.85c2.4-3.16,4-5.37,5.75-7.45.22-.26,1.23.15,2.2.29Z"/><path class="cls-2" d="M1231.09,144.36a42.24,42.24,0,0,0-4.23-3.77c.51-1.57,1-3,1.39-4.27-.42-2.37-.84-4.72-1.28-7.15l4.68-.76c-.69-.77-1.14-1.27-1.71-1.88l2.72-.94V118c-2.89-2.72-2.86-6.29-2.51-10.12l2.37-.49c.19-1.11.41-2.41.72-4.18,4.44.88,8.94-1,13.47,1.39,1.81,1,4.57.16,7.77.16L1246.91,116h-6.74v3.33c-1.58,1.58-2.92,2.91-4.16,4.16l7.12,6.06-1.49,2.94,7.27,5.55-4,5.71h5.3l3.56,2.05c-1.41,2.86-1.2,5.59-.69,9.69l5.07-8.86,6.08,5.45c-.36,2-.76,4.08-1.29,6.94l4.32,6.34,4-1.93-2.76-5.87,1.85-1.93c.46,1,.88,1.84,1.29,2.69,3.19-1.26,2-4.18,2.26-6.06l4.4-2.77-2.92-3.09v-3c4.41-1.71,8.38.27,12.45,1.35l.57,2.16h3.22c.62,1.89,1.17,3.54,1.92,5.78l-5.3,2.13c1.61,2.82,3.29,5.79,5.22,9.17-1.56,1.07-3.68,2.31-5.55,3.87-1.64,1.36-3.27,3-5.44,2.55-2.67-.5-3.39,4-6.78,1.45l-.88-1.87h-4.15c.74,1.58,1.26,2.72,2.1,4.52l-6.87,6.13,1.1,1.79c-1.69,2.2-3.44,4.49-5.4,7.07-2-.36-4.67,1.13-7-1.69-.26,1.58-.46,2.83-.67,4.08-3.75,2.32-7.28-2-11.27-.59,2.3,3.18,5.66,3.67,9.38,4.5l-2.4,3.42h-4.68c-.8,1.1-1.49,2-2.13,2.92-1.65,2.38-3.1,4.92-5,7.13a20.28,20.28,0,0,0-4.95,12.81c-.07,2.12,0,4.24,0,6.35l7.94,3.09,2.52,10.27c1.71-.42,3.6-1.34,5.4-1.19s3.59,1.73,5.47,2c5.46.79,9.27,4.05,13.25,7.47a21.47,21.47,0,0,0,8.72,4.38c3.12.74,6.55.16,9.78.16.73.73,1.39,1.4,2.09,2.09v14.38c2.71.36,2.1,3.78,4.75,5,2,.86,3,3.65,5,6.26,1.09-2.63,3.3-3.45,4.64-5.67s1.85-4.52.89-5.73c-1.92-2.43-.45-5-1.52-7.2l-2.58-5,12.76-8.59c0-14.63,2.14-10.27-8-19.9l5.34-9-3-8.31,3.25-2.5-4.3-4.21c.53-1.17,1-2.29,1.59-3.47,6.42-.46,6.42-.46,12.81,2.24l5-2.65c5.71,2.44,8.19,8.59,14.06,11.57h5.8c-2.95,5.05-.79,9.78.38,15l3.44.48,4.3,4.29c6.83-3.55,10.86-8.73,12.29-16.67l15.11,25.46c.06,1.92-2.6,1.82-4.07,2.82,3,2.86,6,5.73,9.13,8.79l11.9,4c0,.67,0,1.13-.08,1.88l-3.92.66c.15.4.31,1,.39,1,3.3-.43,4.83,1.54,5.67,4.33l1.64-1.41c3.51,0,3,3.56,5.18,5.54l-3.83,2.38c.84,1.23,1.33,2,1.59,2.35-.36,1.41-.67,2.65-1,3.89l-9.33,1.85-7.88,6.64h-25.62c-2.44,1.53-5.15,2.21-5.94,5.38-.25,1-2.47,1.51-4,1.9-2.75,2.85-6.61,4.9-7.61,9.57,2.07-1.85,3.88-4.23,6.28-5.39s5.39-2.16,7.81-3.3c3.11-1.47,5.92-.46,9.18-1.35.77,1.61,1.51,3.18,2.32,4.87l-6.34,3.2c.15.66.29,1.3.48,2.19l2.13-1.77c.18,2.94.34,5.58.51,8.53l10,6.25,4.7-2.12,4.62-8.13v4.71c1.31.75,2.34,1.36,4.62,2.69l-5.38,1.41c-3.16,4.42-8.59,5.78-14.57,7.12l-4.84,5.2h-3c-.72-.73-1.39-1.39-2.06-2.06v-2.85l3.77-3.73h5.9l.14-.68-2.41-.89c-.16-.93-.39-2.23-.63-3.6-.38.13-.83.14-1,.36a20.39,20.39,0,0,1-7.12,5c-2.38,1.15-4.6,2.62-7.25,4.14l-3-1.52c-1.51,1.69-1.55,4.31-4.58,4.59-1.27.12-2.74,2-3.45,3.35-1.26,2.52-3.11,5.28.81,8.23l-3.63,1.82-.33-.33-10.7,3.41,6.41.5c-.18.51-.23,1.08-.41,1.13-2.36.6-4.74,1.13-7.35,1.73-1.26,3.32-1.14,7.91-6.18,8.87.93,2.1-.3,6.92-2.72,9.79v-7.92L1311.5,362l4.59,8.3-.95.94,1.51,2.24c-.72.9-1.52,1.92-2.31,2.92l-1.92-1.67v5l-5.77,2.89c-.25.89-.43,1.52-.62,2.15h-3.44c-.39.49-1,1.19-1.55,1.95-.88,1.24-1.5,3.31-2.61,3.61-3.69,1-5.1,4.16-5.87,6.87s-3.58,5.75-.24,8.66c-.42,2.89,1.21,5.08,2.31,7.53a23.17,23.17,0,0,1,1,15.36l-1.58,3.21-5.76-6.77c-.58-4.83-4.88-8.69-2.93-13.6l-5.49-7.56-4.11,3.42c-.64,0-1,.1-1.09,0-.82-1.3-1.59-2.63-2.61-4.34a48.77,48.77,0,0,1-6.68.75,70.08,70.08,0,0,1-7.71-.95l-2.47,3c.94,1.21,2,2.52,3.26,4.19l-9.78-1.69c-.63-.63-1.47-1.46-2.3-2.3a4.18,4.18,0,0,1-4.85.89c-4.25-1.55-7.72-.7-10,2.67-.6.89-.66,1.56-1.94,2.11a16.37,16.37,0,0,0-9.25,9.11l2.35,4.17c-.91,4.4-1.75,8.51-2.61,12.61-.93,4.45,1.73,8.49,1.42,12.88,2.81,2.92,6.32,5.46,5.67,10.15l6.65,4.56,11.12-3c.38,1.12.67,1.94.76,2.2l5.34-5.34c.27-1.41.86-4.45,1.4-7.22a28.9,28.9,0,0,1,16.38-1.64l-3.43,5.2c.2,4.14,0,9.35-3.82,13.13-.52,3.56-1,6.89-1.54,10.56,1.39,1.77,2.36-.95,3.68-1,4.25-.11,8.55-.48,12.72.1a9.64,9.64,0,0,1,6.93,4.37c-.38,4.76-.7,8.58-1,12.4-.06.7.28,1.62-.06,2.09-3.45,4.81-.21,8,2.69,11.19,1.58,1.75,3.32,3.35,5.07,5.09h4.74l3.48-4.33c2,.63,3.44,1,4.85,1.6a17.38,17.38,0,0,1,4.63,2.28c1.06.87,1.56,2.42,2.46,4,4.09-4.6,7.39-8.89,8.78-14.39,6.23-.26,10.94-3.76,16.41-6.48.38,1.1.64,1.85.89,2.59l-3.43,1.71,2,3.08c-.86,1.66-1.77,3.41-2.65,5.09l1.69,3.41h3.44c-.51-3.14-1-6.15-1.43-8.87,2.57-2,6.47-1.2,6.36-5.27,4,1.22,7.45,2.45,7.46,7h8.67l2.76,3.52,12.43-4.86c.75,1.94,1.44,3.73,2.18,5.67l5.7.29c-.24,1.67-.48,3.28-.78,5.33l5.3.26c5.63,3,8.38,8.82,13.24,12.53L1401,526l3.84,2.75c3.75-2.47,7.17-.49,10.86,1.18,4,1.81,6.18,5.48,9.74,8.27-.84,5,2.09,8.38,5.84,11.56-1.09,2.34-2.18,4.66-3.47,7.4h6.78l-.56.82,2.38,1.43c1,2.19-3.54,3.32.5,5.33l3-4.39c6-1,10,3.5,15.33,5.77-.32,1.89-.62,3.64-1,5.87a14.61,14.61,0,0,0,2.52-1.41,16.85,16.85,0,0,0,1.85-2.3l6.2,3.17h11.56l10.15,10.14h6.23c4,3.52,3.11,8.5,4.85,12.51-1.88,5.17-1.88,11.18-7.79,14.43a9.63,9.63,0,0,0-5,7.75c-.24,3-2.37,3.58-5,3.36-1.73,1.73.55,4.68-1.89,6.34-.46.31-.29,1.78-.16,2.68.4,2.65,1.88,5.59,1.14,7.83a30.15,30.15,0,0,0-1.19,7.95c-2.91,2.59-3,6-2.79,9.06-1.69,3.48-3.55,6.51-4.65,9.8s-3.76,5.43-5.53,8.41c-2.9.48-5.78.82-8.59-1.5-2.91,2.91-5.63,6.16-10,6.06L1436,685.32c-2.3,3.89,0,10.08-1,15.88-3.69.46-4.71,3.61-5.31,6.18a15.34,15.34,0,0,1-5.29,8.48l-1.11-3.14c-.87,1.74-1.62,3.12-2.24,4.55-1.22,2.79-2,5.82-3.65,8.37s-4.4,4-5.51,6.94c-.29.77-1.8,1.14-2.79,1.59s-2,.78-2.29.88l-4.5-.45-.23.93-6-3.95h-4.5c-.09.28-.17.57-.26.85,2.23,1.05,4.46,2.11,7.27,3.42-.67.84-1.35,1.35-1.52,2a12,12,0,0,0-.06,2.9l2.66.94V746c-2.55,3.25-4,7.91-8.94,9.19l-14.44,2.09c-1.25,3.68-1,8.33-3.42,11.94-3.75,1.08-6.52-.17-9.42-2.6v8.06c.5.62,1.08,1.32,1.64,2l2-1.77,2.4,1.84-1.64,3.47-2.66-2-3.14,4.68c-.58,3-1.13,5.86-1.51,7.85-3.16,2.24-5.75,3.95-8.17,5.87-.57.45-.59,1.61-.87,2.49,1.81,3.62,5.1,5,8.63,6.36-.55,2-1.12,4.07-1.78,6.46a21.81,21.81,0,0,0-2.65,1.53c-1.27,1-3.45,2.09-3.47,3.18-.1,5.39-4.79,7.07-7.25,9.87-1.59,4.44,2.08,8.17.82,12.41l-3.23-1.83-.94,2.26,6.17,2.63-1.72,1.89c3,3,5.88,6.14,9.06,8.93,1.24,1.09,3.16,1.4,5.35,2.3l-9.71,3.14-2.43-1.2c-.33.66-.61,1.19-.88,1.73s-.36.79-.58,1.26l-3.61-3.08-2.48,1.81-2.72-4.37c-.34,1.52-.65,2.85-1.31,5.77-.44-2.72-.63-3.93-.87-5.43l-4.31-.64c.63-1.41,1.13-2.55,1.86-4.18-.6-.67-1.41-1.6-2.6-3-.27,1.89-.46,3.18-.7,4.82-1.8-1.92-5.19-1.4-5.36-5.12l8.75-2.79a6.35,6.35,0,0,0-7,.62c-.12-.85-.2-1.49-.29-2.11l6.91-2.38,0-.79a23.3,23.3,0,0,0-4.85-.18c-1.42.23-2.73,1.13-4.35,1.84-.34-1.28-.5-1.92-.8-3l5.89-.62v-2.49l-3.86,1c-.28-.26-.93-.87-1.7-1.61.38-.47.76-.95,1.49-1.84l-5.49-.6c-.11-.56-.53-1.36-.29-1.82A39.78,39.78,0,0,0,1323,819.3l-1.91-.39c-.26,1.39-.51,2.68-.78,4.09l-3.16-2.14,2.25-2.9-3.08-6,5.64-2-1.53-1.73,1.83-3.73-3.85-2.2-1.36,1.21c-1.36-1.35-1.07-1.89,1.71-3,1-2-.22-6,4.76-5.21l-1.55,2.14,2.73,1.23c1.31-8.14,3.93-16.69,4.78-26.45l-4,1.23-1.94-3.6c.89-5.1,4.94-9.78,1.43-15.32-.79-1.25,2-2.53.1-4.59-1.37-1.47,1.32-3,2-4.62a124,124,0,0,0,4.87-13.54,61.21,61.21,0,0,0,2.93-22.86c-.06-.75.72-1.57,1.13-2.41-2.15-1.61-1.75-4.52-1-6.24,2-4.76,1.7-10,3.85-14.68a5.64,5.64,0,0,0,.22-2c.6-12,1.19-24.11,1.76-35.78-5.77-7-12.87-11.32-20.16-15.5-2.56-1.47-4.6-3.84-7-5.89v-5.75c-4.5-6.91-8.41-13.45-10.12-21.17-.59-2.66-2.71-5-4.15-7.45-.54-.94-1.14-1.85-1.72-2.78l-5.43-4,1.34-1.53c-.54-2.91-1.08-5.75-1.62-8.63l6.55-5-4.3-2.87c-1.72-4,.81-7.44,1.44-11.05l2.16-.52q.17-1.65.33-3.33c3.72-.74,4.49-3.87,5.67-6.85a10.72,10.72,0,0,0,6.33-6.82c-.27-1.94-.89-3.87-.74-5.74.46-5.87-.79-10.94-5.81-14.37V513.8h-5.12c-.16.48-.44,1.29-.71,2.1l-2.47.92,1.69,2.59-2.5,2.64c-3.09-3.37-6.34-6.56-11.35-5.61-1.9-2.57-3.65-4.93-5.28-7.15h-5.08c-.11-2.46-.22-5-.34-7.63l-8.3-9.07c-4.95-1-9.56-6.23-16.76-5.94-2.12-2.23-4.32-5.06-7-7.25-2.17-1.76-4.88-3.52-7.51-3.83-2.36-.27-4.94,1.45-7.42,2.3a4.91,4.91,0,0,0-.6.31c-4.55-1.54-8.4-4.61-13.19-5.74s-7.51-6.79-13.42-5.42c-3-5-10.28-5.45-12.26-12,2.41-3.95,1.59-7.37-.91-11.57a59.35,59.35,0,0,0-15.73-17.21v-3.5c-3.71-4.24-7.24-8.4-11-12.39-.42-.47-1.78-.07-2.79-.07-.74-4.06-1.45-8-2.2-12.15-5.57-3.05-5.57-3.05-8-2.95l1.68,9.37,3.52,2.25c2.4,4.07,3.72,7.16,5.8,9.63,3.2,3.82,4.41,8.6,6.83,12.78.72,1.24.36,3.11.51,5l3.47.17,2.28,4.7-2.29,2a25.38,25.38,0,0,0-10.71-9.92,10.38,10.38,0,0,0,1.35-2.16,12.3,12.3,0,0,0,0-3L1145.52,417l3.65-1.63c.69-2.4-2.1-5.93-6.92-8.52-.88-3.09-1.15-6.9-3-9.69-2-3-8-5.93-8.93-9.38-.84-3.22,0-3.67-1.74-5.64-3-3.47-5.26-4-9.73-7.21-.67-1.4-2.26-2.37-3.43-3.53,0-.23,0-.46,0-.69-.15-1.35.15-3-.52-4-2.88-4.3-6-8.41-9.38-13,1.73-3.75-4-8.07,0-12.45-1-2.4-2.29-4.77-2.74-7.29-.28-1.56,1-3.33,1.23-5,.6-5.45,1-10.92,1.5-16.38a6.88,6.88,0,0,1,1-2c-1.09-3.62-4.75-6.67-3.76-11.57l-17.13-16c3.79-.54,6.44,1.91,10.15,2.24l-1.9-3.77h-3.32l-2.08-6.23,1.73-1.94L1083,269c0-.28-.16-1.39-.32-2.75h-3.69v-7c-.92-.69-2.32-1.34-3.06-2.44-.54-.8-.21-2.18-.3-3.75l-1.92,1.53-1.57-1.34-.8,2.38-5.15,1.5c-.36-.35-1-1-1.69-1.69,2.29-1.89,1.76-3.85-.76-6.83l6,2.18,3-3.35-5.28-2.91c.1-.36-.1.39-.43,1.61l-1.44-.83-5.35,1c-.1-3.76,3.24-4.4,4.17-6.46v-4.55l-2.95-.68,1.86,3.38-2.53,2.92-2.39-4.27c-.59,1.7-1.07,2.34-.93,2.79.46,1.61,1.13,3.16,1.92,5.26-1.18-.27-1.5-.38-1.83-.41-3.23-.33.16-4.59-3.27-5.31-1.22-.26-1.92-3-3.53-5.74l7.25,1.92c2.18-3.48,0-5.94-2-8.44.26,1.61.51,3.22.82,5.22l-3.82-1.09-3.8,1.37-11.54-8.57V219l-4.18,3.48-3.8-3.07h-14.1l-1-3-2,1.77-4.66-2.24,1.68-1.85c-4,.23-7.56-4.51-11.35.1.77,1.5,1.55,3,2.44,4.72l-2,1.58-1.92-1.19-11.44,7.33c-3.64-1.31,1.26-3.7-1.28-4.92l1.52-6.34,5.32-4.19H987c-2.41,3-6.24,5.33-8.27,9.48-.86,1.78-3.23,2.82-5.28,4.5l3.07,3.34c-4.6,7.64-12.92,10.81-19.27,16.32-1,.86-3.11,1.62-3.05,2.27.26,2.73-2.27,2.4-3.23,2.74-5.37,1.88-10.49,4.32-15.8,6.31-.13,0-.37-.2-.76-.42,1.06-1.52,2.11-3,3.49-5h5.32c3.23-3.05,5.83-6.06,10-7.48,1.92-.65,3-3.76,4.59-5.9.5-2.82,1-5.85,1.63-9.21-2.11,1.18-4.3,2.15-6.25-.16-.49,1-1,1.92-1.63,3.27l-5.15-3.86-5.11,3.45c-3.39-3.07-3.39-3.07-1.43-7.22L938,219.68l-6,2.56-7.59-7.58s.45-.81,1-1.79c-1-2.35-5.12-2.21-4.85-5.71,1.78-1.67,3.87-3.65,6.66-6.29.38-1.08-1.19-3.88,1.89-5.33l4.54,2.34,3.21-3.86h4.94l2.35-2.36c0-2.31-4-4.66,0-6.9l-2.47-2.57-7.52,4.56c-4-.38-9.1,1.21-13.76-1.74l-2-4.84-5.85-2.64c1.25-1.07,2.25-2,3.37-2.82a8.39,8.39,0,0,1,2.4-1c4-1.17,7.17-4,11.42-5.86v4.6c1.55.08,2.89.06,4.2.24s2.51.55,4.18.94L941,171h4.48l0-.76-5.31-.58c-.18-1.2-.37-2.5-.6-4h-7.32l-5.09-7.91-7.06-2.41V150.4h8.56c2.11-2,4.62-3.21,4.12-6.56l5.55-4.77,8.45-2.65c-.07-.06.42.39,1.15,1,.27-1.45.5-2.74.79-4.28h7.19l6.19-4.21h4.45c-.48,1.29-.88,2.38-1.8,4.89l5.33-4.38c.64,1.48,1.05,2.41,1.45,3.36l7.28-1.57,2.67,4.19,2.9,1.31c5.68-1.37,11.56-2.2,17.32,1.9,6.83-.63,13.74,2.53,21,1.47a4.22,4.22,0,0,1,1.92.45c2,.76,4,1.89,6.12,2.26,2.29.39,4.71.09,7.39.09,4.5,4.9,11,5.6,17.92,7.43-.68-1.45-1.08-2.28-1.47-3.11.5-3.79,4.82-1.9,6.27-4.21l4.19,2.45c5.16-2.27,9.94-5.09,15.79-5.57.32.92.6,1.72.87,2.52,4.76.26,6.11-.91,7.51-7.1,1.37,1.08,2.86,1.75,3.52,2.89,1.64,2.83,2.89,5.88,4.67,9.61,2.33-3,4.17-5.36,6-7.75l1.89,3.68-.63.69c.61,1,1.21,2,2,3.36l5.41-4.9h6.34l6.26,4.25c3,0,6.15-.23,9,1.83a7.54,7.54,0,0,0,3.81.95c2.82.13,5.64,0,7.8,0l5.63,5-6.4,3.12,2.9,3.54,18.54-2c1.89-2.45,3.44,2.1,5.37.19l5.14,5.42-1.47,2.62c2.36,1.57,3.07-.62,4.3-2.07-.58-2-1.18-4.17-1.88-6.59l5-3.16c-2.57-.49-4.71-1-6.78.92l-1.9-1.78c.19-.34.29-.86.56-1,4.22-1.67,8-4.79,13.25-4.11.08,1.27.16,2.38.23,3.51,3.22.74,5,5.18,8.95,3.28l2.86,2.85h17.32c.94-4.16.94-4.16,5-6.66-1.49-3.1-4.77-2.64-7.23-3.64-.7-3.63,2.35-1.69,3.85-2.64v-3.6l4.92-.42,3.39,3c1.78-.55,3.24-1,4.34-1.45a53.44,53.44,0,0,0,3.58,6.34,29.69,29.69,0,0,1-4,2.1c-1.85.66-3.81,1-5.7,1.56-.19,0-.24.61-.39,1l4.38.72c-.67,2.21-1.24,4.06-1.81,5.92,1.57,1.86,3.24,3.29,5.66,1.36l-1.86-6h3.66l5.06-5.05c-.87-1.3-2.43-2.58-2.48-3.92C1237.08,144.14,1234.35,144.28,1231.09,144.36ZM1108.52,297.6l2.17,4.28c-.31,1-.49,1.54-.85,2.67l2.53-.79v-7.37c-3.17-3.68-4.9-8.74-10.67-7.73-.41-1.21-.69-2-1-2.91l-2.06.3c1.53,5.89,6.8,7.6,11,10.44Z"/><path class="cls-2" d="M1415.46,138.69,1411,135c7.81-.83,7.81-.83,14.78,1.79a9.21,9.21,0,0,0-5.13-5.32c-4.55-2-4.41-2.27-6.08-7-.45,0-1-.06-1.33.18-.9.75-1.69,1.64-2.71,2.66-.73,0-1.65,0-2.57,0-.67,0-1.33-.11-2.28-.2,0-1.21-.45-3,.08-3.32,2-1.39.14-2.2-.35-3.72.94-1.14,2.06-2.49,3.92-4.71l-3.56-1.48v-5.81l-3.33-1.9c.48-2.1.81-3.55,1.3-5.68-.68-2.39-3.64-3.88-6-5.43-1.82-1.2-3.11-1.8-3.66-4.19-.41-1.72-2.18-3.94-3.78-4.41-5.27-1.53-10.19-4.38-15.88-4.47-.77,0-1.52-.84-2.34-1.33-4.45,1-8.77,4.25-14,1.18-.31.89-.58,1.67-1,3-4.5-.33-8.41-2.61-12.35-4.46.7-1.29,1.2-2.23,1.74-3.25l-10-2.65,3.5-1.38c3.15-1.46,7-.45,10.81-2.16,1.88-.85,4.72.43,7.72.82l1.13-1-3.49-4.07-9.27,2.72c-3-.08-4.74-3.27-7.24-4s-5.19-1-7.56-2.34c-.35-2.58.21-4.42,3.18-5.07,3.43-.74,6.81-1.75,10.15-2.82a13.47,13.47,0,0,0,4-2.33c4.32-1,9.11.68,12.65-1.86l4.13-5.71L1364.48,41h-10.57c1-1.63,1.31-2.81,2.08-3.37,4.81-3.51,10.28-5.86,15.54-8.57a6.32,6.32,0,0,1,5.79-.05c1.58.65,3.44.64,5.92,1-.54-3.07-.94-5.41-1.44-8.28.16-.19.77-.86,1.89-2.11l10.37,1.1c-.22-.34-.48-.77-1.16-1.88l2.87-.89c4.89-.17,10.1-2.78,16.26-4.11l2.61,4.73,1.1-.8V24l2.27.25c.14-2.68.29-5.34.45-8.28h3.68l3.58,3.8H1432c0-.37.14-.82,0-1-1.33-1.53-2.72-3-4.37-4.81,2.52-1.89,4.9-.74,6.31-1l21.35,9.7c-.45-1.07-.56-2.28-1.18-2.65-2.62-1.57-5.46-2.77-8.07-4.37-1.06-.65-1.72-2-3.16-3.68l9-1c-1.37-1.19-2.09-1.74-2.7-2.38s-1-1.24-1.85-2.38c5.85-1.19,11.84,1.2,16.07-3.57,5.17,4.39,10.23-.54,15.42.43.16.6.32,1.24.63,2.41l3.76.38V2.33c.63-.38,1-.78,1.39-.82,5.69-.5,11.39-1.15,17.1-1.38s11.32-.08,17,0c2.47,0,4.89-.22,7.26,1.31,1.58,1,3.77,1.24,5.72,1.46a59.14,59.14,0,0,0,6.55,0l6.42,5.7c3.44.25,8.59-1.2,12.48,3.72L1553.39,14c-2.05-.33-5.58,1.09-9.16,2.34a13.26,13.26,0,0,1-4,.68c-4.24.08-8.54-.38-12.72.13-5.73.7-11.37,2.07-17,3.26-.58.13-1,.95-1.7,1.64,3,2.07,5.73-.51,8.11-1.06a49.11,49.11,0,0,1,10.81-1.1,55.8,55.8,0,0,1,12.29.88c-2.86,1.74-5.72,3.49-9,5.48,4.49,2,7-1.53,10.08-2.66s5.75-3.22,9.37-5.33l3.76,2c-.72,6.16-6.9,8.16-9,13.62,6.64-2.36,11-6.67,15.25-11.17,1,1,1.81,1.81,2.75,2.75.47-.39.94-.78,1.37-1.12l9,1.69c.18-1.5.31-2.58.46-3.8,3.2-3.16,7.47-2.69,11.39-2.2,3.65.45,7.15,2,11,3.16v3.31c-8.86,4-17.84,8.08-28.57,9.31,3.65,2.11,7.16.2,11.17,1.81l-3.35.92.79,1h-9.68l-6.37,4c3.7.94,5.13-1.79,8.51-2,.72.36,2.88.76,4.08,2.6-.59.68-.72,1-.89,1-1.37.16-2.75.26-4.34.4-2.46,1.5-4.34,3.63-3.9,7l-6.83,3.45c.84,3.91-1.29,7.62-2.39,12l5-4.42,7.44,4.44h-7.66l5,4,4.75-1.66,3,6.52-13.32-2.08-2.63,3.46L1553,76.6c-.06.77-.4,1.71-.11,2,1,.93,2.16,1.62,2.86,3l9.29,1.88,2.29,6.2-2.91,2.41h-5.78v4.23l8.07,3.63c-.43.45-1,1.09-2.06,2.21H1554.2l7.41,6.26-2.63,1.14.53.69h-10.07l-6.47-3.36c.4,1.46.56,2,.89,3.19l-4.34,3.12,2.16,2.47,9.87-2.85c3.34,4,3.34,4,.15,7.66l-7.69-2c3,5.5,8.33,7.2,11.52,11l-1.51,1.8c.59,1.18,1.17,2.34,1.77,3.56l-2.11,2.28h-6.33l-6.87-6.86h-2.75c.37,1.63.74,3.23,1.08,4.71l-5.13,3.27,19.55,2.42c-1.49,1-2.53,1.63-3.58,2.27-4,2.41-7.84,5-11.91,7.15a26.18,26.18,0,0,1-7.35,2.69c-5,1-9.89,2.8-15.08,3-.67,0-1.3,1.1-1.89,1.64l-3.84-2.15c-.33,1.45-.6,2.61-1,4.32a17.9,17.9,0,0,0-7.32,8.28c-1.64,3.46-5.26,5.93-9.92,6.4-2.84.29-5.71,1-8.61,1.41-2.43.35-4.66,2.19-7.68,3.72,0,.35-.24,1.65-.49,3.33l-4.56-1.61,3.21,5.34-2.46,1.15c.61,5-2,8.28-3.55,11.91h-2.79c-2.53,3,.36,5.5.8,8.77l-3,3.39v5.58l-3.68,3.46c-4.79.82-8-2.08-10.64-5.06l-9.34-2.21c-3-3.81-7.22-7.31-9.47-12.35a3.73,3.73,0,0,1-.17-1.5c0-.17.31-.33.38-.41l-8-11.85v-6.58l-7.7-7.68,3.64-4.66-4.83-3.58,6.25-11.87H1425c.75-3.21,1.44-6.22,2.16-9.32-3.34-2.13-6.53-3.6-10.27-3.5Z"/><path class="cls-2" d="M679.47,643.74c5.23.21,4.18-5.56,7.44-8.16,0-4.5,0-9.38,0-14.26,0-.33.63-.66.95-1l-1.59-1.7c1.28-3,2.57-6.13,4.37-10.4L695,618.71v7.8l5.15.28,3.37,5c0,2.23-.77,6.53,2.82,9.8-.15,2.86-.46,6,1.49,8.4a18.85,18.85,0,0,0,5.87,4.5c3,1.53,5.21,2.92,5.65,6.87.18,1.7,3.2,3.16,2.52,5.71l5.61,2v5l5.95,5.14,1.85,5.4h2.86c.15.34.5.89.43,1-2.21,1.92-1.36,4.56-1,6.61,1.61,9,1.29,8.86.1,17.26-.55,3.86-1.92,7.25-2.83,10.87-.51,2-1.83,2.06-2.73,3.06s-1,2.87-1.77,4.17c-1.45,2.52-3,4.86-2.92,8,0,1.08-1.45,2.2-2.65,3.88-.49,3.27,1,7.59-2.09,11.46h-4.58l-11,5.77L701,751.56l-4.2,4.19-16.89-6.28-2-4.26,1.68-2.39-3.17-5.54-4.06-.48v-6.31l-6,4.7c1.89-4.74,3.22-8.09,4.62-11.59l-2.06-1.06c-.89,1.83-1.72,3.53-2.37,4.88l-6.43,5.19-1.95-2v-4.21l-4.1-2.4c-.09-1.69-.18-3.27-.27-4.84-3.64-2.16-8.66-.67-11.83-4.81-5.51-.28-10.69,1.37-16.14,4.2H618c-3,2.78-7.76,3.48-9.74,8a23.21,23.21,0,0,1-4,1.31c-1.71.27-3.91.81-5.15,0-2.9-1.8-5.2-.66-7.57.61-3.11,1.66-6.13,3.5-9.77,5.6h-6.41l-6-6.29,1.84-1a61.53,61.53,0,0,1,1.5-6.8c.82-2.27.57-4-.52-6.35-1.83-3.94-4-8.09-3.23-11.63l-7.36-15.45,5.11-1.05-5.1-8.31c1.15-2.4,2.19-4.55,3.17-6.57L563,665.57a24.65,24.65,0,0,0,12.37-7.77c3,0,6.33.48,8.89-1.83,2.83-2.56,6.19-2.51,9.52-2.39l7.84-7.82V640l3.26-2.82c.64,1.55,1,2.47,1.46,3.52h2.44c-.31-1.81-.58-3.42-.89-5.23h2.5l4.35-8.56,3.49-.4c.14-.57.29-1.21.48-2l3.64-1.89c1.31,2.79,5.47,3,6.6,6.84l1.82-1.38,4.82,1.78c-.76-1.86-1.23-3-1.8-4.36l6.28-8.66h4.84c.87-1.35,1.8-2.82,2.81-4.41l12.38,4.37,1.61-1.33,1.44,1.23,1.45-1.32,2,2c-1.7,1.84-1.62,5.39-5.74,5.22l1.5,2c-.48,1.61-1,3.45-1.61,5.44L672,639.38C675.68,638.37,676.46,642.78,679.47,643.74Z"/><path class="cls-2" d="M1227.86,40.93l4.08,1.72,2.14-2c-.19-.31-.43-.91-.57-.89-2.39.38-4-.61-5.31-3l2.42-2.56,4.89-.22c-.52-1.29-1-2.37-1.53-3.76l4.4-.65-1.54-3c3.13-2.54,5.89-.15,7.2,1.3,3.85,4.25,8.67,6.22,13.51,7.71l2.57,4.12,7.45-1.81-2.07,2.55,2.77,2.89v4.55h6.19l-4.67-3.43c-.32-1.88-.61-4.16,2.47-6.38l10.65,1.46c3,2.88,5.72,6.5,11.53,5.57l-8.35-6.14,2.89-1-.62-.87h8.77l6.67-5-2.29-2.28-1,2.18a26.23,26.23,0,0,1-12.8,3.6c-4.75.08-9.49,1.08-14.44,1.7-1.07-1.7-2-3.18-2.77-4.36l-9,1.45-7.2-4.9,1.56-3.11L1252.74,25l1.24-1.47c-.27-.24-.65-.79-.86-.73-1.85.5-3.66,1.1-5.76,1.76-.18-1.29-.27-1.93-.38-2.7,3.12-.65,6.14-1.36,9.19-1.86.42-.07,1,.84,2,1.73l4.26-5.18,6.92,3.18,2.59-3.9,3-.29.88-2.4c3.73-1.45,5.93,2.73,10.06,2.54l2.84-2.63h6.08c.25-1.5.48-2.8.71-4.17L1299,10.2l.5-2.43c.27-.16.67-.62,1-.58,1.55.17,3.07.61,4.62.74,2.21.18,4.64.78,6.62.12,4.8-1.6,9.51-.9,14.27-.4.36,0,.67.56.79.67l6.22-4.19L1338.41,7c3-2.52,6-.72,9.36,0s7,.17,10.55.17c-.41,1.65-.41,1.65-1.22,2.53,2.91-.41,5.46-1.13,8-1s4.73,1.09,7.23,1.72c0,2.12,2.38,2.66,4,3.34,1.31.57,3.18-.12,5.17-.28l1.16,1.16c-.09.29-.1.79-.32.91-4.2,2.35-8.44,4.67-13.18,7.27H1356c.11,1.09.19,1.89.35,3.46,3.62-3,7.23-1.86,10.78-2.2.44,2.89-.94,3.89-2.88,4.3-6.63,1.38-12.21,4.8-17.66,8.63-2.48,1.75-5.34,3-8.55,4.71l-2.3,3.84-7.61-1.3-4,5.54h-11.92v2.41h8.84l2.41,2.41c-.63,4-3.76,6.45-6.47,9.15h-8.47l-2,2,1.43,2c-.27.65-.32,1.29-.61,1.42-4.71,2.22-9.49,2.36-14.8.67l-1.46,1.7c.72,2.26,2.78,2.54,6.85.57,3.24,2.15,6.86,3.84,11.07,2.75.56,3-.87,3.82-2.74,4.49-3.08,1.11-6.09,2.39-9.56,3.76L1291,79.29h-10.87l-1.38,3.78L1269,79.3h-11.82c-.11-1.25-.22-2.52-.32-3.68,3.9-1.7,8.34-.92,11.42-4l-4.92-3.15,2.64-3.32h4.48l5.36,6.87h3.51c0-.84.27-1.7,0-2.08-1.88-2.23-4.9-3.72-4-8l-6.07,1.57-3.83-2c0-2,1.26-3.14,5.46-5.65,6.45-2.48,11.33,2.22,17.06,1.77-4.74-2.08-8.6-5-11-10.31l-3.32,4.94-5,.24c-1.33,4-6.7,4.75-7.17,8.73-2.34,2.94-4.06-1-6.41.57-1.7,1.09-4.51.48-7.06.64L1237,54.22l8.7-4.37h-13.59L1226.87,42Z"/><path class="cls-2" d="M1325.42,154.25h-2.61l-2.73-4.29-5.89,1.75-.6-1.08,4.79-3.64a68.72,68.72,0,0,1-7.08-4.28,56.14,56.14,0,0,1-5.25-5.18h-4.89l4.24,2.83c-1.51,1.71-5,1.45-9.32-.25a3.9,3.9,0,0,0-1.41,0c-2,.89-3.87,2.37-5.93,2.65-1.83.26-3.84-.77-5.76-1.26a39.69,39.69,0,0,0-5.08-1.36,48.7,48.7,0,0,0-6,0l-3.51-3.18-2.69,1.86-7.34-3.51v-3c2.23-1.3,4.42-.75,6.56.58l1.91-2.05-10.66-2c-1.57-11.33-1.63-11.41,8.1-20.78,4.08-1,8.06-3,13.2-1-3.75,2.62-6.32,5.67-7.2,9.5.37,2.39.72,4.77,1.22,8.05l6.24,4.4c1.25-4.19-3.06-3.55-4.06-6.14l3-3.24c-1.4-1.52-3.47-2.65-2.59-5.84,4.38-4.91,11-6.13,17.5-8,2.57,5,7.75,9,3,15.55,3.36,1,4.85-1.59,7.15-2.16.62.62,1.45,1.46,2.63,2.63l2.95-4.22h9.93l4.67,5.43c2.42.52,2.42.52,6.63,6.07,2.61-2,5.68-1.81,8.82-1.58.72,3.65-2.3,3.6-3.94,4.78,2.34,2.82,4.34-1.1,6.68-.59l.55,2.67h6.09l2.46,2.7-1.45,2.37c.13.15.37.67.62.68,2.3.07,4.79-.48,6.07,2.22l-3.74,4,6.29,1.62-6.58,1v3.53a46.37,46.37,0,0,0,16.87,6.42l6.46,7.94h5.48l2,2a47.58,47.58,0,0,0-4.87,4c-1.53,1.63-2.5,4.84-4.09,5.1-3,.51-1.83,4.18-4.55,4.31-1.91-2.6-5.38-4.16-6.31-7.74l-7.54-3.61-2,2.52c2.29,1.77-1.45,3.44-.14,5.24a12.77,12.77,0,0,0,9.53,5.55c1.6,2.87,1.78,6.32,4.37,8.88,1.29,1.26.1,3.48-1.78,4.83h-5.54l-9.78-5.85c-.56.56-.78.7-.87.9s.09.37.21.49l10.68,10.69v3.7c-4.16-.21-7.43-2.27-10.32-4.36s-5.69-4.36-9.7-4.11c-.89,0-1.84-1-3.6-2.08l-1.6-4.59c-2.3-2.59-3.54-4.66-5.37-5.87s-4.39-2.42-7.08-1.13c-.13.57-.27,1.21-.48,2.15h-13.8V183.1l3.61-3.61,9.42,1.48,5-2.85c-.5-2.74-1-5.27-1.43-7.89l7-2.38v-8.93Z"/><path class="cls-2" d="M1140.86,111.82l7.77-1.54,2.78,4-3.61,4.28h3.69c.71-1.65,1.55-3.62,2.4-5.58,4.18.7,7.66,1.43,8.75,5.7h4.65c1.55-2.77-.94-2.42-2.38-3.26.12-.68.26-1.48.46-2.59,6.19,2.27,10,5.82,9.52,12.81h3.44c.59-3,.59-3-1.89-7.24v-6.11l1.37-1.37,6.48,1.05c.11-.26.21-.53.31-.79l-4.06-2.8,9.49-2.93,2.22,5.24-3.09,3v9l2.72,1.13V131c4.68,4.76,12.63,4.37,15.86,11.09l-10.31,2.53c0,.34.07.67.1,1h6.85v3.84c-4.06,3.05-8.8,1.64-12.48,1.93l-9.84-5.43-3.22,4.2c-4.16-.55-7.39.11-10.29,2.51-2.18.85-5.06-1.05-7,1.44-2.08-2.14-4.76-.9-7.58-1.47l-4.33-5.32h-7.74l-7-4.86a13.84,13.84,0,0,1,9.8-3.79c4.69,0,9.38,0,14.17,0,.24-1.54-1.09-1.87-1.67-2.83-5.8,0-11.68,0-17.56,0-3,0-3,0-7.26-2.46.14-3.77,3.59-2.72,6.78-4.18l-5.78-.57-5.3-3.66c-.19-2.5,3.15-3,3.13-5.86,0-1.49,2.58-3,4-4.48A6.5,6.5,0,0,0,1140.86,111.82Z"/><path class="cls-2" d="M640,562.36l5.17-3.55h6.68l3,3,2.29,11.6c2.36-1.3,4.48-1.39,5.78-4.14.91-1.93,3.88-2.88,6.69-4.79,1.3-.25,3.25.25,5.46,1.27,4.93,2.28,10.18,3.86,15.27,5.79a43.2,43.2,0,0,1,13.56,8.22,13.29,13.29,0,0,1,1.68,2.81c2.7,1.77,7.25,2.25,9.92,6.25-1.54.77-2.49,1.23-3.41,1.7,0,.25-.17.58-.07.68,2.7,2.74,2.32,7.71,6,9.45,3.49,1.67,5.39,4.7,7.91,7.8l-12.16-1.93c-1.09-2-3.43-3.38-4.88-6a10.14,10.14,0,0,0-11.09-5l-6.22,7.32-7.32-1.94L681.94,597H669.88c.72-3.08,3.07-4.14,5.48-4.88-1.29-3.07-2.39-5.67-3.88-9.19l-20-8.11-2.39,1.39-3.44-5.4,4-2.91-4.27-.72Z"/><path class="cls-2" d="M582,535.24c.41.71.81,1.43,1.39,2.43l-1.49,2.08c1.08,1.5,2.78,2.5,2.95,5,.11,1.67,2.42,3.19,4.09,5.19l-7,3.32v6.05l-4.31,4.32v7l-7.48,4.38-2.45-3.31c-3.72-.26-6.72-.35-9.69-.73a11.47,11.47,0,0,1-4.29-1.51,17.59,17.59,0,0,1-3-2.94v-4.27l-4.12-4v-4.19l-3.29-3.66c1.2-2,2.32-3.92,3.64-6.17l7.72,3.66c.17-2.69.31-4.92.47-7.38h7.39l3.76-8.72h6.51l4.25-8.21h4.33a11.61,11.61,0,0,1,1.73,1.8,6.28,6.28,0,0,1,.42,2.06l4.86.25-.81.88,2.8,1.2C590.17,531.62,584.94,534.57,582,535.24Z"/><path class="cls-2" d="M275.71,679.9l-5.57,1.79a11.37,11.37,0,0,1-8.27-8.8c-2.34-10.56-2.17-11.34,2.44-16.83,1.61-4.16-1.18-8-1-11.95.19-3.79.95-7.55,1.47-11.41,5.69-.69,10.23-3.86,15.29-6.18.1-1.74.18-3.32.29-5.2,5.43.6,2.8-6.63,7-7.54,2.73,4.29,4.18,10.73,4.09,18.78L289,630.79c-.58,4-1,8-1.73,11.85-1,5.4-3.27,10.45-4.22,15.86-2.88,1.68-.45,5.14-2.66,7.46-1.41,1.49-.9,4.68-1.65,7A70.5,70.5,0,0,1,275.71,679.9Z"/><path class="cls-2" d="M328.58,84.56,330,85.87c4.83-1.73,9.61-3.54,14.47-5.11a10,10,0,0,1,4.21,0,1.77,1.77,0,0,1,1,.78l12.6-3.06c2-3.42,6.85-3,10.72-4.52l3.32,1.63v3.35c-4.57,3.5-10,4.52-15.29,6-8.18,2.27-16.13,4.91-22.16,11.37h-7.52c.43,3.36-1.17,5.49-4.42,6.35-.2,2.93-3,4.25-4.15,6.75s-3.5,4.68-5.55,7.27v5.92c1.3,1.53,2.44,3.53,4.14,4.71a29.88,29.88,0,0,1,5,4.78c-6.11,2.8-10.91-1.57-16.3-.26-.85-2.2-1.55-4-2.35-6.12l-3.94,1.94a13.76,13.76,0,0,0-1.83-3.19,17.83,17.83,0,0,0-3.44-2.13c.48-2.82,2.35-3.61,5.29-3.38l2.85-7.37,6-5.42v-5.5l3.68-.17L319.09,95l2-.49c.1-.42.26-.68.19-.84-.52-1.19-1.08-2.37-1.89-4.12l5.53-.54C325.94,87.77,327.26,86.15,328.58,84.56Z"/><path class="cls-2" d="M60.23,264.83c.67-2.25,1.11-3.71,1.64-5.52l-2.46-2.57v-2.86L51.69,255a23.26,23.26,0,0,0,1.82-3.63,25.44,25.44,0,0,0,.36-4l-2.81,1.94L48,247l1.21-1.21c-.83-1.86-2.31-3.84.07-5.73l-3-4.13.62-.84,2.37,1.14,4.09-8.36,5.14.91,2-3.72c.13,4.89-1.81,7.15-3.46,10l7.32-1.87,2.14,2.93c.33,3.41-2.29,5.77-4.79,8.7l7.42,5v4.29L73.5,257c.84,2.68,2,6.41,3.14,10.08,2.22.83,5-.75,6.68,2.62-1.57,2.14-3.35,4.56-5.18,7L81,278.09l-5.37,3.44H61.51l-2.14,2.38-8.19,1.77c0-1.65,1.65-2,2.22-3.06s1.2-2.35,2-3.91h5.33l.29-.85-2.39-1.22.43-.62-8-.37L56.62,271c-.62-2-1.18-3.88-1.88-6.15Z"/><path class="cls-2" d="M129.13,48.43,125,48l-1.69-3.57c3.65-4.12,8.56-3.41,13.71-3.18-.44,1-.82,1.8-1.61,3.5l3.09,1.15c.4-1.2-.08-4.19,3.38-4.84l4.13,9.07c1-3.62,1-3.62-1.42-8,.51-1.12,1-2.24,1.58-3.53l7.92,3-1.92,4,3.73-1.71c1.92,4.83,6.41,5.21,10.81,6.13,1.05,1.55,1.88,4.19,3.38,4.65,2.44.74,2.19,3.39,3.88,4,2,.75,2.86,2.28,3.88,3.79l4.56-1.78c0,1.29.27,2.14,0,2.53-1.46,1.82-3.07,3.52-4.2,4.77h-3.5l-2.18-2.17-5.71,1,1.94-6.53-5.14-4.09,3.56-1.69c-5.29-.5-7.14.69-8.71,4.84-.86,2.26-1.8,4.52-3.79,6.22-2.62,2.24-4.73,4.84-4.74,8.64,0,.7-1.14,1.39-2,2.35-1.46-1.66-3.56-2.66-3.82-5.42-3.15,0-5.49-1.51-7.27-5,3.5-1.13,6.49-3.12,10.45-2.53-3.91-3.23-7.77,1.4-12.34-.81,4.3-3.83,9.84-3.63,13.53-6.87l-2-2-3.21,3c-.25-1.63-.45-2.92-.75-4.94-1.66,2.11-3.82,3-4,5.75-4,1-7.52.35-11-3C127.59,53,126.55,50.69,129.13,48.43Z"/><path class="cls-2" d="M1140.86,111.82a6.5,6.5,0,0,1-5.66,2.83c-2.4-.61-4.28,1.09-5.35,1.35l-6.51,6.52c-1.58,1.46.28,4.34-3.35,6.12-3-.78-5.85,1.54-9.39,3.14l-5.53-7.21h-3.53l-4-2.45c2-2.15,3.55-3.8,5.12-5.46-.47-4,1.23-7,4.35-9.89l-5.75-4.44c5.82-1.27,10.31-2.31,14.83-3.21,1.62-.33,2.93.33,4.42,1.27,2.87,1.81,6.16,2,10.88,1.49a12.6,12.6,0,0,1,7.7,1.88,42.15,42.15,0,0,1,4.81,3.63C1142.85,108.91,1141.86,110.36,1140.86,111.82Z"/><path class="cls-2" d="M507.46,544.45c8.74.33,11.21,6.64,15.14,11.48L521,558.26c3.41,2.92,6.12,6.82,11.06,8.69l-3-4.06c4.81.53,4.85,4,6.31,6.6l-3.1,1.12v12H525.2c-3.08-2.71-6.06-5-8.59-7.66s-4.52-5.69-7.16-9.09a19,19,0,0,0-6.83-11.74c-2.17-1.82-1.07-4.75-2.92-6.62-.68-.69-.37-2.54-1.07-3-3.27-2.07-4.91-5.64-7.83-8-2.66-2.14-3.38-5.54-6.12-7.68l1.2-1.2a20.75,20.75,0,0,0,4.66,1.41c1.66.11,3.13.21,4.38,1.46.42.42,1.63.31,1.76.69C498.78,537,506.88,537.42,507.46,544.45Z"/><path class="cls-2" d="M1301.06,90.18c-.48,2-1,4.4-1.6,6.87-3.46,1.54-6.41,3.17-10.71.94-3.68-1.91-7.7,1-12.23,2.17-3.67-2.33-8.67-.46-13.38-1.23l-2.8-2.8c-.62,1.26-1.24,2.51-1.45,3h-4.43l-9-4.57c.26-2.07.52-4.15.9-7.13l-4.9-6.14c-2.44.34-4.93,1.49-6.14.7-3.15-2.06-7.35-2.52-10.55-6.54,2.93-.15,4.91-.29,6.89-.35s3.78,0,5,0l7.87,4c5.37-3.2,9.26,1.26,14,2l-3.16,3.44c.16.81.15,1.19.25,1.22,1.07.29,2.16.52,3.59.85l3,2.86L1267,88c5.54,3.65,11-1.22,17.75-1C1288.89,89.83,1295.65,85.49,1301.06,90.18Z"/><path class="cls-2" d="M1551.62,171.19l5.35,3.11v5.4l4-1.88c.18-1.14.4-2.44.69-4.23l3.32,1.76,1-2.86,3.85,1.59,2-1.11,2.32,1.31c1.55-1.39,3.21-2.88,4.88-4.36.83.83,1.67,1.66,2.56,2.56l3.61.4c0,1.13.11,2.25.14,2.89l6.34,5.1c-4,4-6.71,8.38-12.78,9-2.39.23-4.59,2.46-6.85,3.82-3.6,2.16-7.09,2.2-10.6-.25-1.25-.88-2.66-1.53-4-2.31l-5.71,1.73-.52-2.77,3.32-.61-4.78-4.78-3.49.88-.83-1.08,2.81-.29-1-1.54h5.4v-4.55l-6.29,1.55-1.5-1.5-.5-.5C1546.74,175.58,1547.56,171.78,1551.62,171.19Z"/><path class="cls-2" d="M1181.3,86.6c.32-1.07.76-2.53,1.3-4.35,2.15,2.68,3.1,3.87,4.8,6v3.35l-4.14,2.62c-3,1.46-6.85-.83-10.25,1.72-3.64-3.15-6.45.24-8.58,1.89-4.82,3.74-9.88,2.24-15.94,2.85,1.26-2.1,1.91-3.2,2.21-3.69l8.62-2.49c-.09-1-.14-1.46-.18-1.91-.4-.2-.94-.66-1.16-.54-2.23,1.22-4.48,2-7,1-.21-.77-.37-1.41-.36-1.38l-3.73,3.72-10.33-2.32c.62-2.17,1.2-4.22,1.85-6.47l3.85-.58c-.64-.94-1.11-1.63-1.86-2.76a30,30,0,0,0,3.25-1.92,30.48,30.48,0,0,0,2.74-2.69l3.51,3.25H1156l8.28,7h6.07l.42-.67c-1.29-.54-2.57-1.09-3.47-1.48l2.26-4-3.6-1.24,6.85-5.33C1175.31,79.92,1175.83,84.8,1181.3,86.6Z"/><path class="cls-2" d="M648.88,383.22h-6.12c0-.82-.27-1.79,0-2,2.48-2,5.06-3.82,8.19-6.13,3.51,1.62,7.69-2.7,12.6-.54.78-1.16,2.3-2.66,2.82-4.44.58-2,.22-4.18,3-5.11l3.24,1.61,6.57-6.9c.67-4.39,5-8.46,3.29-12.25l4-5.85c3.74,4.51,3.92,9.36,4.33,14.2-1.43,1.31-2.8,2.59-4,3.67-.75,5.68-1.46,11-2.18,16.47a38.56,38.56,0,0,1-14.16,4.6c-.48.07-1.09-.73-1.57-1.08l-4.15,5.35h-3.68c-.08-1.77-.15-3.53-.24-5.4a8.49,8.49,0,0,0-2.22-.2c-2.59.57-5.16,1.24-8.87,2.15Z"/><path class="cls-2" d="M818.47,788.61c-1.5,3.5-2.86,7.2-4.63,10.68-2.19,4.27-5.64,5.19-10.16,3.23-2.2-.95-4.48-1.7-6.73-2.54-.43-2.94,1.16-5.14,2.91-7.19A43.84,43.84,0,0,1,811,783.72a14.74,14.74,0,0,0,6.29-6.81c1.17-2.59,3-4.9,4.66-7.63l4.37,1.26L828.6,769l1.88,3.11-1,1.09,1.41,1.42c-4.06,1.89-4.19,6.42-6.54,9.62C822.76,786.42,820.88,787,818.47,788.61Z"/><path class="cls-2" d="M1218,106.24l-2.38-2.6h5.26l4.84,3.46-5.57,4.45v2.76h5.26c.28-.79.57-1.61.92-2.58l2.06,2c-.51,2.8-1,5.6-1.74,9.46-2.11,3-6.9,3.46-10.18,5.81l-8.77-9.45-.91.86h-2.17l-4.95-4,3.16-3.54,4.21,3.33c4.12-1,4.12-1,4.4-5.45h-5.17c-.13-1.29-.25-2.37-.35-3.34.84-1.78,4.58-2.68,7.08-2A50.78,50.78,0,0,0,1218,106.24Z"/><path class="cls-2" d="M1403.48,278.77c.62.62,1.28,1.29,2,2-2.22,2.67-4.79,5.21-3.88,9.61l2-1.81,4,5.91,4.82-1.14c.38.37.88.87,1.46,1.46l-1.49,3,2.25.92c1.21,2.32,2.43,4.63,3.91,7.46l-4.13,3-4.07-3.61-5.58,1.83,2.63-2.94c-1.58-.6-3.44-2-4.31-1.53-4,2.11-8.15.88-12.37,1.35l-2-2.5,2.76-1.29v-4l4.06-2.42C1395.45,287.77,1398.64,283,1403.48,278.77Z"/><path class="cls-2" d="M686.09,86.05l2.48-2.47,11.78,1.57,5,3.62-3.86,6.48-6.3-2.06c-.15-1.29-.27-2.4-.42-3.71L692.63,89c.36,1.89.7,3.64,1,5.39-3.95.59-7.43,1.15-10.93,1.55-.46,0-1-.8-1.24-1l-6.8,1.6-5.15-5.91c.47-3.52,3.72-5.84,6.08-8.32C680.13,81,682.37,84.62,686.09,86.05Z"/><path class="cls-2" d="M159.17,36.64l5.09-2.85c2.25,2.67,5.74,3.39,10,4.93l-1.42-2.8L176,33.25c.65,1.52,1,2.45,1.44,3.37.43.08,1.11.38,1.28.2,1.44-1.52,3.57-2.06,5-1.26,3.2,1.75,6.62,1.08,10.07,1.34l.17,3c-1.73,1.4-3.51,2.68-5.1,4.16-2.07,1.94-4.75,2.16-7.19,3.1s-4.33.51-6.85-.07c-3.85-.87-8-.6-11.81-2.24,1.09-3.66,4.66-1.65,6.82-3.59-2.44-.06-5.31-1-7.22,0-2.67,1.37-4.36-1.14-6.4-.29l-2.12-4.81C156,35,157.69,35.09,159.17,36.64Z"/><path class="cls-2" d="M36.92,253.84l2.21-2.21,3,1.63L47,251.52c1.17,1.78,2.29,3.47,3.63,5.52l-3.38,2.45c.41,4.07.78,7.83,1.19,12-2.73.53-5.32-.32-7.32,2.06-2.36,2.82-6,2.71-9.33,2.23l-2.34-2.19,5.06-8.1L31.27,264v-6.73L35,258.42l3.56-1.74Z"/><path class="cls-2" d="M838.14,773.67H834a6.8,6.8,0,0,1-.24-2.06c.53-2.34,1.19-4.65,1.68-6.52l-5.78-4.25v-3.7l2.09-.46c.58-2.32,1.15-4.64,1.92-7.73l-9.49-14.88c2.11.47,3.22.42,3.92.93,3.85,2.86,5.36,7,5.83,12.18l3.56-1.27a13.82,13.82,0,0,0,1.08,3.62,19.28,19.28,0,0,0,3.07,3.17l8.84-2a38.42,38.42,0,0,1-1.2,3.83,11.25,11.25,0,0,1-2,3.39c-.89.91-2.51,1.15-3.28,2.11-.91,1.14-1.23,2.75-1.83,4.15Z"/><path class="cls-2" d="M1204.63,85.94c-.22-.76-.38-1.54-.66-2.27s-.69-1.5-1-2.18c3.83-2.81,5.25,2,9.53,2.92l-5.94-7.48c4.65-1.35,7.61,5.4,11.49,1l4.74,4.73v9l-3.49,2.28.53.93a21,21,0,0,0-4,.07c-1,.19-1.93,1-3.43,1.73l-2.11-3.76c.24-.74.81-2.6,1.6-5.13-3.13.52-5.95,1.59-8.6,1.26-2.45-.31-4.91-1.83-7-3.32a10.83,10.83,0,0,1-4.56-7.52h5.52c1.94,2.44,4.25,5.33,6.55,8.23Z"/><path class="cls-2" d="M603.22,576.39l-4,2c-2.77-2.35-3.52-5.76-3.56-9.52l-2.67-.17c.41,3.91-1.1,7.78,1.76,11.78l-3.48,2.72c-2.25-3-.7-5.4.61-8.06-1.15-.77-2.23-1.48-3.28-2.23s-1.82-1.35-2.87-2.14c.59-6.81,8.11-10.89,7.21-18.75,3.31.27,6.22-3.23,9.42-1.33,2.12,1.26,4,.86,6,.93,1.39.06,2.8-.6,4.19-.95.11.43.22.85.43,1.69-3,1.41-5.88,4.14-9.23,1l-9,1.64v6.61l10.88-2.91c-1.12,4.07-1.12,4.07-5.41,6.38C601.22,568.88,602.23,572.67,603.22,576.39Z"/><path class="cls-2" d="M1296.28,193.69h-7.67l-2.58-2.58h-4.48c-.85,3.93-4,5.24-8,5.7L1271,193l-5.31.85,3.81-5c.31-7.33.87-8.84,4.8-13,1.29,1.3,2.41,2.87,3.93,3.83,2,1.27,4.58,1.72,6.41,3.16s5,1.28,5.14,4.8c0,.85,1.5,2,3.25,2.18C1293.9,189.85,1294.67,191.67,1296.28,193.69Z"/><path class="cls-2" d="M690.58,297.34c.65-1.41,1.58-2.44,1.5-3.38-.49-5.44.44-10.82-1-16.44-1.26-4.93-1.83-11.07,3.36-15.89.27,1.39.48,2.52.74,3.84l2.76,2.76c-.22,1.35-.15,3.25-.88,4.75a4.84,4.84,0,0,0,0,4.4c1.89,5.11,3.4,10.36,5,15.58a11.49,11.49,0,0,1,0,2.91L695.92,294c-2.65,6.89-4,13.28,3.91,18.06-3.17,0-3.17,0-6.07-2.57-.71,1.09-1.43,2.22-2.25,3.5C688.58,307.59,695.07,302.42,690.58,297.34Z"/><path class="cls-2" d="M606.56,489.87l-10.38-2.22-.49-4.74-2.44-2.44v-4.8l2.57-.59v-9.49h6.75c.72,2.77,1.44,5.54,2.25,8.61l-4.91,4.92c.71,2.52,1.36,4.84,2.09,7.42h6.38c2,4.88,7.26,6.9,9.54,11.54a18,18,0,0,1,.83,2.48c-1.31,2-2.53,3.78-4,6.07-.83-2.8-1.61-5.41-2.41-8.09l-4.15-3,1.84-2.67Z"/><path class="cls-2" d="M489.74,39.68h6.66l2.68,3.26c1.1-.69,2-1.27,3.14-2l4.52,2.23c-.6,3.31-1.2,6.58-1.92,10.5-1.11,1.29-2.53,2.21-5.35.9-3.12-1.45-6.79-1.72-10.65-2.61l-6.25-5.05c-.68-2.25,4.24-2.73,2.92-5.82,1.15.35,2.15-2.6,3.39-.15Z"/><path class="cls-2" d="M692.81,335.33h-7.52l1.41,3.42-4.09,2c-1.14-3.57-.12-6.66,1.71-9.67h3.19q1.59-5.12,3.25-10.49l-1.48-1.68,2.31-1.77c2.91,2.12,4.4,6.14,9.37,8.24l9.66-1.21c-1.63,2.9-5.53,4.14-4.3,8.23h-6.57l-3.88,5.81Z"/><path class="cls-2" d="M1135.67,72.29l3.7-3.32,5.18,2.36-4.06,2.4,1.43,1.7c-.37,4-4.73,4.24-6.83,8-1.18-2.93-1.93-4.81-2.73-6.78-3.81,1.14-2.52,4-2.95,6.55a13,13,0,0,0-3.75.81c-1.15.61-2,1.82-3.54,3.34l-1.41-3.42-7.58,2-1.73-3c.66-.72,1.2-1.91,1.93-2,5.37-.9,8.92-4.81,13.12-7.63S1131,70.28,1135.67,72.29Z"/><path class="cls-2" d="M565,589l-5.42,3.45h5.64l7.51,3.81c-5.93,1.25-14.28,1-19.61-.72a12.45,12.45,0,0,1-3-1.26c-5-3.34-5-3.37-10.72-1.38l-8.57-5.21c-.25-3.69,3.65-2.9,5-4.76.53.43,1.09,1.27,1.58,1.24,2.72-.21,4.66.71,6.84,2.52,1.63,1.35,4.57,3.72,6.93.59l6.61,2.59C559.63,589,562.06,587.61,565,589Z"/><path class="cls-2" d="M1212.82,57l.39,3.32,2.5,2.5c-1,2.95-3.57,2.22-5.68,2.28l-6.45-4.4h-13c0-.86-.08-1.5-.14-2.63h5.23c1.36-3.91-2.69-2.42-3.2-4l-2.81,1.84c-1-2-1.81-3.71-2.55-5.21,4.76-3.45,8.78-3.27,12.56.38.34.33.7,1,1,1C1205.64,51.45,1208.46,56,1212.82,57Z"/><path class="cls-2" d="M519.57,53l4.3-2.12,7,5c-.58,4.73-4.93,4.1-7.39,4.7-3.63.9-7.32,2.42-11.39,1.83-2-.28-4.15.95-6.74,1.62-.54-6.84,5.91-9.27,7.45-14.21l8.42-2.07Z"/><path class="cls-2" d="M489.74,39.68l-.86,1.26c-1.24-2.45-2.24.5-3.39.15h-1.86L481,45.16h-5l-2.42-3.9,4.53-.32a6.08,6.08,0,0,0-2.69-3.29l4.23-3.08c.49-1.83.27-5.1,4.77-5,1.87,0,3.81-1.9,5.75-3,1.55,3.12,3.29,5.61,6.21,6.43-.47,1.65-.92,3.28-1.37,4.9C493.42,39.18,490.69,36.68,489.74,39.68Z"/><path class="cls-2" d="M1300.76,449.09,1290,446.91c-.35-1-.65-1.8-.91-2.54-4.46-1.06-6.65,3.29-10.06,4.24-2-2.3,0-3.55,1.13-4.06a55.58,55.58,0,0,1,9.28-3.11c3-.76,5.64,1.1,8.34,2,2.46.78,4.57,2.55,7,3.62,5.55,2.49,11.18,4.81,16.75,7.25.31.14.41.75.9,1.73l-4.53,1.63-8.4-.86Z"/><path class="cls-2" d="M622.67,521.81l-4.18.46v7.37l-6.67-3.22c-.19-1.87-.38-3.63-.6-5.8l-4.08-1.84-3.81,3.43-2.1-1c1.47-3.49,4.7-5.17,6.72-7.77l5.41,1.91,6.57-7.32C621.67,512.28,623.28,516.76,622.67,521.81Z"/><path class="cls-2" d="M714.38,779.3c-3.08,0-3.47,2.52-4.52,4.39H707l-4.42-4.43c-.69-4.37-1.29-8.13-1.93-12.11,2.42.83,4.74,2.24,7.05,2.22s4.38-1.52,6.41-2.31C717.93,770.69,715.73,774.77,714.38,779.3Z"/><path class="cls-2" d="M1347.42,463v3.92l-5.72-.93c-3,.47-6.28,4.18-10.91,1-1.09-.74-3.7.77-6.16,1.37l-3.38-2.88h7.08l2.4-2.4L1327.9,462V456.8c5.2,1,10.19,1.79,15,3.09C1344.73,460.37,1346.18,462.12,1347.42,463Z"/><path class="cls-2" d="M1299.71,116.57l-5.15-10.15c2.32,0,4.6-.69,5.68.15,1.79,1.4,3.51,1,5.25,1,4.56-.06,7.45,2.29,10.08,6.29-3,1.39-5.81.43-8.38.87C1304.83,115.09,1302.52,115.84,1299.71,116.57Z"/><path class="cls-2" d="M423.94,507.43c5.13,2.47,5.78,7.22,7.93,10.64-2.08,5.1-2.08,5.1-5.89,8.19-.23,0-.54.06-.68-.06-.69-.63-1.34-1.32-2.11-2.08A33.87,33.87,0,0,0,422,515.6C421.53,513.3,423.13,510.55,423.94,507.43Z"/><path class="cls-2" d="M1237,89.32l5.12,7.51-4.43,1.77-7.42-1.41L1226.59,95c-.48-.58-.76-.87-.74-.89C1228.52,91.17,1231.44,88.71,1237,89.32Z"/><path class="cls-2" d="M710.77,92.85V89.42l18,3.08,1.72,2a7,7,0,0,1-.29,1.19c-.12.19-.3.45-.49.48C721.59,97.85,721.58,97.85,710.77,92.85Z"/><path class="cls-2" d="M1220.42,60v-5.1c4.08,1.43,7.3,4.73,11.47,2.81l2.21,2.5L1233,61.57l1.33,1.53L1232,65h-8.16Z"/><path class="cls-2" d="M325.28,33.73H312.4c1.25-3.07,4.48-3.24,5.3-5.35l6,1.6.24-.69-4.3-3.36c5.46.09,8.89-2.58,13-1.62v2l-7.37,1.8,2,3Z"/><path class="cls-2" d="M1309.41,163.91v-6.19l3.74-3.89L1319,156v6.22l-1.68,1.69Z"/><path class="cls-2" d="M1166.34,65.66v3l-3.52,3.45a9.73,9.73,0,0,1-9-3.24l1.84-3.9,14.41-1.91c-1.36,1.45-1.59,1.86-1.94,2A12.75,12.75,0,0,1,1166.34,65.66Z"/><path class="cls-2" d="M1415.46,138.69l1.42,1.42,4.22,4.13v2.36l-5.17,1.63-7.9-4.3c.54-1.8,1-3.39,1.55-5.24Z"/><path class="cls-2" d="M596.61,432.48l6.3-2.92c-.08,6.43-3.15,11.12-4.86,16.9C592.43,441.74,595.23,437.27,596.61,432.48Z"/><path class="cls-2" d="M647.4,388.26c-1.73,4.41-2.49,8.58-6.89,11.27-1.6-3.76-.51-6.86,1.34-11l-4.51,1.71c-.1-.44-.59-1.34-.33-1.66,1.11-1.44,2.43-2.7,3.8-4.15Z"/><path class="cls-2" d="M854.07,133.19c3.32-6.51,8.24-5.86,12.56-5.78l4,2.28c-.27.81-.29,1.43-.57,1.61C865.41,134.17,860.3,132.66,854.07,133.19Z"/><path class="cls-2" d="M606.78,512.38l-2.27-2.27c.46-1.85,1-3.88,1.57-6.27H601.9v-5.73l3.27-.23,6.19,7.92C610,507.8,608.47,510,606.78,512.38Z"/><path class="cls-2" d="M982.86,231.39l-3.16,4.33,1.58,1.94-3.62,4.15h-6.41v-3.48c3.92-1.28,5.83-5.41,9.34-7.8Z"/><path class="cls-2" d="M545.09,465.19V459c2.65-3.55,6.17-1.43,10-2.31-1.69,3.24-3,5.82-4.44,8.52Z"/><path class="cls-2" d="M684.81,108l6.13-3.48a13.23,13.23,0,0,1,8.15,5.2l-2,2.1c-3.51-.65-7-1.24-10.41-2C686.14,109.73,685.71,108.92,684.81,108Z"/><path class="cls-2" d="M1152.89,60.33c5.6-2.33,10.43-4.06,16.37-3.59l2,5.64Z"/><path class="cls-2" d="M112,350l1.39-1.7-2.78-5.44c0-1,2.08-1.77,6.51-1.84v9.22l-3.52,3Z"/><path class="cls-2" d="M734.5,578.9c.32,4.59-4,5.4-6.09,8.06h-9l-2.23-3.5c1.08-.29,2-.8,2.28-.57,2.47,1.88,4.56,1.62,7.38.18,3.86-2,4.17-1.61,5.75-4.56Z"/><path class="cls-2" d="M300.19,31.93A14.4,14.4,0,0,0,292,35.54c-2.69,2.26-6.25,3.16-11,2.41l14.7-9.11Z"/><path class="cls-2" d="M606.31,605.22c3.13-5.32,7.85-6.76,10.91-9.15l6.74,1.35c-1.52.24-2,3-4.49,1.5-.71-.44-3,1.15-4.22,2.16a45.59,45.59,0,0,0-4.18,4.14Z"/><path class="cls-2" d="M319.57,40.74c.37-1,.41-1.82.83-2.23,1.86-1.81,9.51-3.49,11.92-2.61.6.22,1,1,1.67,1.62l-6.36,3.22Z"/><path class="cls-2" d="M141.66,358.19c-.82,2.51-1.53,4.71-2.32,7.13l-9-5.38v-1.75Z"/><path class="cls-2" d="M347.43,33.92l-8.58,2.56-3.29-1.6,5.25-4.1-.7-.86H345Z"/><path class="cls-2" d="M659.7,381.68c-.87,1.87-1.4,3-2.07,4.42l-2.22.17-4.23,4.67c-1.13-.95-1.77-1.25-2-1.74-1.42-2.85-1.11-5,1.21-5.68A88.92,88.92,0,0,1,659.7,381.68Z"/><path class="cls-2" d="M1074.56,273.29c-5.6-.9-5.54-6.29-8.89-8,.77-3.28,2.69-3.88,4.94-3.43C1071.86,265.46,1073.05,268.93,1074.56,273.29Z"/></g></g><g id="Layer_2-2" data-name="Layer 2"><path class="cls-3" d="M1156.26,388.76a.87.87,0,0,0-.16-.17,11.87,11.87,0,0,0-1-.76s-.07-.07-.06-.09a1.19,1.19,0,0,0-.17-.86c-.12-.29-.08-.65-.36-.88a.76.76,0,0,1-.32-.47.57.57,0,0,0-.15-.3c-.27-.18-.24-.42-.2-.66a.53.53,0,0,0-.1-.51c-.56-.61-1.1-1.22-1.65-1.83l-3.84-4.21c-1.51-1.66-3.07-3.28-4.65-4.88-1.12-1.14-2.25-2.28-3.36-3.43-1.71-1.75-3.46-3.48-5.18-5.22s-3.47-3.42-5.2-5.13c-1.5-1.48-3.07-2.89-4.59-4.35a.67.67,0,0,1-.22-.6c.72-6,1.39-12.06,2.16-18.08v-.11c.08-.68.08-.67-.66-.76-2.06-.24-4.13-.46-6.18-.73l-3.39-.46c-2.72-.37-5.45-.67-8.18-1-1.94-.23-3.89-.37-5.82-.63l-.59-.11c-.11,0-.2,0-.2.13a2.23,2.23,0,0,1-.3,1.06c-.08.14-.06.26.07.32a.63.63,0,0,1,.41.7s0,.08,0,.13a2.73,2.73,0,0,1,.19,1.35A4.27,4.27,0,0,1,1102,338c-.14.25-.23.5,0,.75a.21.21,0,0,1,0,.23,4,4,0,0,1-.89,1.5,7.47,7.47,0,0,0-1,1.44.75.75,0,0,0-.1.85c.09.15.22.38.08.57a.29.29,0,0,0,.09.44,11,11,0,0,0,1.1.93.4.4,0,0,1,.24.4c0,.13,0,.25.2.29a.41.41,0,0,1,.16.16c.22.32.41.65.63,1s.3.35.27.59a1.23,1.23,0,0,0,.09.5,1.55,1.55,0,0,1,0,1.16,2.26,2.26,0,0,0-.12,2c.09.25.18.5.26.76a.67.67,0,0,1-.12.71c-.23.22-.13.38,0,.57a2.27,2.27,0,0,0,.4.48,6.93,6.93,0,0,1,1.18,1.31,3.2,3.2,0,0,0,1.33,1.35.55.55,0,0,1,.31.41.93.93,0,0,0,.41.7c.14.09.13.24.14.38a.49.49,0,0,0,0,.29.55.55,0,0,1,0,.59c-.15.34,0,.54.36.65a.77.77,0,0,1,.57.49.55.55,0,0,0,.13.18,1.52,1.52,0,0,0,.62.35,3.88,3.88,0,0,1,.83.58c.07.06.1.12,0,.19a.63.63,0,0,0-.14.63c0,.19.08.39-.06.55a.46.46,0,0,0,.12.73.23.23,0,0,1,.09.11,2.1,2.1,0,0,1,.1,1.33.59.59,0,0,0,.15.66,7.11,7.11,0,0,1,.7.86,1.56,1.56,0,0,0,1.78.85.32.32,0,0,1,.31.12,1.57,1.57,0,0,1,.1,1.95c-.09.13-.22.26-.41.11a.23.23,0,0,0-.35,0c-.11.11-.16.23,0,.35s.14.1.07.18-.12.42,0,.63a1.52,1.52,0,0,1,.09.59,1,1,0,0,0,.48.84,2.25,2.25,0,0,1,1,1.26c0,.14.08.28.26.32s.39.24.38.5a.7.7,0,0,0,.25.58c.27.24.56.5.51.91a.52.52,0,0,0,.34.48c.28.15.62.24.74.57a1.86,1.86,0,0,0,1.17,1.17c.24.08.24.3.16.49s-.13.3-.18.46a.41.41,0,0,0,.23.57c.23.11.38.37.71.26.06,0,.17.07.25.14a.7.7,0,0,1,.18.61,4.67,4.67,0,0,1-.31.81c0,.08-.1.17,0,.23.29.23.22.47.11.74a.29.29,0,0,0,0,.24.5.5,0,0,1-.07.55,2.39,2.39,0,0,0-.16.32.23.23,0,0,0,.16.37.93.93,0,0,1,.71.64c.06.15.14.18.31.18a6.33,6.33,0,0,1,2.76.4c.31.13.59.36,1,.29a.28.28,0,0,1,.19.07.68.68,0,0,0,.52.06.94.94,0,0,1,.7.1,4,4,0,0,1,1,.74.75.75,0,0,0,.35.25.27.27,0,0,1,.21.26.89.89,0,0,0,.48.8c.18.1.42.11.56.26.39.42,1,.47,1.48.75,0,0,.12,0,.18,0a4.57,4.57,0,0,1,1.28,0,.47.47,0,0,1,.22.07,1.56,1.56,0,0,1,.53,1.63c-.06.11-.09.24.06.3s.4.38.72.28c.07,0,0-.11.06-.17a.15.15,0,0,1,.17-.15,1.22,1.22,0,0,1,1,.4,3.55,3.55,0,0,0,1.23,1.14,1.31,1.31,0,0,1,.31.27,6.5,6.5,0,0,0,.53.52,8.08,8.08,0,0,1,1.73,2.06,3.89,3.89,0,0,1,.34,1.34c.06.29.2.6-.08.87a.12.12,0,0,0,0,.1,2.59,2.59,0,0,0,.38,1,1.07,1.07,0,0,1,.31.8c0,.13,0,.21.2.22.31,0,.62.06.93.07l3,.06c1.14,0,2.27,0,3.41.1,1.69.08,3.38.14,5.06.17a6.71,6.71,0,0,0,2,0,.52.52,0,0,1,.21,0c.51.13.47.06.86-.27a1,1,0,0,0,.44-.91c0-.45-.14-.69-.65-.69a.33.33,0,0,1-.17,0,.53.53,0,0,1-.32-.83c.14-.3.27-.59,0-.93-.11-.14,0-.46.1-.69,0-.05.12,0,.19,0s.23,0,.29-.11c.29-.41.79-.71.77-1.27,0-.22.26-.34.22-.56a3.25,3.25,0,0,1,0-.54c0-.24.17-.44.12-.66s.05-.34.25-.44a.53.53,0,0,0,.34-.39.46.46,0,0,1,.35-.36,4.54,4.54,0,0,0,1.35-.69C1156.46,389.11,1156.5,389.1,1156.26,388.76Z"/></g><g id="arrrows" class="cls-4"><path class="cls-5" d="M263.72,615.22c-6.91,17.41-25.35,63-37.75,85.57"/><text class="cls-6" transform="translate(243.75 685.39) rotate(-64.79)">S</text><text class="cls-6" transform="matrix(0.42, -0.91, 0.91, 0.42, 245.66, 681.33)">o</text><text class="cls-6" transform="translate(247.55 677.23) rotate(-65.58)">u</text><text class="cls-6" transform="translate(249.33 673.32) rotate(-65.84)">t</text><text class="cls-6" transform="translate(250.5 670.72) rotate(-66.07)">h</text><text class="cls-6" transform="translate(252.24 666.79) rotate(-66.26)"> </text><text class="cls-6" transform="translate(253.08 664.87) rotate(-66.45)">E</text><text class="cls-6" transform="translate(254.96 660.57) rotate(-66.68)">q</text><text class="cls-6" transform="translate(256.79 656.31) rotate(-66.88)">u</text><text class="cls-6" transform="matrix(0.39, -0.92, 0.92, 0.39, 258.49, 652.34)">a</text><text class="cls-6" transform="matrix(0.39, -0.92, 0.92, 0.39, 260.05, 648.64)">t</text><text class="cls-6" transform="translate(261.11 646.14) rotate(-67.33)">o</text><text class="cls-6" transform="translate(262.85 641.95) rotate(-67.45)">r</text><text class="cls-6" transform="translate(263.94 639.34) rotate(-67.54)">i</text><text class="cls-6" transform="translate(264.65 637.62) rotate(-67.63)">a</text><text class="cls-6" transform="matrix(0.38, -0.93, 0.93, 0.38, 266.18, 633.89)">l</text><text class="cls-6" transform="translate(266.88 632.19) rotate(-67.79)"> </text><polygon class="cls-2" points="222.3 697.01 222.35 706.98 230.96 701.96 222.3 697.01"/><path class="cls-5" d="M1372.86,116.57l20.2,33.77a28.46,28.46,0,0,1,3.11,7.44l5.09,19.7a28.27,28.27,0,0,1-1,17.34h0a28.3,28.3,0,0,0,2.23,25l37.83,61.75a28.3,28.3,0,0,1,2,25.72l-1,2.39a28.34,28.34,0,0,1-13.1,14.19l-14.09,7.28"/><text class="cls-6" transform="translate(1421.33 234.32) rotate(58.51)">L</text><text class="cls-6" transform="matrix(0.52, 0.85, -0.85, 0.52, 1423.59, 238.01)">a</text><text class="cls-6" transform="translate(1425.71 241.47) rotate(58.51)">b</text><text class="cls-6" transform="translate(1428.13 245.42) rotate(58.51)">r</text><text class="cls-6" transform="translate(1429.52 247.7) rotate(58.51)">a</text><text class="cls-6" transform="translate(1431.64 251.15) rotate(58.51)">d</text><text class="cls-6" transform="matrix(0.52, 0.85, -0.85, 0.52, 1434.07, 255.12)">o</text><text class="cls-6" transform="translate(1436.43 258.98) rotate(58.51)">r</text><polygon class="cls-2" points="1413.08 326.09 1407.69 334.48 1417.65 334.95 1413.08 326.09"/><path class="cls-5" d="M1387.22,341.53l-14.36,4.13-19.57,10.07a22.94,22.94,0,0,0-9.23,8.7l-11.68,19.74c-.3.5-.62,1-1,1.49l-7.09,10.46a35,35,0,0,0-6,19.6v6.37a17.27,17.27,0,0,0,6.48,13.47l7.12,5.7"/><text class="cls-6" transform="translate(1332.98 402.67) rotate(-55.89)">G</text><text class="cls-6" transform="matrix(0.56, -0.83, 0.83, 0.56, 1336.05, 398.13)">u</text><text class="cls-6" transform="translate(1338.46 394.56) rotate(-55.89)">l</text><text class="cls-6" transform="matrix(0.55, -0.84, 0.84, 0.55, 1339.52, 393.04)">f</text><text class="cls-6" transform="translate(1340.97 390.81) rotate(-58.45)"> </text><text class="cls-6" transform="translate(1342.09 388.97) rotate(-59.38)">S</text><text class="cls-6" transform="translate(1344.35 385.14) rotate(-59.38)">t</text><text class="cls-6" transform="translate(1345.78 382.73) rotate(-59.38)">r</text><text class="cls-6" transform="translate(1347.15 380.41) rotate(-59.38)">e</text><text class="cls-6" transform="matrix(0.51, -0.86, 0.86, 0.51, 1349.26, 376.85)">a</text><text class="cls-6" transform="translate(1351.31 373.34) rotate(-58.92)">m</text><polygon class="cls-2" points="1384.44 337.14 1394.12 339.55 1387.19 346.73 1384.44 337.14"/><polygon class="cls-2" points="1364.72 451.11 1354.78 451.89 1360.43 460.11 1364.72 451.11"/><path class="cls-5" d="M1602.82,505.88c-23.81,1.53-180.44-20.2-180.44-20.2l-14.94-4s-20.27-5.72-30.37-14.31c-6.7-5.7-11.41-9.81-15.75-12.48"/><text class="cls-6" transform="translate(1509.16 488.03) rotate(6.99)">N</text><text class="cls-6" transform="translate(1514.63 488.7) rotate(6.92)">o</text><text class="cls-6" transform="matrix(0.99, 0.12, -0.12, 0.99, 1519.13, 489.25)">r</text><text class="cls-6" transform="translate(1521.95 489.59) rotate(6.82)">t</text><text class="cls-6" transform="translate(1524.75 489.92) rotate(6.76)">h</text><text class="cls-6" transform="matrix(0.99, 0.12, -0.12, 0.99, 1529.04, 490.43)"> </text><text class="cls-6" transform="translate(1531.12 490.68) rotate(6.64)">E</text><text class="cls-6" transform="translate(1535.79 491.22) rotate(6.55)">q</text><text class="cls-6" transform="translate(1540.41 491.75) rotate(6.45)">u</text><text class="cls-6" transform="translate(1544.69 492.24) rotate(6.35)">a</text><text class="cls-6" transform="translate(1548.67 492.68) rotate(6.27)">t</text><text class="cls-6" transform="matrix(0.99, 0.11, -0.11, 0.99, 1551.4, 492.98)">o</text><text class="cls-6" transform="matrix(0.99, 0.11, -0.11, 0.99, 1555.88, 493.46)">r</text><text class="cls-6" transform="translate(1558.72 493.76) rotate(5.96)">i</text><text class="cls-6" transform="matrix(0.99, 0.1, -0.1, 0.99, 1560.54, 493.95)">a</text><text class="cls-6" transform="translate(1564.56 494.36) rotate(5.73)">l</text><text class="cls-6" transform="matrix(1, 0.1, -0.1, 1, 1566.41, 494.55)"> </text><path class="cls-5" d="M1722.66,357s-10.14,85.18-52.27,124.07"/><text class="cls-6" transform="translate(1695.23 431.65) rotate(-67.51)">C</text><text class="cls-6" transform="translate(1697.18 426.91) rotate(-68.62)">a</text><text class="cls-6" transform="translate(1698.67 423.13) rotate(-69.58)">n</text><text class="cls-6" transform="translate(1700.16 419.12) rotate(-70.49)">a</text><text class="cls-6" transform="translate(1701.5 415.32) rotate(-71.21)">r</text><text class="cls-6" transform="translate(1702.42 412.62) rotate(-71.92)">y</text><text class="cls-6" transform="translate(1703.69 408.71) rotate(-72.53)"> </text><polygon class="cls-2" points="1668.16 476.26 1664.91 485.68 1674.7 483.79 1668.16 476.26"/><path class="cls-5" d="M1464.18,313s98.6-28,187.17-5.68"/><text class="cls-6" transform="translate(1524.71 314.76) rotate(-6.37)">N</text><text class="cls-6" transform="translate(1530.16 314.15) rotate(-5.76)">o</text><text class="cls-6" transform="matrix(1, -0.09, 0.09, 1, 1534.69, 313.7)">r</text><text class="cls-6" transform="translate(1537.48 313.44) rotate(-4.96)">t</text><text class="cls-6" transform="translate(1540.31 313.19) rotate(-4.51)">h</text><text class="cls-6" transform="translate(1544.59 312.85) rotate(-4.1)"> </text><text class="cls-6" transform="translate(1546.68 312.7) rotate(-3.61)">A</text><text class="cls-6" transform="translate(1551.97 312.37) rotate(-3.1)">t</text><text class="cls-6" transform="translate(1554.79 312.22) rotate(-2.79)">l</text><text class="cls-6" transform="translate(1556.62 312.13) rotate(-2.39)">a</text><text class="cls-6" transform="translate(1560.66 311.95) rotate(-1.83)">n</text><text class="cls-6" transform="translate(1564.94 311.82) rotate(-1.33)">t</text><text class="cls-6" transform="matrix(1, -0.02, 0.02, 1, 1567.77, 311.76)">i</text><text class="cls-6" transform="translate(1569.61 311.72) rotate(-0.59)">c</text><text class="cls-6" transform="translate(1573.61 311.68) rotate(-0.15)"> </text><text class="cls-6" transform="translate(1575.68 311.67) rotate(0.4)">D</text><text class="cls-6" transform="translate(1581.14 311.71) rotate(1.02)">r</text><text class="cls-6" transform="translate(1583.95 311.77) rotate(1.38)">i</text><text class="cls-6" transform="translate(1585.82 311.81) rotate(1.72)">f</text><text class="cls-6" transform="translate(1588.37 311.89) rotate(2.14)">t</text><polygon class="cls-2" points="1648.66 311.78 1658.29 309.17 1651.21 302.14 1648.66 311.78"/><path class="cls-5" d="M1587.35,62.38s-4.41,82.44-26.11,91.45-42.86,18-51.83,28.76c-7,8.44-16,11.6-20.18,18.48"/><text class="cls-6" transform="translate(1583.57 148.06) rotate(-68.84)">E</text><text class="cls-6" transform="translate(1585.31 143.52) rotate(-71.48)">a</text><text class="cls-6" transform="translate(1586.59 139.68) rotate(-73.25)">s</text><text class="cls-6" transform="translate(1587.57 136.44) rotate(-74.48)">t</text><text class="cls-6" transform="translate(1588.3 133.83) rotate(-75.66)">e</text><text class="cls-6" transform="translate(1589.31 129.83) rotate(-76.73)">r</text><text class="cls-6" transform="translate(1589.97 127.09) rotate(-77.71)">n</text><text class="cls-6" transform="translate(1590.87 122.9) rotate(-78.49)"> </text><text class="cls-6" transform="matrix(0.18, -0.98, 0.98, 0.18, 1591.3, 120.84)">G</text><text class="cls-6" transform="translate(1592.31 115.45) rotate(-80.17)">r</text><text class="cls-6" transform="matrix(0.16, -0.99, 0.99, 0.16, 1592.76, 112.84)">e</text><text class="cls-6" transform="translate(1593.43 108.75) rotate(-81.49)">e</text><text class="cls-6" transform="matrix(0.14, -0.99, 0.99, 0.14, 1594.04, 104.67)">n</text><text class="cls-6" transform="translate(1594.62 100.41) rotate(-82.61)">l</text><text class="cls-6" transform="translate(1594.86 98.58) rotate(-83.03)">a</text><text class="cls-6" transform="translate(1595.35 94.56) rotate(-83.6)">n</text><text class="cls-6" transform="translate(1595.83 90.29) rotate(-84.2)">d</text><polygon class="cls-2" points="1485.3 198.07 1487.01 207.9 1494.66 201.5 1485.3 198.07"/><path class="cls-5" d="M1587.35,298.86s27.87-13,42.12-31.23l13.88-21.73s30.61-43.67,79.82-82.63"/><text class="cls-6" transform="matrix(0.6, -0.8, 0.8, 0.6, 1640.17, 237.72)">N</text><text class="cls-6" transform="matrix(0.61, -0.79, 0.79, 0.61, 1643.47, 233.31)">o</text><text class="cls-6" transform="translate(1646.25 229.73) rotate(-51.69)">r</text><text class="cls-6" transform="translate(1647.99 227.51) rotate(-51.04)">w</text><text class="cls-6" transform="translate(1651.65 222.99) rotate(-50.37)">e</text><text class="cls-6" transform="matrix(0.65, -0.76, 0.76, 0.65, 1654.28, 219.82)">g</text><text class="cls-6" transform="translate(1657.29 216.26) rotate(-49.39)">i</text><text class="cls-6" transform="matrix(0.66, -0.75, 0.75, 0.66, 1658.48, 214.87)">a</text><text class="cls-6" transform="translate(1661.13 211.82) rotate(-48.51)">n</text><polygon class="cls-2" points="1725.14 168.13 1728.84 158.87 1718.97 160.29 1725.14 168.13"/><path class="cls-5" d="M1069.19,307.84l-38.47-60.52q-.13-.21-.3-.42a5,5,0,0,0-2.4-1.64,26.78,26.78,0,0,0-28.78,8.91,22.53,22.53,0,0,1-4.91,4.42"/><text class="cls-6" transform="matrix(0.54, 0.84, -0.84, 0.54, 1025.88, 261.15)">A</text><text class="cls-6" transform="translate(1028.85 265.82) rotate(57.56)">l</text><text class="cls-6" transform="translate(1029.84 267.37) rotate(57.56)">a</text><text class="cls-6" transform="translate(1032.02 270.8) rotate(57.56)">s</text><text class="cls-6" transform="matrix(0.54, 0.84, -0.84, 0.54, 1033.89, 273.74)">k</text><text class="cls-6" transform="matrix(0.54, 0.84, -0.84, 0.54, 1035.99, 277.05)">a</text><polygon class="cls-2" points="993.29 253.34 987.86 261.69 997.81 262.22 993.29 253.34"/><path class="cls-5" d="M710.62,527.6S652,510.12,647.4,486.11s-9.81-50.2,12.3-64.78,52.67-33.25,57.45-50.05c3-10.34,10.42-20,15.73-25.86a33.44,33.44,0,0,1,12.64-8.69c9.69-3.79,28-10.26,43.85-11.93"/><text class="cls-6" transform="translate(689.75 414.04) rotate(-35.09)">K</text><text class="cls-6" transform="matrix(0.81, -0.59, 0.59, 0.81, 693.74, 411.23)">u</text><text class="cls-6" transform="matrix(0.8, -0.6, 0.6, 0.8, 697.21, 408.71)">r</text><text class="cls-6" transform="translate(699.36 407.12) rotate(-37.69)">o</text><text class="cls-6" transform="matrix(0.78, -0.63, 0.63, 0.78, 702.92, 404.36)">s</text><text class="cls-6" transform="matrix(0.76, -0.65, 0.65, 0.76, 705.6, 402.21)">h</text><text class="cls-6" transform="matrix(0.74, -0.67, 0.67, 0.74, 708.88, 399.39)">i</text><text class="cls-6" transform="translate(710.35 398.1) rotate(-43.69)">o</text><polygon class="cls-2" points="788.26 329.96 796.53 324.39 787.58 320.01 788.26 329.96"/><path class="cls-5" d="M862.35,220.82s-42,15.42-48.44,23.22c-4.5,5.43-13.42,20.12-18.44,28.55"/><text class="cls-7" transform="matrix(0.87, -0.5, 0.5, 0.87, 824.15, 247.52)">O</text><text class="cls-7" transform="translate(829.25 244.61) rotate(-27.25)">y</text><text class="cls-7" transform="translate(832.74 242.81) rotate(-25.86)">a</text><text class="cls-7" transform="matrix(0.91, -0.42, 0.42, 0.91, 836.37, 241.06)"> </text><text class="cls-7" transform="matrix(0.91, -0.41, 0.41, 0.91, 838.29, 240.16)">s</text><text class="cls-7" transform="translate(841.45 238.73) rotate(-23.67)">h</text><text class="cls-7" transform="translate(845.37 237.01) rotate(-23.19)">i</text><text class="cls-7" transform="translate(847.06 236.28) rotate(-22.74)">o</text><polygon class="cls-2" points="791.98 268.8 791.84 278.77 800.54 273.91 791.98 268.8"/><path class="cls-5" d="M1074.56,356.49l16.19,27.23a36.45,36.45,0,0,0,10,10.36c6.13,4.26,15.75,11.94,21.61,21.53,6.58,10.77,17.15,30.52,22.5,40.64"/><text class="cls-6" transform="matrix(0.68, 0.74, -0.74, 0.68, 1105.08, 412.18)">C</text><text class="cls-6" transform="matrix(0.62, 0.78, -0.78, 0.62, 1108.49, 415.92)">a</text><text class="cls-6" transform="translate(1110.96 419.08) rotate(54.62)">l</text><text class="cls-6" transform="matrix(0.55, 0.84, -0.84, 0.55, 1111.99, 420.53)">i</text><text class="cls-6" transform="matrix(0.52, 0.85, -0.85, 0.52, 1112.97, 422.02)">f</text><text class="cls-6" transform="matrix(0.51, 0.86, -0.86, 0.51, 1114.28, 424.16)">o</text><text class="cls-6" transform="translate(1116.56 428.05) rotate(60.08)">r</text><text class="cls-6" transform="translate(1117.97 430.49) rotate(60.46)">n</text><text class="cls-6" transform="translate(1120.09 434.24) rotate(60.73)">i</text><text class="cls-6" transform="matrix(0.49, 0.87, -0.87, 0.49, 1120.99, 435.85)">a</text><polygon class="cls-2" points="1139.71 457.31 1148.17 462.6 1148.52 452.64 1139.71 457.31"/><path class="cls-5" d="M824.15,317.16s84.68-35.34,186.71,4.54"/><text class="cls-7" transform="matrix(1, -0.06, 0.06, 1, 890.11, 296.45)">N</text><text class="cls-7" transform="translate(895.59 296.1) rotate(-2.59)">o</text><text class="cls-7" transform="translate(900.09 295.9) rotate(-1.84)">r</text><text class="cls-7" transform="translate(902.92 295.81) rotate(-1.25)">t</text><text class="cls-7" transform="translate(905.72 295.75) rotate(-0.52)">h</text><text class="cls-7" transform="translate(910.01 295.72) rotate(0.14)"> </text><text class="cls-7" transform="translate(912.13 295.71) rotate(0.85)">P</text><text class="cls-7" transform="translate(916.69 295.78) rotate(1.72)">a</text><text class="cls-7" transform="translate(920.72 295.9) rotate(2.56)">c</text><text class="cls-7" transform="translate(924.73 296.09) rotate(3.17)">i</text><text class="cls-7" transform="matrix(1, 0.06, -0.06, 1, 926.54, 296.19)">f</text><text class="cls-7" transform="matrix(1, 0.07, -0.07, 1, 929.09, 296.35)">i</text><text class="cls-7" transform="translate(930.92 296.47) rotate(4.68)">c</text><polygon class="cls-2" points="1007.64 325.83 1017.51 324.39 1011.34 316.56 1007.64 325.83"/><path class="cls-5" d="M1112.37,519.42s-148.17,79.2-328.75,31.33"/><text class="cls-6" transform="translate(940.45 554.66) rotate(-4.76)">N</text><text class="cls-6" transform="translate(945.97 554.19) rotate(-5.34)">o</text><text class="cls-6" transform="translate(950.44 553.77) rotate(-5.76)">r</text><text class="cls-6" transform="translate(953.25 553.49) rotate(-6.08)">t</text><text class="cls-6" transform="translate(956.07 553.19) rotate(-6.49)">h</text><text class="cls-6" transform="matrix(0.99, -0.12, 0.12, 0.99, 960.35, 552.7)"> </text><text class="cls-6" transform="translate(962.43 552.46) rotate(-7.24)">E</text><text class="cls-6" transform="matrix(0.99, -0.14, 0.14, 0.99, 967.07, 551.87)">q</text><text class="cls-6" transform="translate(971.67 551.24) rotate(-8.27)">u</text><text class="cls-6" transform="matrix(0.99, -0.15, 0.15, 0.99, 975.93, 550.62)">a</text><text class="cls-6" transform="translate(979.91 550.01) rotate(-9.13)">t</text><text class="cls-6" transform="translate(982.58 549.58) rotate(-9.53)">o</text><text class="cls-6" transform="matrix(0.98, -0.17, 0.17, 0.98, 987.05, 548.83)">r</text><text class="cls-6" transform="matrix(0.98, -0.18, 0.18, 0.98, 989.83, 548.34)">i</text><text class="cls-6" transform="translate(991.62 548.02) rotate(-10.53)">a</text><text class="cls-6" transform="translate(995.61 547.27) rotate(-10.86)">l</text><polygon class="cls-2" points="786.31 546.21 776.7 548.85 783.79 555.86 786.31 546.21"/><path class="cls-5" d="M923.94,608.44s128.51,5.17,259.17-46.49"/><text class="cls-6" transform="matrix(0.98, -0.22, 0.22, 0.98, 1086.76, 601.18)">C</text><text class="cls-6" transform="matrix(0.97, -0.23, 0.23, 0.97, 1091.74, 600.05)">o</text><text class="cls-6" transform="translate(1096.13 599.03) rotate(-13.47)">u</text><text class="cls-6" transform="matrix(0.97, -0.24, 0.24, 0.97, 1100.31, 598.03)">n</text><text class="cls-6" transform="matrix(0.97, -0.24, 0.24, 0.97, 1104.5, 597)">t</text><text class="cls-6" transform="translate(1107.16 596.33) rotate(-14.41)">e</text><text class="cls-6" transform="matrix(0.97, -0.25, 0.25, 0.97, 1111.15, 595.3)">r</text><text class="cls-6" transform="matrix(0.97, -0.26, 0.26, 0.97, 1113.9, 594.58)"> </text><text class="cls-6" transform="translate(1115.93 594.04) rotate(-15.2)">E</text><text class="cls-6" transform="translate(1120.45 592.81) rotate(-15.61)">q</text><text class="cls-6" transform="translate(1124.93 591.56) rotate(-16)">u</text><text class="cls-6" transform="translate(1129.05 590.38) rotate(-16.37)">a</text><text class="cls-6" transform="translate(1132.92 589.24) rotate(-16.67)">t</text><text class="cls-6" transform="translate(1135.52 588.47) rotate(-16.99)">o</text><text class="cls-6" transform="matrix(0.95, -0.3, 0.3, 0.95, 1139.84, 587.15)">r</text><text class="cls-6" transform="translate(1142.53 586.31) rotate(-17.53)">i</text><text class="cls-6" transform="matrix(0.95, -0.31, 0.31, 0.95, 1144.31, 585.74)">a</text><text class="cls-6" transform="translate(1148.16 584.51) rotate(-18.08)">l</text><polygon class="cls-2" points="1183.49 567.02 1189.77 559.27 1179.92 557.71 1183.49 567.02"/><path class="cls-5" d="M1210.86,549.38s15-8.5,26.4-20.3"/><polygon class="cls-2" points="1239.94 533.43 1241.97 523.67 1232.5 526.79 1239.94 533.43"/><path class="cls-5" d="M1216.53,556.57s23.25-3.41,45.57,8.57"/><polygon class="cls-2" points="1258.27 568.78 1268.24 568.87 1263.33 560.19 1258.27 568.78"/><path class="cls-5" d="M1216.53,639.15s-211-21.73-328.15,13.23"/><text class="cls-6" transform="translate(1040.16 642.92) rotate(-1.44)">S</text><text class="cls-6" transform="matrix(1, -0.02, 0.02, 1, 1044.64, 642.81)">o</text><text class="cls-6" transform="translate(1049.15 642.71) rotate(-1.01)">u</text><text class="cls-6" transform="translate(1053.45 642.64) rotate(-0.84)">t</text><text class="cls-6" transform="translate(1056.27 642.59) rotate(-0.68)">h</text><text class="cls-6" transform="translate(1060.59 642.54) rotate(-0.54)"> </text><text class="cls-6" transform="translate(1062.7 642.52) rotate(-0.38)">E</text><text class="cls-6" transform="matrix(1, 0, 0, 1, 1067.39, 642.49)">q</text><text class="cls-6" transform="translate(1072.04 642.48) rotate(0.01)">u</text><text class="cls-6" transform="translate(1076.34 642.48) rotate(0.18)">a</text><text class="cls-6" transform="translate(1080.36 642.49) rotate(0.32)">t</text><text class="cls-6" transform="translate(1083.08 642.5) rotate(0.47)">o</text><text class="cls-6" transform="matrix(1, 0.01, -0.01, 1, 1087.59, 642.54)">r</text><text class="cls-6" transform="translate(1090.44 642.57) rotate(0.71)">i</text><text class="cls-6" transform="translate(1092.27 642.59) rotate(0.82)">a</text><text class="cls-6" transform="matrix(1, 0.02, -0.02, 1, 1096.34, 642.65)">l</text><polygon class="cls-2" points="888.34 647.24 881.53 654.52 891.24 656.78 888.34 647.24"/><path class="cls-5" d="M849.85,668.6s-85.66,48.39-94,138.33"/><text class="cls-6" transform="translate(784.2 758.9) rotate(-63.11)">E</text><text class="cls-6" transform="translate(786.3 754.75) rotate(-61.67)">a</text><text class="cls-6" transform="translate(788.22 751.2) rotate(-60.44)">s</text><text class="cls-6" transform="translate(789.9 748.25) rotate(-59.45)">t</text><text class="cls-6" transform="matrix(0.52, -0.85, 0.85, 0.52, 791.34, 745.81)"> </text><text class="cls-6" transform="translate(792.4 744.04) rotate(-57.49)">A</text><text class="cls-6" transform="matrix(0.56, -0.83, 0.83, 0.56, 795.33, 739.46)">u</text><text class="cls-6" transform="translate(797.73 735.9) rotate(-54.85)">s</text><text class="cls-6" transform="matrix(0.59, -0.81, 0.81, 0.59, 799.68, 733.13)">t</text><text class="cls-6" transform="translate(801.34 730.85) rotate(-53.13)">r</text><text class="cls-6" transform="translate(802.92 728.74) rotate(-52.2)">a</text><text class="cls-6" transform="translate(805.4 725.55) rotate(-51.37)">l</text><text class="cls-6" transform="translate(806.53 724.14) rotate(-50.87)">i</text><text class="cls-6" transform="matrix(0.64, -0.77, 0.77, 0.64, 807.67, 722.72)">a</text><text class="cls-6" transform="translate(810.28 719.61) rotate(-48.93)">n</text><text class="cls-6" transform="matrix(0.67, -0.74, 0.74, 0.67, 813.1, 716.38)"> </text><text class="cls-6" transform="matrix(0.68, -0.73, 0.73, 0.68, 814.49, 714.82)">C</text><text class="cls-6" transform="matrix(0.7, -0.72, 0.72, 0.7, 817.97, 711.07)">u</text><text class="cls-6" transform="translate(820.96 708) rotate(-45.02)">r</text><text class="cls-6" transform="translate(822.97 705.98) rotate(-44.3)">r</text><text class="cls-6" transform="translate(824.88 704.12) rotate(-43.47)">e</text><text class="cls-6" transform="translate(827.85 701.29) rotate(-42.44)">n</text><text class="cls-6" transform="matrix(0.75, -0.66, 0.66, 0.75, 831.03, 698.4)">t</text><polygon class="cls-2" points="751.01 805.11 755.34 814.09 760.95 805.85 751.01 805.11"/><path class="cls-5" d="M1268.24,836.93l19.44-86a119.47,119.47,0,0,0-1.17-58.42c-4.13-14.75-11.56-30.27-24.91-40.73"/><text class="cls-6" transform="matrix(-0.02, 1, -1, -0.02, 1277.76, 723.55)">P</text><text class="cls-6" transform="matrix(-0.05, 1, -1, -0.05, 1277.68, 728.14)">e</text><text class="cls-6" transform="matrix(-0.08, 1, -1, -0.08, 1277.45, 732.24)">r</text><text class="cls-6" transform="translate(1277.23 735.04) rotate(96.34)">u</text><polygon class="cls-2" points="1265.62 648.63 1255.68 647.74 1259.88 656.78 1265.62 648.63"/><path class="cls-5" d="M784.61,860.12S943.13,934,1225,861.92"/><text class="cls-6" transform="translate(979.08 888.43) rotate(0.54)">S</text><text class="cls-6" transform="translate(983.56 888.47) rotate(0.21)">o</text><text class="cls-6" transform="translate(988.06 888.49) rotate(-0.1)">u</text><text class="cls-6" transform="translate(992.37 888.48) rotate(-0.36)">t</text><text class="cls-6" transform="translate(995.18 888.46) rotate(-0.62)">h</text><text class="cls-6" transform="matrix(1, -0.01, 0.01, 1, 999.5, 888.41)"> </text><text class="cls-6" transform="translate(1001.6 888.39) rotate(-1.08)">P</text><text class="cls-6" transform="matrix(1, -0.02, 0.02, 1, 1006.23, 888.3)">a</text><text class="cls-6" transform="translate(1010.27 888.2) rotate(-1.67)">c</text><text class="cls-6" transform="translate(1014.24 888.08) rotate(-1.87)">i</text><text class="cls-6" transform="matrix(1, -0.04, 0.04, 1, 1016.1, 888.02)">f</text><text class="cls-6" transform="translate(1018.66 887.93) rotate(-2.17)">i</text><text class="cls-6" transform="translate(1020.49 887.86) rotate(-2.37)">c</text><polygon class="cls-2" points="1224.8 867.04 1231.97 860.12 1222.38 857.37 1224.8 867.04"/><path class="cls-5" d="M334.73,512.38s-48.44,40.7-58.78,62.7A130.78,130.78,0,0,0,268.32,596"/><text class="cls-6" transform="matrix(0.65, -0.76, 0.76, 0.65, 296.95, 561.97)">A</text><text class="cls-6" transform="translate(300.42 557.93) rotate(-48.08)">g</text><text class="cls-6" transform="matrix(0.68, -0.73, 0.73, 0.68, 303.51, 554.49)">u</text><text class="cls-6" transform="translate(306.43 551.36) rotate(-46.49)">l</text><text class="cls-6" transform="matrix(0.7, -0.72, 0.72, 0.7, 307.71, 550)">h</text><text class="cls-6" transform="translate(310.68 546.93) rotate(-45.29)">a</text><text class="cls-6" transform="translate(313.53 544.06) rotate(-44.76)">s</text><polygon class="cls-2" points="263.84 593.48 266.88 602.97 273.58 595.59 263.84 593.48"/><path class="cls-5" d="M253.15,807.06s166.07,29.49,245.59-20.71"/><text class="cls-6" transform="matrix(1, 0.02, -0.02, 1, 342.08, 809.43)">S</text><text class="cls-6" transform="matrix(1, 0.02, -0.02, 1, 346.59, 809.54)">o</text><text class="cls-6" transform="translate(351.08 809.62) rotate(0.54)">u</text><text class="cls-6" transform="translate(355.39 809.66) rotate(0.19)">t</text><text class="cls-6" transform="matrix(1, 0, 0, 1, 358.21, 809.67)">h</text><text class="cls-6" transform="translate(362.55 809.65) rotate(-0.5)"> </text><text class="cls-6" transform="matrix(1, -0.01, 0.01, 1, 364.61, 809.63)">I</text><text class="cls-6" transform="translate(366.65 809.61) rotate(-1.05)">n</text><text class="cls-6" transform="matrix(1, -0.03, 0.03, 1, 370.98, 809.53)">d</text><text class="cls-6" transform="translate(375.62 809.4) rotate(-1.91)">i</text><text class="cls-6" transform="translate(377.46 809.35) rotate(-2.25)">a</text><text class="cls-6" transform="matrix(1, -0.05, 0.05, 1, 381.46, 809.19)">n</text><text class="cls-6" transform="translate(385.8 808.98) rotate(-3.13)"> </text><text class="cls-6" transform="matrix(1, -0.06, 0.06, 1, 387.87, 808.87)">O</text><text class="cls-6" transform="translate(393.8 808.49) rotate(-4.28)">c</text><text class="cls-6" transform="matrix(1, -0.08, 0.08, 1, 397.67, 808.2)">e</text><text class="cls-6" transform="translate(401.81 807.85) rotate(-5.4)">a</text><text class="cls-6" transform="translate(405.84 807.47) rotate(-6.01)">n</text><text class="cls-6" transform="translate(410.12 807.02) rotate(-6.49)"> </text><polygon class="cls-2" points="500.26 791.26 504.69 782.33 494.73 782.96 500.26 791.26"/><path class="cls-5" d="M535.36,715.61s7.12-16.89,8-47c.47-16.11-2.13-25.32-4.65-30.4"/><text class="cls-6" transform="translate(528.09 646.06) rotate(78.23)">W</text><text class="cls-6" transform="translate(529.5 653.12) rotate(82.95)">e</text><text class="cls-6" transform="translate(529.99 657.17) rotate(85.58)">s</text><text class="cls-6" transform="translate(530.25 660.56) rotate(87.44)">t</text><text class="cls-6" transform="translate(530.38 663.23) rotate(89.23)">e</text><text class="cls-6" transform="translate(530.42 667.33) rotate(90.87)">r</text><text class="cls-6" transform="translate(530.38 670.15) rotate(92.15)">n</text><text class="cls-6" transform="translate(530.22 674.42) rotate(93.06)"> </text><text class="cls-6" transform="matrix(-0.07, 1, -1, -0.07, 530.12, 676.49)">A</text><text class="cls-6" transform="matrix(-0.1, 1, -1, -0.1, 529.72, 681.93)">u</text><text class="cls-6" transform="matrix(-0.12, 0.99, -0.99, -0.12, 529.3, 686.17)">s</text><text class="cls-6" transform="translate(528.89 689.56) rotate(97.85)">t</text><text class="cls-6" transform="translate(528.51 692.34) rotate(98.79)">r</text><text class="cls-6" transform="translate(528.11 694.95) rotate(99.94)">a</text><text class="cls-6" transform="matrix(-0.19, 0.98, -0.98, -0.19, 527.41, 698.92)">l</text><text class="cls-6" transform="translate(527.06 700.69) rotate(101.71)">i</text><text class="cls-6" transform="translate(526.7 702.47) rotate(102.9)">a</text><text class="cls-6" transform="translate(525.81 706.38) rotate(104.74)">n</text><text class="cls-6" transform="translate(524.71 710.53) rotate(106.39)"> </text><polygon class="cls-2" points="543.45 636.6 534.37 632.48 535.34 642.4 543.45 636.6"/><path class="cls-5" d="M466,542.77s-37.46-12.48-87-8.13"/><text class="cls-6" transform="translate(393.27 543.8) rotate(-0.95)">N</text><text class="cls-6" transform="translate(398.77 543.71) rotate(0.21)">o</text><text class="cls-6" transform="matrix(1, 0.02, -0.02, 1, 403.25, 543.73)">r</text><text class="cls-6" transform="translate(406.08 543.78) rotate(1.7)">t</text><text class="cls-6" transform="translate(408.88 543.86) rotate(2.5)">h</text><text class="cls-6" transform="translate(413.2 544.06) rotate(3.23)"> </text><text class="cls-6" transform="matrix(1, 0.07, -0.07, 1, 415.28, 544.17)">E</text><text class="cls-6" transform="translate(419.92 544.49) rotate(5.05)">q</text><text class="cls-6" transform="translate(424.53 544.9) rotate(6.06)">u</text><text class="cls-6" transform="translate(428.8 545.35) rotate(7.01)">a</text><text class="cls-6" transform="translate(432.76 545.84) rotate(7.78)">t</text><text class="cls-6" transform="translate(435.45 546.21) rotate(8.61)">o</text><text class="cls-6" transform="translate(439.91 546.89) rotate(9.47)">r</text><text class="cls-6" transform="translate(442.69 547.35) rotate(10.03)">i</text><text class="cls-6" transform="translate(444.5 547.67) rotate(10.75)">a</text><text class="cls-6" transform="translate(448.44 548.42) rotate(11.48)">l</text><text class="cls-6" transform="translate(450.25 548.79) rotate(12)"> </text><polygon class="cls-2" points="379.92 529.57 371.81 535.37 380.89 539.5 379.92 529.57"/><path class="cls-5" d="M334.73,549.38s-10.65,8.72-14.63,25.7,13.26,27.52,51.71,25.57c35.61-1.81,68.95-16.39,99-14.48"/><text class="cls-6" transform="translate(349.27 595.19) rotate(5.03)">C</text><text class="cls-6" transform="translate(354.45 595.64) rotate(2.6)">o</text><text class="cls-6" transform="matrix(1, 0.01, -0.01, 1, 358.95, 595.84)">u</text><text class="cls-6" transform="matrix(1, -0.01, 0.01, 1, 363.22, 595.9)">n</text><text class="cls-6" transform="translate(367.51 595.82) rotate(-2.03)">t</text><text class="cls-6" transform="translate(370.27 595.74) rotate(-3.32)">e</text><text class="cls-6" transform="translate(374.41 595.5) rotate(-4.4)">r</text><text class="cls-6" transform="matrix(1, -0.09, 0.09, 1, 377.21, 595.28)"> </text><text class="cls-6" transform="matrix(0.99, -0.11, 0.11, 0.99, 379.28, 595.1)">E</text><text class="cls-6" transform="matrix(0.99, -0.13, 0.13, 0.99, 383.91, 594.59)">q</text><text class="cls-6" transform="translate(388.5 593.96) rotate(-8.88)">u</text><text class="cls-6" transform="translate(392.75 593.3) rotate(-9.82)">a</text><text class="cls-6" transform="matrix(0.98, -0.18, 0.18, 0.98, 396.69, 592.61)">t</text><text class="cls-6" transform="matrix(0.98, -0.19, 0.19, 0.98, 399.35, 592.12)">o</text><text class="cls-6" transform="translate(403.78 591.25) rotate(-11.58)">r</text><text class="cls-6" transform="matrix(0.98, -0.21, 0.21, 0.98, 406.54, 590.69)">i</text><text class="cls-6" transform="translate(408.36 590.31) rotate(-12.11)">a</text><text class="cls-6" transform="translate(412.33 589.45) rotate(-12.31)">l</text><polygon class="cls-2" points="468.82 591.09 477.9 586.96 469.79 581.16 468.82 591.09"/><path class="cls-5" d="M585.78,613.78s-162.25-4.8-194.08,0c-21.63,3.27-40.18,5.54-49.84,6.66"/><text class="cls-6" transform="translate(462.72 621.66) rotate(0.2)">S</text><text class="cls-6" transform="translate(467.21 621.67) rotate(0.29)">o</text><text class="cls-6" transform="translate(471.71 621.7) rotate(0.37)">u</text><text class="cls-6" transform="matrix(1, 0.01, -0.01, 1, 476.03, 621.73)">t</text><text class="cls-6" transform="translate(478.87 621.75) rotate(0.49)">h</text><text class="cls-6" transform="translate(483.17 621.78) rotate(0.54)"> </text><text class="cls-6" transform="translate(485.27 621.8) rotate(0.59)">E</text><text class="cls-6" transform="translate(489.96 621.85) rotate(0.66)">q</text><text class="cls-6" transform="translate(494.63 621.91) rotate(0.72)">u</text><text class="cls-6" transform="translate(498.94 621.96) rotate(0.78)">a</text><text class="cls-6" transform="translate(502.94 622.01) rotate(0.82)">t</text><text class="cls-6" transform="matrix(1, 0.02, -0.02, 1, 505.68, 622.05)">o</text><text class="cls-6" transform="matrix(1, 0.02, -0.02, 1, 510.18, 622.12)">r</text><text class="cls-6" transform="translate(513.04 622.17) rotate(0.93)">i</text><text class="cls-6" transform="translate(514.87 622.19) rotate(0.96)">a</text><text class="cls-6" transform="translate(518.93 622.26) rotate(0.99)">l</text><text class="cls-6" transform="translate(520.76 622.3) rotate(1.01)"> </text><polygon class="cls-2" points="342.73 615.29 334.73 621.24 343.88 625.19 342.73 615.29"/><path class="cls-5" d="M309.09,632.48s-13.66,64.71-30.55,74.5-35.85,15.87-45.39,34.36a45.85,45.85,0,0,0-1.93,25.41"/><text class="cls-6" transform="matrix(0.45, -0.89, 0.89, 0.45, 296.5, 700.04)">M</text><text class="cls-6" transform="translate(299.28 694.49) rotate(-65.93)">o</text><text class="cls-6" transform="matrix(0.38, -0.92, 0.92, 0.38, 301.05, 690.53)">z</text><text class="cls-6" transform="translate(302.53 686.94) rotate(-68.86)">a</text><text class="cls-6" transform="translate(304 683.2) rotate(-70.33)">m</text><text class="cls-6" transform="translate(306.22 676.94) rotate(-71.61)">b</text><text class="cls-6" transform="translate(307.67 672.55) rotate(-72.26)">i</text><text class="cls-6" transform="translate(308.23 670.81) rotate(-72.85)">q</text><text class="cls-6" transform="matrix(0.28, -0.96, 0.96, 0.28, 309.6, 666.39)">u</text><text class="cls-6" transform="translate(310.81 662.25) rotate(-74.25)">e</text><polygon class="cls-5" points="226.12 766.59 233.15 773.66 235.76 764.04 226.12 766.59"/><path class="cls-5" d="M1533.92,621.11c14.62-25.79,49.92-29.49,49.92-29.49s87-13.13,129.52,6.18"/><polygon class="cls-2" points="1530.16 616.66 1530.88 626.61 1539.13 621.02 1530.16 616.66"/><text class="cls-6" transform="translate(1592.61 601.47) rotate(-6.41)">S</text><text class="cls-6" transform="translate(1597.06 600.98) rotate(-5.87)">o</text><text class="cls-6" transform="translate(1601.55 600.51) rotate(-5.35)">u</text><text class="cls-6" transform="translate(1605.82 600.12) rotate(-4.94)">t</text><text class="cls-6" transform="translate(1608.63 599.87) rotate(-4.53)">h</text><text class="cls-6" transform="translate(1612.94 599.53) rotate(-4.16)"> </text><text class="cls-6" transform="translate(1615 599.38) rotate(-3.76)">E</text><text class="cls-6" transform="translate(1619.68 599.07) rotate(-3.2)">q</text><text class="cls-6" transform="translate(1624.3 598.81) rotate(-2.65)">u</text><text class="cls-6" transform="matrix(1, -0.04, 0.04, 1, 1628.61, 598.61)">a</text><text class="cls-6" transform="matrix(1, -0.03, 0.03, 1, 1632.59, 598.47)">t</text><text class="cls-6" transform="translate(1635.32 598.39) rotate(-1.16)">o</text><text class="cls-6" transform="matrix(1, -0.01, 0.01, 1, 1639.83, 598.3)">r</text><text class="cls-6" transform="translate(1642.67 598.27) rotate(-0.27)">i</text><text class="cls-6" transform="translate(1644.46 598.26) rotate(0.18)">a</text><text class="cls-6" transform="matrix(1, 0.01, -0.01, 1, 1648.53, 598.27)">l</text><text class="cls-6" transform="translate(1650.37 598.29) rotate(1.2)">T</text><path class="cls-5" d="M1509.41,654.53s-125.21,147.92-111.83,182.4c8.43,21.68,24.16,27.52,33.34,29"/><text class="cls-6" transform="translate(1465.51 731.97) rotate(-54)">B</text><text class="cls-6" transform="matrix(0.59, -0.81, 0.81, 0.59, 1468.47, 727.9)">r</text><text class="cls-6" transform="matrix(0.59, -0.81, 0.81, 0.59, 1470.04, 725.75)">a</text><text class="cls-6" transform="matrix(0.6, -0.8, 0.8, 0.6, 1472.45, 722.49)">z</text><text class="cls-6" transform="translate(1474.77 719.36) rotate(-53.3)">i</text><text class="cls-6" transform="translate(1475.87 717.89) rotate(-53.21)">l</text><text class="cls-6" transform="translate(1476.96 716.42) rotate(-53.13)">i</text><text class="cls-6" transform="translate(1478.07 714.94) rotate(-53)">a</text><text class="cls-6" transform="translate(1480.5 711.71) rotate(-52.81)">n</text><text class="cls-6" transform="matrix(0.61, -0.8, 0.8, 0.61, 1483.11, 708.28)"> </text><text class="cls-6" transform="translate(1484.38 706.6) rotate(-52.52)">C</text><polygon class="cls-2" points="1429.06 870.68 1438.08 866.43 1429.89 860.75 1429.06 870.68"/><path class="cls-5" d="M1464.18,876.8s82,13.2,172.06,1"/><polygon class="cls-2" points="1635.44 882.88 1643.35 876.8 1634.13 872.99 1635.44 882.88"/><path class="cls-5" d="M1722.66,876.8s77.19.32,77.19-61.14c0-57.92-15.32-148.5-43.89-178.42"/><text class="cls-6" transform="translate(1776.33 714.6) rotate(77.7)">S</text><text class="cls-6" transform="matrix(0.2, 0.98, -0.98, 0.2, 1777.28, 718.98)">o</text><text class="cls-6" transform="matrix(0.19, 0.98, -0.98, 0.19, 1778.2, 723.4)">u</text><text class="cls-6" transform="matrix(0.19, 0.98, -0.98, 0.19, 1779.02, 727.61)">t</text><text class="cls-6" transform="translate(1779.55 730.38) rotate(79.74)">h</text><text class="cls-6" transform="translate(1780.31 734.63) rotate(80.12)"> </text><text class="cls-6" transform="matrix(0.16, 0.99, -0.99, 0.16, 1780.68, 736.69)">E</text><text class="cls-6" transform="translate(1781.45 741.3) rotate(81.05)">q</text><text class="cls-6" transform="matrix(0.15, 0.99, -0.99, 0.15, 1782.17, 745.88)">u</text><text class="cls-6" transform="translate(1782.8 750.15) rotate(82.01)">a</text><text class="cls-6" transform="matrix(0.13, 0.99, -0.99, 0.13, 1783.35, 754.1)">t</text><text class="cls-6" transform="translate(1783.72 756.8) rotate(82.78)">o</text><text class="cls-6" transform="translate(1784.28 761.27) rotate(83.18)">r</text><text class="cls-6" transform="matrix(0.11, 0.99, -0.99, 0.11, 1784.62, 764.08)">i</text><text class="cls-6" transform="translate(1784.83 765.89) rotate(83.76)">a</text><text class="cls-6" transform="translate(1785.27 769.94) rotate(84.09)">l</text><text class="cls-6" transform="translate(1785.46 771.76) rotate(84.44)">T</text><polygon class="cls-2" points="1760.34 634.62 1750.6 632.48 1753.61 641.98 1760.34 634.62"/><text/><text class="cls-6" transform="translate(1559.34 878.1)">South <tspan class="cls-8" x="22.55" y="0">A</tspan><tspan x="27.87" y="0">tlantic </tspan></text><path class="cls-5" d="M1465.18,533.67s165.24,4.3,225.38,17.77"/><polygon class="cls-2" points="1687.96 555.99 1697.52 553.18 1690.31 546.3 1687.96 555.99"/><text class="cls-6" transform="translate(1570.05 530.37) rotate(3.61)">C</text><text class="cls-6" transform="translate(1575.12 530.69) rotate(3.72)">o</text><text class="cls-6" transform="translate(1579.65 530.99) rotate(3.83)">u</text><text class="cls-6" transform="translate(1583.94 531.28) rotate(3.94)">n</text><text class="cls-6" transform="matrix(1, 0.07, -0.07, 1, 1588.27, 531.57)">t</text><text class="cls-6" transform="translate(1590.98 531.76) rotate(4.13)">e</text><text class="cls-6" transform="translate(1595.1 532.06) rotate(4.23)">r</text><text class="cls-6" transform="translate(1597.94 532.27) rotate(4.3)"> </text><text class="cls-6" transform="translate(1600.04 532.43) rotate(4.41)">E</text><text class="cls-6" transform="translate(1604.69 532.79) rotate(4.56)">q</text><text class="cls-6" transform="translate(1609.35 533.16) rotate(4.72)">u</text><text class="cls-6" transform="translate(1613.65 533.52) rotate(4.87)">a</text><text class="cls-6" transform="translate(1617.65 533.86) rotate(5)">t</text><text class="cls-6" transform="translate(1620.36 534.09) rotate(5.15)">o</text><text class="cls-6" transform="matrix(1, 0.09, -0.09, 1, 1624.86, 534.5)">r</text><text class="cls-6" transform="translate(1627.69 534.76) rotate(5.42)">i</text><text class="cls-6" transform="translate(1629.5 534.93) rotate(5.55)">a</text><text class="cls-6" transform="translate(1633.52 535.33) rotate(5.7)">l</text><text class="cls-6" transform="matrix(0.99, 0.1, -0.1, 0.99, 1635.36, 535.51)"> </text></g><g id="Layer_7" data-name="Layer 7"><text class="cls-4"/><text class="cls-4"/><text/></g></g></svg>