<svg xmlns="http://www.w3.org/2000/svg" viewBox="0 0 1920 1080"><defs><style>.cls-1{fill:#18293f;opacity:0;}.cls-2,.cls-8{fill:#f0f0f0;}.cls-10,.cls-2,.cls-5{opacity:0.3;}.cls-3{fill:#0c3f5b;}.cls-4{fill:#0d405b;}.cls-10,.cls-6{fill:none;stroke-miterlimit:10;stroke-width:2px;}.cls-6{stroke:#f2ebde;}.cls-7{fill:#f2ebde;}.cls-9{fill:#eb621d;}.cls-10{stroke:#f0f0f0;}</style></defs><title>Asset 1</title><g id="Layer_2" data-name="Layer 2"><g id="Layer_2-2" data-name="Layer 2"><rect class="cls-1" width="1920" height="1080"/></g><g id="Layer_1-2" data-name="Layer 1"><path class="cls-2" d="M1292.1,519.12s-2.57-9.45-10.13-15.23a42.32,42.32,0,0,0-15.11-7.4,96.87,96.87,0,0,0,15.22-10.19,27.63,27.63,0,0,0,9.6-15.94,47,47,0,0,0-21.24,6.39c-6.22,3.72-10.15,6.5-14.48,8.06a26.08,26.08,0,0,1-10.38,1.39,32.32,32.32,0,0,1-12.11-3.27,43.07,43.07,0,0,0,20.1-14.43s-7.44-6-29.12-6.15a113.13,113.13,0,0,0-24.53,2.53,75.42,75.42,0,0,0-29.16-5.64,83.28,83.28,0,0,0-9.11.55,100.45,100.45,0,0,0-27.09,7.15c-16.8,7-29.72,17.35-34.28,24.92-1.14,1.89.92,3.35.9,4.79s-2.22,3.08-1.25,4.52c3.49,5.21,13.22,10.61,27.22,14.86,3.74,1.14,7.8,2.19,12.12,3.13,3.58,3.91,9.94,10.33,16.84,14.8,10.53,6.81,26,7.14,26,7.14a104.91,104.91,0,0,0-12.53-17.66c1.91.13,3.82.25,5.77.34a104.75,104.75,0,0,0,28-2.07,51.12,51.12,0,0,0,22,3.58c16.31-1.24,24.62-6.4,24.62-6.4s-4-4.39-18.29-9.21c4.32-2.47,7.86-4.24,11.52-4.16a33,33,0,0,1,13.73,3.16c4.51,2,8.78,4.77,15.08,7.31C1283.71,520.74,1292.1,519.12,1292.1,519.12Zm-170.46-21.75a5.46,5.46,0,1,1,5.46-5.45A5.46,5.46,0,0,1,1121.64,497.37Z"/><path id="플랑크톤1" class="cls-2" d="M543.81,505l-7.34-7.52s-3.58-.94-2.82,1.13,6.39,7.9,6.39,7.9l-.18,1.13L532.71,505s-4.52.38-1.13,2.64a46,46,0,0,0,7.9,3.95l-.75,1.88-6.59,3.76s-2.82,1.7.75,1.51A16.42,16.42,0,0,0,540,516.1l.57,1.7-6.4,6.58s-3,4,1.69,1.13a33.53,33.53,0,0,0,7.91-6.77L545.12,530s-.56,1.69,1.13,1.13,1.32-4.33,1.32-4.33l0-6.59,6.74,7.34s2.82,2.82,1.13-1.69a59.66,59.66,0,0,0-3.76-8.09l8.47,3.2s2.63.37,0-2.45a47.53,47.53,0,0,0-8.47-4.28l-.19-2.12,9.83-3.95s1.08-2.63-1.93-2.07-7.15,1.69-7.15,1.69l4.33-6.77s.38-2.63-1.5-1.32a61.49,61.49,0,0,0-6,5.84l-1.88-1.32v-7s-2.25-1.9-2.63,0S543.81,505,543.81,505Z"/><path id="플랑크톤1-2" data-name="플랑크톤1" class="cls-2" d="M622.05,532.32l-3.93-4s-1.92-.51-1.52.6,3.44,4.24,3.44,4.24l-.11.61-3.83-1.42s-2.42.21-.61,1.42a24.69,24.69,0,0,0,4.24,2.12l-.4,1-3.53,2s-1.52.91.4.81a8.84,8.84,0,0,0,3.84-1.41l.3.91-3.43,3.53s-1.62,2.12.91.6a17.86,17.86,0,0,0,4.23-3.63l.71,6.06s-.3.9.61.6.7-2.32.7-2.32l0-3.53,3.61,3.93s1.52,1.52.61-.9a31.91,31.91,0,0,0-2-4.34l4.54,1.71s1.42.2,0-1.31a25.6,25.6,0,0,0-4.54-2.3l-.1-1.13,5.27-2.12s.58-1.41-1-1.11-3.84.91-3.84.91l2.33-3.63s.2-1.42-.81-.71a33.54,33.54,0,0,0-3.23,3.13l-1-.71v-3.75s-1.21-1-1.41,0S622.05,532.32,622.05,532.32Z"/><path id="플랑크톤2" class="cls-2" d="M587.19,541.21s-5.44-2.72-7.62-2.28-3.7,1.08-4.68,3.26-1.85,8.71-2.5,10.12a39.79,39.79,0,0,1-2.07,4.68c-.65.87-1.3,2.28-.87,2.83s2.72-2.61,2.72-2.61A24.65,24.65,0,0,0,574,553.4c.33-1.2.87-3.27,1.31-4.57s1-4.25,1.52-5-.11-2,2-2.07a10.46,10.46,0,0,1,4.9,1,16.29,16.29,0,0,0,3.48.87v2.51a23.48,23.48,0,0,0-5.12,2.83c-1.41,1.3-3.82,7.72-3.82,7.72s-.86,2.3-.64,3.22,1.42,0,1.42,0l2.06-5s2.62-4,2.94-4.35,2.4-2,2.4-2l.11,2.83s-2.51,3.7-3.16,5A22.37,22.37,0,0,0,582,562.1c.1.33.65,1.74.65,1.74s1.85-2.61,1.85-3.59.43-3.37,1-3.81a8.25,8.25,0,0,1,1.74-.87l.43,3,1.09,3s2.29,3.7,3.27,5.22a12.43,12.43,0,0,1,1.3,5v8.59s1.85-1.41,1.85-1.74,1.31-3.81,1.31-3.81l1.52-.11a16.44,16.44,0,0,0,2,2.07c.33.11,2.07.33,2.28-.11a22,22,0,0,0,.66-2.61s-2.61-2.72-3.05-3.37-1.3-2.18-1.3-2.18l.32-7.94-1.09-8.27.66-1.63a34.43,34.43,0,0,1,1.85,3c.87,1.64,2,5.51,2.61,5.86a5.66,5.66,0,0,1,1.41,1.54v-3.59a10.13,10.13,0,0,1-1.52-3.15,12.32,12.32,0,0,0-2.61-4.57,9,9,0,0,0-2.72-1.42l-1.42-1v-1.41s2.4-.22,2.83.11a26.8,26.8,0,0,0,4,2.83,12.64,12.64,0,0,1,3.92,3.48c.76,1,1.19,1.63,1.19,1.63V551a16.8,16.8,0,0,0-1.85-2.83,25.66,25.66,0,0,0-4-3.48c-1.09-.54-2.51-.43-3.27-.65a18.12,18.12,0,0,0-3.48-.11c-.87,0-1-1.3-1-1.3v-2.07s1-.64,2.29-1.68,1.63-2.24,3.69-2a5.1,5.1,0,0,1,3.7,2.72c.55.87,3.6,4.35,3.92,5.11a14.28,14.28,0,0,0,2.83,3.48,7.54,7.54,0,0,0,2.94,1.53,10.3,10.3,0,0,0,2.72-.33,2.4,2.4,0,0,0-1.85-2.07,10.87,10.87,0,0,1-3.81-1.85c-.33-.32-3.7-4.57-4.13-5s-3.16-4.35-3.7-4.9a3.75,3.75,0,0,0-2.62-.76,10.2,10.2,0,0,0-4.24,2.07c-.87,1-2,2.94-3.22,3.37a16.69,16.69,0,0,1-4,.76A11.64,11.64,0,0,0,587.19,541.21Z"/><path id="플랑크톤3" class="cls-2" d="M589.26,505.3s-5,2.72-6.21,4.25a13.41,13.41,0,0,0-2.06,5.11,34.63,34.63,0,0,0,3.37,6.31c.33.11,7.51,0,7.51,0s.29,1.74,1,1.52a5.88,5.88,0,0,0,2.24-1.85c.11-.32,1.53-.87,1.53-.87a5.4,5.4,0,0,1-.66,2.07,26,26,0,0,0-1.41,3.48h2.07s.87-2.5,1.19-3a4.51,4.51,0,0,1,1.63-1.09V523c0,.65-1.41,2.5-1.52,2.83a7.77,7.77,0,0,0-.33,2.17c.11.33,1,.44,1.42,0a12,12,0,0,0,1.52-2.83,1.59,1.59,0,0,1,1.53-1c.65.1,0,1.63,0,2.17s-1.2,2.18-1.31,2.61-.54,3-.11,2.25S603,528,603,528s1.3-.76,1.19.55-.31,4.89,0,5.33a32.39,32.39,0,0,0,2.5,3.59c.32.11,1.74,2,2.17,1.74s1.42-.32,1.31-1.3-.55-1.2-1.63-2.51-1.64-1.74-1.74-3.48-.11-3.92-.22-6.31a52.35,52.35,0,0,0-.33-5.77c-.33-2.5-1-4.79-2.18-6s-1.95-3.42-3.8-4.62-3-2.18-4.68-2.61a20.32,20.32,0,0,0-3.81-.76A15.13,15.13,0,0,1,589.26,505.3Z"/><path id="플랑크톤3-2" data-name="플랑크톤3" class="cls-2" d="M640.49,483.67a19.54,19.54,0,0,0-4.6-.75,8.29,8.29,0,0,0-3.13,1.41,21.92,21.92,0,0,0-1.19,4.29c.1.18,3.38,3.22,3.38,3.22s-.62.91-.2,1.12a3.73,3.73,0,0,0,1.8.13c.19-.1,1.06.26,1.06.26a3.39,3.39,0,0,1-1.18.65,16,16,0,0,0-2.13,1l.93.89s1.47-.75,1.85-.86a2.9,2.9,0,0,1,1.2.21l-.8.83c-.28.3-1.71.52-1.9.62a5.22,5.22,0,0,0-1.08.84c-.09.19.26.62.64.61a7.57,7.57,0,0,0,1.9-.62,1,1,0,0,1,1.1.21c.25.33-.7.74-.93,1s-1.47.47-1.71.62-1.52,1.1-1,1,2.41-.47,2.41-.47.92.22.31.76a13.23,13.23,0,0,0-2.29,2.4,21,21,0,0,0-.42,2.68c.1.19,0,1.63.23,1.72s.78.46,1.15,0,.27-.77.34-1.82a3.06,3.06,0,0,1,.71-2.32c.7-.83,1.63-1.8,2.61-2.93a31.73,31.73,0,0,0,2.33-2.73,6.82,6.82,0,0,0,1.61-3.65c0-1.07.59-2.38.28-3.71a10.65,10.65,0,0,0-1-3.18,13.21,13.21,0,0,0-1.38-2A9.12,9.12,0,0,1,640.49,483.67Z"/><circle id="미세플라스틱" class="cls-3" cx="622.52" cy="536.39" r="1.42"/><path id="미세_플라스틱2" data-name="미세 플라스틱2" class="cls-3" d="M543.87,475.33c-1.35,1.83-.54,1.42-2.06,3.15s-2.24,2.23-2.24,2.94-.1,1.32,1.12,1.32,1.42-1,2.23,0,.21,1.32,1.42,1.42a3.67,3.67,0,0,0,2.14-.51,8.92,8.92,0,0,0,1.58-1.62c.35-.61,1.08-.6,0-2.28s-2.36-3.51-2.36-3.51Z"/><path id="미세_플라스틱2-2" data-name="미세 플라스틱2" class="cls-3" d="M520.21,517.24c-1.46,0-.94.27-2.41.15s-2-.28-2.38,0-.71.45-.24,1.08,1.07.34.86,1.15-.6.61-.18,1.28a2.33,2.33,0,0,0,1.09.89,5.74,5.74,0,0,0,1.44.19c.45-.06.73.32,1.17-.88s.89-2.57.89-2.57Z"/><path id="미세_플라스틱2-3" data-name="미세 플라스틱2" class="cls-3" d="M621.41,510.77c-1.35.57-.76.61-2.17,1.07s-2,.51-2.2.91-.48.7.19,1.09,1.12-.1,1.24.73-.31.8.33,1.25a2.35,2.35,0,0,0,1.35.41,5.74,5.74,0,0,0,1.4-.39c.39-.22.79,0,.74-1.26s-.16-2.71-.16-2.71Z"/><path id="미세_플라스틱3" data-name="미세 플라스틱3" class="cls-3" d="M573.58,524.16c-1.5.8-3.6.71-4.27,2.21s-.84,2.81-1.11,3.34-2.11,2.21-2.2,2.73-3.7,2.45-1.14,2.33a35.55,35.55,0,0,0,6.95-1.45c1.41-.35,4.67-.52,5-1.49s1.06-3.53.8-4.76a37.33,37.33,0,0,0-1.32-3.87Z"/><path id="미세_플라스틱3-2" data-name="미세 플라스틱3" class="cls-3" d="M610.47,479.1c-1.12.6-2.69.53-3.18,1.65s-.63,2.1-.83,2.49-1.58,1.64-1.64,2-2.76,1.82-.85,1.73a26.42,26.42,0,0,0,5.18-1.08c1.05-.26,3.48-.39,3.74-1.11a9,9,0,0,0,.6-3.55,27.07,27.07,0,0,0-1-2.89Z"/><path id="미세_플라스틱_4" data-name="미세 플라스틱 4" class="cls-3" d="M565.12,485.94c.26-.27-.53-7.4-.53-7.4l-10-12.86a5.87,5.87,0,0,1,3-2.64c1.93-.62,13.12-5.46,14.18-6s11-6.08,11-6.08-.27,1.85,1.85,3.88a22,22,0,0,0,7.15,4.31c1.21.27,5.71.88,7.11,1.67s6.52,3.7,7,4.59-2.91,3-2.91,3l-16.47,10.18-14.09,8.45Z"/><path id="플라스틱" class="cls-4" d="M646.52,464.61c-1.59-.48-2.55-1.43-3.18,0s-.64,2.38-1.75,3.18A11.08,11.08,0,0,0,639.2,470a3.25,3.25,0,0,0-.79,2.86c.32,1-.79,3,1.59,2.23s2.54-1.91,4.13-1.43,2.86,1.95,3.66,1.61,3.34-1.29,3.34-1.29a7.05,7.05,0,0,0,2.38-1.75c.64-.95-.79-1.91,1.43-1.59s3.18.79,4.93,1.11,2.86,1.11,3.18-.32,1-2.7.79-4-.48-5.4-1-6-.32-1.75-1.75-1.59a25.7,25.7,0,0,0-5.88,2.07c-1.27.63-4.93,2.54-4.93,2.54Z"/><g class="cls-5"><line class="cls-6" x1="678" y1="502" x2="742.82" y2="502"/><polygon class="cls-7" points="741.37 506.99 750 502 741.37 497.01 741.37 506.99"/></g><g class="cls-5"><line class="cls-6" x1="966" y1="502" x2="1030.82" y2="502"/><polygon class="cls-7" points="1029.37 506.99 1038 502 1029.37 497.01 1029.37 506.99"/></g><g class="cls-5"><line class="cls-6" x1="1342" y1="502" x2="1406.82" y2="502"/><polygon class="cls-7" points="1405.37 506.99 1414 502 1405.37 497.01 1405.37 506.99"/></g><path class="cls-2" d="M1711.09,561.85c.45-5.78-7.8-44.12-13-58.41a254.79,254.79,0,0,0-12.21-27c-2.22-11.12-5.88-28.38-11.41-49.88-3.62-14.1-8.76-34.41-17.59-38.93a22.53,22.53,0,0,0-8.81-2.47c-10.52-5.37-26.4-6.33-35.31-12.58l-.37-.25-.43-19.3c4.65-4.58,7.59-11.38,9.2-18.78,2.89-2.14,5-7.63,4.77-11.27a6.59,6.59,0,0,0-3.24-5.16c-.56-17.68-11.64-28.74-25.24-28.74s-24.67,11.06-25.23,28.74a6.59,6.59,0,0,0-3.24,5.16c-.23,3.64,1.88,9.13,4.77,11.27,1.63,7.51,4.63,14.4,9.4,19l-.42,18.72-.92.63c-8.94,6.27-24.86,7.22-35.38,12.61a22.78,22.78,0,0,0-8.4,2.44c-8.83,4.52-14,24.83-17.6,38.93-5.52,21.5-9.18,38.76-11.4,49.88a254.79,254.79,0,0,0-12.21,27c-5.25,14.29-13.5,52.63-13,58.41-.4,8.26-1.86,31.95,0,39.38,1.18,4.72,7.7,6.68,10,6.73s.79-23.94,4.77-26.89,6.13,18.42,8.72,14.26c3.23-5.19-3.11-25.87-7.19-36.23a40.65,40.65,0,0,1,4.61-12.44c8.7-16.21,17.87-37.57,19.54-44,1-3.69,1.82-8.2,2.6-12.89,6.42-13.48,11.88-23.27,19.72-47.15,2.48,14.32,5.33,29.58,7.6,43.52,1.36,8.4,1.17,18.1.58,26.05a34.48,34.48,0,0,0-2.17,5.75c-8.38,29.39-9.94,50.58-7.14,84.48,2.37,28.7,5.56,55.67,8,73.29-2,6.16-4.21,14.71-5.53,30.12-1.88,21.86,4.63,63,5.07,84.95a9.05,9.05,0,0,0-.18,1.5c-.44,25.66-8.9,28.87-8.73,36.43.15,6.92,9.3,8.42,15.42,9.19,7.57,1,12.83-4.29,14-7.87,2.09-6.39,1.46-14.62.15-28.73a47.9,47.9,0,0,0-1.51-8.37c.26-19.28,4.75-50.77,6.32-70.93,1.32-17.11-.08-31.09-1.51-42.77,2.61-16.61,9.06-56.06,10.62-76.81.68-9,1.36-17.16,1.9-24.85a53.83,53.83,0,0,0,16,0c.54,7.69,1.22,15.84,1.9,24.85,1.57,20.75,8,60.2,10.62,76.81-1.44,11.68-2.83,25.66-1.5,42.77,1.56,20.16,6.06,51.65,6.31,70.93a47,47,0,0,0-1.5,8.37c-1.32,14.11-2,22.34.15,28.73,1.17,3.58,6.42,8.82,14,7.87,6.13-.77,15.28-2.27,15.43-9.19.17-7.56-8.28-10.77-8.73-36.43a9.05,9.05,0,0,0-.18-1.5c.44-22,6.95-63.09,5.07-84.95-1.32-15.41-3.56-24-5.53-30.12,2.45-17.62,5.64-44.59,8-73.29,2.8-33.9,1.24-55.09-7.14-84.48a33.29,33.29,0,0,0-2.57-6.53c-.54-7.8-.69-17.14.64-25.27,2.3-14.16,5.21-29.7,7.71-44.22,8,24.39,13.46,34.24,20,47.85.78,4.69,1.63,9.2,2.6,12.89,1.67,6.4,10.84,27.76,19.53,44a40.47,40.47,0,0,1,4.62,12.44c-4.08,10.36-10.43,31-7.19,36.23,2.59,4.16,4.74-17.22,8.72-14.26s2.48,26.93,4.77,26.89,8.81-2,10-6.73C1713,593.8,1711.49,570.11,1711.09,561.85Z"/><g class="cls-5"><path class="cls-8" d="M814.43,506.73a17.92,17.92,0,0,1,12.84,8.36c.56.95,1.11,1.86,1.65,2.74,2.4,3.84,4.71,6.94,7.42,8.86a11.52,11.52,0,0,0,5.38,2.14,24.15,24.15,0,0,1,2.66.44,43.43,43.43,0,0,1,8.36,2.64,39.54,39.54,0,0,1,7.54,4.16,21.36,21.36,0,0,0,2.59,1.55,58.29,58.29,0,0,0,9.16,3.5c2.51.77,4.41,1.23,4.68,1.29-3.52-1.18-6.21-12.12-2.33-19.72a31.4,31.4,0,0,0,2.89-12.48,11.45,11.45,0,0,1,5.84,4.13,8,8,0,0,0,8.17,3.72s-4.27-3.16-4.83-10.58,11.33-12.25,11.33-12.25-10-.75-17.08,2.78a9.81,9.81,0,0,1-4.59,1.21,15.58,15.58,0,0,0-1.73-4c-.8-1.26-1.78-2.65-2.75-4.15-3.75-5.67-7.62-12.88-2.65-20.41a2.92,2.92,0,0,1,.21-.32c5.39-7.8,44.93-10.76,44.93-10.76,5.19-2.42-8-1.49-8-1.49-16.2,1.85-29,4.52-39.26,7.64-3.51,1.08-6.7,2.21-9.62,3.37-1.88.76-3.64,1.51-5.29,2.29a76.93,76.93,0,0,0-6.86,3.65,55.34,55.34,0,0,0-6.37,4.42,39.34,39.34,0,0,0-7,7.21,29.35,29.35,0,0,0-3.35,5.78c-4.45,10.23-11.53,8.52-13.93,10S814.43,506.73,814.43,506.73Z"/><path class="cls-8" d="M828.92,517.83c2.4,3.84,4.71,6.94,7.42,8.86a64.13,64.13,0,0,1,.57-16.37c1.11-7,3.13-13.88,3.14-21a36.56,36.56,0,0,0-1.32-9.85,39.34,39.34,0,0,0-7,7.21,51.82,51.82,0,0,1-.57,15.43C830.36,507.34,829.29,512.54,828.92,517.83Z"/><path class="cls-8" d="M844.38,529.27a43.43,43.43,0,0,1,8.36,2.64c-.24-2.69-.38-5.4-.35-8.11a117,117,0,0,1,1.13-13.49,147.16,147.16,0,0,0,1.51-15,85,85,0,0,0-3.07-24,76.93,76.93,0,0,0-6.86,3.65,52.64,52.64,0,0,1,1.3,6.84c.66,7.12.09,14.16-.48,21.26C845.11,511.82,844,520.61,844.38,529.27Z"/><path class="cls-8" d="M861.18,502c-.45,12-2.27,24.44,1.69,35.65a58.29,58.29,0,0,0,9.16,3.5c-.11-.49-.21-1-.31-1.48a102.94,102.94,0,0,1-1.91-22.83c.26-8.61,1.57-17.15,1.82-25.73-3.75-5.67-7.62-12.88-2.65-20.41a35.66,35.66,0,0,0-2.11-4.93c-3.51,1.08-6.7,2.21-9.62,3.37C860.7,479.57,861.59,490.88,861.18,502Z"/><path class="cls-8" d="M827.7,516.61c2.4,3.84,4.72,6.94,7.42,8.86a63.69,63.69,0,0,1,.58-16.37c1.1-7,3.12-13.87,3.13-21a36.56,36.56,0,0,0-1.32-9.85,39.34,39.34,0,0,0-7,7.21,51.82,51.82,0,0,1-.57,15.43C829.14,506.13,828.08,511.32,827.7,516.61Z"/><path class="cls-8" d="M843.16,528.05a43.43,43.43,0,0,1,8.36,2.64c-.24-2.69-.38-5.4-.35-8.11a117,117,0,0,1,1.13-13.49,146.87,146.87,0,0,0,1.51-15,85,85,0,0,0-3.07-23.95,76.93,76.93,0,0,0-6.86,3.65,52.64,52.64,0,0,1,1.3,6.84c.66,7.12.09,14.16-.47,21.26C843.89,510.6,842.78,519.39,843.16,528.05Z"/><path class="cls-8" d="M860,500.75c-.45,12-2.27,24.44,1.69,35.65a58.29,58.29,0,0,0,9.16,3.5c-.11-.49-.21-1-.31-1.48a102.94,102.94,0,0,1-1.91-22.83c.26-8.61,1.57-17.15,1.82-25.73-3.75-5.67-7.62-12.87-2.65-20.41a35.66,35.66,0,0,0-2.11-4.93c-3.51,1.08-6.7,2.21-9.62,3.37C859.48,478.35,860.37,489.67,860,500.75Z"/><circle class="cls-8" cx="834.08" cy="494.3" r="2.6"/><path class="cls-8" d="M851.92,488.19c.91-.5,2.34-.75,2.7.21a1.65,1.65,0,0,1-.07,1.05c-.64,2-2.22,3.47-3.48,5.11s-2.27,3.82-1.51,5.75a19,19,0,0,0,1.47,2.37,2.59,2.59,0,0,1,.19,2.65c-.44.66-1.28.9-1.92,1.36a4.66,4.66,0,0,0-1.63,3.84c0,1.44.35,2.86.44,4.31,0,.86-.31,2-1.17,1.92a1.51,1.51,0,0,1-.89-.61c-3.59-4.15-5.9-10.53-4.88-16.06C842.09,495.1,847.7,490.48,851.92,488.19Z"/><path class="cls-8" d="M853.8,488.19c.9-.5,2.34-.75,2.69.21a1.58,1.58,0,0,1-.06,1.05c-.64,2-2.22,3.47-3.49,5.11s-2.26,3.82-1.5,5.75a20.14,20.14,0,0,0,1.46,2.37,2.57,2.57,0,0,1,.19,2.65c-.44.66-1.27.9-1.91,1.36a4.66,4.66,0,0,0-1.64,3.84c0,1.44.36,2.86.45,4.31,0,.86-.32,2-1.17,1.92a1.48,1.48,0,0,1-.89-.61c-3.6-4.15-5.9-10.53-4.88-16.06C844,495.1,849.57,490.48,853.8,488.19Z"/><ellipse class="cls-8" cx="833.08" cy="494.13" rx="2.01" ry="2.77"/><g id="미세_플라스틱_그룹" data-name="미세 플라스틱 그룹"><circle id="미세플라스틱-2" data-name="미세플라스틱" class="cls-8" cx="849.61" cy="499.02" r="1.81"/><circle id="미세플라스틱-3" data-name="미세플라스틱" class="cls-8" cx="851.79" cy="495.64" r="1.81"/><circle id="미세플라스틱-4" data-name="미세플라스틱" class="cls-8" cx="848.26" cy="492.27" r="1.81"/><circle id="미세플라스틱-5" data-name="미세플라스틱" class="cls-8" cx="850.4" cy="490.9" r="1.81"/><circle id="미세플라스틱-6" data-name="미세플라스틱" class="cls-8" cx="853.6" cy="499.99" r="1.81"/><circle id="미세플라스틱-7" data-name="미세플라스틱" class="cls-8" cx="846.62" cy="496.77" r="1.81"/><circle id="미세플라스틱-8" data-name="미세플라스틱" class="cls-8" cx="844.83" cy="494.22" r="1.81"/><circle id="미세플라스틱-9" data-name="미세플라스틱" class="cls-8" cx="856.01" cy="496.77" r="1.81"/><circle id="미세플라스틱-10" data-name="미세플라스틱" class="cls-8" cx="853.07" cy="492.27" r="1.81"/><circle id="미세플라스틱-11" data-name="미세플라스틱" class="cls-8" cx="855.58" cy="490.9" r="1.81"/><circle id="미세플라스틱-12" data-name="미세플라스틱" class="cls-8" cx="858.79" cy="499.23" r="1.81"/><circle id="미세플라스틱-13" data-name="미세플라스틱" class="cls-8" cx="860.63" cy="495.64" r="1.81"/><circle id="미세플라스틱-14" data-name="미세플라스틱" class="cls-8" cx="864.06" cy="499.02" r="1.81"/><circle id="미세플라스틱-15" data-name="미세플라스틱" class="cls-8" cx="857.82" cy="493.53" r="1.81"/><circle id="미세플라스틱-16" data-name="미세플라스틱" class="cls-8" cx="861.27" cy="506.05" r="1.81"/><circle id="미세플라스틱-17" data-name="미세플라스틱" class="cls-8" cx="864.06" cy="503.62" r="1.81"/><circle id="미세플라스틱-18" data-name="미세플라스틱" class="cls-8" cx="860.07" cy="510.58" r="1.81"/><circle id="미세플라스틱-19" data-name="미세플라스틱" class="cls-8" cx="857.82" cy="512.79" r="1.81"/><circle id="미세플라스틱-20" data-name="미세플라스틱" class="cls-8" cx="864.06" cy="508.76" r="1.81"/><circle id="미세플라스틱-21" data-name="미세플라스틱" class="cls-8" cx="857.82" cy="503.22" r="1.81"/><circle id="미세플라스틱-22" data-name="미세플라스틱" class="cls-8" cx="861.27" cy="501.81" r="1.81"/><circle id="미세플라스틱-23" data-name="미세플라스틱" class="cls-8" cx="856.45" cy="508.24" r="1.81"/><circle id="미세플라스틱-24" data-name="미세플라스틱" class="cls-8" cx="854.52" cy="512.01" r="1.81"/><circle id="미세플라스틱-25" data-name="미세플라스틱" class="cls-8" cx="849.19" cy="512.01" r="1.81"/><circle id="미세플라스틱-26" data-name="미세플라스틱" class="cls-8" cx="852.11" cy="513.51" r="1.81"/><circle id="미세플라스틱-27" data-name="미세플라스틱" class="cls-8" cx="854.64" cy="504.86" r="1.81"/><circle id="미세플라스틱-28" data-name="미세플라스틱" class="cls-8" cx="851.79" cy="508.76" r="1.81"/><circle id="미세플라스틱-29" data-name="미세플라스틱" class="cls-8" cx="846.45" cy="508.76" r="1.81"/><circle id="미세플라스틱-30" data-name="미세플라스틱" class="cls-8" cx="844.41" cy="506.94" r="1.81"/><circle id="미세플라스틱-31" data-name="미세플라스틱" class="cls-8" cx="851.42" cy="503.22" r="1.81"/><circle id="미세플라스틱-32" data-name="미세플라스틱" class="cls-8" cx="849.19" cy="505.52" r="1.81"/><circle id="미세플라스틱-33" data-name="미세플라스틱" class="cls-8" cx="844.01" cy="504.24" r="1.81"/><circle id="미세플라스틱-34" data-name="미세플라스틱" class="cls-8" cx="847.37" cy="501.81" r="1.81"/><circle id="미세플라스틱-35" data-name="미세플라스틱" class="cls-8" cx="843.62" cy="499.23" r="1.81"/><circle id="미세플라스틱-36" data-name="미세플라스틱" class="cls-8" cx="844.83" cy="500.5" r="1.81"/></g></g><g class="cls-5"><polygon class="cls-8" points="86.86 718.5 105.63 713.98 120.99 714.11 135.18 719.98 135.47 685.56 143.94 643.45 194.7 586.86 252.41 547.2 295.69 536.77 356.13 532.23 429.63 540.28 454.58 563.48 443.51 574.15 413.75 581.32 354.24 595.65 272.28 629.71 220.04 662.33 206.73 680.95 179.53 696.18 155.37 726.56 172.23 766.86 179.57 791.38 167.01 816.24 155.39 821.19 161.34 805.37 158 787.3 142.14 772.25 136.05 753.32 134.34 742.48 119.11 742.35 103.19 729.11 90.46 727.08 80.58 731.49 77.72 728.26 86.86 718.5"/><path class="cls-8" d="M322.85,635.6l86.33-18.88,20.44-6.08-12.86,10.29L373.7,634.74l-57.15,7.68a1,1,0,0,0-.29.09l-29.43,13.2-9.77.3-6.18,1.65,6.22-4.82Z"/><path class="cls-8" d="M374.08,636.83l.18,0,37.86-12.15-5.59,4.48-28.35,12.55-32.88,5-28.78,4a.89.89,0,0,0-.36.11l-7.91,4.29-15.87.49,24.6-11Z"/><path class="cls-8" d="M309.55,629l111.13-24.56.12,0,30-10.72L434,607.13l-25.36,7.54-86.33,18.88-.15,0-46,17.32a.92.92,0,0,0-.27.16l-10.32,8L247.19,664l11.94-9.29Z"/><path class="cls-8" d="M301.25,627l62.91-22,71.24-15.56a.92.92,0,0,0,.25-.09L452,581.05l-.9,10.27-31,11.07L309,627a1.25,1.25,0,0,0-.25.09l-50.64,25.78-.17.11-16,12.42-7.5,2,13-12.76Z"/><polygon class="cls-8" points="345.61 648.73 370.83 644.92 350.93 653.73 312.97 654.9 317 652.72 345.61 648.73"/><path class="cls-8" d="M203.64,680.53l13.3-18.62,52.25-32.63,82-34,59.51-14.34,29.76-7.16,11.07-10.67,1.94,1.81-1.19,13.7-17.42,8.77-71.18,15.54-.12,0-63,22.07-.13.06-54,27.74a.83.83,0,0,0-.26.19l-15.78,15.48-9.71,2.59Z"/><polyline class="cls-8" points="381.98 580.25 347.1 611.24 333.69 642.36 313.66 680.5 277.04 720.59 237.79 737.08 221.43 740.41 219.49 730.86 248.91 714.95 267.94 689.79 274.67 660.03 279.46 620.72"/><path class="cls-8" d="M397,576c-.4.57-1.16,1.1-1.74.73a1.48,1.48,0,0,1-.43-.53c-.79-1.39-2.49-7.63.77-7.25C398.63,569.31,398.21,574.29,397,576Z"/><ellipse class="cls-8" cx="396.99" cy="571.87" rx="2.06" ry="3.48" transform="translate(-116.49 101.79) rotate(-12.76)"/></g><path class="cls-2" d="M638.35,859.76l-5.58-9-1.61-8,1.83-2.57,6.39-27.09-5.72-37.72-22-26.3-14.72-7.83,2.55-3.23,6.29-1.78L619.31,739l13,9.59,6.66-2.62-12-18.06-15.85-9.81-13.6,9.55-5.51,11-7.73-4.12-15.66-.82-3.42-4.7s-3.36-7.64-6.62-9.8-11.77-5.36-13.41.11,1.2,10.91,1.6,14.54c.24,2.15,1.11,6.19,1.78,9.16l-4.91,4.62-7.77,11.58-9-5.89-14.2,2.93-14.73,13.82-1.27,21.65,7.07-1.09L510,775.79l14-10.87,6.32-1.63,2.21.86-4.11,6.13-2.5,24.31,11,34.1,18.07,19.42,5.49,2.59,2.8,14-1.69,10.43L559,880.06l3.86,1.13,8.87-5.33,3.23-9.4,1.57-7.57s-1.28-.79-3.17-2.06l13.25,6.25,17.24,5.7,12.25-4.84,5.74-8.06.72,1,6.6,7.43,10.24,1.5,3.12-2.52Z"/><g id="미세_플라스틱_그룹-2" data-name="미세 플라스틱 그룹"><circle id="미세플라스틱-37" data-name="미세플라스틱" class="cls-9" cx="1186.23" cy="482.75" r="2.07"/><circle id="미세플라스틱-38" data-name="미세플라스틱" class="cls-9" cx="1188.71" cy="478.9" r="2.07"/><circle id="미세플라스틱-39" data-name="미세플라스틱" class="cls-9" cx="1184.68" cy="475.04" r="2.07"/><circle id="미세플라스틱-40" data-name="미세플라스틱" class="cls-9" cx="1187.13" cy="473.48" r="2.07"/><circle id="미세플라스틱-41" data-name="미세플라스틱" class="cls-9" cx="1190.78" cy="483.87" r="2.07"/><circle id="미세플라스틱-42" data-name="미세플라스틱" class="cls-9" cx="1182.81" cy="480.18" r="2.07"/><circle id="미세플라스틱-43" data-name="미세플라스틱" class="cls-9" cx="1180.76" cy="477.26" r="2.07"/><circle id="미세플라스틱-44" data-name="미세플라스틱" class="cls-9" cx="1193.53" cy="480.18" r="2.07"/><circle id="미세플라스틱-45" data-name="미세플라스틱" class="cls-9" cx="1190.17" cy="475.04" r="2.07"/><circle id="미세플라스틱-46" data-name="미세플라스틱" class="cls-9" cx="1193.05" cy="473.48" r="2.07"/><circle id="미세플라스틱-47" data-name="미세플라스틱" class="cls-9" cx="1196.72" cy="482.99" r="2.07"/><circle id="미세플라스틱-48" data-name="미세플라스틱" class="cls-9" cx="1198.81" cy="478.9" r="2.07"/><circle id="미세플라스틱-49" data-name="미세플라스틱" class="cls-9" cx="1202.73" cy="482.75" r="2.07"/><circle id="미세플라스틱-50" data-name="미세플라스틱" class="cls-9" cx="1195.61" cy="476.48" r="2.07"/><circle id="미세플라스틱-51" data-name="미세플라스틱" class="cls-9" cx="1199.55" cy="490.79" r="2.07"/><circle id="미세플라스틱-52" data-name="미세플라스틱" class="cls-9" cx="1202.73" cy="488.01" r="2.07"/><circle id="미세플라스틱-53" data-name="미세플라스틱" class="cls-9" cx="1198.17" cy="495.96" r="2.07"/><circle id="미세플라스틱-54" data-name="미세플라스틱" class="cls-9" cx="1195.61" cy="498.49" r="2.07"/><circle id="미세플라스틱-55" data-name="미세플라스틱" class="cls-9" cx="1202.73" cy="493.89" r="2.07"/><circle id="미세플라스틱-56" data-name="미세플라스틱" class="cls-9" cx="1195.61" cy="487.55" r="2.07"/><circle id="미세플라스틱-57" data-name="미세플라스틱" class="cls-9" cx="1199.55" cy="485.94" r="2.07"/><circle id="미세플라스틱-58" data-name="미세플라스틱" class="cls-9" cx="1194.04" cy="493.29" r="2.07"/><circle id="미세플라스틱-59" data-name="미세플라스틱" class="cls-9" cx="1191.84" cy="497.6" r="2.07"/><circle id="미세플라스틱-60" data-name="미세플라스틱" class="cls-9" cx="1185.74" cy="497.6" r="2.07"/><circle id="미세플라스틱-61" data-name="미세플라스틱" class="cls-9" cx="1189.08" cy="499.31" r="2.07"/><circle id="미세플라스틱-62" data-name="미세플라스틱" class="cls-9" cx="1191.97" cy="489.43" r="2.07"/><circle id="미세플라스틱-63" data-name="미세플라스틱" class="cls-9" cx="1188.71" cy="493.89" r="2.07"/><circle id="미세플라스틱-64" data-name="미세플라스틱" class="cls-9" cx="1182.61" cy="493.89" r="2.07"/><circle id="미세플라스틱-65" data-name="미세플라스틱" class="cls-9" cx="1180.29" cy="491.8" r="2.07"/><circle id="미세플라스틱-66" data-name="미세플라스틱" class="cls-9" cx="1188.3" cy="487.55" r="2.07"/><circle id="미세플라스틱-67" data-name="미세플라스틱" class="cls-9" cx="1185.74" cy="490.18" r="2.07"/><circle id="미세플라스틱-68" data-name="미세플라스틱" class="cls-9" cx="1179.83" cy="488.72" r="2.07"/><circle id="미세플라스틱-69" data-name="미세플라스틱" class="cls-9" cx="1183.67" cy="485.94" r="2.07"/><circle id="미세플라스틱-70" data-name="미세플라스틱" class="cls-9" cx="1179.38" cy="482.99" r="2.07"/><circle id="미세플라스틱-71" data-name="미세플라스틱" class="cls-9" cx="1180.76" cy="484.45" r="2.07"/></g><g id="미세_플라스틱_그룹-3" data-name="미세 플라스틱 그룹"><circle id="미세플라스틱-72" data-name="미세플라스틱" class="cls-9" cx="1171.65" cy="498.16" r="2.07"/><circle id="미세플라스틱-73" data-name="미세플라스틱" class="cls-9" cx="1174.13" cy="494.3" r="2.07"/><circle id="미세플라스틱-74" data-name="미세플라스틱" class="cls-9" cx="1170.11" cy="490.44" r="2.07"/><circle id="미세플라스틱-75" data-name="미세플라스틱" class="cls-9" cx="1172.55" cy="488.89" r="2.07"/><circle id="미세플라스틱-76" data-name="미세플라스틱" class="cls-9" cx="1176.21" cy="499.27" r="2.07"/><circle id="미세플라스틱-77" data-name="미세플라스틱" class="cls-9" cx="1168.24" cy="495.59" r="2.07"/><circle id="미세플라스틱-78" data-name="미세플라스틱" class="cls-9" cx="1166.18" cy="492.67" r="2.07"/><circle id="미세플라스틱-79" data-name="미세플라스틱" class="cls-9" cx="1178.96" cy="495.59" r="2.07"/><circle id="미세플라스틱-80" data-name="미세플라스틱" class="cls-9" cx="1175.6" cy="490.44" r="2.07"/><circle id="미세플라스틱-81" data-name="미세플라스틱" class="cls-9" cx="1178.47" cy="488.89" r="2.07"/><circle id="미세플라스틱-82" data-name="미세플라스틱" class="cls-9" cx="1182.14" cy="498.4" r="2.07"/><circle id="미세플라스틱-83" data-name="미세플라스틱" class="cls-9" cx="1184.24" cy="494.3" r="2.07"/><circle id="미세플라스틱-84" data-name="미세플라스틱" class="cls-9" cx="1188.15" cy="498.16" r="2.07"/><circle id="미세플라스틱-85" data-name="미세플라스틱" class="cls-9" cx="1181.03" cy="491.88" r="2.07"/><circle id="미세플라스틱-86" data-name="미세플라스틱" class="cls-9" cx="1184.97" cy="506.19" r="2.07"/><circle id="미세플라스틱-87" data-name="미세플라스틱" class="cls-9" cx="1188.15" cy="503.41" r="2.07"/><circle id="미세플라스틱-88" data-name="미세플라스틱" class="cls-9" cx="1183.6" cy="511.36" r="2.07"/><circle id="미세플라스틱-89" data-name="미세플라스틱" class="cls-9" cx="1181.03" cy="513.89" r="2.07"/><circle id="미세플라스틱-90" data-name="미세플라스틱" class="cls-9" cx="1188.15" cy="509.29" r="2.07"/><circle id="미세플라스틱-91" data-name="미세플라스틱" class="cls-9" cx="1181.03" cy="502.96" r="2.07"/><circle id="미세플라스틱-92" data-name="미세플라스틱" class="cls-9" cx="1184.97" cy="501.34" r="2.07"/><circle id="미세플라스틱-93" data-name="미세플라스틱" class="cls-9" cx="1179.46" cy="508.7" r="2.07"/><circle id="미세플라스틱-94" data-name="미세플라스틱" class="cls-9" cx="1177.26" cy="513" r="2.07"/><circle id="미세플라스틱-95" data-name="미세플라스틱" class="cls-9" cx="1171.16" cy="513" r="2.07"/><circle id="미세플라스틱-96" data-name="미세플라스틱" class="cls-9" cx="1174.51" cy="514.71" r="2.07"/><circle id="미세플라스틱-97" data-name="미세플라스틱" class="cls-9" cx="1177.39" cy="504.83" r="2.07"/><circle id="미세플라스틱-98" data-name="미세플라스틱" class="cls-9" cx="1174.13" cy="509.29" r="2.07"/><circle id="미세플라스틱-99" data-name="미세플라스틱" class="cls-9" cx="1168.03" cy="509.29" r="2.07"/><circle id="미세플라스틱-100" data-name="미세플라스틱" class="cls-9" cx="1165.71" cy="507.21" r="2.07"/><circle id="미세플라스틱-101" data-name="미세플라스틱" class="cls-9" cx="1173.72" cy="502.96" r="2.07"/><circle id="미세플라스틱-102" data-name="미세플라스틱" class="cls-9" cx="1171.16" cy="505.58" r="2.07"/><circle id="미세플라스틱-103" data-name="미세플라스틱" class="cls-9" cx="1165.25" cy="504.12" r="2.07"/><circle id="미세플라스틱-104" data-name="미세플라스틱" class="cls-9" cx="1169.09" cy="501.34" r="2.07"/><circle id="미세플라스틱-105" data-name="미세플라스틱" class="cls-9" cx="1164.81" cy="498.4" r="2.07"/><circle id="미세플라스틱-106" data-name="미세플라스틱" class="cls-9" cx="1166.18" cy="499.85" r="2.07"/></g><g id="미세_플라스틱_그룹-4" data-name="미세 플라스틱 그룹"><circle id="미세플라스틱-107" data-name="미세플라스틱" class="cls-9" cx="1166.52" cy="478.97" r="2.07"/><circle id="미세플라스틱-108" data-name="미세플라스틱" class="cls-9" cx="1169.01" cy="475.12" r="2.07"/><circle id="미세플라스틱-109" data-name="미세플라스틱" class="cls-9" cx="1164.98" cy="471.26" r="2.07"/><circle id="미세플라스틱-110" data-name="미세플라스틱" class="cls-9" cx="1167.42" cy="469.7" r="2.07"/><circle id="미세플라스틱-111" data-name="미세플라스틱" class="cls-9" cx="1171.08" cy="480.09" r="2.07"/><circle id="미세플라스틱-112" data-name="미세플라스틱" class="cls-9" cx="1163.11" cy="476.4" r="2.07"/><circle id="미세플라스틱-113" data-name="미세플라스틱" class="cls-9" cx="1161.06" cy="473.48" r="2.07"/><circle id="미세플라스틱-114" data-name="미세플라스틱" class="cls-9" cx="1173.83" cy="476.4" r="2.07"/><circle id="미세플라스틱-115" data-name="미세플라스틱" class="cls-9" cx="1170.47" cy="471.26" r="2.07"/><circle id="미세플라스틱-116" data-name="미세플라스틱" class="cls-9" cx="1173.35" cy="469.7" r="2.07"/><circle id="미세플라스틱-117" data-name="미세플라스틱" class="cls-9" cx="1177.02" cy="479.21" r="2.07"/><circle id="미세플라스틱-118" data-name="미세플라스틱" class="cls-9" cx="1179.11" cy="475.12" r="2.07"/><circle id="미세플라스틱-119" data-name="미세플라스틱" class="cls-9" cx="1183.03" cy="478.97" r="2.07"/><circle id="미세플라스틱-120" data-name="미세플라스틱" class="cls-9" cx="1175.91" cy="472.7" r="2.07"/><circle id="미세플라스틱-121" data-name="미세플라스틱" class="cls-9" cx="1179.84" cy="487.01" r="2.07"/><circle id="미세플라스틱-122" data-name="미세플라스틱" class="cls-9" cx="1183.03" cy="484.23" r="2.07"/><circle id="미세플라스틱-123" data-name="미세플라스틱" class="cls-9" cx="1178.47" cy="492.18" r="2.07"/><circle id="미세플라스틱-124" data-name="미세플라스틱" class="cls-9" cx="1175.91" cy="494.71" r="2.07"/><circle id="미세플라스틱-125" data-name="미세플라스틱" class="cls-9" cx="1183.03" cy="490.1" r="2.07"/><circle id="미세플라스틱-126" data-name="미세플라스틱" class="cls-9" cx="1175.91" cy="483.77" r="2.07"/><circle id="미세플라스틱-127" data-name="미세플라스틱" class="cls-9" cx="1179.84" cy="482.16" r="2.07"/><circle id="미세플라스틱-128" data-name="미세플라스틱" class="cls-9" cx="1174.34" cy="489.51" r="2.07"/><circle id="미세플라스틱-129" data-name="미세플라스틱" class="cls-9" cx="1172.13" cy="493.82" r="2.07"/><circle id="미세플라스틱-130" data-name="미세플라스틱" class="cls-9" cx="1166.04" cy="493.82" r="2.07"/><circle id="미세플라스틱-131" data-name="미세플라스틱" class="cls-9" cx="1169.38" cy="495.53" r="2.07"/><circle id="미세플라스틱-132" data-name="미세플라스틱" class="cls-9" cx="1172.26" cy="485.65" r="2.07"/><circle id="미세플라스틱-133" data-name="미세플라스틱" class="cls-9" cx="1169.01" cy="490.1" r="2.07"/><circle id="미세플라스틱-134" data-name="미세플라스틱" class="cls-9" cx="1162.91" cy="490.1" r="2.07"/><circle id="미세플라스틱-135" data-name="미세플라스틱" class="cls-9" cx="1160.59" cy="488.02" r="2.07"/><circle id="미세플라스틱-136" data-name="미세플라스틱" class="cls-9" cx="1168.6" cy="483.77" r="2.07"/><circle id="미세플라스틱-137" data-name="미세플라스틱" class="cls-9" cx="1166.04" cy="486.39" r="2.07"/><circle id="미세플라스틱-138" data-name="미세플라스틱" class="cls-9" cx="1160.13" cy="484.94" r="2.07"/><circle id="미세플라스틱-139" data-name="미세플라스틱" class="cls-9" cx="1163.97" cy="482.16" r="2.07"/><circle id="미세플라스틱-140" data-name="미세플라스틱" class="cls-9" cx="1159.68" cy="479.21" r="2.07"/><circle id="미세플라스틱-141" data-name="미세플라스틱" class="cls-9" cx="1161.06" cy="480.67" r="2.07"/></g><g id="미세_플라스틱_그룹-5" data-name="미세 플라스틱 그룹"><circle id="미세플라스틱-142" data-name="미세플라스틱" class="cls-9" cx="849.65" cy="499.16" r="2.07"/><circle id="미세플라스틱-143" data-name="미세플라스틱" class="cls-9" cx="852.13" cy="495.3" r="2.07"/><circle id="미세플라스틱-144" data-name="미세플라스틱" class="cls-9" cx="848.11" cy="491.44" r="2.07"/><circle id="미세플라스틱-145" data-name="미세플라스틱" class="cls-9" cx="850.55" cy="489.89" r="2.07"/><circle id="미세플라스틱-146" data-name="미세플라스틱" class="cls-9" cx="854.21" cy="500.27" r="2.07"/><circle id="미세플라스틱-147" data-name="미세플라스틱" class="cls-9" cx="846.24" cy="496.59" r="2.07"/><circle id="미세플라스틱-148" data-name="미세플라스틱" class="cls-9" cx="844.18" cy="493.67" r="2.07"/><circle id="미세플라스틱-149" data-name="미세플라스틱" class="cls-9" cx="856.96" cy="496.59" r="2.07"/><circle id="미세플라스틱-150" data-name="미세플라스틱" class="cls-9" cx="853.6" cy="491.44" r="2.07"/><circle id="미세플라스틱-151" data-name="미세플라스틱" class="cls-9" cx="856.47" cy="489.89" r="2.07"/><circle id="미세플라스틱-152" data-name="미세플라스틱" class="cls-9" cx="860.14" cy="499.4" r="2.07"/><circle id="미세플라스틱-153" data-name="미세플라스틱" class="cls-9" cx="862.24" cy="495.3" r="2.07"/><circle id="미세플라스틱-154" data-name="미세플라스틱" class="cls-9" cx="866.15" cy="499.16" r="2.07"/><circle id="미세플라스틱-155" data-name="미세플라스틱" class="cls-9" cx="859.03" cy="492.88" r="2.07"/><circle id="미세플라스틱-156" data-name="미세플라스틱" class="cls-9" cx="862.97" cy="507.19" r="2.07"/><circle id="미세플라스틱-157" data-name="미세플라스틱" class="cls-9" cx="866.15" cy="504.41" r="2.07"/><circle id="미세플라스틱-158" data-name="미세플라스틱" class="cls-9" cx="861.6" cy="512.36" r="2.07"/><circle id="미세플라스틱-159" data-name="미세플라스틱" class="cls-9" cx="859.03" cy="514.89" r="2.07"/><circle id="미세플라스틱-160" data-name="미세플라스틱" class="cls-9" cx="866.15" cy="510.29" r="2.07"/><circle id="미세플라스틱-161" data-name="미세플라스틱" class="cls-9" cx="859.03" cy="503.96" r="2.07"/><circle id="미세플라스틱-162" data-name="미세플라스틱" class="cls-9" cx="862.97" cy="502.34" r="2.07"/><circle id="미세플라스틱-163" data-name="미세플라스틱" class="cls-9" cx="857.46" cy="509.7" r="2.07"/><circle id="미세플라스틱-164" data-name="미세플라스틱" class="cls-9" cx="855.26" cy="514" r="2.07"/><circle id="미세플라스틱-165" data-name="미세플라스틱" class="cls-9" cx="849.16" cy="514" r="2.07"/><circle id="미세플라스틱-166" data-name="미세플라스틱" class="cls-9" cx="852.51" cy="515.71" r="2.07"/><circle id="미세플라스틱-167" data-name="미세플라스틱" class="cls-9" cx="855.39" cy="505.83" r="2.07"/><circle id="미세플라스틱-168" data-name="미세플라스틱" class="cls-9" cx="852.13" cy="510.29" r="2.07"/><circle id="미세플라스틱-169" data-name="미세플라스틱" class="cls-9" cx="846.03" cy="510.29" r="2.07"/><circle id="미세플라스틱-170" data-name="미세플라스틱" class="cls-9" cx="843.71" cy="508.21" r="2.07"/><circle id="미세플라스틱-171" data-name="미세플라스틱" class="cls-9" cx="851.72" cy="503.96" r="2.07"/><circle id="미세플라스틱-172" data-name="미세플라스틱" class="cls-9" cx="849.16" cy="506.58" r="2.07"/><circle id="미세플라스틱-173" data-name="미세플라스틱" class="cls-9" cx="843.25" cy="505.12" r="2.07"/><circle id="미세플라스틱-174" data-name="미세플라스틱" class="cls-9" cx="847.09" cy="502.34" r="2.07"/><circle id="미세플라스틱-175" data-name="미세플라스틱" class="cls-9" cx="842.81" cy="499.4" r="2.07"/><circle id="미세플라스틱-176" data-name="미세플라스틱" class="cls-9" cx="844.18" cy="500.85" r="2.07"/></g><g id="미세_플라스틱_그룹-6" data-name="미세 플라스틱 그룹"><circle id="미세플라스틱-177" data-name="미세플라스틱" class="cls-9" cx="1588.6" cy="470.07" r="3.78"/><circle id="미세플라스틱-178" data-name="미세플라스틱" class="cls-9" cx="1593.13" cy="463.04" r="3.78"/><circle id="미세플라스틱-179" data-name="미세플라스틱" class="cls-9" cx="1585.79" cy="456.01" r="3.78"/><circle id="미세플라스틱-180" data-name="미세플라스틱" class="cls-9" cx="1590.25" cy="453.16" r="3.78"/><circle id="미세플라스틱-181" data-name="미세플라스틱" class="cls-9" cx="1596.91" cy="472.1" r="3.78"/><circle id="미세플라스틱-182" data-name="미세플라스틱" class="cls-9" cx="1582.38" cy="465.38" r="3.78"/><circle id="미세플라스틱-183" data-name="미세플라스틱" class="cls-9" cx="1578.64" cy="460.06" r="3.78"/><circle id="미세플라스틱-184" data-name="미세플라스틱" class="cls-9" cx="1601.93" cy="465.38" r="3.78"/><circle id="미세플라스틱-185" data-name="미세플라스틱" class="cls-9" cx="1595.8" cy="456.01" r="3.78"/><circle id="미세플라스틱-186" data-name="미세플라스틱" class="cls-9" cx="1601.05" cy="453.16" r="3.78"/><circle id="미세플라스틱-187" data-name="미세플라스틱" class="cls-9" cx="1607.73" cy="470.5" r="3.78"/><circle id="미세플라스틱-188" data-name="미세플라스틱" class="cls-9" cx="1611.55" cy="463.04" r="3.78"/><circle id="미세플라스틱-189" data-name="미세플라스틱" class="cls-9" cx="1618.7" cy="470.07" r="3.78"/><circle id="미세플라스틱-190" data-name="미세플라스틱" class="cls-9" cx="1605.71" cy="458.63" r="3.78"/><circle id="미세플라스틱-191" data-name="미세플라스틱" class="cls-9" cx="1612.89" cy="484.72" r="3.78"/><circle id="미세플라스틱-192" data-name="미세플라스틱" class="cls-9" cx="1618.7" cy="479.65" r="3.78"/><circle id="미세플라스틱-193" data-name="미세플라스틱" class="cls-9" cx="1610.39" cy="494.14" r="3.78"/><circle id="미세플라스틱-194" data-name="미세플라스틱" class="cls-9" cx="1605.71" cy="498.76" r="3.78"/><circle id="미세플라스틱-195" data-name="미세플라스틱" class="cls-9" cx="1618.7" cy="490.37" r="3.78"/><circle id="미세플라스틱-196" data-name="미세플라스틱" class="cls-9" cx="1605.71" cy="478.82" r="3.78"/><circle id="미세플라스틱-197" data-name="미세플라스틱" class="cls-9" cx="1612.89" cy="475.88" r="3.78"/><circle id="미세플라스틱-198" data-name="미세플라스틱" class="cls-9" cx="1602.85" cy="489.29" r="3.78"/><circle id="미세플라스틱-199" data-name="미세플라스틱" class="cls-9" cx="1598.83" cy="497.14" r="3.78"/><circle id="미세플라스틱-200" data-name="미세플라스틱" class="cls-9" cx="1587.72" cy="497.14" r="3.78"/><circle id="미세플라스틱-201" data-name="미세플라스틱" class="cls-9" cx="1593.81" cy="500.25" r="3.78"/><circle id="미세플라스틱-202" data-name="미세플라스틱" class="cls-9" cx="1599.07" cy="482.24" r="3.78"/><circle id="미세플라스틱-203" data-name="미세플라스틱" class="cls-9" cx="1593.13" cy="490.37" r="3.78"/><circle id="미세플라스틱-204" data-name="미세플라스틱" class="cls-9" cx="1582.01" cy="490.37" r="3.78"/><circle id="미세플라스틱-205" data-name="미세플라스틱" class="cls-9" cx="1577.78" cy="486.57" r="3.78"/><circle id="미세플라스틱-206" data-name="미세플라스틱" class="cls-9" cx="1592.38" cy="478.82" r="3.78"/><circle id="미세플라스틱-207" data-name="미세플라스틱" class="cls-9" cx="1587.72" cy="483.6" r="3.78"/><circle id="미세플라스틱-208" data-name="미세플라스틱" class="cls-9" cx="1576.94" cy="480.95" r="3.78"/><circle id="미세플라스틱-209" data-name="미세플라스틱" class="cls-9" cx="1583.94" cy="475.88" r="3.78"/><circle id="미세플라스틱-210" data-name="미세플라스틱" class="cls-9" cx="1576.13" cy="470.5" r="3.78"/><circle id="미세플라스틱-211" data-name="미세플라스틱" class="cls-9" cx="1578.64" cy="473.16" r="3.78"/></g><circle id="미세플라스틱-212" data-name="미세플라스틱" class="cls-9" cx="546.19" cy="514.47" r="2.09"/><circle id="미세플라스틱-213" data-name="미세플라스틱" class="cls-9" cx="591.74" cy="550.14" r="2.09"/><circle id="미세플라스틱-214" data-name="미세플라스틱" class="cls-9" cx="591.74" cy="557.15" r="2.09"/><circle id="미세플라스틱-215" data-name="미세플라스틱" class="cls-9" cx="591.74" cy="513.84" r="2.09"/><circle id="미세플라스틱-216" data-name="미세플라스틱" class="cls-9" cx="640.4" cy="491.7" r="2.09"/><line class="cls-10" x1="78" y1="972" x2="674" y2="972"/><line class="cls-10" x1="802" y1="972" x2="1712" y2="972"/></g></g></svg>