<svg xmlns="http://www.w3.org/2000/svg" viewBox="0 0 1920 1080"><defs><style>.cls-1{opacity:0;}.cls-2,.cls-7{fill:none;}.cls-3{opacity:0.12;}.cls-4,.cls-9{fill:#f2e0de;}.cls-5{fill:#ff6200;}.cls-6{opacity:0.32;}.cls-7{stroke:#f2e0de;stroke-miterlimit:10;}.cls-8,.cls-9{font-size:7px;font-family:Gotham-Book, Gotham;}.cls-8{fill:#fff;}.cls-10{letter-spacing:-0.03em;}</style></defs><title>Asset 8</title><g id="Layer_2" data-name="Layer 2"><g id="Layer_5" data-name="Layer 5"><g id="Rectangle_6" data-name="Rectangle 6" class="cls-1"><rect class="cls-2" width="1920" height="1080"/><rect class="cls-2" x="0.5" y="0.5" width="1919" height="1079"/></g></g><g id="Layer_1-2" data-name="Layer 1"><g class="cls-3"><path class="cls-4" d="M221.55,256.12l3.59,1.84,3.8-2.2-4.54-.67c2-4.18,6.36-4,9.58-5.78.23-1.26.47-2.55.85-4.66l6.19,5.09c.23-1.51.42-2.81.63-4.25,1.26.9,2.11,1.6,3.33.09.44-.54,2.13-.08,3.93-.08-.71-1.63-1.13-2.58-1.6-3.67l4.24-2.14,6.06,1.95,1-2.68,6.19-2c1.23,2.43-4.07,2.79-1.3,6l2.2-3.67,2.52,4.3c2.06-2.28,1.05-5.73,3.86-6.5a12.25,12.25,0,0,1,3,0v4.32a13.33,13.33,0,0,1,2.9-1.44,18.63,18.63,0,0,1,3.32,0l5.31,3.76-5.68,4.53c.91,3.74,2.84.22,4.74.19l2,1.57c2.38-.81,5.23-3.6,7.32.69L292,252c4,1.48,8.28-.79,11.63,2,5.61-1,9.53,2.55,13.14,5.66,1.84,1.59,4,.64,5.57,2.25,1.15,1.19,2.95,1.76,5.3,3.07l2.69,4.39v5.46l-6.5,4.64c-5.25-.09-10.87.72-16.13-1.46-4.84-2-10.35-2.25-15.31-6.86,2.68,5.11,2.68,5.11,9.6,8.75,1.3,3.21-1.18,6.9,1.42,10.05.89,1.08-.28,3.38,1.59,4.24a37.46,37.46,0,0,0,4.2,1.39l.43,2.13h7.19a12.06,12.06,0,0,0-1.66-2.65c-1.37-1.18-2.91-2.16-4.25-3.12v-4c6-.09,10.43,5.62,17.09,3.78-1.2-2.17-2.3-4.16-3.28-5.95,1.89-5.62,8.14-5.24,10.93-9.31l8,3.55,2.78-5.3-4.52-3.35c.8-2.19,1.75-4.81,2.84-7.84l-3-3.58h9.88l3.59,6.24c-3.17.66-6.75.55-6.2,5.42l4.93,3.6h2.8l3.52-3.51v-3a42.29,42.29,0,0,0,4.31-1.38,9.35,9.35,0,0,0,3.36-2.06c3.38-3.82,7.66-4.68,12.4-4.14,1.31-1,2.51-2,3.84-2.86,1.1-.69,2.34-1.14,4.61-2.21-1.38,2.93-2.33,4.93-3.54,7.48l4.86.48c3.62-2.17,6.38-6.78,11.59-2.58,2.33-2.47,4.77-5,8.66-4.61.81,1.89,1.65,3.82,2.83,6.57.63-3.74,3.76-3.86,5.26-6.09l-2.8-7.27c-2.58-.79-6.08.8-7.41-3.33l2-2.47,7.76,5.52h10.51c7.7,4.28,15.93,7.13,21.43,14.07h3c.54-1,1.14-2.17,1.95-3.69l-2.18-.81-2.14-4.73-5.62-2.29c1-2.86,1.77-5.13,2.54-7.37L443.22,241c3.37-3.05,6.68-5.25,8.89-8.26s3.18-6.67,4.77-10.21c4.37,2.73,8.86,1.39,13.12,1.8,2.31,1.93,3.22,4,.65,6.36,1,3.05-2.27,4.24-3.25,6.9l2.8,1.23c.57,1.14,1.34,2.71,2.19,4.44l-1.72,3.43V259l3.77,3.65c-.45,2.11-.85,4-1.15,5.43l-9.15,10.23-9-.95c0,.35-.06.81-.1,1.44l6.05,2,2.06-1.32,4.63,1.66c4.87-3.79,9.4-7.69,12.35-12.17-.5-3.19-.92-5.83-1.36-8.66l9-2.7c-4-2.64-7.22,1.06-10.83.61-.61-.64-1.27-1.31-1.9-2-1.47-4.38,1.51-7.73,3-11.8l-4.6-7.41c.81-3.31,4.45-3.91,7.17-6.1v-6.56l1.9-.1,2.29,4.14-2.53,4.8,1.55,4.91a35.68,35.68,0,0,1,6.19.73c1.84.52,3.47,1.76,5.66,2.93-1.6-2.92-1.6-2.92-9.93-7.34.85-1.1,1.66-2.14,2.64-3.42l5.63,1.73.52-.63-5.17-4.27c2.3-.34,3.95-1.12,5.06-.65,4.61,2,10.06,1.58,14.11,5.41,1.13,1.07,3.63,3.43,6.26.32l-3.14-3.72-5.69-2A23.78,23.78,0,0,0,506,223c-.2-1-.94-1.95-1.72-3.46a18.44,18.44,0,0,1,3.78-2.23,36.75,36.75,0,0,1,7.19-1.42c2.57-.24,5.21.17,7.77-.11,3.31-.36,6.57-1.13,9.79-1.71.06-.68.1-1.13.16-1.73l-2.83-1.38,1.36-1.53-1.12-1.11,3.13-6.43H537c5.94-4.23,12.4-5.56,19.45-6l.82-2.39c4.63-.37,8.85-3.45,14.21-2.84l-2,2.23h5.45l2.33-2.21,4.64,1.45-2.65-2.92,8.71-.41v-4.91l8.26-7.27c5.27-1,9.28.06,14,2l-4.52,3.73c3.27,1.54,6.06.64,9.31,1.11-.48,1.62-.94,3.16-1.42,4.79,3,2.25,4.52-.34,6.4-2.12,3.18,0,6.48-.22,9.75.06a91.34,91.34,0,0,1,9.15,1.74c.62.94,1.44,3.5,2.57,3.64,2.68.33,1.47,3.24,3.27,3.78-2.29,1.45-1,3.84-1.57,6-2.2,1.41-5,2.51-6.78,4.52-2.19,2.51-5.62,1.75-7.82,4.09-2,2.1-4.65,3.57-7.59,5.73h-3.4l-8.25,6.4.48.9c3.05-1,6.1-2.67,9.16-2.7,3.57,0,4.86-4.57,9.33-2.81l-1.73-2.19c2.31-2.06,2.31-2.06,6.33-2.3.46.93,1.09,2.24,1.38,2.85,3.15-.19,5.39.87,7.06-1.59l2.56,3.85c3.33-.71,6.9-2,10.5-2.1s7.11,1,10.89,1.62c.69,1.59,1.54,3.55,2.59,5.95l3.28-2.05c5,2.59,10.38.91,15.84,1.52v-6.38l4.79-2.46,2.78,2.59,7.44,1.73,1.9-1.29c2.83,1.26,5.94,2.31,7.34,5.42,1.15,2.58,1.91,5.34,2.94,8.3l-3.86.72c-.14.17-.41.45-.38.48a5.22,5.22,0,0,0,1,1c2.66,1.74,1.2,6,4.49,7.35,2,.84,4,1.8,5.91,2.69l6.41-9.48,4.42,3.32c1.83-.54,4.12.52,6.71-1.07,2.84-1.75,5.91,1.14,9,1.58,1.41.21,2.78.69,5.26,1.32L751,236.35c2.75-2.4,5.31.33,8.2.82-.22-2.09-.39-3.69-.6-5.6l-3.31-1.36,5-2.94,1.34,1.34,2.73-4.23,21.41,3,2,1.81c-.22.22-.43.55-.55.52a11,11,0,0,0-5.11-.41l4,2.81-2.86,1.37c.3.77.6,1.51,1.06,2.67,2.59-1.59,4.52-3,5.07-6H800l5.68,3.6-6.63.7.06.78h4.82l2.49,3.16h5l2.85,4.43c2.56-.26,5.71-.71,8.87-.85,6-.26,12.06-.93,17.95-.22,2.74.34,5.14,3.52,7.9,5.56-.5,1.73-.92,3.18-1.42,4.93l5,.5c.21,1.35.41,2.65.65,4.27l3.25-3.07c4,0,8-.22,12,.07,3.56.26,7.07,1.09,10.29,1.62,1.73-1.73,3.06-3.07,4.32-4.32h6.37c0,.82.09,1.46.13,2.15l-5.2,1.26,7.57,6.14h4.29c1.77-3.25-1-4.66-2.78-6.63.65-1.53,1.24-2.94,1.76-4.17,4.25-1.18,7.25,1.17,10.71,2,4.37-2.1,9.31-.26,14-1l2.94,2.79a21.05,21.05,0,0,1,10.81,3.62c4.85,3.35,10.26,5.89,15.53,8.57,3.65,1.86,7.41,3.48,9.82,7.57v5.15l2.17,2.1,2.37-2.57-1.43-2.36c.12-.15.4-.71.61-.68,3.78.52,7.56,1.11,11,1.64l7.91,6.63c.62,2.39-3.9.84-2.84,3.61l-5.11,1.83-2.94-1.63c-.42,3.57-.77,6.58-1.21,10.27l-5.06.28c-3.93-2.31-7.85-3.38-9.72-7.51-.59-1.33-3.35-1.9-5.23-2.33-1.15-.27-2.52.39-4.53.78-.38-.7-1.14-2.11-1.89-3.52l-.83.81c-.25-1.29-.49-2.58-.83-4.34l-3.48,2a12.57,12.57,0,0,1,1.15,2.68,21.2,21.2,0,0,1,0,3.47c-3.1,3.92-7,5.85-12.8,4.81l-2.8-2.79-2.92,2.33c5.56,1.85,10.51,3.93,11.55,10.58.32,2.06,1.83,3.93,2.94,6.19l-3.6,2-7.15-2.67c-2.95,3.37-6.34,5.95-11.45,6.06-2.05,0-4,2.59-6.06,4-4.64,3.12-9.3,6.22-14.44,9.65l-3.07-3.94c-5.4-.34-9.33,1.68-13.1,4.79a20.22,20.22,0,0,1-.77-2.32,31.27,31.27,0,0,1-.22-3.14c-2,2.37-3.42,4.07-4.81,5.74L866.19,330l-9,13v2.86h5.49c-1.22,2.82-2.23,5.15-3.23,7.44l4.83,2.81-5.65,1.55c-.89,1.46-1.91,3.17-2.94,4.88.59,1.64,1.18,3.29,2,5.54l-5.1.57-5.49,5.49,1.45,2.59L841.73,380v4.64l-8.19,8.19c-.57-3.66-2.31-6.63-2-10.28.13-1.88-.88-3.83-1.29-5.77s.9-4.26-1.23-5.86c-.2-6.32-1.29-12.73,3.51-18.22,1.35-1.54,1.64-4,2.6-6.52l6.47-2.38c5-5.28,11.44-10.66,16.23-17.57a3.12,3.12,0,0,1,2.19-1.4c3,.23,3.79-1.8,4.63-4,1.22-3.23,2.6-6.39,3.89-9.53-2.54-1.48-4.19-.54-5.64,1.36-.08,1.53-.17,3.12-.28,5.05l-5.2,2.19-7.61,5.49-2.43-4.25c.43-.52,1-1.19,1.87-2.31l-5-2.74-2.14,1.62h-7.18c-.23,1.24-.48,2.54-.77,4.06-4.49,2.52-8.5,5.78-10.76,10.94.73.77,1.64,1.75,2.56,2.74-1.39.69-2.7,1.74-4.14,2-4.15.71-8.37,1.11-13.6,1.75l5-4.06-6.36-.63-3.37-3-6.7,4.34c-.37-.24-1-1-1.39-.85-5.6,1.44-7.91,1.45-11.93.38-3.78-1-7.71-1.67-11.15.81a66.78,66.78,0,0,0-8.52,7.22c-2.87,2.92-5.36,6.07-8.89,8.46-2.9,1.95-4.38,6-7.31,7.88a31.39,31.39,0,0,0-7.9,7.36c-.12.15,0,.46,0,.72,1.87,2.26,3.51.32,5.72-.49V374l3.79-5.34c.27,3,.43,4.77.53,5.92l4.64-4.63c5.71.09,7.2,4.17,10.8,6.33-.2,4,.9,8.61-1.47,12.83-1.56,2.79-1.26,5.7-1.37,8.63-.22,6-2,11.37-6.16,15.83-.79.85-2,1.6-2.26,2.6-1.68,5.41-5.75,9-9.06,13.3a92.12,92.12,0,0,1-7.74,8.72,87.47,87.47,0,0,1-7.1,5.76l-4.07-3.34c-4.41.05-6.86,2.83-9.36,5.48-1.18,1.25-2.32,5.27-2.5,7.82l-10.25,7.48,8.51,10.92c.62,4.12,1.18,7.89,1.79,11.92h-3.15c-3.07,2.87-5.41,6.28-10.12,5.91-.56-1-1.15-2.17-1.52-2.86.46-4.2.88-8.06,1.4-12.85l-1.28-2.66h-6.25v-5.19l2.7-2.69L689.38,459c-3.63,2.38-7.28,4.75-11.48,7.49-.29-1.91-.55-3.58-.84-5.51l3.37-3.18-1.54-4.08c-.74.11-1.17,0-1.38.22-4.14,3.53-8.25,7.09-11.16,9.6l-6.3,1.49c.48,1.82.9,3.44,1.35,5.14H667c.25,1.5.48,2.79.74,4.31l2.55.17,3.89-4.29,9.41,5-7,2.66-7.72,7.72c0,.26-.31,1.26,0,1.63,3.65,3.79,5.11,8.7,7.07,13.36.66,1.59,3.31,2,2.52,5.08l-3.71-3.09c-.72,3.62,2,4.17,4,4.84v3.34L675.64,512l4,2.9a14,14,0,0,0-.83,2.77,30.13,30.13,0,0,0,0,4l-8.46,10.59v5.2c-3.19,1.86-5.19,5-8.21,7.09s-5.42,5.21-7.82,7.61c-10.32,1.1-19.48,4-27.14,12.19-.43-2.27-.77-4.1-1.16-6.16l-2.31,1.47L621,558.13l-8.45,3.52-3.16,4.7v8.71l13.76,15.15c.81,3.55.35,6.17,1.53,8.9.88,2-.71,5.14-1.22,7.85-2.86,2.74-5.35,6.16-10,6.39-.91,0-1.9,1.22-2.6,2.08-.83,1-1.26,2.34-2.09,3.35a46.55,46.55,0,0,1-3.44,3.45c-1.63-3-1.63-3-.16-6.1-.6-2.52-2.44-3-4.78-2.87-2.45-2.28-5.33-4.17-5.65-8.15-.09-1.07-1.86-2-2.92-3.07l-4.76-.25-.49-2.39h-4c.55.88,1,1.56,1.25,2l-4.51,14.27,6,8.07-1.36,1.52c3.28,5.93,10.18,8.32,14.12,14.8,0,.94,0,2.79,0,4.64,0,3.39-.34,6.8,2.17,9.74.71.83.52,2.43.82,4.11-8.26-4-13.71-9.68-16.79-18-.51-3.38-1.07-7.16-1.65-11l-6.8-6.39c.49-8.14.94-15.7,1.36-22.87-4.16-4.8-4.6-6.37-4.6-15.69l-3-5.13c-.5.15-1,.14-1.13.35-1.1,1.68-2.14,3.41-3,4.85-2.8.27-5.18.81-6.74-1.67,2.53-4.8.87-9.53-.59-14.68l-7.6-7.35-2.32-10c-2.87-.27-3.66,1.48-4.13,3.82l-12.21,2.19-3.15,3.09c.57,3.46-1.72,5-4.2,6.39-1,.56-2.34,1.12-2.65,2-1.58,4.47-5.35,7.26-8.74,9.66-4.24,3-7.39,7-11.3,10.16,0,4.06.23,8.08-.07,12.07-.26,3.57-1.1,7.1-1.86,11.76l-8.81,12.38c-.87-.12-2.47.13-3-.49-1.35-1.7-2.84-3.67-3.15-5.7a35.73,35.73,0,0,0-4.26-11.72c-1.51-2.85-1.93-6.26-3-9.37-.82-2.48-1.8-4.91-2.82-7.32-2.16-5.11-2.9-10.6-4.15-15.94-1-4.48-3.1-9-.41-13.83.56-1-1.23-3.35-2.32-6l-3.29,6.64H461.5l-7.81-7.78,4-1,.24-2.29-3.43,1.57c-3.61-5.12-10.78-7.08-11.89-14.65-5.87.7-11-.16-16.31,1.31-3.63,1-8.28,1.55-12.07-1.12-4.49,1.19-8.31-2.23-12.92-1.28a42.21,42.21,0,0,0-1.47-4.11,41.08,41.08,0,0,0-2.28-3.57c-1.45.63-2.65,1.16-3.85,1.67l-3.07,1.27a62.22,62.22,0,0,1-6.38-2.51,46.27,46.27,0,0,1-8.46-5.1c-1.82-1.5-3.78-3.83-4-6-.31-2.81-2.22-3.9-3.55-5.75h-6.13l-2,2.32c1.06,5.94,3.31,11.21,7.85,14.47.9,3.72,1.66,6.88,2.46,10.18,1.47-1.9,2.63-3.38,4.31-5.54,1.52,3.32,1.72,5.49-.07,7.41l1.86,3.61,9.92-1.8c3.44-.64,5-3.48,6.25-6.24.83-1.79,1.47-3.24,3.64-3.37,1.7,10.57,2.37,11.44,10.44,13.21l4.49,6.59c-.45,5.66-5.24,8.31-8.53,12.13v4c-1.24,2.11-4.11,2.42-5,5-.26.75-1.82,1.08-2.81,1.55-.78.37-2.05.44-2.35,1-2,3.88-5.34,4.76-9.23,4.93-.56,0-1,.9-1.65,1.09a7.78,7.78,0,0,1-2.17,0c-2.32,4.42-5.51,7.58-10.83,7.06a78,78,0,0,1-7.32,5.09c-1.3.72-3.1.56-4.95.83L354.58,597l-9.23,2.76.19.6h-5.9c-.93-3.15-1.79-6.08-2.66-9,0-5.68-2-10.67-4.89-15.75s-4.54-10.66-9.18-14.6c-.93-.79-1.27-2.28-2.17-4v-6.41l-8.47-10.5c-.67-8-9.22-12.85-10.42-21.23l-5.45,5.53c1.09,2.84,2.07,6.5,3.85,9.71a43.57,43.57,0,0,1,4.87,12.16c.4,1.92.93,3.77,3.34,5,1.75.92,2.33,4,3.64,6.59v10.83l6.51,6.41c2.14,5.95,2.45,11.78,8.79,14.87,3.05,1.48,5,5.32,7.36,8.09l5,5.72-2.57,1.06,7.71,7.7a15.76,15.76,0,0,1,6.15-2.26c2.27-.19,4.35-2.17,6.65-2.56,2.75-.48,5.64-.12,8.4-.12l6.14-3.21c2.17,4.88-.49,9-1.45,13.09-.73,3.16-1.56,6.48-4.35,8.83a5.36,5.36,0,0,0-1.83,3.41c-.23,5.86-4.36,9.78-7.44,13.85s-6.76,8.14-11.61,10.85a19.74,19.74,0,0,0-7,6.9,35.86,35.86,0,0,1-8.22,9.25c-5.14,4.24-7.66,10-9.56,15.88-1,3.07-3.44,6.68-.22,10.13.35.38.05,1.37.05,2.08a53.57,53.57,0,0,0,.07,7.06,43.41,43.41,0,0,0,1.8,6.31l1.92.5c.15.17.41.33.43.52.07.46-.06,1,0,1.41,1.7,8,1.6,16,1.28,24.06-2.86,4.77-6.24,8.64-11.75,10.72-2.61,1-6.06,2.17-6.67,6.13-.14.87-2.13,1.4-3.2,2.18-3,2.22-4.82,5.65-3.56,8.87a41,41,0,0,1,2.54,18L291,791.93c.47,2.42,1.29,4.6,1.21,6.75-.06,1.9-1.11,3.76-2.16,7-5,3.68-7.15,11.23-11.9,16.87-2.84,3.37-5.66,6.87-9.05,9.61-1.89,1.53-4.94,1.62-7.7,2.42l-.41,1.92H246.4l.17.72L237,841l-6.17-4.2c-2.11-7-2.11-7-.55-11.1-4.93-7.57-6.57-17.23-12.55-25a111.33,111.33,0,0,1-2.87-17.58,64.89,64.89,0,0,0-4.4-17.38c-2-5.15-5.23-9.61-7.27-14.67v-8.46c3-2.78,3-6.45,2.8-9.73,2.56-4.33,4.91-8.3,7.36-12.46A38,38,0,0,1,210,704.06c0-2.9-1.76-5.8-2.65-8.73-2.25-7.36-3-8.62-8.47-14.89a42.78,42.78,0,0,1-5.42-7c-1.16-2.06-1.44-4.61-2.05-6.75l3.38-3.55c-.24-1.62-.51-3.37-.92-6.09.27-.51,1-2,2.15-4.15v-7.49l-7-5.45c-3.24,2.67-7.09,1.06-11.13,1.69L175.72,637l.75-.56L170,631.69h-9.45c-5.1,2.9-9.82,5.73-14.7,8.27a6.75,6.75,0,0,1-4.16.12c-9.05-1.94-10.9-2.12-19.08.74-2.68.94-4.7.92-6.9-.68-1.43-1-3-1.83-4.47-2.86-4.55-3.27-9.2-6.43-13.51-10a10.1,10.1,0,0,1-3.44-5.55c-.62-3.67-2.63-6.17-5.15-8.51-2.35-2.19-4.41-4.54-4.83-6.68l-5.74-6.46c3.62-3.75-.61-6-1-9.74,2.26-3.38-.53-9.23,3.78-13.12,0-2,.8-4.63-.17-6.09-1.85-2.79-.5-5.87-1.71-8.53-.63-1.39-1.49-2.68-2.35-4.18,2-5.58,3.91-11.45,8-16.28.93-1.08,1.11-2.82,1.56-4.28,1.69-5.41,6.37-9,8.64-14.1.37-.83,2.35-1,4.31-1.65l10.1-10.1c-.59-2.67-1.21-5.48-1.62-7.32l5.63-9.43c2.54-1.62,6.74-2.39,8.56-6.06,1.56-3.13,2.35-6.66,5.56-9.34l3.37,2.8,13.14,2c2.87-4.51,8-5.68,12.29-7.88,3.4-1.76,7.82-1.74,11.83-2.09,7.58-.65,15.18-.91,22.76-1.53,1.69-.13,3.31-1.09,4.71-1.59,1.59,1.56,2.86,2.81,4.44,4.38-.45.71-1,1.63-1.24,2,.5,3.33.92,6.15,1.22,8.18l-5.72,4.41,4.42,1.32.69-.79a21.51,21.51,0,0,0,3.06,3.79c1.33,1.08,3.12,2.42,4.61,2.3,3.78-.3,7.13,1.13,10.75,1.88.85,2,0,5.37,3.78,5.32,4.09-.05,7.06,2.37,10.2,4.41,2.81,1.83,2.79,1.9,6.49-1.16l-2-6.75,4.65-2.95-.54-.44,7.9-1.93,3.71,4.48c2.86.34,4.7.07,6.76,1.36a20.39,20.39,0,0,0,9.34,2.84c3.18.17,5.42,1.84,8.53,3.22,2.06-3,5.86-3.07,9-4.79l6,3.07h5.08a12.3,12.3,0,0,0,5-7.54c.21-.89-.37-2.2.09-2.77,4.32-5.39,4.52-11.66,4.24-18.1,0-.7.74-1.43,1.63-3l-4.05,1.53-1.7-1.45c-3.11,2.23-6.54,3.88-11.11,2.91l-1.86-2.36h-5.14l-2.45,2.44H277c-.13-.65-.26-1.3-.5-2.44l-3-.31-6.39-5.06.73-.85c-.5-3.58-1-6.91-1.47-10.61l-3.23-1.1,4.82-1.12-1.11-1.75-5.12-3.43L257.8,452l-1.92-1.66c-.22,1.47-.4,2.7-.68,4.63l-6.66-1.64c.09,1-.09,1.91.29,2.51,1.16,1.86,2.54,3.58,3.61,5.06l-1.39,3.12.71.61,2.09-1.62,3.64,2.81c-1.91,1.59-3.63,2.61-4.75,4.08s-1.38,3.17-2,4.7H248.1c-2.86-1.68-4.56-4.41-5.61-8.07l4.17-.7.08-.62-5.29-.86c0-1-.1-1.9-.17-3.27-4-3.65-7.77-7.86-4.56-14.2-2.83-4.21-7.13-6.94-11.69-8.86-3.28-1.39-4.69-4.39-7.61-6.17-.08-1.09-.16-2.2-.26-3.58-3.07-1.3-5.07-5-9.18-4.59-.68,2-1.31,3.87-1.78,5.28l7.46,7.45-1.19,1,3.27,6.17c5.48,3.64,10.47,6.92,15.39,10.29.34.24.17,1.21.31,2.47l-6.53-1.79c.05.36.86,5.89.84,5.75l-3.81,7.23-1.62-.27c2.21-8.49,1.49-9.88-6.49-15.34-3.19-2.18-6-4.93-9-7.41-1.18-1-2.39-1.93-4.7-3.78-1.59-2.6-2.36-7.59-7.35-10.41L180.05,438c-1.06-.21-3.24-.71-5.45-1.06-2-.33-4.09-.49-6-.71l-2.26,2.25v7.09l-7.28,4.18-.63-.83-6.29,7.56V463c-1.42,2.72-2.44,4.65-3.62,6.92L143,474.21l-12.94,2L127.28,479l-4.65-5.74H113c.77-2.47,2.15-4.89.35-6.95-3.41-3.91-2.43-8.06-.68-11.93,2.59-5.73,1.6-10.84-1.3-16.14,3.17-2.1,6.15-5.16,10.71-1.91,1.1.78,3.22.11,4.87.11h17.48l1.67-1.67,2.09-14.8-4.33-2.67c-.09-.85-.22-2-.41-3.65-2-.83-4.25-1.71-6.44-2.68-2-.89-4-1.89-5.88-2.81v-4h8.28l5.37,1.54c.37-2.66,1.13-4.86-1.09-6.77l2-1.79,5.95,3.88c.84-3.32,2.84-5.11,6.32-4.08l3.11-8.37h4.4c5-5,5.85-6.35,7.36-11.86l3.28,1.8.29-3.86,7.32-1.52,2.29-2,3.77,2.2c.44-1,.92-2.12,1.41-3.22.93-4,.27-8.38-3.78-12.52.41-2.46.92-5.47,1.5-8.91,4.68,1.49,5.73-3.49,9-4.37,3.33,2.45-2.95,3.95-.76,6.56l4.77,2.31-6.46,4.72,3.38,1.24v3.46l-2.48.5c-.07,1.06-.16,2.34-.27,3.88l3.71.26,1.69,3.37c2.62-3,6.07-3.86,9.45-4.9.28,2.34,2.43,2.77,4.08,3.95,3.15-1.53,7.06-1.64,9.68-4.73.55-.65,2.15-.35,3.22-.64a33.23,33.23,0,0,0,3.14-1.17c1.43,1.4,2.78,3.61,5.64,2.39l1.16-2.81,3.21,1.42c3.88-4.16.55-9.6,2.62-15.76l4.62-6.26,4,5.23h4.19a16.47,16.47,0,0,0,.52-1.79c.27-1.5.47-3,.76-4.9-3.25-.15-3.69-3.53-5.15-6.51,5-5.9,11.49-3,17.31-3.87l.34,1.41,8.47-5.3L275,322.15l-20.62,5.1-11.74-5.37,2.81-5.27c-1-3.49-2-6.87-2.83-9.9.86-3.68,4.44-4.31,6.21-6.88,1.63-2.37,4.94-3.6,7.78-5.51.65-1.42,1.45-3.21,2.19-4.83l2-.41c1.4-3.44-1.35-4.72-3.07-6.68H249c-2.54,2.69-6.31,5.25-3.63,11.12-2.72,2.17-5.77,4.87-9.09,7.17-3.15,2.18-4.85,5.62-6.46,6.8l-4,8.62c.58,1.58,1.17,3.23,1.61,4.42l7.68,6.93c-3.9,2.29-3.61,7.73-8.56,8.55-2.32,3.6-3.23,7.33-1.38,11.46a16.58,16.58,0,0,1,.76,3.15l-5.86,5.21-2.59-1.46c-3.05.68-2.95,3.16-3.36,5.51h-3.45c-2.06-9.38-7.84-17.46-9.95-26.92-.11-.52-1-.87-1.56-1.35-2.13,1.85-4.13,3.67-6.23,5.38s-4.26,3.27-6.24,4.78l-4.75-1.71-4.55-3.48,2.43-4.9-4.57,1.81c-.2-1.95-.37-3.65-.59-5.79l4,1.62c.18-1.15.31-2,.47-3L174.9,326c.19-3-1.05-6.19.94-8.74l-1.15-4,6.91-5.6h2.52c1.06-3.89,7.07-3.59,6.39-8.77l2.9,2.21c2.39-3.77,4.44-7.7,9.69-7.82l-1.69-2.68,4.34-4a11.29,11.29,0,0,0,1.51-3.72c.21-1.91,1-2.66,2.34-4,2.72-2.7,4.18-6.65,6.29-10,1.43-2.28,3.08-4.43,4.65-6.67l2.24,2c.07-1.74.13-3,.18-4.15l-7.82,1.36c2.41-3.17,4-5.38,5.75-7.46.22-.26,1.24.15,2.2.3Z"/><path class="cls-4" d="M1308.26,254a42,42,0,0,0-4.23-3.77c.51-1.58,1-3,1.39-4.28-.43-2.37-.85-4.71-1.28-7.15l4.68-.76-1.71-1.88,2.72-.93v-7.61c-2.9-2.72-2.86-6.28-2.51-10.12l2.37-.48.71-4.19c4.44.88,8.95-1,13.47,1.39,1.82,1,4.58.16,7.77.16l-7.56,11.29h-6.74V229l-4.16,4.16c2.3,2,4.63,3.94,7.12,6.06-.5,1-.9,1.76-1.49,2.94l7.26,5.56c-1.27,1.8-2.39,3.4-4,5.71h5.31l3.55,2c-1.41,2.86-1.2,5.59-.69,9.7l5.07-8.87,6.09,5.46c-.37,1.95-.76,4.07-1.29,6.93l4.32,6.34,4-1.93-2.76-5.87,1.85-1.93,1.3,2.7c3.18-1.27,2-4.19,2.25-6.07l4.4-2.76c-1.11-1.19-2-2.18-2.92-3.1v-3c4.41-1.72,8.39.26,12.46,1.34.16.64.33,1.28.56,2.17h3.22l1.93,5.77-5.3,2.13,5.21,9.18c-1.55,1.06-3.68,2.31-5.55,3.86-1.64,1.36-3.26,3-5.44,2.56-2.67-.51-3.39,3.95-6.78,1.44l-.88-1.87h-4.14c.73,1.59,1.26,2.72,2.1,4.53l-6.88,6.12,1.1,1.79-5.4,7.07c-2-.36-4.67,1.13-7-1.68-.26,1.57-.47,2.82-.67,4.07-3.75,2.32-7.29-2-11.27-.59,2.3,3.19,5.66,3.67,9.37,4.5-1,1.46-1.64,2.35-2.39,3.43h-4.69c-.8,1.09-1.48,2-2.13,2.92-1.64,2.38-3.1,4.91-5,7.12a20.35,20.35,0,0,0-5,12.81c-.06,2.12,0,4.24,0,6.36l8,3.08,2.51,10.27c1.71-.42,3.6-1.34,5.4-1.19s3.59,1.74,5.47,2c5.46.78,9.27,4,13.25,7.46a21.41,21.41,0,0,0,8.72,4.38c3.12.74,6.55.16,9.78.16l2.09,2.1v14.37c2.72.36,2.11,3.79,4.75,5,2,.87,3,3.66,5,6.27,1.1-2.64,3.31-3.46,4.64-5.68s1.86-4.51.9-5.73c-1.93-2.43-.45-5-1.52-7.19l-2.59-5,12.77-8.59c0-14.63,2.13-10.27-8-19.9l5.34-9.05c-.94-2.65-1.9-5.32-3-8.31l3.25-2.5c-1.64-1.59-3-2.91-4.31-4.21l1.59-3.47c6.43-.45,6.43-.45,12.82,2.24l5-2.65c5.71,2.45,8.2,8.6,14.06,11.57h5.81c-3,5.06-.8,9.78.37,15l3.44.48,4.3,4.29c6.83-3.55,10.86-8.72,12.3-16.67l15.1,25.47c.07,1.92-2.59,1.81-4.06,2.82l9.12,8.79,11.91,4c0,.67,0,1.13-.08,1.89l-3.93.65c.15.41.31,1,.39,1,3.3-.43,4.83,1.54,5.67,4.33l1.65-1.4c3.5,0,3,3.55,5.17,5.53l-3.83,2.38,1.6,2.35c-.36,1.41-.68,2.65-1,3.89l-9.33,1.85-7.89,6.64h-25.61c-2.45,1.53-5.16,2.22-5.94,5.38-.25,1-2.48,1.51-4,1.91-2.74,2.85-6.61,4.89-7.61,9.56,2.07-1.85,3.88-4.22,6.29-5.39s5.39-2.15,7.8-3.3c3.11-1.47,5.92-.45,9.18-1.35l2.32,4.88-6.33,3.19c.14.66.28,1.3.48,2.19l2.12-1.76c.18,2.93.34,5.57.52,8.52l10,6.25,4.7-2.12,4.63-8.12v4.7l4.62,2.69-5.39,1.41c-3.16,4.42-8.59,5.78-14.56,7.12l-4.85,5.2h-3l-2.06-2.06c0-.94,0-1.88,0-2.85l3.77-3.72h5.91l.14-.68-2.41-.89c-.17-.93-.39-2.23-.64-3.61-.38.13-.82.14-1,.36a20.55,20.55,0,0,1-7.12,5.06c-2.37,1.15-4.6,2.61-7.24,4.14l-3.06-1.52c-1.5,1.69-1.55,4.31-4.58,4.59-1.27.11-2.74,1.95-3.44,3.35-1.27,2.51-3.12,5.27.81,8.22L1413.5,450l-.33-.33-10.69,3.41,6.41.5c-.18.52-.23,1.08-.42,1.13-2.36.6-4.74,1.13-7.35,1.73-1.26,3.32-1.14,7.92-6.18,8.88.93,2.1-.29,6.91-2.71,9.79V467.2c-1.47,1.8-2.44,3-3.56,4.37l4.58,8.3-.94.95,1.5,2.23c-.71.91-1.51,1.93-2.3,2.92l-1.93-1.66v5l-5.76,2.89c-.26.88-.44,1.51-.62,2.14h-3.44c-.39.49-1,1.2-1.55,2-.89,1.23-1.5,3.31-2.62,3.61-3.69,1-5.09,4.16-5.87,6.86s-3.57,5.75-.24,8.66c-.42,2.89,1.22,5.09,2.32,7.53a23.17,23.17,0,0,1,1,15.36l-1.57,3.21-5.77-6.77c-.57-4.82-4.88-8.69-2.93-13.6l-5.49-7.56-4.11,3.43c-.63,0-1,.09-1.08,0-.82-1.3-1.6-2.63-2.62-4.34a48.8,48.8,0,0,1-6.67.75,70,70,0,0,1-7.72-1l-2.47,3,3.26,4.19-9.78-1.7-2.3-2.29a4.18,4.18,0,0,1-4.85.88c-4.24-1.55-7.72-.69-10,2.67-.61.89-.67,1.57-2,2.11a16.36,16.36,0,0,0-9.25,9.12c.82,1.45,1.69,3,2.36,4.16-.91,4.4-1.75,8.51-2.61,12.62-.93,4.44,1.73,8.48,1.41,12.87,2.81,2.92,6.32,5.46,5.68,10.15l6.64,4.56,11.12-3c.39,1.11.67,1.93.76,2.19l5.34-5.34c.28-1.41.87-4.45,1.41-7.22a29,29,0,0,1,16.38-1.64l-3.43,5.2c.2,4.14,0,9.35-3.83,13.13-.52,3.56-1,6.89-1.53,10.56,1.39,1.78,2.35-.95,3.68-1,4.24-.1,8.55-.47,12.71.11a9.58,9.58,0,0,1,6.93,4.36c-.38,4.76-.69,8.58-1,12.4,0,.71.28,1.62,0,2.09-3.45,4.81-.22,8,2.69,11.2,1.58,1.74,3.32,3.34,5.06,5.09H1372c1-1.24,2.32-2.88,3.48-4.34,2,.64,3.44,1,4.86,1.61a17.5,17.5,0,0,1,4.63,2.27c1.06.87,1.55,2.43,2.46,4,4.08-4.6,7.39-8.89,8.77-14.39,6.23-.26,11-3.76,16.42-6.48.37,1.1.63,1.86.88,2.59l-3.43,1.71c.7,1.09,1.28,2,2,3.08l-2.64,5.1,1.69,3.4h3.43c-.51-3.14-1-6.14-1.43-8.87,2.57-2,6.47-1.2,6.36-5.27,4,1.22,7.45,2.45,7.47,7h8.66l2.77,3.52,12.43-4.86,2.17,5.67,5.7.29c-.24,1.67-.47,3.29-.77,5.33l5.29.27c5.64,3,8.38,8.82,13.24,12.53l1.74-1.57,3.83,2.74c3.75-2.47,7.18-.48,10.86,1.18,4,1.81,6.19,5.49,9.75,8.27-.85,5,2.08,8.38,5.84,11.57-1.1,2.33-2.19,4.65-3.47,7.39h6.78l-.57.83,2.38,1.42c1,2.2-3.53,3.32.5,5.34l3-4.39c6-1,10,3.5,15.33,5.76-.32,1.89-.62,3.64-1,5.87a14.1,14.1,0,0,0,2.53-1.41,16.24,16.24,0,0,0,1.84-2.3l6.2,3.17h11.56l10.15,10.14h6.23c4,3.53,3.12,8.5,4.86,12.51-1.88,5.17-1.88,11.18-7.79,14.43a9.65,9.65,0,0,0-5,7.75c-.24,3-2.37,3.58-5,3.37-1.74,1.73.54,4.67-1.9,6.33-.46.31-.29,1.79-.15,2.69.39,2.64,1.87,5.58,1.14,7.82a30.17,30.17,0,0,0-1.2,7.95c-2.9,2.59-3,6-2.78,9.06-1.69,3.48-3.56,6.51-4.65,9.8s-3.76,5.43-5.54,8.42c-2.89.47-5.77.81-8.58-1.5-2.92,2.9-5.63,6.16-10,6.05l-10.08,9.08c-2.3,3.89,0,10.08-.94,15.89-3.7.45-4.72,3.6-5.32,6.17a15.31,15.31,0,0,1-5.29,8.48c-.31-.9-.6-1.72-1.1-3.14-.87,1.75-1.62,3.12-2.25,4.55-1.22,2.8-2,5.83-3.64,8.37s-4.4,4-5.51,6.94c-.29.78-1.8,1.14-2.8,1.6s-2,.77-2.29.87l-4.49-.45-.23.93-6-3.95h-4.5c-.08.29-.17.57-.26.86l7.27,3.42c-.67.84-1.35,1.35-1.52,2a12.59,12.59,0,0,0,0,2.9l2.66.94v4.27c-2.55,3.25-4,7.91-9,9.2l-14.44,2.08c-1.25,3.69-1,8.33-3.42,11.94-3.75,1.08-6.52-.16-9.42-2.6v8.06l1.64,2,2-1.76,2.4,1.84-1.64,3.46-2.65-2-3.14,4.68c-.58,3-1.14,5.86-1.52,7.84-3.16,2.24-5.74,3.95-8.16,5.87-.58.46-.59,1.62-.88,2.49,1.82,3.62,5.1,5,8.64,6.36-.56,2-1.12,4.07-1.78,6.47a20.56,20.56,0,0,0-2.65,1.53c-1.28,1-3.46,2.08-3.48,3.17-.1,5.4-4.78,7.07-7.25,9.87-1.59,4.45,2.09,8.18.82,12.41l-3.23-1.83c-.39.94-.63,1.53-.94,2.26l6.17,2.63-1.72,1.9c3,3,5.88,6.13,9.06,8.92,1.24,1.09,3.17,1.4,5.35,2.31l-9.71,3.13-2.42-1.2c-.34.66-.62,1.19-.88,1.73-.2.39-.37.79-.58,1.27l-3.61-3.09-2.48,1.81L1415.3,964c-.35,1.51-.65,2.85-1.32,5.76-.43-2.72-.63-3.92-.87-5.42l-4.3-.65c.62-1.41,1.13-2.55,1.85-4.17l-2.59-3c-.28,1.89-.47,3.19-.7,4.82-1.81-1.92-5.2-1.4-5.37-5.12l8.75-2.79c-2.57-1.3-4.75-.92-7,.62-.11-.84-.2-1.48-.28-2.1l6.9-2.39,0-.78a23.24,23.24,0,0,0-4.84-.19c-1.42.24-2.73,1.13-4.35,1.85-.34-1.29-.51-1.92-.8-3l5.89-.62v-2.49l-3.87,1c-.27-.27-.92-.88-1.7-1.61l1.49-1.85-5.49-.6c-.1-.56-.52-1.35-.29-1.82a39.73,39.73,0,0,0,3.76-10.46l-1.91-.4c-.27,1.39-.51,2.68-.78,4.09l-3.16-2.14,2.25-2.9c-.88-1.7-1.84-3.59-3.08-6l5.64-2-1.54-1.73,1.83-3.72-3.85-2.21-1.35,1.22c-1.36-1.36-1.07-1.9,1.7-3,1-2-.22-6,4.77-5.21l-1.56,2.14,2.73,1.23c1.32-8.14,3.94-16.69,4.78-26.45l-4,1.24-1.94-3.61c.89-5.09,4.94-9.78,1.42-15.31-.79-1.26,2-2.53.1-4.6-1.37-1.47,1.32-3,2-4.62a123.9,123.9,0,0,0,4.88-13.53,61.49,61.49,0,0,0,2.93-22.87c-.07-.75.71-1.57,1.13-2.4-2.16-1.61-1.75-4.53-1-6.25,2-4.75,1.69-10,3.84-14.68a5.79,5.79,0,0,0,.23-2l1.75-35.78c-5.77-7-12.87-11.32-20.15-15.51-2.56-1.47-4.61-3.84-7-5.89v-5.75c-4.5-6.91-8.41-13.44-10.12-21.16-.59-2.66-2.7-5-4.14-7.46-.55-.94-1.15-1.85-1.72-2.77l-5.43-4c.59-.69,1-1.18,1.34-1.54-.55-2.9-1.08-5.75-1.63-8.63l6.56-5c-1.56-1-2.92-1.94-4.3-2.87-1.73-4,.8-7.44,1.43-11l2.16-.52c.11-1.1.23-2.21.34-3.33,3.72-.74,4.48-3.87,5.66-6.84a10.74,10.74,0,0,0,6.33-6.82c-.27-1.94-.89-3.88-.74-5.75.47-5.87-.78-10.94-5.81-14.36v-4.72h-5.12c-.16.48-.43,1.3-.71,2.11l-2.47.92,1.69,2.58-2.5,2.64c-3.09-3.37-6.34-6.56-11.35-5.61l-5.28-7.14h-5.08c-.11-2.47-.22-5-.34-7.64l-8.3-9.06c-5-1-9.55-6.24-16.76-5.94-2.12-2.24-4.32-5.07-7-7.26-2.17-1.75-4.87-3.52-7.51-3.82-2.35-.27-4.93,1.45-7.41,2.3a4.2,4.2,0,0,0-.6.3c-4.55-1.53-8.4-4.6-13.2-5.74s-7.51-6.78-13.42-5.42c-3-5-10.27-5.45-12.26-12,2.41-4,1.59-7.37-.91-11.57a59,59,0,0,0-15.73-17.2v-3.5c-3.71-4.25-7.24-8.4-10.94-12.4-.43-.46-1.79-.06-2.8-.06-.73-4.06-1.44-8-2.19-12.16-5.58-3-5.58-3-8-2.95l1.68,9.37,3.53,2.25c2.39,4.07,3.72,7.17,5.79,9.64,3.21,3.82,4.42,8.59,6.84,12.77.72,1.25.35,3.12.51,5l3.47.17c.74,1.55,1.5,3.11,2.27,4.7l-2.28,2a25.37,25.37,0,0,0-10.71-9.92,12,12,0,0,0,1.35-2.16,13.05,13.05,0,0,0,0-3l-12.33-9.06,3.66-1.62c.68-2.41-2.1-5.94-6.93-8.53-.88-3.08-1.15-6.9-3-9.68-2-3-8-5.94-8.93-9.38-.83-3.23,0-3.68-1.74-5.64-3-3.48-5.26-4.05-9.73-7.21-.66-1.41-2.25-2.37-3.42-3.54,0-.23,0-.46-.06-.69-.14-1.35.15-3-.52-4-2.88-4.31-6-8.42-9.38-13,1.73-3.75-4.05-8.07,0-12.44-1-2.41-2.29-4.77-2.74-7.29-.27-1.56,1-3.34,1.24-5.06.59-5.45,1-10.92,1.49-16.38a6.91,6.91,0,0,1,1-2c-1.09-3.63-4.76-6.67-3.76-11.57l-17.13-16c3.79-.54,6.43,1.91,10.15,2.24l-1.91-3.76h-3.32l-2.08-6.24,1.74-1.94c-2.3-1.38-4.53-2.73-7.26-4.39,0-.27-.16-1.39-.32-2.75h-3.69v-7c-.92-.7-2.31-1.35-3-2.45-.54-.79-.22-2.17-.3-3.74l-1.92,1.52-1.58-1.33c-.28.82-.54,1.6-.8,2.38l-5.15,1.5c-.35-.36-1-1-1.69-1.69,2.29-1.9,1.76-3.86-.76-6.84l6,2.19,3-3.35-5.29-2.91c.1-.37-.1.39-.43,1.61l-1.43-.84-5.36,1c-.1-3.77,3.24-4.41,4.17-6.47v-4.55l-3-.68c.77,1.39,1.18,2.13,1.86,3.38l-2.52,2.92-2.39-4.26c-.6,1.7-1.07,2.33-.94,2.79.46,1.61,1.14,3.16,1.93,5.26-1.19-.28-1.51-.39-1.84-.42-3.23-.32.17-4.59-3.26-5.31-1.23-.26-1.93-3-3.53-5.74l7.24,1.93c2.18-3.48,0-6-2-8.45l.81,5.22-3.82-1.08-3.79,1.37-11.55-8.58v-4.6l-4.18,3.48-3.8-3.07h-14.1l-1-3-2,1.76L1085,325.5l1.69-1.84c-4,.22-7.56-4.52-11.36.09.77,1.51,1.55,3,2.44,4.73l-2,1.57-1.93-1.18-11.44,7.32c-3.64-1.31,1.26-3.7-1.28-4.91.45-1.89.91-3.77,1.53-6.34l5.32-4.2h-3.83c-2.4,3-6.24,5.33-8.26,9.49-.87,1.77-3.23,2.82-5.28,4.49l3.06,3.34c-4.6,7.64-12.92,10.81-19.27,16.33-1,.85-3.1,1.61-3,2.26.25,2.73-2.28,2.4-3.24,2.74-5.36,1.88-10.48,4.33-15.79,6.31-.14.05-.38-.2-.77-.41l3.5-5.06h5.32c3.22-3.05,5.83-6.06,10-7.48,1.93-.65,3-3.76,4.6-5.9.49-2.81,1-5.84,1.62-9.2-2.1,1.17-4.29,2.14-6.24-.16l-1.63,3.26-5.16-3.86-5.11,3.45c-3.38-3.07-3.38-3.07-1.43-7.21l-1.91-3.83-5.94,2.57-7.6-7.59s.45-.8,1-1.78c-1-2.36-5.11-2.22-4.84-5.71l6.66-6.29c.38-1.09-1.19-3.88,1.88-5.33l4.55,2.33,3.21-3.86H1019l2.36-2.35c0-2.32-4-4.67-.05-6.9l-2.47-2.58-7.52,4.56c-4-.37-9.1,1.21-13.75-1.74l-2-4.83-5.84-2.65c1.25-1.06,2.24-2,3.37-2.82a8.27,8.27,0,0,1,2.4-1c4-1.17,7.16-4,11.41-5.85v4.59c1.55.08,2.89.06,4.2.24s2.51.56,4.18.95l2.86-2.67h4.48v-.75l-5.3-.59c-.18-1.2-.38-2.5-.61-4h-7.32c-1.9-2.95-3.57-5.56-5.09-7.91l-7.06-2.41V260h8.57c2.1-2,4.61-3.21,4.12-6.56l5.55-4.77,8.44-2.65,1.15,1.05c.27-1.45.51-2.75.79-4.28H1033l6.2-4.21h4.44c-.47,1.28-.87,2.37-1.8,4.88l5.34-4.38c.64,1.48,1,2.42,1.45,3.36l7.27-1.57,2.67,4.19,2.9,1.31c5.68-1.37,11.57-2.2,17.32,1.9,6.83-.63,13.74,2.53,21,1.47a4.29,4.29,0,0,1,1.92.46c2,.75,4,1.89,6.12,2.25,2.29.4,4.7.09,7.38.09,4.51,4.9,11,5.61,17.92,7.43l-1.46-3.1c.5-3.8,4.82-1.9,6.27-4.22l4.19,2.45c5.16-2.26,9.94-5.08,15.79-5.57.31.92.59,1.72.87,2.53,4.75.25,6.1-.92,7.5-7.11,1.37,1.09,2.86,1.75,3.52,2.9,1.64,2.83,2.9,5.88,4.67,9.6l6-7.75,1.9,3.68-.63.69,2,3.36,5.42-4.89h6.34l6.26,4.25c3,0,6.15-.22,9,1.83a7.35,7.35,0,0,0,3.82.95c2.81.14,5.64,0,7.8,0,2.11,1.88,3.84,3.4,5.62,5l-6.4,3.12,2.9,3.55,18.54-2c1.89-2.46,3.44,2.09,5.37.18l5.15,5.42-1.47,2.63c2.35,1.57,3.06-.62,4.3-2.08-.58-2-1.19-4.16-1.88-6.59l4.94-3.16c-2.56-.48-4.71-1-6.78.92l-1.89-1.78c.18-.33.28-.85.55-1,4.22-1.66,8-4.79,13.25-4.11.09,1.27.16,2.39.24,3.51,3.22.74,5,5.18,9,3.29l2.85,2.85H1294c.94-4.16.94-4.16,5-6.67-1.48-3.1-4.76-2.63-7.23-3.64-.7-3.63,2.35-1.69,3.85-2.64v-3.6l4.92-.42,3.4,3c1.77-.56,3.23-1,4.34-1.45a54,54,0,0,0,3.57,6.33,28.57,28.57,0,0,1-3.95,2.1c-1.84.66-3.8,1-5.69,1.56-.2.06-.25.61-.4,1l4.39.72-1.82,5.92c1.58,1.86,3.24,3.29,5.66,1.36l-1.86-6h3.67l5.05-5c-.86-1.3-2.42-2.58-2.48-3.91C1314.24,253.76,1311.51,253.9,1308.26,254ZM1185.69,407.23l2.16,4.27c-.3,1-.49,1.54-.84,2.67l2.53-.78V406c-3.17-3.69-4.91-8.75-10.67-7.73l-1-2.92-2,.3c1.53,5.89,6.79,7.6,11,10.45Z"/><path class="cls-4" d="M1492.63,248.32l-4.49-3.67c7.82-.83,7.82-.83,14.78,1.79a9.18,9.18,0,0,0-5.13-5.32c-4.54-2-4.41-2.27-6.07-7-.45.05-1-.06-1.33.18-.91.75-1.7,1.64-2.72,2.66-.73,0-1.65,0-2.56,0-.67,0-1.34-.11-2.29-.19,0-1.22-.44-3,.08-3.33,2-1.39.14-2.2-.35-3.72l3.92-4.71-3.56-1.48v-5.81l-3.33-1.89c.48-2.1.81-3.55,1.3-5.68-.68-2.39-3.63-3.89-6-5.44-1.83-1.19-3.11-1.8-3.67-4.19-.4-1.72-2.17-3.94-3.78-4.41-5.27-1.53-10.19-4.37-15.88-4.46-.77,0-1.52-.85-2.34-1.34-4.45,1-8.77,4.25-14,1.19-.32.88-.59,1.67-1.06,3-4.5-.33-8.41-2.62-12.34-4.46l1.74-3.25-10-2.66,3.49-1.38c3.15-1.46,7-.45,10.81-2.16,1.88-.84,4.72.43,7.73.82l1.12-1-3.49-4.07-9.26,2.71c-3-.08-4.74-3.26-7.25-4s-5.19-1-7.55-2.34c-.36-2.57.2-4.42,3.18-5.06,3.42-.75,6.8-1.76,10.14-2.83a13.53,13.53,0,0,0,4-2.32c4.32-1,9.11.67,12.65-1.87,1.49-2.06,2.67-3.67,4.14-5.71l-1.69-4.27h-10.57c1-1.63,1.31-2.8,2.09-3.37,4.81-3.5,10.27-5.86,15.53-8.56a6.3,6.3,0,0,1,5.79-.06c1.58.66,3.45.64,5.92,1-.53-3.07-.94-5.41-1.44-8.28l1.89-2.1,10.37,1.09c-.21-.34-.47-.77-1.16-1.87l2.87-.89c4.9-.18,10.1-2.79,16.26-4.11.79,1.41,1.7,3.07,2.62,4.72l1.1-.8v6.11l2.26.25c.15-2.67.29-5.34.46-8.28h3.68c1,1,2.24,2.38,3.57,3.81h6.25c0-.37.14-.83,0-1-1.34-1.53-2.73-3-4.37-4.8,2.51-1.9,4.89-.74,6.3-1l21.35,9.69c-.45-1.07-.56-2.27-1.17-2.64-2.63-1.57-5.47-2.78-8.07-4.37-1.07-.65-1.73-2-3.17-3.69l9-1c-1.36-1.2-2.08-1.74-2.7-2.39s-1-1.23-1.85-2.38c5.86-1.19,11.84,1.2,16.07-3.57,5.17,4.39,10.23-.53,15.42.43.16.61.33,1.24.63,2.42l3.77.37V112c.62-.38,1-.78,1.38-.81,5.7-.51,11.39-1.15,17.1-1.39s11.32-.08,17,0c2.48,0,4.9-.23,7.26,1.3,1.58,1,3.77,1.24,5.73,1.46a59,59,0,0,0,6.55.06l6.42,5.69c3.43.25,8.58-1.2,12.48,3.73l-3.69,1.67c-2-.33-5.57,1.1-9.15,2.34a13.27,13.27,0,0,1-4,.68c-4.24.08-8.54-.38-12.72.13-5.72.7-11.37,2.08-17,3.27-.58.12-1,1-1.71,1.64,3,2.07,5.74-.52,8.11-1.07a49.72,49.72,0,0,1,10.81-1.1,55.14,55.14,0,0,1,12.29.89l-9,5.48c4.49,2,7-1.54,10.07-2.67s5.76-3.22,9.38-5.33l3.76,2c-.73,6.16-6.9,8.16-9,13.62,6.64-2.35,11-6.67,15.25-11.17l2.76,2.75,1.36-1.12,9,1.69c.19-1.49.32-2.57.46-3.8,3.21-3.16,7.48-2.69,11.39-2.2,3.65.46,7.16,2,11,3.16v3.31c-8.87,4-17.85,8.08-28.58,9.31,3.65,2.12,7.16.2,11.17,1.81l-3.34.93.79,1H1644l-6.37,4c3.71.94,5.13-1.79,8.51-2,.72.37,2.88.76,4.09,2.6-.59.69-.73,1-.9,1-1.37.16-2.75.26-4.33.4-2.47,1.5-4.35,3.64-3.9,7l-6.83,3.45c.83,3.91-1.29,7.62-2.4,12l5-4.42,7.45,4.45h-7.67c2,1.6,3.38,2.69,5,4l4.75-1.67,3,6.52L1636,184.32l-2.62,3.46-3.23-1.56c-.07.77-.41,1.71-.11,2,1,.93,2.15,1.63,2.85,3l9.3,1.88c.76,2.08,1.52,4.12,2.29,6.21l-2.92,2.4h-5.78v4.24l8.07,3.62-2,2.22h-10.45l7.4,6.25-2.62,1.14.52.7H1626.6l-6.47-3.37c.41,1.46.57,2,.89,3.19l-4.34,3.12,2.17,2.47,9.87-2.85c3.33,4,3.33,4,.15,7.67l-7.69-2c3,5.49,8.32,7.2,11.52,11l-1.52,1.8,1.78,3.56-2.12,2.28h-6.33l-6.87-6.86h-2.75c.38,1.64.74,3.23,1.08,4.71l-5.13,3.27,19.55,2.42c-1.49.95-2.52,1.63-3.58,2.28-4,2.4-7.83,4.95-11.9,7.14a26.25,26.25,0,0,1-7.36,2.69c-5,1-9.88,2.8-15.08,3-.66,0-1.29,1.09-1.89,1.63l-3.84-2.14c-.33,1.45-.59,2.61-1,4.31a17.92,17.92,0,0,0-7.32,8.29c-1.65,3.45-5.26,5.92-9.93,6.4-2.84.29-5.71,1-8.6,1.4-2.44.35-4.66,2.19-7.68,3.72,0,.36-.25,1.65-.5,3.34l-4.56-1.62,3.22,5.35-2.46,1.15c.6,5-2,8.27-3.55,11.9h-2.79c-2.53,3,.36,5.51.8,8.78l-3,3.39v5.57l-3.68,3.47c-4.78.81-8-2.09-10.63-5.06L1515.7,323c-3-3.81-7.23-7.31-9.47-12.36a3.52,3.52,0,0,1-.18-1.49c0-.17.31-.34.39-.41l-8-11.86v-6.58l-7.69-7.68,3.64-4.66-4.83-3.58,6.24-11.86h6.39c.74-3.21,1.44-6.22,2.15-9.33-3.34-2.12-6.52-3.6-10.27-3.5Z"/><path class="cls-4" d="M756.63,753.36c5.24.22,4.19-5.55,7.44-8.16,0-4.5,0-9.38,0-14.26,0-.33.62-.66.94-1l-1.59-1.71c1.28-3,2.58-6.13,4.37-10.4l4.31,10.48v7.79l5.15.29c.69,1,1.62,2.37,3.38,5,.05,2.22-.78,6.52,2.82,9.79-.15,2.86-.46,6,1.48,8.41a18.68,18.68,0,0,0,5.87,4.49c3,1.53,5.22,2.92,5.65,6.87.19,1.7,3.2,3.16,2.53,5.71l5.6,2v5.06l6,5.14c.3.87,1.08,3.14,1.85,5.4h2.86c.16.33.51.89.43,1-2.2,1.92-1.36,4.56-1,6.61,1.6,9,1.29,8.86.09,17.26-.55,3.87-1.92,7.25-2.83,10.87-.51,2-1.83,2.06-2.72,3.07s-1,2.86-1.77,4.16c-1.46,2.52-3,4.86-2.93,8,0,1.07-1.45,2.2-2.65,3.87-.48,3.27,1,7.59-2.08,11.46h-4.59l-11,5.77-6.11-5.19-4.19,4.19L757,859.1l-2-4.27,1.68-2.38-3.17-5.55-4.05-.48v-6.3l-6,4.7,4.62-11.6-2-1.06c-.9,1.83-1.72,3.53-2.38,4.88l-6.43,5.19-1.94-1.94v-4.22c-1.35-.78-2.68-1.56-4.1-2.4-.1-1.69-.19-3.27-.28-4.83-3.63-2.17-8.66-.68-11.83-4.81-5.5-.29-10.69,1.36-16.14,4.19h-7.89c-3,2.78-7.76,3.48-9.75,8a22.52,22.52,0,0,1-4,1.31c-1.71.28-3.91.81-5.16,0-2.9-1.81-5.19-.67-7.57.6-3.11,1.66-6.12,3.51-9.76,5.61H652.5l-6-6.3,1.85-1a64.55,64.55,0,0,1,1.49-6.8c.82-2.27.58-4-.52-6.34-1.83-3.95-3.95-8.1-3.23-11.64-2.69-5.66-4.95-10.38-7.36-15.45l5.11-1-5.1-8.32c1.16-2.39,2.2-4.55,3.17-6.57-.59-1.74-1.14-3.38-1.72-5.08a24.64,24.64,0,0,0,12.36-7.78c3,0,6.34.48,8.9-1.83,2.83-2.56,6.18-2.5,9.52-2.38l7.83-7.83v-5.76L682,746.8c.64,1.55,1,2.47,1.45,3.53h2.44c-.3-1.81-.58-3.42-.88-5.24h2.5c1.55-3,2.92-5.74,4.35-8.56l3.48-.4.49-2,3.64-1.89c1.3,2.79,5.46,3,6.6,6.84l1.81-1.38,4.83,1.79c-.77-1.86-1.23-3-1.81-4.37,2.15-2.95,4.25-5.85,6.28-8.65h4.85l2.8-4.41,12.39,4.37,1.61-1.34c.43.38.92.79,1.43,1.23l1.46-1.32,2,2c-1.7,1.84-1.61,5.39-5.73,5.23l1.49,2c-.47,1.61-1,3.45-1.6,5.44L749.15,749C752.85,748,753.62,752.4,756.63,753.36Z"/><path class="cls-4" d="M1305,150.55l4.07,1.73,2.14-2c-.19-.32-.43-.92-.56-.89-2.39.38-4-.62-5.31-3.06l2.41-2.55,4.9-.22-1.54-3.77,4.41-.64c-.56-1.08-1-2-1.55-3,3.14-2.54,5.9-.15,7.21,1.29,3.84,4.25,8.67,6.22,13.5,7.72,1,1.55,1.79,2.86,2.57,4.11l7.46-1.81-2.07,2.55,2.76,2.89v4.55h6.2L1347,154c-.33-1.87-.62-4.16,2.47-6.37l10.64,1.45c3,2.89,5.72,6.5,11.53,5.58l-8.35-6.15,2.9-1-.62-.86h8.76l6.67-4.95-2.29-2.29-1,2.18a26.3,26.3,0,0,1-12.81,3.6c-4.75.09-9.48,1.08-14.43,1.7l-2.77-4.36-9,1.46-7.2-4.9L1333,136l-3.07-1.38,1.24-1.47c-.28-.24-.66-.78-.87-.73-1.84.5-3.66,1.11-5.75,1.77-.19-1.3-.28-1.94-.39-2.7,3.12-.66,6.14-1.36,9.19-1.87.42-.07,1,.85,2,1.73l4.26-5.17,6.93,3.18c.64-1,1.49-2.25,2.59-3.91l3-.29c.29-.77.58-1.58.88-2.4,3.74-1.45,5.93,2.74,10.06,2.54l2.84-2.63h6.08c.26-1.5.48-2.8.71-4.16l3.58,1.36c.21-1,.34-1.7.49-2.43.27-.16.67-.62,1-.58,1.55.18,3.07.61,4.62.74,2.21.18,4.64.78,6.62.12,4.8-1.59,9.51-.89,14.27-.39.36,0,.67.55.8.66l6.22-4.19,5.35,2.83c3-2.53,6-.72,9.36,0s7,.17,10.55.17c-.42,1.66-.42,1.66-1.22,2.53,2.91-.4,5.46-1.13,8-1s4.73,1.09,7.22,1.73c0,2.11,2.38,2.65,4,3.34,1.32.56,3.18-.12,5.17-.29l1.17,1.16c-.1.29-.1.79-.32.91-4.21,2.36-8.44,4.67-13.19,7.27h-13.08c.11,1.09.2,1.9.36,3.46,3.61-3,7.23-1.85,10.77-2.2.45,2.9-.94,3.9-2.87,4.3-6.64,1.38-12.22,4.8-17.67,8.63-2.48,1.75-5.33,3-8.54,4.72l-2.31,3.83-7.6-1.3c-1,1.43-2.42,3.4-4,5.54h-11.92v2.41h8.84l2.41,2.42c-.62,4.05-3.76,6.44-6.47,9.14h-8.47l-2,2,1.42,2c-.26.65-.32,1.29-.61,1.43-4.71,2.22-9.49,2.35-14.8.66l-1.45,1.7c.71,2.27,2.77,2.54,6.85.58,3.23,2.15,6.85,3.84,11.06,2.74.56,3-.86,3.82-2.74,4.5-3.07,1.1-6.09,2.38-9.55,3.75l-5.72-3.78h-10.86c-.35.93-.86,2.33-1.39,3.78l-9.74-3.77h-11.83c-.11-1.24-.22-2.51-.32-3.68,3.9-1.7,8.35-.92,11.43-4l-4.93-3.15,2.64-3.32h4.49c1.62,2.09,3.53,4.53,5.36,6.88h3.51c0-.84.27-1.71,0-2.08-1.87-2.23-4.9-3.73-4-8l-6.06,1.57-3.83-2c0-1.94,1.25-3.14,5.45-5.64,6.45-2.49,11.34,2.21,17.06,1.76-4.74-2.08-8.6-5-11-10.31l-3.31,4.94-5,.24c-1.33,4-6.7,4.76-7.17,8.74-2.33,2.94-4-1-6.41.56-1.7,1.1-4.5.48-7.06.65l-10.92-8.24,8.71-4.37H1309.3c-1.82-2.71-3.54-5.28-5.27-7.84C1304.37,151.28,1304.7,150.92,1305,150.55Z"/><path class="cls-4" d="M1402.59,263.88H1400l-2.73-4.29-5.9,1.74-.59-1.08,4.78-3.64a69.11,69.11,0,0,1-7.08-4.28,57.34,57.34,0,0,1-5.25-5.17h-4.88l4.23,2.83c-1.5,1.7-5,1.44-9.32-.26a3.63,3.63,0,0,0-1.4,0c-2,.88-3.88,2.36-5.94,2.65-1.82.25-3.83-.77-5.75-1.27a42.39,42.39,0,0,0-5.08-1.36,51,51,0,0,0-6-.05l-3.51-3.17-2.69,1.85-7.33-3.51v-3c2.22-1.3,4.41-.74,6.55.58l1.92-2-10.67-2c-1.56-11.32-1.63-11.41,8.11-20.78,4.08-1,8.06-3,13.19-1-3.74,2.63-6.31,5.67-7.19,9.5.36,2.4.72,4.77,1.21,8.06l6.24,4.39c1.25-4.19-3-3.55-4.06-6.14l3-3.24c-1.41-1.52-3.48-2.65-2.59-5.84,4.37-4.91,10.94-6.13,17.49-8,2.57,5,7.76,9,3,15.54,3.37,1,4.85-1.59,7.15-2.15.62.62,1.46,1.45,2.63,2.63l3-4.22h9.94l4.66,5.42c2.43.53,2.43.53,6.63,6.07,2.62-2,5.68-1.8,8.82-1.57.73,3.65-2.3,3.59-3.94,4.78,2.35,2.82,4.34-1.11,6.68-.59l.56,2.66h6.08l2.46,2.7L1425,249c.12.15.36.68.61.68,2.31.07,4.79-.48,6.07,2.23l-3.74,4,6.3,1.62-6.59,1v3.54a46.67,46.67,0,0,0,16.88,6.41q2.46,3,6.45,7.94h5.48l2,2a47.56,47.56,0,0,0-4.88,4c-1.53,1.62-2.5,4.83-4.09,5.1-3,.5-1.82,4.17-4.55,4.31-1.9-2.6-5.37-4.17-6.31-7.74l-7.53-3.62-2,2.52c2.29,1.77-1.45,3.44-.15,5.24a12.81,12.81,0,0,0,9.53,5.56c1.61,2.87,1.78,6.31,4.38,8.87,1.28,1.27.09,3.49-1.78,4.83h-5.55l-9.77-5.85c-.56.56-.79.7-.88.91s.09.36.21.48c3.66,3.67,7.32,7.33,10.69,10.69v3.7c-4.16-.21-7.43-2.27-10.33-4.36s-5.69-4.36-9.7-4.11c-.88.05-1.84-1-3.59-2.08l-1.61-4.58c-2.29-2.59-3.54-4.67-5.36-5.88-2-1.32-4.39-2.42-7.09-1.13-.13.57-.27,1.22-.48,2.15h-13.8v-4.8l3.62-3.62,9.42,1.48,5-2.85c-.5-2.74-1-5.26-1.43-7.89l7-2.38v-8.93Z"/><path class="cls-4" d="M1218,221.44l7.77-1.54c.82,1.19,1.76,2.56,2.79,4l-3.61,4.28h3.68l2.4-5.58c4.18.71,7.66,1.43,8.75,5.7h4.66c1.55-2.77-.94-2.42-2.39-3.25.12-.69.26-1.49.46-2.6,6.19,2.27,10,5.82,9.53,12.81h3.43c.59-3,.59-3-1.89-7.24V222l1.37-1.37,6.49,1c.1-.26.2-.52.31-.79l-4.06-2.8,9.48-2.93,2.22,5.24-3.08,3v9l2.71,1.12v7.18c4.69,4.76,12.64,4.37,15.86,11.09l-10.3,2.53.09,1h6.86v3.84c-4.07,3.06-8.81,1.65-12.49,1.94l-9.83-5.44-3.23,4.2c-4.15-.55-7.39.11-10.29,2.51-2.17.85-5.06-1.05-7,1.44-2.07-2.13-4.75-.89-7.58-1.47-1.14-1.4-2.55-3.13-4.32-5.32H1219l-7-4.86a13.87,13.87,0,0,1,9.81-3.79c4.69.06,9.38,0,14.17,0,.24-1.54-1.1-1.88-1.68-2.83-5.8,0-11.67,0-17.55,0-3,0-3,0-7.27-2.46.15-3.76,3.59-2.72,6.79-4.18l-5.79-.57-5.29-3.66c-.19-2.49,3.14-3,3.13-5.86,0-1.48,2.58-3,4-4.48A6.49,6.49,0,0,0,1218,221.44Z"/><path class="cls-4" d="M717.14,672l5.17-3.54H729l3,3c.82,4.1,1.5,7.59,2.3,11.6,2.36-1.3,4.47-1.38,5.78-4.14.91-1.92,3.87-2.88,6.68-4.79,1.3-.25,3.25.25,5.47,1.28,4.92,2.28,10.18,3.85,15.27,5.79A43.24,43.24,0,0,1,781,689.37a13.29,13.29,0,0,1,1.68,2.81c2.71,1.77,7.25,2.25,9.93,6.25l-3.42,1.7c0,.25-.17.58-.07.68,2.7,2.75,2.33,7.71,6,9.45s5.39,4.71,7.92,7.8l-12.17-1.93c-1.09-2-3.42-3.37-4.88-5.94a10.13,10.13,0,0,0-11.08-5c-2.3,2.69-4.2,4.94-6.23,7.32l-7.32-1.94-2.25-3.91H747.05c.71-3.09,3.07-4.15,5.48-4.89-1.3-3.06-2.4-5.67-3.89-9.19l-20-8.11-2.4,1.39-3.44-5.4,4-2.9-4.28-.73Z"/><path class="cls-4" d="M659.12,644.86l1.39,2.43L659,649.37c1.07,1.51,2.77,2.5,2.94,5,.11,1.66,2.42,3.19,4.1,5.19l-7,3.31V669l-4.32,4.32v7l-7.48,4.39-2.44-3.32c-3.72-.26-6.73-.34-9.7-.73a11.51,11.51,0,0,1-4.29-1.5,18.81,18.81,0,0,1-3.05-2.95v-4.27l-4.11-4v-4.19l-3.29-3.65c1.2-2,2.31-3.93,3.64-6.17l7.72,3.66c.17-2.7.31-4.93.46-7.38h7.39l3.76-8.72h6.51c1.43-2.75,2.72-5.25,4.25-8.22h4.33a12.59,12.59,0,0,1,1.73,1.8,5.87,5.87,0,0,1,.42,2.07l4.87.24-.82.89,2.81,1.19C667.33,641.24,662.11,644.19,659.12,644.86Z"/><path class="cls-4" d="M352.87,789.52l-5.56,1.79a11.4,11.4,0,0,1-8.28-8.79c-2.33-10.57-2.17-11.35,2.44-16.84,1.62-4.16-1.18-8-1-11.95.19-3.78.95-7.54,1.48-11.41,5.68-.69,10.23-3.86,15.29-6.18.09-1.73.18-3.32.28-5.19,5.43.59,2.81-6.64,7-7.54,2.72,4.28,4.17,10.72,4.09,18.77l-2.48-1.76c-.58,4-1,8-1.73,11.84-1,5.4-3.27,10.46-4.22,15.87-2.88,1.68-.44,5.14-2.65,7.45-1.42,1.49-.9,4.68-1.65,7A68.49,68.49,0,0,1,352.87,789.52Z"/><path class="cls-4" d="M405.74,194.18l1.43,1.31c4.83-1.73,9.61-3.54,14.47-5.1a10,10,0,0,1,4.21,0,1.77,1.77,0,0,1,1,.78l12.6-3c2-3.43,6.85-3,10.73-4.52l3.32,1.63v3.35c-4.57,3.5-10,4.51-15.3,6-8.18,2.27-16.12,4.91-22.16,11.37h-7.52c.43,3.35-1.17,5.48-4.42,6.34-.19,2.94-3,4.25-4.14,6.75s-3.5,4.68-5.56,7.28v5.91c1.3,1.53,2.44,3.53,4.15,4.72a29.41,29.41,0,0,1,5,4.78c-6.11,2.8-10.9-1.57-16.3-.27l-2.35-6.12L381,237.25a13.94,13.94,0,0,0-1.84-3.19,17.26,17.26,0,0,0-3.44-2.14c.48-2.81,2.35-3.61,5.3-3.38l2.85-7.37,6-5.42v-5.5l3.69-.16,2.74-5.47,2-.5c.11-.42.26-.68.19-.84-.51-1.19-1.08-2.37-1.89-4.11l5.53-.55C403.1,197.39,404.43,195.78,405.74,194.18Z"/><path class="cls-4" d="M137.4,374.45c.67-2.25,1.1-3.71,1.63-5.52l-2.45-2.57V363.5l-7.73,1.11a23.71,23.71,0,0,0,1.82-3.63,26.64,26.64,0,0,0,.37-4l-2.82,1.95-3-2.32,1.21-1.21c-.83-1.85-2.31-3.84.08-5.72l-3-4.14.62-.84,2.38,1.14,4.08-8.36,5.14.91c.12-.23.75-1.4,2-3.71.13,4.88-1.8,7.15-3.45,10l7.31-1.87,2.14,2.92c.33,3.41-2.29,5.78-4.79,8.71l7.42,5v4.28l4.33,2.93,3.13,10.07c2.23.83,5-.74,6.69,2.63l-5.19,7,2.84,1.33-5.37,3.43h-14.1c-.73.82-1.51,1.69-2.14,2.38l-8.19,1.77c0-1.64,1.66-2,2.23-3.06s1.19-2.34,2-3.9h5.34l.28-.86-2.38-1.22.43-.61-8-.38,5.61-4.67c-.63-2-1.19-3.87-1.88-6.15Z"/><path class="cls-4" d="M206.3,158.05l-4.09-.46-1.7-3.56c3.66-4.13,8.56-3.42,13.71-3.19l-1.6,3.51,3.09,1.15c.39-1.21-.09-4.2,3.37-4.85,1.26,2.76,2.58,5.65,4.13,9.07,1-3.62,1-3.62-1.41-8,.5-1.13,1-2.25,1.58-3.53l7.92,2.94-1.93,4,3.73-1.71c1.93,4.83,6.41,5.21,10.81,6.14,1.05,1.54,1.88,4.19,3.38,4.64,2.44.74,2.2,3.39,3.88,4,2,.76,2.86,2.28,3.88,3.79l4.57-1.78c0,1.3.26,2.14-.05,2.53-1.46,1.83-3.07,3.52-4.2,4.78h-3.5l-2.17-2.18-5.72,1c.75-2.52,1.3-4.35,1.94-6.53l-5.14-4.08,3.56-1.7c-5.28-.5-7.13.7-8.71,4.84-.86,2.26-1.79,4.52-3.78,6.22-2.63,2.24-4.74,4.84-4.75,8.65,0,.69-1.13,1.39-2,2.35-1.45-1.66-3.56-2.67-3.82-5.42-3.15,0-5.49-1.52-7.27-5,3.51-1.13,6.49-3.12,10.46-2.52-3.92-3.24-7.77,1.39-12.35-.82,4.31-3.83,9.84-3.63,13.54-6.86l-2-2c-1,.91-2,1.83-3.22,3-.25-1.62-.44-2.92-.75-4.93-1.65,2.11-3.81,3-4,5.75-4,1-7.52.34-11-3C204.76,162.57,203.72,160.31,206.3,158.05Z"/><path class="cls-4" d="M1218,221.44a6.49,6.49,0,0,1-5.66,2.83c-2.4-.6-4.27,1.09-5.35,1.35l-6.51,6.53c-1.57,1.45.28,4.33-3.34,6.12-3-.79-5.85,1.54-9.4,3.14l-5.52-7.22h-3.54l-4-2.45,5.11-5.46c-.47-3.95,1.23-7,4.36-9.88l-5.75-4.45c5.82-1.27,10.31-2.31,14.82-3.21,1.62-.32,2.93.33,4.43,1.27,2.86,1.81,6.15,2,10.87,1.49a12.64,12.64,0,0,1,7.71,1.89,41.65,41.65,0,0,1,4.8,3.62Z"/><path class="cls-4" d="M584.63,654.07c8.73.34,11.21,6.64,15.14,11.49l-1.64,2.33c3.4,2.92,6.12,6.81,11,8.69l-3-4.06c4.81.53,4.85,4,6.31,6.59l-3.11,1.13v12h-7.06c-3.08-2.71-6.06-5-8.59-7.65s-4.52-5.7-7.16-9.09a18.94,18.94,0,0,0-6.82-11.75c-2.17-1.82-1.07-4.75-2.92-6.62-.68-.69-.38-2.54-1.08-3-3.26-2.08-4.9-5.65-7.83-8-2.66-2.15-3.38-5.55-6.11-7.69l1.19-1.2a20.83,20.83,0,0,0,4.67,1.41c1.66.12,3.12.21,4.38,1.47.41.41,1.62.3,1.76.69C576,646.61,584.05,647,584.63,654.07Z"/><path class="cls-4" d="M1378.22,199.8c-.47,2-1,4.41-1.59,6.87-3.47,1.54-6.42,3.18-10.72.94-3.68-1.91-7.7,1-12.23,2.18-3.67-2.34-8.66-.47-13.37-1.23-.83-.84-1.67-1.67-2.8-2.8l-1.46,3h-4.42l-9-4.58c.26-2.06.53-4.15.91-7.13l-4.91-6.13c-2.43.34-4.92,1.49-6.14.69-3.14-2.05-7.34-2.52-10.54-6.53,2.92-.16,4.9-.3,6.89-.35s3.77,0,5,0l7.88,4c5.36-3.2,9.26,1.27,14,2q-2,2.13-3.16,3.44c.16.81.16,1.2.25,1.22,1.08.29,2.17.53,3.59.85l3,2.86,4.71-1.48c5.55,3.65,11-1.21,17.76-.94C1366.06,199.45,1372.82,195.12,1378.22,199.8Z"/><path class="cls-4" d="M1628.79,280.81l5.35,3.11v5.4l4-1.87c.19-1.15.4-2.45.69-4.24l3.33,1.77,1-2.87,3.86,1.6,2-1.12,2.33,1.31,4.87-4.36,2.56,2.56,3.61.4c.06,1.14.11,2.25.14,2.9l6.34,5.09c-4,4-6.71,8.39-12.78,9-2.38.23-4.59,2.47-6.85,3.82-3.59,2.16-7.09,2.2-10.59-.25-1.26-.87-2.66-1.53-4-2.3l-5.71,1.72c-.23-1.21-.36-1.86-.53-2.76l3.33-.62-4.79-4.77-3.49.87-.82-1.07,2.8-.29-1-1.55h5.4v-4.55l-6.29,1.55-1.51-1.5-.5-.5C1623.9,285.21,1624.72,281.4,1628.79,280.81Z"/><path class="cls-4" d="M1258.46,196.23l1.31-4.36c2.14,2.68,3.09,3.88,4.8,6v3.36l-4.15,2.61c-3,1.47-6.85-.83-10.24,1.73-3.64-3.15-6.46.23-8.59,1.88-4.82,3.74-9.88,2.24-15.93,2.85l2.2-3.69,8.62-2.48-.17-1.92c-.4-.2-.94-.66-1.16-.54-2.24,1.23-4.49,2-7,1l-.36-1.39-3.73,3.73-10.32-2.33c.61-2.17,1.2-4.21,1.84-6.47l3.85-.57c-.63-.95-1.1-1.64-1.86-2.76a30.68,30.68,0,0,0,3.25-1.93,29.13,29.13,0,0,0,2.75-2.69l3.5,3.25h6.08l8.29,7h6.07l.41-.68-3.47-1.47c1.1-2,1.62-2.88,2.27-4l-3.61-1.23,6.85-5.34C1252.48,189.54,1253,194.42,1258.46,196.23Z"/><path class="cls-4" d="M726,492.84h-6.11c0-.82-.27-1.79,0-2,2.47-2,5.06-3.81,8.19-6.12,3.5,1.61,7.69-2.71,12.6-.54.77-1.17,2.3-2.66,2.82-4.45.57-2,.22-4.18,3-5.11l3.23,1.61,6.57-6.89c.68-4.39,5-8.47,3.29-12.26l4.06-5.85c3.74,4.52,3.91,9.36,4.32,14.2l-4,3.67c-.75,5.68-1.46,11-2.18,16.47a38.31,38.31,0,0,1-14.16,4.6c-.48.07-1.08-.73-1.57-1.08L742,494.4h-3.68c-.08-1.77-.16-3.52-.24-5.4a8,8,0,0,0-2.22-.19c-2.59.56-5.16,1.23-8.87,2.14Z"/><path class="cls-4" d="M895.64,898.23c-1.5,3.51-2.86,7.2-4.64,10.68-2.18,4.28-5.63,5.19-10.16,3.24-2.19-.95-4.47-1.7-6.73-2.55-.43-2.94,1.17-5.13,2.92-7.19a43.58,43.58,0,0,1,11.08-9.06,14.89,14.89,0,0,0,6.3-6.82c1.16-2.59,3-4.89,4.65-7.62l4.38,1.25,2.32-1.59c.7,1.15,1.29,2.13,1.88,3.12l-.95,1.09,1.41,1.41c-4.07,1.89-4.2,6.42-6.55,9.63C899.92,896.05,898.05,896.63,895.64,898.23Z"/><path class="cls-4" d="M1295.15,215.86l-2.38-2.59H1298l4.84,3.45-5.56,4.45v2.76h5.25c.29-.79.58-1.6.93-2.58l2.06,2c-.52,2.81-1,5.61-1.75,9.47-2.1,3-6.89,3.46-10.18,5.8l-8.76-9.45-.91.86h-2.18l-5-4,3.16-3.55,4.22,3.33c4.12-1,4.12-1,4.4-5.45h-5.18c-.13-1.28-.24-2.37-.34-3.34.84-1.78,4.57-2.68,7.07-2C1291.51,215.37,1293,215.49,1295.15,215.86Z"/><path class="cls-4" d="M1480.64,388.4c.62.61,1.29,1.28,2,2-2.22,2.66-4.79,5.21-3.87,9.61l2-1.82,3.94,5.92,4.83-1.15,1.46,1.46-1.5,3,2.25.92c1.22,2.32,2.43,4.64,3.92,7.46l-4.14,3-4.06-3.6-5.59,1.82,2.63-2.94c-1.58-.6-3.43-2-4.31-1.53-4,2.11-8.14.88-12.36,1.35l-2-2.5,2.76-1.29v-4l4-2.42C1472.61,397.39,1475.8,392.65,1480.64,388.4Z"/><path class="cls-4" d="M763.25,195.67l2.48-2.47,11.78,1.57,5,3.62c-1.37,2.31-2.5,4.2-3.86,6.48l-6.3-2.05c-.14-1.3-.27-2.41-.41-3.72l-2.17-.44c.37,1.89.7,3.64,1,5.4-4,.58-7.44,1.15-10.94,1.54-.46.05-1-.8-1.23-1l-6.8,1.6-5.15-5.91c.46-3.52,3.71-5.84,6.07-8.31C757.3,190.57,759.54,194.25,763.25,195.67Z"/><path class="cls-4" d="M236.33,146.27l5.09-2.86c2.26,2.68,5.74,3.39,10,4.94L250,145.54l3.08-2.66c.65,1.51,1,2.44,1.44,3.37.44.07,1.11.37,1.28.19,1.44-1.51,3.57-2.06,5-1.26,3.21,1.76,6.62,1.08,10.07,1.34.07,1.24.13,2.14.18,3-1.74,1.4-3.52,2.68-5.1,4.17-2.07,1.93-4.75,2.15-7.2,3.09s-4.32.51-6.84-.06c-3.86-.88-8-.6-11.82-2.25,1.09-3.65,4.67-1.65,6.82-3.59-2.44-.06-5.3-.95-7.22,0-2.67,1.36-4.35-1.14-6.4-.29l-2.11-4.82C233.18,144.58,234.86,144.71,236.33,146.27Z"/><path class="cls-4" d="M114.08,363.46l2.21-2.2,3,1.62,4.84-1.73,3.64,5.52-3.38,2.45c.4,4.06.77,7.83,1.18,12-2.72.53-5.31-.31-7.31,2.06-2.37,2.82-6,2.71-9.34,2.23l-2.33-2.19,5.05-8.1-3.22-1.41v-6.73l3.71,1.11,3.56-1.75Z"/><path class="cls-4" d="M915.3,883.29h-4.17a6.44,6.44,0,0,1-.23-2c.53-2.35,1.18-4.66,1.67-6.53l-5.78-4.25v-3.7l2.09-.46c.58-2.31,1.16-4.63,1.93-7.73l-9.5-14.88c2.11.48,3.23.42,3.92.93,3.86,2.87,5.37,7,5.84,12.18l3.55-1.27a13.87,13.87,0,0,0,1.09,3.62,18.83,18.83,0,0,0,3.06,3.17l8.84-2a38.42,38.42,0,0,1-1.2,3.83,11.62,11.62,0,0,1-1.94,3.4c-.89.9-2.52,1.14-3.28,2.1-.91,1.15-1.24,2.75-1.83,4.15C918,877.05,916.61,880.25,915.3,883.29Z"/><path class="cls-4" d="M1281.79,195.56c-.21-.76-.38-1.53-.66-2.27s-.68-1.5-1-2.17c3.84-2.82,5.25,2,9.54,2.91-2.54-3.18-4-5.07-6-7.48,4.65-1.35,7.62,5.4,11.49,1l4.74,4.74v9l-3.48,2.27.53.94a21.84,21.84,0,0,0-4,.06c-1,.2-1.94.95-3.43,1.74l-2.11-3.76,1.59-5.13c-3.12.52-6,1.58-8.59,1.25-2.45-.3-4.91-1.83-7-3.31a10.85,10.85,0,0,1-4.57-7.53h5.52c2,2.44,4.25,5.34,6.55,8.23Z"/><path class="cls-4" d="M680.39,686l-3.95,2c-2.78-2.35-3.53-5.77-3.56-9.53l-2.67-.17c.41,3.91-1.1,7.78,1.75,11.79l-3.48,2.72c-2.24-3-.69-5.41.62-8.07-1.15-.77-2.23-1.48-3.29-2.22s-1.81-1.35-2.87-2.14c.6-6.82,8.12-10.89,7.21-18.75,3.32.27,6.22-3.24,9.42-1.34,2.12,1.26,4,.86,6,.94,1.38.05,2.79-.61,4.19-.95.11.42.21.85.42,1.68-3,1.41-5.87,4.15-9.22,1l-9,1.65v6.6l10.89-2.9c-1.13,4.06-1.13,4.06-5.42,6.37Z"/><path class="cls-4" d="M1373.45,303.32h-7.67l-2.59-2.59h-4.47c-.85,3.93-4,5.24-8.06,5.7-.89-1.36-1.81-2.78-2.52-3.85l-5.31.85,3.81-5c.31-7.33.87-8.84,4.8-13,1.3,1.3,2.42,2.87,3.93,3.83,2,1.27,4.58,1.72,6.42,3.16s5,1.29,5.14,4.81c0,.84,1.49,2.05,3.25,2.17C1371.07,299.47,1371.83,301.3,1373.45,303.32Z"/><path class="cls-4" d="M767.74,407c.66-1.41,1.58-2.44,1.5-3.37-.49-5.45.44-10.83-1-16.44-1.27-4.94-1.84-11.07,3.36-15.9.26,1.4.48,2.52.73,3.85.66.65,1.49,1.48,2.76,2.76-.22,1.35-.14,3.24-.87,4.74a4.81,4.81,0,0,0,0,4.4c1.9,5.11,3.41,10.36,5,15.58a11.56,11.56,0,0,1,0,2.92l-6.14-1.88c-2.64,6.9-4,13.29,3.91,18.07-3.16,0-3.16,0-6.06-2.58-.71,1.1-1.44,2.22-2.26,3.5C765.75,417.21,772.23,412,767.74,407Z"/><path class="cls-4" d="M683.73,599.5l-10.39-2.22c-.13-1.27-.31-3-.48-4.75l-2.45-2.44v-4.8l2.58-.58v-9.5h6.74c.73,2.78,1.45,5.54,2.25,8.62l-4.91,4.91c.71,2.53,1.37,4.84,2.1,7.42h6.37c2,4.89,7.26,6.9,9.55,11.54a19.51,19.51,0,0,1,.83,2.48c-1.32,2-2.53,3.79-4.06,6.07-.83-2.8-1.61-5.41-2.4-8.09l-4.16-3,1.85-2.68C686.05,601.54,684.84,600.47,683.73,599.5Z"/><path class="cls-4" d="M566.9,149.3h6.67c.71.88,1.59,1.95,2.68,3.27l3.14-2,4.52,2.22L582,163.29c-1.11,1.29-2.53,2.22-5.35.91-3.12-1.45-6.79-1.73-10.64-2.62l-6.26-5c-.67-2.25,4.24-2.73,2.93-5.82,1.14.34,2.14-2.61,3.38-.16Z"/><path class="cls-4" d="M770,445h-7.52l1.4,3.41-4.08,2c-1.15-3.56-.12-6.66,1.7-9.67h3.19l3.25-10.48-1.47-1.68,2.3-1.78c2.92,2.12,4.41,6.15,9.37,8.24l9.67-1.21c-1.64,2.91-5.54,4.14-4.31,8.24h-6.57l-3.88,5.8Z"/><path class="cls-4" d="M1212.84,181.91l3.7-3.32,5.18,2.37-4.07,2.39,1.43,1.7c-.37,4-4.73,4.25-6.83,8-1.18-2.93-1.93-4.8-2.72-6.78-3.82,1.14-2.52,4.06-3,6.56a13.14,13.14,0,0,0-3.74.8c-1.15.62-2,1.82-3.54,3.34l-1.41-3.41-7.59,1.95-1.73-3c.66-.72,1.21-1.91,1.94-2,5.36-.9,8.92-4.8,13.11-7.63S1208.13,179.9,1212.84,181.91Z"/><path class="cls-4" d="M642.12,698.64l-5.42,3.45h5.65l7.5,3.81c-5.93,1.26-14.27,1-19.61-.72a12.06,12.06,0,0,1-3-1.26c-5-3.34-5-3.36-10.71-1.37L608,697.33c-.26-3.69,3.65-2.9,5-4.76.53.43,1.09,1.28,1.59,1.24,2.72-.21,4.65.72,6.83,2.52,1.63,1.36,4.57,3.72,6.94.59l6.61,2.59C636.79,698.59,639.22,697.23,642.12,698.64Z"/><path class="cls-4" d="M1290,166.65l.39,3.32,2.5,2.5c-1,2.95-3.56,2.22-5.67,2.28l-6.46-4.39h-13c0-.87-.08-1.5-.14-2.64h5.23c1.36-3.91-2.68-2.42-3.19-4l-2.82,1.84-2.54-5.22c4.75-3.45,8.78-3.27,12.55.39.34.32.71,1,1,1C1282.81,161.08,1285.62,165.62,1290,166.65Z"/><path class="cls-4" d="M596.74,162.67l4.3-2.13,7,5c-.57,4.73-4.93,4.09-7.39,4.7-3.62.89-7.31,2.42-11.38,1.83-2-.29-4.16.94-6.75,1.61-.53-6.83,5.91-9.27,7.45-14.21l8.42-2.07C597.75,159.49,597.36,160.71,596.74,162.67Z"/><path class="cls-4" d="M566.9,149.3l-.86,1.26c-1.24-2.45-2.24.5-3.38.16h-1.87l-2.68,4.06h-5l-2.41-3.9,4.52-.32a6.07,6.07,0,0,0-2.69-3.29l4.24-3.08c.48-1.83.26-5.1,4.76-5,1.88.05,3.81-1.89,5.75-2.95,1.55,3.12,3.3,5.61,6.21,6.43l-1.37,4.9C570.59,148.8,567.86,146.3,566.9,149.3Z"/><path class="cls-4" d="M1377.92,558.72l-10.81-2.19c-.35-1-.64-1.79-.91-2.53-4.46-1.06-6.64,3.28-10.06,4.24-2-2.31,0-3.56,1.14-4.06a55.62,55.62,0,0,1,9.28-3.12c3-.76,5.63,1.1,8.34,2,2.45.78,4.57,2.55,6.95,3.62,5.55,2.49,11.18,4.81,16.75,7.26.31.13.41.74.91,1.72l-4.53,1.64-8.41-.87C1383.39,563.57,1380.46,561,1377.92,558.72Z"/><path class="cls-4" d="M699.84,631.43l-4.19.46v7.37L689,636l-.59-5.8-4.09-1.84-3.81,3.43-2.09-1c1.47-3.49,4.7-5.17,6.71-7.76l5.42,1.9c2.21-2.47,4.27-4.77,6.57-7.32C698.83,621.9,700.45,626.39,699.84,631.43Z"/><path class="cls-4" d="M791.54,888.92c-3.07,0-3.47,2.52-4.51,4.39h-2.86l-4.41-4.43c-.7-4.36-1.3-8.13-1.93-12.1,2.41.82,4.73,2.23,7,2.21s4.39-1.52,6.41-2.31C795.1,880.31,792.89,884.39,791.54,888.92Z"/><path class="cls-4" d="M1424.59,572.65v3.92l-5.73-.94c-3,.47-6.27,4.18-10.91,1-1.08-.73-3.7.77-6.16,1.38l-3.38-2.89h7.08l2.41-2.4-2.83-1.17v-5.15c5.19,1,10.18,1.79,15,3.09C1421.89,570,1423.35,571.75,1424.59,572.65Z"/><path class="cls-4" d="M1376.87,226.19c-1.91-3.77-3.38-6.66-5.14-10.15,2.32,0,4.59-.69,5.67.16,1.8,1.39,3.51,1,5.25,1,4.56-.05,7.45,2.29,10.08,6.29-3,1.39-5.8.44-8.38.87C1382,224.71,1379.69,225.47,1376.87,226.19Z"/><path class="cls-4" d="M501.11,617.06c5.12,2.47,5.77,7.21,7.93,10.63-2.09,5.1-2.09,5.1-5.9,8.19-.23,0-.54.07-.67-.06-.7-.63-1.35-1.31-2.12-2.08a33.54,33.54,0,0,0-1.16-8.52C498.7,622.92,500.29,620.17,501.11,617.06Z"/><path class="cls-4" d="M1314.16,198.94l5.11,7.51-4.42,1.78-7.42-1.42-3.67-2.18c-.49-.58-.77-.87-.75-.89C1305.68,200.79,1308.61,198.33,1314.16,198.94Z"/><path class="cls-4" d="M787.94,202.47V199l18,3.09,1.73,2a6.56,6.56,0,0,1-.3,1.19c-.11.2-.3.45-.49.49C798.75,207.48,798.75,207.47,787.94,202.47Z"/><path class="cls-4" d="M1297.59,169.61v-5.1c4.07,1.43,7.29,4.73,11.47,2.82l2.21,2.49-1.14,1.38,1.34,1.52-2.3,1.93H1301Z"/><path class="cls-4" d="M402.45,143.36H389.56c1.25-3.08,4.48-3.25,5.31-5.36l6,1.61.24-.7-4.3-3.36c5.46.09,8.9-2.58,13-1.61v2l-7.37,1.8,2,3Z"/><path class="cls-4" d="M1386.57,273.53v-6.19c1-1.07,2.3-2.38,3.74-3.89l5.88,2.17v6.22l-1.69,1.69Z"/><path class="cls-4" d="M1243.5,175.28v3l-3.52,3.44a9.73,9.73,0,0,1-9-3.23l1.84-3.9,14.42-1.91c-1.37,1.44-1.6,1.85-2,2A11.5,11.5,0,0,1,1243.5,175.28Z"/><path class="cls-4" d="M1492.63,248.32l1.41,1.41c1.34,1.3,2.67,2.61,4.22,4.13v2.36l-5.17,1.63-7.89-4.29,1.54-5.24Z"/><path class="cls-4" d="M673.77,542.1l6.3-2.91c-.07,6.43-3.14,11.11-4.86,16.89C669.59,551.36,672.39,546.89,673.77,542.1Z"/><path class="cls-4" d="M724.57,497.88c-1.74,4.42-2.5,8.59-6.89,11.27-1.61-3.76-.52-6.86,1.33-11l-4.51,1.71c-.1-.44-.58-1.34-.33-1.66,1.11-1.43,2.44-2.7,3.8-4.15Z"/><path class="cls-4" d="M931.23,242.81c3.33-6.5,8.24-5.86,12.56-5.78l4,2.28c-.27.81-.28,1.44-.57,1.61C942.57,243.79,937.47,242.28,931.23,242.81Z"/><path class="cls-4" d="M683.94,622l-2.27-2.27c.47-1.85,1-3.88,1.58-6.27h-4.19v-5.73l3.27-.23,6.19,7.93Z"/><path class="cls-4" d="M1060,341l-3.15,4.34,1.58,1.93-3.62,4.15h-6.41V348c3.92-1.28,5.82-5.4,9.33-7.8Z"/><path class="cls-4" d="M622.25,574.81V568.6c2.66-3.54,6.17-1.43,10-2.31l-4.43,8.52Z"/><path class="cls-4" d="M762,217.64l6.12-3.48a13.26,13.26,0,0,1,8.15,5.21l-2,2.1c-3.52-.66-7-1.25-10.41-2C763.3,219.35,762.88,218.54,762,217.64Z"/><path class="cls-4" d="M1230.05,170c5.6-2.33,10.44-4,16.37-3.59.57,1.59,1.14,3.2,2,5.64Z"/><path class="cls-4" d="M189.19,459.65l1.39-1.71-2.77-5.43c0-1,2.08-1.78,6.51-1.85v9.22l-3.52,3Z"/><path class="cls-4" d="M811.66,688.52c.33,4.59-4,5.4-6.09,8.06h-9l-2.23-3.49c1.07-.29,2-.81,2.27-.57,2.48,1.88,4.57,1.61,7.38.18,3.86-2,4.17-1.62,5.75-4.57Z"/><path class="cls-4" d="M377.36,141.55a14.43,14.43,0,0,0-8.25,3.61c-2.69,2.26-6.25,3.17-11,2.41l14.71-9.11Z"/><path class="cls-4" d="M683.48,714.85c3.12-5.33,7.84-6.76,10.91-9.15l6.73,1.35c-1.52.23-2,3-4.48,1.49-.72-.44-3,1.15-4.23,2.16a46.92,46.92,0,0,0-4.18,4.15Z"/><path class="cls-4" d="M396.73,150.36c.37-1,.42-1.82.84-2.23,1.86-1.81,9.5-3.49,11.91-2.61.6.22,1,.95,1.68,1.62l-6.36,3.22Z"/><path class="cls-4" d="M218.82,467.81c-.81,2.52-1.53,4.71-2.31,7.13l-9-5.38v-1.75Z"/><path class="cls-4" d="M424.59,143.55,416,146.11l-3.29-1.61,5.26-4.1c-.24-.28-.47-.57-.7-.85h4.85Z"/><path class="cls-4" d="M736.87,491.31c-.88,1.87-1.4,3-2.08,4.41l-2.22.17-4.23,4.67c-1.12-.95-1.76-1.25-2-1.74-1.42-2.85-1.11-5,1.21-5.68A86.24,86.24,0,0,1,736.87,491.31Z"/><path class="cls-4" d="M1151.72,382.92c-5.6-.9-5.54-6.29-8.89-8,.78-3.28,2.7-3.88,4.94-3.43C1149,375.08,1150.22,378.55,1151.72,382.92Z"/></g></g><g id="Layer_2-2" data-name="Layer 2"><path class="cls-5" d="M1233.42,498.38a.57.57,0,0,0-.15-.16,11.69,11.69,0,0,0-1-.77s-.07-.06-.06-.08a1.27,1.27,0,0,0-.16-.87c-.13-.29-.09-.65-.37-.87a.81.81,0,0,1-.32-.48.5.5,0,0,0-.14-.29c-.27-.19-.24-.42-.2-.67a.52.52,0,0,0-.11-.51c-.56-.6-1.1-1.22-1.65-1.83q-1.92-2.1-3.83-4.21c-1.51-1.66-3.07-3.28-4.66-4.88-1.12-1.14-2.25-2.27-3.36-3.42-1.71-1.76-3.45-3.49-5.18-5.23s-3.46-3.42-5.2-5.13c-1.5-1.48-3.07-2.89-4.58-4.35a.63.63,0,0,1-.22-.6c.72-6,1.39-12.06,2.16-18.08v-.11c.08-.68.08-.67-.67-.76-2.06-.23-4.12-.45-6.18-.73l-3.39-.46c-2.72-.37-5.45-.67-8.18-1-1.93-.23-3.88-.36-5.82-.63l-.59-.1c-.1,0-.2,0-.2.12a2.1,2.1,0,0,1-.3,1.06.22.22,0,0,0,.08.33.63.63,0,0,1,.4.69.35.35,0,0,0,.05.13,2.65,2.65,0,0,1,.18,1.36,4.27,4.27,0,0,1-.65,1.77c-.13.24-.23.49,0,.74a.23.23,0,0,1,0,.24,4,4,0,0,1-.9,1.49,8.15,8.15,0,0,0-1,1.44.78.78,0,0,0-.09.86c.08.14.21.37.08.57a.28.28,0,0,0,.08.43c.39.29.68.68,1.1.94a.39.39,0,0,1,.25.4.23.23,0,0,0,.19.29c.07,0,.13.09.17.15.21.32.41.65.63,1s.3.34.26.58a1.21,1.21,0,0,0,.1.5,1.55,1.55,0,0,1,0,1.16,2.26,2.26,0,0,0-.13,2c.1.25.18.51.26.76a.67.67,0,0,1-.12.72c-.23.21-.12.37,0,.57a2,2,0,0,0,.41.47,7,7,0,0,1,1.18,1.32,3.27,3.27,0,0,0,1.32,1.34.54.54,0,0,1,.31.41,1,1,0,0,0,.41.71c.14.08.14.24.14.37a.47.47,0,0,0,.05.29.53.53,0,0,1,0,.59c-.15.34,0,.54.36.66a.74.74,0,0,1,.57.48.55.55,0,0,0,.13.18,1.56,1.56,0,0,0,.63.35,3.87,3.87,0,0,1,.82.59c.08.05.1.12,0,.18s-.17.41-.14.64a.64.64,0,0,1-.07.54.46.46,0,0,0,.13.74.18.18,0,0,1,.08.11,2.1,2.1,0,0,1,.1,1.33.57.57,0,0,0,.16.65,6.27,6.27,0,0,1,.69.87,1.57,1.57,0,0,0,1.78.84.31.31,0,0,1,.31.12,1.55,1.55,0,0,1,.11,1.95c-.1.14-.22.26-.41.11a.24.24,0,0,0-.36,0c-.1.12-.15.24,0,.35s.14.11.06.18-.11.43,0,.64a1.32,1.32,0,0,1,.1.58,1,1,0,0,0,.47.84,2.27,2.27,0,0,1,1,1.27.35.35,0,0,0,.26.31.42.42,0,0,1,.38.5.71.71,0,0,0,.26.58c.26.25.55.5.5.92,0,.19.13.36.35.48s.61.24.73.56a1.86,1.86,0,0,0,1.18,1.17c.23.08.23.3.16.5s-.13.3-.18.45a.42.42,0,0,0,.23.58c.22.1.37.36.7.26.06,0,.18.06.25.13a.65.65,0,0,1,.18.61,3.77,3.77,0,0,1-.31.81c0,.08-.09.17,0,.23.28.23.22.48.1.74a.29.29,0,0,0,0,.24.54.54,0,0,1-.08.56,3.18,3.18,0,0,0-.16.32.23.23,0,0,0,.17.36.93.93,0,0,1,.7.65c.06.14.14.17.32.17a6.67,6.67,0,0,1,2.76.4,1.55,1.55,0,0,0,1,.29s.13,0,.19.07a.72.72,0,0,0,.52.07.88.88,0,0,1,.69.09,3.71,3.71,0,0,1,1,.74.73.73,0,0,0,.35.25.26.26,0,0,1,.21.27.91.91,0,0,0,.48.8c.19.09.42.1.56.26.4.42,1,.46,1.49.75a.33.33,0,0,0,.17,0,5,5,0,0,1,1.28,0,.44.44,0,0,1,.22.07,1.55,1.55,0,0,1,.54,1.63c-.06.11-.1.25,0,.31s.4.37.72.27c.07,0,.06-.1.07-.17a.14.14,0,0,1,.17-.14,1.24,1.24,0,0,1,1,.39,3.38,3.38,0,0,0,1.23,1.14,1.88,1.88,0,0,1,.3.27,6.5,6.5,0,0,0,.53.52,7.88,7.88,0,0,1,1.73,2.06,3.49,3.49,0,0,1,.34,1.34c.07.29.21.61-.08.87a.11.11,0,0,0,0,.1,2.58,2.58,0,0,0,.37,1,1.15,1.15,0,0,1,.32.8c0,.13,0,.21.2.22.31,0,.62.06.93.07,1,0,2,0,3,.06s2.28.05,3.42.1c1.68.08,3.37.14,5.06.17a6.35,6.35,0,0,0,2,0,.4.4,0,0,1,.21,0c.51.12.47,0,.87-.27a1.08,1.08,0,0,0,.44-.92c0-.44-.15-.68-.66-.69a.51.51,0,0,1-.17,0,.53.53,0,0,1-.31-.84.75.75,0,0,0,0-.93c-.11-.13.05-.46.1-.69,0-.05.13,0,.2,0a.34.34,0,0,0,.29-.1c.28-.41.79-.71.77-1.27,0-.23.25-.35.21-.57a3.25,3.25,0,0,1,0-.54c0-.23.17-.44.12-.65s.06-.35.26-.45a.56.56,0,0,0,.34-.38.47.47,0,0,1,.35-.37,4.37,4.37,0,0,0,1.34-.69C1233.62,498.74,1233.67,498.73,1233.42,498.38Z"/></g><g id="arrrows" class="cls-6"><path class="cls-7" d="M340.89,724.84c-6.92,17.41-25.36,63-37.76,85.57"/><text class="cls-8" transform="translate(320.91 795.02) rotate(-64.79)">S</text><text class="cls-8" transform="matrix(0.42, -0.91, 0.91, 0.42, 322.83, 790.96)">o</text><text class="cls-8" transform="translate(324.72 786.86) rotate(-65.58)">u</text><text class="cls-8" transform="translate(326.49 782.94) rotate(-65.84)">t</text><text class="cls-8" transform="translate(327.66 780.34) rotate(-66.07)">h</text><text class="cls-8" transform="translate(329.4 776.41) rotate(-66.26)"> </text><text class="cls-8" transform="translate(330.25 774.49) rotate(-66.45)">E</text><text class="cls-8" transform="translate(332.12 770.19) rotate(-66.68)">q</text><text class="cls-8" transform="translate(333.96 765.93) rotate(-66.88)">u</text><text class="cls-8" transform="matrix(0.39, -0.92, 0.92, 0.39, 335.65, 761.96)">a</text><text class="cls-8" transform="matrix(0.39, -0.92, 0.92, 0.39, 337.21, 758.27)">t</text><text class="cls-8" transform="translate(338.27 755.76) rotate(-67.33)">o</text><text class="cls-8" transform="translate(340.02 751.58) rotate(-67.45)">r</text><text class="cls-8" transform="translate(341.1 748.96) rotate(-67.54)">i</text><text class="cls-8" transform="translate(341.81 747.25) rotate(-67.63)">a</text><text class="cls-8" transform="matrix(0.38, -0.93, 0.93, 0.38, 343.35, 743.52)">l</text><text class="cls-8" transform="translate(344.04 741.81) rotate(-67.79)"> </text><polygon class="cls-4" points="299.46 806.63 299.51 816.6 308.12 811.58 299.46 806.63"/><path class="cls-7" d="M1450,226.19l20.2,33.77a28.27,28.27,0,0,1,3.11,7.44l5.1,19.7a28.37,28.37,0,0,1-1,17.35h0a28.25,28.25,0,0,0,2.24,25l37.82,61.76a28.3,28.3,0,0,1,2,25.72l-1,2.38a28.26,28.26,0,0,1-13.1,14.19l-14.09,7.28"/><text class="cls-8" transform="translate(1498.49 343.94) rotate(58.51)">L</text><text class="cls-8" transform="matrix(0.52, 0.85, -0.85, 0.52, 1500.75, 347.64)">a</text><text class="cls-8" transform="translate(1502.87 351.09) rotate(58.51)">b</text><text class="cls-8" transform="translate(1505.29 355.05) rotate(58.51)">r</text><text class="cls-8" transform="translate(1506.69 357.32) rotate(58.51)">a</text><text class="cls-8" transform="translate(1508.8 360.77) rotate(58.51)">d</text><text class="cls-8" transform="matrix(0.52, 0.85, -0.85, 0.52, 1511.23, 364.75)">o</text><text class="cls-8" transform="translate(1513.6 368.6) rotate(58.51)">r</text><polygon class="cls-4" points="1490.24 435.71 1484.86 444.1 1494.82 444.57 1490.24 435.71"/><path class="cls-7" d="M1464.38,451.16,1450,455.28l-19.56,10.07a22.9,22.9,0,0,0-9.24,8.7l-11.68,19.74c-.3.51-.61,1-.94,1.49l-7.09,10.47a34.89,34.89,0,0,0-6,19.59v6.37a17.25,17.25,0,0,0,6.47,13.47l7.12,5.71"/><text class="cls-8" transform="translate(1410.14 512.29) rotate(-55.89)">G</text><text class="cls-8" transform="matrix(0.56, -0.83, 0.83, 0.56, 1413.22, 507.75)">u</text><text class="cls-8" transform="translate(1415.63 504.19) rotate(-55.89)">l</text><text class="cls-8" transform="matrix(0.55, -0.84, 0.84, 0.55, 1416.69, 502.66)">f</text><text class="cls-8" transform="translate(1418.14 500.44) rotate(-58.45)"> </text><text class="cls-8" transform="translate(1419.25 498.59) rotate(-59.38)">S</text><text class="cls-8" transform="translate(1421.52 494.76) rotate(-59.38)">t</text><text class="cls-8" transform="translate(1422.94 492.36) rotate(-59.38)">r</text><text class="cls-8" transform="translate(1424.31 490.04) rotate(-59.38)">e</text><text class="cls-8" transform="matrix(0.51, -0.86, 0.86, 0.51, 1426.42, 486.48)">a</text><text class="cls-8" transform="translate(1428.47 482.96) rotate(-58.92)">m</text><polygon class="cls-4" points="1461.6 446.77 1471.28 449.17 1464.36 456.35 1461.6 446.77"/><polygon class="cls-4" points="1441.89 560.73 1431.95 561.52 1437.6 569.73 1441.89 560.73"/><path class="cls-7" d="M1680,615.5c-23.8,1.53-180.43-20.19-180.43-20.19l-14.94-4s-20.27-5.73-30.37-14.32c-6.71-5.7-11.41-9.81-15.76-12.48"/><text class="cls-8" transform="translate(1586.33 597.66) rotate(6.99)">N</text><text class="cls-8" transform="translate(1591.79 598.33) rotate(6.92)">o</text><text class="cls-8" transform="matrix(0.99, 0.12, -0.12, 0.99, 1596.29, 598.87)">r</text><text class="cls-8" transform="translate(1599.11 599.21) rotate(6.82)">t</text><text class="cls-8" transform="translate(1601.92 599.55) rotate(6.76)">h</text><text class="cls-8" transform="matrix(0.99, 0.12, -0.12, 0.99, 1606.21, 600.06)"> </text><text class="cls-8" transform="translate(1608.28 600.3) rotate(6.64)">E</text><text class="cls-8" transform="translate(1612.96 600.85) rotate(6.55)">q</text><text class="cls-8" transform="translate(1617.58 601.37) rotate(6.45)">u</text><text class="cls-8" transform="translate(1621.86 601.86) rotate(6.35)">a</text><text class="cls-8" transform="translate(1625.83 602.3) rotate(6.27)">t</text><text class="cls-8" transform="matrix(0.99, 0.11, -0.11, 0.99, 1628.56, 602.6)">o</text><text class="cls-8" transform="matrix(0.99, 0.11, -0.11, 0.99, 1633.04, 603.08)">r</text><text class="cls-8" transform="translate(1635.88 603.38) rotate(5.96)">i</text><text class="cls-8" transform="matrix(0.99, 0.1, -0.1, 0.99, 1637.71, 603.58)">a</text><text class="cls-8" transform="translate(1641.72 603.99) rotate(5.73)">l</text><text class="cls-8" transform="matrix(1, 0.1, -0.1, 1, 1643.57, 604.17)"> </text><path class="cls-7" d="M1799.82,466.59s-10.14,85.18-52.27,124.07"/><text class="cls-8" transform="translate(1772.39 541.28) rotate(-67.51)">C</text><text class="cls-8" transform="translate(1774.35 536.53) rotate(-68.62)">a</text><text class="cls-8" transform="translate(1775.83 532.75) rotate(-69.58)">n</text><text class="cls-8" transform="translate(1777.32 528.75) rotate(-70.49)">a</text><text class="cls-8" transform="translate(1778.66 524.95) rotate(-71.21)">r</text><text class="cls-8" transform="translate(1779.58 522.24) rotate(-71.92)">y</text><text class="cls-8" transform="translate(1780.85 518.34) rotate(-72.53)"> </text><polygon class="cls-4" points="1745.33 585.88 1742.08 595.31 1751.86 593.41 1745.33 585.88"/><path class="cls-7" d="M1541.35,422.61s98.6-28,187.17-5.67"/><text class="cls-8" transform="translate(1601.87 424.38) rotate(-6.37)">N</text><text class="cls-8" transform="translate(1607.33 423.77) rotate(-5.76)">o</text><text class="cls-8" transform="matrix(1, -0.09, 0.09, 1, 1611.85, 423.32)">r</text><text class="cls-8" transform="translate(1614.65 423.06) rotate(-4.96)">t</text><text class="cls-8" transform="translate(1617.47 422.81) rotate(-4.51)">h</text><text class="cls-8" transform="translate(1621.76 422.48) rotate(-4.1)"> </text><text class="cls-8" transform="translate(1623.85 422.32) rotate(-3.61)">A</text><text class="cls-8" transform="translate(1629.14 421.99) rotate(-3.1)">t</text><text class="cls-8" transform="translate(1631.95 421.84) rotate(-2.79)">l</text><text class="cls-8" transform="translate(1633.78 421.75) rotate(-2.39)">a</text><text class="cls-8" transform="translate(1637.82 421.58) rotate(-1.83)">n</text><text class="cls-8" transform="translate(1642.11 421.44) rotate(-1.33)">t</text><text class="cls-8" transform="matrix(1, -0.02, 0.02, 1, 1644.94, 421.38)">i</text><text class="cls-8" transform="translate(1646.77 421.34) rotate(-0.59)">c</text><text class="cls-8" transform="translate(1650.77 421.31) rotate(-0.15)"> </text><text class="cls-8" transform="translate(1652.85 421.29) rotate(0.4)">D</text><text class="cls-8" transform="translate(1658.3 421.34) rotate(1.02)">r</text><text class="cls-8" transform="translate(1661.11 421.39) rotate(1.38)">i</text><text class="cls-8" transform="translate(1662.98 421.43) rotate(1.72)">f</text><text class="cls-8" transform="translate(1665.53 421.51) rotate(2.14)">t</text><polygon class="cls-4" points="1725.83 421.41 1735.45 418.79 1728.38 411.77 1725.83 421.41"/><path class="cls-7" d="M1664.51,172s-4.41,82.44-26.11,91.45-42.86,18-51.82,28.76c-7,8.44-16,11.6-20.18,18.49"/><text class="cls-8" transform="translate(1660.74 257.68) rotate(-68.84)">E</text><text class="cls-8" transform="translate(1662.48 253.14) rotate(-71.48)">a</text><text class="cls-8" transform="translate(1663.76 249.31) rotate(-73.25)">s</text><text class="cls-8" transform="translate(1664.73 246.07) rotate(-74.48)">t</text><text class="cls-8" transform="translate(1665.46 243.46) rotate(-75.66)">e</text><text class="cls-8" transform="translate(1666.48 239.45) rotate(-76.73)">r</text><text class="cls-8" transform="translate(1667.13 236.72) rotate(-77.71)">n</text><text class="cls-8" transform="translate(1668.03 232.53) rotate(-78.49)"> </text><text class="cls-8" transform="matrix(0.18, -0.98, 0.98, 0.18, 1668.47, 230.46)">G</text><text class="cls-8" transform="translate(1669.47 225.08) rotate(-80.17)">r</text><text class="cls-8" transform="matrix(0.16, -0.99, 0.99, 0.16, 1669.93, 222.46)">e</text><text class="cls-8" transform="translate(1670.59 218.37) rotate(-81.49)">e</text><text class="cls-8" transform="matrix(0.14, -0.99, 0.99, 0.14, 1671.2, 214.29)">n</text><text class="cls-8" transform="translate(1671.78 210.03) rotate(-82.61)">l</text><text class="cls-8" transform="translate(1672.03 208.21) rotate(-83.03)">a</text><text class="cls-8" transform="translate(1672.52 204.18) rotate(-83.6)">n</text><text class="cls-8" transform="translate(1673 199.91) rotate(-84.2)">d</text><polygon class="cls-4" points="1562.46 307.7 1564.18 317.52 1571.83 311.13 1562.46 307.7"/><path class="cls-7" d="M1664.51,408.48s27.87-13,42.12-31.22l13.88-21.74s30.62-43.67,79.83-82.63"/><text class="cls-8" transform="matrix(0.6, -0.8, 0.8, 0.6, 1717.33, 347.35)">N</text><text class="cls-8" transform="matrix(0.61, -0.79, 0.79, 0.61, 1720.64, 342.93)">o</text><text class="cls-8" transform="translate(1723.41 339.35) rotate(-51.69)">r</text><text class="cls-8" transform="translate(1725.15 337.13) rotate(-51.04)">w</text><text class="cls-8" transform="translate(1728.81 332.62) rotate(-50.37)">e</text><text class="cls-8" transform="matrix(0.65, -0.76, 0.76, 0.65, 1731.44, 329.44)">g</text><text class="cls-8" transform="translate(1734.46 325.88) rotate(-49.39)">i</text><text class="cls-8" transform="matrix(0.66, -0.75, 0.75, 0.66, 1735.64, 324.49)">a</text><text class="cls-8" transform="translate(1738.29 321.44) rotate(-48.51)">n</text><polygon class="cls-4" points="1802.31 277.75 1806.01 268.49 1796.14 269.91 1802.31 277.75"/><path class="cls-7" d="M1146.36,417.47,1107.89,357q-.15-.22-.3-.42a5,5,0,0,0-2.4-1.65,26.81,26.81,0,0,0-28.78,8.91,22.28,22.28,0,0,1-4.91,4.42"/><text class="cls-8" transform="matrix(0.54, 0.84, -0.84, 0.54, 1103.05, 370.77)">A</text><text class="cls-8" transform="translate(1106.01 375.44) rotate(57.56)">l</text><text class="cls-8" transform="translate(1107 376.99) rotate(57.56)">a</text><text class="cls-8" transform="translate(1109.18 380.42) rotate(57.56)">s</text><text class="cls-8" transform="matrix(0.54, 0.84, -0.84, 0.54, 1111.05, 383.36)">k</text><text class="cls-8" transform="matrix(0.54, 0.84, -0.84, 0.54, 1113.16, 386.68)">a</text><polygon class="cls-4" points="1070.46 362.96 1065.02 371.31 1074.98 371.85 1070.46 362.96"/><path class="cls-7" d="M787.79,637.22s-58.59-17.47-63.22-41.49-9.81-50.19,12.3-64.78,52.66-33.25,57.45-50c2.94-10.35,10.42-20,15.72-25.86a33.4,33.4,0,0,1,12.64-8.69c9.7-3.8,28-10.27,43.86-11.94"/><text class="cls-8" transform="translate(766.91 523.66) rotate(-35.09)">K</text><text class="cls-8" transform="matrix(0.81, -0.59, 0.59, 0.81, 770.91, 520.86)">u</text><text class="cls-8" transform="matrix(0.8, -0.6, 0.6, 0.8, 774.37, 518.34)">r</text><text class="cls-8" transform="translate(776.53 516.74) rotate(-37.69)">o</text><text class="cls-8" transform="matrix(0.78, -0.63, 0.63, 0.78, 780.08, 513.99)">s</text><text class="cls-8" transform="matrix(0.76, -0.65, 0.65, 0.76, 782.76, 511.83)">h</text><text class="cls-8" transform="matrix(0.74, -0.67, 0.67, 0.74, 786.04, 509.02)">i</text><text class="cls-8" transform="translate(787.51 507.72) rotate(-43.69)">o</text><polygon class="cls-4" points="865.43 439.59 873.7 434.02 864.74 429.64 865.43 439.59"/><path class="cls-7" d="M939.52,330.45s-42,15.41-48.45,23.22c-4.49,5.42-13.42,20.11-18.43,28.54"/><text class="cls-9" transform="matrix(0.87, -0.5, 0.5, 0.87, 901.31, 357.14)">O</text><text class="cls-9" transform="translate(906.41 354.23) rotate(-27.25)">y</text><text class="cls-9" transform="translate(909.9 352.43) rotate(-25.86)">a</text><text class="cls-9" transform="matrix(0.91, -0.42, 0.42, 0.91, 913.54, 350.68)"> </text><text class="cls-9" transform="matrix(0.91, -0.41, 0.41, 0.91, 915.45, 349.78)">s</text><text class="cls-9" transform="translate(918.61 348.35) rotate(-23.67)">h</text><text class="cls-9" transform="translate(922.54 346.63) rotate(-23.19)">i</text><text class="cls-9" transform="translate(924.23 345.91) rotate(-22.74)">o</text><polygon class="cls-4" points="869.14 378.43 869 388.39 877.71 383.54 869.14 378.43"/><path class="cls-7" d="M1151.72,466.11l16.19,27.24a36.61,36.61,0,0,0,10,10.36c6.12,4.26,15.75,11.94,21.6,21.52,6.59,10.77,17.15,30.52,22.5,40.65"/><text class="cls-8" transform="matrix(0.68, 0.74, -0.74, 0.68, 1182.25, 521.8)">C</text><text class="cls-8" transform="matrix(0.62, 0.78, -0.78, 0.62, 1185.65, 525.54)">a</text><text class="cls-8" transform="translate(1188.13 528.7) rotate(54.62)">l</text><text class="cls-8" transform="matrix(0.55, 0.84, -0.84, 0.55, 1189.16, 530.15)">i</text><text class="cls-8" transform="matrix(0.52, 0.85, -0.85, 0.52, 1190.14, 531.64)">f</text><text class="cls-8" transform="matrix(0.51, 0.86, -0.86, 0.51, 1191.44, 533.79)">o</text><text class="cls-8" transform="translate(1193.72 537.67) rotate(60.08)">r</text><text class="cls-8" transform="translate(1195.13 540.12) rotate(60.46)">n</text><text class="cls-8" transform="translate(1197.26 543.87) rotate(60.73)">i</text><text class="cls-8" transform="matrix(0.49, 0.87, -0.87, 0.49, 1198.16, 545.47)">a</text><polygon class="cls-4" points="1216.88 566.93 1225.33 572.22 1225.69 562.26 1216.88 566.93"/><path class="cls-7" d="M901.31,426.78S986,391.45,1088,431.32"/><text class="cls-9" transform="matrix(1, -0.06, 0.06, 1, 967.27, 406.07)">N</text><text class="cls-9" transform="translate(972.75 405.73) rotate(-2.59)">o</text><text class="cls-9" transform="translate(977.25 405.53) rotate(-1.84)">r</text><text class="cls-9" transform="translate(980.09 405.44) rotate(-1.25)">t</text><text class="cls-9" transform="translate(982.89 405.37) rotate(-0.52)">h</text><text class="cls-9" transform="translate(987.17 405.34) rotate(0.14)"> </text><text class="cls-9" transform="translate(989.29 405.34) rotate(0.85)">P</text><text class="cls-9" transform="translate(993.85 405.41) rotate(1.72)">a</text><text class="cls-9" transform="translate(997.88 405.53) rotate(2.56)">c</text><text class="cls-9" transform="translate(1001.89 405.71) rotate(3.17)">i</text><text class="cls-9" transform="matrix(1, 0.06, -0.06, 1, 1003.7, 405.81)">f</text><text class="cls-9" transform="matrix(1, 0.07, -0.07, 1, 1006.25, 405.97)">i</text><text class="cls-9" transform="translate(1008.08 406.1) rotate(4.68)">c</text><polygon class="cls-4" points="1084.81 435.45 1094.68 434.02 1088.5 426.19 1084.81 435.45"/><path class="cls-7" d="M1189.54,629.05s-148.17,79.19-328.76,31.32"/><text class="cls-8" transform="translate(1017.62 664.28) rotate(-4.76)">N</text><text class="cls-8" transform="translate(1023.13 663.82) rotate(-5.34)">o</text><text class="cls-8" transform="translate(1027.6 663.4) rotate(-5.76)">r</text><text class="cls-8" transform="translate(1030.42 663.11) rotate(-6.08)">t</text><text class="cls-8" transform="translate(1033.23 662.82) rotate(-6.49)">h</text><text class="cls-8" transform="matrix(0.99, -0.12, 0.12, 0.99, 1037.52, 662.33)"> </text><text class="cls-8" transform="translate(1039.6 662.08) rotate(-7.24)">E</text><text class="cls-8" transform="matrix(0.99, -0.14, 0.14, 0.99, 1044.24, 661.49)">q</text><text class="cls-8" transform="translate(1048.84 660.86) rotate(-8.27)">u</text><text class="cls-8" transform="matrix(0.99, -0.15, 0.15, 0.99, 1053.1, 660.24)">a</text><text class="cls-8" transform="translate(1057.07 659.63) rotate(-9.13)">t</text><text class="cls-8" transform="translate(1059.75 659.2) rotate(-9.53)">o</text><text class="cls-8" transform="matrix(0.98, -0.17, 0.17, 0.98, 1064.22, 658.45)">r</text><text class="cls-8" transform="matrix(0.98, -0.18, 0.18, 0.98, 1066.99, 657.96)">i</text><text class="cls-8" transform="translate(1068.79 657.64) rotate(-10.53)">a</text><text class="cls-8" transform="translate(1072.78 656.9) rotate(-10.86)">l</text><polygon class="cls-4" points="863.48 655.83 853.86 658.48 860.96 665.48 863.48 655.83"/><path class="cls-7" d="M1001.11,718.06s128.51,5.17,259.17-46.48"/><text class="cls-8" transform="matrix(0.98, -0.22, 0.22, 0.98, 1163.93, 710.8)">C</text><text class="cls-8" transform="matrix(0.97, -0.23, 0.23, 0.97, 1168.91, 709.67)">o</text><text class="cls-8" transform="translate(1173.3 708.65) rotate(-13.47)">u</text><text class="cls-8" transform="matrix(0.97, -0.24, 0.24, 0.97, 1177.47, 707.65)">n</text><text class="cls-8" transform="matrix(0.97, -0.24, 0.24, 0.97, 1181.66, 706.62)">t</text><text class="cls-8" transform="translate(1184.32 705.95) rotate(-14.41)">e</text><text class="cls-8" transform="matrix(0.97, -0.25, 0.25, 0.97, 1188.31, 704.93)">r</text><text class="cls-8" transform="matrix(0.97, -0.26, 0.26, 0.97, 1191.06, 704.2)"> </text><text class="cls-8" transform="translate(1193.09 703.67) rotate(-15.2)">E</text><text class="cls-8" transform="translate(1197.62 702.44) rotate(-15.61)">q</text><text class="cls-8" transform="translate(1202.09 701.19) rotate(-16)">u</text><text class="cls-8" transform="translate(1206.22 700) rotate(-16.37)">a</text><text class="cls-8" transform="translate(1210.08 698.87) rotate(-16.67)">t</text><text class="cls-8" transform="translate(1212.68 698.09) rotate(-16.99)">o</text><text class="cls-8" transform="matrix(0.95, -0.3, 0.3, 0.95, 1217, 696.77)">r</text><text class="cls-8" transform="translate(1219.69 695.93) rotate(-17.53)">i</text><text class="cls-8" transform="matrix(0.95, -0.31, 0.31, 0.95, 1221.48, 695.37)">a</text><text class="cls-8" transform="translate(1225.32 694.13) rotate(-18.08)">l</text><polygon class="cls-4" points="1260.65 676.64 1266.93 668.9 1257.09 667.33 1260.65 676.64"/><path class="cls-7" d="M1288,659s15-8.5,26.4-20.3"/><polygon class="cls-4" points="1317.1 643.05 1319.14 633.29 1309.66 636.41 1317.1 643.05"/><path class="cls-7" d="M1293.7,666.2s23.24-3.42,45.57,8.56"/><polygon class="cls-4" points="1335.43 678.41 1345.4 678.49 1340.49 669.81 1335.43 678.41"/><path class="cls-7" d="M1293.7,748.77S1082.66,727,965.54,762"/><text class="cls-8" transform="translate(1117.33 752.54) rotate(-1.44)">S</text><text class="cls-8" transform="matrix(1, -0.02, 0.02, 1, 1121.81, 752.43)">o</text><text class="cls-8" transform="translate(1126.32 752.33) rotate(-1.01)">u</text><text class="cls-8" transform="translate(1130.61 752.26) rotate(-0.84)">t</text><text class="cls-8" transform="translate(1133.43 752.22) rotate(-0.68)">h</text><text class="cls-8" transform="translate(1137.75 752.17) rotate(-0.54)"> </text><text class="cls-8" transform="translate(1139.87 752.14) rotate(-0.38)">E</text><text class="cls-8" transform="matrix(1, 0, 0, 1, 1144.55, 752.11)">q</text><text class="cls-8" transform="translate(1149.2 752.1) rotate(0.01)">u</text><text class="cls-8" transform="translate(1153.5 752.1) rotate(0.18)">a</text><text class="cls-8" transform="translate(1157.52 752.11) rotate(0.32)">t</text><text class="cls-8" transform="translate(1160.25 752.13) rotate(0.47)">o</text><text class="cls-8" transform="matrix(1, 0.01, -0.01, 1, 1164.76, 752.17)">r</text><text class="cls-8" transform="translate(1167.61 752.2) rotate(0.71)">i</text><text class="cls-8" transform="translate(1169.43 752.22) rotate(0.82)">a</text><text class="cls-8" transform="matrix(1, 0.02, -0.02, 1, 1173.5, 752.28)">l</text><polygon class="cls-4" points="965.5 756.87 958.7 764.15 968.41 766.4 965.5 756.87"/><path class="cls-7" d="M927,778.22s-85.65,48.39-94,138.33"/><text class="cls-8" transform="translate(861.36 868.52) rotate(-63.11)">E</text><text class="cls-8" transform="translate(863.47 864.38) rotate(-61.67)">a</text><text class="cls-8" transform="translate(865.39 860.83) rotate(-60.44)">s</text><text class="cls-8" transform="translate(867.06 857.87) rotate(-59.45)">t</text><text class="cls-8" transform="matrix(0.52, -0.85, 0.85, 0.52, 868.5, 855.44)"> </text><text class="cls-8" transform="translate(869.56 853.67) rotate(-57.49)">A</text><text class="cls-8" transform="matrix(0.56, -0.83, 0.83, 0.56, 872.49, 849.08)">u</text><text class="cls-8" transform="translate(874.89 845.53) rotate(-54.85)">s</text><text class="cls-8" transform="matrix(0.59, -0.81, 0.81, 0.59, 876.85, 842.75)">t</text><text class="cls-8" transform="translate(878.5 840.48) rotate(-53.13)">r</text><text class="cls-8" transform="translate(880.08 838.37) rotate(-52.2)">a</text><text class="cls-8" transform="translate(882.57 835.17) rotate(-51.37)">l</text><text class="cls-8" transform="translate(883.7 833.76) rotate(-50.87)">i</text><text class="cls-8" transform="matrix(0.64, -0.77, 0.77, 0.64, 884.84, 832.35)">a</text><text class="cls-8" transform="translate(887.44 829.23) rotate(-48.93)">n</text><text class="cls-8" transform="matrix(0.67, -0.74, 0.74, 0.67, 890.27, 826.01)"> </text><text class="cls-8" transform="matrix(0.68, -0.73, 0.73, 0.68, 891.65, 824.45)">C</text><text class="cls-8" transform="matrix(0.7, -0.72, 0.72, 0.7, 895.13, 820.7)">u</text><text class="cls-8" transform="translate(898.13 817.62) rotate(-45.02)">r</text><text class="cls-8" transform="translate(900.13 815.61) rotate(-44.3)">r</text><text class="cls-8" transform="translate(902.04 813.74) rotate(-43.47)">e</text><text class="cls-8" transform="translate(905.02 810.91) rotate(-42.44)">n</text><text class="cls-8" transform="matrix(0.75, -0.66, 0.66, 0.75, 908.19, 808.02)">t</text><polygon class="cls-4" points="828.17 914.73 832.5 923.71 838.12 915.47 828.17 914.73"/><path class="cls-7" d="M1345.4,946.55l19.44-86a119.35,119.35,0,0,0-1.17-58.42c-4.12-14.75-11.56-30.26-24.9-40.72"/><text class="cls-8" transform="matrix(-0.02, 1, -1, -0.02, 1354.93, 833.18)">P</text><text class="cls-8" transform="matrix(-0.05, 1, -1, -0.05, 1354.84, 837.76)">e</text><text class="cls-8" transform="matrix(-0.08, 1, -1, -0.08, 1354.61, 841.86)">r</text><text class="cls-8" transform="translate(1354.39 844.66) rotate(96.34)">u</text><polygon class="cls-4" points="1342.78 758.25 1332.85 757.36 1337.04 766.4 1342.78 758.25"/><path class="cls-7" d="M861.78,969.74s158.51,73.87,440.4,1.8"/><text class="cls-8" transform="translate(1056.25 998.05) rotate(0.54)">S</text><text class="cls-8" transform="translate(1060.72 998.1) rotate(0.21)">o</text><text class="cls-8" transform="translate(1065.22 998.11) rotate(-0.1)">u</text><text class="cls-8" transform="translate(1069.53 998.1) rotate(-0.36)">t</text><text class="cls-8" transform="translate(1072.35 998.09) rotate(-0.62)">h</text><text class="cls-8" transform="matrix(1, -0.01, 0.01, 1, 1076.67, 998.04)"> </text><text class="cls-8" transform="translate(1078.77 998.01) rotate(-1.08)">P</text><text class="cls-8" transform="matrix(1, -0.02, 0.02, 1, 1083.39, 997.92)">a</text><text class="cls-8" transform="translate(1087.43 997.82) rotate(-1.67)">c</text><text class="cls-8" transform="translate(1091.41 997.71) rotate(-1.87)">i</text><text class="cls-8" transform="matrix(1, -0.04, 0.04, 1, 1093.27, 997.64)">f</text><text class="cls-8" transform="translate(1095.83 997.55) rotate(-2.17)">i</text><text class="cls-8" transform="translate(1097.65 997.49) rotate(-2.37)">c</text><polygon class="cls-4" points="1301.96 976.67 1309.13 969.74 1299.55 966.99 1301.96 976.67"/><path class="cls-7" d="M411.89,622s-48.43,40.7-58.78,62.71a131.56,131.56,0,0,0-7.63,20.86"/><text class="cls-8" transform="matrix(0.65, -0.76, 0.76, 0.65, 374.11, 671.59)">A</text><text class="cls-8" transform="translate(377.58 667.55) rotate(-48.08)">g</text><text class="cls-8" transform="matrix(0.68, -0.73, 0.73, 0.68, 380.67, 664.11)">u</text><text class="cls-8" transform="translate(383.6 660.98) rotate(-46.49)">l</text><text class="cls-8" transform="matrix(0.7, -0.72, 0.72, 0.7, 384.87, 659.62)">h</text><text class="cls-8" transform="translate(387.85 656.55) rotate(-45.29)">a</text><text class="cls-8" transform="translate(390.69 653.68) rotate(-44.76)">s</text><polygon class="cls-4" points="341 703.1 344.04 712.6 350.75 705.21 341 703.1"/><path class="cls-7" d="M330.31,916.68s166.08,29.49,245.6-20.7"/><text class="cls-8" transform="matrix(1, 0.02, -0.02, 1, 419.25, 919.06)">S</text><text class="cls-8" transform="matrix(1, 0.02, -0.02, 1, 423.75, 919.17)">o</text><text class="cls-8" transform="translate(428.24 919.24) rotate(0.54)">u</text><text class="cls-8" transform="translate(432.56 919.28) rotate(0.19)">t</text><text class="cls-8" transform="matrix(1, 0, 0, 1, 435.38, 919.29)">h</text><text class="cls-8" transform="translate(439.71 919.28) rotate(-0.5)"> </text><text class="cls-8" transform="matrix(1, -0.01, 0.01, 1, 441.78, 919.26)">I</text><text class="cls-8" transform="translate(443.82 919.24) rotate(-1.05)">n</text><text class="cls-8" transform="matrix(1, -0.03, 0.03, 1, 448.14, 919.16)">d</text><text class="cls-8" transform="translate(452.79 919.03) rotate(-1.91)">i</text><text class="cls-8" transform="translate(454.62 918.97) rotate(-2.25)">a</text><text class="cls-8" transform="matrix(1, -0.05, 0.05, 1, 458.63, 918.81)">n</text><text class="cls-8" transform="translate(462.96 918.6) rotate(-3.13)"> </text><text class="cls-8" transform="matrix(1, -0.06, 0.06, 1, 465.04, 918.5)">O</text><text class="cls-8" transform="translate(470.97 918.12) rotate(-4.28)">c</text><text class="cls-8" transform="matrix(1, -0.08, 0.08, 1, 474.83, 917.82)">e</text><text class="cls-8" transform="translate(478.98 917.48) rotate(-5.4)">a</text><text class="cls-8" transform="translate(483 917.1) rotate(-6.01)">n</text><text class="cls-8" transform="translate(487.29 916.64) rotate(-6.49)"> </text><polygon class="cls-4" points="577.42 900.89 581.85 891.96 571.9 892.59 577.42 900.89"/><path class="cls-7" d="M612.53,825.23s7.11-16.88,8-47c.47-16.11-2.14-25.32-4.66-30.4"/><text class="cls-8" transform="translate(605.25 755.68) rotate(78.23)">W</text><text class="cls-8" transform="translate(606.66 762.74) rotate(82.95)">e</text><text class="cls-8" transform="translate(607.16 766.8) rotate(85.58)">s</text><text class="cls-8" transform="translate(607.41 770.18) rotate(87.44)">t</text><text class="cls-8" transform="translate(607.54 772.85) rotate(89.23)">e</text><text class="cls-8" transform="translate(607.59 776.95) rotate(90.87)">r</text><text class="cls-8" transform="translate(607.55 779.78) rotate(92.15)">n</text><text class="cls-8" transform="translate(607.38 784.04) rotate(93.06)"> </text><text class="cls-8" transform="matrix(-0.07, 1, -1, -0.07, 607.29, 786.11)">A</text><text class="cls-8" transform="matrix(-0.1, 1, -1, -0.1, 606.88, 791.55)">u</text><text class="cls-8" transform="matrix(-0.12, 0.99, -0.99, -0.12, 606.46, 795.79)">s</text><text class="cls-8" transform="translate(606.05 799.18) rotate(97.85)">t</text><text class="cls-8" transform="translate(605.67 801.96) rotate(98.79)">r</text><text class="cls-8" transform="translate(605.28 804.57) rotate(99.94)">a</text><text class="cls-8" transform="matrix(-0.19, 0.98, -0.98, -0.19, 604.57, 808.54)">l</text><text class="cls-8" transform="translate(604.23 810.32) rotate(101.71)">i</text><text class="cls-8" transform="translate(603.87 812.09) rotate(102.9)">a</text><text class="cls-8" transform="translate(602.98 816) rotate(104.74)">n</text><text class="cls-8" transform="translate(601.87 820.15) rotate(106.39)"> </text><polygon class="cls-4" points="620.62 746.22 611.54 742.1 612.5 752.02 620.62 746.22"/><path class="cls-7" d="M543.13,652.4s-37.47-12.49-87-8.14"/><text class="cls-8" transform="translate(470.43 653.42) rotate(-0.95)">N</text><text class="cls-8" transform="translate(475.93 653.33) rotate(0.21)">o</text><text class="cls-8" transform="matrix(1, 0.02, -0.02, 1, 480.41, 653.36)">r</text><text class="cls-8" transform="translate(483.25 653.41) rotate(1.7)">t</text><text class="cls-8" transform="translate(486.04 653.49) rotate(2.5)">h</text><text class="cls-8" transform="translate(490.36 653.68) rotate(3.23)"> </text><text class="cls-8" transform="matrix(1, 0.07, -0.07, 1, 492.45, 653.79)">E</text><text class="cls-8" transform="translate(497.09 654.11) rotate(5.05)">q</text><text class="cls-8" transform="translate(501.7 654.52) rotate(6.06)">u</text><text class="cls-8" transform="translate(505.97 654.98) rotate(7.01)">a</text><text class="cls-8" transform="translate(509.93 655.47) rotate(7.78)">t</text><text class="cls-8" transform="translate(512.62 655.83) rotate(8.61)">o</text><text class="cls-8" transform="translate(517.08 656.51) rotate(9.47)">r</text><text class="cls-8" transform="translate(519.86 656.98) rotate(10.03)">i</text><text class="cls-8" transform="translate(521.67 657.29) rotate(10.75)">a</text><text class="cls-8" transform="translate(525.61 658.04) rotate(11.48)">l</text><text class="cls-8" transform="translate(527.42 658.41) rotate(12)"> </text><polygon class="cls-4" points="457.09 639.2 448.98 645 458.06 649.12 457.09 639.2"/><path class="cls-7" d="M411.89,659s-10.65,8.73-14.63,25.71,13.26,27.52,51.72,25.56c35.61-1.81,68.94-16.38,98.95-14.48"/><text class="cls-8" transform="translate(426.43 704.82) rotate(5.03)">C</text><text class="cls-8" transform="translate(431.61 705.26) rotate(2.6)">o</text><text class="cls-8" transform="matrix(1, 0.01, -0.01, 1, 436.11, 705.46)">u</text><text class="cls-8" transform="matrix(1, -0.01, 0.01, 1, 440.38, 705.52)">n</text><text class="cls-8" transform="translate(444.67 705.45) rotate(-2.03)">t</text><text class="cls-8" transform="translate(447.43 705.36) rotate(-3.32)">e</text><text class="cls-8" transform="translate(451.57 705.12) rotate(-4.4)">r</text><text class="cls-8" transform="matrix(1, -0.09, 0.09, 1, 454.37, 704.91)"> </text><text class="cls-8" transform="matrix(0.99, -0.11, 0.11, 0.99, 456.45, 704.73)">E</text><text class="cls-8" transform="matrix(0.99, -0.13, 0.13, 0.99, 461.07, 704.21)">q</text><text class="cls-8" transform="translate(465.66 703.59) rotate(-8.88)">u</text><text class="cls-8" transform="translate(469.91 702.92) rotate(-9.82)">a</text><text class="cls-8" transform="matrix(0.98, -0.18, 0.18, 0.98, 473.85, 702.23)">t</text><text class="cls-8" transform="matrix(0.98, -0.19, 0.19, 0.98, 476.51, 701.75)">o</text><text class="cls-8" transform="translate(480.95 700.87) rotate(-11.58)">r</text><text class="cls-8" transform="matrix(0.98, -0.21, 0.21, 0.98, 483.7, 700.31)">i</text><text class="cls-8" transform="translate(485.52 699.93) rotate(-12.11)">a</text><text class="cls-8" transform="translate(489.49 699.07) rotate(-12.31)">l</text><polygon class="cls-4" points="545.99 700.71 555.06 696.58 546.95 690.78 545.99 700.71"/><path class="cls-7" d="M662.94,723.41s-162.25-4.8-194.07,0c-21.64,3.26-40.19,5.53-49.85,6.65"/><text class="cls-8" transform="translate(539.88 731.28) rotate(0.2)">S</text><text class="cls-8" transform="translate(544.37 731.3) rotate(0.29)">o</text><text class="cls-8" transform="translate(548.88 731.32) rotate(0.37)">u</text><text class="cls-8" transform="matrix(1, 0.01, -0.01, 1, 553.19, 731.35)">t</text><text class="cls-8" transform="translate(556.04 731.37) rotate(0.49)">h</text><text class="cls-8" transform="translate(560.33 731.41) rotate(0.54)"> </text><text class="cls-8" transform="translate(562.43 731.43) rotate(0.59)">E</text><text class="cls-8" transform="translate(567.13 731.48) rotate(0.66)">q</text><text class="cls-8" transform="translate(571.79 731.53) rotate(0.72)">u</text><text class="cls-8" transform="translate(576.11 731.58) rotate(0.78)">a</text><text class="cls-8" transform="translate(580.1 731.64) rotate(0.82)">t</text><text class="cls-8" transform="matrix(1, 0.02, -0.02, 1, 582.84, 731.68)">o</text><text class="cls-8" transform="matrix(1, 0.02, -0.02, 1, 587.35, 731.74)">r</text><text class="cls-8" transform="translate(590.2 731.79) rotate(0.93)">i</text><text class="cls-8" transform="translate(592.04 731.82) rotate(0.96)">a</text><text class="cls-8" transform="translate(596.09 731.89) rotate(0.99)">l</text><text class="cls-8" transform="translate(597.92 731.92) rotate(1.01)"> </text><polygon class="cls-4" points="419.89 724.91 411.89 730.86 421.04 734.81 419.89 724.91"/><path class="cls-7" d="M386.25,742.1s-13.66,64.71-30.55,74.5S319.86,832.48,310.31,851a45.94,45.94,0,0,0-1.93,25.41"/><text class="cls-8" transform="matrix(0.45, -0.89, 0.89, 0.45, 373.67, 809.66)">M</text><text class="cls-8" transform="translate(376.45 804.11) rotate(-65.93)">o</text><text class="cls-8" transform="matrix(0.38, -0.92, 0.92, 0.38, 378.21, 800.15)">z</text><text class="cls-8" transform="translate(379.7 796.56) rotate(-68.86)">a</text><text class="cls-8" transform="translate(381.16 792.82) rotate(-70.33)">m</text><text class="cls-8" transform="translate(383.38 786.57) rotate(-71.61)">b</text><text class="cls-8" transform="translate(384.84 782.17) rotate(-72.26)">i</text><text class="cls-8" transform="translate(385.4 780.44) rotate(-72.85)">q</text><text class="cls-8" transform="matrix(0.28, -0.96, 0.96, 0.28, 386.76, 776.01)">u</text><text class="cls-8" transform="translate(387.98 771.87) rotate(-74.25)">e</text><polygon class="cls-7" points="303.29 876.21 310.31 883.29 312.93 873.67 303.29 876.21"/><path class="cls-7" d="M1611.08,730.73C1625.7,705,1661,701.24,1661,701.24s87-13.12,129.52,6.18"/><polygon class="cls-4" points="1607.32 726.29 1608.04 736.23 1616.3 730.64 1607.32 726.29"/><text class="cls-8" transform="translate(1669.77 711.1) rotate(-6.41)">S</text><text class="cls-8" transform="translate(1674.22 710.6) rotate(-5.87)">o</text><text class="cls-8" transform="translate(1678.71 710.14) rotate(-5.35)">u</text><text class="cls-8" transform="translate(1682.99 709.74) rotate(-4.94)">t</text><text class="cls-8" transform="translate(1685.79 709.49) rotate(-4.53)">h</text><text class="cls-8" transform="translate(1690.1 709.16) rotate(-4.16)"> </text><text class="cls-8" transform="translate(1692.17 709) rotate(-3.76)">E</text><text class="cls-8" transform="translate(1696.84 708.69) rotate(-3.2)">q</text><text class="cls-8" transform="translate(1701.46 708.44) rotate(-2.65)">u</text><text class="cls-8" transform="matrix(1, -0.04, 0.04, 1, 1705.78, 708.24)">a</text><text class="cls-8" transform="matrix(1, -0.03, 0.03, 1, 1709.75, 708.09)">t</text><text class="cls-8" transform="translate(1712.48 708.01) rotate(-1.16)">o</text><text class="cls-8" transform="matrix(1, -0.01, 0.01, 1, 1716.99, 707.92)">r</text><text class="cls-8" transform="translate(1719.84 707.89) rotate(-0.27)">i</text><text class="cls-8" transform="translate(1721.63 707.88) rotate(0.18)">a</text><text class="cls-8" transform="matrix(1, 0.01, -0.01, 1, 1725.7, 707.9)">l</text><text class="cls-8" transform="translate(1727.53 707.91) rotate(1.2)">T</text><path class="cls-7" d="M1586.58,764.15s-125.22,147.93-111.83,182.4c8.42,21.69,24.16,27.52,33.34,29"/><text class="cls-8" transform="translate(1542.68 841.59) rotate(-54)">B</text><text class="cls-8" transform="matrix(0.59, -0.81, 0.81, 0.59, 1545.63, 837.53)">r</text><text class="cls-8" transform="matrix(0.59, -0.81, 0.81, 0.59, 1547.2, 835.38)">a</text><text class="cls-8" transform="matrix(0.6, -0.8, 0.8, 0.6, 1549.61, 832.11)">z</text><text class="cls-8" transform="translate(1551.93 828.98) rotate(-53.3)">i</text><text class="cls-8" transform="translate(1553.03 827.51) rotate(-53.21)">l</text><text class="cls-8" transform="translate(1554.13 826.04) rotate(-53.13)">i</text><text class="cls-8" transform="translate(1555.24 824.56) rotate(-53)">a</text><text class="cls-8" transform="translate(1557.67 821.34) rotate(-52.81)">n</text><text class="cls-8" transform="matrix(0.61, -0.8, 0.8, 0.61, 1560.27, 817.91)"> </text><text class="cls-8" transform="translate(1561.55 816.23) rotate(-52.52)">C</text><polygon class="cls-4" points="1506.22 980.31 1515.24 976.06 1507.05 970.37 1506.22 980.31"/><path class="cls-7" d="M1541.35,986.42s82,13.2,172.06,1"/><polygon class="cls-4" points="1712.61 992.5 1720.51 986.42 1711.3 982.61 1712.61 992.5"/><path class="cls-7" d="M1799.82,986.42s77.19.32,77.19-61.13c0-57.93-15.31-148.51-43.88-178.43"/><text class="cls-8" transform="translate(1853.49 824.22) rotate(77.7)">S</text><text class="cls-8" transform="matrix(0.2, 0.98, -0.98, 0.2, 1854.45, 828.61)">o</text><text class="cls-8" transform="matrix(0.19, 0.98, -0.98, 0.19, 1855.36, 833.02)">u</text><text class="cls-8" transform="matrix(0.19, 0.98, -0.98, 0.19, 1856.19, 837.24)">t</text><text class="cls-8" transform="translate(1856.71 840.01) rotate(79.74)">h</text><text class="cls-8" transform="translate(1857.48 844.25) rotate(80.12)"> </text><text class="cls-8" transform="matrix(0.16, 0.99, -0.99, 0.16, 1857.84, 846.31)">E</text><text class="cls-8" transform="translate(1858.61 850.92) rotate(81.05)">q</text><text class="cls-8" transform="matrix(0.15, 0.99, -0.99, 0.15, 1859.33, 855.51)">u</text><text class="cls-8" transform="translate(1859.97 859.77) rotate(82.01)">a</text><text class="cls-8" transform="matrix(0.13, 0.99, -0.99, 0.13, 1860.52, 863.72)">t</text><text class="cls-8" transform="translate(1860.88 866.43) rotate(82.78)">o</text><text class="cls-8" transform="translate(1861.45 870.9) rotate(83.18)">r</text><text class="cls-8" transform="matrix(0.11, 0.99, -0.99, 0.11, 1861.78, 873.7)">i</text><text class="cls-8" transform="translate(1861.99 875.51) rotate(83.76)">a</text><text class="cls-8" transform="translate(1862.43 879.56) rotate(84.09)">l</text><text class="cls-8" transform="translate(1862.62 881.38) rotate(84.44)">T</text><polygon class="cls-4" points="1837.5 744.25 1827.77 742.1 1830.78 751.61 1837.5 744.25"/><text/><text class="cls-8" transform="translate(1636.5 987.72)">South <tspan class="cls-10" x="22.55" y="0">A</tspan><tspan x="27.87" y="0">tlantic </tspan></text><path class="cls-7" d="M1542.35,643.29s165.24,4.3,225.38,17.78"/><polygon class="cls-4" points="1765.12 665.61 1774.69 662.8 1767.47 655.92 1765.12 665.61"/><text class="cls-8" transform="translate(1647.22 640) rotate(3.61)">C</text><text class="cls-8" transform="translate(1652.29 640.32) rotate(3.72)">o</text><text class="cls-8" transform="translate(1656.82 640.61) rotate(3.83)">u</text><text class="cls-8" transform="translate(1661.11 640.9) rotate(3.94)">n</text><text class="cls-8" transform="matrix(1, 0.07, -0.07, 1, 1665.43, 641.2)">t</text><text class="cls-8" transform="translate(1668.14 641.39) rotate(4.13)">e</text><text class="cls-8" transform="translate(1672.27 641.69) rotate(4.23)">r</text><text class="cls-8" transform="translate(1675.11 641.9) rotate(4.3)"> </text><text class="cls-8" transform="translate(1677.2 642.05) rotate(4.41)">E</text><text class="cls-8" transform="translate(1681.85 642.41) rotate(4.56)">q</text><text class="cls-8" transform="translate(1686.51 642.78) rotate(4.72)">u</text><text class="cls-8" transform="translate(1690.82 643.14) rotate(4.87)">a</text><text class="cls-8" transform="translate(1694.82 643.48) rotate(5)">t</text><text class="cls-8" transform="translate(1697.52 643.72) rotate(5.15)">o</text><text class="cls-8" transform="matrix(1, 0.09, -0.09, 1, 1702.03, 644.12)">r</text><text class="cls-8" transform="translate(1704.85 644.39) rotate(5.42)">i</text><text class="cls-8" transform="translate(1706.66 644.56) rotate(5.55)">a</text><text class="cls-8" transform="translate(1710.69 644.95) rotate(5.7)">l</text><text class="cls-8" transform="matrix(0.99, 0.1, -0.1, 0.99, 1712.53, 645.13)"> </text></g><g id="Layer_7" data-name="Layer 7"><text class="cls-6"/><text class="cls-6"/><text/></g></g></svg>