<svg xmlns="http://www.w3.org/2000/svg" viewBox="0 0 240 131.5"><defs><style>.cls-1{opacity:0.2;}.cls-2{fill:#eb621d;}.cls-3{opacity:0.4;}.cls-4{opacity:0.7;}.cls-5{opacity:0.9;}.cls-6{fill:#f0f0f0;}</style></defs><title>Asset 2</title><g id="Layer_2" data-name="Layer 2"><g id="Layer_2-2" data-name="Layer 2"><g class="cls-1"><rect class="cls-2" y="16.96" width="60" height="48"/></g><g class="cls-3"><rect class="cls-2" x="60" y="16.96" width="60" height="48"/></g><g class="cls-4"><rect class="cls-2" x="120" y="16.96" width="60" height="48"/></g><g class="cls-5"><rect class="cls-2" x="180" y="16.96" width="60" height="48"/></g><path class="cls-6" d="M7.18,74.21a4.67,4.67,0,0,1-.71,1.39,3.53,3.53,0,0,1-1.13.94,3.09,3.09,0,0,1-1.46.35,3.1,3.1,0,0,1-1.47-.35,3.34,3.34,0,0,1-1.12-.93,4.49,4.49,0,0,1-.7-1.38,5.77,5.77,0,0,1,0-3.36,4.42,4.42,0,0,1,.72-1.38,3.28,3.28,0,0,1,1.12-.94A3,3,0,0,1,3.9,68.2a3.05,3.05,0,0,1,1.46.34,3.37,3.37,0,0,1,1.12.94,4.29,4.29,0,0,1,.71,1.38,5.67,5.67,0,0,1,.24,1.67A5.47,5.47,0,0,1,7.18,74.21Zm-.91-3a3.55,3.55,0,0,0-.52-1.11,2.58,2.58,0,0,0-.81-.77,2,2,0,0,0-1.06-.29,2.1,2.1,0,0,0-1.06.28A2.55,2.55,0,0,0,2,70.1a3.71,3.71,0,0,0-.51,1.1,5,5,0,0,0,0,2.66A3.5,3.5,0,0,0,2,75a2.58,2.58,0,0,0,.82.76A2,2,0,0,0,3.9,76,2.06,2.06,0,0,0,5,75.74a2.63,2.63,0,0,0,.8-.76,3.36,3.36,0,0,0,.5-1.1,4.8,4.8,0,0,0,.18-1.33A4.78,4.78,0,0,0,6.27,71.23Z"/><path class="cls-6" d="M8.86,76.74V75.48H10v1.26Z"/><path class="cls-6" d="M12.67,68.28h.7v8.46h-.95V69.27l-1.58.49L10.61,69Z"/><path class="cls-6" d="M60.16,68.28h.7v8.46h-1V69.27l-1.58.49L58.1,69Z"/><path class="cls-6" d="M118.45,68.28h.7v8.46h-.94V69.27l-1.59.49-.23-.77Z"/><path class="cls-6" d="M127.94,74.21a4.47,4.47,0,0,1-.72,1.39,3.5,3.5,0,0,1-1.12.94,3.12,3.12,0,0,1-1.46.35,3.07,3.07,0,0,1-1.47-.35,3.34,3.34,0,0,1-1.12-.93,4.51,4.51,0,0,1-.71-1.38,5.73,5.73,0,0,1-.24-1.68,5.47,5.47,0,0,1,.25-1.68,4.4,4.4,0,0,1,.71-1.38,3.37,3.37,0,0,1,1.12-.94,3.3,3.3,0,0,1,2.94,0,3.34,3.34,0,0,1,1.11.94,4.1,4.1,0,0,1,.71,1.38,5.36,5.36,0,0,1,.25,1.67A5.79,5.79,0,0,1,127.94,74.21Zm-.92-3a3.77,3.77,0,0,0-.51-1.11,2.81,2.81,0,0,0-.81-.77,2,2,0,0,0-1.06-.29,2.13,2.13,0,0,0-1.07.28,2.63,2.63,0,0,0-.8.76,3.71,3.71,0,0,0-.51,1.1,5,5,0,0,0,0,2.66,3.5,3.5,0,0,0,.52,1.12,2.55,2.55,0,0,0,.81.76,2.06,2.06,0,0,0,1.07.28,2,2,0,0,0,1.06-.28,2.55,2.55,0,0,0,.81-.76,3.58,3.58,0,0,0,.5-1.1,5.1,5.1,0,0,0,0-2.65Z"/><path class="cls-6" d="M178.12,68.28h.7v8.46h-.94V69.27l-1.59.49-.23-.77Z"/><path class="cls-6" d="M187.61,74.21a4.47,4.47,0,0,1-.72,1.39,3.5,3.5,0,0,1-1.12.94,3.12,3.12,0,0,1-1.46.35,3.07,3.07,0,0,1-1.47-.35,3.34,3.34,0,0,1-1.12-.93,4.51,4.51,0,0,1-.71-1.38,5.73,5.73,0,0,1-.24-1.68,5.47,5.47,0,0,1,.25-1.68,4.62,4.62,0,0,1,.71-1.38,3.41,3.41,0,0,1,1.13-.94,3,3,0,0,1,1.47-.35,3.08,3.08,0,0,1,1.46.34,3.37,3.37,0,0,1,1.12.94,4.27,4.27,0,0,1,.7,1.38,5.36,5.36,0,0,1,.25,1.67A5.47,5.47,0,0,1,187.61,74.21Zm-.91-3a3.79,3.79,0,0,0-.52-1.11,2.58,2.58,0,0,0-.81-.77,2,2,0,0,0-1.06-.29,2.1,2.1,0,0,0-1.06.28,2.55,2.55,0,0,0-.81.76,3.71,3.71,0,0,0-.51,1.1,5,5,0,0,0,0,2.66,3.5,3.5,0,0,0,.52,1.12,2.55,2.55,0,0,0,.81.76,2.06,2.06,0,0,0,1.07.28,2,2,0,0,0,1.06-.28,2.55,2.55,0,0,0,.81-.76,3.58,3.58,0,0,0,.5-1.1,5.25,5.25,0,0,0,0-2.65Z"/><path class="cls-6" d="M196.19,74.21a4.47,4.47,0,0,1-.72,1.39,3.39,3.39,0,0,1-1.12.94,3.12,3.12,0,0,1-1.46.35,3.07,3.07,0,0,1-1.47-.35,3.34,3.34,0,0,1-1.12-.93,4.51,4.51,0,0,1-.71-1.38,5.73,5.73,0,0,1-.24-1.68,5.47,5.47,0,0,1,.25-1.68,4.62,4.62,0,0,1,.71-1.38,3.41,3.41,0,0,1,1.13-.94,3,3,0,0,1,1.47-.35,3.08,3.08,0,0,1,1.46.34,3.37,3.37,0,0,1,1.12.94,4.27,4.27,0,0,1,.7,1.38,5.36,5.36,0,0,1,.25,1.67A5.47,5.47,0,0,1,196.19,74.21Zm-.91-3a3.79,3.79,0,0,0-.52-1.11,2.58,2.58,0,0,0-.81-.77,2,2,0,0,0-1.06-.29,2.1,2.1,0,0,0-1.06.28,2.55,2.55,0,0,0-.81.76,3.71,3.71,0,0,0-.51,1.1,5,5,0,0,0,0,2.66A3.5,3.5,0,0,0,191,75a2.55,2.55,0,0,0,.81.76,2.06,2.06,0,0,0,1.07.28,2,2,0,0,0,1.06-.28,2.55,2.55,0,0,0,.81-.76,3.36,3.36,0,0,0,.5-1.1,5,5,0,0,0,0-2.65Z"/><path class="cls-6" d="M4,100.76h-1V93.24H.27v-.88H6.86v.88H4Z"/><path class="cls-6" d="M9.23,100.76H8.31V92h.92v3.64a2.8,2.8,0,0,1,.82-.86,2.19,2.19,0,0,1,1.31-.36,2.62,2.62,0,0,1,1,.18,2,2,0,0,1,.74.51,2.24,2.24,0,0,1,.47.79,2.93,2.93,0,0,1,.16,1v3.85h-.92V97.14a2,2,0,0,0-.45-1.37,1.59,1.59,0,0,0-1.27-.51,2,2,0,0,0-.74.14,1.81,1.81,0,0,0-.59.4,1.72,1.72,0,0,0-.39.62,2.22,2.22,0,0,0-.14.79Z"/><path class="cls-6" d="M16.5,98.89a2.21,2.21,0,0,0,.5.66,2,2,0,0,0,.67.41,2.29,2.29,0,0,0,.78.14,2.39,2.39,0,0,0,1.11-.24,3,3,0,0,0,.84-.64l.58.52a4,4,0,0,1-1.07.85,3.16,3.16,0,0,1-1.49.31,3.05,3.05,0,0,1-1.2-.23,3.13,3.13,0,0,1-1-.66,3.06,3.06,0,0,1-.67-1,3.34,3.34,0,0,1-.25-1.32,3.52,3.52,0,0,1,.22-1.26,3,3,0,0,1,.62-1,2.58,2.58,0,0,1,.94-.69,2.76,2.76,0,0,1,1.19-.26,2.85,2.85,0,0,1,1.23.26,2.74,2.74,0,0,1,.91.7A3.11,3.11,0,0,1,21,96.43a4.13,4.13,0,0,1,.19,1.28v.13a.92.92,0,0,1,0,.16H16.26A2.9,2.9,0,0,0,16.5,98.89Zm3.74-1.57a3.66,3.66,0,0,0-.18-.81,2.2,2.2,0,0,0-.38-.67,1.78,1.78,0,0,0-.59-.46,1.8,1.8,0,0,0-.82-.18,1.72,1.72,0,0,0-.75.17,1.76,1.76,0,0,0-.61.44,2.2,2.2,0,0,0-.43.67,3,3,0,0,0-.22.84Z"/><path class="cls-6" d="M32.39,100.53a4.81,4.81,0,0,1-1.93.37,4.56,4.56,0,0,1-1.78-.33,4,4,0,0,1-2.2-2.31,4.92,4.92,0,0,1-.29-1.69,4.6,4.6,0,0,1,.3-1.65,4.44,4.44,0,0,1,.86-1.4,4.14,4.14,0,0,1,1.33-1,4,4,0,0,1,1.72-.35,5.9,5.9,0,0,1,1,.07,4.79,4.79,0,0,1,.81.21,4.3,4.3,0,0,1,.71.36,7,7,0,0,1,.64.47l-.61.72a6.12,6.12,0,0,0-.5-.39,5.12,5.12,0,0,0-.57-.3,4.18,4.18,0,0,0-.68-.2,4.89,4.89,0,0,0-.81-.07,2.89,2.89,0,0,0-1.28.28,3.11,3.11,0,0,0-1,.74,3.58,3.58,0,0,0-.66,1.1,3.75,3.75,0,0,0-.24,1.34,3.92,3.92,0,0,0,.24,1.4,3.22,3.22,0,0,0,.66,1.12,3.14,3.14,0,0,0,1.05.73,3.33,3.33,0,0,0,1.38.26,3.76,3.76,0,0,0,1.35-.24,4.16,4.16,0,0,0,1.07-.6v-2.1H30.36v-.84h3.47v3.34A5.38,5.38,0,0,1,32.39,100.53Z"/><path class="cls-6" d="M42,96.24a2.47,2.47,0,0,1-.71.86,3,3,0,0,1-1.05.52A4.43,4.43,0,0,1,39,97.8h-2v3H36v-8.4h3.14a4.06,4.06,0,0,1,1.29.19,3.06,3.06,0,0,1,1,.52,2.27,2.27,0,0,1,.63.84A2.75,2.75,0,0,1,42.26,95,2.59,2.59,0,0,1,42,96.24Zm-1.3-2.54a2.66,2.66,0,0,0-1.64-.46H36.92v3.69H39a3.1,3.1,0,0,0,.94-.13,2.16,2.16,0,0,0,.74-.38,1.68,1.68,0,0,0,.47-.59,1.84,1.84,0,0,0,.16-.76A1.61,1.61,0,0,0,40.69,93.7Z"/><path class="cls-6" d="M49.81,100.53a4.75,4.75,0,0,1-1.93.37,4.59,4.59,0,0,1-1.78-.33,4,4,0,0,1-1.34-.93,3.9,3.9,0,0,1-.85-1.38,4.69,4.69,0,0,1-.3-1.69,4.4,4.4,0,0,1,.31-1.65,4.27,4.27,0,0,1,.86-1.4,4.09,4.09,0,0,1,1.32-1,4,4,0,0,1,1.72-.35,5.74,5.74,0,0,1,1,.07,5.18,5.18,0,0,1,.82.21,4.2,4.2,0,0,1,.7.36,7.11,7.11,0,0,1,.65.47l-.62.72a4.78,4.78,0,0,0-.5-.39,3.81,3.81,0,0,0-.57-.3,4.06,4.06,0,0,0-.67-.2,5.09,5.09,0,0,0-.81-.07,2.93,2.93,0,0,0-1.29.28,3.07,3.07,0,0,0-1,.74,3.58,3.58,0,0,0-.66,1.1,3.75,3.75,0,0,0-.24,1.34,3.92,3.92,0,0,0,.23,1.4,3.41,3.41,0,0,0,.67,1.12,3,3,0,0,0,1,.73,3.4,3.4,0,0,0,1.38.26,3.85,3.85,0,0,0,1.36-.24,4.09,4.09,0,0,0,1.06-.6v-2.1H47.79v-.84h3.47v3.34A5.6,5.6,0,0,1,49.81,100.53Z"/><path class="cls-6" d="M59.42,96.24a2.61,2.61,0,0,1-.72.86,3,3,0,0,1-1.05.52,4.38,4.38,0,0,1-1.27.18h-2v3h-1v-8.4h3.15a4.06,4.06,0,0,1,1.29.19,3,3,0,0,1,1,.52,2.3,2.3,0,0,1,.64.84A2.75,2.75,0,0,1,59.68,95,2.71,2.71,0,0,1,59.42,96.24ZM58.11,93.7a2.66,2.66,0,0,0-1.64-.46H54.34v3.69h2.08a3.16,3.16,0,0,0,.95-.13,2.11,2.11,0,0,0,.73-.38,1.58,1.58,0,0,0,.47-.59,1.7,1.7,0,0,0,.16-.76A1.58,1.58,0,0,0,58.11,93.7Z"/><path class="cls-6" d="M65.78,100.76h-.93V92h.93v3.64a2.77,2.77,0,0,1,.81-.86,2.21,2.21,0,0,1,1.31-.36,2.59,2.59,0,0,1,1,.18,2.17,2.17,0,0,1,.75.51,2.22,2.22,0,0,1,.46.79,2.93,2.93,0,0,1,.17,1v3.85h-.93V97.14a2,2,0,0,0-.44-1.37,1.6,1.6,0,0,0-1.27-.51,2,2,0,0,0-.74.14,1.75,1.75,0,0,0-.6.4,1.85,1.85,0,0,0-.38.62,2,2,0,0,0-.14.79Z"/><path class="cls-6" d="M78.08,98.91a3.26,3.26,0,0,1-1.71,1.74,3.26,3.26,0,0,1-1.29.25,3.19,3.19,0,0,1-1.29-.25,3.49,3.49,0,0,1-1-.7,3,3,0,0,1-.67-1,3.22,3.22,0,0,1-.24-1.24,3.36,3.36,0,0,1,.24-1.26,3.26,3.26,0,0,1,5.32-1,3.07,3.07,0,0,1,.67,1,3.31,3.31,0,0,1,.24,1.25A3.18,3.18,0,0,1,78.08,98.91Zm-.87-2.19a2.47,2.47,0,0,0-.49-.77,2.37,2.37,0,0,0-.73-.52,2.15,2.15,0,0,0-.91-.19,2.18,2.18,0,0,0-.93.19,1.93,1.93,0,0,0-.71.51,2.39,2.39,0,0,0-.46.77,2.42,2.42,0,0,0-.17.94,2.66,2.66,0,0,0,.17.94,2.51,2.51,0,0,0,.48.77,2.34,2.34,0,0,0,.73.51,2.12,2.12,0,0,0,.91.19,2.29,2.29,0,0,0,.92-.18,2.15,2.15,0,0,0,1.19-1.27,2.66,2.66,0,0,0,.17-.94A2.71,2.71,0,0,0,77.21,96.72Z"/><path class="cls-6" d="M80.08,100.76V92H81v8.76Z"/><path class="cls-6" d="M88.13,100.76V99.51a5.43,5.43,0,0,1-.42.53,2.48,2.48,0,0,1-.53.44,2.22,2.22,0,0,1-.64.3,2.41,2.41,0,0,1-.78.11,3,3,0,0,1-1.1-.21,3.1,3.1,0,0,1-.94-.63A3.2,3.2,0,0,1,83,99a3.85,3.85,0,0,1,0-2.73,3.2,3.2,0,0,1,.68-1,2.93,2.93,0,0,1,.94-.63,2.8,2.8,0,0,1,1.89-.12,2.74,2.74,0,0,1,.65.29,3,3,0,0,1,.52.42,4.72,4.72,0,0,1,.41.5V92h.93v8.76ZM88,96.67a2.29,2.29,0,0,0-.5-.75,2.16,2.16,0,0,0-.72-.48,2,2,0,0,0-.84-.18,2.42,2.42,0,0,0-.85.16,2.17,2.17,0,0,0-.69.47,2.34,2.34,0,0,0-.47.75,2.93,2.93,0,0,0-.17,1,2.78,2.78,0,0,0,.17,1,2.35,2.35,0,0,0,.48.76,2.09,2.09,0,0,0,1.53.65,2.21,2.21,0,0,0,.84-.17,2.52,2.52,0,0,0,.72-.48,2.24,2.24,0,0,0,.5-.76,2.46,2.46,0,0,0,.19-1A2.41,2.41,0,0,0,88,96.67Z"/><path class="cls-6" d="M95.21,99.81a1.86,1.86,0,0,1-1.17.94,2.73,2.73,0,0,1-.87.13,3.79,3.79,0,0,1-1.35-.25A4.22,4.22,0,0,1,90.6,100l.47-.66a4.59,4.59,0,0,0,1.05.59,3.28,3.28,0,0,0,1.1.2,1.54,1.54,0,0,0,.92-.26.86.86,0,0,0,.36-.72v0a.65.65,0,0,0-.12-.39,1.24,1.24,0,0,0-.34-.3,2.89,2.89,0,0,0-.5-.22L93,98l-.73-.23a3.36,3.36,0,0,1-.66-.32,1.57,1.57,0,0,1-.48-.48,1.33,1.33,0,0,1-.19-.72v0a1.73,1.73,0,0,1,.16-.72,1.62,1.62,0,0,1,.44-.57,2.26,2.26,0,0,1,.67-.36,2.86,2.86,0,0,1,.85-.12,4,4,0,0,1,1.16.18,4.57,4.57,0,0,1,1.07.5l-.42.7a4,4,0,0,0-.91-.44,2.76,2.76,0,0,0-.93-.16,1.29,1.29,0,0,0-.87.26.77.77,0,0,0-.33.64v0a.62.62,0,0,0,.13.38,1.15,1.15,0,0,0,.36.28,4.11,4.11,0,0,0,.51.22l.6.19c.24.07.48.15.71.24a2.6,2.6,0,0,1,.64.34,1.57,1.57,0,0,1,.47.49,1.41,1.41,0,0,1,.17.71v0A1.8,1.8,0,0,1,95.21,99.81Z"/><path class="cls-6" d="M108.74,98.21a4.38,4.38,0,0,1-.88,1.39,4.27,4.27,0,0,1-1.36,1,4.15,4.15,0,0,1-1.75.35,4.25,4.25,0,0,1-1.74-.34,4.12,4.12,0,0,1-1.35-1,4,4,0,0,1-.87-1.38,4.48,4.48,0,0,1,.88-4.71,4.45,4.45,0,0,1,4.85-1,4.12,4.12,0,0,1,1.35,1,4,4,0,0,1,.87,1.38,4.38,4.38,0,0,1,.31,1.66A4.62,4.62,0,0,1,108.74,98.21Zm-.92-3a3.47,3.47,0,0,0-.69-1.11,3.39,3.39,0,0,0-1-.74,3.11,3.11,0,0,0-1.33-.28,3.18,3.18,0,0,0-1.32.27,3.13,3.13,0,0,0-1,.74,3.34,3.34,0,0,0-.68,1.1,3.77,3.77,0,0,0,0,2.7A3.16,3.16,0,0,0,102.4,99a3.39,3.39,0,0,0,1,.74,3.08,3.08,0,0,0,1.33.28,3.18,3.18,0,0,0,1.32-.27,3.13,3.13,0,0,0,1-.74,3.52,3.52,0,0,0,.68-1.1,3.92,3.92,0,0,0,0-2.7Z"/><path class="cls-6" d="M115.16,100.56a2.86,2.86,0,0,1-1.47.34,3.08,3.08,0,0,1-1.26-.25,3.32,3.32,0,0,1-1-.7,3,3,0,0,1-.67-1,3.22,3.22,0,0,1-.24-1.24,3.36,3.36,0,0,1,.24-1.26,3.26,3.26,0,0,1,.67-1,3.15,3.15,0,0,1,1-.7,3.09,3.09,0,0,1,1.26-.26,3.35,3.35,0,0,1,.81.09,2.71,2.71,0,0,1,.66.23,3.25,3.25,0,0,1,.55.36,4.79,4.79,0,0,1,.47.43l-.62.65a3.66,3.66,0,0,0-.81-.66,1.92,1.92,0,0,0-1.07-.28,2.05,2.05,0,0,0-.88.19,2,2,0,0,0-.7.51,2.42,2.42,0,0,0-.47.77,2.62,2.62,0,0,0-.17.94,2.66,2.66,0,0,0,.17.94,2.51,2.51,0,0,0,.48.77,2.45,2.45,0,0,0,.72.52,2.27,2.27,0,0,0,.91.18,2.06,2.06,0,0,0,1.06-.26,3.82,3.82,0,0,0,.84-.66l.58.55A4,4,0,0,1,115.16,100.56Z"/><path class="cls-6" d="M118.37,98.89a2.19,2.19,0,0,0,.49.66,2.06,2.06,0,0,0,.68.41,2.21,2.21,0,0,0,.78.14,2.39,2.39,0,0,0,1.11-.24,3.18,3.18,0,0,0,.84-.64l.58.52a4,4,0,0,1-1.07.85,3.19,3.19,0,0,1-1.49.31,3.05,3.05,0,0,1-1.2-.23,3.3,3.3,0,0,1-1-.66,3.22,3.22,0,0,1-.67-1,3.59,3.59,0,0,1,0-2.58,3,3,0,0,1,.61-1,2.7,2.7,0,0,1,1-.69,2.76,2.76,0,0,1,1.19-.26,2.75,2.75,0,0,1,2.14,1,3.3,3.3,0,0,1,.56,1.05,4.13,4.13,0,0,1,.19,1.28v.13a.92.92,0,0,1,0,.16h-4.91A2.43,2.43,0,0,0,118.37,98.89Zm3.73-1.57a3.16,3.16,0,0,0-.17-.81,2.2,2.2,0,0,0-.38-.67,1.84,1.84,0,0,0-1.41-.64,1.76,1.76,0,0,0-.76.17,1.73,1.73,0,0,0-.6.44,2.2,2.2,0,0,0-.43.67,2.47,2.47,0,0,0-.22.84Z"/><path class="cls-6" d="M125.91,95.41a7.2,7.2,0,0,0-.88.33l-.27-.75a5.92,5.92,0,0,1,1-.38,4.91,4.91,0,0,1,1.21-.14,2.8,2.8,0,0,1,2,.63,2.43,2.43,0,0,1,.68,1.87v3.79h-.89v-.94a3,3,0,0,1-.87.75,2.7,2.7,0,0,1-1.37.32,3.06,3.06,0,0,1-.85-.12,2.42,2.42,0,0,1-.74-.36,1.93,1.93,0,0,1-.53-.61,1.75,1.75,0,0,1-.2-.85,1.86,1.86,0,0,1,.2-.87,1.72,1.72,0,0,1,.54-.63,2.71,2.71,0,0,1,.84-.39,4.5,4.5,0,0,1,1.08-.13,6,6,0,0,1,1.9.27V97a1.62,1.62,0,0,0-.48-1.27,2,2,0,0,0-1.36-.42A3.94,3.94,0,0,0,125.91,95.41ZM125.62,98a1.14,1.14,0,0,0-.47,1,1,1,0,0,0,.13.53,1.14,1.14,0,0,0,.34.39,1.62,1.62,0,0,0,.49.25,2.42,2.42,0,0,0,1.4,0,2.16,2.16,0,0,0,.66-.34,1.58,1.58,0,0,0,.44-.53,1.43,1.43,0,0,0,.17-.68v-.6l-.8-.18a5.28,5.28,0,0,0-1-.08A2.23,2.23,0,0,0,125.62,98Z"/><path class="cls-6" d="M132.54,100.76h-.92v-6.2h.92v1.08a2.8,2.8,0,0,1,.82-.86,2.21,2.21,0,0,1,1.31-.36,2.62,2.62,0,0,1,1,.18,2,2,0,0,1,.74.51,2.24,2.24,0,0,1,.47.79,2.93,2.93,0,0,1,.16,1v3.85h-.92V97.14a2,2,0,0,0-.44-1.37,1.61,1.61,0,0,0-1.28-.51,1.94,1.94,0,0,0-.73.14,1.75,1.75,0,0,0-.6.4,1.72,1.72,0,0,0-.39.62,2.22,2.22,0,0,0-.14.79Z"/><path class="cls-6" d="M148.62,99a3,3,0,0,1-.66,1,2.9,2.9,0,0,1-1,.64,2.81,2.81,0,0,1-1.1.22,2.48,2.48,0,0,1-.79-.11,2.55,2.55,0,0,1-.65-.28,3,3,0,0,1-.52-.42,3.27,3.27,0,0,1-.41-.51v3.11h-.93V94.56h.93V95.8a4.15,4.15,0,0,1,.42-.52,2.7,2.7,0,0,1,.52-.44,2.41,2.41,0,0,1,.65-.3,2.37,2.37,0,0,1,.78-.12,3,3,0,0,1,1.09.22,2.82,2.82,0,0,1,.95.63,3,3,0,0,1,.67,1,3.74,3.74,0,0,1,0,2.74Zm-.87-2.35a2.22,2.22,0,0,0-.47-.75,1.89,1.89,0,0,0-.7-.49,2.14,2.14,0,0,0-.84-.17,2,2,0,0,0-.83.18,2.16,2.16,0,0,0-.72.48,2.29,2.29,0,0,0-.5.75,2.41,2.41,0,0,0-.19,1,2.46,2.46,0,0,0,.19,1,2.24,2.24,0,0,0,.5.76,2.52,2.52,0,0,0,.72.48,2.22,2.22,0,0,0,1.68,0,2,2,0,0,0,.7-.47,2.16,2.16,0,0,0,.46-.75,2.67,2.67,0,0,0,.18-1A2.64,2.64,0,0,0,147.75,96.67Z"/><path class="cls-6" d="M150.66,100.76V92h.93v8.76Z"/><path class="cls-6" d="M155,95.41a6.63,6.63,0,0,0-.88.33l-.28-.75a5.92,5.92,0,0,1,1-.38,4.93,4.93,0,0,1,1.22-.14,2.77,2.77,0,0,1,1.95.63,2.4,2.4,0,0,1,.69,1.87v3.79h-.89v-.94a3.23,3.23,0,0,1-.87.75,2.74,2.74,0,0,1-1.38.32,2.94,2.94,0,0,1-.84-.12,2.37,2.37,0,0,1-.75-.36,1.9,1.9,0,0,1-.52-.61,1.65,1.65,0,0,1-.2-.85,1.86,1.86,0,0,1,.19-.87,1.82,1.82,0,0,1,.54-.63,2.66,2.66,0,0,1,.85-.39,4.42,4.42,0,0,1,1.07-.13,7.62,7.62,0,0,1,1,.07,7.88,7.88,0,0,1,.87.2V97a1.59,1.59,0,0,0-.49-1.27,2,2,0,0,0-1.36-.42A3.86,3.86,0,0,0,155,95.41Zm-.3,2.55a1.22,1.22,0,0,0-.34,1.48,1.26,1.26,0,0,0,.34.39,1.67,1.67,0,0,0,.5.25,2.27,2.27,0,0,0,.59.08,2.37,2.37,0,0,0,.81-.13,2.29,2.29,0,0,0,.66-.34,1.86,1.86,0,0,0,.44-.53,1.42,1.42,0,0,0,.16-.68v-.6l-.8-.18a5.28,5.28,0,0,0-1-.08A2.23,2.23,0,0,0,154.68,98Z"/><path class="cls-6" d="M164.77,99.81a1.88,1.88,0,0,1-.47.58,2,2,0,0,1-.7.36,2.65,2.65,0,0,1-.87.13,3.83,3.83,0,0,1-1.35-.25,4,4,0,0,1-1.21-.66l.46-.66a4.45,4.45,0,0,0,1.06.59,3.22,3.22,0,0,0,1.09.2,1.57,1.57,0,0,0,.93-.26.86.86,0,0,0,.36-.72v0a.65.65,0,0,0-.13-.39,1.11,1.11,0,0,0-.34-.3,2.59,2.59,0,0,0-.5-.22l-.58-.18-.73-.23a3.36,3.36,0,0,1-.66-.32,1.83,1.83,0,0,1-.48-.48,1.33,1.33,0,0,1-.18-.72v0a1.72,1.72,0,0,1,.15-.72,1.75,1.75,0,0,1,.44-.57,2.26,2.26,0,0,1,.67-.36,2.86,2.86,0,0,1,.85-.12,4,4,0,0,1,1.16.18,4.57,4.57,0,0,1,1.07.5l-.42.7a4,4,0,0,0-.91-.44,2.76,2.76,0,0,0-.93-.16,1.33,1.33,0,0,0-.87.26.77.77,0,0,0-.33.64v0a.57.57,0,0,0,.14.38,1,1,0,0,0,.35.28,4.11,4.11,0,0,0,.51.22l.6.19.72.24a3,3,0,0,1,.64.34,1.65,1.65,0,0,1,.46.49,1.41,1.41,0,0,1,.17.71v0A1.8,1.8,0,0,1,164.77,99.81Z"/><path class="cls-6" d="M167.79,99a1,1,0,0,0,.28.8,1.23,1.23,0,0,0,.76.23,2.14,2.14,0,0,0,.45,0,1.94,1.94,0,0,0,.45-.17v.79a1.87,1.87,0,0,1-.51.2,2.27,2.27,0,0,1-.61.07,2.21,2.21,0,0,1-.69-.1,1.38,1.38,0,0,1-.56-.3,1.44,1.44,0,0,1-.37-.55,2.35,2.35,0,0,1-.13-.8V95.37H166v-.81h.86V92.68h.93v1.88h2v.81h-2Z"/><path class="cls-6" d="M171.41,93.2v-1h1.06v1Zm.06,7.56v-6.2h.92v6.2Z"/><path class="cls-6" d="M178.81,100.56a2.91,2.91,0,0,1-1.47.34,3.13,3.13,0,0,1-1.27-.25,3.44,3.44,0,0,1-1-.7,3.14,3.14,0,0,1-.66-1,3.22,3.22,0,0,1-.24-1.24,3.36,3.36,0,0,1,.24-1.26,3.41,3.41,0,0,1,.66-1,3.26,3.26,0,0,1,1-.7,3.13,3.13,0,0,1,1.27-.26,3.32,3.32,0,0,1,.8.09,2.71,2.71,0,0,1,.66.23,2.61,2.61,0,0,1,.55.36,3.87,3.87,0,0,1,.47.43l-.61.65a4.18,4.18,0,0,0-.81-.66,1.92,1.92,0,0,0-1.07-.28,2,2,0,0,0-.88.19,2.11,2.11,0,0,0-.71.51,2.46,2.46,0,0,0-.63,1.71,2.45,2.45,0,0,0,.17.94,2.51,2.51,0,0,0,.48.77,2.22,2.22,0,0,0,.72.52,2.27,2.27,0,0,0,.91.18,2.06,2.06,0,0,0,1.06-.26,3.77,3.77,0,0,0,.83-.66l.59.55A4.17,4.17,0,0,1,178.81,100.56Z"/><path class="cls-6" d="M5,115a2.91,2.91,0,0,1-1.47.34,3.13,3.13,0,0,1-1.27-.25,3.44,3.44,0,0,1-1-.7,3.14,3.14,0,0,1-.66-1,3.22,3.22,0,0,1-.24-1.24,3.36,3.36,0,0,1,.24-1.26,3.41,3.41,0,0,1,.66-1,3.26,3.26,0,0,1,1-.7,3.13,3.13,0,0,1,1.27-.26,3.32,3.32,0,0,1,.8.09,2.71,2.71,0,0,1,.66.23,2.61,2.61,0,0,1,.55.36,3.87,3.87,0,0,1,.47.43l-.61.65a4.18,4.18,0,0,0-.81-.66,1.92,1.92,0,0,0-1.07-.28,2,2,0,0,0-.88.19,2.11,2.11,0,0,0-.71.51,2.46,2.46,0,0,0-.63,1.71,2.45,2.45,0,0,0,.17.94,2.51,2.51,0,0,0,.48.77,2.08,2.08,0,0,0,.72.52,2.27,2.27,0,0,0,.91.18,2.06,2.06,0,0,0,1.06-.26,3.77,3.77,0,0,0,.83-.66l.59.55A4,4,0,0,1,5,115Z"/><path class="cls-6" d="M13.22,113.31a3.26,3.26,0,0,1-1.71,1.74,3.26,3.26,0,0,1-1.29.25,3.19,3.19,0,0,1-1.29-.25,3.49,3.49,0,0,1-1-.7,3,3,0,0,1-.67-1A3.22,3.22,0,0,1,7,112.08a3.36,3.36,0,0,1,.24-1.26,3.24,3.24,0,0,1,6,0,3.31,3.31,0,0,1,.24,1.25A3.18,3.18,0,0,1,13.22,113.31Zm-.87-2.19a2.47,2.47,0,0,0-.49-.77,2.37,2.37,0,0,0-.73-.52,2.15,2.15,0,0,0-.91-.19,2.18,2.18,0,0,0-.93.19,1.93,1.93,0,0,0-.71.51,2.39,2.39,0,0,0-.46.77,2.42,2.42,0,0,0-.17.94,2.66,2.66,0,0,0,.17.94,2.51,2.51,0,0,0,.48.77,2.34,2.34,0,0,0,.73.51,2.12,2.12,0,0,0,.91.19,2.29,2.29,0,0,0,.92-.18,2.05,2.05,0,0,0,.72-.51,2.37,2.37,0,0,0,.47-.76,2.62,2.62,0,0,0,.17-.94A2.75,2.75,0,0,0,12.35,111.12Z"/><path class="cls-6" d="M16.06,115.16h-.92V109h.92V110a2.8,2.8,0,0,1,.82-.86,2.17,2.17,0,0,1,1.3-.36,2.67,2.67,0,0,1,1,.18,2,2,0,0,1,.74.51,2.4,2.4,0,0,1,.47.79,2.93,2.93,0,0,1,.16,1v3.85h-.92v-3.62a2,2,0,0,0-.45-1.37,1.59,1.59,0,0,0-1.27-.51,2,2,0,0,0-.74.14,1.76,1.76,0,0,0-1,1,2.22,2.22,0,0,0-.14.79Z"/><path class="cls-6" d="M26.79,115a2.86,2.86,0,0,1-1.47.34,3.12,3.12,0,0,1-1.26-.25,3.32,3.32,0,0,1-1-.7,3.16,3.16,0,0,1-.67-1,3.22,3.22,0,0,1-.24-1.24,3.36,3.36,0,0,1,.24-1.26,3.44,3.44,0,0,1,.67-1,3.15,3.15,0,0,1,2.27-1,3.35,3.35,0,0,1,.81.09,2.71,2.71,0,0,1,.66.23,2.9,2.9,0,0,1,.55.36,4.79,4.79,0,0,1,.47.43l-.61.65a4.18,4.18,0,0,0-.81-.66,2,2,0,0,0-1.08-.28,2,2,0,0,0-.87.19,2,2,0,0,0-.71.51,2.42,2.42,0,0,0-.47.77,2.62,2.62,0,0,0-.17.94,2.46,2.46,0,0,0,.18.94,2.18,2.18,0,0,0,.48.77,2.08,2.08,0,0,0,.72.52,2.19,2.19,0,0,0,.9.18,2,2,0,0,0,1.06-.26,3.82,3.82,0,0,0,.84-.66l.59.55A4,4,0,0,1,26.79,115Z"/><path class="cls-6" d="M30,113.29a2.21,2.21,0,0,0,.5.66,2,2,0,0,0,.67.41,2.29,2.29,0,0,0,.78.14,2.39,2.39,0,0,0,1.11-.24,3,3,0,0,0,.84-.64l.58.52a4,4,0,0,1-1.07.85,3.16,3.16,0,0,1-1.49.31,3,3,0,0,1-1.19-.23,3,3,0,0,1-1.66-1.69,3.34,3.34,0,0,1-.25-1.32A3.52,3.52,0,0,1,29,110.8a3,3,0,0,1,.62-1,2.58,2.58,0,0,1,.94-.69,2.76,2.76,0,0,1,1.19-.26,2.85,2.85,0,0,1,1.23.26,2.74,2.74,0,0,1,.91.7,3.11,3.11,0,0,1,.56,1,4.13,4.13,0,0,1,.2,1.28v.13a1,1,0,0,1,0,.16h-4.9A2.64,2.64,0,0,0,30,113.29Zm3.74-1.57a3.17,3.17,0,0,0-.18-.81,2,2,0,0,0-.38-.67,1.78,1.78,0,0,0-.59-.46,1.8,1.8,0,0,0-.82-.18,1.72,1.72,0,0,0-.75.17,1.76,1.76,0,0,0-.61.44,2.2,2.2,0,0,0-.43.67,2.73,2.73,0,0,0-.21.84Z"/><path class="cls-6" d="M37.23,115.16h-.92V109h.92V110a2.89,2.89,0,0,1,.81-.86,2.23,2.23,0,0,1,1.31-.36,2.59,2.59,0,0,1,1,.18,2,2,0,0,1,.75.51,2.4,2.4,0,0,1,.47.79,3.19,3.19,0,0,1,.16,1v3.85h-.92v-3.62a2,2,0,0,0-.45-1.37,1.6,1.6,0,0,0-1.27-.51,2,2,0,0,0-.74.14,1.62,1.62,0,0,0-.59.4,1.72,1.72,0,0,0-.39.62,2,2,0,0,0-.14.79Z"/><path class="cls-6" d="M44.94,113.4a1,1,0,0,0,.29.8,1.21,1.21,0,0,0,.76.23,2.14,2.14,0,0,0,.45-.05,1.94,1.94,0,0,0,.45-.17V115a1.87,1.87,0,0,1-.51.2,2.27,2.27,0,0,1-.61.07,2.17,2.17,0,0,1-.69-.1,1.32,1.32,0,0,1-.56-.3,1.44,1.44,0,0,1-.37-.55,2.13,2.13,0,0,1-.13-.8v-3.75h-.86V109H44v-1.88h.92V109h2v.81h-2Z"/><path class="cls-6" d="M49.47,115.16h-.92V109h.92v1.62a3,3,0,0,1,.42-.71,2.8,2.8,0,0,1,.58-.56,2.3,2.3,0,0,1,.7-.35,2.53,2.53,0,0,1,.83-.11v1h-.07a2.51,2.51,0,0,0-1,.18,2.14,2.14,0,0,0-.79.54,2.65,2.65,0,0,0-.53.9,3.53,3.53,0,0,0-.19,1.23Z"/><path class="cls-6" d="M54.35,109.81a6.63,6.63,0,0,0-.88.33l-.28-.75a5.92,5.92,0,0,1,1-.38,4.93,4.93,0,0,1,1.22-.14,2.77,2.77,0,0,1,1.95.63,2.4,2.4,0,0,1,.69,1.87v3.79H57.2v-.94a3.23,3.23,0,0,1-.87.75,2.74,2.74,0,0,1-1.38.32,3,3,0,0,1-.84-.12,2.37,2.37,0,0,1-.75-.36,1.9,1.9,0,0,1-.52-.61,1.65,1.65,0,0,1-.2-.85,1.86,1.86,0,0,1,.19-.87,1.82,1.82,0,0,1,.54-.63,2.66,2.66,0,0,1,.85-.39,4.42,4.42,0,0,1,1.07-.13,7.62,7.62,0,0,1,1,.07,7.88,7.88,0,0,1,.87.2v-.22a1.59,1.59,0,0,0-.49-1.27,2,2,0,0,0-1.36-.42A3.86,3.86,0,0,0,54.35,109.81Zm-.3,2.55a1.22,1.22,0,0,0-.34,1.48,1.26,1.26,0,0,0,.34.39,1.67,1.67,0,0,0,.5.25,2.27,2.27,0,0,0,.59.08,2.37,2.37,0,0,0,.81-.13,2.29,2.29,0,0,0,.66-.34,1.86,1.86,0,0,0,.44-.53,1.42,1.42,0,0,0,.16-.68v-.6l-.8-.18a5.28,5.28,0,0,0-1-.08A2.23,2.23,0,0,0,54.05,112.36Z"/><path class="cls-6" d="M61.24,113.4a1,1,0,0,0,.29.8,1.19,1.19,0,0,0,.76.23,2.12,2.12,0,0,0,.44-.05,2.19,2.19,0,0,0,.46-.17V115a2.07,2.07,0,0,1-.52.2,2.2,2.2,0,0,1-.6.07,2.28,2.28,0,0,1-.7-.1,1.45,1.45,0,0,1-.56-.3,1.55,1.55,0,0,1-.36-.55,2.13,2.13,0,0,1-.13-.8v-3.75h-.87V109h.87v-1.88h.92V109h2v.81h-2Z"/><path class="cls-6" d="M64.86,107.6v-1h1.06v1Zm.06,7.56V109h.93v6.2Z"/><path class="cls-6" d="M73.83,113.31a3.27,3.27,0,0,1-.67,1,3.31,3.31,0,0,1-1,.71,3.26,3.26,0,0,1-1.29.25,3.23,3.23,0,0,1-1.29-.25,3.49,3.49,0,0,1-1-.7,3.16,3.16,0,0,1-.67-1,3.22,3.22,0,0,1-.24-1.24,3.36,3.36,0,0,1,.24-1.26,3.44,3.44,0,0,1,.67-1,3.24,3.24,0,0,1,1-.7,3.28,3.28,0,0,1,1.3-.26,3.2,3.2,0,0,1,1.29.26,3.24,3.24,0,0,1,1,.7,3.07,3.07,0,0,1,.67,1,3.31,3.31,0,0,1,.24,1.25A3.18,3.18,0,0,1,73.83,113.31ZM73,111.12a2.47,2.47,0,0,0-.49-.77,2.37,2.37,0,0,0-.73-.52,2.12,2.12,0,0,0-.91-.19,2.18,2.18,0,0,0-.93.19,2,2,0,0,0-.71.51,2.39,2.39,0,0,0-.46.77,2.62,2.62,0,0,0-.17.94,2.66,2.66,0,0,0,.17.94,2.51,2.51,0,0,0,.48.77,2.34,2.34,0,0,0,.73.51,2.12,2.12,0,0,0,.91.19,2.34,2.34,0,0,0,.93-.18,2.05,2.05,0,0,0,.72-.51A2.34,2.34,0,0,0,73,113a2.42,2.42,0,0,0,.17-.94A2.75,2.75,0,0,0,73,111.12Z"/><path class="cls-6" d="M76.67,115.16h-.92V109h.92V110a2.8,2.8,0,0,1,.82-.86,2.19,2.19,0,0,1,1.31-.36,2.62,2.62,0,0,1,1,.18,2,2,0,0,1,.74.51,2.24,2.24,0,0,1,.47.79,2.93,2.93,0,0,1,.16,1v3.85h-.92v-3.62a2,2,0,0,0-.45-1.37,1.59,1.59,0,0,0-1.27-.51,2,2,0,0,0-.74.14,1.81,1.81,0,0,0-.59.4,1.72,1.72,0,0,0-.39.62,2.22,2.22,0,0,0-.14.79Z"/><path class="cls-6" d="M87.23,114.21a1.86,1.86,0,0,1-1.17.94,2.73,2.73,0,0,1-.87.13,3.79,3.79,0,0,1-1.35-.25,4.22,4.22,0,0,1-1.22-.66l.47-.66a4.59,4.59,0,0,0,1,.59,3.28,3.28,0,0,0,1.1.2,1.54,1.54,0,0,0,.92-.26.86.86,0,0,0,.36-.72v0a.65.65,0,0,0-.12-.39,1.24,1.24,0,0,0-.34-.3,2.89,2.89,0,0,0-.5-.22L85,112.4l-.73-.23a3.36,3.36,0,0,1-.66-.32,1.57,1.57,0,0,1-.48-.48,1.33,1.33,0,0,1-.19-.72v0a1.73,1.73,0,0,1,.16-.72,1.62,1.62,0,0,1,.44-.57,2.26,2.26,0,0,1,.67-.36,2.86,2.86,0,0,1,.85-.12,4,4,0,0,1,1.16.18,4.57,4.57,0,0,1,1.07.5l-.42.7a4,4,0,0,0-.91-.44,2.76,2.76,0,0,0-.93-.16,1.29,1.29,0,0,0-.87.26.77.77,0,0,0-.33.64v0a.62.62,0,0,0,.13.38,1.15,1.15,0,0,0,.36.28,4.11,4.11,0,0,0,.51.22l.6.19c.24.07.48.15.71.24a2.6,2.6,0,0,1,.64.34,1.57,1.57,0,0,1,.47.49,1.41,1.41,0,0,1,.17.71v0A1.8,1.8,0,0,1,87.23,114.21Z"/><path class="cls-6" d="M93.64,115.16h-.92V109h.92v1.62a3,3,0,0,1,.42-.71,2.8,2.8,0,0,1,.58-.56,2.3,2.3,0,0,1,.7-.35,2.53,2.53,0,0,1,.83-.11v1H96.1a2.51,2.51,0,0,0-.95.18,2.14,2.14,0,0,0-.79.54,2.65,2.65,0,0,0-.53.9,3.53,3.53,0,0,0-.19,1.23Z"/><path class="cls-6" d="M98.52,109.81a6.63,6.63,0,0,0-.88.33l-.28-.75a5.92,5.92,0,0,1,1-.38,5,5,0,0,1,1.22-.14,2.77,2.77,0,0,1,1.95.63,2.4,2.4,0,0,1,.69,1.87v3.79h-.89v-.94a3.23,3.23,0,0,1-.87.75,2.74,2.74,0,0,1-1.38.32,3,3,0,0,1-.84-.12,2.37,2.37,0,0,1-.75-.36,1.9,1.9,0,0,1-.52-.61,1.65,1.65,0,0,1-.2-.85,1.86,1.86,0,0,1,.19-.87,1.75,1.75,0,0,1,.55-.63,2.51,2.51,0,0,1,.84-.39,4.42,4.42,0,0,1,1.07-.13,7.62,7.62,0,0,1,1,.07,7.88,7.88,0,0,1,.87.2v-.22a1.59,1.59,0,0,0-.49-1.27,2,2,0,0,0-1.36-.42A3.86,3.86,0,0,0,98.52,109.81Zm-.3,2.55a1.22,1.22,0,0,0-.34,1.48,1.26,1.26,0,0,0,.34.39,1.67,1.67,0,0,0,.5.25,2.27,2.27,0,0,0,.59.08,2.37,2.37,0,0,0,.81-.13,2.29,2.29,0,0,0,.66-.34,1.86,1.86,0,0,0,.44-.53,1.42,1.42,0,0,0,.16-.68v-.6l-.8-.18a5.21,5.21,0,0,0-1-.08A2.23,2.23,0,0,0,98.22,112.36Z"/><path class="cls-6" d="M105.15,115.16h-.93V109h.93V110a2.89,2.89,0,0,1,.81-.86,2.23,2.23,0,0,1,1.31-.36,2.59,2.59,0,0,1,1,.18,2.08,2.08,0,0,1,.75.51,2.4,2.4,0,0,1,.47.79,3.19,3.19,0,0,1,.16,1v3.85h-.93v-3.62a2,2,0,0,0-.44-1.37,1.6,1.6,0,0,0-1.27-.51,2,2,0,0,0-.74.14,1.62,1.62,0,0,0-.59.4,1.72,1.72,0,0,0-.39.62,2,2,0,0,0-.14.79Z"/><path class="cls-6" d="M117.3,115.4a2.42,2.42,0,0,1-.64.94,2.77,2.77,0,0,1-1,.57,4.15,4.15,0,0,1-1.31.19,5.14,5.14,0,0,1-1.48-.21,4.89,4.89,0,0,1-1.34-.65l.42-.72a4.53,4.53,0,0,0,1.13.59,4,4,0,0,0,1.26.2,2.33,2.33,0,0,0,1.65-.56,2.14,2.14,0,0,0,.61-1.65v-.73a4,4,0,0,1-1,.93,2.62,2.62,0,0,1-1.44.38,3,3,0,0,1-1.08-.2,2.78,2.78,0,0,1-.93-.57,2.92,2.92,0,0,1-.66-.92,3,3,0,0,1-.24-1.23,3.07,3.07,0,0,1,.24-1.23,2.87,2.87,0,0,1,1.59-1.5,2.92,2.92,0,0,1,1.88-.1,2.41,2.41,0,0,1,.66.27,2.59,2.59,0,0,1,.53.39,4,4,0,0,1,.44.48V109h.92v5.12A3.58,3.58,0,0,1,117.3,115.4Zm-.86-4.52a2.09,2.09,0,0,0-.51-.66,2.14,2.14,0,0,0-.73-.43,2.41,2.41,0,0,0-.85-.15,2.54,2.54,0,0,0-.83.14,2.2,2.2,0,0,0-.69.42,2.1,2.1,0,0,0-.46.67,2.21,2.21,0,0,0-.17.87,2.05,2.05,0,0,0,.18.87,2,2,0,0,0,.47.67,1.92,1.92,0,0,0,.68.43,2.25,2.25,0,0,0,.82.15,2.41,2.41,0,0,0,.85-.15,2.29,2.29,0,0,0,.73-.42,2.25,2.25,0,0,0,.51-.67,2.09,2.09,0,0,0,0-1.74Z"/><path class="cls-6" d="M119.61,107.6v-1h1v1Zm.06,7.56V109h.92v6.2Z"/><path class="cls-6" d="M123.66,115.16h-.92V109h.92V110a2.8,2.8,0,0,1,.82-.86,2.19,2.19,0,0,1,1.31-.36,2.62,2.62,0,0,1,1,.18,2,2,0,0,1,.74.51,2.24,2.24,0,0,1,.47.79,2.93,2.93,0,0,1,.16,1v3.85h-.92v-3.62a2,2,0,0,0-.45-1.37,1.57,1.57,0,0,0-1.27-.51,1.94,1.94,0,0,0-.73.14,1.75,1.75,0,0,0-.6.4,1.72,1.72,0,0,0-.39.62,2.22,2.22,0,0,0-.14.79Z"/><path class="cls-6" d="M135.81,115.4a2.4,2.4,0,0,1-.63.94,2.81,2.81,0,0,1-1,.57,4.08,4.08,0,0,1-1.3.19,5.21,5.21,0,0,1-1.49-.21,5,5,0,0,1-1.33-.65l.42-.72a4.36,4.36,0,0,0,1.13.59,4,4,0,0,0,1.26.2,2.3,2.3,0,0,0,1.64-.56,2.11,2.11,0,0,0,.61-1.65v-.73a4,4,0,0,1-1,.93,2.66,2.66,0,0,1-1.44.38,3.1,3.1,0,0,1-1.09-.2,2.78,2.78,0,0,1-.93-.57A2.89,2.89,0,0,1,130,113a2.85,2.85,0,0,1-.25-1.23,2.91,2.91,0,0,1,.25-1.23,2.79,2.79,0,0,1,.65-.92,2.75,2.75,0,0,1,.94-.58,2.88,2.88,0,0,1,1.08-.21,2.92,2.92,0,0,1,.8.11,2.41,2.41,0,0,1,.66.27,2.9,2.9,0,0,1,.53.39,3.89,3.89,0,0,1,.43.48V109H136v5.12A3.58,3.58,0,0,1,135.81,115.4Zm-.85-4.52a2.09,2.09,0,0,0-.51-.66,2.34,2.34,0,0,0-.73-.43,2.45,2.45,0,0,0-.85-.15,2.55,2.55,0,0,0-.84.14,2,2,0,0,0-.68.42,2,2,0,0,0-.46.67,2,2,0,0,0-.17.87,2.21,2.21,0,0,0,.17.87,2.31,2.31,0,0,0,.47.67,2.12,2.12,0,0,0,.68.43,2.34,2.34,0,0,0,.83.15,2.45,2.45,0,0,0,.85-.15,2.53,2.53,0,0,0,.73-.42,2.25,2.25,0,0,0,.51-.67,2.09,2.09,0,0,0,0-1.74Z"/><path class="cls-6" d="M3.94,123.38v.79H2v5.39H1.06v-5.39H.21v-.8h.85v-.54a2.19,2.19,0,0,1,.49-1.55,1.78,1.78,0,0,1,1.38-.53,3.06,3.06,0,0,1,.56,0,1.83,1.83,0,0,1,.46.12v.8l-.45-.11a2.15,2.15,0,0,0-.45,0Q2,121.56,2,122.88v.5Z"/><path class="cls-6" d="M6,129.56H5.12v-6.2H6V125a3,3,0,0,1,.42-.71,2.8,2.8,0,0,1,.58-.56,2.3,2.3,0,0,1,.7-.35,2.53,2.53,0,0,1,.83-.11v1H8.5a2.51,2.51,0,0,0-1,.18,2.14,2.14,0,0,0-.79.54,2.65,2.65,0,0,0-.53.9A3.53,3.53,0,0,0,6,127.09Z"/><path class="cls-6" d="M15.55,127.71a3.13,3.13,0,0,1-.68,1,3.14,3.14,0,0,1-2.33,1,3.18,3.18,0,0,1-1.28-.25,3.49,3.49,0,0,1-1-.7,3,3,0,0,1-.67-1,3.22,3.22,0,0,1-.24-1.24,3.36,3.36,0,0,1,.24-1.26,3.27,3.27,0,0,1,4.29-1.74,3.19,3.19,0,0,1,1,.7,3.09,3.09,0,0,1,.68,1,3.31,3.31,0,0,1,.24,1.25A3.37,3.37,0,0,1,15.55,127.71Zm-.88-2.19a2.27,2.27,0,0,0-.48-.77,2.37,2.37,0,0,0-.73-.52,2.32,2.32,0,0,0-1.84,0,1.93,1.93,0,0,0-.71.51,2.49,2.49,0,0,0-.47.77,2.61,2.61,0,0,0-.16.94,2.45,2.45,0,0,0,.17.94,2.51,2.51,0,0,0,.48.77,2.39,2.39,0,0,0,.73.51,2.12,2.12,0,0,0,.91.19,2.32,2.32,0,0,0,.92-.18,2.23,2.23,0,0,0,1.19-1.27,2.66,2.66,0,0,0,.17-.94A2.51,2.51,0,0,0,14.67,125.52Z"/><path class="cls-6" d="M22.76,124a2.68,2.68,0,0,1,.48-.4,2.11,2.11,0,0,1,.59-.26,2.82,2.82,0,0,1,.74-.1,2.2,2.2,0,0,1,1.69.67,2.58,2.58,0,0,1,.61,1.83v3.84H26v-3.62a2,2,0,0,0-.43-1.39,1.5,1.5,0,0,0-1.18-.49,1.85,1.85,0,0,0-.66.13,1.57,1.57,0,0,0-.55.37,2,2,0,0,0-.37.61,2.29,2.29,0,0,0-.14.81v3.58h-.91v-3.65a2,2,0,0,0-.42-1.36,1.51,1.51,0,0,0-1.17-.49,1.58,1.58,0,0,0-.69.15,1.44,1.44,0,0,0-.54.41,1.88,1.88,0,0,0-.37.61,2.22,2.22,0,0,0-.13.79v3.54h-.93v-6.2h.93v1a4.7,4.7,0,0,1,.34-.44,2,2,0,0,1,.43-.38,1.93,1.93,0,0,1,.54-.26,2.39,2.39,0,0,1,.69-.1,2.06,2.06,0,0,1,1.25.36,2.16,2.16,0,0,1,.74.88A4.45,4.45,0,0,1,22.76,124Z"/><path class="cls-6" d="M33.84,121.1h.7v8.46h-.95v-7.48l-1.58.5-.23-.77Z"/><path class="cls-6" d="M43.32,127a4.1,4.1,0,0,1-.71,1.38,3.53,3.53,0,0,1-1.12,1,3.35,3.35,0,0,1-2.94,0,3.54,3.54,0,0,1-1.11-.93,4.3,4.3,0,0,1-.71-1.38,5.79,5.79,0,0,1-.25-1.68,5.47,5.47,0,0,1,.26-1.68,4.1,4.1,0,0,1,.71-1.38,3.53,3.53,0,0,1,1.12-1,3.35,3.35,0,0,1,2.94,0,3.54,3.54,0,0,1,1.11.93,4.3,4.3,0,0,1,.71,1.38,5.79,5.79,0,0,1,.25,1.68A5.47,5.47,0,0,1,43.32,127Zm-.91-3a3.77,3.77,0,0,0-.51-1.11,2.81,2.81,0,0,0-.81-.77,2.13,2.13,0,0,0-2.13,0,2.63,2.63,0,0,0-.8.76,3.6,3.6,0,0,0-.51,1.1,4.8,4.8,0,0,0-.18,1.33,4.85,4.85,0,0,0,.18,1.33,3.83,3.83,0,0,0,.51,1.12,2.69,2.69,0,0,0,.82.76,2.06,2.06,0,0,0,1.07.28,2,2,0,0,0,1.06-.28,2.52,2.52,0,0,0,.8-.76,3.6,3.6,0,0,0,.51-1.1,5.21,5.21,0,0,0,.17-1.33A4.78,4.78,0,0,0,42.41,124.05Z"/><path class="cls-6" d="M49.44,128.61a1.88,1.88,0,0,1-.47.58,2,2,0,0,1-.7.36,2.65,2.65,0,0,1-.87.13,3.83,3.83,0,0,1-1.35-.25,4,4,0,0,1-1.21-.66l.46-.66a4.59,4.59,0,0,0,1.05.59,3.28,3.28,0,0,0,1.1.2,1.57,1.57,0,0,0,.93-.26.86.86,0,0,0,.36-.72v0a.65.65,0,0,0-.13-.39,1.11,1.11,0,0,0-.34-.3,2.89,2.89,0,0,0-.5-.22l-.58-.18-.73-.23a3.36,3.36,0,0,1-.66-.32,1.83,1.83,0,0,1-.48-.48,1.33,1.33,0,0,1-.18-.72v0a1.72,1.72,0,0,1,.15-.72,1.75,1.75,0,0,1,.44-.57,2.26,2.26,0,0,1,.67-.36,2.86,2.86,0,0,1,.85-.12,4,4,0,0,1,1.16.18,4.57,4.57,0,0,1,1.07.5l-.42.7a4,4,0,0,0-.91-.44,2.76,2.76,0,0,0-.93-.16,1.31,1.31,0,0,0-.87.26.77.77,0,0,0-.33.64v0a.57.57,0,0,0,.14.38,1,1,0,0,0,.35.28,4.11,4.11,0,0,0,.51.22l.6.19c.24.07.48.15.71.24a2.87,2.87,0,0,1,.65.34,1.65,1.65,0,0,1,.46.49,1.41,1.41,0,0,1,.17.71v0A1.8,1.8,0,0,1,49.44,128.61Z"/><path class="cls-6" d="M56.18,127.8a1,1,0,0,0,.28.8,1.23,1.23,0,0,0,.76.23,2.14,2.14,0,0,0,.45-.05,1.94,1.94,0,0,0,.45-.17v.79a1.87,1.87,0,0,1-.51.2,2.27,2.27,0,0,1-.61.07,2.21,2.21,0,0,1-.69-.1,1.38,1.38,0,0,1-.56-.3,1.44,1.44,0,0,1-.37-.55,2.35,2.35,0,0,1-.13-.8v-3.75h-.86v-.81h.86v-1.88h.93v1.88h2v.81h-2Z"/><path class="cls-6" d="M65.43,127.71a3.26,3.26,0,0,1-1.71,1.74,3.26,3.26,0,0,1-1.29.25,3.19,3.19,0,0,1-1.29-.25,3.49,3.49,0,0,1-1-.7,3,3,0,0,1-.67-1,3.22,3.22,0,0,1-.24-1.24,3.36,3.36,0,0,1,.24-1.26,3.19,3.19,0,0,1,3-2,3.2,3.2,0,0,1,1.29.26,3.24,3.24,0,0,1,1,.7,3.07,3.07,0,0,1,.67,1,3.31,3.31,0,0,1,.24,1.25A3.18,3.18,0,0,1,65.43,127.71Zm-.87-2.19a2.47,2.47,0,0,0-.49-.77,2.37,2.37,0,0,0-.73-.52,2.15,2.15,0,0,0-.91-.19,2.18,2.18,0,0,0-.93.19,1.93,1.93,0,0,0-.71.51,2.29,2.29,0,0,0-.46.77,2.42,2.42,0,0,0-.17.94,2.66,2.66,0,0,0,.17.94,2.24,2.24,0,0,0,1.21,1.28,2.12,2.12,0,0,0,.91.19,2.29,2.29,0,0,0,.92-.18,2.39,2.39,0,0,0,.73-.51,2.53,2.53,0,0,0,.46-.76,2.66,2.66,0,0,0,.17-.94A2.71,2.71,0,0,0,64.56,125.52Z"/><path class="cls-6" d="M72.31,121.1H73v8.46h-1v-7.48l-1.58.5-.23-.77Z"/><path class="cls-6" d="M81.79,127a4.1,4.1,0,0,1-.71,1.38,3.53,3.53,0,0,1-1.12,1,3.35,3.35,0,0,1-2.94,0,3.54,3.54,0,0,1-1.11-.93,4.3,4.3,0,0,1-.71-1.38,5.79,5.79,0,0,1-.25-1.68,5.47,5.47,0,0,1,.26-1.68,4.1,4.1,0,0,1,.71-1.38,3.53,3.53,0,0,1,1.12-1,3.35,3.35,0,0,1,2.94,0,3.54,3.54,0,0,1,1.11.93,4.3,4.3,0,0,1,.71,1.38,5.79,5.79,0,0,1,.25,1.68A5.47,5.47,0,0,1,81.79,127Zm-.91-3a3.77,3.77,0,0,0-.51-1.11,2.81,2.81,0,0,0-.81-.77,2.13,2.13,0,0,0-2.13,0,2.63,2.63,0,0,0-.8.76,3.6,3.6,0,0,0-.51,1.1,4.8,4.8,0,0,0-.18,1.33,4.85,4.85,0,0,0,.18,1.33,3.83,3.83,0,0,0,.51,1.12,2.69,2.69,0,0,0,.82.76,2.06,2.06,0,0,0,1.07.28,2,2,0,0,0,1.06-.28,2.52,2.52,0,0,0,.8-.76,3.6,3.6,0,0,0,.51-1.1,5.21,5.21,0,0,0,.17-1.33A4.78,4.78,0,0,0,80.88,124.05Z"/><path class="cls-6" d="M90.37,127a4.1,4.1,0,0,1-.71,1.38,3.53,3.53,0,0,1-1.12,1,3.35,3.35,0,0,1-2.94,0,3.54,3.54,0,0,1-1.11-.93,4.3,4.3,0,0,1-.71-1.38,5.79,5.79,0,0,1-.25-1.68,5.47,5.47,0,0,1,.26-1.68,4.1,4.1,0,0,1,.71-1.38,3.53,3.53,0,0,1,1.12-1,3.35,3.35,0,0,1,2.94,0,3.54,3.54,0,0,1,1.11.93,4.3,4.3,0,0,1,.71,1.38,5.79,5.79,0,0,1,.25,1.68A5.47,5.47,0,0,1,90.37,127Zm-.91-3a3.77,3.77,0,0,0-.51-1.11,2.81,2.81,0,0,0-.81-.77,2.13,2.13,0,0,0-2.13,0,2.63,2.63,0,0,0-.8.76,3.6,3.6,0,0,0-.51,1.1,4.8,4.8,0,0,0-.18,1.33,4.85,4.85,0,0,0,.18,1.33,3.83,3.83,0,0,0,.51,1.12,2.69,2.69,0,0,0,.82.76,2.06,2.06,0,0,0,1.07.28,2,2,0,0,0,1.06-.28,2.52,2.52,0,0,0,.8-.76,3.6,3.6,0,0,0,.51-1.1,5.21,5.21,0,0,0,.17-1.33A4.78,4.78,0,0,0,89.46,124.05Z"/><path class="cls-6" d="M96.49,128.61a1.88,1.88,0,0,1-.47.58,2,2,0,0,1-.7.36,2.65,2.65,0,0,1-.87.13,3.83,3.83,0,0,1-1.35-.25,4,4,0,0,1-1.21-.66l.46-.66a4.59,4.59,0,0,0,1.05.59,3.28,3.28,0,0,0,1.1.2,1.57,1.57,0,0,0,.93-.26.86.86,0,0,0,.36-.72v0a.65.65,0,0,0-.13-.39,1.11,1.11,0,0,0-.34-.3,2.89,2.89,0,0,0-.5-.22l-.58-.18-.73-.23a3.36,3.36,0,0,1-.66-.32,1.83,1.83,0,0,1-.48-.48,1.33,1.33,0,0,1-.18-.72v0a1.72,1.72,0,0,1,.15-.72,1.75,1.75,0,0,1,.44-.57,2.26,2.26,0,0,1,.67-.36,2.86,2.86,0,0,1,.85-.12,4,4,0,0,1,1.16.18,4.57,4.57,0,0,1,1.07.5l-.42.7a4,4,0,0,0-.91-.44,2.76,2.76,0,0,0-.93-.16,1.31,1.31,0,0,0-.87.26.77.77,0,0,0-.33.64v0a.57.57,0,0,0,.14.38,1,1,0,0,0,.35.28,4.11,4.11,0,0,0,.51.22l.6.19c.24.07.48.15.71.24a2.87,2.87,0,0,1,.65.34,1.65,1.65,0,0,1,.46.49,1.41,1.41,0,0,1,.17.71v0A1.8,1.8,0,0,1,96.49,128.61Z"/><path class="cls-6" d="M107.49,129.56h-1.11l-2.22-2.89-1.26,1.27v1.62H102V120.8h.92v6l3.35-3.49h1.15L104.8,126Z"/><path class="cls-6" d="M114.19,129.8a2.42,2.42,0,0,1-.64.94,2.77,2.77,0,0,1-1,.57,4.15,4.15,0,0,1-1.31.19,5.14,5.14,0,0,1-1.48-.21,4.89,4.89,0,0,1-1.34-.65l.42-.72a4.53,4.53,0,0,0,1.13.59,4,4,0,0,0,1.26.2,2.33,2.33,0,0,0,1.65-.56,2.14,2.14,0,0,0,.61-1.65v-.73a4,4,0,0,1-1,.93,2.62,2.62,0,0,1-1.44.38,3,3,0,0,1-1.08-.2,2.78,2.78,0,0,1-.93-.57,2.92,2.92,0,0,1-.66-.92,3,3,0,0,1-.24-1.23,3.07,3.07,0,0,1,.24-1.23,2.87,2.87,0,0,1,1.59-1.5,2.92,2.92,0,0,1,1.88-.1,2.41,2.41,0,0,1,.66.27,2.59,2.59,0,0,1,.53.39,4,4,0,0,1,.44.48v-1.11h.92v5.12A3.58,3.58,0,0,1,114.19,129.8Zm-.86-4.52a2.09,2.09,0,0,0-.51-.66,2.14,2.14,0,0,0-.73-.43,2.41,2.41,0,0,0-.85-.15,2.54,2.54,0,0,0-.83.14,2.2,2.2,0,0,0-.69.42,2.1,2.1,0,0,0-.46.67,2.21,2.21,0,0,0-.17.87,2.05,2.05,0,0,0,.18.87,2,2,0,0,0,.47.67,1.92,1.92,0,0,0,.68.43,2.25,2.25,0,0,0,.82.15,2.41,2.41,0,0,0,.85-.15,2.29,2.29,0,0,0,.73-.42,2.25,2.25,0,0,0,.51-.67,2.09,2.09,0,0,0,0-1.74Z"/><path class="cls-6" d="M126.09,127.82a3,3,0,0,1-.67,1,2.9,2.9,0,0,1-1,.64,2.77,2.77,0,0,1-1.1.22,2.52,2.52,0,0,1-.79-.11,2.71,2.71,0,0,1-.65-.28,3,3,0,0,1-.52-.42,4,4,0,0,1-.41-.51v3.11h-.93v-8.12H121v1.24a5.3,5.3,0,0,1,.42-.52,2.48,2.48,0,0,1,.53-.44,2.22,2.22,0,0,1,.64-.3,2.41,2.41,0,0,1,.78-.12,3,3,0,0,1,1.09.22,2.72,2.72,0,0,1,1,.63,3.15,3.15,0,0,1,.68,1,3.88,3.88,0,0,1,0,2.74Zm-.87-2.35a2.58,2.58,0,0,0-.48-.76,2,2,0,0,0-.69-.48,2.21,2.21,0,0,0-.84-.17,2,2,0,0,0-.84.18,2.16,2.16,0,0,0-.72.48,2.29,2.29,0,0,0-.5.75,2.41,2.41,0,0,0-.19,1,2.46,2.46,0,0,0,.19,1,2.24,2.24,0,0,0,.5.76,2.52,2.52,0,0,0,.72.48,2.22,2.22,0,0,0,1.68,0,2,2,0,0,0,.7-.47,2.34,2.34,0,0,0,.47-.75,2.89,2.89,0,0,0,.17-1A2.86,2.86,0,0,0,125.22,125.47Z"/><path class="cls-6" d="M128.85,127.69a2.11,2.11,0,0,0,1.16,1.07,2.29,2.29,0,0,0,.78.14,2.39,2.39,0,0,0,1.11-.24,3.22,3.22,0,0,0,.85-.64l.57.52a4,4,0,0,1-1.07.85,3.15,3.15,0,0,1-1.48.31,3,3,0,0,1-1.2-.23,3,3,0,0,1-1.66-1.69,3.34,3.34,0,0,1-.25-1.32,3.52,3.52,0,0,1,.22-1.26,3,3,0,0,1,.62-1,2.67,2.67,0,0,1,.94-.69,2.76,2.76,0,0,1,1.19-.26,2.85,2.85,0,0,1,1.23.26,2.74,2.74,0,0,1,.91.7,3,3,0,0,1,.56,1,4.13,4.13,0,0,1,.2,1.28v.13a1,1,0,0,1,0,.16h-4.9A2.43,2.43,0,0,0,128.85,127.69Zm3.73-1.57a3.17,3.17,0,0,0-.18-.81,2,2,0,0,0-.38-.67,1.78,1.78,0,0,0-.59-.46,1.8,1.8,0,0,0-.82-.18,1.72,1.72,0,0,0-.75.17,1.76,1.76,0,0,0-.61.44,2.2,2.2,0,0,0-.43.67,2.73,2.73,0,0,0-.21.84Z"/><path class="cls-6" d="M136.07,129.56h-.92v-6.2h.92V125a3,3,0,0,1,.42-.71,2.8,2.8,0,0,1,.58-.56,2.3,2.3,0,0,1,.7-.35,2.53,2.53,0,0,1,.83-.11v1h-.07a2.51,2.51,0,0,0-.95.18,2.14,2.14,0,0,0-.79.54,2.65,2.65,0,0,0-.53.9,3.53,3.53,0,0,0-.19,1.23Z"/><path class="cls-6" d="M149.11,129.56H148l-2.22-2.89-1.26,1.27v1.62h-.93V120.8h.93v6l3.35-3.49H149L146.42,126Z"/><path class="cls-6" d="M155.73,124a3,3,0,0,1,.47-.4,2.32,2.32,0,0,1,.6-.26,2.76,2.76,0,0,1,.74-.1,2.2,2.2,0,0,1,1.69.67,2.58,2.58,0,0,1,.61,1.83v3.84h-.92v-3.62a2.06,2.06,0,0,0-.43-1.39,1.5,1.5,0,0,0-1.18-.49,1.85,1.85,0,0,0-.66.13,1.57,1.57,0,0,0-.55.37,2,2,0,0,0-.37.61,2.29,2.29,0,0,0-.14.81v3.58h-.91v-3.65a2,2,0,0,0-.43-1.36,1.48,1.48,0,0,0-1.17-.49,1.57,1.57,0,0,0-.68.15,1.56,1.56,0,0,0-.55.41,2,2,0,0,0-.36.61,2.22,2.22,0,0,0-.13.79v3.54h-.93v-6.2h.93v1a3.46,3.46,0,0,1,.34-.44,1.9,1.9,0,0,1,.42-.38,1.93,1.93,0,0,1,.54-.26,2.46,2.46,0,0,1,.7-.1,2.08,2.08,0,0,1,1.25.36,2.24,2.24,0,0,1,.74.88A3.48,3.48,0,0,1,155.73,124Z"/><path class="cls-6" d="M163.26,122.25a4.59,4.59,0,0,0-1,1.07l-.7-.5a8.38,8.38,0,0,1,.59-.76,3.17,3.17,0,0,1,.66-.56,2.82,2.82,0,0,1,.79-.34,3.73,3.73,0,0,1,1-.12,3,3,0,0,1,1.05.18,2.62,2.62,0,0,1,.82.5,2.25,2.25,0,0,1,.54.75,2.35,2.35,0,0,1,.19,1,2.86,2.86,0,0,1-.12.85,3.22,3.22,0,0,1-.39.76,7.22,7.22,0,0,1-.66.78c-.27.27-.58.56-.95.88l-2.25,2h4.46v.86h-5.87v-.73l3.05-2.7a10.36,10.36,0,0,0,.81-.78,4.88,4.88,0,0,0,.55-.65,2.4,2.4,0,0,0,.3-.6,2.1,2.1,0,0,0,.09-.61,1.6,1.6,0,0,0-.14-.67,1.52,1.52,0,0,0-.37-.5,1.63,1.63,0,0,0-.54-.33,2,2,0,0,0-.64-.11A2,2,0,0,0,163.26,122.25Z"/><path class="cls-6" d="M2.15,2.77a4.61,4.61,0,0,0-.71,2.55,4.66,4.66,0,0,0,.71,2.55,6.49,6.49,0,0,0,2.08,2l-.4.61A7.15,7.15,0,0,1,1.36,8.27,5.14,5.14,0,0,1,.5,5.32a5.15,5.15,0,0,1,.86-3A7.15,7.15,0,0,1,3.83.18l.4.61A6.51,6.51,0,0,0,2.15,2.77Z"/><path class="cls-6" d="M11.43,8.76H10.32L8.1,5.87,6.84,7.14V8.76H5.92V0h.92V6.05l3.35-3.49h1.15L8.74,5.22Z"/><path class="cls-6" d="M18.13,9a2.42,2.42,0,0,1-.64.94,2.68,2.68,0,0,1-1,.57,4.08,4.08,0,0,1-1.3.19,5.21,5.21,0,0,1-1.49-.21,4.83,4.83,0,0,1-1.33-.65l.42-.72a4.47,4.47,0,0,0,1.12.59,4.05,4.05,0,0,0,1.26.2,2.33,2.33,0,0,0,1.65-.56,2.11,2.11,0,0,0,.61-1.65V7a3.87,3.87,0,0,1-1,.93A2.62,2.62,0,0,1,15,8.28a3.08,3.08,0,0,1-1.08-.2A2.78,2.78,0,0,1,13,7.51a3.09,3.09,0,0,1-.66-.92,3,3,0,0,1-.24-1.23,3.07,3.07,0,0,1,.24-1.23A3,3,0,0,1,13,3.21a2.8,2.8,0,0,1,.93-.58A3,3,0,0,1,15,2.42a2.86,2.86,0,0,1,.8.11,2.18,2.18,0,0,1,.66.27,2.66,2.66,0,0,1,.54.39,3.89,3.89,0,0,1,.43.48V2.56h.92V7.68A3.58,3.58,0,0,1,18.13,9Zm-.86-4.52a2.09,2.09,0,0,0-.51-.66A2.19,2.19,0,0,0,16,3.39a2.51,2.51,0,0,0-.86-.15,2.54,2.54,0,0,0-.83.14,2,2,0,0,0-.68.42,2.13,2.13,0,0,0-.47.67,2.21,2.21,0,0,0-.16.87,2,2,0,0,0,.17.87,2.13,2.13,0,0,0,.47.67,1.92,1.92,0,0,0,.68.43,2.29,2.29,0,0,0,.82.15A2.51,2.51,0,0,0,16,7.31a2.35,2.35,0,0,0,.72-.42,2.25,2.25,0,0,0,.51-.67,1.92,1.92,0,0,0,.19-.87A1.92,1.92,0,0,0,17.27,4.48Z"/><path class="cls-6" d="M29.52,8.76h-1.1L26.2,5.87,24.94,7.14V8.76H24V0h.92V6.05l3.35-3.49h1.15l-2.6,2.66Z"/><path class="cls-6" d="M36.14,3.18a2.68,2.68,0,0,1,.48-.4,2.11,2.11,0,0,1,.59-.26,2.82,2.82,0,0,1,.74-.1,2.2,2.2,0,0,1,1.69.67,2.58,2.58,0,0,1,.61,1.83V8.76h-.92V5.14a2,2,0,0,0-.43-1.39,1.5,1.5,0,0,0-1.18-.49,1.85,1.85,0,0,0-.66.13,1.57,1.57,0,0,0-.55.37,2,2,0,0,0-.37.61,2.29,2.29,0,0,0-.14.81V8.76h-.91V5.11a2,2,0,0,0-.42-1.36,1.51,1.51,0,0,0-1.17-.49,1.58,1.58,0,0,0-.69.15,1.44,1.44,0,0,0-.54.41,1.88,1.88,0,0,0-.37.61,2.22,2.22,0,0,0-.13.79V8.76h-.93V2.56h.93v1a4.7,4.7,0,0,1,.34-.44,2,2,0,0,1,.43-.38,1.93,1.93,0,0,1,.54-.26,2.39,2.39,0,0,1,.69-.1A2.06,2.06,0,0,1,35,2.78a2.16,2.16,0,0,1,.74.88A4.45,4.45,0,0,1,36.14,3.18Z"/><path class="cls-6" d="M43.67,1.45a4.59,4.59,0,0,0-1,1.07L42,2a6.87,6.87,0,0,1,.58-.76A3.17,3.17,0,0,1,43.2.7,2.82,2.82,0,0,1,44,.36a3.73,3.73,0,0,1,1-.12A3,3,0,0,1,46,.42a2.51,2.51,0,0,1,.82.5,2.25,2.25,0,0,1,.54.75,2.35,2.35,0,0,1,.19,1,2.86,2.86,0,0,1-.12.85,3.22,3.22,0,0,1-.39.76,7.22,7.22,0,0,1-.66.78c-.27.27-.58.56-.95.88l-2.24,2h4.45v.86H41.8V8l3.05-2.7a10.36,10.36,0,0,0,.81-.78,4.88,4.88,0,0,0,.55-.65,2.4,2.4,0,0,0,.3-.6,2.1,2.1,0,0,0,.09-.61A1.6,1.6,0,0,0,46.46,2a1.64,1.64,0,0,0-.36-.5,1.87,1.87,0,0,0-.54-.33,2.16,2.16,0,0,0-1.89.26Z"/><path class="cls-6" d="M49.48.18A7.06,7.06,0,0,1,52,2.36a5.15,5.15,0,0,1,.87,3A5.14,5.14,0,0,1,52,8.27a7.06,7.06,0,0,1-2.47,2.18l-.4-.61a6.64,6.64,0,0,0,2.09-2,4.74,4.74,0,0,0,.7-2.55,4.69,4.69,0,0,0-.7-2.55,6.66,6.66,0,0,0-2.09-2Z"/></g></g></svg>