<?xml version="1.0" encoding="utf-8"?>
<!-- Generator: Adobe Illustrator 23.1.1, SVG Export Plug-In . SVG Version: 6.00 Build 0)  -->
<svg version="1.1" id="Layer_1" xmlns="http://www.w3.org/2000/svg" xmlns:xlink="http://www.w3.org/1999/xlink" x="0px" y="0px"
	 viewBox="0 0 300.4 170.1" style="enable-background:new 0 0 300.4 170.1;" xml:space="preserve">
<style type="text/css">
	.st0{display:none;fill:#021F36;}
	.st1{opacity:0.2;}
	.st2{fill:#EB621D;}
	.st3{opacity:0.4;}
	.st4{opacity:0.7;}
	.st5{opacity:0.9;}
	.st6{fill:#F0F0F0;}
	.st7{fill:#FFFFFF;}
	.st8{opacity:0.2;fill:#EB621D;}
	.st9{opacity:0.4;fill:#EB621D;}
	.st10{opacity:0.7;fill:#EB621D;}
	.st11{fill:none;}
	.st12{font-family:'Gotham-Book';}
	.st13{font-size:12px;}
</style>
<title>Asset 2</title>
<rect x="-202.2" y="-123.4" class="st0" width="513.6" height="383.2"/>
<g class="st1">
	<rect x="7" y="-268.4" class="st2" width="60" height="48"/>
</g>
<g class="st3">
	<rect x="67" y="-268.4" class="st2" width="60" height="48"/>
</g>
<g class="st4">
	<rect x="127" y="-268.4" class="st2" width="60" height="48"/>
</g>
<g class="st5">
	<rect x="187" y="-268.4" class="st2" width="60" height="48"/>
</g>
<path class="st6" d="M14.1-211.2c-0.2,0.5-0.4,1-0.7,1.4c-0.3,0.4-0.7,0.7-1.1,0.9c-0.5,0.2-1,0.4-1.5,0.4c-0.5,0-1-0.1-1.5-0.4
	c-0.4-0.2-0.8-0.5-1.1-0.9c-0.3-0.4-0.5-0.9-0.7-1.4c-0.3-1.1-0.3-2.3,0-3.4c0.2-0.5,0.4-1,0.7-1.4c0.3-0.4,0.7-0.7,1.1-0.9
	c0.5-0.2,1-0.4,1.5-0.4c0.5,0,1,0.1,1.5,0.3c0.4,0.2,0.8,0.5,1.1,0.9c0.3,0.4,0.6,0.9,0.7,1.4c0.2,0.5,0.2,1.1,0.2,1.7
	C14.4-212.3,14.3-211.7,14.1-211.2z M13.2-214.2c-0.1-0.4-0.3-0.8-0.5-1.1c-0.2-0.3-0.5-0.6-0.8-0.8c-0.3-0.2-0.7-0.3-1.1-0.3
	c-0.4,0-0.7,0.1-1.1,0.3c-0.3,0.2-0.6,0.5-0.8,0.8c-0.2,0.3-0.4,0.7-0.5,1.1c-0.2,0.9-0.2,1.8,0,2.7c0.1,0.4,0.3,0.8,0.5,1.1
	c0.2,0.3,0.5,0.6,0.8,0.8c0.3,0.2,0.7,0.3,1.1,0.2c0.4,0,0.8-0.1,1.1-0.3c0.3-0.2,0.6-0.5,0.8-0.8c0.2-0.3,0.4-0.7,0.5-1.1
	c0.1-0.4,0.2-0.9,0.2-1.3C13.4-213.3,13.4-213.7,13.2-214.2L13.2-214.2z"/>
<path class="st6" d="M15.8-208.6v-1.3H17v1.3L15.8-208.6z"/>
<path class="st6" d="M19.6-217.1h0.7v8.5h-1v-7.5l-1.6,0.5l-0.2-0.8L19.6-217.1z"/>
<path class="st6" d="M69-217.1h0.7v8.5h-1v-7.5l-1.6,0.5l-0.2-0.8L69-217.1z"/>
<g>
	<path class="st6" d="M129-217.1h0.7v8.5h-0.9v-7.5l-1.6,0.5l-0.2-0.8L129-217.1z"/>
	<path class="st6" d="M138.5-211.2c-0.2,0.5-0.4,1-0.7,1.4c-0.3,0.4-0.7,0.7-1.1,0.9c-0.5,0.2-1,0.4-1.5,0.4c-0.5,0-1-0.1-1.5-0.4
		c-0.4-0.2-0.8-0.5-1.1-0.9c-0.3-0.4-0.6-0.9-0.7-1.4c-0.2-0.5-0.2-1.1-0.2-1.7c0-0.6,0.1-1.1,0.2-1.7c0.2-0.5,0.4-1,0.7-1.4
		c0.3-0.4,0.7-0.7,1.1-0.9c0.9-0.5,2-0.5,2.9,0c0.4,0.2,0.8,0.5,1.1,0.9c0.3,0.4,0.6,0.9,0.7,1.4c0.2,0.5,0.3,1.1,0.2,1.7
		C138.8-212.3,138.7-211.7,138.5-211.2z M137.6-214.2c-0.1-0.4-0.3-0.8-0.5-1.1c-0.2-0.3-0.5-0.6-0.8-0.8c-0.3-0.2-0.7-0.3-1.1-0.3
		c-0.4,0-0.7,0.1-1.1,0.3c-0.3,0.2-0.6,0.5-0.8,0.8c-0.2,0.3-0.4,0.7-0.5,1.1c-0.2,0.9-0.2,1.8,0,2.7c0.1,0.4,0.3,0.8,0.5,1.1
		c0.2,0.3,0.5,0.6,0.8,0.8c0.3,0.2,0.7,0.3,1.1,0.3c0.4,0,0.7-0.1,1.1-0.3c0.3-0.2,0.6-0.5,0.8-0.8c0.2-0.3,0.4-0.7,0.5-1.1
		C137.8-212.4,137.8-213.3,137.6-214.2L137.6-214.2z"/>
</g>
<g>
	<path class="st6" d="M189-217.1h0.7v8.5h-0.9v-7.5l-1.6,0.5l-0.2-0.8L189-217.1z"/>
	<path class="st6" d="M198.5-211.2c-0.2,0.5-0.4,1-0.7,1.4c-0.3,0.4-0.7,0.7-1.1,0.9c-0.5,0.2-1,0.4-1.5,0.4c-0.5,0-1-0.1-1.5-0.4
		c-0.4-0.2-0.8-0.5-1.1-0.9c-0.3-0.4-0.6-0.9-0.7-1.4c-0.2-0.5-0.2-1.1-0.2-1.7c0-0.6,0.1-1.1,0.2-1.7c0.2-0.5,0.4-1,0.7-1.4
		c0.3-0.4,0.7-0.7,1.1-0.9c0.5-0.2,1-0.4,1.5-0.4c0.5,0,1,0.1,1.5,0.3c0.4,0.2,0.8,0.5,1.1,0.9c0.3,0.4,0.6,0.9,0.7,1.4
		c0.2,0.5,0.3,1.1,0.2,1.7C198.8-212.3,198.7-211.7,198.5-211.2z M197.6-214.2c-0.1-0.4-0.3-0.8-0.5-1.1c-0.2-0.3-0.5-0.6-0.8-0.8
		c-0.3-0.2-0.7-0.3-1.1-0.3c-0.4,0-0.7,0.1-1.1,0.3c-0.3,0.2-0.6,0.5-0.8,0.8c-0.2,0.3-0.4,0.7-0.5,1.1c-0.2,0.9-0.2,1.8,0,2.7
		c0.1,0.4,0.3,0.8,0.5,1.1c0.2,0.3,0.5,0.6,0.8,0.8c0.3,0.2,0.7,0.3,1.1,0.3c0.4,0,0.7-0.1,1.1-0.3c0.3-0.2,0.6-0.5,0.8-0.8
		c0.2-0.3,0.4-0.7,0.5-1.1C197.8-212.4,197.8-213.3,197.6-214.2L197.6-214.2z"/>
	<path class="st6" d="M207.1-211.2c-0.2,0.5-0.4,1-0.7,1.4c-0.3,0.4-0.7,0.7-1.1,0.9c-0.5,0.2-1,0.4-1.5,0.4c-0.5,0-1-0.1-1.5-0.4
		c-0.4-0.2-0.8-0.5-1.1-0.9c-0.3-0.4-0.6-0.9-0.7-1.4c-0.2-0.5-0.2-1.1-0.2-1.7c0-0.6,0.1-1.1,0.2-1.7c0.2-0.5,0.4-1,0.7-1.4
		c0.3-0.4,0.7-0.7,1.1-0.9c0.5-0.2,1-0.4,1.5-0.4c0.5,0,1,0.1,1.5,0.3c0.4,0.2,0.8,0.5,1.1,0.9c0.3,0.4,0.6,0.9,0.7,1.4
		c0.2,0.5,0.3,1.1,0.2,1.7C207.3-212.3,207.3-211.7,207.1-211.2z M206.2-214.2c-0.1-0.4-0.3-0.8-0.5-1.1c-0.2-0.3-0.5-0.6-0.8-0.8
		c-0.3-0.2-0.7-0.3-1.1-0.3c-0.4,0-0.7,0.1-1.1,0.3c-0.3,0.2-0.6,0.5-0.8,0.8c-0.2,0.3-0.4,0.7-0.5,1.1c-0.2,0.9-0.2,1.8,0,2.7
		c0.1,0.4,0.3,0.8,0.5,1.2c0.2,0.3,0.5,0.6,0.8,0.8c0.3,0.2,0.7,0.3,1.1,0.3c0.4,0,0.7-0.1,1.1-0.3c0.3-0.2,0.6-0.5,0.8-0.8
		c0.2-0.3,0.4-0.7,0.5-1.1C206.4-212.4,206.4-213.3,206.2-214.2L206.2-214.2z"/>
</g>
<g>
	<path class="st6" d="M34-576.8h-1v-7.5h-2.7v-0.9h6.6v0.9H34V-576.8z"/>
	<path class="st6" d="M39.2-576.8h-0.9v-8.8h0.9v3.6c0.2-0.3,0.5-0.6,0.8-0.9c0.4-0.3,0.8-0.4,1.3-0.4c0.3,0,0.7,0.1,1,0.2
		c0.3,0.1,0.5,0.3,0.7,0.5c0.2,0.2,0.4,0.5,0.5,0.8c0.1,0.3,0.2,0.7,0.2,1v3.8h-0.9v-3.6c0-0.5-0.1-1-0.5-1.4
		c-0.3-0.4-0.8-0.5-1.3-0.5c-0.3,0-0.5,0-0.7,0.1c-0.2,0.1-0.4,0.2-0.6,0.4c-0.2,0.2-0.3,0.4-0.4,0.6c-0.1,0.3-0.1,0.5-0.1,0.8
		V-576.8z"/>
	<path class="st6" d="M46.5-578.6c0.1,0.2,0.3,0.5,0.5,0.7c0.2,0.2,0.4,0.3,0.7,0.4c0.2,0.1,0.5,0.1,0.8,0.1c0.4,0,0.8-0.1,1.1-0.2
		c0.3-0.2,0.6-0.4,0.8-0.6l0.6,0.5c-0.3,0.3-0.7,0.6-1.1,0.8c-0.5,0.2-1,0.3-1.5,0.3c-0.4,0-0.8-0.1-1.2-0.2c-0.4-0.2-0.7-0.4-1-0.7
		c-0.3-0.3-0.5-0.6-0.7-1c-0.2-0.4-0.3-0.9-0.2-1.3c0-0.4,0.1-0.9,0.2-1.3c0.1-0.4,0.3-0.7,0.6-1c0.3-0.3,0.6-0.5,0.9-0.7
		c0.4-0.2,0.8-0.3,1.2-0.3c0.4,0,0.8,0.1,1.2,0.3c0.3,0.2,0.7,0.4,0.9,0.7c0.3,0.3,0.5,0.6,0.6,1c0.1,0.4,0.2,0.8,0.2,1.3v0.1
		c0,0.1,0,0.1,0,0.2h-4.9C46.3-579.2,46.3-578.9,46.5-578.6z M50.2-580.2c0-0.3-0.1-0.5-0.2-0.8c-0.1-0.2-0.2-0.5-0.4-0.7
		c-0.2-0.2-0.4-0.4-0.6-0.5c-0.3-0.1-0.5-0.2-0.8-0.2c-0.3,0-0.5,0.1-0.8,0.2c-0.2,0.1-0.4,0.3-0.6,0.4c-0.2,0.2-0.3,0.4-0.4,0.7
		c-0.1,0.3-0.2,0.6-0.2,0.8H50.2z"/>
	<path class="st6" d="M62.3-577c-0.6,0.3-1.3,0.4-1.9,0.4c-0.6,0-1.2-0.1-1.8-0.3c-1-0.4-1.8-1.3-2.2-2.3c-0.2-0.5-0.3-1.1-0.3-1.7
		c0-0.6,0.1-1.1,0.3-1.6c0.2-0.5,0.5-1,0.9-1.4c0.4-0.4,0.8-0.8,1.3-1c0.5-0.2,1.1-0.4,1.7-0.3c0.3,0,0.7,0,1,0.1
		c0.3,0,0.5,0.1,0.8,0.2c0.2,0.1,0.5,0.2,0.7,0.4c0.2,0.1,0.4,0.3,0.6,0.5l-0.6,0.7c-0.2-0.1-0.3-0.3-0.5-0.4
		c-0.2-0.1-0.4-0.2-0.6-0.3c-0.2-0.1-0.4-0.2-0.7-0.2c-0.3,0-0.5-0.1-0.8-0.1c-0.4,0-0.9,0.1-1.3,0.3c-0.4,0.2-0.7,0.4-1,0.7
		c-0.3,0.3-0.5,0.7-0.7,1.1c-0.2,0.4-0.2,0.9-0.2,1.3c0,0.5,0.1,1,0.2,1.4c0.1,0.4,0.4,0.8,0.7,1.1c0.3,0.3,0.7,0.6,1,0.7
		c0.4,0.2,0.9,0.3,1.4,0.3c0.5,0,0.9-0.1,1.4-0.2c0.4-0.1,0.7-0.3,1.1-0.6v-2.1h-2.6v-0.8h3.5v3.3C63.4-577.5,62.9-577.2,62.3-577z"
		/>
	<path class="st6" d="M72-581.3c-0.2,0.3-0.4,0.6-0.7,0.9c-0.3,0.2-0.7,0.4-1.1,0.5c-0.4,0.1-0.8,0.2-1.2,0.2h-2v3h-1v-8.4h3.1
		c0.4,0,0.9,0.1,1.3,0.2c0.4,0.1,0.7,0.3,1,0.5c0.3,0.2,0.5,0.5,0.6,0.8c0.1,0.3,0.2,0.7,0.2,1C72.2-582.1,72.1-581.7,72-581.3z
		 M70.7-583.8c-0.5-0.3-1.1-0.5-1.6-0.5h-2.1v3.7H69c0.3,0,0.6,0,0.9-0.1c0.3-0.1,0.5-0.2,0.7-0.4c0.2-0.2,0.4-0.4,0.5-0.6
		c0.1-0.2,0.2-0.5,0.2-0.8C71.3-583,71.1-583.5,70.7-583.8L70.7-583.8z"/>
	<path class="st6" d="M79.8-577c-0.6,0.3-1.3,0.4-1.9,0.4c-0.6,0-1.2-0.1-1.8-0.3c-0.5-0.2-1-0.5-1.3-0.9c-0.4-0.4-0.7-0.9-0.8-1.4
		c-0.2-0.5-0.3-1.1-0.3-1.7c0-0.6,0.1-1.1,0.3-1.6c0.2-0.5,0.5-1,0.9-1.4c0.4-0.4,0.8-0.8,1.3-1c0.5-0.2,1.1-0.4,1.7-0.3
		c0.3,0,0.7,0,1,0.1c0.3,0,0.6,0.1,0.8,0.2c0.2,0.1,0.5,0.2,0.7,0.4c0.2,0.1,0.4,0.3,0.7,0.5l-0.6,0.7c-0.2-0.1-0.3-0.3-0.5-0.4
		c-0.2-0.1-0.4-0.2-0.6-0.3c-0.2-0.1-0.4-0.2-0.7-0.2c-0.3,0-0.5-0.1-0.8-0.1c-0.4,0-0.9,0.1-1.3,0.3c-0.4,0.2-0.7,0.4-1,0.7
		c-0.3,0.3-0.5,0.7-0.7,1.1c-0.2,0.4-0.2,0.9-0.2,1.3c0,0.5,0.1,1,0.2,1.4c0.1,0.4,0.4,0.8,0.7,1.1c0.3,0.3,0.6,0.6,1,0.7
		c0.4,0.2,0.9,0.3,1.4,0.3c0.5,0,0.9-0.1,1.4-0.2c0.4-0.1,0.7-0.3,1.1-0.6v-2.1h-2.5v-0.8h3.5v3.3C80.8-577.5,80.3-577.2,79.8-577z"
		/>
	<path class="st6" d="M89.4-581.3c-0.2,0.3-0.4,0.6-0.7,0.9c-0.3,0.2-0.7,0.4-1.1,0.5c-0.4,0.1-0.8,0.2-1.3,0.2h-2v3h-1v-8.4h3.2
		c0.4,0,0.9,0.1,1.3,0.2c0.4,0.1,0.7,0.3,1,0.5c0.3,0.2,0.5,0.5,0.6,0.8c0.1,0.3,0.2,0.7,0.2,1C89.7-582.1,89.6-581.7,89.4-581.3z
		 M88.1-583.8c-0.5-0.3-1.1-0.5-1.6-0.5h-2.1v3.7h2.1c0.3,0,0.6,0,0.9-0.1c0.3-0.1,0.5-0.2,0.7-0.4c0.2-0.2,0.4-0.4,0.5-0.6
		c0.1-0.2,0.2-0.5,0.2-0.8C88.7-583,88.5-583.5,88.1-583.8z"/>
	<path class="st6" d="M95.7-576.8h-0.9v-8.8h0.9v3.6c0.2-0.3,0.5-0.6,0.8-0.9c0.4-0.3,0.8-0.4,1.3-0.4c0.3,0,0.7,0.1,1,0.2
		c0.3,0.1,0.5,0.3,0.8,0.5c0.2,0.2,0.4,0.5,0.5,0.8c0.1,0.3,0.2,0.7,0.2,1v3.8h-0.9v-3.6c0-0.5-0.1-1-0.4-1.4
		c-0.3-0.4-0.8-0.5-1.3-0.5c-0.3,0-0.5,0-0.7,0.1c-0.2,0.1-0.4,0.2-0.6,0.4c-0.2,0.2-0.3,0.4-0.4,0.6c-0.1,0.3-0.1,0.5-0.1,0.8
		V-576.8z"/>
	<path class="st6" d="M108-578.6c-0.3,0.8-0.9,1.4-1.7,1.7c-0.4,0.2-0.8,0.3-1.3,0.2c-0.4,0-0.9-0.1-1.3-0.2c-0.4-0.2-0.7-0.4-1-0.7
		c-0.3-0.3-0.5-0.6-0.7-1c-0.2-0.4-0.2-0.8-0.2-1.2c0-0.4,0.1-0.9,0.2-1.3c0.7-1.7,2.6-2.4,4.3-1.7c0.4,0.2,0.7,0.4,1,0.7
		c0.3,0.3,0.5,0.6,0.7,1c0.2,0.4,0.2,0.8,0.2,1.2C108.3-579.4,108.2-579,108-578.6z M107.2-580.8c-0.1-0.3-0.3-0.5-0.5-0.8
		c-0.2-0.2-0.5-0.4-0.7-0.5c-0.3-0.1-0.6-0.2-0.9-0.2c-0.3,0-0.6,0.1-0.9,0.2c-0.3,0.1-0.5,0.3-0.7,0.5c-0.2,0.2-0.4,0.5-0.5,0.8
		c-0.1,0.3-0.2,0.6-0.2,0.9c0,0.3,0.1,0.6,0.2,0.9c0.1,0.3,0.3,0.5,0.5,0.8c0.2,0.2,0.5,0.4,0.7,0.5c0.3,0.1,0.6,0.2,0.9,0.2
		c0.3,0,0.6-0.1,0.9-0.2c0.6-0.2,1-0.7,1.2-1.3c0.1-0.3,0.2-0.6,0.2-0.9C107.3-580.2,107.3-580.5,107.2-580.8z"/>
	<path class="st6" d="M110-576.8v-8.8h0.9v8.8H110z"/>
	<path class="st6" d="M118.1-576.8v-1.2c-0.1,0.2-0.3,0.4-0.4,0.5c-0.2,0.2-0.3,0.3-0.5,0.4c-0.2,0.1-0.4,0.2-0.6,0.3
		c-0.3,0.1-0.5,0.1-0.8,0.1c-0.4,0-0.7-0.1-1.1-0.2c-0.3-0.2-0.7-0.4-0.9-0.6c-0.3-0.3-0.6-0.7-0.7-1.1c-0.3-0.9-0.3-1.9,0-2.7
		c0.2-0.4,0.4-0.7,0.7-1c0.3-0.3,0.6-0.5,0.9-0.6c0.6-0.3,1.3-0.3,1.9-0.1c0.2,0.1,0.4,0.2,0.7,0.3c0.2,0.1,0.4,0.3,0.5,0.4
		c0.1,0.2,0.3,0.3,0.4,0.5v-3.7h0.9v8.8H118.1z M118-580.8c-0.1-0.3-0.3-0.5-0.5-0.8c-0.2-0.2-0.5-0.4-0.7-0.5
		c-0.3-0.1-0.6-0.2-0.8-0.2c-0.3,0-0.6,0.1-0.8,0.2c-0.3,0.1-0.5,0.3-0.7,0.5c-0.2,0.2-0.4,0.5-0.5,0.8c-0.1,0.3-0.2,0.7-0.2,1
		c0,0.3,0.1,0.7,0.2,1c0.1,0.3,0.3,0.5,0.5,0.8c0.4,0.4,1,0.7,1.5,0.7c0.3,0,0.6-0.1,0.8-0.2c0.3-0.1,0.5-0.3,0.7-0.5
		c0.2-0.2,0.4-0.5,0.5-0.8c0.1-0.3,0.2-0.7,0.2-1C118.2-580.2,118.1-580.5,118-580.8z"/>
	<path class="st6" d="M125.2-577.7c-0.2,0.5-0.7,0.8-1.2,0.9c-0.3,0.1-0.6,0.1-0.9,0.1c-0.5,0-0.9-0.1-1.3-0.2
		c-0.4-0.1-0.9-0.4-1.2-0.6l0.5-0.7c0.3,0.2,0.7,0.4,1.1,0.6c0.4,0.1,0.7,0.2,1.1,0.2c0.3,0,0.6-0.1,0.9-0.3
		c0.2-0.2,0.4-0.4,0.4-0.7l0,0c0-0.1,0-0.3-0.1-0.4c-0.1-0.1-0.2-0.2-0.3-0.3c-0.2-0.1-0.3-0.2-0.5-0.2l-0.5-0.2l-0.7-0.2
		c-0.2-0.1-0.5-0.2-0.7-0.3c-0.2-0.1-0.4-0.3-0.5-0.5c-0.1-0.2-0.2-0.5-0.2-0.7l0,0c0-0.2,0.1-0.5,0.2-0.7c0.1-0.2,0.3-0.4,0.4-0.6
		c0.2-0.2,0.4-0.3,0.7-0.4c0.3-0.1,0.6-0.1,0.8-0.1c0.4,0,0.8,0.1,1.2,0.2c0.4,0.1,0.7,0.3,1.1,0.5l-0.4,0.7
		c-0.3-0.2-0.6-0.3-0.9-0.4c-0.3-0.1-0.6-0.2-0.9-0.2c-0.3,0-0.6,0.1-0.9,0.3c-0.2,0.1-0.3,0.4-0.3,0.6l0,0c0,0.1,0,0.3,0.1,0.4
		c0.1,0.1,0.2,0.2,0.4,0.3c0.2,0.1,0.3,0.2,0.5,0.2l0.6,0.2c0.2,0.1,0.5,0.2,0.7,0.2c0.2,0.1,0.4,0.2,0.6,0.3
		c0.2,0.1,0.4,0.3,0.5,0.5c0.1,0.2,0.2,0.5,0.2,0.7l0,0C125.4-578.2,125.3-577.9,125.2-577.7z"/>
	<path class="st6" d="M138.7-579.3c-0.2,0.5-0.5,1-0.9,1.4c-0.4,0.4-0.8,0.8-1.4,1c-0.6,0.2-1.1,0.4-1.8,0.3c-0.6,0-1.2-0.1-1.7-0.3
		c-0.5-0.2-1-0.6-1.3-1c-0.4-0.4-0.7-0.9-0.9-1.4c-0.6-1.6-0.3-3.4,0.9-4.7c1.3-1.3,3.2-1.7,4.8-1c0.5,0.2,1,0.6,1.4,1
		c0.4,0.4,0.7,0.9,0.9,1.4c0.2,0.5,0.3,1.1,0.3,1.7C139-580.4,138.9-579.8,138.7-579.3z M137.8-582.3c-0.2-0.4-0.4-0.8-0.7-1.1
		c-0.3-0.3-0.6-0.6-1-0.7c-0.4-0.2-0.9-0.3-1.3-0.3c-0.5,0-0.9,0.1-1.3,0.3c-0.4,0.2-0.7,0.4-1,0.7c-0.3,0.3-0.5,0.7-0.7,1.1
		c-0.3,0.9-0.3,1.8,0,2.7c0.1,0.4,0.3,0.8,0.6,1.1c0.3,0.3,0.6,0.6,1,0.7c0.4,0.2,0.9,0.3,1.3,0.3c0.5,0,0.9-0.1,1.3-0.3
		c0.4-0.2,0.7-0.4,1-0.7c0.3-0.3,0.5-0.7,0.7-1.1C138-580.5,138-581.4,137.8-582.3L137.8-582.3z"/>
	<path class="st6" d="M145.1-577c-0.5,0.2-1,0.4-1.5,0.3c-0.4,0-0.9-0.1-1.3-0.2c-0.4-0.2-0.7-0.4-1-0.7c-0.3-0.3-0.5-0.6-0.7-1
		c-0.2-0.4-0.2-0.8-0.2-1.2c0-0.4,0.1-0.9,0.2-1.3c0.2-0.4,0.4-0.7,0.7-1c0.3-0.3,0.6-0.5,1-0.7c0.4-0.2,0.8-0.3,1.3-0.3
		c0.3,0,0.5,0,0.8,0.1c0.2,0,0.5,0.1,0.7,0.2c0.2,0.1,0.4,0.2,0.6,0.4c0.2,0.1,0.3,0.3,0.5,0.4l-0.6,0.6c-0.2-0.3-0.5-0.5-0.8-0.7
		c-0.3-0.2-0.7-0.3-1.1-0.3c-0.3,0-0.6,0.1-0.9,0.2c-0.3,0.1-0.5,0.3-0.7,0.5c-0.2,0.2-0.4,0.5-0.5,0.8c-0.1,0.3-0.2,0.6-0.2,0.9
		c0,0.3,0.1,0.6,0.2,0.9c0.1,0.3,0.3,0.5,0.5,0.8c0.2,0.2,0.5,0.4,0.7,0.5c0.3,0.1,0.6,0.2,0.9,0.2c0.4,0,0.7-0.1,1.1-0.3
		c0.3-0.2,0.6-0.4,0.8-0.7l0.6,0.5C145.9-577.4,145.5-577.2,145.1-577z"/>
	<path class="st6" d="M148.3-578.6c0.1,0.2,0.3,0.5,0.5,0.7c0.2,0.2,0.4,0.3,0.7,0.4c0.2,0.1,0.5,0.1,0.8,0.1c0.4,0,0.8-0.1,1.1-0.2
		c0.3-0.2,0.6-0.4,0.8-0.6l0.6,0.5c-0.3,0.3-0.7,0.6-1.1,0.8c-0.5,0.2-1,0.3-1.5,0.3c-0.4,0-0.8-0.1-1.2-0.2c-0.4-0.2-0.7-0.4-1-0.7
		c-0.3-0.3-0.5-0.6-0.7-1c-0.3-0.8-0.3-1.7,0-2.6c0.1-0.4,0.3-0.7,0.6-1c0.3-0.3,0.6-0.5,1-0.7c0.4-0.2,0.8-0.3,1.2-0.3
		c0.8,0,1.6,0.4,2.1,1c0.2,0.3,0.4,0.7,0.6,1c0.1,0.4,0.2,0.8,0.2,1.3v0.1c0,0.1,0,0.1,0,0.2h-4.9
		C148.2-579.1,148.2-578.9,148.3-578.6z M152.1-580.2c0-0.3-0.1-0.5-0.2-0.8c-0.1-0.2-0.2-0.5-0.4-0.7c-0.4-0.4-0.9-0.6-1.4-0.6
		c-0.3,0-0.5,0.1-0.8,0.2c-0.2,0.1-0.4,0.3-0.6,0.4c-0.2,0.2-0.3,0.4-0.4,0.7c-0.1,0.3-0.2,0.5-0.2,0.8H152.1z"/>
	<path class="st6" d="M155.9-582.1c-0.3,0.1-0.6,0.2-0.9,0.3l-0.3-0.8c0.3-0.2,0.7-0.3,1-0.4c0.4-0.1,0.8-0.1,1.2-0.1
		c0.7-0.1,1.4,0.2,2,0.6c0.5,0.5,0.7,1.2,0.7,1.9v3.8h-0.9v-0.9c-0.2,0.3-0.5,0.6-0.9,0.8c-0.4,0.2-0.9,0.3-1.4,0.3
		c-0.3,0-0.6,0-0.9-0.1c-0.3-0.1-0.5-0.2-0.7-0.4c-0.2-0.2-0.4-0.4-0.5-0.6c-0.1-0.3-0.2-0.6-0.2-0.9c0-0.3,0.1-0.6,0.2-0.9
		c0.1-0.3,0.3-0.5,0.5-0.6c0.3-0.2,0.5-0.3,0.8-0.4c0.4-0.1,0.7-0.1,1.1-0.1c0.6,0,1.3,0.1,1.9,0.3v-0.2c0-0.5-0.1-0.9-0.5-1.3
		c-0.4-0.3-0.9-0.5-1.4-0.4C156.5-582.2,156.2-582.2,155.9-582.1z M155.6-579.5c-0.3,0.2-0.5,0.6-0.5,1c0,0.2,0,0.4,0.1,0.5
		c0.1,0.2,0.2,0.3,0.3,0.4c0.1,0.1,0.3,0.2,0.5,0.2c0.5,0.1,0.9,0.1,1.4,0c0.2-0.1,0.5-0.2,0.7-0.3c0.2-0.1,0.3-0.3,0.4-0.5
		c0.1-0.2,0.2-0.4,0.2-0.7v-0.6l-0.8-0.2c-0.3-0.1-0.7-0.1-1-0.1C156.5-579.8,156-579.7,155.6-579.5z"/>
	<path class="st6" d="M162.5-576.8h-0.9v-6.2h0.9v1.1c0.2-0.3,0.5-0.6,0.8-0.9c0.4-0.3,0.8-0.4,1.3-0.4c0.3,0,0.7,0.1,1,0.2
		c0.3,0.1,0.5,0.3,0.7,0.5c0.2,0.2,0.4,0.5,0.5,0.8c0.1,0.3,0.2,0.7,0.2,1v3.9h-0.9v-3.6c0-0.5-0.1-1-0.4-1.4
		c-0.3-0.4-0.8-0.5-1.3-0.5c-0.3,0-0.5,0-0.7,0.1c-0.2,0.1-0.4,0.2-0.6,0.4c-0.2,0.2-0.3,0.4-0.4,0.6c-0.1,0.3-0.1,0.5-0.1,0.8
		L162.5-576.8z"/>
	<path class="st6" d="M178.6-578.5c-0.2,0.4-0.4,0.7-0.7,1c-0.3,0.3-0.6,0.5-1,0.6c-0.3,0.1-0.7,0.2-1.1,0.2c-0.3,0-0.5,0-0.8-0.1
		c-0.2-0.1-0.4-0.2-0.6-0.3c-0.2-0.1-0.4-0.3-0.5-0.4c-0.2-0.2-0.3-0.3-0.4-0.5v3.1h-0.9v-8.1h0.9v1.2c0.1-0.2,0.3-0.4,0.4-0.5
		c0.2-0.2,0.3-0.3,0.5-0.4c0.2-0.1,0.4-0.2,0.6-0.3c0.3-0.1,0.5-0.1,0.8-0.1c0.4,0,0.7,0.1,1.1,0.2c0.4,0.1,0.7,0.4,0.9,0.6
		c0.3,0.3,0.5,0.6,0.7,1C178.9-580.4,178.9-579.4,178.6-578.5L178.6-578.5z M177.7-580.9c-0.1-0.3-0.3-0.5-0.5-0.8
		c-0.2-0.2-0.4-0.4-0.7-0.5c-0.3-0.1-0.6-0.2-0.8-0.2c-0.3,0-0.6,0.1-0.8,0.2c-0.3,0.1-0.5,0.3-0.7,0.5c-0.2,0.2-0.4,0.5-0.5,0.8
		c-0.1,0.3-0.2,0.7-0.2,1c0,0.3,0.1,0.7,0.2,1c0.1,0.3,0.3,0.5,0.5,0.8c0.2,0.2,0.5,0.4,0.7,0.5c0.5,0.2,1.1,0.2,1.7,0
		c0.3-0.1,0.5-0.3,0.7-0.5c0.2-0.2,0.4-0.5,0.5-0.8c0.1-0.3,0.2-0.7,0.2-1C177.9-580.2,177.8-580.5,177.7-580.9L177.7-580.9z"/>
	<path class="st6" d="M180.6-576.8v-8.8h0.9v8.8H180.6z"/>
	<path class="st6" d="M185-582.1c-0.3,0.1-0.6,0.2-0.9,0.3l-0.3-0.8c0.3-0.2,0.7-0.3,1-0.4c0.4-0.1,0.8-0.1,1.2-0.1
		c0.7,0,1.4,0.2,1.9,0.6c0.5,0.5,0.7,1.2,0.7,1.9v3.8h-0.9v-0.9c-0.2,0.3-0.5,0.6-0.9,0.8c-0.4,0.2-0.9,0.3-1.4,0.3
		c-0.3,0-0.6,0-0.8-0.1c-0.3-0.1-0.5-0.2-0.8-0.4c-0.2-0.2-0.4-0.4-0.5-0.6c-0.1-0.3-0.2-0.6-0.2-0.9c0-0.3,0.1-0.6,0.2-0.9
		c0.1-0.2,0.3-0.5,0.5-0.6c0.3-0.2,0.5-0.3,0.9-0.4c0.4-0.1,0.7-0.1,1.1-0.1c0.3,0,0.7,0,1,0.1c0.3,0.1,0.6,0.1,0.9,0.2v-0.2
		c0-0.5-0.1-0.9-0.5-1.3c-0.4-0.3-0.9-0.5-1.4-0.4C185.6-582.2,185.3-582.2,185-582.1z M184.7-579.6c-0.4,0.4-0.6,1-0.3,1.5
		c0.1,0.2,0.2,0.3,0.3,0.4c0.2,0.1,0.3,0.2,0.5,0.2c0.2,0.1,0.4,0.1,0.6,0.1c0.3,0,0.5,0,0.8-0.1c0.2-0.1,0.5-0.2,0.7-0.3
		c0.2-0.1,0.3-0.3,0.4-0.5c0.1-0.2,0.2-0.4,0.2-0.7v-0.6l-0.8-0.2c-0.3-0.1-0.7-0.1-1-0.1C185.5-579.9,185-579.8,184.7-579.6
		L184.7-579.6z"/>
	<path class="st6" d="M194.7-577.7c-0.1,0.2-0.3,0.4-0.5,0.6c-0.2,0.2-0.4,0.3-0.7,0.4c-0.3,0.1-0.6,0.1-0.9,0.1
		c-0.5,0-0.9-0.1-1.4-0.2c-0.4-0.1-0.8-0.4-1.2-0.7l0.5-0.7c0.3,0.2,0.7,0.4,1.1,0.6c0.3,0.1,0.7,0.2,1.1,0.2c0.3,0,0.7-0.1,0.9-0.3
		c0.2-0.2,0.4-0.4,0.4-0.7l0,0c0-0.1,0-0.3-0.1-0.4c-0.1-0.1-0.2-0.2-0.3-0.3c-0.2-0.1-0.3-0.2-0.5-0.2l-0.6-0.2l-0.7-0.2
		c-0.2-0.1-0.5-0.2-0.7-0.3c-0.2-0.1-0.4-0.3-0.5-0.5c-0.1-0.2-0.2-0.5-0.2-0.7l0,0c0-0.2,0-0.5,0.1-0.7c0.1-0.2,0.3-0.4,0.4-0.6
		c0.2-0.2,0.4-0.3,0.7-0.4c0.3-0.1,0.6-0.1,0.9-0.1c0.4,0,0.8,0.1,1.2,0.2c0.4,0.1,0.7,0.3,1.1,0.5l-0.4,0.7
		c-0.3-0.2-0.6-0.3-0.9-0.4c-0.3-0.1-0.6-0.2-0.9-0.2c-0.3,0-0.6,0.1-0.9,0.3c-0.2,0.1-0.3,0.4-0.3,0.6l0,0c0,0.1,0,0.3,0.1,0.4
		c0.1,0.1,0.2,0.2,0.4,0.3c0.2,0.1,0.3,0.2,0.5,0.2l0.6,0.2l0.7,0.2c0.2,0.1,0.4,0.2,0.6,0.3c0.2,0.1,0.3,0.3,0.5,0.5
		c0.1,0.2,0.2,0.5,0.2,0.7l0,0C194.9-578.2,194.8-577.9,194.7-577.7z"/>
	<path class="st6" d="M197.7-578.5c0,0.3,0.1,0.6,0.3,0.8c0.2,0.2,0.5,0.2,0.8,0.2c0.1,0,0.3,0,0.4,0c0.2,0,0.3-0.1,0.4-0.2v0.8
		c-0.2,0.1-0.3,0.2-0.5,0.2c-0.2,0.1-0.4,0.1-0.6,0.1c-0.2,0-0.5,0-0.7-0.1c-0.2-0.1-0.4-0.2-0.6-0.3c-0.2-0.2-0.3-0.3-0.4-0.5
		c-0.1-0.3-0.1-0.5-0.1-0.8v-3.8H196v-0.8h0.9v-1.9h0.9v1.9h2v0.8h-2V-578.5z"/>
	<path class="st6" d="M201.4-584.3v-1h1.1v1H201.4z M201.4-576.8v-6.2h0.9v6.2H201.4z"/>
	<path class="st6" d="M208.8-577c-0.5,0.2-1,0.4-1.5,0.3c-0.4,0-0.9-0.1-1.3-0.2c-0.4-0.2-0.7-0.4-1-0.7c-0.3-0.3-0.5-0.6-0.7-1
		c-0.2-0.4-0.2-0.8-0.2-1.2c0-0.4,0.1-0.9,0.2-1.3c0.2-0.4,0.4-0.7,0.7-1c0.3-0.3,0.6-0.5,1-0.7c0.4-0.2,0.8-0.3,1.3-0.3
		c0.3,0,0.5,0,0.8,0.1c0.2,0,0.5,0.1,0.7,0.2c0.2,0.1,0.4,0.2,0.6,0.4c0.2,0.1,0.3,0.3,0.5,0.4l-0.6,0.6c-0.2-0.3-0.5-0.5-0.8-0.7
		c-0.3-0.2-0.7-0.3-1.1-0.3c-0.3,0-0.6,0.1-0.9,0.2c-0.3,0.1-0.5,0.3-0.7,0.5c-0.4,0.5-0.6,1.1-0.6,1.7c0,0.3,0.1,0.6,0.2,0.9
		c0.1,0.3,0.3,0.5,0.5,0.8c0.2,0.2,0.4,0.4,0.7,0.5c0.3,0.1,0.6,0.2,0.9,0.2c0.4,0,0.7-0.1,1.1-0.3c0.3-0.2,0.6-0.4,0.8-0.7l0.6,0.5
		C209.5-577.4,209.2-577.2,208.8-577z"/>
	<path class="st6" d="M35-562.5c-0.5,0.2-1,0.4-1.5,0.3c-0.4,0-0.9-0.1-1.3-0.2c-0.4-0.2-0.7-0.4-1-0.7c-0.3-0.3-0.5-0.6-0.7-1
		c-0.2-0.4-0.2-0.8-0.2-1.2c0-0.4,0.1-0.9,0.2-1.3c0.2-0.4,0.4-0.7,0.7-1c0.3-0.3,0.6-0.5,1-0.7c0.4-0.2,0.8-0.3,1.3-0.3
		c0.3,0,0.5,0,0.8,0.1c0.2,0,0.5,0.1,0.7,0.2c0.2,0.1,0.4,0.2,0.6,0.4c0.2,0.1,0.3,0.3,0.5,0.4l-0.6,0.6c-0.2-0.3-0.5-0.5-0.8-0.7
		c-0.3-0.2-0.7-0.3-1.1-0.3c-0.3,0-0.6,0.1-0.9,0.2c-0.3,0.1-0.5,0.3-0.7,0.5c-0.4,0.5-0.6,1.1-0.6,1.7c0,0.3,0.1,0.6,0.2,0.9
		c0.1,0.3,0.3,0.5,0.5,0.8c0.2,0.2,0.4,0.4,0.7,0.5c0.3,0.1,0.6,0.2,0.9,0.2c0.4,0,0.7-0.1,1.1-0.3c0.3-0.2,0.6-0.4,0.8-0.7l0.6,0.5
		C35.7-563,35.4-562.7,35-562.5z"/>
	<path class="st6" d="M43.2-564.2c-0.3,0.8-0.9,1.4-1.7,1.7c-0.4,0.2-0.8,0.3-1.3,0.2c-0.4,0-0.9-0.1-1.3-0.2
		c-0.4-0.2-0.7-0.4-1-0.7c-0.3-0.3-0.5-0.6-0.7-1c-0.2-0.4-0.3-0.8-0.3-1.3c0-0.4,0.1-0.9,0.2-1.3c0.7-1.7,2.6-2.5,4.2-1.8
		c0.8,0.3,1.4,1,1.8,1.8c0.2,0.4,0.2,0.8,0.2,1.2C43.4-565,43.3-564.6,43.2-564.2z M42.3-566.4c-0.1-0.3-0.3-0.5-0.5-0.8
		c-0.2-0.2-0.5-0.4-0.7-0.5c-0.3-0.1-0.6-0.2-0.9-0.2c-0.3,0-0.6,0.1-0.9,0.2c-0.3,0.1-0.5,0.3-0.7,0.5c-0.2,0.2-0.4,0.5-0.5,0.8
		c-0.1,0.3-0.2,0.6-0.2,0.9c0,0.3,0.1,0.6,0.2,0.9c0.1,0.3,0.3,0.5,0.5,0.8c0.2,0.2,0.5,0.4,0.7,0.5c0.3,0.1,0.6,0.2,0.9,0.2
		c0.3,0,0.6-0.1,0.9-0.2c0.3-0.1,0.5-0.3,0.7-0.5c0.2-0.2,0.4-0.5,0.5-0.8c0.1-0.3,0.2-0.6,0.2-0.9
		C42.5-565.8,42.4-566.1,42.3-566.4z"/>
	<path class="st6" d="M46-562.4h-0.9v-6.2H46v1c0.2-0.3,0.5-0.6,0.8-0.9c0.4-0.3,0.8-0.4,1.3-0.4c0.3,0,0.7,0.1,1,0.2
		c0.3,0.1,0.5,0.3,0.7,0.5c0.2,0.2,0.4,0.5,0.5,0.8c0.1,0.3,0.2,0.7,0.2,1v3.9h-0.9v-3.6c0-0.5-0.1-1-0.5-1.4
		c-0.3-0.4-0.8-0.5-1.3-0.5c-0.3,0-0.5,0-0.7,0.1c-0.5,0.2-0.8,0.5-1,1c-0.1,0.3-0.1,0.5-0.1,0.8L46-562.4z"/>
	<path class="st6" d="M56.7-562.5c-0.5,0.2-1,0.4-1.5,0.3c-0.4,0-0.9-0.1-1.3-0.2c-0.4-0.2-0.7-0.4-1-0.7c-0.3-0.3-0.5-0.6-0.7-1
		c-0.2-0.4-0.2-0.8-0.2-1.2c0-0.4,0.1-0.9,0.2-1.3c0.2-0.4,0.4-0.7,0.7-1c0.6-0.6,1.4-1,2.3-1c0.3,0,0.5,0,0.8,0.1
		c0.2,0,0.5,0.1,0.7,0.2c0.2,0.1,0.4,0.2,0.5,0.4c0.2,0.1,0.3,0.3,0.5,0.4l-0.6,0.7c-0.2-0.3-0.5-0.5-0.8-0.7
		c-0.3-0.2-0.7-0.3-1.1-0.3c-0.3,0-0.6,0.1-0.9,0.2c-0.3,0.1-0.5,0.3-0.7,0.5c-0.2,0.2-0.4,0.5-0.5,0.8c-0.1,0.3-0.2,0.6-0.2,0.9
		c0,0.3,0.1,0.6,0.2,0.9c0.1,0.3,0.3,0.5,0.5,0.8c0.2,0.2,0.4,0.4,0.7,0.5c0.3,0.1,0.6,0.2,0.9,0.2c0.4,0,0.7-0.1,1.1-0.3
		c0.3-0.2,0.6-0.4,0.8-0.7l0.6,0.5C57.5-563,57.2-562.7,56.7-562.5z"/>
	<path class="st6" d="M60-564.2c0.1,0.2,0.3,0.5,0.5,0.7c0.2,0.2,0.4,0.3,0.7,0.4c0.2,0.1,0.5,0.1,0.8,0.1c0.4,0,0.8-0.1,1.1-0.2
		c0.3-0.2,0.6-0.4,0.8-0.6l0.6,0.5c-0.3,0.3-0.7,0.6-1.1,0.9c-0.5,0.2-1,0.3-1.5,0.3c-0.4,0-0.8-0.1-1.2-0.2
		c-0.8-0.3-1.4-0.9-1.7-1.7c-0.2-0.4-0.3-0.9-0.2-1.3c0-0.4,0-0.9,0.2-1.3c0.1-0.4,0.3-0.7,0.6-1c0.3-0.3,0.6-0.5,0.9-0.7
		c0.4-0.2,0.8-0.3,1.2-0.3c0.4,0,0.8,0.1,1.2,0.3c0.3,0.2,0.7,0.4,0.9,0.7c0.2,0.3,0.4,0.6,0.6,1c0.1,0.4,0.2,0.8,0.2,1.3v0.1
		c0,0.1,0,0.1,0,0.2h-4.9C59.7-564.8,59.8-564.5,60-564.2z M63.7-565.8c0-0.3-0.1-0.5-0.2-0.8c-0.1-0.2-0.2-0.5-0.4-0.7
		c-0.2-0.2-0.4-0.4-0.6-0.5c-0.3-0.1-0.5-0.2-0.8-0.2c-0.3,0-0.5,0.1-0.8,0.2c-0.2,0.1-0.4,0.3-0.6,0.4c-0.2,0.2-0.3,0.4-0.4,0.7
		c-0.1,0.3-0.2,0.6-0.2,0.8H63.7z"/>
	<path class="st6" d="M67.2-562.4h-0.9v-6.2h0.9v1c0.2-0.3,0.5-0.6,0.8-0.9c0.4-0.3,0.8-0.4,1.3-0.4c0.3,0,0.7,0.1,1,0.2
		c0.3,0.1,0.5,0.3,0.8,0.5c0.2,0.2,0.4,0.5,0.5,0.8c0.1,0.3,0.2,0.7,0.2,1v3.9h-0.9v-3.6c0-0.5-0.1-1-0.5-1.4
		c-0.3-0.4-0.8-0.5-1.3-0.5c-0.3,0-0.5,0-0.7,0.1c-0.2,0.1-0.4,0.2-0.6,0.4c-0.2,0.2-0.3,0.4-0.4,0.6c-0.1,0.3-0.1,0.5-0.1,0.8
		L67.2-562.4z"/>
	<path class="st6" d="M74.9-564.1c0,0.3,0.1,0.6,0.3,0.8c0.2,0.2,0.5,0.2,0.8,0.2c0.2,0,0.3,0,0.4-0.1c0.2,0,0.3-0.1,0.5-0.2v0.8
		c-0.2,0.1-0.3,0.2-0.5,0.2c-0.2,0.1-0.4,0.1-0.6,0.1c-0.2,0-0.5,0-0.7-0.1c-0.2-0.1-0.4-0.2-0.6-0.3c-0.2-0.2-0.3-0.3-0.4-0.5
		c-0.1-0.3-0.1-0.5-0.1-0.8v-3.8h-0.9v-0.8H74v-1.9h0.9v1.9h2v0.8h-2L74.9-564.1z"/>
	<path class="st6" d="M79.4-562.4h-0.9v-6.2h0.9v1.6c0.1-0.3,0.2-0.5,0.4-0.7c0.2-0.2,0.4-0.4,0.6-0.6c0.2-0.2,0.4-0.3,0.7-0.3
		c0.3-0.1,0.5-0.1,0.8-0.1v1h-0.1c-0.3,0-0.7,0.1-1,0.2c-0.3,0.1-0.6,0.3-0.8,0.5c-0.2,0.3-0.4,0.6-0.5,0.9
		c-0.1,0.4-0.2,0.8-0.2,1.2L79.4-562.4z"/>
	<path class="st6" d="M84.3-567.7c-0.3,0.1-0.6,0.2-0.9,0.3l-0.3-0.8c0.3-0.2,0.7-0.3,1-0.4c0.4-0.1,0.8-0.1,1.2-0.1
		c0.7,0,1.4,0.2,2,0.6c0.5,0.5,0.7,1.2,0.7,1.9v3.8h-0.8v-0.9c-0.2,0.3-0.5,0.6-0.9,0.8c-0.4,0.2-0.9,0.3-1.4,0.3
		c-0.3,0-0.6,0-0.8-0.1c-0.3-0.1-0.5-0.2-0.8-0.4c-0.2-0.2-0.4-0.4-0.5-0.6c-0.1-0.3-0.2-0.6-0.2-0.8c0-0.3,0.1-0.6,0.2-0.9
		c0.1-0.2,0.3-0.5,0.5-0.6c0.3-0.2,0.5-0.3,0.8-0.4c0.4-0.1,0.7-0.1,1.1-0.1c0.3,0,0.7,0,1,0.1c0.3,0.1,0.6,0.1,0.9,0.2v-0.2
		c0-0.5-0.1-0.9-0.5-1.3c-0.4-0.3-0.9-0.5-1.4-0.4C84.9-567.8,84.6-567.8,84.3-567.7z M84-565.2c-0.4,0.4-0.6,1-0.3,1.5
		c0.1,0.2,0.2,0.3,0.3,0.4c0.2,0.1,0.3,0.2,0.5,0.2c0.2,0.1,0.4,0.1,0.6,0.1c0.3,0,0.5,0,0.8-0.1c0.2-0.1,0.5-0.2,0.7-0.3
		c0.2-0.1,0.3-0.3,0.4-0.5c0.1-0.2,0.2-0.4,0.2-0.7v-0.6l-0.8-0.2c-0.3-0.1-0.7-0.1-1-0.1C84.9-565.5,84.4-565.4,84-565.2z"/>
	<path class="st6" d="M91.2-564.1c0,0.3,0.1,0.6,0.3,0.8c0.2,0.2,0.5,0.2,0.8,0.2c0.1,0,0.3,0,0.4-0.1c0.2,0,0.3-0.1,0.5-0.2v0.8
		c-0.2,0.1-0.3,0.2-0.5,0.2c-0.2,0.1-0.4,0.1-0.6,0.1c-0.2,0-0.5,0-0.7-0.1c-0.2-0.1-0.4-0.2-0.6-0.3c-0.2-0.2-0.3-0.3-0.4-0.5
		c-0.1-0.3-0.1-0.5-0.1-0.8v-3.8h-0.9v-0.8h0.9v-1.9h0.9v1.9h2v0.8h-2L91.2-564.1z"/>
	<path class="st6" d="M94.8-569.9v-1h1.1v1H94.8z M94.9-562.4v-6.2h0.9v6.2L94.9-562.4z"/>
	<path class="st6" d="M103.8-564.2c-0.2,0.4-0.4,0.7-0.7,1c-0.3,0.3-0.6,0.5-1,0.7c-0.4,0.2-0.8,0.3-1.3,0.2c-0.4,0-0.9-0.1-1.3-0.2
		c-0.4-0.2-0.7-0.4-1-0.7c-0.3-0.3-0.5-0.6-0.7-1c-0.2-0.4-0.2-0.8-0.2-1.2c0-0.4,0.1-0.9,0.2-1.3c0.2-0.4,0.4-0.7,0.7-1
		c0.3-0.3,0.6-0.5,1-0.7c0.4-0.2,0.9-0.3,1.3-0.3c0.4,0,0.9,0.1,1.3,0.3c0.4,0.2,0.7,0.4,1,0.7c0.3,0.3,0.5,0.6,0.7,1
		c0.2,0.4,0.2,0.8,0.2,1.2C104-565,104-564.6,103.8-564.2z M103-566.4c-0.1-0.3-0.3-0.5-0.5-0.8c-0.2-0.2-0.5-0.4-0.7-0.5
		c-0.3-0.1-0.6-0.2-0.9-0.2c-0.3,0-0.6,0.1-0.9,0.2c-0.3,0.1-0.5,0.3-0.7,0.5c-0.2,0.2-0.4,0.5-0.5,0.8c-0.1,0.3-0.2,0.6-0.2,0.9
		c0,0.3,0.1,0.6,0.2,0.9c0.1,0.3,0.3,0.5,0.5,0.8c0.2,0.2,0.5,0.4,0.7,0.5c0.3,0.1,0.6,0.2,0.9,0.2c0.3,0,0.6-0.1,0.9-0.2
		c0.3-0.1,0.5-0.3,0.7-0.5c0.2-0.2,0.4-0.5,0.5-0.8c0.1-0.3,0.2-0.6,0.2-0.9C103.1-565.8,103.1-566.1,103-566.4z"/>
	<path class="st6" d="M106.6-562.4h-0.9v-6.2h0.9v1c0.2-0.3,0.5-0.6,0.8-0.9c0.4-0.3,0.8-0.4,1.3-0.4c0.3,0,0.7,0.1,1,0.2
		c0.3,0.1,0.5,0.3,0.7,0.5c0.2,0.2,0.4,0.5,0.5,0.8c0.1,0.3,0.2,0.7,0.2,1v3.9h-0.9v-3.6c0-0.5-0.1-1-0.4-1.4
		c-0.3-0.4-0.8-0.5-1.3-0.5c-0.3,0-0.5,0-0.7,0.1c-0.2,0.1-0.4,0.2-0.6,0.4c-0.2,0.2-0.3,0.4-0.4,0.6c-0.1,0.3-0.1,0.5-0.1,0.8
		L106.6-562.4z"/>
	<path class="st6" d="M117.2-563.3c-0.2,0.5-0.7,0.8-1.2,0.9c-0.3,0.1-0.6,0.1-0.9,0.1c-0.5,0-0.9-0.1-1.3-0.2
		c-0.4-0.2-0.9-0.4-1.2-0.7l0.5-0.7c0.3,0.2,0.6,0.4,1,0.6c0.4,0.1,0.7,0.2,1.1,0.2c0.3,0,0.6-0.1,0.9-0.3c0.2-0.2,0.4-0.4,0.4-0.7
		l0,0c0-0.1,0-0.3-0.1-0.4c-0.1-0.1-0.2-0.2-0.3-0.3c-0.2-0.1-0.3-0.2-0.5-0.2l-0.5-0.2l-0.7-0.2c-0.2-0.1-0.5-0.2-0.7-0.3
		c-0.2-0.1-0.4-0.3-0.5-0.5c-0.1-0.2-0.2-0.5-0.2-0.7l0,0c0-0.2,0.1-0.5,0.2-0.7c0.1-0.2,0.3-0.4,0.4-0.6c0.2-0.2,0.4-0.3,0.7-0.4
		c0.3-0.1,0.6-0.1,0.8-0.1c0.4,0,0.8,0.1,1.2,0.2c0.4,0.1,0.7,0.3,1.1,0.5l-0.4,0.7c-0.3-0.2-0.6-0.3-0.9-0.4
		c-0.3-0.1-0.6-0.2-0.9-0.2c-0.3,0-0.6,0.1-0.9,0.3c-0.2,0.1-0.3,0.4-0.3,0.6l0,0c0,0.1,0,0.3,0.1,0.4c0.1,0.1,0.2,0.2,0.4,0.3
		c0.2,0.1,0.3,0.2,0.5,0.2l0.6,0.2c0.2,0.1,0.5,0.2,0.7,0.2c0.2,0.1,0.4,0.2,0.6,0.3c0.2,0.1,0.4,0.3,0.5,0.5
		c0.1,0.2,0.2,0.5,0.2,0.7l0,0C117.4-563.8,117.3-563.5,117.2-563.3z"/>
	<path class="st6" d="M123.6-562.4h-0.9v-6.2h0.9v1.6c0.1-0.3,0.2-0.5,0.4-0.7c0.2-0.2,0.4-0.4,0.6-0.6c0.2-0.2,0.4-0.3,0.7-0.3
		c0.3-0.1,0.5-0.1,0.8-0.1v1h-0.1c-0.3,0-0.6,0.1-0.9,0.2c-0.3,0.1-0.6,0.3-0.8,0.5c-0.2,0.3-0.4,0.6-0.5,0.9
		c-0.1,0.4-0.2,0.8-0.2,1.2V-562.4z"/>
	<path class="st6" d="M128.5-567.7c-0.3,0.1-0.6,0.2-0.9,0.3l-0.3-0.8c0.3-0.2,0.7-0.3,1-0.4c0.4-0.1,0.8-0.1,1.2-0.1
		c0.7,0,1.4,0.2,1.9,0.6c0.5,0.5,0.7,1.2,0.7,1.9v3.8h-0.9v-0.9c-0.2,0.3-0.5,0.6-0.9,0.8c-0.4,0.2-0.9,0.3-1.4,0.3
		c-0.3,0-0.6,0-0.8-0.1c-0.3-0.1-0.5-0.2-0.8-0.4c-0.2-0.2-0.4-0.4-0.5-0.6c-0.1-0.3-0.2-0.6-0.2-0.8c0-0.3,0.1-0.6,0.2-0.9
		c0.1-0.3,0.3-0.5,0.6-0.6c0.3-0.2,0.5-0.3,0.8-0.4c0.4-0.1,0.7-0.1,1.1-0.1c0.3,0,0.7,0,1,0.1c0.3,0.1,0.6,0.1,0.9,0.2v-0.2
		c0-0.5-0.1-0.9-0.5-1.3c-0.4-0.3-0.9-0.5-1.4-0.4C129.1-567.8,128.8-567.8,128.5-567.7z M128.2-565.2c-0.4,0.4-0.6,1-0.3,1.5
		c0.1,0.2,0.2,0.3,0.3,0.4c0.2,0.1,0.3,0.2,0.5,0.2c0.2,0.1,0.4,0.1,0.6,0.1c0.3,0,0.5,0,0.8-0.1c0.2-0.1,0.5-0.2,0.7-0.3
		c0.2-0.1,0.3-0.3,0.4-0.5c0.1-0.2,0.2-0.4,0.2-0.7v-0.6l-0.8-0.2c-0.3-0.1-0.7-0.1-1-0.1C129.1-565.5,128.6-565.4,128.2-565.2z"/>
	<path class="st6" d="M135.1-562.4h-0.9v-6.2h0.9v1c0.2-0.3,0.5-0.6,0.8-0.9c0.4-0.3,0.8-0.4,1.3-0.4c0.3,0,0.7,0.1,1,0.2
		c0.3,0.1,0.5,0.3,0.8,0.5c0.2,0.2,0.4,0.5,0.5,0.8c0.1,0.3,0.2,0.7,0.2,1v3.9h-0.9v-3.6c0-0.5-0.1-1-0.4-1.4
		c-0.3-0.4-0.8-0.5-1.3-0.5c-0.3,0-0.5,0-0.7,0.1c-0.2,0.1-0.4,0.2-0.6,0.4c-0.2,0.2-0.3,0.4-0.4,0.6c-0.1,0.3-0.1,0.5-0.1,0.8
		L135.1-562.4z"/>
	<path class="st6" d="M147.3-562.1c-0.1,0.4-0.4,0.7-0.6,0.9c-0.3,0.3-0.6,0.5-1,0.6c-0.4,0.1-0.9,0.2-1.3,0.2c-0.5,0-1-0.1-1.5-0.2
		c-0.5-0.1-0.9-0.4-1.3-0.6l0.4-0.7c0.3,0.2,0.7,0.4,1.1,0.6c0.4,0.1,0.8,0.2,1.3,0.2c0.6,0,1.2-0.2,1.7-0.6c0.4-0.4,0.7-1,0.6-1.6
		v-0.7c-0.3,0.4-0.6,0.7-1,0.9c-0.4,0.3-0.9,0.4-1.4,0.4c-0.4,0-0.7-0.1-1.1-0.2c-0.3-0.1-0.7-0.3-0.9-0.6c-0.3-0.3-0.5-0.6-0.7-0.9
		c-0.2-0.4-0.2-0.8-0.2-1.2c0-0.4,0.1-0.8,0.2-1.2c0.3-0.7,0.9-1.2,1.6-1.5c0.6-0.2,1.3-0.3,1.9-0.1c0.2,0.1,0.5,0.1,0.7,0.3
		c0.2,0.1,0.4,0.2,0.5,0.4c0.2,0.1,0.3,0.3,0.4,0.5v-1.1h0.9v5.1C147.5-563,147.4-562.5,147.3-562.1z M146.4-566.6
		c-0.1-0.3-0.3-0.5-0.5-0.7c-0.2-0.2-0.5-0.3-0.7-0.4c-0.3-0.1-0.6-0.2-0.9-0.2c-0.3,0-0.6,0-0.8,0.1c-0.3,0.1-0.5,0.2-0.7,0.4
		c-0.2,0.2-0.4,0.4-0.5,0.7c-0.1,0.3-0.2,0.6-0.2,0.9c0,0.3,0.1,0.6,0.2,0.9c0.1,0.3,0.3,0.5,0.5,0.7c0.2,0.2,0.4,0.3,0.7,0.4
		c0.3,0.1,0.5,0.2,0.8,0.2c0.3,0,0.6,0,0.9-0.2c0.3-0.1,0.5-0.2,0.7-0.4c0.2-0.2,0.4-0.4,0.5-0.7
		C146.7-565.4,146.7-566.1,146.4-566.6z"/>
	<path class="st6" d="M149.6-569.9v-1h1v1H149.6z M149.6-562.4v-6.2h0.9v6.2L149.6-562.4z"/>
	<path class="st6" d="M153.6-562.4h-0.9v-6.2h0.9v1c0.2-0.3,0.5-0.6,0.8-0.9c0.4-0.3,0.8-0.4,1.3-0.4c0.3,0,0.7,0.1,1,0.2
		c0.3,0.1,0.5,0.3,0.7,0.5c0.2,0.2,0.4,0.5,0.5,0.8c0.1,0.3,0.2,0.7,0.2,1v3.9h-0.9v-3.6c0-0.5-0.1-1-0.4-1.4
		c-0.3-0.4-0.8-0.5-1.3-0.5c-0.3,0-0.5,0-0.7,0.1c-0.2,0.1-0.4,0.2-0.6,0.4c-0.2,0.2-0.3,0.4-0.4,0.6c-0.1,0.3-0.1,0.5-0.1,0.8
		V-562.4z"/>
	<path class="st6" d="M165.8-562.1c-0.1,0.4-0.3,0.7-0.6,0.9c-0.3,0.3-0.6,0.5-1,0.6c-0.4,0.1-0.9,0.2-1.3,0.2c-0.5,0-1-0.1-1.5-0.2
		c-0.5-0.1-0.9-0.4-1.3-0.6l0.4-0.7c0.3,0.3,0.7,0.4,1.1,0.6c0.4,0.1,0.8,0.2,1.3,0.2c0.6,0,1.2-0.2,1.6-0.6c0.4-0.4,0.7-1,0.6-1.6
		v-0.7c-0.3,0.4-0.6,0.7-1,0.9c-0.4,0.3-0.9,0.4-1.4,0.4c-0.4,0-0.7-0.1-1.1-0.2c-0.3-0.1-0.7-0.3-0.9-0.6c-0.3-0.3-0.5-0.6-0.7-0.9
		c-0.2-0.4-0.3-0.8-0.2-1.2c0-0.4,0.1-0.8,0.2-1.2c0.2-0.3,0.4-0.7,0.6-0.9c0.3-0.3,0.6-0.5,0.9-0.6c0.3-0.1,0.7-0.2,1.1-0.2
		c0.3,0,0.5,0,0.8,0.1c0.2,0.1,0.5,0.1,0.7,0.3c0.2,0.1,0.4,0.2,0.5,0.4c0.2,0.1,0.3,0.3,0.4,0.5v-1.1h0.9v5.1
		C166-563,165.9-562.5,165.8-562.1z M164.9-566.6c-0.1-0.3-0.3-0.5-0.5-0.7c-0.2-0.2-0.5-0.3-0.7-0.4c-0.3-0.1-0.6-0.2-0.9-0.2
		c-0.3,0-0.6,0-0.8,0.1c-0.3,0.1-0.5,0.2-0.7,0.4c-0.2,0.2-0.4,0.4-0.5,0.7c-0.1,0.3-0.2,0.6-0.2,0.9c0,0.3,0.1,0.6,0.2,0.9
		c0.1,0.2,0.3,0.5,0.5,0.7c0.2,0.2,0.4,0.3,0.7,0.4c0.3,0.1,0.5,0.2,0.8,0.2c0.3,0,0.6-0.1,0.9-0.2c0.3-0.1,0.5-0.2,0.7-0.4
		c0.2-0.2,0.4-0.4,0.5-0.7C165.2-565.4,165.2-566.1,164.9-566.6z"/>
	<path class="st6" d="M33.9-554.1v0.8H32v5.4H31v-5.4h-0.9v-0.8H31v-0.5c0-0.6,0.1-1.1,0.5-1.5c0.4-0.4,0.9-0.6,1.4-0.5
		c0.2,0,0.4,0,0.6,0c0.2,0,0.3,0.1,0.5,0.1v0.8l-0.5-0.1c-0.1,0-0.3,0-0.5,0c-0.7,0-1,0.4-1,1.3v0.5H33.9z"/>
	<path class="st6" d="M36-548h-0.9v-6.2H36v1.6c0.1-0.3,0.2-0.5,0.4-0.7c0.2-0.2,0.4-0.4,0.6-0.6c0.2-0.2,0.4-0.3,0.7-0.4
		c0.3-0.1,0.5-0.1,0.8-0.1v1h0c-0.3,0-0.7,0.1-1,0.2c-0.3,0.1-0.6,0.3-0.8,0.5c-0.2,0.3-0.4,0.6-0.5,0.9c-0.1,0.4-0.2,0.8-0.2,1.2
		V-548z"/>
	<path class="st6" d="M45.5-549.8c-0.2,0.4-0.4,0.7-0.7,1c-0.6,0.6-1.4,1-2.3,1c-0.4,0-0.9-0.1-1.3-0.2c-0.4-0.2-0.7-0.4-1-0.7
		c-0.3-0.3-0.5-0.6-0.7-1c-0.2-0.4-0.2-0.8-0.2-1.2c0-0.4,0.1-0.9,0.2-1.3c0.7-1.7,2.6-2.4,4.3-1.7c0,0,0,0,0,0
		c0.4,0.2,0.7,0.4,1,0.7c0.3,0.3,0.5,0.6,0.7,1c0.2,0.4,0.2,0.8,0.2,1.2C45.8-550.6,45.7-550.2,45.5-549.8z M44.6-552
		c-0.1-0.3-0.3-0.5-0.5-0.8c-0.2-0.2-0.5-0.4-0.7-0.5c-0.6-0.3-1.3-0.3-1.8,0c-0.3,0.1-0.5,0.3-0.7,0.5c-0.2,0.2-0.4,0.5-0.5,0.8
		c-0.1,0.3-0.2,0.6-0.2,0.9c0,0.3,0.1,0.6,0.2,0.9c0.1,0.3,0.3,0.5,0.5,0.8c0.2,0.2,0.5,0.4,0.7,0.5c0.3,0.1,0.6,0.2,0.9,0.2
		c0.3,0,0.6-0.1,0.9-0.2c0.6-0.2,1-0.7,1.2-1.3c0.1-0.3,0.2-0.6,0.2-0.9C44.8-551.4,44.7-551.7,44.6-552z"/>
	<path class="st6" d="M52.7-553.5c0.1-0.2,0.3-0.3,0.5-0.4c0.2-0.1,0.4-0.2,0.6-0.3c0.2-0.1,0.5-0.1,0.7-0.1c0.6,0,1.2,0.2,1.7,0.7
		c0.4,0.5,0.7,1.2,0.6,1.8v3.8H56v-3.6c0-0.5-0.1-1-0.4-1.4c-0.3-0.3-0.7-0.5-1.2-0.5c-0.2,0-0.4,0-0.7,0.1
		c-0.2,0.1-0.4,0.2-0.5,0.4c-0.2,0.2-0.3,0.4-0.4,0.6c-0.1,0.3-0.1,0.5-0.1,0.8v3.6h-0.9v-3.6c0-0.5-0.1-1-0.4-1.4
		c-0.3-0.3-0.7-0.5-1.2-0.5c-0.2,0-0.5,0-0.7,0.2c-0.2,0.1-0.4,0.2-0.5,0.4c-0.2,0.2-0.3,0.4-0.4,0.6c-0.1,0.3-0.1,0.5-0.1,0.8v3.5
		h-0.9v-6.2h0.9v1c0.1-0.2,0.2-0.3,0.3-0.4c0.1-0.1,0.3-0.3,0.4-0.4c0.2-0.1,0.3-0.2,0.5-0.3c0.2-0.1,0.5-0.1,0.7-0.1
		c0.4,0,0.9,0.1,1.2,0.4c0.3,0.2,0.6,0.5,0.7,0.9C52.5-553.2,52.6-553.4,52.7-553.5z"/>
	<path class="st6" d="M63.8-556.4h0.7v8.5h-1v-7.5l-1.6,0.5l-0.2-0.8L63.8-556.4z"/>
	<path class="st6" d="M73.3-550.5c-0.1,0.5-0.4,1-0.7,1.4c-0.3,0.4-0.7,0.8-1.1,1c-0.9,0.5-2,0.5-2.9,0c-0.4-0.2-0.8-0.5-1.1-0.9
		c-0.3-0.4-0.6-0.9-0.7-1.4c-0.2-0.5-0.2-1.1-0.2-1.7c0-0.6,0.1-1.1,0.3-1.7c0.1-0.5,0.4-1,0.7-1.4c0.3-0.4,0.7-0.8,1.1-1
		c0.9-0.5,2-0.5,2.9,0c0.4,0.2,0.8,0.5,1.1,0.9c0.3,0.4,0.6,0.9,0.7,1.4c0.2,0.5,0.2,1.1,0.2,1.7C73.5-551.6,73.5-551.1,73.3-550.5z
		 M72.4-553.5c-0.1-0.4-0.3-0.8-0.5-1.1c-0.2-0.3-0.5-0.6-0.8-0.8c-0.7-0.4-1.5-0.4-2.1,0c-0.3,0.2-0.6,0.5-0.8,0.8
		c-0.2,0.3-0.4,0.7-0.5,1.1c-0.1,0.4-0.2,0.9-0.2,1.3c0,0.4,0.1,0.9,0.2,1.3c0.1,0.4,0.3,0.8,0.5,1.1c0.2,0.3,0.5,0.6,0.8,0.8
		c0.3,0.2,0.7,0.3,1.1,0.3c0.4,0,0.7-0.1,1.1-0.3c0.3-0.2,0.6-0.5,0.8-0.8c0.2-0.3,0.4-0.7,0.5-1.1c0.1-0.4,0.2-0.9,0.2-1.3
		C72.5-552.6,72.5-553,72.4-553.5L72.4-553.5z"/>
	<path class="st6" d="M79.4-548.9c-0.1,0.2-0.3,0.4-0.5,0.6c-0.2,0.2-0.4,0.3-0.7,0.4c-0.3,0.1-0.6,0.1-0.9,0.1
		c-0.5,0-0.9-0.1-1.3-0.2c-0.4-0.1-0.8-0.4-1.2-0.7l0.5-0.7c0.3,0.2,0.7,0.4,1.1,0.6c0.4,0.1,0.7,0.2,1.1,0.2c0.3,0,0.7-0.1,0.9-0.3
		c0.2-0.2,0.4-0.4,0.4-0.7l0,0c0-0.1,0-0.3-0.1-0.4c-0.1-0.1-0.2-0.2-0.3-0.3c-0.2-0.1-0.3-0.2-0.5-0.2l-0.6-0.2l-0.7-0.2
		c-0.2-0.1-0.5-0.2-0.7-0.3c-0.2-0.1-0.4-0.3-0.5-0.5c-0.1-0.2-0.2-0.5-0.2-0.7l0,0c0-0.2,0-0.5,0.2-0.7c0.1-0.2,0.3-0.4,0.4-0.6
		c0.2-0.2,0.4-0.3,0.7-0.4c0.3-0.1,0.6-0.1,0.8-0.1c0.4,0,0.8,0.1,1.2,0.2c0.4,0.1,0.7,0.3,1.1,0.5l-0.4,0.7
		c-0.3-0.2-0.6-0.3-0.9-0.4c-0.3-0.1-0.6-0.2-0.9-0.2c-0.3,0-0.6,0.1-0.9,0.3c-0.2,0.1-0.3,0.4-0.3,0.6l0,0c0,0.1,0,0.3,0.1,0.4
		c0.1,0.1,0.2,0.2,0.3,0.3c0.2,0.1,0.3,0.2,0.5,0.2l0.6,0.2c0.2,0.1,0.5,0.2,0.7,0.2c0.2,0.1,0.4,0.2,0.7,0.3
		c0.2,0.1,0.3,0.3,0.5,0.5c0.1,0.2,0.2,0.5,0.2,0.7l0,0C79.6-549.4,79.5-549.1,79.4-548.9z"/>
	<path class="st6" d="M86.1-549.7c0,0.3,0.1,0.6,0.3,0.8c0.2,0.2,0.5,0.2,0.8,0.2c0.2,0,0.3,0,0.5,0c0.2,0,0.3-0.1,0.4-0.2v0.8
		c-0.2,0.1-0.3,0.2-0.5,0.2c-0.2,0.1-0.4,0.1-0.6,0.1c-0.2,0-0.5,0-0.7-0.1c-0.2-0.1-0.4-0.2-0.6-0.3c-0.2-0.2-0.3-0.3-0.4-0.5
		c-0.1-0.3-0.1-0.5-0.1-0.8v-3.8h-0.9v-0.8h0.9v-1.9h0.9v1.9h2v0.8h-2V-549.7z"/>
	<path class="st6" d="M95.4-549.8c-0.3,0.8-0.9,1.4-1.7,1.7c-0.4,0.2-0.8,0.3-1.3,0.2c-0.4,0-0.9-0.1-1.3-0.2
		c-0.4-0.2-0.7-0.4-1-0.7c-0.3-0.3-0.5-0.6-0.7-1c-0.2-0.4-0.2-0.8-0.2-1.2c0-0.4,0.1-0.9,0.2-1.3c0.5-1.2,1.7-2,3-2
		c0.4,0,0.9,0.1,1.3,0.3c0.4,0.2,0.7,0.4,1,0.7c0.3,0.3,0.5,0.6,0.7,1c0.2,0.4,0.2,0.8,0.2,1.2C95.6-550.6,95.6-550.2,95.4-549.8z
		 M94.5-552c-0.1-0.3-0.3-0.5-0.5-0.8c-0.2-0.2-0.5-0.4-0.7-0.5c-0.3-0.1-0.6-0.2-0.9-0.2c-0.3,0-0.6,0.1-0.9,0.2
		c-0.3,0.1-0.5,0.3-0.7,0.5c-0.2,0.2-0.4,0.5-0.5,0.8c-0.1,0.3-0.2,0.6-0.2,0.9c0,0.3,0.1,0.6,0.2,0.9c0.2,0.6,0.6,1,1.2,1.3
		c0.3,0.1,0.6,0.2,0.9,0.2c0.3,0,0.6-0.1,0.9-0.2c0.3-0.1,0.5-0.3,0.7-0.5c0.2-0.2,0.4-0.5,0.5-0.8c0.1-0.3,0.2-0.6,0.2-0.9
		C94.7-551.4,94.6-551.7,94.5-552z"/>
	<path class="st6" d="M102.3-556.4h0.7v8.5h-1v-7.5l-1.6,0.5l-0.2-0.8L102.3-556.4z"/>
	<path class="st6" d="M111.7-550.5c-0.1,0.5-0.4,1-0.7,1.4c-0.3,0.4-0.7,0.8-1.1,1c-0.9,0.5-2,0.5-2.9,0c-0.4-0.2-0.8-0.5-1.1-0.9
		c-0.3-0.4-0.6-0.9-0.7-1.4c-0.2-0.5-0.2-1.1-0.2-1.7c0-0.6,0.1-1.1,0.3-1.7c0.1-0.5,0.4-1,0.7-1.4c0.3-0.4,0.7-0.8,1.1-1
		c0.9-0.5,2-0.5,2.9,0c0.4,0.2,0.8,0.5,1.1,0.9c0.3,0.4,0.6,0.9,0.7,1.4c0.2,0.5,0.2,1.1,0.2,1.7C112-551.6,111.9-551.1,111.7-550.5
		z M110.8-553.5c-0.1-0.4-0.3-0.8-0.5-1.1c-0.2-0.3-0.5-0.6-0.8-0.8c-0.7-0.4-1.5-0.4-2.1,0c-0.3,0.2-0.6,0.5-0.8,0.8
		c-0.2,0.3-0.4,0.7-0.5,1.1c-0.1,0.4-0.2,0.9-0.2,1.3c0,0.4,0.1,0.9,0.2,1.3c0.1,0.4,0.3,0.8,0.5,1.1c0.2,0.3,0.5,0.6,0.8,0.8
		c0.3,0.2,0.7,0.3,1.1,0.3c0.4,0,0.7-0.1,1.1-0.3c0.3-0.2,0.6-0.5,0.8-0.8c0.2-0.3,0.4-0.7,0.5-1.1c0.1-0.4,0.2-0.9,0.2-1.3
		C111-552.6,111-553,110.8-553.5L110.8-553.5z"/>
	<path class="st6" d="M120.3-550.5c-0.1,0.5-0.4,1-0.7,1.4c-0.3,0.4-0.7,0.8-1.1,1c-0.9,0.5-2,0.5-2.9,0c-0.4-0.2-0.8-0.5-1.1-0.9
		c-0.3-0.4-0.6-0.9-0.7-1.4c-0.2-0.5-0.2-1.1-0.2-1.7c0-0.6,0.1-1.1,0.3-1.7c0.1-0.5,0.4-1,0.7-1.4c0.3-0.4,0.7-0.8,1.1-1
		c0.9-0.5,2-0.5,2.9,0c0.4,0.2,0.8,0.5,1.1,0.9c0.3,0.4,0.6,0.9,0.7,1.4c0.2,0.5,0.2,1.1,0.2,1.7
		C120.6-551.6,120.5-551.1,120.3-550.5z M119.4-553.5c-0.1-0.4-0.3-0.8-0.5-1.1c-0.2-0.3-0.5-0.6-0.8-0.8c-0.7-0.4-1.5-0.4-2.1,0
		c-0.3,0.2-0.6,0.5-0.8,0.8c-0.2,0.3-0.4,0.7-0.5,1.1c-0.1,0.4-0.2,0.9-0.2,1.3c0,0.4,0.1,0.9,0.2,1.3c0.1,0.4,0.3,0.8,0.5,1.1
		c0.2,0.3,0.5,0.6,0.8,0.8c0.3,0.2,0.7,0.3,1.1,0.3c0.4,0,0.7-0.1,1.1-0.3c0.3-0.2,0.6-0.5,0.8-0.8c0.2-0.3,0.4-0.7,0.5-1.1
		c0.1-0.4,0.2-0.9,0.2-1.3C119.6-552.6,119.5-553,119.4-553.5L119.4-553.5z"/>
	<path class="st6" d="M126.4-548.9c-0.1,0.2-0.3,0.4-0.5,0.6c-0.2,0.2-0.4,0.3-0.7,0.4c-0.3,0.1-0.6,0.1-0.9,0.1
		c-0.5,0-0.9-0.1-1.3-0.2c-0.4-0.1-0.8-0.4-1.2-0.7l0.5-0.7c0.3,0.2,0.7,0.4,1.1,0.6c0.4,0.1,0.7,0.2,1.1,0.2c0.3,0,0.7-0.1,0.9-0.3
		c0.2-0.2,0.4-0.4,0.4-0.7l0,0c0-0.1,0-0.3-0.1-0.4c-0.1-0.1-0.2-0.2-0.3-0.3c-0.2-0.1-0.3-0.2-0.5-0.2l-0.6-0.2l-0.7-0.2
		c-0.2-0.1-0.5-0.2-0.7-0.3c-0.2-0.1-0.4-0.3-0.5-0.5c-0.1-0.2-0.2-0.5-0.2-0.7l0,0c0-0.2,0-0.5,0.2-0.7c0.1-0.2,0.3-0.4,0.4-0.6
		c0.2-0.2,0.4-0.3,0.7-0.4c0.3-0.1,0.6-0.1,0.8-0.1c0.4,0,0.8,0.1,1.2,0.2c0.4,0.1,0.7,0.3,1.1,0.5l-0.4,0.7
		c-0.3-0.2-0.6-0.3-0.9-0.4c-0.3-0.1-0.6-0.2-0.9-0.2c-0.3,0-0.6,0.1-0.9,0.3c-0.2,0.1-0.3,0.4-0.3,0.6l0,0c0,0.1,0,0.3,0.1,0.4
		c0.1,0.1,0.2,0.2,0.3,0.3c0.2,0.1,0.3,0.2,0.5,0.2l0.6,0.2c0.2,0.1,0.5,0.2,0.7,0.2c0.2,0.1,0.4,0.2,0.7,0.3
		c0.2,0.1,0.3,0.3,0.5,0.5c0.1,0.2,0.2,0.5,0.2,0.7l0,0C126.6-549.4,126.6-549.1,126.4-548.9z"/>
	<path class="st6" d="M137.4-548h-1.1l-2.2-2.9l-1.3,1.3v1.6H132v-8.8h0.9v6l3.3-3.5h1.2l-2.6,2.7L137.4-548z"/>
	<path class="st6" d="M144.1-547.7c-0.1,0.4-0.4,0.7-0.6,0.9c-0.3,0.3-0.6,0.5-1,0.6c-0.4,0.1-0.9,0.2-1.3,0.2c-0.5,0-1-0.1-1.5-0.2
		c-0.5-0.1-0.9-0.4-1.3-0.7l0.4-0.7c0.3,0.2,0.7,0.4,1.1,0.6c0.4,0.1,0.8,0.2,1.3,0.2c0.6,0,1.2-0.2,1.7-0.6c0.4-0.4,0.7-1,0.6-1.6
		v-0.7c-0.3,0.4-0.6,0.7-1,0.9c-0.4,0.3-0.9,0.4-1.4,0.4c-0.4,0-0.7-0.1-1.1-0.2c-0.3-0.1-0.7-0.3-0.9-0.6c-0.3-0.3-0.5-0.6-0.7-0.9
		c-0.2-0.4-0.2-0.8-0.2-1.2c0-0.4,0.1-0.8,0.2-1.2c0.3-0.7,0.9-1.2,1.6-1.5c0.6-0.2,1.3-0.3,1.9-0.1c0.2,0.1,0.5,0.1,0.7,0.3
		c0.2,0.1,0.4,0.2,0.5,0.4c0.2,0.1,0.3,0.3,0.4,0.5v-1.1h0.9v5.1C144.4-548.6,144.3-548.1,144.1-547.7z M143.3-552.2
		c-0.1-0.3-0.3-0.5-0.5-0.7c-0.2-0.2-0.5-0.3-0.7-0.4c-0.3-0.1-0.6-0.2-0.9-0.1c-0.3,0-0.6,0-0.8,0.1c-0.3,0.1-0.5,0.2-0.7,0.4
		c-0.2,0.2-0.4,0.4-0.5,0.7c-0.1,0.3-0.2,0.6-0.2,0.9c0,0.3,0.1,0.6,0.2,0.9c0.1,0.3,0.3,0.5,0.5,0.7c0.2,0.2,0.4,0.3,0.7,0.4
		c0.3,0.1,0.5,0.2,0.8,0.1c0.3,0,0.6,0,0.9-0.1c0.3-0.1,0.5-0.2,0.7-0.4c0.2-0.2,0.4-0.4,0.5-0.7C143.5-551,143.5-551.7,143.3-552.2
		z"/>
	<path class="st6" d="M156-549.7c-0.2,0.4-0.4,0.7-0.7,1c-0.3,0.3-0.6,0.5-1,0.6c-0.3,0.1-0.7,0.2-1.1,0.2c-0.3,0-0.5,0-0.8-0.1
		c-0.2-0.1-0.4-0.2-0.7-0.3c-0.2-0.1-0.4-0.3-0.5-0.4c-0.2-0.2-0.3-0.3-0.4-0.5v3.1H150v-8.1h1v1.2c0.1-0.2,0.3-0.4,0.4-0.5
		c0.2-0.2,0.3-0.3,0.5-0.4c0.2-0.1,0.4-0.2,0.6-0.3c0.3-0.1,0.5-0.1,0.8-0.1c0.4,0,0.7,0.1,1.1,0.2c0.4,0.1,0.7,0.3,1,0.6
		c0.3,0.3,0.5,0.6,0.7,1C156.4-551.6,156.4-550.6,156-549.7L156-549.7z M155.2-552c-0.1-0.3-0.3-0.5-0.5-0.8
		c-0.2-0.2-0.4-0.4-0.7-0.5c-0.3-0.1-0.6-0.2-0.8-0.2c-0.3,0-0.6,0.1-0.8,0.2c-0.3,0.1-0.5,0.3-0.7,0.5c-0.2,0.2-0.4,0.5-0.5,0.8
		c-0.1,0.3-0.2,0.7-0.2,1c0,0.3,0.1,0.7,0.2,1c0.1,0.3,0.3,0.5,0.5,0.8c0.2,0.2,0.5,0.4,0.7,0.5c0.5,0.2,1.1,0.2,1.7,0
		c0.3-0.1,0.5-0.3,0.7-0.5c0.2-0.2,0.4-0.5,0.5-0.8c0.1-0.3,0.2-0.7,0.2-1C155.4-551.4,155.3-551.7,155.2-552z"/>
	<path class="st6" d="M158.8-549.8c0.2,0.5,0.6,0.9,1.2,1.1c0.2,0.1,0.5,0.1,0.8,0.1c0.4,0,0.8-0.1,1.1-0.2c0.3-0.2,0.6-0.4,0.9-0.6
		l0.6,0.5c-0.3,0.3-0.7,0.6-1.1,0.8c-0.5,0.2-1,0.3-1.5,0.3c-0.4,0-0.8-0.1-1.2-0.2c-0.8-0.3-1.4-0.9-1.7-1.7
		c-0.2-0.4-0.3-0.9-0.2-1.3c0-0.4,0.1-0.9,0.2-1.3c0.1-0.4,0.3-0.7,0.6-1c0.3-0.3,0.6-0.5,0.9-0.7c0.4-0.2,0.8-0.3,1.2-0.3
		c0.4,0,0.8,0.1,1.2,0.3c0.3,0.2,0.7,0.4,0.9,0.7c0.2,0.3,0.4,0.6,0.6,1c0.1,0.4,0.2,0.8,0.2,1.3v0.1c0,0.1,0,0.1,0,0.2h-4.9
		C158.6-550.4,158.7-550.1,158.8-549.8z M162.5-551.4c0-0.3-0.1-0.5-0.2-0.8c-0.1-0.2-0.2-0.5-0.4-0.7c-0.2-0.2-0.4-0.4-0.6-0.5
		c-0.3-0.1-0.5-0.2-0.8-0.2c-0.3,0-0.5,0.1-0.8,0.2c-0.2,0.1-0.4,0.3-0.6,0.4c-0.2,0.2-0.3,0.4-0.4,0.7c-0.1,0.3-0.2,0.6-0.2,0.8
		H162.5z"/>
	<path class="st6" d="M166-548h-0.9v-6.2h0.9v1.6c0.1-0.3,0.2-0.5,0.4-0.7c0.2-0.2,0.4-0.4,0.6-0.6c0.2-0.2,0.4-0.3,0.7-0.4
		c0.3-0.1,0.5-0.1,0.8-0.1v1h-0.1c-0.3,0-0.6,0.1-0.9,0.2c-0.3,0.1-0.6,0.3-0.8,0.5c-0.2,0.3-0.4,0.6-0.5,0.9
		c-0.1,0.4-0.2,0.8-0.2,1.2V-548z"/>
	<path class="st6" d="M179.1-548H178l-2.2-2.9l-1.3,1.3v1.6h-0.9v-8.8h0.9v6l3.4-3.5h1.1l-2.6,2.7L179.1-548z"/>
	<path class="st6" d="M185.7-553.5c0.1-0.1,0.3-0.3,0.5-0.4c0.2-0.1,0.4-0.2,0.6-0.3c0.2-0.1,0.5-0.1,0.7-0.1c0.6,0,1.2,0.2,1.7,0.7
		c0.4,0.5,0.7,1.2,0.6,1.8v3.8h-0.9v-3.6c0-0.5-0.1-1-0.4-1.4c-0.3-0.3-0.7-0.5-1.2-0.5c-0.2,0-0.4,0-0.7,0.1
		c-0.2,0.1-0.4,0.2-0.6,0.4c-0.2,0.2-0.3,0.4-0.4,0.6c-0.1,0.3-0.1,0.5-0.1,0.8v3.6h-0.9v-3.6c0-0.5-0.1-1-0.4-1.4
		c-0.3-0.3-0.7-0.5-1.2-0.5c-0.2,0-0.5,0-0.7,0.2c-0.2,0.1-0.4,0.2-0.6,0.4c-0.2,0.2-0.3,0.4-0.4,0.6c-0.1,0.3-0.1,0.5-0.1,0.8v3.5
		h-0.9v-6.2h0.9v1c0.1-0.2,0.2-0.3,0.3-0.4c0.1-0.1,0.3-0.3,0.4-0.4c0.2-0.1,0.3-0.2,0.5-0.3c0.2-0.1,0.5-0.1,0.7-0.1
		c0.4,0,0.9,0.1,1.2,0.4c0.3,0.2,0.6,0.5,0.7,0.9C185.4-553.2,185.5-553.4,185.7-553.5z"/>
	<path class="st6" d="M193.2-555.3c-0.4,0.3-0.7,0.7-1,1.1l-0.7-0.5c0.2-0.3,0.4-0.5,0.6-0.8c0.2-0.2,0.4-0.4,0.7-0.6
		c0.2-0.2,0.5-0.3,0.8-0.3c0.3-0.1,0.7-0.1,1-0.1c0.4,0,0.7,0.1,1.1,0.2c0.3,0.1,0.6,0.3,0.8,0.5c0.2,0.2,0.4,0.5,0.5,0.8
		c0.1,0.3,0.2,0.7,0.2,1c0,0.3,0,0.6-0.1,0.8c-0.1,0.3-0.2,0.5-0.4,0.8c-0.2,0.3-0.4,0.5-0.7,0.8c-0.3,0.3-0.6,0.6-0.9,0.9l-2.2,2
		h4.5v0.9h-5.9v-0.7l3.1-2.7c0.3-0.2,0.6-0.5,0.8-0.8c0.2-0.2,0.4-0.4,0.6-0.6c0.1-0.2,0.2-0.4,0.3-0.6c0.1-0.2,0.1-0.4,0.1-0.6
		c0-0.2,0-0.5-0.1-0.7c-0.1-0.2-0.2-0.4-0.4-0.5c-0.2-0.1-0.3-0.3-0.5-0.3c-0.2-0.1-0.4-0.1-0.6-0.1
		C194-555.6,193.6-555.5,193.2-555.3z"/>
</g>
<g>
	<path class="st6" d="M261.9-208.3h-1.1l-2.2-2.9l-1.3,1.3v1.6h-0.9v-8.8h0.9v6.1l3.3-3.5h1.2l-2.6,2.7L261.9-208.3z"/>
	<path class="st6" d="M268.6-208c-0.1,0.4-0.4,0.7-0.6,0.9c-0.3,0.3-0.6,0.5-1,0.6c-0.4,0.1-0.9,0.2-1.3,0.2c-0.5,0-1-0.1-1.5-0.2
		c-0.5-0.1-0.9-0.4-1.3-0.7l0.4-0.7c0.3,0.2,0.7,0.4,1.1,0.6c0.4,0.1,0.8,0.2,1.3,0.2c0.6,0,1.2-0.2,1.6-0.6c0.4-0.4,0.7-1,0.6-1.7
		v-0.7c-0.3,0.4-0.6,0.7-1,0.9c-0.4,0.3-0.9,0.4-1.4,0.3c-0.4,0-0.7-0.1-1.1-0.2c-0.3-0.1-0.7-0.3-0.9-0.6c-0.3-0.3-0.5-0.6-0.7-0.9
		c-0.2-0.4-0.2-0.8-0.2-1.2c0-0.4,0.1-0.8,0.2-1.2c0.2-0.3,0.4-0.7,0.7-0.9c0.3-0.3,0.6-0.4,0.9-0.6c0.3-0.1,0.7-0.2,1.1-0.2
		c0.3,0,0.5,0,0.8,0.1c0.2,0.1,0.5,0.1,0.7,0.3c0.2,0.1,0.4,0.2,0.5,0.4c0.2,0.1,0.3,0.3,0.4,0.5v-1.1h0.9v5.1
		C268.8-208.9,268.7-208.5,268.6-208z M267.7-212.6c-0.1-0.3-0.3-0.5-0.5-0.7c-0.2-0.2-0.5-0.3-0.8-0.4c-0.3-0.1-0.6-0.2-0.9-0.1
		c-0.3,0-0.6,0-0.8,0.1c-0.3,0.1-0.5,0.2-0.7,0.4c-0.2,0.2-0.4,0.4-0.5,0.7c-0.1,0.3-0.2,0.6-0.2,0.9c0,0.3,0,0.6,0.2,0.9
		c0.1,0.3,0.3,0.5,0.5,0.7c0.2,0.2,0.4,0.3,0.7,0.4c0.3,0.1,0.5,0.2,0.8,0.2c0.3,0,0.6-0.1,0.9-0.2c0.3-0.1,0.5-0.2,0.7-0.4
		c0.2-0.2,0.4-0.4,0.5-0.7c0.1-0.3,0.2-0.6,0.2-0.9C267.9-212,267.8-212.3,267.7-212.6z"/>
	<path class="st6" d="M280-208.3h-1.1l-2.2-2.9l-1.3,1.3v1.6h-0.9v-8.8h0.9v6.1l3.4-3.5h1.1l-2.6,2.7L280-208.3z"/>
	<path class="st6" d="M286.6-213.9c0.1-0.2,0.3-0.3,0.5-0.4c0.2-0.1,0.4-0.2,0.6-0.3c0.2-0.1,0.5-0.1,0.7-0.1c0.6,0,1.2,0.2,1.7,0.7
		c0.4,0.5,0.7,1.2,0.6,1.8v3.8h-0.9v-3.6c0-0.5-0.1-1-0.4-1.4c-0.3-0.3-0.7-0.5-1.2-0.5c-0.2,0-0.4,0-0.7,0.1
		c-0.2,0.1-0.4,0.2-0.6,0.4c-0.2,0.2-0.3,0.4-0.4,0.6c-0.1,0.3-0.1,0.5-0.1,0.8v3.6h-0.9v-3.6c0-0.5-0.1-1-0.4-1.4
		c-0.3-0.3-0.7-0.5-1.2-0.5c-0.2,0-0.5,0-0.7,0.2c-0.2,0.1-0.4,0.2-0.5,0.4c-0.2,0.2-0.3,0.4-0.4,0.6c-0.1,0.3-0.1,0.5-0.1,0.8v3.5
		h-0.9v-6.2h0.9v1c0.1-0.2,0.2-0.3,0.3-0.4c0.1-0.1,0.3-0.3,0.4-0.4c0.2-0.1,0.3-0.2,0.5-0.3c0.2-0.1,0.5-0.1,0.7-0.1
		c0.4,0,0.9,0.1,1.2,0.4c0.3,0.2,0.6,0.5,0.7,0.9C286.3-213.5,286.4-213.7,286.6-213.9z"/>
	<path class="st6" d="M293.1-218.6c-0.3,0.2-0.5,0.4-0.6,0.7l-0.4-0.3c0.1-0.2,0.2-0.3,0.4-0.5c0.1-0.1,0.3-0.3,0.4-0.4
		c0.2-0.1,0.3-0.2,0.5-0.2c0.2-0.1,0.4-0.1,0.6-0.1c0.2,0,0.4,0,0.6,0.1c0.2,0.1,0.4,0.2,0.5,0.3c0.1,0.1,0.3,0.3,0.4,0.5
		c0.1,0.2,0.1,0.4,0.1,0.6c0,0.2,0,0.4-0.1,0.6c-0.1,0.2-0.1,0.3-0.3,0.5c-0.1,0.2-0.3,0.3-0.4,0.5c-0.2,0.2-0.4,0.4-0.6,0.6
		l-1.5,1.3h2.9v0.6h-3.8v-0.5l2-1.8c0.2-0.2,0.4-0.3,0.5-0.5c0.1-0.1,0.3-0.3,0.4-0.4c0.1-0.1,0.1-0.3,0.2-0.4
		c0-0.1,0.1-0.3,0.1-0.4c0-0.1,0-0.3-0.1-0.4c-0.1-0.1-0.1-0.2-0.2-0.3c-0.1-0.1-0.2-0.2-0.4-0.2
		C293.9-218.9,293.4-218.8,293.1-218.6L293.1-218.6z"/>
</g>
<rect x="7" y="-286" class="st11" width="204.5" height="24.9"/>
<text transform="matrix(1 0 0 1 6.9592 -277.257)" class="st7 st12 st13">GARBAGE CONCENTRATION </text>
<g>
	<g>
		<path class="st7" d="M26-164.9h1v8.5h-1.5v-7l-1.5,0.4l-0.3-1.2L26-164.9z"/>
		<path class="st7" d="M29.2-163.6v-1.3h5.6v1.1l-2.3,2.4c0.3,0,0.6,0.1,0.9,0.2c0.3,0.1,0.6,0.3,0.8,0.4c0.2,0.2,0.4,0.4,0.5,0.7
			c0.1,0.3,0.2,0.6,0.2,1c0,0.4-0.1,0.8-0.2,1.1c-0.1,0.3-0.3,0.6-0.6,0.8c-0.3,0.2-0.6,0.4-0.9,0.6c-0.4,0.1-0.8,0.2-1.2,0.2
			c-0.7,0-1.4-0.1-1.9-0.4c-0.5-0.3-1-0.6-1.3-1.1l1-1c0.3,0.4,0.6,0.6,1,0.8c0.3,0.2,0.8,0.3,1.2,0.3c0.4,0,0.8-0.1,1-0.3
			c0.3-0.2,0.4-0.5,0.4-0.9c0-0.4-0.2-0.7-0.5-1c-0.3-0.2-0.8-0.3-1.4-0.3h-0.7l-0.2-0.9l2.3-2.4H29.2z"/>
		<path class="st7" d="M40-162c-0.1,0.3-0.2,0.5-0.4,0.7s-0.4,0.4-0.6,0.5s-0.5,0.2-0.8,0.2s-0.6-0.1-0.8-0.2
			c-0.2-0.1-0.4-0.3-0.6-0.5c-0.2-0.2-0.3-0.4-0.4-0.7c-0.1-0.3-0.1-0.5-0.1-0.8c0-0.3,0-0.6,0.1-0.8c0.1-0.3,0.2-0.5,0.4-0.7
			c0.2-0.2,0.4-0.4,0.6-0.5c0.2-0.1,0.5-0.2,0.8-0.2s0.6,0.1,0.8,0.2c0.2,0.1,0.4,0.3,0.6,0.5c0.2,0.2,0.3,0.4,0.4,0.7
			c0.1,0.3,0.1,0.5,0.1,0.8C40.1-162.5,40.1-162.3,40-162z M38.2-156.5H37l6.1-8.4h1.2L38.2-156.5z M38.8-163.7
			c-0.2-0.2-0.4-0.4-0.7-0.4c-0.3,0-0.5,0.1-0.7,0.4c-0.2,0.2-0.2,0.5-0.2,0.9c0,0.4,0.1,0.6,0.3,0.9c0.2,0.2,0.4,0.4,0.7,0.4
			c0.3,0,0.5-0.1,0.7-0.4c0.2-0.2,0.2-0.5,0.2-0.9C39.1-163.2,39-163.5,38.8-163.7z M45.1-157.7c-0.1,0.3-0.2,0.5-0.4,0.7
			c-0.2,0.2-0.4,0.4-0.6,0.5c-0.2,0.1-0.5,0.2-0.8,0.2c-0.3,0-0.6-0.1-0.8-0.2c-0.2-0.1-0.4-0.3-0.6-0.5c-0.2-0.2-0.3-0.4-0.4-0.7
			c-0.1-0.3-0.1-0.5-0.1-0.8c0-0.3,0-0.6,0.1-0.8c0.1-0.3,0.2-0.5,0.4-0.7c0.2-0.2,0.4-0.4,0.6-0.5c0.2-0.1,0.5-0.2,0.8-0.2
			s0.6,0.1,0.8,0.2c0.2,0.1,0.4,0.3,0.6,0.5c0.2,0.2,0.3,0.4,0.4,0.7c0.1,0.3,0.1,0.5,0.1,0.8C45.2-158.2,45.2-158,45.1-157.7z
			 M43.9-159.4c-0.2-0.2-0.4-0.4-0.7-0.4c-0.3,0-0.5,0.1-0.7,0.4s-0.2,0.5-0.2,0.9c0,0.4,0.1,0.6,0.3,0.9c0.2,0.2,0.4,0.4,0.7,0.4
			c0.3,0,0.5-0.1,0.7-0.4c0.2-0.2,0.2-0.5,0.2-0.9C44.1-158.9,44.1-159.2,43.9-159.4z"/>
	</g>
	<path class="st7" d="M26.1-147.5c-0.3,0.2-0.6,0.5-0.9,0.9l-1-0.8c0.2-0.3,0.4-0.5,0.6-0.8c0.2-0.2,0.4-0.4,0.7-0.6
		c0.2-0.1,0.5-0.3,0.8-0.3c0.3-0.1,0.6-0.1,1-0.1c0.4,0,0.8,0.1,1.1,0.2c0.3,0.1,0.6,0.3,0.9,0.5c0.2,0.2,0.4,0.5,0.6,0.8
		c0.1,0.3,0.2,0.7,0.2,1c0,0.3,0,0.6-0.1,0.9c-0.1,0.3-0.2,0.5-0.4,0.8s-0.4,0.5-0.7,0.8s-0.6,0.5-1,0.8l-1.7,1.4h4v1.3H24v-1.2
		l2.9-2.5c0.3-0.2,0.5-0.5,0.7-0.7c0.2-0.2,0.4-0.4,0.5-0.6c0.1-0.2,0.2-0.3,0.3-0.5c0.1-0.2,0.1-0.3,0.1-0.5c0-0.4-0.1-0.7-0.4-1
		c-0.3-0.2-0.6-0.3-1-0.3C26.7-147.8,26.4-147.7,26.1-147.5z"/>
	<path class="st7" d="M36.8-147.2c-0.3-0.2-0.6-0.4-0.9-0.5c-0.3-0.1-0.6-0.2-1-0.2c-0.3,0-0.6,0.1-0.8,0.2s-0.4,0.3-0.6,0.6
		s-0.3,0.5-0.4,0.8c-0.1,0.3-0.2,0.7-0.2,1.1c0.1-0.1,0.2-0.2,0.4-0.3c0.1-0.1,0.3-0.2,0.4-0.3c0.2-0.1,0.3-0.1,0.5-0.2
		c0.2,0,0.4-0.1,0.7-0.1c0.4,0,0.8,0.1,1.1,0.2s0.7,0.3,0.9,0.5c0.3,0.2,0.5,0.5,0.6,0.8s0.2,0.7,0.2,1.1s-0.1,0.8-0.2,1.2
		c-0.2,0.4-0.4,0.7-0.7,0.9c-0.3,0.3-0.6,0.4-1,0.6c-0.4,0.1-0.8,0.2-1.2,0.2c-0.5,0-1-0.1-1.4-0.2s-0.7-0.4-1-0.6
		c-0.2-0.2-0.3-0.3-0.4-0.5c-0.1-0.2-0.2-0.4-0.3-0.7c-0.1-0.3-0.2-0.6-0.2-0.9s-0.1-0.7-0.1-1.1c0-0.6,0.1-1.2,0.2-1.8
		c0.2-0.6,0.4-1,0.7-1.5c0.3-0.4,0.7-0.7,1.1-1c0.5-0.2,1-0.4,1.6-0.4c0.5,0,1,0.1,1.4,0.2c0.4,0.2,0.8,0.4,1.2,0.7L36.8-147.2z
		 M36-144.4c-0.3-0.3-0.7-0.4-1.3-0.4c-0.3,0-0.5,0-0.7,0.1c-0.2,0.1-0.4,0.2-0.5,0.3s-0.3,0.3-0.3,0.5c-0.1,0.2-0.1,0.4-0.1,0.6
		c0,0.4,0.2,0.8,0.5,1.1c0.3,0.3,0.7,0.4,1.3,0.4s0.9-0.1,1.2-0.4c0.3-0.3,0.4-0.7,0.4-1.1C36.5-143.8,36.3-144.2,36-144.4z"/>
	<path class="st7" d="M43-146.2c-0.1,0.3-0.2,0.5-0.4,0.7s-0.4,0.4-0.6,0.5s-0.5,0.2-0.8,0.2s-0.6-0.1-0.8-0.2
		c-0.2-0.1-0.4-0.3-0.6-0.5c-0.2-0.2-0.3-0.4-0.4-0.7c-0.1-0.3-0.1-0.5-0.1-0.8c0-0.3,0-0.6,0.1-0.8c0.1-0.3,0.2-0.5,0.4-0.7
		c0.2-0.2,0.4-0.4,0.6-0.5c0.2-0.1,0.5-0.2,0.8-0.2s0.6,0.1,0.8,0.2c0.2,0.1,0.4,0.3,0.6,0.5c0.2,0.2,0.3,0.4,0.4,0.7
		c0.1,0.3,0.1,0.5,0.1,0.8C43.2-146.8,43.1-146.5,43-146.2z M41.3-140.7h-1.2l6.1-8.4h1.2L41.3-140.7z M41.9-147.9
		c-0.2-0.2-0.4-0.4-0.7-0.4c-0.3,0-0.5,0.1-0.7,0.4c-0.2,0.2-0.2,0.5-0.2,0.9c0,0.4,0.1,0.6,0.3,0.9c0.2,0.2,0.4,0.4,0.7,0.4
		c0.3,0,0.5-0.1,0.7-0.4c0.2-0.2,0.2-0.5,0.2-0.9C42.1-147.4,42-147.7,41.9-147.9z M48.1-141.9c-0.1,0.3-0.2,0.5-0.4,0.7
		c-0.2,0.2-0.4,0.4-0.6,0.5c-0.2,0.1-0.5,0.2-0.8,0.2c-0.3,0-0.6-0.1-0.8-0.2c-0.2-0.1-0.4-0.3-0.6-0.5c-0.2-0.2-0.3-0.4-0.4-0.7
		c-0.1-0.3-0.1-0.5-0.1-0.8c0-0.3,0-0.6,0.1-0.8c0.1-0.3,0.2-0.5,0.4-0.7c0.2-0.2,0.4-0.4,0.6-0.5c0.2-0.1,0.5-0.2,0.8-0.2
		s0.6,0.1,0.8,0.2c0.2,0.1,0.4,0.3,0.6,0.5c0.2,0.2,0.3,0.4,0.4,0.7c0.1,0.3,0.1,0.5,0.1,0.8C48.3-142.5,48.2-142.2,48.1-141.9z
		 M46.9-143.6c-0.2-0.2-0.4-0.4-0.7-0.4c-0.3,0-0.5,0.1-0.7,0.4s-0.2,0.5-0.2,0.9c0,0.4,0.1,0.6,0.3,0.9c0.2,0.2,0.4,0.4,0.7,0.4
		c0.3,0,0.5-0.1,0.7-0.4c0.2-0.2,0.2-0.5,0.2-0.9C47.2-143.1,47.1-143.4,46.9-143.6z"/>
	<path class="st7" d="M24.8-133.4h5v1.3h-3.8l-0.1,2c0.2-0.1,0.4-0.1,0.6-0.2c0.2,0,0.4-0.1,0.7-0.1c0.4,0,0.8,0.1,1.1,0.2
		c0.4,0.1,0.7,0.3,0.9,0.5s0.5,0.5,0.6,0.8c0.1,0.3,0.2,0.7,0.2,1.2c0,0.4-0.1,0.8-0.2,1.2c-0.1,0.4-0.4,0.7-0.6,0.9
		c-0.3,0.2-0.6,0.4-1,0.6c-0.4,0.1-0.8,0.2-1.3,0.2c-0.6,0-1.2-0.1-1.7-0.4c-0.5-0.2-1-0.5-1.4-0.9l0.9-1.1c0.3,0.3,0.7,0.6,1,0.7
		c0.4,0.2,0.7,0.3,1.1,0.3c0.5,0,0.9-0.1,1.2-0.4c0.3-0.3,0.5-0.6,0.5-1.1c0-0.4-0.2-0.8-0.5-1c-0.3-0.3-0.7-0.4-1.3-0.4
		c-0.3,0-0.6,0-0.8,0.1c-0.3,0.1-0.5,0.2-0.7,0.3l-0.9-0.6L24.8-133.4z"/>
	<path class="st7" d="M31.8-132.1v-1.3h5.6v1.1l-2.3,2.4c0.3,0,0.6,0.1,0.9,0.2c0.3,0.1,0.6,0.3,0.8,0.4c0.2,0.2,0.4,0.4,0.5,0.7
		c0.1,0.3,0.2,0.6,0.2,1c0,0.4-0.1,0.8-0.2,1.1c-0.1,0.3-0.3,0.6-0.6,0.8c-0.3,0.2-0.6,0.4-0.9,0.6c-0.4,0.1-0.8,0.2-1.2,0.2
		c-0.7,0-1.4-0.1-1.9-0.4c-0.5-0.3-1-0.6-1.3-1.1l1-1c0.3,0.4,0.6,0.6,1,0.8c0.3,0.2,0.8,0.3,1.2,0.3c0.4,0,0.8-0.1,1-0.3
		c0.3-0.2,0.4-0.5,0.4-0.9c0-0.4-0.2-0.7-0.5-1c-0.3-0.2-0.8-0.3-1.4-0.3h-0.7l-0.2-0.9l2.3-2.4H31.8z"/>
	<path class="st7" d="M42.6-130.5c-0.1,0.3-0.2,0.5-0.4,0.7s-0.4,0.4-0.6,0.5s-0.5,0.2-0.8,0.2s-0.6-0.1-0.8-0.2
		c-0.2-0.1-0.4-0.3-0.6-0.5c-0.2-0.2-0.3-0.4-0.4-0.7c-0.1-0.3-0.1-0.5-0.1-0.8c0-0.3,0-0.6,0.1-0.8c0.1-0.3,0.2-0.5,0.4-0.7
		c0.2-0.2,0.4-0.4,0.6-0.5c0.2-0.1,0.5-0.2,0.8-0.2s0.6,0.1,0.8,0.2c0.2,0.1,0.4,0.3,0.6,0.5c0.2,0.2,0.3,0.4,0.4,0.7
		c0.1,0.3,0.1,0.5,0.1,0.8C42.8-131,42.7-130.7,42.6-130.5z M40.9-125h-1.2l6.1-8.4H47L40.9-125z M41.5-132.2
		c-0.2-0.2-0.4-0.4-0.7-0.4c-0.3,0-0.5,0.1-0.7,0.4c-0.2,0.2-0.2,0.5-0.2,0.9c0,0.4,0.1,0.6,0.3,0.9c0.2,0.2,0.4,0.4,0.7,0.4
		c0.3,0,0.5-0.1,0.7-0.4c0.2-0.2,0.2-0.5,0.2-0.9C41.7-131.6,41.6-131.9,41.5-132.2z M47.7-126.2c-0.1,0.3-0.2,0.5-0.4,0.7
		c-0.2,0.2-0.4,0.4-0.6,0.5c-0.2,0.1-0.5,0.2-0.8,0.2c-0.3,0-0.6-0.1-0.8-0.2c-0.2-0.1-0.4-0.3-0.6-0.5c-0.2-0.2-0.3-0.4-0.4-0.7
		c-0.1-0.3-0.1-0.5-0.1-0.8c0-0.3,0-0.6,0.1-0.8c0.1-0.3,0.2-0.5,0.4-0.7c0.2-0.2,0.4-0.4,0.6-0.5c0.2-0.1,0.5-0.2,0.8-0.2
		s0.6,0.1,0.8,0.2c0.2,0.1,0.4,0.3,0.6,0.5c0.2,0.2,0.3,0.4,0.4,0.7c0.1,0.3,0.1,0.5,0.1,0.8C47.9-126.7,47.8-126.4,47.7-126.2z
		 M46.5-127.9c-0.2-0.2-0.4-0.4-0.7-0.4c-0.3,0-0.5,0.1-0.7,0.4S45-127.4,45-127c0,0.4,0.1,0.6,0.3,0.9c0.2,0.2,0.4,0.4,0.7,0.4
		c0.3,0,0.5-0.1,0.7-0.4c0.2-0.2,0.2-0.5,0.2-0.9C46.8-127.3,46.7-127.6,46.5-127.9z"/>
</g>
<rect x="141.8" y="-183" class="st11" width="162.6" height="151.9"/>
<text transform="matrix(0.7 0 0 0.7 141.7771 -174.2899)" class="st7 st13" style="font-family:'Gotham-Medium';">microplastics</text>
<text transform="matrix(1 0 0 1 213.6472 -174.2899)" class="st7 st13" style="font-family:'Gotham-Medium';"> </text>
<text transform="matrix(0.7 0 0 0.7 141.7771 -159.8895)" class="st7 st13" style="font-family:'Gotham-Medium';">mesoplastics</text>
<text transform="matrix(0.7 0 0 0.7 141.7771 -145.4901)" class="st7 st13" style="font-family:'Gotham-Medium';">macroplastics</text>
<text transform="matrix(0.7 0 0 0.7 141.7771 -131.0897)" class="st7 st13" style="font-family:'Gotham-Medium';">megaplastics</text>
<rect x="125" y="211.1" class="st11" width="162.6" height="151.9"/>
<text transform="matrix(0.7 0 0 0.7 125.0158 219.8101)" class="st7 st13" style="font-family:'Gotham-Medium';">microplastics</text>
<text transform="matrix(1 0 0 1 196.8859 219.8101)" class="st7 st13" style="font-family:'Gotham-Medium';"> </text>
<text transform="matrix(0.7 0 0 0.7 125.0158 234.2105)" class="st7 st13" style="font-family:'Gotham-Medium';">mesoplastics</text>
<text transform="matrix(0.7 0 0 0.7 125.0158 248.6099)" class="st7 st13" style="font-family:'Gotham-Medium';">macroplastics</text>
<text transform="matrix(0.7 0 0 0.7 125.0158 263.0103)" class="st7 st13" style="font-family:'Gotham-Medium';">megaplastics</text>
<g>
	<rect x="20.3" y="211.1" class="st11" width="162.6" height="151.9"/>
	<text transform="matrix(1 0 0 1 20.329 219.8101)"><tspan x="0" y="0" class="st7 st12 st13">Microplastics </tspan><tspan x="0" y="14.4" class="st7 st12 st13">Mesoplastics</tspan><tspan x="0" y="28.8" class="st7 st12 st13">Macroplastics</tspan><tspan x="0" y="43.2" class="st7 st12 st13">Megaplastics</tspan></text>
</g>
<rect x="-144.9" y="-540.7" class="st11" width="162.6" height="105"/>
<text transform="matrix(1 0 0 1 -144.9113 -531.9803)" class="st7 st13" style="font-family:'Gotham-Medium';">8% </text>
<text transform="matrix(0.7 0 0 0.7 -123.5637 -531.9803)" class="st7 st13" style="font-family:'Gotham-Medium';">microplastics</text>
<text transform="matrix(1 0 0 1 -51.6936 -531.9803)" class="st7 st13" style="font-family:'Gotham-Medium';"> </text>
<text transform="matrix(1 0 0 1 -144.9113 -517.5799)" class="st7 st13" style="font-family:'Gotham-Medium';">13% </text>
<text transform="matrix(0.7 0 0 0.7 -118.9553 -517.5799)" class="st7 st13" style="font-family:'Gotham-Medium';">mesoplastics</text>
<text transform="matrix(1 0 0 1 -144.9113 -503.1805)" class="st7 st13" style="font-family:'Gotham-Medium';">26% </text>
<text transform="matrix(0.7 0 0 0.7 -115.8957 -503.1805)" class="st7 st13" style="font-family:'Gotham-Medium';">macroplastics</text>
<text transform="matrix(1 0 0 1 -144.9113 -488.7801)" class="st7 st13" style="font-family:'Gotham-Medium';">53% </text>
<text transform="matrix(0.7 0 0 0.7 -116.2434 -488.7801)" class="st7 st13" style="font-family:'Gotham-Medium';">megaplastics</text>
<rect x="7" y="-182.6" class="st8" width="12.4" height="12.4"/>
<rect x="7" y="-166.9" class="st9" width="12.4" height="12.4"/>
<rect x="7" y="-151.1" class="st10" width="12.4" height="12.4"/>
<rect x="7" y="-135.4" class="st2" width="12.4" height="12.4"/>
<path class="st7" d="M29.9-173.5c-0.2,0.3-0.4,0.6-0.7,0.8c-0.3,0.2-0.6,0.4-1,0.5c-0.4,0.1-0.8,0.2-1.3,0.2c-0.5,0-0.9-0.1-1.3-0.2
	c-0.4-0.1-0.7-0.3-1-0.5c-0.3-0.2-0.5-0.5-0.7-0.8s-0.2-0.6-0.2-1c0-0.5,0.1-0.9,0.4-1.3c0.3-0.3,0.6-0.6,1.1-0.8
	c-0.4-0.2-0.6-0.4-0.9-0.7S24-178,24-178.4c0-0.3,0.1-0.6,0.2-0.9c0.1-0.3,0.4-0.5,0.6-0.7s0.6-0.4,0.9-0.5s0.7-0.2,1.2-0.2
	c0.4,0,0.8,0.1,1.2,0.2c0.4,0.1,0.7,0.3,0.9,0.5c0.3,0.2,0.5,0.4,0.6,0.7c0.1,0.3,0.2,0.6,0.2,0.9c0,0.5-0.1,0.9-0.3,1.2
	c-0.2,0.3-0.5,0.5-0.9,0.7c0.5,0.2,0.8,0.5,1.1,0.8c0.3,0.3,0.4,0.7,0.4,1.2C30.1-174.2,30.1-173.8,29.9-173.5z M28.6-175.1
	c-0.1-0.2-0.2-0.3-0.4-0.4c-0.2-0.1-0.3-0.2-0.6-0.3c-0.2-0.1-0.4-0.1-0.7-0.1s-0.5,0-0.7,0.1s-0.4,0.1-0.6,0.3
	c-0.2,0.1-0.3,0.2-0.4,0.4c-0.1,0.2-0.1,0.3-0.1,0.5c0,0.4,0.2,0.7,0.5,0.9c0.3,0.2,0.7,0.4,1.3,0.4c0.6,0,1-0.1,1.3-0.4
	c0.3-0.2,0.5-0.5,0.5-0.9C28.7-174.8,28.7-175,28.6-175.1z M28-179.1c-0.3-0.2-0.6-0.3-1.1-0.3c-0.5,0-0.8,0.1-1.1,0.3
	c-0.3,0.2-0.4,0.5-0.4,0.8c0,0.4,0.1,0.7,0.4,0.9c0.3,0.2,0.6,0.3,1.1,0.3c0.4,0,0.8-0.1,1.1-0.3c0.3-0.2,0.4-0.5,0.4-0.9
	C28.4-178.6,28.3-178.9,28-179.1z"/>
<path class="st7" d="M35.1-177.7c-0.1,0.3-0.2,0.5-0.4,0.7s-0.4,0.4-0.6,0.5s-0.5,0.2-0.8,0.2s-0.6-0.1-0.8-0.2
	c-0.2-0.1-0.4-0.3-0.6-0.5c-0.2-0.2-0.3-0.4-0.4-0.7c-0.1-0.3-0.1-0.5-0.1-0.8c0-0.3,0-0.6,0.1-0.8c0.1-0.3,0.2-0.5,0.4-0.7
	c0.2-0.2,0.4-0.4,0.6-0.5c0.2-0.1,0.5-0.2,0.8-0.2s0.6,0.1,0.8,0.2c0.2,0.1,0.4,0.3,0.6,0.5c0.2,0.2,0.3,0.4,0.4,0.7
	c0.1,0.3,0.1,0.5,0.1,0.8C35.3-178.3,35.2-178,35.1-177.7z M33.3-172.2h-1.2l6.1-8.4h1.2L33.3-172.2z M33.9-179.4
	c-0.2-0.2-0.4-0.4-0.7-0.4c-0.3,0-0.5,0.1-0.7,0.4c-0.2,0.2-0.2,0.5-0.2,0.9c0,0.4,0.1,0.6,0.3,0.9c0.2,0.2,0.4,0.4,0.7,0.4
	c0.3,0,0.5-0.1,0.7-0.4c0.2-0.2,0.2-0.5,0.2-0.9C34.2-178.9,34.1-179.2,33.9-179.4z M40.2-173.4c-0.1,0.3-0.2,0.5-0.4,0.7
	c-0.2,0.2-0.4,0.4-0.6,0.5c-0.2,0.1-0.5,0.2-0.8,0.2c-0.3,0-0.6-0.1-0.8-0.2c-0.2-0.1-0.4-0.3-0.6-0.5c-0.2-0.2-0.3-0.4-0.4-0.7
	c-0.1-0.3-0.1-0.5-0.1-0.8c0-0.3,0-0.6,0.1-0.8c0.1-0.3,0.2-0.5,0.4-0.7c0.2-0.2,0.4-0.4,0.6-0.5c0.2-0.1,0.5-0.2,0.8-0.2
	s0.6,0.1,0.8,0.2c0.2,0.1,0.4,0.3,0.6,0.5c0.2,0.2,0.3,0.4,0.4,0.7c0.1,0.3,0.1,0.5,0.1,0.8C40.3-174,40.3-173.7,40.2-173.4z
	 M39-175.1c-0.2-0.2-0.4-0.4-0.7-0.4c-0.3,0-0.5,0.1-0.7,0.4s-0.2,0.5-0.2,0.9c0,0.4,0.1,0.6,0.3,0.9c0.2,0.2,0.4,0.4,0.7,0.4
	c0.3,0,0.5-0.1,0.7-0.4c0.2-0.2,0.2-0.5,0.2-0.9C39.3-174.6,39.2-174.9,39-175.1z"/>
<g>
	<path class="st7" d="M55.7-127.7L55.7-127.7l-1.9-2.8v4.2h-1v-5.9h1.1l1.8,2.8l1.8-2.8h1.1v5.9h-1v-4.2L55.7-127.7z"/>
	<path class="st7" d="M64.4-131.2h-3.3v1.5h2.9v0.9h-2.9v1.6h3.4v0.9h-4.4v-5.9h4.4V-131.2z"/>
	<path class="st7" d="M70.5-126.7c-0.2,0.1-0.4,0.2-0.6,0.3s-0.4,0.1-0.7,0.2c-0.2,0-0.5,0.1-0.7,0.1c-0.5,0-0.9-0.1-1.3-0.2
		c-0.4-0.2-0.7-0.4-1-0.6c-0.3-0.3-0.5-0.6-0.6-1c-0.1-0.4-0.2-0.8-0.2-1.2c0-0.4,0.1-0.8,0.2-1.2c0.1-0.4,0.4-0.7,0.6-1
		c0.3-0.3,0.6-0.5,1-0.7s0.8-0.2,1.2-0.2c0.3,0,0.5,0,0.7,0.1c0.2,0,0.4,0.1,0.6,0.2s0.3,0.1,0.5,0.2c0.2,0.1,0.3,0.2,0.5,0.3
		l-0.7,0.8c-0.1-0.1-0.2-0.2-0.3-0.3s-0.2-0.1-0.4-0.2c-0.1-0.1-0.3-0.1-0.4-0.1c-0.2,0-0.3,0-0.5,0c-0.3,0-0.5,0.1-0.8,0.2
		c-0.2,0.1-0.4,0.3-0.6,0.5c-0.2,0.2-0.3,0.4-0.4,0.7c-0.1,0.3-0.1,0.5-0.1,0.8c0,0.3,0,0.6,0.1,0.8s0.2,0.5,0.4,0.7
		c0.2,0.2,0.4,0.3,0.6,0.4s0.5,0.2,0.8,0.2c0.3,0,0.5,0,0.8-0.1s0.5-0.2,0.6-0.3v-1.1h-1.5v-0.9H71v2.5
		C70.8-126.9,70.6-126.8,70.5-126.7z"/>
	<path class="st7" d="M77.9-126.2h-1.1l-0.6-1.4h-2.8l-0.6,1.4h-1.1l2.6-5.9h1L77.9-126.2z M74.8-130.9l-1,2.4h2L74.8-130.9z"/>
	<path class="st7" d="M83.3-129.3c-0.1,0.3-0.3,0.5-0.5,0.6s-0.5,0.3-0.7,0.4c-0.3,0.1-0.6,0.1-0.9,0.1H80v1.9h-1v-5.9h2.3
		c0.3,0,0.7,0,0.9,0.1c0.3,0.1,0.5,0.2,0.7,0.4c0.2,0.2,0.3,0.4,0.4,0.6s0.2,0.5,0.2,0.8C83.5-129.8,83.4-129.5,83.3-129.3z
		 M82.1-130.9c-0.2-0.2-0.5-0.3-0.9-0.3H80v2.1h1.2c0.4,0,0.7-0.1,0.9-0.3s0.3-0.5,0.3-0.8C82.4-130.5,82.3-130.7,82.1-130.9z"/>
	<path class="st7" d="M84.5-132.1h1v4.9h3.1v0.9h-4.1V-132.1z"/>
	<path class="st7" d="M95.4-126.2h-1.1l-0.6-1.4h-2.8l-0.6,1.4h-1.1l2.6-5.9h1L95.4-126.2z M92.3-130.9l-1,2.4h2L92.3-130.9z"/>
	<path class="st7" d="M97.2-130.3c0,0.1,0.1,0.2,0.2,0.2c0.1,0.1,0.2,0.1,0.4,0.2c0.2,0.1,0.4,0.1,0.7,0.2c0.3,0.1,0.6,0.2,0.8,0.3
		c0.2,0.1,0.4,0.2,0.6,0.3c0.2,0.1,0.3,0.3,0.4,0.5c0.1,0.2,0.1,0.4,0.1,0.6c0,0.3-0.1,0.5-0.2,0.7c-0.1,0.2-0.2,0.4-0.4,0.6
		c-0.2,0.2-0.4,0.3-0.7,0.3c-0.3,0.1-0.5,0.1-0.8,0.1c-0.5,0-0.9-0.1-1.3-0.2c-0.4-0.2-0.8-0.4-1.2-0.7l0.6-0.7
		c0.3,0.2,0.6,0.4,0.9,0.6c0.3,0.1,0.6,0.2,1,0.2c0.3,0,0.6-0.1,0.8-0.2c0.2-0.1,0.3-0.3,0.3-0.5c0-0.1,0-0.2-0.1-0.3
		s-0.1-0.2-0.2-0.2s-0.2-0.1-0.4-0.2s-0.4-0.1-0.7-0.2c-0.3-0.1-0.6-0.2-0.8-0.2c-0.2-0.1-0.4-0.2-0.6-0.3c-0.2-0.1-0.3-0.3-0.4-0.5
		c-0.1-0.2-0.1-0.4-0.1-0.7c0-0.3,0.1-0.5,0.1-0.7c0.1-0.2,0.2-0.4,0.4-0.5c0.2-0.2,0.4-0.3,0.6-0.3c0.2-0.1,0.5-0.1,0.8-0.1
		c0.4,0,0.8,0.1,1.2,0.2c0.3,0.1,0.7,0.3,1,0.6l-0.6,0.8c-0.3-0.2-0.5-0.3-0.8-0.4c-0.3-0.1-0.5-0.2-0.8-0.2c-0.3,0-0.5,0.1-0.7,0.2
		c-0.2,0.1-0.3,0.3-0.3,0.5C97.2-130.4,97.2-130.3,97.2-130.3z"/>
	<path class="st7" d="M104-126.2h-1v-4.9h-1.9v-1h4.8v1H104V-126.2z"/>
	<path class="st7" d="M108.1-132.1v5.9h-1v-5.9H108.1z"/>
	<path class="st7" d="M114.3-126.7c-0.2,0.1-0.3,0.2-0.5,0.3c-0.2,0.1-0.4,0.2-0.6,0.2c-0.2,0-0.5,0.1-0.8,0.1
		c-0.4,0-0.8-0.1-1.2-0.2c-0.4-0.2-0.7-0.4-0.9-0.6c-0.3-0.3-0.5-0.6-0.6-1c-0.2-0.4-0.2-0.8-0.2-1.2c0-0.4,0.1-0.8,0.2-1.2
		c0.1-0.4,0.4-0.7,0.6-1c0.3-0.3,0.6-0.5,1-0.7c0.4-0.2,0.8-0.2,1.2-0.2c0.3,0,0.5,0,0.7,0.1c0.2,0,0.4,0.1,0.6,0.2
		c0.2,0.1,0.4,0.2,0.5,0.3s0.3,0.2,0.4,0.4l-0.7,0.8c-0.2-0.2-0.5-0.4-0.7-0.5s-0.6-0.2-0.9-0.2c-0.3,0-0.5,0.1-0.8,0.2
		c-0.2,0.1-0.4,0.3-0.6,0.4c-0.2,0.2-0.3,0.4-0.4,0.7c-0.1,0.3-0.1,0.5-0.1,0.8s0,0.6,0.1,0.8c0.1,0.3,0.2,0.5,0.4,0.7
		c0.2,0.2,0.4,0.3,0.6,0.5c0.2,0.1,0.5,0.2,0.8,0.2c0.4,0,0.7-0.1,0.9-0.2c0.3-0.1,0.5-0.3,0.8-0.6l0.7,0.7
		C114.6-127,114.4-126.9,114.3-126.7z"/>
	<path class="st7" d="M116.8-130.3c0,0.1,0.1,0.2,0.2,0.2c0.1,0.1,0.2,0.1,0.4,0.2c0.2,0.1,0.4,0.1,0.7,0.2c0.3,0.1,0.6,0.2,0.8,0.3
		c0.2,0.1,0.4,0.2,0.6,0.3c0.2,0.1,0.3,0.3,0.4,0.5c0.1,0.2,0.1,0.4,0.1,0.6c0,0.3-0.1,0.5-0.2,0.7c-0.1,0.2-0.2,0.4-0.4,0.6
		s-0.4,0.3-0.7,0.3c-0.3,0.1-0.5,0.1-0.8,0.1c-0.5,0-0.9-0.1-1.3-0.2c-0.4-0.2-0.8-0.4-1.2-0.7l0.6-0.7c0.3,0.2,0.6,0.4,0.9,0.6
		c0.3,0.1,0.6,0.2,1,0.2c0.3,0,0.6-0.1,0.8-0.2c0.2-0.1,0.3-0.3,0.3-0.5c0-0.1,0-0.2-0.1-0.3c0-0.1-0.1-0.2-0.2-0.2
		c-0.1-0.1-0.2-0.1-0.4-0.2c-0.2-0.1-0.4-0.1-0.7-0.2c-0.3-0.1-0.6-0.2-0.8-0.2c-0.2-0.1-0.4-0.2-0.6-0.3c-0.2-0.1-0.3-0.3-0.4-0.5
		c-0.1-0.2-0.1-0.4-0.1-0.7c0-0.3,0-0.5,0.1-0.7c0.1-0.2,0.2-0.4,0.4-0.5c0.2-0.2,0.4-0.3,0.6-0.3s0.5-0.1,0.8-0.1
		c0.4,0,0.8,0.1,1.2,0.2c0.3,0.1,0.7,0.3,1,0.6l-0.6,0.8c-0.3-0.2-0.5-0.3-0.8-0.4s-0.5-0.2-0.8-0.2c-0.3,0-0.5,0.1-0.7,0.2
		c-0.2,0.1-0.3,0.3-0.3,0.5C116.7-130.4,116.7-130.3,116.8-130.3z"/>
</g>
<g>
	<path class="st7" d="M55.7-143.4L55.7-143.4l-1.9-2.8v4.2h-1v-5.9h1.1l1.8,2.8l1.8-2.8h1.1v5.9h-1v-4.2L55.7-143.4z"/>
	<path class="st7" d="M65.7-141.9h-1.1l-0.6-1.4h-2.8l-0.6,1.4h-1.1l2.6-5.9h1L65.7-141.9z M62.6-146.6l-1,2.4h2L62.6-146.6z"/>
	<path class="st7" d="M71-142.5c-0.2,0.1-0.3,0.2-0.5,0.3c-0.2,0.1-0.4,0.2-0.6,0.2c-0.2,0-0.5,0.1-0.8,0.1c-0.4,0-0.8-0.1-1.2-0.2
		c-0.4-0.2-0.7-0.4-0.9-0.6c-0.3-0.3-0.5-0.6-0.6-1c-0.2-0.4-0.2-0.8-0.2-1.2c0-0.4,0.1-0.8,0.2-1.2c0.1-0.4,0.4-0.7,0.6-1
		c0.3-0.3,0.6-0.5,1-0.7c0.4-0.2,0.8-0.2,1.2-0.2c0.3,0,0.5,0,0.7,0.1c0.2,0,0.4,0.1,0.6,0.2c0.2,0.1,0.4,0.2,0.5,0.3
		s0.3,0.2,0.4,0.4l-0.7,0.8c-0.2-0.2-0.5-0.4-0.7-0.5s-0.6-0.2-0.9-0.2c-0.3,0-0.5,0.1-0.8,0.2c-0.2,0.1-0.4,0.3-0.6,0.4
		c-0.2,0.2-0.3,0.4-0.4,0.7c-0.1,0.3-0.1,0.5-0.1,0.8s0,0.6,0.1,0.8c0.1,0.3,0.2,0.5,0.4,0.7c0.2,0.2,0.4,0.3,0.6,0.5
		c0.2,0.1,0.5,0.2,0.8,0.2c0.4,0,0.7-0.1,0.9-0.2c0.3-0.1,0.5-0.3,0.8-0.6l0.7,0.7C71.3-142.7,71.2-142.6,71-142.5z"/>
	<path class="st7" d="M76.3-142l-1.4-2h-1.3v2h-1v-5.9h2.6c0.3,0,0.6,0,0.9,0.1s0.5,0.2,0.7,0.4c0.2,0.2,0.3,0.4,0.4,0.6
		c0.1,0.2,0.2,0.5,0.2,0.8c0,0.2,0,0.5-0.1,0.7c-0.1,0.2-0.2,0.4-0.3,0.5s-0.3,0.3-0.4,0.4c-0.2,0.1-0.4,0.2-0.6,0.2l1.6,2.2H76.3z
		 M76-146.7c-0.2-0.2-0.5-0.2-0.9-0.2h-1.5v2h1.5c0.4,0,0.7-0.1,0.9-0.3c0.2-0.2,0.3-0.4,0.3-0.7C76.3-146.3,76.2-146.5,76-146.7z"
		/>
	<path class="st7" d="M84.3-143.7c-0.2,0.4-0.4,0.7-0.6,1c-0.3,0.3-0.6,0.5-1,0.7s-0.8,0.2-1.2,0.2s-0.9-0.1-1.2-0.2
		c-0.4-0.2-0.7-0.4-1-0.7c-0.3-0.3-0.5-0.6-0.6-1c-0.2-0.4-0.2-0.8-0.2-1.2s0.1-0.8,0.2-1.2c0.2-0.4,0.4-0.7,0.6-1s0.6-0.5,1-0.7
		c0.4-0.2,0.8-0.2,1.2-0.2s0.9,0.1,1.2,0.2c0.4,0.2,0.7,0.4,1,0.7c0.3,0.3,0.5,0.6,0.6,1c0.2,0.4,0.2,0.8,0.2,1.2
		S84.4-144.1,84.3-143.7z M83.3-145.7c-0.1-0.3-0.2-0.5-0.4-0.7c-0.2-0.2-0.4-0.3-0.6-0.5c-0.2-0.1-0.5-0.2-0.8-0.2
		s-0.6,0.1-0.8,0.2c-0.2,0.1-0.5,0.3-0.6,0.4c-0.2,0.2-0.3,0.4-0.4,0.7s-0.1,0.5-0.1,0.8c0,0.3,0,0.6,0.1,0.8s0.2,0.5,0.4,0.7
		s0.4,0.3,0.6,0.5c0.2,0.1,0.5,0.2,0.8,0.2c0.3,0,0.6-0.1,0.8-0.2c0.2-0.1,0.5-0.3,0.6-0.4c0.2-0.2,0.3-0.4,0.4-0.7
		c0.1-0.3,0.1-0.5,0.1-0.8S83.4-145.5,83.3-145.7z"/>
	<path class="st7" d="M90.1-145c-0.1,0.3-0.3,0.5-0.5,0.6s-0.5,0.3-0.7,0.4c-0.3,0.1-0.6,0.1-0.9,0.1h-1.2v1.9h-1v-5.9h2.3
		c0.3,0,0.7,0,0.9,0.1c0.3,0.1,0.5,0.2,0.7,0.4c0.2,0.2,0.3,0.4,0.4,0.6s0.2,0.5,0.2,0.8C90.3-145.5,90.3-145.2,90.1-145z
		 M88.9-146.6c-0.2-0.2-0.5-0.3-0.9-0.3h-1.2v2.1H88c0.4,0,0.7-0.1,0.9-0.3s0.3-0.5,0.3-0.8C89.3-146.2,89.2-146.5,88.9-146.6z"/>
	<path class="st7" d="M91.4-147.8h1v4.9h3.1v0.9h-4.1V-147.8z"/>
	<path class="st7" d="M102.2-141.9h-1.1l-0.6-1.4h-2.8l-0.6,1.4h-1.1l2.6-5.9h1L102.2-141.9z M99.1-146.6l-1,2.4h2L99.1-146.6z"/>
	<path class="st7" d="M104-146c0,0.1,0.1,0.2,0.2,0.2c0.1,0.1,0.2,0.1,0.4,0.2c0.2,0.1,0.4,0.1,0.7,0.2c0.3,0.1,0.6,0.2,0.8,0.3
		c0.2,0.1,0.4,0.2,0.6,0.3c0.2,0.1,0.3,0.3,0.4,0.5c0.1,0.2,0.1,0.4,0.1,0.6c0,0.3-0.1,0.5-0.2,0.7c-0.1,0.2-0.2,0.4-0.4,0.6
		c-0.2,0.2-0.4,0.3-0.7,0.3c-0.3,0.1-0.5,0.1-0.8,0.1c-0.5,0-0.9-0.1-1.3-0.2c-0.4-0.2-0.8-0.4-1.2-0.7l0.6-0.7
		c0.3,0.2,0.6,0.4,0.9,0.6c0.3,0.1,0.6,0.2,1,0.2c0.3,0,0.6-0.1,0.8-0.2c0.2-0.1,0.3-0.3,0.3-0.5c0-0.1,0-0.2-0.1-0.3
		s-0.1-0.2-0.2-0.2s-0.2-0.1-0.4-0.2s-0.4-0.1-0.7-0.2c-0.3-0.1-0.6-0.2-0.8-0.2c-0.2-0.1-0.4-0.2-0.6-0.3c-0.2-0.1-0.3-0.3-0.4-0.5
		c-0.1-0.2-0.1-0.4-0.1-0.7c0-0.3,0.1-0.5,0.1-0.7c0.1-0.2,0.2-0.4,0.4-0.5c0.2-0.2,0.4-0.3,0.6-0.3c0.2-0.1,0.5-0.1,0.8-0.1
		c0.4,0,0.8,0.1,1.2,0.2c0.3,0.1,0.7,0.3,1,0.6l-0.6,0.8c-0.3-0.2-0.5-0.3-0.8-0.4c-0.3-0.1-0.5-0.2-0.8-0.2c-0.3,0-0.5,0.1-0.7,0.2
		c-0.2,0.1-0.3,0.3-0.3,0.5C104-146.2,104-146.1,104-146z"/>
	<path class="st7" d="M110.9-142h-1v-4.9H108v-1h4.8v1h-1.9V-142z"/>
	<path class="st7" d="M114.9-147.8v5.9h-1v-5.9H114.9z"/>
	<path class="st7" d="M121.1-142.5c-0.2,0.1-0.3,0.2-0.5,0.3s-0.4,0.2-0.6,0.2c-0.2,0-0.5,0.1-0.8,0.1c-0.4,0-0.8-0.1-1.2-0.2
		c-0.4-0.2-0.7-0.4-0.9-0.6c-0.3-0.3-0.5-0.6-0.6-1c-0.2-0.4-0.2-0.8-0.2-1.2c0-0.4,0.1-0.8,0.2-1.2c0.1-0.4,0.4-0.7,0.6-1
		s0.6-0.5,1-0.7c0.4-0.2,0.8-0.2,1.2-0.2c0.3,0,0.5,0,0.7,0.1c0.2,0,0.4,0.1,0.6,0.2c0.2,0.1,0.4,0.2,0.5,0.3
		c0.2,0.1,0.3,0.2,0.4,0.4l-0.7,0.8c-0.2-0.2-0.5-0.4-0.7-0.5c-0.3-0.1-0.6-0.2-0.9-0.2c-0.3,0-0.5,0.1-0.8,0.2
		c-0.2,0.1-0.4,0.3-0.6,0.4s-0.3,0.4-0.4,0.7c-0.1,0.3-0.1,0.5-0.1,0.8s0,0.6,0.1,0.8c0.1,0.3,0.2,0.5,0.4,0.7s0.4,0.3,0.6,0.5
		c0.2,0.1,0.5,0.2,0.8,0.2c0.4,0,0.7-0.1,0.9-0.2c0.3-0.1,0.5-0.3,0.8-0.6l0.7,0.7C121.4-142.7,121.3-142.6,121.1-142.5z"/>
	<path class="st7" d="M123.6-146c0,0.1,0.1,0.2,0.2,0.2c0.1,0.1,0.2,0.1,0.4,0.2s0.4,0.1,0.7,0.2c0.3,0.1,0.6,0.2,0.8,0.3
		c0.2,0.1,0.4,0.2,0.6,0.3c0.2,0.1,0.3,0.3,0.4,0.5c0.1,0.2,0.1,0.4,0.1,0.6c0,0.3-0.1,0.5-0.2,0.7c-0.1,0.2-0.2,0.4-0.4,0.6
		c-0.2,0.2-0.4,0.3-0.7,0.3c-0.3,0.1-0.5,0.1-0.8,0.1c-0.5,0-0.9-0.1-1.3-0.2c-0.4-0.2-0.8-0.4-1.2-0.7l0.6-0.7
		c0.3,0.2,0.6,0.4,0.9,0.6c0.3,0.1,0.6,0.2,1,0.2c0.3,0,0.6-0.1,0.8-0.2s0.3-0.3,0.3-0.5c0-0.1,0-0.2-0.1-0.3c0-0.1-0.1-0.2-0.2-0.2
		c-0.1-0.1-0.2-0.1-0.4-0.2c-0.2-0.1-0.4-0.1-0.7-0.2c-0.3-0.1-0.6-0.2-0.8-0.2c-0.2-0.1-0.4-0.2-0.6-0.3c-0.2-0.1-0.3-0.3-0.4-0.5
		s-0.1-0.4-0.1-0.7c0-0.3,0.1-0.5,0.2-0.7s0.2-0.4,0.4-0.5c0.2-0.2,0.4-0.3,0.6-0.3c0.2-0.1,0.5-0.1,0.8-0.1c0.4,0,0.8,0.1,1.2,0.2
		s0.7,0.3,1,0.6l-0.6,0.8c-0.3-0.2-0.5-0.3-0.8-0.4c-0.3-0.1-0.5-0.2-0.8-0.2c-0.3,0-0.5,0.1-0.7,0.2c-0.2,0.1-0.3,0.3-0.3,0.5
		C123.5-146.2,123.6-146.1,123.6-146z"/>
</g>
<g>
	<path class="st7" d="M53.7-159.2L53.7-159.2l-1.9-2.8v4.2h-1v-5.9h1.1l1.8,2.8l1.8-2.8h1.1v5.9h-1v-4.2L53.7-159.2z"/>
	<path class="st7" d="M62.4-162.7h-3.3v1.5h2.9v0.9h-2.9v1.6h3.4v0.9h-4.4v-5.9h4.4V-162.7z"/>
	<path class="st7" d="M64.6-161.8c0,0.1,0.1,0.2,0.2,0.2c0.1,0.1,0.2,0.1,0.4,0.2c0.2,0.1,0.4,0.1,0.7,0.2c0.3,0.1,0.6,0.2,0.8,0.3
		c0.2,0.1,0.4,0.2,0.6,0.3c0.2,0.1,0.3,0.3,0.4,0.5c0.1,0.2,0.1,0.4,0.1,0.6c0,0.3-0.1,0.5-0.2,0.7c-0.1,0.2-0.2,0.4-0.4,0.6
		c-0.2,0.2-0.4,0.3-0.7,0.3c-0.3,0.1-0.5,0.1-0.8,0.1c-0.5,0-0.9-0.1-1.3-0.2c-0.4-0.2-0.8-0.4-1.2-0.7l0.6-0.7
		c0.3,0.2,0.6,0.4,0.9,0.6c0.3,0.1,0.6,0.2,1,0.2c0.3,0,0.6-0.1,0.8-0.2c0.2-0.1,0.3-0.3,0.3-0.5c0-0.1,0-0.2-0.1-0.3
		s-0.1-0.2-0.2-0.2s-0.2-0.1-0.4-0.2s-0.4-0.1-0.7-0.2c-0.3-0.1-0.6-0.2-0.8-0.2c-0.2-0.1-0.4-0.2-0.6-0.3c-0.2-0.1-0.3-0.3-0.4-0.5
		c-0.1-0.2-0.1-0.4-0.1-0.7c0-0.3,0.1-0.5,0.1-0.7c0.1-0.2,0.2-0.4,0.4-0.5c0.2-0.2,0.4-0.3,0.6-0.3c0.2-0.1,0.5-0.1,0.8-0.1
		c0.4,0,0.8,0.1,1.2,0.2c0.3,0.1,0.7,0.3,1,0.6l-0.6,0.8c-0.3-0.2-0.5-0.3-0.8-0.4c-0.3-0.1-0.5-0.2-0.8-0.2c-0.3,0-0.5,0.1-0.7,0.2
		c-0.2,0.1-0.3,0.3-0.3,0.5C64.6-161.9,64.6-161.8,64.6-161.8z"/>
	<path class="st7" d="M74.7-159.5c-0.2,0.4-0.4,0.7-0.6,1c-0.3,0.3-0.6,0.5-1,0.7s-0.8,0.2-1.2,0.2s-0.9-0.1-1.2-0.2
		c-0.4-0.2-0.7-0.4-1-0.7c-0.3-0.3-0.5-0.6-0.6-1c-0.2-0.4-0.2-0.8-0.2-1.2s0.1-0.8,0.2-1.2c0.2-0.4,0.4-0.7,0.6-1s0.6-0.5,1-0.7
		c0.4-0.2,0.8-0.2,1.2-0.2s0.9,0.1,1.2,0.2c0.4,0.2,0.7,0.4,1,0.7c0.3,0.3,0.5,0.6,0.6,1c0.2,0.4,0.2,0.8,0.2,1.2
		S74.9-159.9,74.7-159.5z M73.7-161.5c-0.1-0.3-0.2-0.5-0.4-0.7c-0.2-0.2-0.4-0.3-0.6-0.5c-0.2-0.1-0.5-0.2-0.8-0.2
		s-0.6,0.1-0.8,0.2c-0.2,0.1-0.5,0.3-0.6,0.4c-0.2,0.2-0.3,0.4-0.4,0.7s-0.1,0.5-0.1,0.8c0,0.3,0,0.6,0.1,0.8s0.2,0.5,0.4,0.7
		s0.4,0.3,0.6,0.5c0.2,0.1,0.5,0.2,0.8,0.2c0.3,0,0.6-0.1,0.8-0.2c0.2-0.1,0.5-0.3,0.6-0.4c0.2-0.2,0.3-0.4,0.4-0.7
		c0.1-0.3,0.1-0.5,0.1-0.8S73.8-161.2,73.7-161.5z"/>
	<path class="st7" d="M80.6-160.7c-0.1,0.3-0.3,0.5-0.5,0.6s-0.5,0.3-0.7,0.4c-0.3,0.1-0.6,0.1-0.9,0.1h-1.2v1.9h-1v-5.9h2.3
		c0.3,0,0.7,0,0.9,0.1c0.3,0.1,0.5,0.2,0.7,0.4c0.2,0.2,0.3,0.4,0.4,0.6s0.2,0.5,0.2,0.8C80.8-161.3,80.7-161,80.6-160.7z
		 M79.4-162.4c-0.2-0.2-0.5-0.3-0.9-0.3h-1.2v2.1h1.2c0.4,0,0.7-0.1,0.9-0.3s0.3-0.5,0.3-0.8C79.7-162,79.6-162.2,79.4-162.4z"/>
	<path class="st7" d="M81.8-163.6h1v4.9H86v0.9h-4.1V-163.6z"/>
	<path class="st7" d="M92.7-157.7h-1.1l-0.6-1.4h-2.8l-0.6,1.4h-1.1l2.6-5.9h1L92.7-157.7z M89.6-162.4l-1,2.4h2L89.6-162.4z"/>
	<path class="st7" d="M94.5-161.8c0,0.1,0.1,0.2,0.2,0.2c0.1,0.1,0.2,0.1,0.4,0.2c0.2,0.1,0.4,0.1,0.7,0.2c0.3,0.1,0.6,0.2,0.8,0.3
		c0.2,0.1,0.4,0.2,0.6,0.3c0.2,0.1,0.3,0.3,0.4,0.5c0.1,0.2,0.1,0.4,0.1,0.6c0,0.3-0.1,0.5-0.2,0.7c-0.1,0.2-0.2,0.4-0.4,0.6
		c-0.2,0.2-0.4,0.3-0.7,0.3c-0.3,0.1-0.5,0.1-0.8,0.1c-0.5,0-0.9-0.1-1.3-0.2c-0.4-0.2-0.8-0.4-1.2-0.7l0.6-0.7
		c0.3,0.2,0.6,0.4,0.9,0.6c0.3,0.1,0.6,0.2,1,0.2c0.3,0,0.6-0.1,0.8-0.2c0.2-0.1,0.3-0.3,0.3-0.5c0-0.1,0-0.2-0.1-0.3
		s-0.1-0.2-0.2-0.2s-0.2-0.1-0.4-0.2s-0.4-0.1-0.7-0.2c-0.3-0.1-0.6-0.2-0.8-0.2c-0.2-0.1-0.4-0.2-0.6-0.3c-0.2-0.1-0.3-0.3-0.4-0.5
		c-0.1-0.2-0.1-0.4-0.1-0.7c0-0.3,0.1-0.5,0.1-0.7c0.1-0.2,0.2-0.4,0.4-0.5c0.2-0.2,0.4-0.3,0.6-0.3c0.2-0.1,0.5-0.1,0.8-0.1
		c0.4,0,0.8,0.1,1.2,0.2c0.3,0.1,0.7,0.3,1,0.6l-0.6,0.8c-0.3-0.2-0.5-0.3-0.8-0.4c-0.3-0.1-0.5-0.2-0.8-0.2c-0.3,0-0.5,0.1-0.7,0.2
		c-0.2,0.1-0.3,0.3-0.3,0.5C94.4-161.9,94.5-161.8,94.5-161.8z"/>
	<path class="st7" d="M101.3-157.7h-1v-4.9h-1.9v-1h4.8v1h-1.9V-157.7z"/>
	<path class="st7" d="M105.4-163.6v5.9h-1v-5.9H105.4z"/>
	<path class="st7" d="M111.6-158.2c-0.2,0.1-0.3,0.2-0.5,0.3c-0.2,0.1-0.4,0.2-0.6,0.2c-0.2,0-0.5,0.1-0.8,0.1
		c-0.4,0-0.8-0.1-1.2-0.2c-0.4-0.2-0.7-0.4-0.9-0.6c-0.3-0.3-0.5-0.6-0.6-1c-0.2-0.4-0.2-0.8-0.2-1.2c0-0.4,0.1-0.8,0.2-1.2
		c0.1-0.4,0.4-0.7,0.6-1c0.3-0.3,0.6-0.5,1-0.7c0.4-0.2,0.8-0.2,1.2-0.2c0.3,0,0.5,0,0.7,0.1c0.2,0,0.4,0.1,0.6,0.2
		c0.2,0.1,0.4,0.2,0.5,0.3s0.3,0.2,0.4,0.4l-0.7,0.8c-0.2-0.2-0.5-0.4-0.7-0.5s-0.6-0.2-0.9-0.2c-0.3,0-0.5,0.1-0.8,0.2
		c-0.2,0.1-0.4,0.3-0.6,0.4c-0.2,0.2-0.3,0.4-0.4,0.7c-0.1,0.3-0.1,0.5-0.1,0.8s0,0.6,0.1,0.8c0.1,0.3,0.2,0.5,0.4,0.7
		c0.2,0.2,0.4,0.3,0.6,0.5c0.2,0.1,0.5,0.2,0.8,0.2c0.4,0,0.7-0.1,0.9-0.2c0.3-0.1,0.5-0.3,0.8-0.6l0.7,0.7
		C111.9-158.5,111.7-158.3,111.6-158.2z"/>
	<path class="st7" d="M114.1-161.8c0,0.1,0.1,0.2,0.2,0.2c0.1,0.1,0.2,0.1,0.4,0.2c0.2,0.1,0.4,0.1,0.7,0.2c0.3,0.1,0.6,0.2,0.8,0.3
		c0.2,0.1,0.4,0.2,0.6,0.3c0.2,0.1,0.3,0.3,0.4,0.5c0.1,0.2,0.1,0.4,0.1,0.6c0,0.3-0.1,0.5-0.2,0.7c-0.1,0.2-0.2,0.4-0.4,0.6
		c-0.2,0.2-0.4,0.3-0.7,0.3c-0.3,0.1-0.5,0.1-0.8,0.1c-0.5,0-0.9-0.1-1.3-0.2c-0.4-0.2-0.8-0.4-1.2-0.7l0.6-0.7
		c0.3,0.2,0.6,0.4,0.9,0.6c0.3,0.1,0.6,0.2,1,0.2c0.3,0,0.6-0.1,0.8-0.2s0.3-0.3,0.3-0.5c0-0.1,0-0.2-0.1-0.3c0-0.1-0.1-0.2-0.2-0.2
		c-0.1-0.1-0.2-0.1-0.4-0.2c-0.2-0.1-0.4-0.1-0.7-0.2c-0.3-0.1-0.6-0.2-0.8-0.2c-0.2-0.1-0.4-0.2-0.6-0.3c-0.2-0.1-0.3-0.3-0.4-0.5
		c-0.1-0.2-0.1-0.4-0.1-0.7c0-0.3,0.1-0.5,0.1-0.7c0.1-0.2,0.2-0.4,0.4-0.5c0.2-0.2,0.4-0.3,0.6-0.3c0.2-0.1,0.5-0.1,0.8-0.1
		c0.4,0,0.8,0.1,1.2,0.2s0.7,0.3,1,0.6l-0.6,0.8c-0.3-0.2-0.5-0.3-0.8-0.4c-0.3-0.1-0.5-0.2-0.8-0.2c-0.3,0-0.5,0.1-0.7,0.2
		c-0.2,0.1-0.3,0.3-0.3,0.5C114-161.9,114-161.8,114.1-161.8z"/>
</g>
<g>
	<path class="st7" d="M47.7-174.9L47.7-174.9l-1.9-2.8v4.2h-1v-5.9h1.1l1.8,2.8l1.8-2.8h1.1v5.9h-1v-4.2L47.7-174.9z"/>
	<path class="st7" d="M53.2-179.3v5.9h-1v-5.9H53.2z"/>
	<path class="st7" d="M59.4-174c-0.2,0.1-0.3,0.2-0.5,0.3c-0.2,0.1-0.4,0.2-0.6,0.2c-0.2,0-0.5,0.1-0.8,0.1c-0.4,0-0.8-0.1-1.2-0.2
		c-0.4-0.2-0.7-0.4-0.9-0.6c-0.3-0.3-0.5-0.6-0.6-1c-0.2-0.4-0.2-0.8-0.2-1.2c0-0.4,0.1-0.8,0.2-1.2c0.1-0.4,0.4-0.7,0.6-1
		c0.3-0.3,0.6-0.5,1-0.7c0.4-0.2,0.8-0.2,1.2-0.2c0.3,0,0.5,0,0.7,0.1c0.2,0,0.4,0.1,0.6,0.2c0.2,0.1,0.4,0.2,0.5,0.3
		s0.3,0.2,0.4,0.4l-0.7,0.8c-0.2-0.2-0.5-0.4-0.7-0.5s-0.6-0.2-0.9-0.2c-0.3,0-0.5,0.1-0.8,0.2c-0.2,0.1-0.4,0.3-0.6,0.4
		c-0.2,0.2-0.3,0.4-0.4,0.7c-0.1,0.3-0.1,0.5-0.1,0.8s0,0.6,0.1,0.8c0.1,0.3,0.2,0.5,0.4,0.7c0.2,0.2,0.4,0.3,0.6,0.5
		c0.2,0.1,0.5,0.2,0.8,0.2c0.4,0,0.7-0.1,0.9-0.2c0.3-0.1,0.5-0.3,0.8-0.6l0.7,0.7C59.7-174.2,59.6-174.1,59.4-174z"/>
	<path class="st7" d="M64.7-173.5l-1.4-2H62v2h-1v-5.9h2.6c0.3,0,0.6,0,0.9,0.1s0.5,0.2,0.7,0.4c0.2,0.2,0.3,0.4,0.4,0.6
		c0.1,0.2,0.2,0.5,0.2,0.8c0,0.2,0,0.5-0.1,0.7c-0.1,0.2-0.2,0.4-0.3,0.5s-0.3,0.3-0.4,0.4c-0.2,0.1-0.4,0.2-0.6,0.2l1.6,2.2H64.7z
		 M64.4-178.2c-0.2-0.2-0.5-0.2-0.9-0.2H62v2h1.5c0.4,0,0.7-0.1,0.9-0.3c0.2-0.2,0.3-0.4,0.3-0.7C64.7-177.7,64.6-178,64.4-178.2z"
		/>
	<path class="st7" d="M72.7-175.2c-0.2,0.4-0.4,0.7-0.6,1c-0.3,0.3-0.6,0.5-1,0.7s-0.8,0.2-1.2,0.2s-0.9-0.1-1.2-0.2
		c-0.4-0.2-0.7-0.4-1-0.7c-0.3-0.3-0.5-0.6-0.6-1c-0.2-0.4-0.2-0.8-0.2-1.2s0.1-0.8,0.2-1.2c0.2-0.4,0.4-0.7,0.6-1s0.6-0.5,1-0.7
		c0.4-0.2,0.8-0.2,1.2-0.2s0.9,0.1,1.2,0.2c0.4,0.2,0.7,0.4,1,0.7c0.3,0.3,0.5,0.6,0.6,1c0.2,0.4,0.2,0.8,0.2,1.2
		S72.8-175.6,72.7-175.2z M71.7-177.2c-0.1-0.3-0.2-0.5-0.4-0.7c-0.2-0.2-0.4-0.3-0.6-0.5c-0.2-0.1-0.5-0.2-0.8-0.2
		s-0.6,0.1-0.8,0.2c-0.2,0.1-0.5,0.3-0.6,0.4c-0.2,0.2-0.3,0.4-0.4,0.7s-0.1,0.5-0.1,0.8c0,0.3,0,0.6,0.1,0.8s0.2,0.5,0.4,0.7
		s0.4,0.3,0.6,0.5c0.2,0.1,0.5,0.2,0.8,0.2c0.3,0,0.6-0.1,0.8-0.2c0.2-0.1,0.5-0.3,0.6-0.4c0.2-0.2,0.3-0.4,0.4-0.7
		c0.1-0.3,0.1-0.5,0.1-0.8S71.8-176.9,71.7-177.2z"/>
	<path class="st7" d="M78.5-176.5c-0.1,0.3-0.3,0.5-0.5,0.6s-0.5,0.3-0.7,0.4c-0.3,0.1-0.6,0.1-0.9,0.1h-1.2v1.9h-1v-5.9h2.3
		c0.3,0,0.7,0,0.9,0.1c0.3,0.1,0.5,0.2,0.7,0.4c0.2,0.2,0.3,0.4,0.4,0.6s0.2,0.5,0.2,0.8C78.7-177,78.6-176.7,78.5-176.5z
		 M77.3-178.1c-0.2-0.2-0.5-0.3-0.9-0.3h-1.2v2.1h1.2c0.4,0,0.7-0.1,0.9-0.3s0.3-0.5,0.3-0.8C77.7-177.7,77.5-178,77.3-178.1z"/>
	<path class="st7" d="M79.8-179.3h1v4.9h3.1v0.9h-4.1V-179.3z"/>
	<path class="st7" d="M90.6-173.4h-1.1l-0.6-1.4h-2.8l-0.6,1.4h-1.1l2.6-5.9h1L90.6-173.4z M87.5-178.1l-1,2.4h2L87.5-178.1z"/>
	<path class="st7" d="M92.4-177.5c0,0.1,0.1,0.2,0.2,0.2c0.1,0.1,0.2,0.1,0.4,0.2c0.2,0.1,0.4,0.1,0.7,0.2c0.3,0.1,0.6,0.2,0.8,0.3
		c0.2,0.1,0.4,0.2,0.6,0.3c0.2,0.1,0.3,0.3,0.4,0.5c0.1,0.2,0.1,0.4,0.1,0.6c0,0.3-0.1,0.5-0.2,0.7c-0.1,0.2-0.2,0.4-0.4,0.6
		c-0.2,0.2-0.4,0.3-0.7,0.3c-0.3,0.1-0.5,0.1-0.8,0.1c-0.5,0-0.9-0.1-1.3-0.2c-0.4-0.2-0.8-0.4-1.2-0.7l0.6-0.7
		c0.3,0.2,0.6,0.4,0.9,0.6c0.3,0.1,0.6,0.2,1,0.2c0.3,0,0.6-0.1,0.8-0.2c0.2-0.1,0.3-0.3,0.3-0.5c0-0.1,0-0.2-0.1-0.3
		s-0.1-0.2-0.2-0.2s-0.2-0.1-0.4-0.2s-0.4-0.1-0.7-0.2c-0.3-0.1-0.6-0.2-0.8-0.2c-0.2-0.1-0.4-0.2-0.6-0.3c-0.2-0.1-0.3-0.3-0.4-0.5
		c-0.1-0.2-0.1-0.4-0.1-0.7c0-0.3,0.1-0.5,0.1-0.7c0.1-0.2,0.2-0.4,0.4-0.5c0.2-0.2,0.4-0.3,0.6-0.3c0.2-0.1,0.5-0.1,0.8-0.1
		c0.4,0,0.8,0.1,1.2,0.2c0.3,0.1,0.7,0.3,1,0.6l-0.6,0.8c-0.3-0.2-0.5-0.3-0.8-0.4c-0.3-0.1-0.5-0.2-0.8-0.2c-0.3,0-0.5,0.1-0.7,0.2
		c-0.2,0.1-0.3,0.3-0.3,0.5C92.4-177.7,92.4-177.6,92.4-177.5z"/>
	<path class="st7" d="M99.2-173.5h-1v-4.9h-1.9v-1h4.8v1h-1.9V-173.5z"/>
	<path class="st7" d="M103.3-179.3v5.9h-1v-5.9H103.3z"/>
	<path class="st7" d="M109.5-174c-0.2,0.1-0.3,0.2-0.5,0.3c-0.2,0.1-0.4,0.2-0.6,0.2c-0.2,0-0.5,0.1-0.8,0.1c-0.4,0-0.8-0.1-1.2-0.2
		c-0.4-0.2-0.7-0.4-0.9-0.6c-0.3-0.3-0.5-0.6-0.6-1c-0.2-0.4-0.2-0.8-0.2-1.2c0-0.4,0.1-0.8,0.2-1.2c0.1-0.4,0.4-0.7,0.6-1
		c0.3-0.3,0.6-0.5,1-0.7c0.4-0.2,0.8-0.2,1.2-0.2c0.3,0,0.5,0,0.7,0.1c0.2,0,0.4,0.1,0.6,0.2c0.2,0.1,0.4,0.2,0.5,0.3
		s0.3,0.2,0.4,0.4l-0.7,0.8c-0.2-0.2-0.5-0.4-0.7-0.5s-0.6-0.2-0.9-0.2c-0.3,0-0.5,0.1-0.8,0.2c-0.2,0.1-0.4,0.3-0.6,0.4
		c-0.2,0.2-0.3,0.4-0.4,0.7c-0.1,0.3-0.1,0.5-0.1,0.8s0,0.6,0.1,0.8c0.1,0.3,0.2,0.5,0.4,0.7c0.2,0.2,0.4,0.3,0.6,0.5
		c0.2,0.1,0.5,0.2,0.8,0.2c0.4,0,0.7-0.1,0.9-0.2c0.3-0.1,0.5-0.3,0.8-0.6l0.7,0.7C109.8-174.2,109.7-174.1,109.5-174z"/>
	<path class="st7" d="M112-177.5c0,0.1,0.1,0.2,0.2,0.2c0.1,0.1,0.2,0.1,0.4,0.2c0.2,0.1,0.4,0.1,0.7,0.2c0.3,0.1,0.6,0.2,0.8,0.3
		c0.2,0.1,0.4,0.2,0.6,0.3c0.2,0.1,0.3,0.3,0.4,0.5c0.1,0.2,0.1,0.4,0.1,0.6c0,0.3-0.1,0.5-0.2,0.7c-0.1,0.2-0.2,0.4-0.4,0.6
		s-0.4,0.3-0.7,0.3c-0.3,0.1-0.5,0.1-0.8,0.1c-0.5,0-0.9-0.1-1.3-0.2c-0.4-0.2-0.8-0.4-1.2-0.7l0.6-0.7c0.3,0.2,0.6,0.4,0.9,0.6
		c0.3,0.1,0.6,0.2,1,0.2c0.3,0,0.6-0.1,0.8-0.2c0.2-0.1,0.3-0.3,0.3-0.5c0-0.1,0-0.2-0.1-0.3c0-0.1-0.1-0.2-0.2-0.2
		c-0.1-0.1-0.2-0.1-0.4-0.2c-0.2-0.1-0.4-0.1-0.7-0.2c-0.3-0.1-0.6-0.2-0.8-0.2c-0.2-0.1-0.4-0.2-0.6-0.3c-0.2-0.1-0.3-0.3-0.4-0.5
		c-0.1-0.2-0.1-0.4-0.1-0.7c0-0.3,0.1-0.5,0.1-0.7c0.1-0.2,0.2-0.4,0.4-0.5c0.2-0.2,0.4-0.3,0.6-0.3c0.2-0.1,0.5-0.1,0.8-0.1
		c0.4,0,0.8,0.1,1.2,0.2c0.3,0.1,0.7,0.3,1,0.6l-0.6,0.8c-0.3-0.2-0.5-0.3-0.8-0.4c-0.3-0.1-0.5-0.2-0.8-0.2c-0.3,0-0.5,0.1-0.7,0.2
		c-0.2,0.1-0.3,0.3-0.3,0.5C111.9-177.7,112-177.6,112-177.5z"/>
</g>
<g class="st1">
	<rect x="7" y="23.8" class="st2" width="60" height="48"/>
</g>
<g class="st3">
	<rect x="67" y="23.8" class="st2" width="60" height="48"/>
</g>
<g class="st4">
	<rect x="127" y="23.8" class="st2" width="60" height="48"/>
</g>
<g class="st5">
	<rect x="187" y="23.8" class="st2" width="60" height="48"/>
</g>
<path class="st6" d="M14.1,81c-0.2,0.5-0.4,1-0.7,1.4c-0.3,0.4-0.7,0.7-1.1,0.9c-0.5,0.2-1,0.4-1.5,0.3c-0.5,0-1-0.1-1.5-0.3
	c-0.4-0.2-0.8-0.5-1.1-0.9c-0.3-0.4-0.5-0.9-0.7-1.4c-0.3-1.1-0.3-2.3,0-3.4c0.2-0.5,0.4-1,0.7-1.4c0.3-0.4,0.7-0.7,1.1-0.9
	c0.5-0.2,1-0.4,1.5-0.4c0.5,0,1,0.1,1.5,0.3c0.4,0.2,0.8,0.5,1.1,0.9c0.3,0.4,0.6,0.9,0.7,1.4c0.2,0.5,0.2,1.1,0.2,1.7
	C14.4,79.9,14.3,80.5,14.1,81z M13.2,78c-0.1-0.4-0.3-0.8-0.5-1.1c-0.2-0.3-0.5-0.6-0.8-0.8c-0.3-0.2-0.7-0.3-1.1-0.3
	c-0.4,0-0.7,0.1-1.1,0.3c-0.3,0.2-0.6,0.5-0.8,0.8c-0.2,0.3-0.4,0.7-0.5,1.1c-0.2,0.9-0.2,1.8,0,2.7c0.1,0.4,0.3,0.8,0.5,1.1
	c0.2,0.3,0.5,0.6,0.8,0.8c0.3,0.2,0.7,0.3,1.1,0.2c0.4,0,0.8-0.1,1.1-0.3c0.3-0.2,0.6-0.5,0.8-0.8c0.2-0.3,0.4-0.7,0.5-1.1
	c0.1-0.4,0.2-0.9,0.2-1.3C13.4,78.9,13.4,78.5,13.2,78L13.2,78z"/>
<path class="st6" d="M15.8,83.6v-1.3H17v1.3L15.8,83.6z"/>
<path class="st6" d="M19.6,75.1h0.7v8.5h-1v-7.5l-1.6,0.5l-0.2-0.8L19.6,75.1z"/>
<path class="st6" d="M69,75.1h0.7v8.5h-1v-7.5l-1.6,0.5L67,75.8L69,75.1z"/>
<g>
	<path class="st6" d="M129,75.1h0.7v8.5h-0.9v-7.5l-1.6,0.5l-0.2-0.8L129,75.1z"/>
	<path class="st6" d="M138.5,81c-0.2,0.5-0.4,1-0.7,1.4c-0.3,0.4-0.7,0.7-1.1,0.9c-0.5,0.2-1,0.4-1.5,0.3c-0.5,0-1-0.1-1.5-0.3
		c-0.4-0.2-0.8-0.5-1.1-0.9c-0.3-0.4-0.6-0.9-0.7-1.4c-0.2-0.5-0.2-1.1-0.2-1.7c0-0.6,0.1-1.1,0.2-1.7c0.2-0.5,0.4-1,0.7-1.4
		c0.3-0.4,0.7-0.7,1.1-0.9c0.9-0.5,2-0.5,2.9,0c0.4,0.2,0.8,0.5,1.1,0.9c0.3,0.4,0.6,0.9,0.7,1.4c0.2,0.5,0.3,1.1,0.2,1.7
		C138.8,79.9,138.7,80.5,138.5,81z M137.6,78c-0.1-0.4-0.3-0.8-0.5-1.1c-0.2-0.3-0.5-0.6-0.8-0.8c-0.3-0.2-0.7-0.3-1.1-0.3
		c-0.4,0-0.7,0.1-1.1,0.3c-0.3,0.2-0.6,0.5-0.8,0.8c-0.2,0.3-0.4,0.7-0.5,1.1c-0.2,0.9-0.2,1.8,0,2.7c0.1,0.4,0.3,0.8,0.5,1.1
		c0.2,0.3,0.5,0.6,0.8,0.8c0.3,0.2,0.7,0.3,1.1,0.3c0.4,0,0.7-0.1,1.1-0.3c0.3-0.2,0.6-0.5,0.8-0.8c0.2-0.3,0.4-0.7,0.5-1.1
		C137.8,79.8,137.8,78.9,137.6,78L137.6,78z"/>
</g>
<g>
	<path class="st6" d="M189,75.1h0.7v8.5h-0.9v-7.5l-1.6,0.5l-0.2-0.8L189,75.1z"/>
	<path class="st6" d="M198.5,81c-0.2,0.5-0.4,1-0.7,1.4c-0.3,0.4-0.7,0.7-1.1,0.9c-0.5,0.2-1,0.4-1.5,0.3c-0.5,0-1-0.1-1.5-0.3
		c-0.4-0.2-0.8-0.5-1.1-0.9c-0.3-0.4-0.6-0.9-0.7-1.4c-0.2-0.5-0.2-1.1-0.2-1.7c0-0.6,0.1-1.1,0.2-1.7c0.2-0.5,0.4-1,0.7-1.4
		c0.3-0.4,0.7-0.7,1.1-0.9c0.5-0.2,1-0.4,1.5-0.3c0.5,0,1,0.1,1.5,0.3c0.4,0.2,0.8,0.5,1.1,0.9c0.3,0.4,0.6,0.9,0.7,1.4
		c0.2,0.5,0.3,1.1,0.2,1.7C198.8,79.9,198.7,80.5,198.5,81z M197.6,78c-0.1-0.4-0.3-0.8-0.5-1.1c-0.2-0.3-0.5-0.6-0.8-0.8
		c-0.3-0.2-0.7-0.3-1.1-0.3c-0.4,0-0.7,0.1-1.1,0.3c-0.3,0.2-0.6,0.5-0.8,0.8c-0.2,0.3-0.4,0.7-0.5,1.1c-0.2,0.9-0.2,1.8,0,2.7
		c0.1,0.4,0.3,0.8,0.5,1.1c0.2,0.3,0.5,0.6,0.8,0.8c0.3,0.2,0.7,0.3,1.1,0.3c0.4,0,0.7-0.1,1.1-0.3c0.3-0.2,0.6-0.5,0.8-0.8
		c0.2-0.3,0.4-0.7,0.5-1.1C197.8,79.8,197.8,78.9,197.6,78L197.6,78z"/>
	<path class="st6" d="M207.1,81c-0.2,0.5-0.4,1-0.7,1.4c-0.3,0.4-0.7,0.7-1.1,0.9c-0.5,0.2-1,0.4-1.5,0.3c-0.5,0-1-0.1-1.5-0.3
		c-0.4-0.2-0.8-0.5-1.1-0.9c-0.3-0.4-0.6-0.9-0.7-1.4c-0.2-0.5-0.2-1.1-0.2-1.7c0-0.6,0.1-1.1,0.2-1.7c0.2-0.5,0.4-1,0.7-1.4
		c0.3-0.4,0.7-0.7,1.1-0.9c0.5-0.2,1-0.4,1.5-0.3c0.5,0,1,0.1,1.5,0.3c0.4,0.2,0.8,0.5,1.1,0.9c0.3,0.4,0.6,0.9,0.7,1.4
		c0.2,0.5,0.3,1.1,0.2,1.7C207.3,79.9,207.3,80.5,207.1,81z M206.2,78c-0.1-0.4-0.3-0.8-0.5-1.1c-0.2-0.3-0.5-0.6-0.8-0.8
		c-0.3-0.2-0.7-0.3-1.1-0.3c-0.4,0-0.7,0.1-1.1,0.3c-0.3,0.2-0.6,0.5-0.8,0.8c-0.2,0.3-0.4,0.7-0.5,1.1c-0.2,0.9-0.2,1.8,0,2.7
		c0.1,0.4,0.3,0.8,0.5,1.2c0.2,0.3,0.5,0.6,0.8,0.8c0.3,0.2,0.7,0.3,1.1,0.3c0.4,0,0.7-0.1,1.1-0.3c0.3-0.2,0.6-0.5,0.8-0.8
		c0.2-0.3,0.4-0.7,0.5-1.1C206.4,79.9,206.4,78.9,206.2,78L206.2,78z"/>
</g>
<g>
	<path class="st6" d="M261.9,83.9h-1.1l-2.2-2.9l-1.3,1.3v1.6h-0.9v-8.8h0.9v6.1l3.3-3.5h1.2l-2.6,2.7L261.9,83.9z"/>
	<path class="st6" d="M268.6,84.2c-0.1,0.4-0.4,0.7-0.6,0.9c-0.3,0.3-0.6,0.5-1,0.6c-0.4,0.1-0.9,0.2-1.3,0.2c-0.5,0-1-0.1-1.5-0.2
		c-0.5-0.1-0.9-0.4-1.3-0.7l0.4-0.7c0.3,0.2,0.7,0.4,1.1,0.6c0.4,0.1,0.8,0.2,1.3,0.2c0.6,0,1.2-0.2,1.6-0.6c0.4-0.4,0.7-1,0.6-1.7
		v-0.7c-0.3,0.4-0.6,0.7-1,0.9c-0.4,0.3-0.9,0.4-1.4,0.3c-0.4,0-0.7-0.1-1.1-0.2c-0.3-0.1-0.7-0.3-0.9-0.6c-0.3-0.3-0.5-0.6-0.7-0.9
		c-0.2-0.4-0.2-0.8-0.2-1.2c0-0.4,0.1-0.8,0.2-1.2c0.2-0.3,0.4-0.7,0.7-0.9c0.3-0.3,0.6-0.4,0.9-0.6c0.3-0.1,0.7-0.2,1.1-0.2
		c0.3,0,0.5,0,0.8,0.1c0.2,0.1,0.5,0.1,0.7,0.3c0.2,0.1,0.4,0.2,0.5,0.4c0.2,0.1,0.3,0.3,0.4,0.5v-1.1h0.9v5.1
		C268.8,83.3,268.7,83.8,268.6,84.2z M267.7,79.7c-0.1-0.3-0.3-0.5-0.5-0.7c-0.2-0.2-0.5-0.3-0.8-0.4c-0.3-0.1-0.6-0.2-0.9-0.2
		c-0.3,0-0.6,0-0.8,0.1c-0.3,0.1-0.5,0.2-0.7,0.4c-0.2,0.2-0.4,0.4-0.5,0.7c-0.1,0.3-0.2,0.6-0.2,0.9c0,0.3,0,0.6,0.2,0.9
		c0.1,0.3,0.3,0.5,0.5,0.7c0.2,0.2,0.4,0.3,0.7,0.4c0.3,0.1,0.5,0.2,0.8,0.2c0.3,0,0.6-0.1,0.9-0.2c0.3-0.1,0.5-0.2,0.7-0.4
		c0.2-0.2,0.4-0.4,0.5-0.7c0.1-0.3,0.2-0.6,0.2-0.9C267.9,80.2,267.8,79.9,267.7,79.7z"/>
	<path class="st6" d="M280,83.9h-1.1l-2.2-2.9l-1.3,1.3v1.6h-0.9v-8.8h0.9v6.1l3.4-3.5h1.1l-2.6,2.7L280,83.9z"/>
	<path class="st6" d="M286.6,78.4c0.1-0.2,0.3-0.3,0.5-0.4c0.2-0.1,0.4-0.2,0.6-0.3c0.2-0.1,0.5-0.1,0.7-0.1c0.6,0,1.2,0.2,1.7,0.7
		c0.4,0.5,0.7,1.2,0.6,1.8v3.8h-0.9v-3.6c0-0.5-0.1-1-0.4-1.4c-0.3-0.3-0.7-0.5-1.2-0.5c-0.2,0-0.4,0-0.7,0.1
		c-0.2,0.1-0.4,0.2-0.6,0.4c-0.2,0.2-0.3,0.4-0.4,0.6c-0.1,0.3-0.1,0.5-0.1,0.8v3.6h-0.9v-3.7c0-0.5-0.1-1-0.4-1.4
		c-0.3-0.3-0.7-0.5-1.2-0.5c-0.2,0-0.5,0-0.7,0.1c-0.2,0.1-0.4,0.2-0.5,0.4c-0.2,0.2-0.3,0.4-0.4,0.6c-0.1,0.3-0.1,0.5-0.1,0.8v3.5
		h-0.9v-6.2h0.9v1c0.1-0.2,0.2-0.3,0.3-0.4c0.1-0.1,0.3-0.3,0.4-0.4c0.2-0.1,0.3-0.2,0.5-0.3c0.2-0.1,0.5-0.1,0.7-0.1
		c0.4,0,0.9,0.1,1.2,0.4c0.3,0.2,0.6,0.5,0.7,0.9C286.3,78.7,286.4,78.5,286.6,78.4z"/>
	<path class="st6" d="M293.1,73.6c-0.3,0.2-0.5,0.4-0.6,0.7L292,74c0.1-0.2,0.2-0.3,0.4-0.5c0.1-0.1,0.3-0.3,0.4-0.4
		c0.2-0.1,0.3-0.2,0.5-0.2c0.2-0.1,0.4-0.1,0.6-0.1c0.2,0,0.4,0,0.6,0.1c0.2,0.1,0.4,0.2,0.5,0.3c0.1,0.1,0.3,0.3,0.4,0.5
		c0.1,0.2,0.1,0.4,0.1,0.6c0,0.2,0,0.4-0.1,0.6c-0.1,0.2-0.1,0.3-0.3,0.5c-0.1,0.2-0.3,0.3-0.4,0.5c-0.2,0.2-0.4,0.4-0.6,0.6
		l-1.5,1.3h2.9v0.6h-3.8v-0.5l2-1.8c0.2-0.2,0.4-0.3,0.5-0.5c0.1-0.1,0.3-0.3,0.4-0.4c0.1-0.1,0.1-0.3,0.2-0.4
		c0-0.1,0.1-0.3,0.1-0.4c0-0.1,0-0.3-0.1-0.4c-0.1-0.1-0.1-0.2-0.2-0.3c-0.1-0.1-0.2-0.2-0.4-0.2C293.9,73.3,293.4,73.4,293.1,73.6
		L293.1,73.6z"/>
</g>
<rect x="7" y="6.2" class="st11" width="204.5" height="51.1"/>
<text transform="matrix(1 0 0 1 6.9592 14.9579)"><tspan x="0" y="0" class="st7 st12 st13">GARBAGE CONCENTRATION</tspan><tspan x="0" y="14.4" class="st7 st12 st13"> </tspan></text>
<g>
	<g>
		<path class="st7" d="M26,127.3h1v8.5h-1.5v-7l-1.5,0.4l-0.3-1.2L26,127.3z"/>
		<path class="st7" d="M29.2,128.6v-1.3h5.6v1.1l-2.3,2.4c0.3,0,0.6,0.1,0.9,0.2c0.3,0.1,0.6,0.3,0.8,0.4c0.2,0.2,0.4,0.4,0.5,0.7
			c0.1,0.3,0.2,0.6,0.2,1c0,0.4-0.1,0.8-0.2,1.1c-0.1,0.3-0.3,0.6-0.6,0.8c-0.3,0.2-0.6,0.4-0.9,0.6c-0.4,0.1-0.8,0.2-1.2,0.2
			c-0.7,0-1.4-0.1-1.9-0.4c-0.5-0.3-1-0.6-1.3-1.1l1-1c0.3,0.4,0.6,0.6,1,0.8c0.3,0.2,0.8,0.3,1.2,0.3c0.4,0,0.8-0.1,1-0.3
			c0.3-0.2,0.4-0.5,0.4-0.9c0-0.4-0.2-0.7-0.5-1c-0.3-0.2-0.8-0.3-1.4-0.3h-0.7l-0.2-0.9l2.3-2.4H29.2z"/>
		<path class="st7" d="M40,130.2c-0.1,0.3-0.2,0.5-0.4,0.7s-0.4,0.4-0.6,0.5s-0.5,0.2-0.8,0.2s-0.6-0.1-0.8-0.2
			c-0.2-0.1-0.4-0.3-0.6-0.5c-0.2-0.2-0.3-0.4-0.4-0.7c-0.1-0.3-0.1-0.5-0.1-0.8c0-0.3,0-0.6,0.1-0.8c0.1-0.3,0.2-0.5,0.4-0.7
			c0.2-0.2,0.4-0.4,0.6-0.5c0.2-0.1,0.5-0.2,0.8-0.2s0.6,0.1,0.8,0.2c0.2,0.1,0.4,0.3,0.6,0.5c0.2,0.2,0.3,0.4,0.4,0.7
			c0.1,0.3,0.1,0.5,0.1,0.8C40.1,129.7,40.1,130,40,130.2z M38.2,135.7H37l6.1-8.4h1.2L38.2,135.7z M38.8,128.5
			c-0.2-0.2-0.4-0.4-0.7-0.4c-0.3,0-0.5,0.1-0.7,0.4c-0.2,0.2-0.2,0.5-0.2,0.9c0,0.4,0.1,0.6,0.3,0.9c0.2,0.2,0.4,0.4,0.7,0.4
			c0.3,0,0.5-0.1,0.7-0.4c0.2-0.2,0.2-0.5,0.2-0.9C39.1,129.1,39,128.8,38.8,128.5z M45.1,134.5c-0.1,0.3-0.2,0.5-0.4,0.7
			c-0.2,0.2-0.4,0.4-0.6,0.5c-0.2,0.1-0.5,0.2-0.8,0.2c-0.3,0-0.6-0.1-0.8-0.2c-0.2-0.1-0.4-0.3-0.6-0.5c-0.2-0.2-0.3-0.4-0.4-0.7
			c-0.1-0.3-0.1-0.5-0.1-0.8c0-0.3,0-0.6,0.1-0.8c0.1-0.3,0.2-0.5,0.4-0.7c0.2-0.2,0.4-0.4,0.6-0.5c0.2-0.1,0.5-0.2,0.8-0.2
			s0.6,0.1,0.8,0.2c0.2,0.1,0.4,0.3,0.6,0.5c0.2,0.2,0.3,0.4,0.4,0.7c0.1,0.3,0.1,0.5,0.1,0.8C45.2,134,45.2,134.2,45.1,134.5z
			 M43.9,132.8c-0.2-0.2-0.4-0.4-0.7-0.4c-0.3,0-0.5,0.1-0.7,0.4s-0.2,0.5-0.2,0.9c0,0.4,0.1,0.6,0.3,0.9c0.2,0.2,0.4,0.4,0.7,0.4
			c0.3,0,0.5-0.1,0.7-0.4c0.2-0.2,0.2-0.5,0.2-0.9C44.1,133.3,44.1,133.1,43.9,132.8z"/>
	</g>
	<path class="st7" d="M26.1,144.7c-0.3,0.2-0.6,0.5-0.9,0.9l-1-0.8c0.2-0.3,0.4-0.5,0.6-0.8c0.2-0.2,0.4-0.4,0.7-0.6
		c0.2-0.1,0.5-0.3,0.8-0.3c0.3-0.1,0.6-0.1,1-0.1c0.4,0,0.8,0.1,1.1,0.2c0.3,0.1,0.6,0.3,0.9,0.5c0.2,0.2,0.4,0.5,0.6,0.8
		c0.1,0.3,0.2,0.7,0.2,1c0,0.3,0,0.6-0.1,0.9c-0.1,0.3-0.2,0.5-0.4,0.8s-0.4,0.5-0.7,0.8s-0.6,0.5-1,0.8l-1.7,1.4h4v1.3H24v-1.2
		l2.9-2.5c0.3-0.2,0.5-0.5,0.7-0.7c0.2-0.2,0.4-0.4,0.5-0.6c0.1-0.2,0.2-0.3,0.3-0.5c0.1-0.2,0.1-0.3,0.1-0.5c0-0.4-0.1-0.7-0.4-1
		c-0.3-0.2-0.6-0.3-1-0.3C26.7,144.4,26.4,144.5,26.1,144.7z"/>
	<path class="st7" d="M36.8,145c-0.3-0.2-0.6-0.4-0.9-0.5c-0.3-0.1-0.6-0.2-1-0.2c-0.3,0-0.6,0.1-0.8,0.2s-0.4,0.3-0.6,0.6
		s-0.3,0.5-0.4,0.8c-0.1,0.3-0.2,0.7-0.2,1.1c0.1-0.1,0.2-0.2,0.4-0.3c0.1-0.1,0.3-0.2,0.4-0.3c0.2-0.1,0.3-0.1,0.5-0.2
		c0.2,0,0.4-0.1,0.7-0.1c0.4,0,0.8,0.1,1.1,0.2s0.7,0.3,0.9,0.5c0.3,0.2,0.5,0.5,0.6,0.8s0.2,0.7,0.2,1.1s-0.1,0.8-0.2,1.2
		c-0.2,0.4-0.4,0.7-0.7,0.9c-0.3,0.3-0.6,0.4-1,0.6c-0.4,0.1-0.8,0.2-1.2,0.2c-0.5,0-1-0.1-1.4-0.2s-0.7-0.4-1-0.6
		c-0.2-0.2-0.3-0.3-0.4-0.5c-0.1-0.2-0.2-0.4-0.3-0.7c-0.1-0.3-0.2-0.6-0.2-0.9s-0.1-0.7-0.1-1.1c0-0.6,0.1-1.2,0.2-1.8
		c0.2-0.6,0.4-1,0.7-1.5c0.3-0.4,0.7-0.7,1.1-1c0.5-0.2,1-0.4,1.6-0.4c0.5,0,1,0.1,1.4,0.2c0.4,0.2,0.8,0.4,1.2,0.7L36.8,145z
		 M36,147.8c-0.3-0.3-0.7-0.4-1.3-0.4c-0.3,0-0.5,0-0.7,0.1c-0.2,0.1-0.4,0.2-0.5,0.3s-0.3,0.3-0.3,0.5c-0.1,0.2-0.1,0.4-0.1,0.6
		c0,0.4,0.2,0.8,0.5,1.1c0.3,0.3,0.7,0.4,1.3,0.4s0.9-0.1,1.2-0.4c0.3-0.3,0.4-0.7,0.4-1.1C36.5,148.4,36.3,148.1,36,147.8z"/>
	<path class="st7" d="M43,146c-0.1,0.3-0.2,0.5-0.4,0.7s-0.4,0.4-0.6,0.5s-0.5,0.2-0.8,0.2s-0.6-0.1-0.8-0.2
		c-0.2-0.1-0.4-0.3-0.6-0.5c-0.2-0.2-0.3-0.4-0.4-0.7c-0.1-0.3-0.1-0.5-0.1-0.8c0-0.3,0-0.6,0.1-0.8c0.1-0.3,0.2-0.5,0.4-0.7
		c0.2-0.2,0.4-0.4,0.6-0.5c0.2-0.1,0.5-0.2,0.8-0.2s0.6,0.1,0.8,0.2c0.2,0.1,0.4,0.3,0.6,0.5c0.2,0.2,0.3,0.4,0.4,0.7
		c0.1,0.3,0.1,0.5,0.1,0.8C43.2,145.4,43.1,145.7,43,146z M41.3,151.5h-1.2l6.1-8.4h1.2L41.3,151.5z M41.9,144.3
		c-0.2-0.2-0.4-0.4-0.7-0.4c-0.3,0-0.5,0.1-0.7,0.4c-0.2,0.2-0.2,0.5-0.2,0.9c0,0.4,0.1,0.6,0.3,0.9c0.2,0.2,0.4,0.4,0.7,0.4
		c0.3,0,0.5-0.1,0.7-0.4c0.2-0.2,0.2-0.5,0.2-0.9C42.1,144.8,42,144.5,41.9,144.3z M48.1,150.3c-0.1,0.3-0.2,0.5-0.4,0.7
		c-0.2,0.2-0.4,0.4-0.6,0.5c-0.2,0.1-0.5,0.2-0.8,0.2c-0.3,0-0.6-0.1-0.8-0.2c-0.2-0.1-0.4-0.3-0.6-0.5c-0.2-0.2-0.3-0.4-0.4-0.7
		c-0.1-0.3-0.1-0.5-0.1-0.8c0-0.3,0-0.6,0.1-0.8c0.1-0.3,0.2-0.5,0.4-0.7c0.2-0.2,0.4-0.4,0.6-0.5c0.2-0.1,0.5-0.2,0.8-0.2
		s0.6,0.1,0.8,0.2c0.2,0.1,0.4,0.3,0.6,0.5c0.2,0.2,0.3,0.4,0.4,0.7c0.1,0.3,0.1,0.5,0.1,0.8C48.3,149.7,48.2,150,48.1,150.3z
		 M46.9,148.6c-0.2-0.2-0.4-0.4-0.7-0.4c-0.3,0-0.5,0.1-0.7,0.4s-0.2,0.5-0.2,0.9c0,0.4,0.1,0.6,0.3,0.9c0.2,0.2,0.4,0.4,0.7,0.4
		c0.3,0,0.5-0.1,0.7-0.4c0.2-0.2,0.2-0.5,0.2-0.9C47.2,149.1,47.1,148.8,46.9,148.6z"/>
	<path class="st7" d="M24.8,158.8h5v1.3h-3.8l-0.1,2c0.2-0.1,0.4-0.1,0.6-0.2c0.2,0,0.4-0.1,0.7-0.1c0.4,0,0.8,0.1,1.1,0.2
		c0.4,0.1,0.7,0.3,0.9,0.5s0.5,0.5,0.6,0.8c0.1,0.3,0.2,0.7,0.2,1.2c0,0.4-0.1,0.8-0.2,1.2c-0.1,0.4-0.4,0.7-0.6,0.9
		c-0.3,0.2-0.6,0.4-1,0.6c-0.4,0.1-0.8,0.2-1.3,0.2c-0.6,0-1.2-0.1-1.7-0.4c-0.5-0.2-1-0.5-1.4-0.9l0.9-1.1c0.3,0.3,0.7,0.6,1,0.7
		c0.4,0.2,0.7,0.3,1.1,0.3c0.5,0,0.9-0.1,1.2-0.4c0.3-0.3,0.5-0.6,0.5-1.1c0-0.4-0.2-0.8-0.5-1c-0.3-0.3-0.7-0.4-1.3-0.4
		c-0.3,0-0.6,0-0.8,0.1c-0.3,0.1-0.5,0.2-0.7,0.3l-0.9-0.6L24.8,158.8z"/>
	<path class="st7" d="M31.8,160.1v-1.3h5.6v1.1l-2.3,2.4c0.3,0,0.6,0.1,0.9,0.2c0.3,0.1,0.6,0.3,0.8,0.4c0.2,0.2,0.4,0.4,0.5,0.7
		c0.1,0.3,0.2,0.6,0.2,1c0,0.4-0.1,0.8-0.2,1.1c-0.1,0.3-0.3,0.6-0.6,0.8c-0.3,0.2-0.6,0.4-0.9,0.6c-0.4,0.1-0.8,0.2-1.2,0.2
		c-0.7,0-1.4-0.1-1.9-0.4c-0.5-0.3-1-0.6-1.3-1.1l1-1c0.3,0.4,0.6,0.6,1,0.8c0.3,0.2,0.8,0.3,1.2,0.3c0.4,0,0.8-0.1,1-0.3
		c0.3-0.2,0.4-0.5,0.4-0.9c0-0.4-0.2-0.7-0.5-1c-0.3-0.2-0.8-0.3-1.4-0.3h-0.7l-0.2-0.9l2.3-2.4H31.8z"/>
	<path class="st7" d="M42.6,161.7c-0.1,0.3-0.2,0.5-0.4,0.7s-0.4,0.4-0.6,0.5s-0.5,0.2-0.8,0.2s-0.6-0.1-0.8-0.2
		c-0.2-0.1-0.4-0.3-0.6-0.5c-0.2-0.2-0.3-0.4-0.4-0.7c-0.1-0.3-0.1-0.5-0.1-0.8c0-0.3,0-0.6,0.1-0.8c0.1-0.3,0.2-0.5,0.4-0.7
		c0.2-0.2,0.4-0.4,0.6-0.5c0.2-0.1,0.5-0.2,0.8-0.2s0.6,0.1,0.8,0.2c0.2,0.1,0.4,0.3,0.6,0.5c0.2,0.2,0.3,0.4,0.4,0.7
		c0.1,0.3,0.1,0.5,0.1,0.8C42.8,161.2,42.7,161.5,42.6,161.7z M40.9,167.3h-1.2l6.1-8.4H47L40.9,167.3z M41.5,160
		c-0.2-0.2-0.4-0.4-0.7-0.4c-0.3,0-0.5,0.1-0.7,0.4c-0.2,0.2-0.2,0.5-0.2,0.9c0,0.4,0.1,0.6,0.3,0.9c0.2,0.2,0.4,0.4,0.7,0.4
		c0.3,0,0.5-0.1,0.7-0.4c0.2-0.2,0.2-0.5,0.2-0.9C41.7,160.6,41.6,160.3,41.5,160z M47.7,166c-0.1,0.3-0.2,0.5-0.4,0.7
		c-0.2,0.2-0.4,0.4-0.6,0.5c-0.2,0.1-0.5,0.2-0.8,0.2c-0.3,0-0.6-0.1-0.8-0.2c-0.2-0.1-0.4-0.3-0.6-0.5c-0.2-0.2-0.3-0.4-0.4-0.7
		c-0.1-0.3-0.1-0.5-0.1-0.8c0-0.3,0-0.6,0.1-0.8c0.1-0.3,0.2-0.5,0.4-0.7c0.2-0.2,0.4-0.4,0.6-0.5c0.2-0.1,0.5-0.2,0.8-0.2
		s0.6,0.1,0.8,0.2c0.2,0.1,0.4,0.3,0.6,0.5c0.2,0.2,0.3,0.4,0.4,0.7c0.1,0.3,0.1,0.5,0.1,0.8C47.9,165.5,47.8,165.8,47.7,166z
		 M46.5,164.3c-0.2-0.2-0.4-0.4-0.7-0.4c-0.3,0-0.5,0.1-0.7,0.4s-0.2,0.5-0.2,0.9c0,0.4,0.1,0.6,0.3,0.9c0.2,0.2,0.4,0.4,0.7,0.4
		c0.3,0,0.5-0.1,0.7-0.4c0.2-0.2,0.2-0.5,0.2-0.9C46.8,164.9,46.7,164.6,46.5,164.3z"/>
</g>
<rect x="7" y="109.6" class="st8" width="12.4" height="12.4"/>
<rect x="7" y="125.4" class="st9" width="12.4" height="12.4"/>
<rect x="7" y="141.1" class="st10" width="12.4" height="12.4"/>
<rect x="7" y="156.9" class="st2" width="12.4" height="12.4"/>
<path class="st7" d="M29.9,118.7c-0.2,0.3-0.4,0.6-0.7,0.8c-0.3,0.2-0.6,0.4-1,0.5c-0.4,0.1-0.8,0.2-1.3,0.2c-0.5,0-0.9-0.1-1.3-0.2
	c-0.4-0.1-0.7-0.3-1-0.5c-0.3-0.2-0.5-0.5-0.7-0.8s-0.2-0.6-0.2-1c0-0.5,0.1-0.9,0.4-1.3c0.3-0.3,0.6-0.6,1.1-0.8
	c-0.4-0.2-0.6-0.4-0.9-0.7s-0.3-0.7-0.3-1.2c0-0.3,0.1-0.6,0.2-0.9c0.1-0.3,0.4-0.5,0.6-0.7s0.6-0.4,0.9-0.5s0.7-0.2,1.2-0.2
	c0.4,0,0.8,0.1,1.2,0.2c0.4,0.1,0.7,0.3,0.9,0.5c0.3,0.2,0.5,0.4,0.6,0.7c0.1,0.3,0.2,0.6,0.2,0.9c0,0.5-0.1,0.9-0.3,1.2
	c-0.2,0.3-0.5,0.5-0.9,0.7c0.5,0.2,0.8,0.5,1.1,0.8c0.3,0.3,0.4,0.7,0.4,1.2C30.1,118.1,30.1,118.4,29.9,118.7z M28.6,117.1
	c-0.1-0.2-0.2-0.3-0.4-0.4c-0.2-0.1-0.3-0.2-0.6-0.3c-0.2-0.1-0.4-0.1-0.7-0.1s-0.5,0-0.7,0.1s-0.4,0.1-0.6,0.3
	c-0.2,0.1-0.3,0.2-0.4,0.4c-0.1,0.2-0.1,0.3-0.1,0.5c0,0.4,0.2,0.7,0.5,0.9c0.3,0.2,0.7,0.4,1.3,0.4c0.6,0,1-0.1,1.3-0.4
	c0.3-0.2,0.5-0.5,0.5-0.9C28.7,117.4,28.7,117.3,28.6,117.1z M28,113.1c-0.3-0.2-0.6-0.3-1.1-0.3c-0.5,0-0.8,0.1-1.1,0.3
	c-0.3,0.2-0.4,0.5-0.4,0.8c0,0.4,0.1,0.7,0.4,0.9c0.3,0.2,0.6,0.3,1.1,0.3c0.4,0,0.8-0.1,1.1-0.3c0.3-0.2,0.4-0.5,0.4-0.9
	C28.4,113.6,28.3,113.3,28,113.1z"/>
<path class="st7" d="M35.1,114.5c-0.1,0.3-0.2,0.5-0.4,0.7s-0.4,0.4-0.6,0.5s-0.5,0.2-0.8,0.2s-0.6-0.1-0.8-0.2
	c-0.2-0.1-0.4-0.3-0.6-0.5c-0.2-0.2-0.3-0.4-0.4-0.7c-0.1-0.3-0.1-0.5-0.1-0.8c0-0.3,0-0.6,0.1-0.8c0.1-0.3,0.2-0.5,0.4-0.7
	c0.2-0.2,0.4-0.4,0.6-0.5c0.2-0.1,0.5-0.2,0.8-0.2s0.6,0.1,0.8,0.2c0.2,0.1,0.4,0.3,0.6,0.5c0.2,0.2,0.3,0.4,0.4,0.7
	c0.1,0.3,0.1,0.5,0.1,0.8C35.3,114,35.2,114.2,35.1,114.5z M33.3,120h-1.2l6.1-8.4h1.2L33.3,120z M33.9,112.8
	c-0.2-0.2-0.4-0.4-0.7-0.4c-0.3,0-0.5,0.1-0.7,0.4c-0.2,0.2-0.2,0.5-0.2,0.9c0,0.4,0.1,0.6,0.3,0.9c0.2,0.2,0.4,0.4,0.7,0.4
	c0.3,0,0.5-0.1,0.7-0.4c0.2-0.2,0.2-0.5,0.2-0.9C34.2,113.3,34.1,113,33.9,112.8z M40.2,118.8c-0.1,0.3-0.2,0.5-0.4,0.7
	c-0.2,0.2-0.4,0.4-0.6,0.5c-0.2,0.1-0.5,0.2-0.8,0.2c-0.3,0-0.6-0.1-0.8-0.2c-0.2-0.1-0.4-0.3-0.6-0.5c-0.2-0.2-0.3-0.4-0.4-0.7
	c-0.1-0.3-0.1-0.5-0.1-0.8c0-0.3,0-0.6,0.1-0.8c0.1-0.3,0.2-0.5,0.4-0.7c0.2-0.2,0.4-0.4,0.6-0.5c0.2-0.1,0.5-0.2,0.8-0.2
	s0.6,0.1,0.8,0.2c0.2,0.1,0.4,0.3,0.6,0.5c0.2,0.2,0.3,0.4,0.4,0.7c0.1,0.3,0.1,0.5,0.1,0.8C40.3,118.2,40.3,118.5,40.2,118.8z
	 M39,117.1c-0.2-0.2-0.4-0.4-0.7-0.4c-0.3,0-0.5,0.1-0.7,0.4s-0.2,0.5-0.2,0.9c0,0.4,0.1,0.6,0.3,0.9c0.2,0.2,0.4,0.4,0.7,0.4
	c0.3,0,0.5-0.1,0.7-0.4c0.2-0.2,0.2-0.5,0.2-0.9C39.3,117.6,39.2,117.3,39,117.1z"/>
<rect x="53.2" y="110.2" class="st11" width="112.1" height="11.1"/>
<text transform="matrix(1 0 0 1 53.1524 119.0058)" class="st7 st12 st13">Microplastics</text>
<rect x="53.2" y="126" class="st11" width="112.1" height="11.1"/>
<text transform="matrix(1 0 0 1 53.1524 134.7532)" class="st7 st12 st13">Mesoplastics</text>
<rect x="53.2" y="141.7" class="st11" width="112.1" height="11.1"/>
<text transform="matrix(1 0 0 1 53.1524 150.5005)" class="st7 st12 st13">Macroplastics</text>
<rect x="53.2" y="157.5" class="st11" width="112.1" height="11.1"/>
<text transform="matrix(1 0 0 1 53.1524 166.2479)" class="st7 st12 st13">Megaplastics</text>
</svg>
