<?xml version="1.0" encoding="utf-8"?>
<!-- Generator: Adobe Illustrator 23.1.1, SVG Export Plug-In . SVG Version: 6.00 Build 0)  -->
<svg version="1.1" id="Layer_1" xmlns="http://www.w3.org/2000/svg" xmlns:xlink="http://www.w3.org/1999/xlink" x="0px" y="0px"
	 viewBox="0 0 1920 1080" style="enable-background:new 0 0 1920 1080;" xml:space="preserve">
<style type="text/css">
	.st0{fill:#18293F;fill-opacity:0;}
	.st1{opacity:0.3;fill:#F0F0F0;enable-background:new    ;}
	.st2{fill:#0C3F5B;}
	.st3{fill:#0D405B;}
	.st4{opacity:0.3;}
	.st5{fill:none;stroke:#F2EBDE;stroke-width:2;stroke-miterlimit:10;}
	.st6{fill:#F2EBDE;}
	.st7{fill:#F0F0F0;}
	.st8{fill:#EB621D;}
	.st9{opacity:0.3;fill:none;stroke:#F0F0F0;stroke-width:2;stroke-miterlimit:10;enable-background:new    ;}
</style>
<title>Asset 1</title>
<g>
	<g id="Layer_2-2">
		<rect class="st0" width="1920" height="1080"/>
	</g>
	<g id="Layer_1-2">
		<path class="st1" d="M1292.1,519.1c0,0-2.6-9.5-10.1-15.2c-4.5-3.5-9.6-6-15.1-7.4c5.4-2.9,10.5-6.3,15.2-10.2
			c4.9-4,8.3-9.7,9.6-15.9c-7.5,0.4-14.8,2.6-21.2,6.4c-6.2,3.7-10.2,6.5-14.5,8.1c-3.3,1.2-6.9,1.6-10.4,1.4
			c-4.2-0.3-8.3-1.4-12.1-3.3c8-2.7,15-7.8,20.1-14.4c0,0-7.4-6-29.1-6.1c-8.2-0.1-16.5,0.8-24.5,2.5c-9.3-3.8-19.2-5.7-29.2-5.6
			c-3,0-6.1,0.2-9.1,0.5c-9.3,1.1-18.4,3.5-27.1,7.1c-16.8,7-29.7,17.4-34.3,24.9c-1.1,1.9,0.9,3.4,0.9,4.8s-2.2,3.1-1.2,4.5
			c3.5,5.2,13.2,10.6,27.2,14.9c3.7,1.1,7.8,2.2,12.1,3.1c3.6,3.9,9.9,10.3,16.8,14.8c10.5,6.8,26,7.1,26,7.1
			c-3.6-6.3-7.8-12.2-12.5-17.7c1.9,0.1,3.8,0.2,5.8,0.3c9.4,0.6,18.8-0.1,28-2.1c7,2.8,14.5,4,22,3.6c16.3-1.2,24.6-6.4,24.6-6.4
			s-4-4.4-18.3-9.2c4.3-2.5,7.9-4.2,11.5-4.2c4.8,0.1,9.4,1.1,13.7,3.2c4.5,2,8.8,4.8,15.1,7.3
			C1283.7,520.7,1292.1,519.1,1292.1,519.1z M1121.6,497.4c-3,0-5.5-2.4-5.5-5.5c0-3,2.4-5.5,5.5-5.5c3,0,5.5,2.4,5.5,5.5
			c0,0,0,0,0,0C1127.1,494.9,1124.7,497.4,1121.6,497.4z"/>
		<path id="플랑크톤1" class="st1" d="M543.8,505l-7.3-7.5c0,0-3.6-0.9-2.8,1.1s6.4,7.9,6.4,7.9l-0.2,1.1l-7.1-2.6
			c0,0-4.5,0.4-1.1,2.6c2.5,1.6,5.1,2.9,7.9,4l-0.8,1.9l-6.6,3.8c0,0-2.8,1.7,0.8,1.5c2.5-0.3,5-1.2,7.1-2.6l0.6,1.7l-6.4,6.6
			c0,0-3,4,1.7,1.1c3-1.8,5.6-4.1,7.9-6.8l1.4,11.3c0,0-0.6,1.7,1.1,1.1s1.3-4.3,1.3-4.3v-6.6l6.7,7.3c0,0,2.8,2.8,1.1-1.7
			c-1-2.8-2.3-5.5-3.8-8.1l8.5,3.2c0,0,2.6,0.4,0-2.5c-2.7-1.7-5.5-3.1-8.5-4.3l-0.2-2.1l9.8-4c0,0,1.1-2.6-1.9-2.1
			s-7.2,1.7-7.2,1.7l4.3-6.8c0,0,0.4-2.6-1.5-1.3c-2.1,1.8-4.1,3.8-6,5.8l-1.9-1.3v-7c0,0-2.2-1.9-2.6,0S543.8,505,543.8,505z"/>
		<path id="플랑크톤1-2" class="st1" d="M622,532.3l-3.9-4c0,0-1.9-0.5-1.5,0.6s3.4,4.2,3.4,4.2l-0.1,0.6l-3.8-1.4
			c0,0-2.4,0.2-0.6,1.4c1.3,0.8,2.8,1.6,4.2,2.1l-0.4,1l-3.5,2c0,0-1.5,0.9,0.4,0.8c1.4-0.2,2.7-0.6,3.8-1.4l0.3,0.9l-3.4,3.5
			c0,0-1.6,2.1,0.9,0.6c1.6-1,3-2.2,4.2-3.6l0.7,6.1c0,0-0.3,0.9,0.6,0.6s0.7-2.3,0.7-2.3v-3.5l3.6,3.9c0,0,1.5,1.5,0.6-0.9
			c-0.6-1.5-1.2-2.9-2-4.3l4.5,1.7c0,0,1.4,0.2,0-1.3c-1.4-0.9-3-1.7-4.5-2.3l-0.1-1.1l5.3-2.1c0,0,0.6-1.4-1-1.1s-3.8,0.9-3.8,0.9
			l2.3-3.6c0,0,0.2-1.4-0.8-0.7c-1.1,1-2.2,2-3.2,3.1l-1-0.7v-3.8c0,0-1.2-1-1.4,0S622,532.3,622,532.3z"/>
		<path id="플랑크톤2" class="st1" d="M587.2,541.2c0,0-5.4-2.7-7.6-2.3s-3.7,1.1-4.7,3.3s-1.8,8.7-2.5,10.1
			c-0.6,1.6-1.3,3.2-2.1,4.7c-0.7,0.9-1.3,2.3-0.9,2.8s2.7-2.6,2.7-2.6c0.7-1.2,1.3-2.5,1.8-3.8c0.3-1.2,0.9-3.3,1.3-4.6
			s1-4.2,1.5-5s-0.1-2,2-2.1c1.7-0.1,3.4,0.3,4.9,1c1.1,0.4,2.3,0.7,3.5,0.9v2.5c-1.8,0.7-3.5,1.7-5.1,2.8c-1.4,1.3-3.8,7.7-3.8,7.7
			s-0.9,2.3-0.6,3.2s1.4,0,1.4,0l2.1-5c0,0,2.6-4,2.9-4.3s2.4-2,2.4-2l0.1,2.8c0,0-2.5,3.7-3.2,5c-0.7,1.8-1.2,3.8-1.4,5.7
			c0.1,0.3,0.7,1.7,0.7,1.7s1.8-2.6,1.8-3.6s0.4-3.4,1-3.8c0.5-0.4,1.1-0.6,1.7-0.9l0.4,3l1.1,3c0,0,2.3,3.7,3.3,5.2
			c0.8,1.6,1.2,3.3,1.3,5v8.6c0,0,1.8-1.4,1.8-1.7s1.3-3.8,1.3-3.8l1.5-0.1c0.6,0.7,1.3,1.4,2,2.1c0.3,0.1,2.1,0.3,2.3-0.1
			c0.3-0.9,0.5-1.7,0.7-2.6c0,0-2.6-2.7-3-3.4s-1.3-2.2-1.3-2.2l0.3-7.9l-1.1-8.3l0.7-1.6c0.7,1,1.3,2,1.8,3c0.9,1.6,2,5.5,2.6,5.9
			c0.6,0.4,1,0.9,1.4,1.5v-3.6c-0.7-1-1.2-2-1.5-3.2c-0.5-1.7-1.4-3.3-2.6-4.6c-0.8-0.6-1.7-1.1-2.7-1.4l-1.4-1v-1.4
			c0,0,2.4-0.2,2.8,0.1c1.2,1.1,2.6,2,4,2.8c1.5,0.9,2.9,2.1,3.9,3.5c0.8,1,1.2,1.6,1.2,1.6v-3c-0.5-1-1.1-2-1.8-2.8
			c-1.2-1.3-2.6-2.5-4-3.5c-1.1-0.5-2.5-0.4-3.3-0.7c-1.2-0.1-2.3-0.2-3.5-0.1c-0.9,0-1-1.3-1-1.3v-2.1c0,0,1-0.6,2.3-1.7
			s1.6-2.2,3.7-2c1.6,0.3,3,1.3,3.7,2.7c0.5,0.9,3.6,4.3,3.9,5.1c0.8,1.3,1.7,2.5,2.8,3.5c0.9,0.7,1.9,1.2,2.9,1.5
			c0.9,0,1.8-0.1,2.7-0.3c-0.1-1-0.9-1.8-1.8-2.1c-1.4-0.4-2.7-1-3.8-1.8c-0.3-0.3-3.7-4.6-4.1-5s-3.2-4.3-3.7-4.9
			c-0.7-0.6-1.7-0.8-2.6-0.8c-1.6,0.3-3,1.1-4.2,2.1c-0.9,1-2,2.9-3.2,3.4c-1.3,0.4-2.6,0.7-4,0.8
			C588.4,541,587.8,541.1,587.2,541.2z"/>
		<path id="플랑크톤3" class="st1" d="M589.3,505.3c0,0-5,2.7-6.2,4.2c-1,1.5-1.7,3.3-2.1,5.1c0.9,2.2,2,4.3,3.4,6.3
			c0.3,0.1,7.5,0,7.5,0s0.3,1.7,1,1.5c0.9-0.4,1.7-1.1,2.2-1.8c0.1-0.3,1.5-0.9,1.5-0.9c-0.1,0.7-0.3,1.4-0.7,2.1
			c-0.6,1.1-1,2.3-1.4,3.5h2.1c0,0,0.9-2.5,1.2-3c0.5-0.5,1-0.9,1.6-1.1v1.8c0,0.7-1.4,2.5-1.5,2.8c-0.2,0.7-0.3,1.4-0.3,2.2
			c0.1,0.3,1,0.4,1.4,0c0.6-0.9,1.1-1.8,1.5-2.8c0.2-0.6,0.9-1,1.5-1c0.7,0.1,0,1.6,0,2.2s-1.2,2.2-1.3,2.6s-0.5,3-0.1,2.2
			s2.3-3.2,2.3-3.2s1.3-0.8,1.2,0.5s-0.3,4.9,0,5.3c0.8,1.3,1.6,2.5,2.5,3.6c0.3,0.1,1.7,2,2.2,1.7s1.4-0.3,1.3-1.3
			s-0.5-1.2-1.6-2.5s-1.6-1.7-1.7-3.5s-0.1-3.9-0.2-6.3c0-1.9-0.1-3.9-0.3-5.8c-0.3-2.5-1-4.8-2.2-6s-2-3.4-3.8-4.6s-3-2.2-4.7-2.6
			c-1.2-0.4-2.5-0.6-3.8-0.8C590.9,505.7,590.1,505.6,589.3,505.3z"/>
		<path id="플랑크톤3-2" class="st1" d="M640.5,483.7c-1.5-0.4-3-0.7-4.6-0.8c-1.1,0.2-2.2,0.7-3.1,1.4
			c-0.5,1.4-0.9,2.8-1.2,4.3c0.1,0.2,3.4,3.2,3.4,3.2s-0.6,0.9-0.2,1.1c0.6,0.2,1.2,0.2,1.8,0.1c0.2-0.1,1.1,0.3,1.1,0.3
			c-0.3,0.3-0.7,0.5-1.2,0.6c-0.7,0.3-1.4,0.6-2.1,1l0.9,0.9c0,0,1.5-0.8,1.8-0.9c0.4,0,0.8,0.1,1.2,0.2l-0.8,0.8
			c-0.3,0.3-1.7,0.5-1.9,0.6c-0.4,0.2-0.8,0.5-1.1,0.8c-0.1,0.2,0.3,0.6,0.6,0.6c0.7-0.1,1.3-0.3,1.9-0.6c0.4-0.2,0.8-0.1,1.1,0.2
			c0.2,0.3-0.7,0.7-0.9,1s-1.5,0.5-1.7,0.6s-1.5,1.1-1,1s2.4-0.5,2.4-0.5s0.9,0.2,0.3,0.8c-0.9,0.7-1.6,1.5-2.3,2.4
			c-0.2,0.9-0.3,1.8-0.4,2.7c0.1,0.2,0,1.6,0.2,1.7s0.8,0.5,1.2,0s0.3-0.8,0.3-1.8c-0.1-0.8,0.2-1.7,0.7-2.3
			c0.7-0.8,1.6-1.8,2.6-2.9c0.8-0.9,1.6-1.8,2.3-2.7c0.9-1,1.4-2.3,1.6-3.6c0-1.1,0.6-2.4,0.3-3.7c-0.2-1.1-0.5-2.2-1-3.2
			c-0.4-0.7-0.9-1.4-1.4-2C641,484.7,640.7,484.2,640.5,483.7z"/>
		<circle id="미세플라스틱" class="st2" cx="622.5" cy="536.4" r="1.4"/>
		<path id="미세_플라스틱2" class="st2" d="M543.9,475.3c-1.3,1.8-0.5,1.4-2.1,3.1s-2.2,2.2-2.2,2.9s-0.1,1.3,1.1,1.3
			s1.4-1,2.2,0s0.2,1.3,1.4,1.4c0.7,0.1,1.5-0.1,2.1-0.5c0.6-0.5,1.1-1,1.6-1.6c0.3-0.6,1.1-0.6,0-2.3s-2.4-3.5-2.4-3.5L543.9,475.3
			z"/>
		<path id="미세_플라스틱2-2" class="st2" d="M520.2,517.2c-1.5,0-0.9,0.3-2.4,0.2s-2-0.3-2.4,0s-0.7,0.5-0.2,1.1
			s1.1,0.3,0.9,1.2s-0.6,0.6-0.2,1.3c0.3,0.4,0.6,0.7,1.1,0.9c0.5,0.1,1,0.2,1.4,0.2c0.5-0.1,0.7,0.3,1.2-0.9s0.9-2.6,0.9-2.6
			L520.2,517.2z"/>
		<path id="미세_플라스틱2-3" class="st2" d="M621.4,510.8c-1.3,0.6-0.8,0.6-2.2,1.1c-1.4,0.5-2,0.5-2.2,0.9s-0.5,0.7,0.2,1.1
			s1.1-0.1,1.2,0.7s-0.3,0.8,0.3,1.2c0.4,0.3,0.9,0.4,1.3,0.4c0.5-0.1,1-0.2,1.4-0.4c0.4-0.2,0.8,0,0.7-1.3s-0.2-2.7-0.2-2.7
			L621.4,510.8z"/>
		<path id="미세_플라스틱3" class="st2" d="M573.6,524.2c-1.5,0.8-3.6,0.7-4.3,2.2s-0.8,2.8-1.1,3.3s-2.1,2.2-2.2,2.7
			s-3.7,2.5-1.1,2.3c2.4-0.3,4.7-0.7,7-1.5c1.4-0.3,4.7-0.5,5-1.5s1.1-3.5,0.8-4.8c-0.4-1.3-0.8-2.6-1.3-3.9L573.6,524.2z"/>
		<path id="미세_플라스틱3-2" class="st2" d="M610.5,479.1c-1.1,0.6-2.7,0.5-3.2,1.6s-0.6,2.1-0.8,2.5s-1.6,1.6-1.6,2
			s-2.8,1.8-0.8,1.7c1.8-0.2,3.5-0.5,5.2-1.1c1-0.3,3.5-0.4,3.7-1.1c0.4-1.1,0.6-2.3,0.6-3.5c-0.3-1-0.6-1.9-1-2.9L610.5,479.1z"/>
		<path id="미세_플라스틱_4" class="st2" d="M565.1,485.9c0.3-0.3-0.5-7.4-0.5-7.4l-10-12.9c0.7-1.2,1.7-2.1,3-2.6
			c1.9-0.6,13.1-5.5,14.2-6s11-6.1,11-6.1s-0.3,1.9,1.8,3.9c2.1,1.9,4.5,3.3,7.2,4.3c1.2,0.3,5.7,0.9,7.1,1.7s6.5,3.7,7,4.6
			s-2.9,3-2.9,3l-16.5,10.2l-14.1,8.5L565.1,485.9z"/>
		<path id="플라스틱" class="st3" d="M646.5,464.6c-1.6-0.5-2.5-1.4-3.2,0s-0.6,2.4-1.8,3.2c-0.9,0.6-1.7,1.4-2.4,2.2
			c-0.7,0.8-1,1.8-0.8,2.9c0.3,1-0.8,3,1.6,2.2s2.5-1.9,4.1-1.4s2.9,2,3.7,1.6s3.3-1.3,3.3-1.3c0.9-0.4,1.7-1,2.4-1.8
			c0.6-1-0.8-1.9,1.4-1.6s3.2,0.8,4.9,1.1s2.9,1.1,3.2-0.3s1-2.7,0.8-4s-0.5-5.4-1-6s-0.3-1.8-1.8-1.6c-2,0.4-4,1.1-5.9,2.1
			c-1.3,0.6-4.9,2.5-4.9,2.5L646.5,464.6z"/>
		<g class="st4">
			<line class="st5" x1="678" y1="502" x2="742.8" y2="502"/>
			<polygon class="st6" points="741.4,507 750,502 741.4,497 			"/>
		</g>
		<g class="st4">
			<line class="st5" x1="966" y1="502" x2="1030.8" y2="502"/>
			<polygon class="st6" points="1029.4,507 1038,502 1029.4,497 			"/>
		</g>
		<g class="st4">
			<line class="st5" x1="1342" y1="502" x2="1406.8" y2="502"/>
			<polygon class="st6" points="1405.4,507 1414,502 1405.4,497 			"/>
		</g>
		<path class="st1" d="M1711.1,561.8c0.4-5.8-7.8-44.1-13-58.4c-3.5-9.2-7.6-18.2-12.2-27c-2.2-11.1-5.9-28.4-11.4-49.9
			c-3.6-14.1-8.8-34.4-17.6-38.9c-2.7-1.4-5.7-2.3-8.8-2.5c-10.5-5.4-26.4-6.3-35.3-12.6l-0.4-0.2L1612,353
			c4.7-4.6,7.6-11.4,9.2-18.8c2.9-2.1,5-7.6,4.8-11.3c-0.2-2.1-1.4-4.1-3.2-5.2c-0.6-17.7-11.6-28.7-25.2-28.7s-24.7,11.1-25.2,28.7
			c-1.9,1.1-3.1,3-3.2,5.2c-0.2,3.6,1.9,9.1,4.8,11.3c1.6,7.5,4.6,14.4,9.4,19l-0.4,18.7l-0.9,0.6c-8.9,6.3-24.9,7.2-35.4,12.6
			c-2.9,0.3-5.8,1.1-8.4,2.4c-8.8,4.5-14,24.8-17.6,38.9c-5.5,21.5-9.2,38.8-11.4,49.9c-4.6,8.8-8.7,17.8-12.2,27
			c-5.2,14.3-13.5,52.6-13,58.4c-0.4,8.3-1.9,32,0,39.4c1.2,4.7,7.7,6.7,10,6.7s0.8-23.9,4.8-26.9s6.1,18.4,8.7,14.3
			c3.2-5.2-3.1-25.9-7.2-36.2c0.8-4.4,2.4-8.6,4.6-12.4c8.7-16.2,17.9-37.6,19.5-44c1-3.7,1.8-8.2,2.6-12.9
			c6.4-13.5,11.9-23.3,19.7-47.1c2.5,14.3,5.3,29.6,7.6,43.5c1.4,8.4,1.2,18.1,0.6,26c-0.9,1.8-1.6,3.8-2.2,5.8
			c-8.4,29.4-9.9,50.6-7.1,84.5c2.4,28.7,5.6,55.7,8,73.3c-2,6.2-4.2,14.7-5.5,30.1c-1.9,21.9,4.6,63,5.1,85c-0.1,0.5-0.2,1-0.2,1.5
			c-0.4,25.7-8.9,28.9-8.7,36.4c0.2,6.9,9.3,8.4,15.4,9.2c7.6,1,12.8-4.3,14-7.9c2.1-6.4,1.5-14.6,0.2-28.7
			c-0.3-2.8-0.8-5.6-1.5-8.4c0.3-19.3,4.8-50.8,6.3-70.9c1.3-17.1-0.1-31.1-1.5-42.8c2.6-16.6,9.1-56.1,10.6-76.8
			c0.7-9,1.4-17.2,1.9-24.8c5.3,0.8,10.7,0.8,16,0c0.5,7.7,1.2,15.8,1.9,24.8c1.6,20.8,8,60.2,10.6,76.8
			c-1.4,11.7-2.8,25.7-1.5,42.8c1.6,20.2,6.1,51.7,6.3,70.9c-0.8,2.7-1.3,5.5-1.5,8.4c-1.3,14.1-2,22.3,0.2,28.7
			c1.2,3.6,6.4,8.8,14,7.9c6.1-0.8,15.3-2.3,15.4-9.2c0.2-7.6-8.3-10.8-8.7-36.4c0-0.5-0.1-1-0.2-1.5c0.4-22,6.9-63.1,5.1-85
			c-1.3-15.4-3.6-24-5.5-30.1c2.4-17.6,5.6-44.6,8-73.3c2.8-33.9,1.2-55.1-7.1-84.5c-0.6-2.3-1.5-4.4-2.6-6.5
			c-0.5-7.8-0.7-17.1,0.6-25.3c2.3-14.2,5.2-29.7,7.7-44.2c8,24.4,13.5,34.2,20,47.9c0.8,4.7,1.6,9.2,2.6,12.9
			c1.7,6.4,10.8,27.8,19.5,44c2.2,3.9,3.8,8.1,4.6,12.4c-4.1,10.4-10.4,31-7.2,36.2c2.6,4.2,4.7-17.2,8.7-14.3s2.5,26.9,4.8,26.9
			s8.8-2,10-6.7C1713,593.8,1711.5,570.1,1711.1,561.8z"/>
		<g class="st4">
			<path class="st7" d="M814.4,506.7c5.3,0.7,10,3.8,12.8,8.4c0.6,1,1.1,1.9,1.7,2.7c2.4,3.8,4.7,6.9,7.4,8.9
				c1.6,1.2,3.4,1.9,5.4,2.1c0.9,0.1,1.8,0.2,2.7,0.4c2.9,0.6,5.7,1.5,8.4,2.6c2.7,1.1,5.2,2.5,7.5,4.2c0.8,0.6,1.7,1.1,2.6,1.5
				c2.9,1.4,6,2.6,9.2,3.5c2.5,0.8,4.4,1.2,4.7,1.3c-3.5-1.2-6.2-12.1-2.3-19.7c1.8-3.9,2.8-8.2,2.9-12.5c2.3,0.7,4.4,2.2,5.8,4.1
				c1.7,2.8,4.9,4.3,8.2,3.7c0,0-4.3-3.2-4.8-10.6s11.3-12.2,11.3-12.2s-10-0.8-17.1,2.8c-1.4,0.8-3,1.2-4.6,1.2
				c-0.4-1.4-1-2.8-1.7-4c-0.8-1.3-1.8-2.6-2.8-4.1c-3.8-5.7-7.6-12.9-2.7-20.4c0.1-0.1,0.1-0.2,0.2-0.3
				c5.4-7.8,44.9-10.8,44.9-10.8c5.2-2.4-8-1.5-8-1.5c-16.2,1.9-29,4.5-39.3,7.6c-3.5,1.1-6.7,2.2-9.6,3.4c-1.9,0.8-3.6,1.5-5.3,2.3
				c-2.3,1.1-4.6,2.3-6.9,3.6c-2.2,1.3-4.4,2.8-6.4,4.4c-2.6,2.1-5,4.5-7,7.2c-1.3,1.8-2.5,3.7-3.3,5.8c-4.5,10.2-11.5,8.5-13.9,10
				S814.4,506.7,814.4,506.7z"/>
			<path class="st7" d="M828.9,517.8c2.4,3.8,4.7,6.9,7.4,8.9c-0.5-5.5-0.3-11,0.6-16.4c1.1-7,3.1-13.9,3.1-21
				c0-3.3-0.4-6.6-1.3-9.9c-2.6,2.1-5,4.5-7,7.2c0.6,5.1,0.4,10.3-0.6,15.4C830.4,507.3,829.3,512.5,828.9,517.8z"/>
			<path class="st7" d="M844.4,529.3c2.9,0.6,5.7,1.5,8.4,2.6c-0.2-2.7-0.4-5.4-0.3-8.1c0.1-4.5,0.5-9,1.1-13.5c0.8-5,1.3-10,1.5-15
				c0.1-8.1-0.9-16.2-3.1-24c-2.3,1.1-4.6,2.3-6.9,3.6c0.6,2.2,1,4.5,1.3,6.8c0.7,7.1,0.1,14.2-0.5,21.3
				C845.1,511.8,844,520.6,844.4,529.3z"/>
			<path class="st7" d="M861.2,502c-0.5,12-2.3,24.4,1.7,35.7c2.9,1.4,6,2.6,9.2,3.5c-0.1-0.5-0.2-1-0.3-1.5
				c-1.5-7.5-2.1-15.2-1.9-22.8c0.3-8.6,1.6-17.1,1.8-25.7c-3.8-5.7-7.6-12.9-2.7-20.4c-0.6-1.7-1.3-3.3-2.1-4.9
				c-3.5,1.1-6.7,2.2-9.6,3.4C860.7,479.6,861.6,490.9,861.2,502z"/>
			<path class="st7" d="M827.7,516.6c2.4,3.8,4.7,6.9,7.4,8.9c-0.5-5.5-0.3-11,0.6-16.4c1.1-7,3.1-13.9,3.1-21
				c0-3.3-0.4-6.6-1.3-9.9c-2.6,2.1-5,4.5-7,7.2c0.6,5.1,0.4,10.3-0.6,15.4C829.1,506.1,828.1,511.3,827.7,516.6z"/>
			<path class="st7" d="M843.2,528c2.9,0.6,5.7,1.5,8.4,2.6c-0.2-2.7-0.4-5.4-0.3-8.1c0.1-4.5,0.5-9,1.1-13.5c0.8-5,1.3-10,1.5-15
				c0.1-8.1-0.9-16.2-3.1-24c-2.3,1.1-4.6,2.3-6.9,3.6c0.6,2.2,1,4.5,1.3,6.8c0.7,7.1,0.1,14.2-0.5,21.3
				C843.9,510.6,842.8,519.4,843.2,528z"/>
			<path class="st7" d="M860,500.8c-0.5,12-2.3,24.4,1.7,35.7c2.9,1.4,6,2.6,9.2,3.5c-0.1-0.5-0.2-1-0.3-1.5
				c-1.5-7.5-2.1-15.2-1.9-22.8c0.3-8.6,1.6-17.1,1.8-25.7c-3.8-5.7-7.6-12.9-2.7-20.4c-0.6-1.7-1.3-3.3-2.1-4.9
				c-3.5,1.1-6.7,2.2-9.6,3.4C859.5,478.4,860.4,489.7,860,500.8z"/>
			<circle class="st7" cx="834.1" cy="494.3" r="2.6"/>
			<path class="st7" d="M851.9,488.2c0.9-0.5,2.3-0.8,2.7,0.2c0.1,0.3,0.1,0.7-0.1,1c-0.6,2-2.2,3.5-3.5,5.1s-2.3,3.8-1.5,5.8
				c0.4,0.8,0.9,1.6,1.5,2.4c0.5,0.8,0.6,1.8,0.2,2.6c-0.4,0.7-1.3,0.9-1.9,1.4c-1.1,1-1.7,2.4-1.6,3.8c0,1.4,0.3,2.9,0.4,4.3
				c0,0.9-0.3,2-1.2,1.9c-0.4-0.1-0.7-0.3-0.9-0.6c-3.6-4.1-5.9-10.5-4.9-16.1C842.1,495.1,847.7,490.5,851.9,488.2z"/>
			<path class="st7" d="M853.8,488.2c0.9-0.5,2.3-0.8,2.7,0.2c0.1,0.3,0.1,0.7-0.1,1c-0.6,2-2.2,3.5-3.5,5.1s-2.3,3.8-1.5,5.8
				c0.4,0.8,0.9,1.6,1.5,2.4c0.6,0.8,0.6,1.8,0.2,2.6c-0.4,0.7-1.3,0.9-1.9,1.4c-1.1,0.9-1.7,2.4-1.6,3.8c0,1.4,0.4,2.9,0.5,4.3
				c0,0.9-0.3,2-1.2,1.9c-0.4-0.1-0.7-0.3-0.9-0.6c-3.6-4.1-5.9-10.5-4.9-16.1C844,495.1,849.6,490.5,853.8,488.2z"/>
			<ellipse class="st7" cx="833.1" cy="494.1" rx="2" ry="2.8"/>
			<g id="미세_플라스틱_그룹">
				<circle id="미세플라스틱-2" class="st7" cx="849.6" cy="499" r="1.8"/>
				<circle id="미세플라스틱-3" class="st7" cx="851.8" cy="495.6" r="1.8"/>
				<circle id="미세플라스틱-4" class="st7" cx="848.3" cy="492.3" r="1.8"/>
				<circle id="미세플라스틱-5" class="st7" cx="850.4" cy="490.9" r="1.8"/>
				<circle id="미세플라스틱-6" class="st7" cx="853.6" cy="500" r="1.8"/>
				<circle id="미세플라스틱-7" class="st7" cx="846.6" cy="496.8" r="1.8"/>
				<circle id="미세플라스틱-8" class="st7" cx="844.8" cy="494.2" r="1.8"/>
				<circle id="미세플라스틱-9" class="st7" cx="856" cy="496.8" r="1.8"/>
				<circle id="미세플라스틱-10" class="st7" cx="853.1" cy="492.3" r="1.8"/>
				<circle id="미세플라스틱-11" class="st7" cx="855.6" cy="490.9" r="1.8"/>
				<circle id="미세플라스틱-12" class="st7" cx="858.8" cy="499.2" r="1.8"/>
				<circle id="미세플라스틱-13" class="st7" cx="860.6" cy="495.6" r="1.8"/>
				<circle id="미세플라스틱-14" class="st7" cx="864.1" cy="499" r="1.8"/>
				<circle id="미세플라스틱-15" class="st7" cx="857.8" cy="493.5" r="1.8"/>
				<circle id="미세플라스틱-16" class="st7" cx="861.3" cy="506" r="1.8"/>
				<circle id="미세플라스틱-17" class="st7" cx="864.1" cy="503.6" r="1.8"/>
				<path id="미세플라스틱-18" class="st7" d="M860.1,508.8c1,0,1.8,0.8,1.8,1.8s-0.8,1.8-1.8,1.8s-1.8-0.8-1.8-1.8
					S859.1,508.8,860.1,508.8z"/>
				<circle id="미세플라스틱-19" class="st7" cx="857.8" cy="512.8" r="1.8"/>
				<circle id="미세플라스틱-20" class="st7" cx="864.1" cy="508.8" r="1.8"/>
				<circle id="미세플라스틱-21" class="st7" cx="857.8" cy="503.2" r="1.8"/>
				<circle id="미세플라스틱-22" class="st7" cx="861.3" cy="501.8" r="1.8"/>
				<circle id="미세플라스틱-23" class="st7" cx="856.5" cy="508.2" r="1.8"/>
				<circle id="미세플라스틱-24" class="st7" cx="854.5" cy="512" r="1.8"/>
				<circle id="미세플라스틱-25" class="st7" cx="849.2" cy="512" r="1.8"/>
				<circle id="미세플라스틱-26" class="st7" cx="852.1" cy="513.5" r="1.8"/>
				<circle id="미세플라스틱-27" class="st7" cx="854.6" cy="504.9" r="1.8"/>
				<circle id="미세플라스틱-28" class="st7" cx="851.8" cy="508.8" r="1.8"/>
				<circle id="미세플라스틱-29" class="st7" cx="846.5" cy="508.8" r="1.8"/>
				<circle id="미세플라스틱-30" class="st7" cx="844.4" cy="506.9" r="1.8"/>
				<circle id="미세플라스틱-31" class="st7" cx="851.4" cy="503.2" r="1.8"/>
				<circle id="미세플라스틱-32" class="st7" cx="849.2" cy="505.5" r="1.8"/>
				<circle id="미세플라스틱-33" class="st7" cx="844" cy="504.2" r="1.8"/>
				<circle id="미세플라스틱-34" class="st7" cx="847.4" cy="501.8" r="1.8"/>
				<circle id="미세플라스틱-35" class="st7" cx="843.6" cy="499.2" r="1.8"/>
				<circle id="미세플라스틱-36" class="st7" cx="844.8" cy="500.5" r="1.8"/>
			</g>
		</g>
		<g class="st4">
			<polygon class="st7" points="-1072.5,567 -1046.1,560.7 -1024.5,560.8 -1004.5,569.1 -1004.1,520.7 -992.2,461.4 -920.8,381.8 
				-839.6,326 -778.7,311.3 -693.6,304.9 -590.2,316.2 -555.1,348.9 -570.6,363.9 -612.5,374 -696.3,394.1 -811.6,442.1 -885.1,488 
				-903.8,514.2 -942.1,535.6 -976.1,578.4 -952.4,635.1 -942.1,669.6 -959.7,704.6 -976.1,711.5 -967.7,689.3 -972.4,663.8 
				-994.7,642.7 -1003.3,616 -1005.7,600.8 -1027.1,600.6 -1049.5,581.9 -1067.5,579.1 -1081.4,585.3 -1085.4,580.8 			"/>
			<path class="st7" d="M-740.4,450.4l121.5-26.6l28.8-8.6l-18.1,14.5l-60.6,19.4l-80.4,10.8c-0.1,0-0.3,0.1-0.4,0.1l-41.4,18.6
				l-13.7,0.4l-8.7,2.3l8.8-6.8L-740.4,450.4z"/>
			<path class="st7" d="M-668.3,452.1h0.3l53.3-17.1l-7.9,6.3l-39.9,17.7l-46.3,7l-40.5,5.6c-0.2,0-0.4,0.1-0.5,0.2l-11.1,6
				l-22.3,0.7l34.6-15.5L-668.3,452.1z"/>
			<path class="st7" d="M-759.2,441.1l156.4-34.6h0.2l42.2-15.1l-23.6,18.9l-35.7,10.6l-121.5,26.6h-0.2l-64.7,24.4
				c-0.1,0.1-0.3,0.1-0.4,0.2l-14.5,11.3l-25.9,7l16.8-13.1L-759.2,441.1z"/>
			<path class="st7" d="M-770.8,438.3l88.5-31l100.2-21.9c0.1,0,0.2-0.1,0.4-0.1l23-11.7L-560,388l-43.6,15.6l-156.3,34.6
				c-0.1,0-0.2,0.1-0.4,0.1l-71.3,36.3l-0.2,0.2l-22.5,17.5l-10.6,2.8l18.3-18L-770.8,438.3z"/>
			<polygon class="st7" points="-708.4,468.8 -672.9,463.5 -700.9,475.9 -754.3,477.5 -748.7,474.5 			"/>
			<path class="st7" d="M-908.2,513.6l18.7-26.2l73.5-45.9l115.4-47.8l83.7-20.2l41.9-10.1l15.6-15l2.7,2.5l-1.7,19.3l-24.5,12.3
				L-683,404.4h-0.2l-88.7,31.1l-0.2,0.1l-76,39c-0.1,0.1-0.3,0.2-0.4,0.3l-22.2,21.8l-13.7,3.6L-908.2,513.6z"/>
			<polyline class="st7" points="-657.2,372.5 -706.3,416.1 -725.2,459.9 -753.4,513.5 -804.9,570 -860.1,593.2 -883.2,597.8 
				-885.9,584.4 -844.5,562 -817.7,526.6 -808.2,484.7 -801.5,429.4 			"/>
			<path class="st7" d="M-636.1,366.5c-0.6,0.8-1.6,1.5-2.4,1c-0.3-0.2-0.5-0.5-0.6-0.7c-1.1-2-3.5-10.7,1.1-10.2
				C-633.8,357.1-634.4,364.1-636.1,366.5z"/>
			
				<ellipse transform="matrix(0.9753 -0.2209 0.2209 0.9753 -95.3664 -131.5843)" class="st7" cx="-636.1" cy="360.7" rx="2.9" ry="4.9"/>
		</g>
		<path class="st1" d="M638.3,859.8l-5.6-9l-1.6-8l1.8-2.6l6.4-27.1l-5.7-37.7l-22-26.3l-14.7-7.8l2.5-3.2l6.3-1.8l13.5,2.8l13,9.6
			l6.7-2.6l-12-18.1l-15.8-9.8l-13.6,9.5l-5.5,11l-7.7-4.1l-15.7-0.8l-3.4-4.7c0,0-3.4-7.6-6.6-9.8s-11.8-5.4-13.4,0.1
			s1.2,10.9,1.6,14.5c0.2,2.2,1.1,6.2,1.8,9.2l-4.9,4.6l-7.8,11.6l-9-5.9l-14.2,2.9l-14.7,13.8l-1.3,21.7l7.1-1.1l6.3-14.8l14-10.9
			l6.3-1.6l2.2,0.9l-4.1,6.1l-2.5,24.3l11,34.1l18.1,19.4l5.5,2.6l2.8,14l-1.7,10.4l-2.6,4.9l3.9,1.1l8.9-5.3l3.2-9.4l1.6-7.6
			c0,0-1.3-0.8-3.2-2.1l13.2,6.2l17.2,5.7l12.2-4.8l5.7-8.1l0.7,1l6.6,7.4l10.2,1.5l3.1-2.5L638.3,859.8z"/>
		<g id="미세_플라스틱_그룹-2">
			<circle id="미세플라스틱-37" class="st8" cx="1186.2" cy="482.8" r="2.1"/>
			<circle id="미세플라스틱-38" class="st8" cx="1188.7" cy="478.9" r="2.1"/>
			<circle id="미세플라스틱-39" class="st8" cx="1184.7" cy="475" r="2.1"/>
			<circle id="미세플라스틱-40" class="st8" cx="1187.1" cy="473.5" r="2.1"/>
			<circle id="미세플라스틱-41" class="st8" cx="1190.8" cy="483.9" r="2.1"/>
			<circle id="미세플라스틱-42" class="st8" cx="1182.8" cy="480.2" r="2.1"/>
			<circle id="미세플라스틱-43" class="st8" cx="1180.8" cy="477.3" r="2.1"/>
			<circle id="미세플라스틱-44" class="st8" cx="1193.5" cy="480.2" r="2.1"/>
			<circle id="미세플라스틱-45" class="st8" cx="1190.2" cy="475" r="2.1"/>
			<circle id="미세플라스틱-46" class="st8" cx="1193.1" cy="473.5" r="2.1"/>
			<circle id="미세플라스틱-47" class="st8" cx="1196.7" cy="483" r="2.1"/>
			<circle id="미세플라스틱-48" class="st8" cx="1198.8" cy="478.9" r="2.1"/>
			<circle id="미세플라스틱-49" class="st8" cx="1202.7" cy="482.8" r="2.1"/>
			<circle id="미세플라스틱-50" class="st8" cx="1195.6" cy="476.5" r="2.1"/>
			<circle id="미세플라스틱-51" class="st8" cx="1199.6" cy="490.8" r="2.1"/>
			<circle id="미세플라스틱-52" class="st8" cx="1202.7" cy="488" r="2.1"/>
			<circle id="미세플라스틱-53" class="st8" cx="1198.2" cy="496" r="2.1"/>
			<circle id="미세플라스틱-54" class="st8" cx="1195.6" cy="498.5" r="2.1"/>
			<circle id="미세플라스틱-55" class="st8" cx="1202.7" cy="493.9" r="2.1"/>
			<circle id="미세플라스틱-56" class="st8" cx="1195.6" cy="487.5" r="2.1"/>
			<circle id="미세플라스틱-57" class="st8" cx="1199.6" cy="485.9" r="2.1"/>
			<circle id="미세플라스틱-58" class="st8" cx="1194" cy="493.3" r="2.1"/>
			<circle id="미세플라스틱-59" class="st8" cx="1191.8" cy="497.6" r="2.1"/>
			<circle id="미세플라스틱-60" class="st8" cx="1185.7" cy="497.6" r="2.1"/>
			<circle id="미세플라스틱-61" class="st8" cx="1189.1" cy="499.3" r="2.1"/>
			<circle id="미세플라스틱-62" class="st8" cx="1192" cy="489.4" r="2.1"/>
			<circle id="미세플라스틱-63" class="st8" cx="1188.7" cy="493.9" r="2.1"/>
			<circle id="미세플라스틱-64" class="st8" cx="1182.6" cy="493.9" r="2.1"/>
			<circle id="미세플라스틱-65" class="st8" cx="1180.3" cy="491.8" r="2.1"/>
			<circle id="미세플라스틱-66" class="st8" cx="1188.3" cy="487.5" r="2.1"/>
			<circle id="미세플라스틱-67" class="st8" cx="1185.7" cy="490.2" r="2.1"/>
			<circle id="미세플라스틱-68" class="st8" cx="1179.8" cy="488.7" r="2.1"/>
			<circle id="미세플라스틱-69" class="st8" cx="1183.7" cy="485.9" r="2.1"/>
			<circle id="미세플라스틱-70" class="st8" cx="1179.4" cy="483" r="2.1"/>
			<circle id="미세플라스틱-71" class="st8" cx="1180.8" cy="484.5" r="2.1"/>
		</g>
		<g id="미세_플라스틱_그룹-3">
			<circle id="미세플라스틱-72" class="st8" cx="1171.7" cy="498.2" r="2.1"/>
			<circle id="미세플라스틱-73" class="st8" cx="1174.1" cy="494.3" r="2.1"/>
			<circle id="미세플라스틱-74" class="st8" cx="1170.1" cy="490.4" r="2.1"/>
			<circle id="미세플라스틱-75" class="st8" cx="1172.6" cy="488.9" r="2.1"/>
			<circle id="미세플라스틱-76" class="st8" cx="1176.2" cy="499.3" r="2.1"/>
			<circle id="미세플라스틱-77" class="st8" cx="1168.2" cy="495.6" r="2.1"/>
			<circle id="미세플라스틱-78" class="st8" cx="1166.2" cy="492.7" r="2.1"/>
			<circle id="미세플라스틱-79" class="st8" cx="1179" cy="495.6" r="2.1"/>
			<circle id="미세플라스틱-80" class="st8" cx="1175.6" cy="490.4" r="2.1"/>
			<circle id="미세플라스틱-81" class="st8" cx="1178.5" cy="488.9" r="2.1"/>
			<circle id="미세플라스틱-82" class="st8" cx="1182.1" cy="498.4" r="2.1"/>
			<circle id="미세플라스틱-83" class="st8" cx="1184.2" cy="494.3" r="2.1"/>
			<circle id="미세플라스틱-84" class="st8" cx="1188.2" cy="498.2" r="2.1"/>
			<circle id="미세플라스틱-85" class="st8" cx="1181" cy="491.9" r="2.1"/>
			<circle id="미세플라스틱-86" class="st8" cx="1185" cy="506.2" r="2.1"/>
			<circle id="미세플라스틱-87" class="st8" cx="1188.2" cy="503.4" r="2.1"/>
			<circle id="미세플라스틱-88" class="st8" cx="1183.6" cy="511.4" r="2.1"/>
			<circle id="미세플라스틱-89" class="st8" cx="1181" cy="513.9" r="2.1"/>
			<circle id="미세플라스틱-90" class="st8" cx="1188.2" cy="509.3" r="2.1"/>
			<circle id="미세플라스틱-91" class="st8" cx="1181" cy="503" r="2.1"/>
			<circle id="미세플라스틱-92" class="st8" cx="1185" cy="501.3" r="2.1"/>
			<circle id="미세플라스틱-93" class="st8" cx="1179.5" cy="508.7" r="2.1"/>
			<circle id="미세플라스틱-94" class="st8" cx="1177.3" cy="513" r="2.1"/>
			<circle id="미세플라스틱-95" class="st8" cx="1171.2" cy="513" r="2.1"/>
			<circle id="미세플라스틱-96" class="st8" cx="1174.5" cy="514.7" r="2.1"/>
			<circle id="미세플라스틱-97" class="st8" cx="1177.4" cy="504.8" r="2.1"/>
			<circle id="미세플라스틱-98" class="st8" cx="1174.1" cy="509.3" r="2.1"/>
			<circle id="미세플라스틱-99" class="st8" cx="1168" cy="509.3" r="2.1"/>
			<circle id="미세플라스틱-100" class="st8" cx="1165.7" cy="507.2" r="2.1"/>
			<circle id="미세플라스틱-101" class="st8" cx="1173.7" cy="503" r="2.1"/>
			<circle id="미세플라스틱-102" class="st8" cx="1171.2" cy="505.6" r="2.1"/>
			<circle id="미세플라스틱-103" class="st8" cx="1165.2" cy="504.1" r="2.1"/>
			<circle id="미세플라스틱-104" class="st8" cx="1169.1" cy="501.3" r="2.1"/>
			<circle id="미세플라스틱-105" class="st8" cx="1164.8" cy="498.4" r="2.1"/>
			<circle id="미세플라스틱-106" class="st8" cx="1166.2" cy="499.9" r="2.1"/>
		</g>
		<g id="미세_플라스틱_그룹-4">
			<circle id="미세플라스틱-107" class="st8" cx="1166.5" cy="479" r="2.1"/>
			<circle id="미세플라스틱-108" class="st8" cx="1169" cy="475.1" r="2.1"/>
			<circle id="미세플라스틱-109" class="st8" cx="1165" cy="471.3" r="2.1"/>
			<circle id="미세플라스틱-110" class="st8" cx="1167.4" cy="469.7" r="2.1"/>
			<circle id="미세플라스틱-111" class="st8" cx="1171.1" cy="480.1" r="2.1"/>
			<circle id="미세플라스틱-112" class="st8" cx="1163.1" cy="476.4" r="2.1"/>
			<circle id="미세플라스틱-113" class="st8" cx="1161.1" cy="473.5" r="2.1"/>
			<circle id="미세플라스틱-114" class="st8" cx="1173.8" cy="476.4" r="2.1"/>
			<circle id="미세플라스틱-115" class="st8" cx="1170.5" cy="471.3" r="2.1"/>
			<circle id="미세플라스틱-116" class="st8" cx="1173.3" cy="469.7" r="2.1"/>
			<circle id="미세플라스틱-117" class="st8" cx="1177" cy="479.2" r="2.1"/>
			<circle id="미세플라스틱-118" class="st8" cx="1179.1" cy="475.1" r="2.1"/>
			<circle id="미세플라스틱-119" class="st8" cx="1183" cy="479" r="2.1"/>
			<circle id="미세플라스틱-120" class="st8" cx="1175.9" cy="472.7" r="2.1"/>
			<circle id="미세플라스틱-121" class="st8" cx="1179.8" cy="487" r="2.1"/>
			<circle id="미세플라스틱-122" class="st8" cx="1183" cy="484.2" r="2.1"/>
			<circle id="미세플라스틱-123" class="st8" cx="1178.5" cy="492.2" r="2.1"/>
			<circle id="미세플라스틱-124" class="st8" cx="1175.9" cy="494.7" r="2.1"/>
			<circle id="미세플라스틱-125" class="st8" cx="1183" cy="490.1" r="2.1"/>
			<circle id="미세플라스틱-126" class="st8" cx="1175.9" cy="483.8" r="2.1"/>
			<circle id="미세플라스틱-127" class="st8" cx="1179.8" cy="482.2" r="2.1"/>
			<circle id="미세플라스틱-128" class="st8" cx="1174.3" cy="489.5" r="2.1"/>
			<circle id="미세플라스틱-129" class="st8" cx="1172.1" cy="493.8" r="2.1"/>
			<circle id="미세플라스틱-130" class="st8" cx="1166" cy="493.8" r="2.1"/>
			<circle id="미세플라스틱-131" class="st8" cx="1169.4" cy="495.5" r="2.1"/>
			<circle id="미세플라스틱-132" class="st8" cx="1172.3" cy="485.6" r="2.1"/>
			<circle id="미세플라스틱-133" class="st8" cx="1169" cy="490.1" r="2.1"/>
			<circle id="미세플라스틱-134" class="st8" cx="1162.9" cy="490.1" r="2.1"/>
			<circle id="미세플라스틱-135" class="st8" cx="1160.6" cy="488" r="2.1"/>
			<circle id="미세플라스틱-136" class="st8" cx="1168.6" cy="483.8" r="2.1"/>
			<circle id="미세플라스틱-137" class="st8" cx="1166" cy="486.4" r="2.1"/>
			<circle id="미세플라스틱-138" class="st8" cx="1160.1" cy="484.9" r="2.1"/>
			<circle id="미세플라스틱-139" class="st8" cx="1164" cy="482.2" r="2.1"/>
			<circle id="미세플라스틱-140" class="st8" cx="1159.7" cy="479.2" r="2.1"/>
			<circle id="미세플라스틱-141" class="st8" cx="1161.1" cy="480.7" r="2.1"/>
		</g>
		<g id="미세_플라스틱_그룹-5">
			<circle id="미세플라스틱-142" class="st8" cx="849.7" cy="499.2" r="2.1"/>
			<circle id="미세플라스틱-143" class="st8" cx="852.1" cy="495.3" r="2.1"/>
			<circle id="미세플라스틱-144" class="st8" cx="848.1" cy="491.4" r="2.1"/>
			<circle id="미세플라스틱-145" class="st8" cx="850.5" cy="489.9" r="2.1"/>
			<circle id="미세플라스틱-146" class="st8" cx="854.2" cy="500.3" r="2.1"/>
			<circle id="미세플라스틱-147" class="st8" cx="846.2" cy="496.6" r="2.1"/>
			<circle id="미세플라스틱-148" class="st8" cx="844.2" cy="493.7" r="2.1"/>
			<circle id="미세플라스틱-149" class="st8" cx="857" cy="496.6" r="2.1"/>
			<circle id="미세플라스틱-150" class="st8" cx="853.6" cy="491.4" r="2.1"/>
			<circle id="미세플라스틱-151" class="st8" cx="856.5" cy="489.9" r="2.1"/>
			<circle id="미세플라스틱-152" class="st8" cx="860.1" cy="499.4" r="2.1"/>
			<circle id="미세플라스틱-153" class="st8" cx="862.2" cy="495.3" r="2.1"/>
			<circle id="미세플라스틱-154" class="st8" cx="866.2" cy="499.2" r="2.1"/>
			<circle id="미세플라스틱-155" class="st8" cx="859" cy="492.9" r="2.1"/>
			<circle id="미세플라스틱-156" class="st8" cx="863" cy="507.2" r="2.1"/>
			<circle id="미세플라스틱-157" class="st8" cx="866.2" cy="504.4" r="2.1"/>
			<circle id="미세플라스틱-158" class="st8" cx="861.6" cy="512.4" r="2.1"/>
			<circle id="미세플라스틱-159" class="st8" cx="859" cy="514.9" r="2.1"/>
			<circle id="미세플라스틱-160" class="st8" cx="866.2" cy="510.3" r="2.1"/>
			<circle id="미세플라스틱-161" class="st8" cx="859" cy="504" r="2.1"/>
			<circle id="미세플라스틱-162" class="st8" cx="863" cy="502.3" r="2.1"/>
			<circle id="미세플라스틱-163" class="st8" cx="857.5" cy="509.7" r="2.1"/>
			<circle id="미세플라스틱-164" class="st8" cx="855.3" cy="514" r="2.1"/>
			<circle id="미세플라스틱-165" class="st8" cx="849.2" cy="514" r="2.1"/>
			<circle id="미세플라스틱-166" class="st8" cx="852.5" cy="515.7" r="2.1"/>
			<circle id="미세플라스틱-167" class="st8" cx="855.4" cy="505.8" r="2.1"/>
			<circle id="미세플라스틱-168" class="st8" cx="852.1" cy="510.3" r="2.1"/>
			<circle id="미세플라스틱-169" class="st8" cx="846" cy="510.3" r="2.1"/>
			<circle id="미세플라스틱-170" class="st8" cx="843.7" cy="508.2" r="2.1"/>
			<circle id="미세플라스틱-171" class="st8" cx="851.7" cy="504" r="2.1"/>
			<circle id="미세플라스틱-172" class="st8" cx="849.2" cy="506.6" r="2.1"/>
			<circle id="미세플라스틱-173" class="st8" cx="843.2" cy="505.1" r="2.1"/>
			<circle id="미세플라스틱-174" class="st8" cx="847.1" cy="502.3" r="2.1"/>
			<circle id="미세플라스틱-175" class="st8" cx="842.8" cy="499.4" r="2.1"/>
			<circle id="미세플라스틱-176" class="st8" cx="844.2" cy="500.9" r="2.1"/>
		</g>
		<g id="미세_플라스틱_그룹-6">
			<circle id="미세플라스틱-177" class="st8" cx="1588.6" cy="470.1" r="3.8"/>
			<circle id="미세플라스틱-178" class="st8" cx="1593.1" cy="463" r="3.8"/>
			<circle id="미세플라스틱-179" class="st8" cx="1585.8" cy="456" r="3.8"/>
			<circle id="미세플라스틱-180" class="st8" cx="1590.2" cy="453.2" r="3.8"/>
			<circle id="미세플라스틱-181" class="st8" cx="1596.9" cy="472.1" r="3.8"/>
			<circle id="미세플라스틱-182" class="st8" cx="1582.4" cy="465.4" r="3.8"/>
			<circle id="미세플라스틱-183" class="st8" cx="1578.6" cy="460.1" r="3.8"/>
			<circle id="미세플라스틱-184" class="st8" cx="1601.9" cy="465.4" r="3.8"/>
			<circle id="미세플라스틱-185" class="st8" cx="1595.8" cy="456" r="3.8"/>
			<circle id="미세플라스틱-186" class="st8" cx="1601.1" cy="453.2" r="3.8"/>
			<circle id="미세플라스틱-187" class="st8" cx="1607.7" cy="470.5" r="3.8"/>
			<circle id="미세플라스틱-188" class="st8" cx="1611.6" cy="463" r="3.8"/>
			<circle id="미세플라스틱-189" class="st8" cx="1618.7" cy="470.1" r="3.8"/>
			<circle id="미세플라스틱-190" class="st8" cx="1605.7" cy="458.6" r="3.8"/>
			<circle id="미세플라스틱-191" class="st8" cx="1612.9" cy="484.7" r="3.8"/>
			<circle id="미세플라스틱-192" class="st8" cx="1618.7" cy="479.6" r="3.8"/>
			<circle id="미세플라스틱-193" class="st8" cx="1610.4" cy="494.1" r="3.8"/>
			<circle id="미세플라스틱-194" class="st8" cx="1605.7" cy="498.8" r="3.8"/>
			<circle id="미세플라스틱-195" class="st8" cx="1618.7" cy="490.4" r="3.8"/>
			<circle id="미세플라스틱-196" class="st8" cx="1605.7" cy="478.8" r="3.8"/>
			<circle id="미세플라스틱-197" class="st8" cx="1612.9" cy="475.9" r="3.8"/>
			<circle id="미세플라스틱-198" class="st8" cx="1602.8" cy="489.3" r="3.8"/>
			<circle id="미세플라스틱-199" class="st8" cx="1598.8" cy="497.1" r="3.8"/>
			<circle id="미세플라스틱-200" class="st8" cx="1587.7" cy="497.1" r="3.8"/>
			<circle id="미세플라스틱-201" class="st8" cx="1593.8" cy="500.2" r="3.8"/>
			<circle id="미세플라스틱-202" class="st8" cx="1599.1" cy="482.2" r="3.8"/>
			<circle id="미세플라스틱-203" class="st8" cx="1593.1" cy="490.4" r="3.8"/>
			<circle id="미세플라스틱-204" class="st8" cx="1582" cy="490.4" r="3.8"/>
			<circle id="미세플라스틱-205" class="st8" cx="1577.8" cy="486.6" r="3.8"/>
			<circle id="미세플라스틱-206" class="st8" cx="1592.4" cy="478.8" r="3.8"/>
			<circle id="미세플라스틱-207" class="st8" cx="1587.7" cy="483.6" r="3.8"/>
			<circle id="미세플라스틱-208" class="st8" cx="1576.9" cy="481" r="3.8"/>
			<circle id="미세플라스틱-209" class="st8" cx="1583.9" cy="475.9" r="3.8"/>
			<circle id="미세플라스틱-210" class="st8" cx="1576.1" cy="470.5" r="3.8"/>
			<circle id="미세플라스틱-211" class="st8" cx="1578.6" cy="473.2" r="3.8"/>
		</g>
		<circle id="미세플라스틱-212" class="st8" cx="546.2" cy="514.5" r="2.1"/>
		<circle id="미세플라스틱-213" class="st8" cx="591.7" cy="550.1" r="2.1"/>
		<circle id="미세플라스틱-214" class="st8" cx="591.7" cy="557.2" r="2.1"/>
		<circle id="미세플라스틱-215" class="st8" cx="591.7" cy="513.8" r="2.1"/>
		<circle id="미세플라스틱-216" class="st8" cx="640.4" cy="491.7" r="2.1"/>
		<line class="st9" x1="78" y1="972" x2="674" y2="972"/>
		<line class="st9" x1="802" y1="972" x2="1712" y2="972"/>
	</g>
</g>
</svg>
