<svg xmlns="http://www.w3.org/2000/svg" viewBox="0 0 1408.53 1080"><defs><style>.cls-1{opacity:0.3;}.cls-2{fill:#f0f0f0;}</style></defs><title>Asset 1</title><g id="Layer_2" data-name="Layer 2"><g id="Layer_1-2" data-name="Layer 1"><g class="cls-1"><polygon class="cls-2" points="34.16 696.19 104.31 679.3 161.72 679.78 214.76 701.72 215.84 573.08 247.5 415.69 437.22 204.18 652.91 55.95 814.67 16.97 1040.57 0 1315.28 30.09 1408.53 116.8 1367.15 156.68 1255.93 183.48 1033.51 237.03 727.18 364.34 531.93 486.25 482.18 555.85 380.52 612.77 290.22 726.32 353.24 876.94 380.67 968.58 333.73 1061.5 290.3 1080 312.53 1020.87 300.05 953.34 240.77 897.09 218.01 826.33 211.62 785.82 154.7 785.33 95.19 735.85 47.62 728.26 10.69 744.74 0 732.67 34.16 696.19"/><path class="cls-2" d="M916.18,386.35l322.67-70.57,76.39-22.72-48.06,38.46-160.94,51.62-213.6,28.7a3.84,3.84,0,0,0-1.09.34l-110,49.33L745,462.63l-23.1,6.17,23.25-18Z"/><path class="cls-2" d="M1107.66,391h.67l141.5-45.41-20.89,16.74-106,46.91-122.89,18.68L892.52,442.82a3.32,3.32,0,0,0-1.34.41l-29.56,16L802.3,461.1,894.24,420Z"/><path class="cls-2" d="M866.47,361.68l415.36-91.79h.45l112.12-40.07-62.79,50.12-94.78,28.18L914.17,378.69h-.57L741.68,443.42a3.34,3.34,0,0,0-1,.6l-38.57,29.9L633.4,492.5,678,457.77Z"/><path class="cls-2" d="M835.45,354.21,1070.58,272l266.26-58.16a3.19,3.19,0,0,0,.94-.33l61.11-31-3.37,38.38-115.86,41.38-415.24,92a5.24,5.24,0,0,0-.94.33L674.22,450.9l-.64.41-59.8,46.42-28,7.47,48.59-47.69Z"/><polygon class="cls-2" points="1001.25 435.42 1095.51 421.18 1021.13 454.11 879.26 458.48 894.32 450.34 1001.25 435.42"/><path class="cls-2" d="M470.63,554.28l49.71-69.6L715.63,362.73l306.48-127.08,222.42-53.59,111.23-26.76,41.37-39.88,7.25,6.76-4.45,51.2-65.1,32.78-266,58.08h-.45L832.87,346.73l-.48.23L630.56,450.64a3,3,0,0,0-1,.71l-59,57.85-36.29,9.68Z"/><polyline class="cls-2" points="1137.18 179.48 1006.82 295.3 956.7 411.62 881.84 554.16 744.97 704 598.27 765.63 537.12 778.08 529.87 742.39 639.83 682.92 710.96 588.89 736.11 477.66 754.01 330.74"/><path class="cls-2" d="M1193.32,163.59c-1.49,2.13-4.33,4.11-6.5,2.73a5.63,5.63,0,0,1-1.61-2c-3-5.2-9.3-28.52,2.88-27.1C1199.41,138.59,1197.84,157.2,1193.32,163.59Z"/><ellipse class="cls-2" cx="1193.33" cy="148.1" rx="7.7" ry="13.01" transform="translate(-3.24 267.23) rotate(-12.76)"/></g></g></g></svg>