<svg xmlns="http://www.w3.org/2000/svg" viewBox="0 0 1698.52 794.79"><defs><style>.cls-1,.cls-10,.cls-11,.cls-4,.cls-5,.cls-7,.cls-8,.cls-9{isolation:isolate;}.cls-1{font-size:20px;}.cls-1,.cls-10,.cls-11,.cls-4{fill:#051027;}.cls-1,.cls-10,.cls-13,.cls-21,.cls-4,.cls-5{font-family:ProximaNova-Regular, Proxima Nova;}.cls-2,.cls-7,.cls-8,.cls-9{fill:#00cbe1;}.cls-3,.cls-5{fill:#ee4324;}.cls-4,.cls-5,.cls-7,.cls-8,.cls-9{font-size:24px;}.cls-6{fill:none;stroke:#fff;stroke-miterlimit:10;}.cls-7,.cls-8,.cls-9{font-family:ProximaNova-Medium, Proxima Nova;font-weight:500;}.cls-8{letter-spacing:-0.04em;}.cls-9{letter-spacing:-0.08em;}.cls-10{font-size:24.4px;}.cls-11{font-size:30px;font-family:ProximaNova-Light, Proxima Nova;font-weight:300;}.cls-12{fill:#fff;}.cls-13,.cls-21{font-size:35px;}.cls-13{letter-spacing:-0.02em;}.cls-14{letter-spacing:-0.06em;}.cls-15{letter-spacing:0.01em;}.cls-16{letter-spacing:-0.01em;}.cls-17{letter-spacing:0em;}.cls-18,.cls-21{letter-spacing:0em;}.cls-19{letter-spacing:-0.04em;}.cls-20{letter-spacing:0em;}.cls-22{letter-spacing:-0.07em;}.cls-23{letter-spacing:-0.03em;}.cls-24{letter-spacing:-0.03em;}</style></defs><title>bar3</title><g id="Layer_2" data-name="Layer 2"><g id="Layer_1-2" data-name="Layer 1"><text class="cls-1" transform="translate(1638.9 591.08)">45</text><text class="cls-1" transform="translate(1637.8 441.58)">90</text><text class="cls-1" transform="translate(1632.14 292.08)">135</text><text class="cls-1" transform="translate(1631.22 142.48)">180</text><rect class="cls-2" x="6.4" y="151.25" width="73.1" height="584.4"/><rect class="cls-2" x="120.5" y="258.55" width="73.1" height="477.1"/><rect class="cls-3" x="120.5" y="467.15" width="73.1" height="268.4"/><rect class="cls-2" x="234.7" y="406.35" width="73.1" height="329.2"/><rect class="cls-2" x="348.8" y="412.65" width="73" height="322.9"/><rect class="cls-2" x="463" y="412.65" width="73" height="322.9"/><rect class="cls-2" x="577.1" y="470.15" width="73" height="265.5"/><rect class="cls-2" x="691.2" y="502.05" width="73" height="233.5"/><rect class="cls-2" x="805.4" y="504.75" width="73" height="230.9"/><rect class="cls-2" x="919.5" y="507.35" width="73" height="228.2"/><rect class="cls-2" x="1033.7" y="564.85" width="73.1" height="170.8"/><rect class="cls-2" x="1147.8" y="569.45" width="73.1" height="166.1"/><rect class="cls-2" x="1261.9" y="593.05" width="73.1" height="142.5"/><rect class="cls-2" x="1376.1" y="628.65" width="73.1" height="107"/><rect class="cls-2" x="1490.2" y="666.85" width="73.1" height="68.8"/><text class="cls-4" transform="translate(1475.54 786.99)">Indonesia</text><text class="cls-4" transform="translate(1383.72 786.99)">Brazil</text><text class="cls-4" transform="translate(1264.38 786.99)">Russia</text><text class="cls-4" transform="translate(1138.85 786.99)">A</text><text class="cls-4" transform="translate(1154.35 786.99)">ustralia</text><text class="cls-4" transform="translate(1054.57 786.99)">UK</text><text class="cls-4" transform="translate(919.85 786.99)">France</text><text class="cls-4" transform="translate(811.53 786.99)">China</text><text class="cls-4" transform="translate(695.91 786.99)">Japan</text><text class="cls-4" transform="translate(573.02 786.99)">Canada</text><text class="cls-4" transform="translate(451.69 786.99)">Germany</text><text class="cls-4" transform="translate(364.03 786.99)">Italy</text><text class="cls-4" transform="translate(247.98 786.99)">U</text><text class="cls-4" transform="translate(264.78 786.99)">S</text><text class="cls-4" transform="translate(278.6 786.99)">A</text><text class="cls-5" transform="translate(116.54 786.99)">S.</text><text class="cls-5" transform="translate(136.12 786.99)">K</text><text class="cls-5" transform="translate(149.73 786.99)">orea</text><text class="cls-4" transform="translate(0 786.99)">Belgium</text><line class="cls-6" x1="6.4" y1="585.85" x2="1604.4" y2="586.15"/><line class="cls-6" x1="6.4" y1="735.35" x2="1604.4" y2="735.55"/><line class="cls-6" x1="6.4" y1="436.35" x2="1604.4" y2="436.55"/><line class="cls-6" x1="6.4" y1="286.85" x2="1604.4" y2="287.15"/><line class="cls-6" x1="6.4" y1="137.45" x2="1604.4" y2="137.45"/><text class="cls-7" transform="translate(15.17 131.46)">175.9</text><text class="cls-7" transform="translate(139.13 247.46)">143</text><text class="cls-7" transform="translate(251.06 395.37)">9</text><text class="cls-7" transform="translate(265.36 395.37)">9</text><text class="cls-8" transform="translate(279 395.37)">.</text><text class="cls-7" transform="translate(282.69 395.37)">1</text><text class="cls-7" transform="translate(363.1 401.69)">9</text><text class="cls-9" transform="translate(377.4 401.69)">7</text><text class="cls-7" transform="translate(387.65 401.69)">.2</text><text class="cls-7" transform="translate(477.25 401.69)">9</text><text class="cls-9" transform="translate(491.55 401.69)">7</text><text class="cls-7" transform="translate(501.8 401.69)">.2</text><text class="cls-7" transform="translate(590.57 459.16)">7</text><text class="cls-7" transform="translate(603.12 459.16)">9</text><text class="cls-7" transform="translate(616.75 459.16)">.2</text><text class="cls-7" transform="translate(704.81 491.05)">7</text><text class="cls-7" transform="translate(717.36 491.05)">0</text><text class="cls-7" transform="translate(731.43 491.05)">.3</text><text class="cls-7" transform="translate(817.94 493.71)">6</text><text class="cls-7" transform="translate(832.24 493.71)">9</text><text class="cls-7" transform="translate(845.88 493.71)">.5</text><text class="cls-7" transform="translate(933.52 496.37)">68</text><text class="cls-8" transform="translate(961.94 496.37)">.</text><text class="cls-7" transform="translate(966.02 496.37)">7</text><text class="cls-7" transform="translate(1049.05 553.84)">51.4</text><text class="cls-7" transform="translate(1169.82 558.5)">50</text><text class="cls-7" transform="translate(1504.32 655.84)">2</text><text class="cls-7" transform="translate(1518.5 655.84)">0</text><text class="cls-8" transform="translate(1532.57 655.84)">.</text><text class="cls-7" transform="translate(1536.65 655.84)">7</text><text class="cls-7" transform="translate(1274.54 582.08)">42.9</text><text class="cls-7" transform="translate(1388.79 617.63)">32.2</text><text class="cls-10" transform="translate(1594.56 101.15)">k</text><text class="cls-10" transform="translate(1606.54 101.15)">g /capita</text><text class="cls-11" transform="translate(6.37 37.34)"><tspan xml:space="preserve">Global Consumption of Plastic  By </tspan></text><text class="cls-11" transform="translate(449.64 37.34)">R</text><text class="cls-11" transform="translate(466.56 37.34)">egion (2019)</text><text class="cls-1" transform="translate(1649.62 740.58)">0</text><rect class="cls-3" x="891" y="66.35" width="29" height="29"/><rect class="cls-2" x="891" y="12.85" width="29" height="29"/><path class="cls-12" d="M136.7,605.55a5.4,5.4,0,0,0,4.4,2,3.17,3.17,0,0,0,3.5-2.9v-.2a3.08,3.08,0,0,0-3.4-3.1,5.43,5.43,0,0,0-3.6,1.4l-1.7-.5v-8.9H146v2.1h-7.7v5.1a5.49,5.49,0,0,1,3.7-1.4,4.91,4.91,0,0,1,5.1,4.7v.5c0,3.3-2.5,5.3-5.9,5.3a7.12,7.12,0,0,1-5.8-2.5Z"/><path class="cls-12" d="M156.4,605.55h-7.6v-2l6.7-10.2h3.3v10H161v2.1h-2.2v3.9h-2.4Zm-5.2-2.1h5.2v-7.9Z"/><path class="cls-12" d="M166.4,593.15a4,4,0,0,1,3.4,4.5,4,4,0,0,1-3.4,3.4,4,4,0,0,1-3.4-4.5A3.83,3.83,0,0,1,166.4,593.15Zm0,1.4a2.56,2.56,0,0,0-.5,5.1,2.58,2.58,0,0,0,2.8-2.3v-.3a2.43,2.43,0,0,0-2.1-2.6A.31.31,0,0,1,166.4,594.55Zm8.7-1.2h1.5l-10.2,16H165Zm-.2,8.4a4,4,0,1,1-3.9,4.1v-.1a3.8,3.8,0,0,1,3.6-4Zm0,1.4a2.56,2.56,0,0,0-.5,5.1,2.58,2.58,0,0,0,2.8-2.3v-.3a2.43,2.43,0,0,0-2.1-2.6.31.31,0,0,1-.2.1Z"/><text class="cls-13" transform="translate(930.44 35) scale(0.58)">TO<tspan class="cls-14" x="45.18" y="0">T</tspan><tspan class="cls-15" x="62.96" y="0">AL PL</tspan><tspan class="cls-16" x="152.14" y="0">A</tspan><tspan class="cls-17" x="174.86" y="0">S</tspan><tspan class="cls-18" x="195.33" y="0">TIC </tspan><tspan class="cls-19" x="257.04" y="0">W</tspan><tspan class="cls-16" x="286.47" y="0">A</tspan><tspan class="cls-20" x="309.19" y="0">S</tspan><tspan class="cls-15" x="329.66" y="0">TE: 100%</tspan></text><text class="cls-21" transform="translate(929.44 88.35) scale(0.58)">PL<tspan class="cls-16" x="38.74" y="0">A</tspan><tspan class="cls-20" x="61.46" y="0">S</tspan><tspan x="81.93" y="0">TIC </tspan><tspan class="cls-22" x="143.64" y="0">P</tspan><tspan class="cls-23" x="161.67" y="0">A</tspan><tspan x="183.58" y="0">CK</tspan><tspan class="cls-24" x="228.62" y="0">A</tspan><tspan class="cls-15" x="250.53" y="0">GING </tspan><tspan class="cls-19" x="343.49" y="0">W</tspan><tspan class="cls-16" x="372.93" y="0">A</tspan><tspan class="cls-20" x="395.64" y="0">S</tspan><tspan x="416.12" y="0">TE: 54%</tspan></text></g></g></svg>