<?xml version="1.0" encoding="utf-8"?>
<!-- Generator: Adobe Illustrator 24.0.1, SVG Export Plug-In . SVG Version: 6.00 Build 0)  -->
<svg version="1.1" id="Layer_1" xmlns="http://www.w3.org/2000/svg" xmlns:xlink="http://www.w3.org/1999/xlink" x="0px" y="0px"
	 viewBox="0 0 1304.4 563.7" style="enable-background:new 0 0 1304.4 563.7;" xml:space="preserve">
<style type="text/css">
	.st0{opacity:0.5;fill:#FF5400;enable-background:new    ;}
	.st1{opacity:0.35;fill:#FF5400;enable-background:new    ;}
	.st2{fill:#051027;}
	.st3{font-family:'ProximaNova-Light';}
	.st4{font-size:23px;}
	.st5{fill:#00CEE5;}
	.st6{fill:#FF5400;}
	.st7{opacity:0.13;fill:#FFFFFF;enable-background:new    ;}
	.st8{opacity:0.47;fill:#00CEE5;enable-background:new    ;}
	.st9{fill:none;stroke:#00CEE5;stroke-width:2.73;stroke-miterlimit:10;}
	.st10{fill:#00CEE5;stroke:#00CEE5;stroke-width:2.73;stroke-miterlimit:10;}
	.st11{fill:none;}
	.st12{fill:#D9D9D9;}
	.st13{fill:url(#SVGID_1_);}
	.st14{fill:url(#SVGID_2_);}
	.st15{fill:url(#SVGID_3_);}
	.st16{fill:url(#SVGID_4_);}
	.st17{fill:url(#SVGID_5_);}
	.st18{fill:#00CBE2;}
	.st19{fill:#00CDE4;}
	.st20{fill:none;stroke:#00CEE5;stroke-width:2.78;stroke-miterlimit:10;}
	.st21{fill:none;stroke:#FF5400;stroke-miterlimit:10;}
	.st22{fill:none;stroke:#FF5400;stroke-width:1.0325;stroke-miterlimit:10;}
	.st23{fill:none;stroke:#FF5400;stroke-width:1.07;stroke-miterlimit:10;}
	.st24{font-family:'ProximaNova-Regular';}
	.st25{font-size:12.1px;}
	.st26{fill:none;stroke:#00CEE5;stroke-miterlimit:10;}
	.st27{fill:#00CEE5;stroke:#00CEE5;stroke-miterlimit:10;}
	.st28{fill:none;stroke:#00CEE5;stroke-width:2;stroke-miterlimit:10;}
	.st29{font-size:13px;}
	.st30{clip-path:url(#SVGID_7_);fill:#FF5400;}
	.st31{clip-path:url(#SVGID_9_);fill:#FF5400;}
	.st32{clip-path:url(#SVGID_11_);fill:#FF5400;}
	.st33{clip-path:url(#SVGID_13_);fill:#FF5400;}
	.st34{clip-path:url(#SVGID_15_);fill:#FF5400;}
	.st35{clip-path:url(#SVGID_17_);fill:#FF5400;}
	.st36{clip-path:url(#SVGID_19_);fill:#FF5400;}
	.st37{clip-path:url(#SVGID_21_);fill:#FF5400;}
	.st38{clip-path:url(#SVGID_23_);fill:#FF5400;}
	.st39{clip-path:url(#SVGID_25_);fill:#FF5400;}
	.st40{clip-path:url(#SVGID_27_);fill:#FF5400;}
	.st41{clip-path:url(#SVGID_29_);fill:#FF5400;}
	.st42{clip-path:url(#SVGID_31_);fill:#FF5400;}
	.st43{clip-path:url(#SVGID_33_);fill:#FF5400;}
	.st44{clip-path:url(#SVGID_35_);fill:#FF5400;}
	.st45{clip-path:url(#SVGID_37_);fill:#FF5400;}
	.st46{clip-path:url(#SVGID_39_);fill:#FF5400;}
	.st47{clip-path:url(#SVGID_41_);fill:#FF5400;}
	.st48{clip-path:url(#SVGID_43_);fill:#FF5400;}
	.st49{clip-path:url(#SVGID_45_);fill:#FF5400;}
	.st50{clip-path:url(#SVGID_47_);fill:#FF5400;}
	.st51{clip-path:url(#SVGID_49_);fill:#FF5400;}
	.st52{clip-path:url(#SVGID_51_);fill:#FF5400;}
	.st53{clip-path:url(#SVGID_53_);fill:#FF5400;}
	.st54{clip-path:url(#SVGID_55_);fill:#FF5400;}
	.st55{clip-path:url(#SVGID_57_);fill:#FF5400;}
	.st56{clip-path:url(#SVGID_59_);fill:#FF5400;}
	.st57{clip-path:url(#SVGID_61_);fill:#FF5400;}
	.st58{clip-path:url(#SVGID_63_);fill:#FF5400;}
	.st59{clip-path:url(#SVGID_65_);fill:#FF5400;}
	.st60{clip-path:url(#SVGID_67_);fill:#FF5400;}
	.st61{clip-path:url(#SVGID_69_);fill:#FF5400;}
	.st62{clip-path:url(#SVGID_71_);fill:#FF5400;}
	.st63{clip-path:url(#SVGID_73_);fill:#FF5400;}
	.st64{clip-path:url(#SVGID_75_);fill:#FF5400;}
	.st65{clip-path:url(#SVGID_77_);fill:#FF5400;}
	.st66{clip-path:url(#SVGID_79_);fill:#FF5400;}
	.st67{clip-path:url(#SVGID_81_);fill:none;}
	.st68{fill:none;stroke:#000000;stroke-width:0.27;stroke-miterlimit:10;}
	.st69{fill:none;stroke:#000000;stroke-width:0.2794;stroke-miterlimit:10;stroke-dasharray:2.111,2.111;}
	.st70{font-size:14px;}
	.st71{font-family:'ProximaNova-Semibold';}
</style>
<circle class="st0" cx="919.1" cy="73" r="39.5"/>
<ellipse class="st1" cx="919.1" cy="59.4" rx="59.2" ry="59.2"/>
<title>diagram</title>
<text transform="matrix(1 0 0 1 0 19.29)" class="st2 st3 st4">Bioaccumulation Process</text>
<path id="플랑크톤1" class="st5" d="M531.3,312.1l-4.8-5c0,0-2.4-0.6-1.8,0.7s4.2,5.2,4.2,5.2l-0.1,0.7l-4.7-1.7
	c0,0-3,0.3-0.7,1.7c1.6,1.1,3.4,1.9,5.2,2.6l-0.5,1.2l-4.4,2.5c0,0-1.8,1.1,0.5,1c1.7-0.2,3.3-0.8,4.7-1.7l0.4,1.1l-4.3,4.4
	c0,0-2,2.6,1.1,0.7c2-1.2,3.7-2.7,5.2-4.5l0.9,7.5c0,0-0.4,1.1,0.7,0.7s0.9-2.8,0.9-2.8V322l4.4,4.8c0,0,1.8,1.9,0.7-1.1
	c-0.7-1.9-1.5-3.7-2.5-5.4l5.6,2.1c0,0,1.7,0.3,0-1.6c-1.8-1.1-3.6-2-5.6-2.8l-0.1-1.4l6.5-2.6c0,0,0.7-1.7-1.3-1.4
	c-1.6,0.3-3.2,0.7-4.8,1.1l2.8-4.5c0,0,0.3-1.7-1-0.9c-1.4,1.2-2.7,2.5-4,3.8l-1.3-0.9v-4.6c0,0-1.5-1.2-1.7,0
	S531.3,312.1,531.3,312.1z"/>
<path id="플랑크톤1-2" class="st5" d="M583,330.1l-2.6-2.6c0,0-1.2-0.3-1,0.4c0.6,1,1.4,1.9,2.2,2.8l-0.1,0.4l-2.5-0.9
	c0,0-1.6,0.1-0.4,0.9c0.9,0.6,1.8,1,2.8,1.4l-0.3,0.7l-2.3,1.3c0,0-1,0.6,0.3,0.5c0.9-0.1,1.8-0.4,2.5-0.9l0.2,0.6l-2.2,2.3
	c0,0-1.1,1.4,0.6,0.4c1.1-0.6,2-1.4,2.8-2.4l0.5,4c0,0-0.2,0.6,0.4,0.4s0.5-1.5,0.5-1.5v-2.3l2.4,2.6c0,0,1,1,0.4-0.6
	c-0.4-1-0.8-1.9-1.3-2.8l3,1.1c0,0,0.9,0.1,0-0.9c-1-0.6-2-1.1-3-1.5l-0.1-0.7l3.5-1.4c0,0,0.4-0.9-0.7-0.7s-2.5,0.6-2.5,0.6
	l1.5-2.4c0,0,0.1-0.9-0.5-0.5c-0.7,0.7-1.5,1.3-2.1,2l-0.7-0.5v-2.5c0,0-0.8-0.7-0.9,0S583,330.1,583,330.1z"/>
<path id="플랑크톤2" class="st5" d="M560,336c0,0-3.6-1.8-5-1.5c-1.4,0.1-2.6,0.9-3.1,2.2c-0.7,1.5-1.2,5.8-1.7,6.7
	c-0.4,1.1-0.9,2.1-1.4,3.1c-0.5,0.6-0.9,1.5-0.6,1.9s1.8-1.7,1.8-1.7c0.5-0.8,0.9-1.6,1.2-2.5c0.2-0.8,0.6-2.2,0.9-3
	c0.3-1.1,0.6-2.2,1-3.3c0.3-0.5-0.1-1.3,1.3-1.4c1.1,0,2.2,0.2,3.2,0.7c0.7,0.3,1.5,0.5,2.3,0.6v1.6c-1.2,0.5-2.3,1.1-3.4,1.9
	c-0.9,0.9-2.5,5.1-2.5,5.1c-0.3,0.7-0.4,1.4-0.4,2.1c0.2,0.6,0.9,0,0.9,0l1.4-3.3c0,0,1.7-2.6,1.9-2.8s1.6-1.3,1.6-1.3l0.1,1.9
	c-0.8,1.1-1.5,2.2-2.1,3.3c-0.5,1.2-0.8,2.5-0.9,3.8c0.1,0.2,0.5,1.1,0.5,1.1c0.5-0.7,0.9-1.5,1.2-2.4c0-0.9,0.2-1.8,0.7-2.5
	c0.4-0.2,0.7-0.4,1.1-0.6l0.3,2l0.7,2c0,0,1.5,2.5,2.2,3.4c0.5,1,0.8,2.2,0.9,3.3v5.7c0,0,1.2-0.9,1.2-1.1s0.8-2.5,0.8-2.5l1-0.1
	c0.4,0.5,0.8,1,1.3,1.4c0.2,0.1,1.4,0.2,1.5-0.1c0.2-0.6,0.3-1.1,0.5-1.7c-0.7-0.7-1.4-1.5-2-2.2l-0.9-1.5l0.2-5.2l-0.7-5.5l0.5-1
	c0.4,0.6,0.8,1.3,1.2,2c0.6,1.1,1.3,3.6,1.7,3.9s0.7,0.6,0.9,1v-2.6c-0.5-0.6-0.8-1.3-1-2.1c-0.3-1.1-0.9-2.1-1.7-3
	c-0.5-0.4-1.1-0.7-1.8-0.9l-0.9-0.7v-0.9c0.6-0.1,1.2,0,1.8,0.1c0.8,0.7,1.7,1.3,2.6,1.9c1,0.6,1.9,1.4,2.6,2.3
	c0.5,0.7,0.8,1.1,0.8,1.1v-2c-0.3-0.7-0.7-1.3-1.2-1.9c-0.8-0.8-1.7-1.6-2.6-2.3c-0.7-0.2-1.4-0.3-2.2-0.5c-0.8-0.1-1.5-0.1-2.3-0.1
	c-0.6,0-0.7-0.9-0.7-0.9v-1.6c0.5-0.3,1-0.7,1.5-1.1c0.9-0.7,1.1-1.5,2.5-1.3c1,0.2,1.9,0.8,2.4,1.8c0.3,0.6,2.4,2.8,2.6,3.4
	c0.5,0.8,1.1,1.6,1.8,2.3c0.6,0.4,1.2,0.8,1.9,1c0.6,0,1.2-0.1,1.8-0.2c-0.1-0.7-0.6-1.2-1.2-1.4c-0.9-0.3-1.7-0.7-2.5-1.2
	c-0.2-0.2-2.4-3-2.7-3.3s-2.1-2.8-2.4-3.2c-0.5-0.4-1.1-0.6-1.7-0.5c-1,0.2-2,0.7-2.8,1.4c-0.6,0.7-1.3,1.9-2.1,2.2
	c-0.9,0.3-1.8,0.5-2.7,0.5C560.7,335.8,560.4,335.9,560,336z"/>
<path id="플랑크톤3" class="st5" d="M561.4,312.2c0,0-3.3,1.8-4.1,2.8c-0.7,1-1.1,2.2-1.4,3.4c0.6,1.5,1.3,2.9,2.2,4.2
	c0.2,0.1,5,0,5,0s0.2,1.1,0.7,1c0.6-0.3,1.1-0.7,1.5-1.2c0.1-0.2,1-0.6,1-0.6c-0.1,0.5-0.2,1-0.5,1.4c-0.4,0.7-0.7,1.5-0.9,2.3h1.4
	c0,0,0.6-1.6,0.8-2c0.3-0.3,0.6-0.6,1-0.7v1.2c0,0.5-0.9,1.6-1,1.9c-0.1,0.5-0.2,1-0.2,1.5c0.2,0.2,0.6,0.3,0.9,0l0,0
	c0.4-0.6,0.7-1.2,1-1.9c0.2-0.4,0.6-0.7,1-0.7c0.5,0.1,0,1,0,1.5s-0.8,1.5-0.9,1.7s-0.3,2-0.1,1.5l1.5-2.1c0,0,0.9-0.5,0.8,0.3
	c-0.1,1.2-0.1,2.3,0,3.5c0.5,0.8,1.1,1.6,1.7,2.4c0.2,0.1,1.1,1.3,1.5,1.1s0.9-0.2,0.9-0.9s-0.3-0.8-1.1-1.6
	c-0.7-0.6-1.1-1.4-1.1-2.3c-0.1-1.2-0.1-2.6-0.1-4.2c0-1.3-0.1-2.6-0.2-3.8c-0.1-1.5-0.6-2.8-1.5-4c-0.8-0.8-1.3-2.2-2.5-3
	c-0.9-0.8-2-1.3-3.1-1.7c-0.8-0.3-1.7-0.4-2.5-0.5C562.5,312.5,561.9,312.4,561.4,312.2z"/>
<path id="플랑크톤3-2" class="st5" d="M595.2,298c-1-0.3-2-0.5-3-0.5c-0.7,0.2-1.4,0.5-2,0.9c-0.3,0.9-0.6,1.9-0.8,2.9l2.2,2.1
	c0,0-0.4,0.6-0.1,0.7c0.4,0.1,0.8,0.1,1.2,0.1c0.1-0.1,0.7,0.2,0.7,0.2c-0.2,0.2-0.5,0.3-0.8,0.4c-0.5,0.2-1,0.4-1.4,0.7l0.6,0.6
	l1.2-0.6c0.3,0,0.5,0.1,0.8,0.1l-0.5,0.5c-0.2,0.2-1.1,0.3-1.3,0.4c-0.3,0.1-0.5,0.3-0.7,0.5c-0.1,0.1,0.2,0.4,0.4,0.4
	c0.4-0.1,0.9-0.2,1.3-0.4c0.2-0.1,0.5-0.1,0.7,0.1c0.1,0.2-0.5,0.5-0.6,0.7s-1,0.3-1.1,0.4s-1,0.7-0.7,0.7l1.6-0.3
	c0,0,0.6,0.1,0.2,0.5c-0.6,0.5-1.1,1-1.5,1.6l-0.3,1.8c0.1,0.1,0,1,0.1,1.1c0.2,0.2,0.6,0.2,0.8,0c0.3-0.3,0.2-0.5,0.2-1.2
	c-0.1-0.6,0.1-1.1,0.5-1.5c0.5-0.5,1.1-1.2,1.7-1.9c0.5-0.6,1-1.2,1.5-1.8c0.6-0.7,0.9-1.5,1.1-2.4c0.2-0.8,0.2-1.7,0.2-2.5
	c-0.1-0.7-0.3-1.5-0.7-2.1c-0.3-0.4-0.6-0.9-0.9-1.3L595.2,298z"/>
<circle id="미세플라스틱" class="st6" cx="583.3" cy="332.8" r="0.9"/>
<path id="미세_플라스틱2" class="st7" d="M461,292.4c-0.9,1.2-0.3,0.9-1.4,2.1s-1.5,1.5-1.5,1.9s-0.1,0.9,0.7,0.9
	s0.9-0.7,1.5,0s0.1,0.9,0.9,0.9c0.5,0.1,1,0,1.4-0.3s0.8-0.7,1.1-1.1c0.2-0.4,0.7-0.4,0-1.5s-1.6-2.3-1.6-2.3L461,292.4z"/>
<path id="미세_플라스틱2-2" class="st7" d="M406.6,259c-1,0-0.6,0.2-1.6,0.1s-1.3-0.2-1.6,0s-0.5,0.3-0.1,0.7s0.7,0.2,0.6,0.8
	s-0.4,0.4-0.1,0.9c0.2,0.3,0.4,0.5,0.7,0.6c0.3,0.1,0.6,0.1,0.9,0.1c0.3-0.1,0.5,0.2,0.8-0.6s0.6-1.7,0.6-1.7L406.6,259z"/>
<path id="미세_플라스틱2-3" class="st8" d="M582.6,315.9c-0.5,0.3-1,0.5-1.5,0.7c-0.9,0.3-1.3,0.3-1.5,0.6s-0.3,0.5,0.1,0.7
	s0.7-0.1,0.8,0.5s-0.2,0.5,0.2,0.8c0.5,0.4,1.3,0.4,1.8,0c0.3-0.1,0.5,0,0.5-0.9s-0.1-1.8-0.1-1.8L582.6,315.9z"/>
<path id="미세_플라스틱3" class="st8" d="M551,324.7c-1,0.5-2.4,0.5-2.8,1.5s-0.5,1.9-0.7,2.2s-1.4,1.5-1.5,1.8
	s-2.5,1.6-0.7,1.5c1.6-0.2,3.1-0.5,4.6-1c0.9-0.2,3.1-0.3,3.3-1c0.4-1,0.6-2.1,0.5-3.2c-0.3-0.9-0.6-1.7-0.9-2.6L551,324.7z"/>
<path id="미세_플라스틱3-2" class="st8" d="M575.4,294.9c-0.7,0.4-1.8,0.3-2.1,1c-0.2,0.6-0.4,1.1-0.5,1.7
	c-0.1,0.3-1.1,1-1.1,1.3s-1.8,1.2-0.5,1.1c1.2-0.1,2.3-0.4,3.4-0.7c0.7-0.2,2.3-0.3,2.4-0.7c0.3-0.7,0.4-1.5,0.4-2.3
	c-0.2-0.6-0.4-1.3-0.7-1.9L575.4,294.9z"/>
<path id="미세_플라스틱_4" class="st8" d="M545.4,299.4c0-1.6-0.1-3.3-0.3-4.9l-6.6-8.5c0.4-0.8,1.1-1.4,2-1.7
	c1.3-0.4,8.7-3.6,9.4-4s7.3-4,7.3-4c0,1,0.4,2,1.2,2.6c1.4,1.2,3,2.2,4.8,2.9c0.8,0.2,3.8,0.6,4.7,1.1s4.3,2.4,4.6,3s-1.9,2-1.9,2
	l-10.9,6.8l-9.3,5.6L545.4,299.4z"/>
<path id="플라스틱" class="st8" d="M599.2,285.3c-1-0.3-1.7-0.9-2.1,0s-0.4,1.6-1.2,2.1c-0.6,0.4-1.1,0.9-1.6,1.4
	s-0.7,1.2-0.5,1.9c0.2,0.7-0.5,2,1.1,1.4s1.7-1.2,2.7-0.9s1.9,1.3,2.5,1s2.2-0.9,2.2-0.9c0.6-0.3,1.1-0.7,1.6-1.2
	c0.4-0.7-0.5-1.3,0.9-1.1s2.1,0.5,3.2,0.7s1.9,0.7,2.1-0.2c0.3-0.8,0.5-1.7,0.5-2.6c-0.1-0.9-0.3-3.6-0.7-4s-0.2-1.2-1.2-1.1
	c-1.4,0.3-2.7,0.7-3.9,1.4c-0.9,0.4-3.2,1.6-3.2,1.6L599.2,285.3z"/>
<circle id="미세플라스틱-212" class="st6" cx="532.9" cy="318.3" r="1.4"/>
<circle id="미세플라스틱-213" class="st6" cx="563" cy="341.9" r="1.4"/>
<circle id="미세플라스틱-214" class="st6" cx="563" cy="346.6" r="1.4"/>
<circle id="미세플라스틱-215" class="st6" cx="563" cy="317.9" r="1.4"/>
<circle id="미세플라스틱-216" class="st6" cx="595.2" cy="303.3" r="1.4"/>
<path class="st5" d="M662,481.9l-4.2-6.8l-1.2-6.1l1.4-2l4.8-20.5l-4.3-28.6L641.8,398l-11.1-5.9l1.9-2.4l4.8-1.4l10.2,2.1l9.8,7.3
	l5.1-2l-9.1-13.7l-12-7.4l-10.3,7.2l-4.2,8.3l-5.8-3.1l-11.9-0.6l-2.6-3.6c0,0-2.6-5.8-5-7.4s-8.9-4.1-10.2,0.1s0.9,8.3,1.2,11
	c0.3,2.4,0.8,4.7,1.4,7l-3.7,3.5l-5.9,8.8l-6.8-4.5l-10.8,2.2L555.7,414l-1,16.4l5.4-0.8l4.8-11.2l10.6-8.3l4.8-1.2l1.7,0.7
	l-3.1,4.6l-1.9,18.4l8.2,25.8l13.7,14.7l4.2,2l2.1,10.6l-1.3,7.9l-2,3.7l3,0.8l6.8-4l2.4-7.1l1.2-5.8c0,0-1-0.6-2.4-1.6l10,4.7
	l13,4.3l9.2-3.6l4.3-6.1l0.5,0.8l5,5.6l7.7,1.1l2.3-1.9L662,481.9z"/>
<circle id="미세플라스틱-177" class="st6" cx="615.4" cy="427.6" r="2.5"/>
<circle id="미세플라스틱-178" class="st6" cx="618.3" cy="422.9" r="2.5"/>
<circle id="미세플라스틱-179" class="st6" cx="613.5" cy="418.3" r="2.5"/>
<circle id="미세플라스틱-180" class="st6" cx="616.4" cy="416.5" r="2.5"/>
<circle id="미세플라스틱-181" class="st6" cx="620.9" cy="428.9" r="2.5"/>
<circle id="미세플라스틱-182" class="st6" cx="611.3" cy="424.5" r="2.5"/>
<circle id="미세플라스틱-183" class="st6" cx="608.8" cy="421" r="2.5"/>
<circle id="미세플라스틱-184" class="st6" cx="624.2" cy="424.5" r="2.5"/>
<circle id="미세플라스틱-185" class="st6" cx="620.1" cy="418.3" r="2.5"/>
<circle id="미세플라스틱-186" class="st6" cx="623.6" cy="416.5" r="2.5"/>
<circle id="미세플라스틱-187" class="st6" cx="628" cy="427.9" r="2.5"/>
<circle id="미세플라스틱-188" class="st6" cx="630.6" cy="422.9" r="2.5"/>
<circle id="미세플라스틱-189" class="st6" cx="635.3" cy="427.6" r="2.5"/>
<circle id="미세플라스틱-190" class="st6" cx="626.7" cy="420" r="2.5"/>
<circle id="미세플라스틱-191" class="st6" cx="631.4" cy="437.3" r="2.5"/>
<circle id="미세플라스틱-192" class="st6" cx="635.3" cy="433.9" r="2.5"/>
<circle id="미세플라스틱-193" class="st6" cx="629.8" cy="443.5" r="2.5"/>
<circle id="미세플라스틱-194" class="st6" cx="626.7" cy="446.6" r="2.5"/>
<circle id="미세플라스틱-195" class="st6" cx="635.3" cy="441" r="2.5"/>
<circle id="미세플라스틱-196" class="st6" cx="626.7" cy="433.4" r="2.5"/>
<circle id="미세플라스틱-197" class="st6" cx="631.4" cy="431.5" r="2.5"/>
<circle id="미세플라스틱-198" class="st6" cx="624.8" cy="440.3" r="2.5"/>
<circle id="미세플라스틱-199" class="st6" cx="622.1" cy="445.5" r="2.5"/>
<circle id="미세플라스틱-200" class="st6" cx="614.8" cy="445.5" r="2.5"/>
<circle id="미세플라스틱-201" class="st6" cx="618.8" cy="447.5" r="2.5"/>
<circle id="미세플라스틱-202" class="st6" cx="622.3" cy="435.6" r="2.5"/>
<circle id="미세플라스틱-203" class="st6" cx="618.3" cy="441" r="2.5"/>
<circle id="미세플라스틱-204" class="st6" cx="611" cy="441" r="2.5"/>
<circle id="미세플라스틱-205" class="st6" cx="608.2" cy="438.5" r="2.5"/>
<circle id="미세플라스틱-206" class="st6" cx="617.9" cy="433.4" r="2.5"/>
<circle id="미세플라스틱-207" class="st6" cx="614.8" cy="436.5" r="2.5"/>
<circle id="미세플라스틱-208" class="st6" cx="607.6" cy="434.8" r="2.5"/>
<circle id="미세플라스틱-209" class="st6" cx="612.3" cy="431.5" r="2.5"/>
<circle id="미세플라스틱-210" class="st6" cx="607.1" cy="427.9" r="2.5"/>
<circle id="미세플라스틱-211" class="st6" cx="608.8" cy="429.7" r="2.5"/>
<path class="st5" d="M203.3,295.4h-31.2c-0.5,0-1-0.4-1-0.9v-0.1v-10.5c0-0.5,0.4-1,0.9-1h0.1h31.2c0.5,0,1,0.4,1,0.9v0.1v10.5
	c0,0.5-0.4,1-0.9,1C203.4,295.4,203.3,295.4,203.3,295.4z"/>
<path class="st5" d="M143.9,165.8L143.9,165.8v4c0,0.2-0.2,0.4-0.4,0.5H143c-0.4,0-0.6,0.3-0.6,0.7l-1.8,49.5c0,0.3-0.1,0.6-0.2,0.9
	l-3.8,6.8c-0.3,0.6-0.9,0.9-1.5,0.9h-9c-0.6,0-1.2-0.3-1.5-0.9l-3.8-6.8c-0.1-0.3-0.2-0.6-0.2-0.9l-1.8-49.5c0-0.3-0.3-0.6-0.6-0.7
	h-0.5c-0.2,0-0.4-0.3-0.4-0.5v-4H143.9z"/>
<polygon class="st5" points="130.5,231.4 130.6,231.4 135.1,231.4 134.5,240.3 130.6,240.3 130.5,240.3 126.6,240.3 126,231.4 "/>
<path class="st9" d="M176.5,240.3h6.9c8.4,0,15.2,6.8,15.2,15.2l0,0l0,0v28h-22v-16.6c0-2.5-2-4.5-4.5-4.5l0,0H2.1v-22L176.5,240.3z
	"/>
<path class="st10" d="M69.1,206.9H40.6c-1.5,0-2.7,0.8-2.7,1.8v30.2c0,0.7,0.8,1.2,1.8,1.2h28.5c1,0,1.8-0.5,1.8-1.2v-31.4
	C70,207.2,69.6,206.9,69.1,206.9z"/>
<path class="st9" d="M42.1,189.7c0-5.4,5.3-9.7,11.8-9.7s11.8,4.4,11.8,9.7 M53.9,173.1v6.8 M43.4,173.5l18,0.6c1,0,1.8-0.8,1.9-1.8
	v-2.5c0-1-0.8-1.8-1.8-1.8l0,0h-0.1l-17.9,0.9c-0.9,0.1-1.7,0.8-1.8,1.7v1C41.6,172.6,42.3,173.4,43.4,173.5
	C43.3,173.5,43.4,173.5,43.4,173.5L43.4,173.5z"/>
<path class="st5" d="M104.9,199.2c-0.4-3.2-2-6.1-4.6-8.1c-0.7-0.7-1.3-1.6-1.5-2.6c-0.3-0.8-0.4-1.3-0.2-1.6
	c0.2-0.1,0.3-0.3,0.5-0.3l4.5-0.9c0.6-0.1,1-0.6,0.9-1.2c0-0.1,0-0.1,0-0.2l0,0v-0.1c-0.1-0.5-0.6-0.9-1.2-0.9l-4.4,1l-0.3,0.1h-0.2
	c-0.1,0-0.2-0.1-0.3-0.2S98,184,98,184v-0.2c0-0.2,0.2-0.3,0.4-0.4l0.5-0.1l0.5-0.1l3.7-0.8c0.3-0.1,0.5-0.3,0.7-0.6
	c0.3-0.6,0.1-1.3-0.5-1.6l0,0c-0.2-0.1-0.3-0.1-0.5-0.1l-4.4,1l-0.5,0.1h-0.2c-0.1,0-0.1,0-0.2-0.1l-0.1-0.1c0-0.1,0-0.1-0.1-0.1
	l0,0l0,0v-0.3c0-0.1,0.1-0.1,0.1-0.2s0.1-0.1,0.2-0.1l0,0l0.6-0.1l1.4-0.3l2.5-0.5h0.1c0.6-0.2,0.9-0.8,0.8-1.4
	c-0.1-0.5-0.6-0.9-1.1-0.9l-4.4,1l0,0l-0.5,0.1h-0.1c-0.1,0-0.2,0-0.2-0.1c-0.2-0.1-0.3-0.3-0.3-0.5c0-0.1,0-0.2,0.1-0.3l0.1-0.1
	c0.1,0,0.1-0.1,0.2-0.1L97,177l4-0.9c0.4-0.1,0.7-0.2,1-0.4c0.3-0.3,0.4-0.6,0.3-1l0,0c-0.1-0.6-0.7-1-1.4-0.9l0,0l-4.7,1l0,0
	c-0.1,0-0.2,0-0.3-0.1c-0.1-0.1-0.2-0.2-0.2-0.4c0-0.1,0-0.2,0.1-0.2c0.1-0.1,0.2-0.2,0.4-0.2l0,0l2.5-0.5l2.3-0.5
	c0.5-0.2,0.7-0.8,0.6-1.3v-0.1c0-0.1-0.1-0.2-0.1-0.3s0-0.1-0.1-0.1l0,0l0,0l-0.2-0.1l-0.1-0.1c-0.3-0.2-0.6-0.2-0.9-0.2l-4.5,0.9
	c-0.3,0-0.5,0-0.8-0.1c-0.1,0-0.2-0.1-0.2-0.2l0,0c-0.3-0.4-0.8-0.6-1.3-0.7c-0.3-0.1-0.5-0.1-0.8,0l0,0c-1.3,0.2-2.1,1.5-1.8,2.7
	v0.1l3,13.8c0,0.1,0,0.1,0.1,0.1l0,0l0,0l0.5,2.1l0.1,0.3l0.2,1c0.2,0.8,0.6,1.5,1,2.2s1,1.3,1.7,1.7c2.7,1.8,3.2,4.6,3.8,7.4
	c0.5,2.4,1.1,4.7,1.6,7.1h4C106,205.5,105.4,202.3,104.9,199.2z"/>
<path class="st9" d="M106.8,208.6h13.9c0.6,0,1.2,0.2,1.6,0.6c0.4,0.3,0.6,0.8,0.6,1.3l-2.6,27.5c-0.2,1.1-1.2,1.8-2.3,1.7H97.2
	c-1,0.1-2-0.6-2.2-1.6l-2.6-27.5c0-0.5,0.2-1,0.6-1.3c0.5-0.4,1.1-0.6,1.7-0.6L106.8,208.6L106.8,208.6z"/>
<path class="st5" d="M106.8,185.1c1.8-0.4,3-2.1,2.8-4l0,0c0,0,0.3,1.5,2.4,0.9c0.3-0.1,0.7,0.1,0.8,0.4c0.1,0.2,0,0.4-0.1,0.5
	c-1.6,2.2-4.5,3.1-7.1,2.2C106,185.2,106.4,185.2,106.8,185.1z"/>
<path class="st5" d="M104.6,184.7c-0.5-0.3-1-0.7-1.3-1.2c-0.2-0.3-0.4-0.7-0.6-1l0,0l-1.8-8.4c-0.6-1.9,0.5-3.9,2.4-4.5
	s3.9,0.5,4.5,2.4c0,0.1,0,0.1,0.1,0.2v0.2l1.9,8.7v0.2c0.3,1.9-1,3.7-2.9,4c-0.4,0.1-0.7,0.1-1.1,0l0,0L104.6,184.7z"/>
<path class="st11" d="M306.7,260.2c-0.6,1-1.1,2.1-1.5,3.2C305.6,262.3,306.1,261.2,306.7,260.2z"/>
<path class="st11" d="M321.2,277.4c0.5-0.2,1-0.5,1.5-0.7s1.2-0.7,1.8-1c-0.6,0.3-1.2,0.6-1.8,1
	C322.2,276.9,321.7,277.2,321.2,277.4z"/>
<path class="st11" d="M318.1,278.2c-0.5,0.1-1,0.1-1.5,0.1C317.1,278.3,317.6,278.3,318.1,278.2z"/>
<path class="st11" d="M330.1,274L330.1,274c-0.3,0-0.6,0.1-1,0.1C329.4,274.1,329.8,274.1,330.1,274z"/>
<path class="st6" d="M303,331.8c1.4,0.2,2.6-0.8,2.8-2.2v-0.1c0-0.4,0-0.7-0.1-1.1c-0.1-0.8-0.2-1.5-0.2-2.3
	c-0.1-0.6-0.1-1.5-0.5-1.8c-0.5-0.5-1.6-1.1-2.1-0.9c-1.5,0.5-2.8,1.3-4,2.3c-0.4,0.3,0.1,1.6,0.2,2.4
	C299.4,330.1,301,331.6,303,331.8z"/>
<path class="st6" d="M283.9,315c1.8-1.1-0.8-2.6-0.6-4.1c0-0.2-0.7-0.7-1.1-0.7c-1,0-2,0.2-2.9,0.5c-1.5,0.4-2.6,1.8-2.4,3.4
	c0.3,0.4,0.8,1.6,1.3,1.6C280,315.8,282.3,315.9,283.9,315z"/>
<path class="st6" d="M297.2,324.7c0.2-1.7-0.9-2.4-4.1-2.6c-1.6-0.1-3,1-3.2,2.6c-0.1,1.3,1.4,2.6,3.4,2.7
	C295.1,327.5,296.7,326.4,297.2,324.7z"/>
<path class="st6" d="M282.7,323.9c-0.3,0.9-1.1,2.1-0.8,2.7c0.6,1,1.9,1.7,2.9,2.5c1.8-0.5,3.1-0.6,2.3-2.7c-0.2-0.5,0-1.2-0.2-1.7
	c-0.4-1-1-1.8-1.7-2.6c-0.2-0.2-1.4,0.8-2.1,1.2C283,323.5,282.8,323.7,282.7,323.9z"/>
<path class="st6" d="M258.3,304.8c-1,0.4-1.8,1.2-2.3,2.2c-0.4,1.4,1.5,3.1,3.1,3.1s3.2-1.2,3.2-2.3S259.4,304.4,258.3,304.8z"/>
<path class="st6" d="M301.7,335.7c-1.1-0.8-2.3-1.2-3.4-0.3c-0.6,0.5-1.2,1.6-1,2c0.5,1.7,2.2,2.9,4,2.8c0.7-0.5,1.4-1.1,1.9-1.8
	C304,337,302.7,336.4,301.7,335.7z"/>
<path class="st6" d="M318.3,327.4c0.3-0.4,1-0.9,1.2-1.6c0.3-1.2-1.3-2.7-2.5-2.6c-0.8-0.1-1.5,0.4-1.6,1.1c0,0,0,0,0,0.1v0.5
	C315.4,326.4,316.1,327.3,318.3,327.4z"/>
<path class="st6" d="M304.9,343.9c-0.8,0.3-1.5,1-1.6,1.9c0.1,0.7,1.2,1.3,2.3,2.2c0.9-1,1.9-1.7,2-2.5
	C307.8,343.7,306,343.9,304.9,343.9z"/>
<path class="st6" d="M375.1,384c-0.8,1.2-1.8,2.2-1.6,2.5l3.9,0.6C377.1,386.1,376.2,385.4,375.1,384z"/>
<path class="st6" d="M310,323.2c-1.2-0.1-2,0.6-1.8,1.7c0.2,0.7,1.1,1.3,2,2.3c0.9-1.1,1.8-1.8,1.9-2.5
	C312.4,323.2,311,323.3,310,323.2z"/>
<path class="st6" d="M291,330.3c-1.1,0-2.3,0.2-2.2,1.5c0,0.7,1,1.4,1.9,2.5c1-1.1,1.8-1.7,2-2.4C293,330.8,292.1,330.3,291,330.3z"
	/>
<path class="st6" d="M313.6,331.7c0.9,0.6,1.5,1.4,2.1,1.4s1.5-1.2,1.4-1.5c-0.5-0.8-1.2-1.6-1.9-2.2L313.6,331.7z"/>
<path class="st6" d="M269.4,320c-0.4,0.7-1.2,1.5-1.1,2.2s1,1.3,1.7,1.6c0.3,0.1,1.5-0.9,1.4-1.3c-0.3-0.9-0.7-1.7-1.3-2.5
	L269.4,320z"/>
<path class="st6" d="M286,333.2c-0.6,0.6-1.5,1.2-1.6,1.9c-0.1,0.5,1,1.3,1.7,1.6c0.4,0.1,1.1-0.5,2-1L286,333.2z"/>
<path class="st6" d="M282.3,352.4c-0.7,0.5-1.3,1.1-1.9,1.7c0.5,0.6,1.2,1.1,1.9,1.5c0.2,0.1,0.9-0.9,1.6-1.6
	C283.2,353.3,282.5,352.4,282.3,352.4z"/>
<path class="st6" d="M347.9,323.7c0.2,0.7,0.7,1.3,1.4,1.6c0.5,0.1,1.1-0.7,2.2-1.5c-1.1-0.9-1.7-1.7-2.3-1.7
	S347.9,323.2,347.9,323.7z"/>
<path class="st6" d="M273.9,382.1c0.5,0.4,1,1.1,1.5,1.1c0.7,0,1.3-0.5,2.6-1.1c-1.2-1-1.9-2-2.5-1.9S274.5,381.4,273.9,382.1z"/>
<path class="st6" d="M258.5,353.3c0.5,0.6,1.1,1.1,1.8,1.5c0.3,0.1,1-0.8,1.7-1.5l-1.6-2.1L258.5,353.3z"/>
<path class="st6" d="M359.6,363.4c0,0.5,1,1.4,1.4,1.3c0.7-0.2,1.2-0.8,1.4-1.5c0.1-0.5-0.6-1.1-1.3-2.2
	C360.3,362.1,359.6,362.7,359.6,363.4z"/>
<path class="st6" d="M282.2,330.7c0.1-0.4-0.5-1.1-1.1-2.2c-0.8,1-1.5,1.6-1.6,2.3c-0.1,0.3,0.9,1.2,1.3,1.2
	C281.4,331.8,282,331.3,282.2,330.7z"/>
<path class="st6" d="M367.9,354c-0.5,0-1.1,0.9-1.3,1.5c-0.1,0.3,0.8,0.9,1.6,1.6c0.6-0.8,1.4-1.5,1.2-1.8
	C369.2,354.8,368.4,354,367.9,354z"/>
<path class="st6" d="M342.6,350.4c-0.6,0.2-1.1,1-1.7,1.5c0.5,0.4,1,1,1.5,1s1-0.5,2-1.1C343.6,351.1,342.9,350.3,342.6,350.4z"/>
<path class="st6" d="M245.5,335.2c-0.1,0.4,0.7,1.2,1.2,1.3s1.2-0.5,1.8-0.8c0-0.3,0-0.5,0.1-0.8c-0.6-0.4-1.2-1-1.8-1
	C246.2,334.1,245.7,334.6,245.5,335.2z"/>
<path class="st6" d="M325.8,338.4c-0.5-0.5-1.1-0.9-1.8-1.1c-0.4-0.1-1,0.5-2,1c0.7,0.6,1.6,1.1,2.5,1.4
	C324.9,339.8,325.4,338.8,325.8,338.4z"/>
<path class="st6" d="M321.3,357.2c-0.5,0.1-0.8,0.9-1.2,1.3c0.5,0.4,1,1.1,1.6,1.2c0.4,0.1,0.9-0.7,2-1.5
	C322.4,357.7,321.8,357.1,321.3,357.2z"/>
<path class="st6" d="M297.4,342.2c-0.6,0.2-1,1-1.5,1.5c0.5,0.4,1,1,1.5,1s1-0.6,2-1.2C298.4,342.8,297.8,342.1,297.4,342.2z"/>
<path class="st6" d="M316.6,349.9c0.4,0.5,0.9,1,1.5,1.4c0.3,0.1,0.9-0.6,1.7-1.2c-0.8-0.5-1.3-1.1-1.8-1
	C317.5,349.2,317,349.5,316.6,349.9z"/>
<path class="st6" d="M312.2,352.6c-0.5,0.1-0.9,0.8-1.3,1.3c0.5,0.4,0.9,1.1,1.4,1.1s1-0.6,2-1.4
	C313.2,353.1,312.6,352.5,312.2,352.6z"/>
<path class="st6" d="M306.3,338.3c0.5,0.5,0.8,1.3,1.4,1.5c0.3,0.1,1-0.6,1.9-1.2c-0.8-0.6-1.3-1.3-1.7-1.2
	C307.3,337.6,306.8,337.9,306.3,338.3z"/>
<path class="st6" d="M287.7,346.5c0.2,0.6,0.7,1.1,1.3,1.3c0.4,0,1.1-0.7,1.3-1.3c0.1-0.3-0.6-0.9-1.2-1.7
	C288.4,345.6,287.6,346.1,287.7,346.5z"/>
<path class="st6" d="M276.6,333.5c-1-0.8-1.5-1.5-2-1.5s-1,0.8-1.5,1.2c0.4,0.4,0.8,1,1.3,1.1S275.5,333.9,276.6,333.5z"/>
<path class="st6" d="M318,339.9c0-0.5-0.7-0.9-1.1-1.3c-0.4,0.4-1.1,0.8-1.1,1.2s0.5,0.9,1.1,1.8C317.4,340.8,318,340.3,318,339.9z"
	/>
<path class="st6" d="M305.5,351.8c-0.5,0.1-1,0.7-1.6,1.1c0.4,0.4,0.8,1,1.2,1.1s1-0.4,1.9-0.8C306.4,352.5,305.9,351.8,305.5,351.8
	z"/>
<path class="st6" d="M228.9,298.5c-0.2,0.4,0.4,1.1,0.6,1.7l1-0.5l1.4-1.2c-0.5-0.4-0.9-1.1-1.4-1
	C229.8,297.6,229.3,297.9,228.9,298.5z"/>
<path class="st6" d="M327.8,371.6c0.4,0.4,0.8,1,1.2,1.1s1.1-0.4,2-0.8c-0.8-0.6-1.3-1.3-1.8-1.3S328.3,371.2,327.8,371.6z"/>
<path class="st6" d="M323.5,344c0.1,0.5,0.6,0.9,1.2,1.7l1.5-1.7c-0.5-0.3-1-0.8-1.5-0.8S323.4,343.8,323.5,344z"/>
<path class="st6" d="M238.7,318.5c0.5,0.3,1,0.6,1.5,0.8c0.4,0,0.9-0.5,1.8-1c-1-0.5-1.6-1-2.1-0.9S239.1,318.1,238.7,318.5z"/>
<path class="st6" d="M335.2,340.7c0.4,0.3,0.9,0.9,1.3,0.9s1-0.5,2.1-1.1c-1-0.4-1.6-0.9-2-0.8C336.1,339.9,335.6,340.3,335.2,340.7
	z"/>
<path class="st6" d="M250.2,374.5c-0.6,0.2-1.1,0.5-1.5,0.9l1.2,1.5l1.4-1.5C250.9,375.1,250.5,374.5,250.2,374.5z"/>
<path class="st5" d="M297.5,278.1c0,0.1-0.1,0.1-0.1,0.2l0,0L297.5,278.1z"/>
<path class="st12" d="M306,274.9c1.5,0.6,3,1.2,4.4,1.9l0,0C308.9,276.1,307.5,275.5,306,274.9z"/>
<linearGradient id="SVGID_1_" gradientUnits="userSpaceOnUse" x1="319.8797" y1="-587.8229" x2="295.0697" y2="-625.9329" gradientTransform="matrix(1 0 0 -1 0 -312.37)">
	<stop  offset="0" style="stop-color:#FFFFFF;stop-opacity:0"/>
	<stop  offset="1" style="stop-color:#FF5400"/>
</linearGradient>
<path class="st13" d="M334.4,274.7L334.4,274.7c-0.3,1.2-0.6,2.3-1,3.5L317.1,309l0,0c-1.2,2.5-2.5,4.9-3.7,7.4
	c-0.4,0.8-1.2,1.3-2.1,1.5c-0.6,0-1.4-1-1.8-1.7c-0.6-0.9-1-1.9-1.2-2.9c-0.4-1.7-1.5-2.4-3-2c-1.3,0.2-2.2,1.4-2,2.8v0.1v0.2
	c0.1,0.4,0.2,0.7,0.3,1.1c-0.2,0.8-0.3,1.8-0.8,2.2c-2,1.6-4.9,1.3-6.6-0.6c-1.2-1.5-2.3-1.5-3.9-0.5c-1.9,1.1-4.4,0.5-5.5-1.4l0,0
	c-0.2-0.7-0.2-1.5,0.2-2.1c0.4-0.7,1.4-1,1.9-1.7c0.5-0.6,0.8-1.4,0.9-2.2c0-0.2-1.1-0.7-1.7-0.8c-1.2-0.2-2.3-0.4-3-1.8
	c-0.6-1-0.6-2.3,0.1-3.2c2.5-4.6,4.8-9.3,7.1-13.9c1.8-3.7,3.6-7.3,5.4-11c3.4,1.4,10.1-2.8,13-1.5c0.5,0.3,1,0.5,1.6,0.6
	c1.5,0.6,3.1,0.9,4.7,0.9c0.5,0,1,0,1.5-0.1c1.1-0.1,2.1-0.4,3.1-0.8c0.5-0.2,1-0.5,1.5-0.7s1.2-0.7,1.8-1c0.6-0.3,1.2-0.6,1.8-0.8
	c0.6-0.2,1.2-0.4,1.9-0.6c0.3-0.1,0.6-0.1,1-0.2c0.3-0.1,0.7-0.1,1-0.1h0.4c1.3,0.1,2.6,0.3,3.9,0.6L334.4,274.7z"/>
<path class="st12" d="M326.3,274.9c-0.6,0.2-1.2,0.5-1.8,0.8C325.1,275.4,325.7,275.2,326.3,274.9z"/>
<linearGradient id="SVGID_2_" gradientUnits="userSpaceOnUse" x1="323.6876" y1="-590.3014" x2="298.8875" y2="-628.4114" gradientTransform="matrix(1 0 0 -1 0 -312.37)">
	<stop  offset="0" style="stop-color:#FFFFFF"/>
	<stop  offset="1" style="stop-color:#FF5400"/>
</linearGradient>
<path class="st14" d="M326.3,274.9c-0.6,0.2-1.2,0.5-1.8,0.8C325.1,275.4,325.7,275.2,326.3,274.9z"/>
<path class="st12" d="M316.6,278.3c-1.6,0-3.2-0.3-4.7-0.9C313.4,278,315,278.3,316.6,278.3z"/>
<linearGradient id="SVGID_3_" gradientUnits="userSpaceOnUse" x1="317.0239" y1="-585.959" x2="292.2139" y2="-624.0691" gradientTransform="matrix(1 0 0 -1 0 -312.37)">
	<stop  offset="0" style="stop-color:#FFFFFF"/>
	<stop  offset="1" style="stop-color:#FF5400"/>
</linearGradient>
<path class="st15" d="M316.6,278.3c-1.6,0-3.2-0.3-4.7-0.9C313.4,278,315,278.3,316.6,278.3z"/>
<path class="st12" d="M310.3,276.8c0.5,0.3,1,0.5,1.6,0.6C311.4,277.2,310.8,277,310.3,276.8z"/>
<linearGradient id="SVGID_4_" gradientUnits="userSpaceOnUse" x1="314.4702" y1="-584.2931" x2="289.6602" y2="-622.4031" gradientTransform="matrix(1 0 0 -1 0 -312.37)">
	<stop  offset="0" style="stop-color:#FFFFFF"/>
	<stop  offset="1" style="stop-color:#FF5400"/>
</linearGradient>
<path class="st16" d="M310.3,276.8c0.5,0.3,1,0.5,1.6,0.6C311.4,277.2,310.8,277,310.3,276.8z"/>
<path class="st12" d="M328.2,274.3c-0.6,0.2-1.3,0.4-1.9,0.6C327,274.7,327.6,274.5,328.2,274.3z"/>
<linearGradient id="SVGID_5_" gradientUnits="userSpaceOnUse" x1="324.6662" y1="-590.9406" x2="299.8662" y2="-629.0505" gradientTransform="matrix(1 0 0 -1 0 -312.37)">
	<stop  offset="0" style="stop-color:#FFFFFF"/>
	<stop  offset="1" style="stop-color:#FF5400"/>
</linearGradient>
<path class="st17" d="M328.2,274.3c-0.6,0.2-1.3,0.4-1.9,0.6C327,274.7,327.6,274.5,328.2,274.3z"/>
<path class="st5" d="M334.4,274.7L334.4,274.7c0.1,0,0.1,0,0-0.1V274.7z"/>
<path class="st12" d="M333.9,266.2l-0.6,0.9L333.9,266.2z"/>
<path class="st12" d="M334.4,274.7c-1.3-0.3-2.6-0.4-3.9-0.6C331.8,274.2,333.1,274.4,334.4,274.7z"/>
<path class="st12" d="M334.4,274.7L334.4,274.7v-0.1l0,0V274.7z"/>
<path class="st18" d="M323.3,244.9L323.3,244.9L323.3,244.9z"/>
<path class="st5" d="M310.3,276.8L310.3,276.8c0.5,0.3,1,0.5,1.6,0.6c1.5,0.6,3.1,0.9,4.7,0.9c0.5,0,1,0,1.5-0.1
	c1.1-0.1,2.1-0.4,3.1-0.8c0.5-0.2,1-0.5,1.5-0.7s1.2-0.7,1.8-1c0.6-0.3,1.2-0.6,1.8-0.8c0.6-0.2,1.2-0.4,1.9-0.6
	c0.3-0.1,0.6-0.1,1-0.2s0.6-0.1,1-0.1h0.4c1.3,0.1,2.6,0.3,3.9,0.6v-0.2c0.6-2.8,0.8-5.6,0.5-8.4v-0.1c-0.4-3.1-1.2-6.2-2.5-9.1
	c-1-1.9-0.2-4.3,1.7-5.3c0,0,0,0,0.1,0c0.4-0.2,0.9-0.3,1.3-0.4c0.1,0,0.2-0.1,0.3-0.1h0.1l0.7-1.2l0,0l-0.2-1
	c-0.4-0.3-0.6-0.8-0.4-1.2l0.9-1.9c0.2-0.4,0-1-0.4-1.2l-8.5-4.1c-0.4-0.2-1,0-1.2,0.4l-0.9,1.9c-0.2,0.4-0.7,0.6-1.2,0.4l0,0l0,0
	l-0.9,0.6l0,0l-0.4,1v0.5c1.3,2.6,0.7,4.5-2,5.5c-1.9,0.7-3.8,1.3-5.6,2.1c-3.6,1.7-7.1,3.6-9,7.2c-2.2,4.1-7.4,13.8-9.2,18l0,0
	l-0.1,0.2C300.8,279.7,307.5,275.4,310.3,276.8"/>
<circle id="미세플라스틱-182-2" class="st6" cx="134.9" cy="206.2" r="1.4"/>
<circle id="미세플라스틱-182-3" class="st6" cx="127.1" cy="188.9" r="1.4"/>
<circle id="미세플라스틱-182-4" class="st6" cx="134.7" cy="179.3" r="1.4"/>
<circle id="미세플라스틱-182-5" class="st6" cx="104.4" cy="173.6" r="1.4"/>
<circle id="미세플라스틱-182-6" class="st6" cx="106.2" cy="181.2" r="1.4"/>
<circle id="미세플라스틱-182-7" class="st6" cx="64.2" cy="212.4" r="1.4"/>
<circle id="미세플라스틱-182-8" class="st6" cx="57.6" cy="219.9" r="1.4"/>
<circle id="미세플라스틱-182-9" class="st6" cx="48.3" cy="216" r="1.4"/>
<circle id="미세플라스틱-182-10" class="st6" cx="46.6" cy="229.7" r="1.4"/>
<circle id="미세플라스틱-182-11" class="st6" cx="62.4" cy="232.2" r="1.4"/>
<circle id="미세플라스틱-182-12" class="st6" cx="128" cy="212.8" r="1.4"/>
<circle id="미세플라스틱-182-13" class="st6" cx="126.9" cy="202.3" r="1.4"/>
<circle id="미세플라스틱-182-14" class="st6" cx="133.7" cy="194.2" r="1.4"/>
<circle id="미세플라스틱-182-15" class="st6" cx="180.5" cy="249.5" r="1.4"/>
<circle id="미세플라스틱-182-16" class="st6" cx="186.3" cy="260.5" r="1.4"/>
<circle id="미세플라스틱-182-17" class="st6" cx="183.1" cy="275.9" r="1.4"/>
<circle id="미세플라스틱-182-18" class="st6" cx="184" cy="304.2" r="1.4"/>
<circle id="미세플라스틱-182-19" class="st6" cx="193.4" cy="298.6" r="1.4"/>
<circle id="미세플라스틱-182-20" class="st6" cx="193.4" cy="309.6" r="1.4"/>
<circle id="미세플라스틱-182-21" class="st6" cx="187" cy="319.9" r="1.4"/>
<circle id="미세플라스틱-182-22" class="st6" cx="195.2" cy="319.9" r="1.4"/>
<circle id="미세플라스틱-182-23" class="st6" cx="200.3" cy="312.8" r="1.4"/>
<circle id="미세플라스틱-182-24" class="st6" cx="200.3" cy="327.4" r="1.4"/>
<circle id="미세플라스틱-182-25" class="st6" cx="198.6" cy="331.2" r="1.4"/>
<circle id="미세플라스틱-182-26" class="st6" cx="191.9" cy="327.4" r="1.4"/>
<circle id="미세플라스틱-182-27" class="st6" cx="191.9" cy="337.2" r="1.4"/>
<circle id="미세플라스틱-182-28" class="st6" cx="191.9" cy="270.5" r="1.4"/>
<circle id="미세플라스틱-182-29" class="st6" cx="152.1" cy="249.9" r="1.4"/>
<circle id="미세플라스틱-182-30" class="st6" cx="140.7" cy="248.3" r="1.4"/>
<circle id="미세플라스틱-182-31" class="st6" cx="128.2" cy="255.4" r="1.4"/>
<circle id="미세플라스틱-182-32" class="st6" cx="114.2" cy="248.6" r="1.4"/>
<circle id="미세플라스틱-182-33" class="st6" cx="98.4" cy="249.7" r="1.4"/>
<circle id="미세플라스틱-182-34" class="st6" cx="73.7" cy="254.3" r="1.4"/>
<circle id="미세플라스틱-182-35" class="st6" cx="88.4" cy="255.8" r="1.4"/>
<path class="st19" d="M1302.9,307.8c0.3-3.8-5.2-29.1-8.6-38.6c-2.3-6.1-5-12.1-8.1-17.8c-1.4-7.3-3.9-18.8-7.5-33
	c-2.4-9.3-5.8-22.7-11.6-25.7c-1.8-0.9-3.8-1.5-5.8-1.6c-6.9-3.6-17.4-4.2-23.3-8.3l-0.3-0.1l-0.3-12.8c3.1-3,5-7.5,6.1-12.4
	c1.9-1.4,3.3-5,3.2-7.5c-0.1-1.4-0.9-2.7-2.1-3.4c-0.4-11.7-7.7-19-16.7-19s-16.3,7.3-16.7,19c-1.2,0.7-2,2-2.1,3.4
	c-0.1,2.4,1.2,6,3.2,7.5c1.1,5,3,9.5,6.2,12.6l-0.3,12.4l-0.6,0.4c-5.9,4.2-16.4,4.8-23.4,8.3c-1.9,0.2-3.8,0.7-5.6,1.6
	c-5.8,3-9.2,16.4-11.6,25.7c-3.6,14.2-6.1,25.6-7.5,33c-3,5.8-5.7,11.8-8.1,17.9c-3.4,9.4-8.9,34.8-8.6,38.6c-0.3,5.5-1.3,21.1,0,26
	c0.8,3.1,5.1,4.4,6.6,4.4s0.5-15.8,3.2-17.8s4,12.2,5.8,9.5c2.1-3.4-2-17.1-4.8-23.9c0.5-2.9,1.5-5.7,3-8.2
	c5.8-10.7,11.8-24.9,12.9-29.1c0.7-2.8,1.3-5.6,1.7-8.5c4.2-8.9,7.9-15.4,13-31.1c1.7,9.4,3.5,19.6,5,28.8
	c0.8,5.7,0.9,11.5,0.4,17.2c-0.6,1.2-1.1,2.5-1.4,3.8c-5.6,19.4-6.6,33.4-4.7,55.9c1.6,19,3.7,36.8,5.3,48.5
	c-1.3,4.1-2.8,9.7-3.6,19.9c-1.3,14.5,3,41.6,3.4,56.2c-0.1,0.3-0.1,0.7-0.1,1c-0.3,17-5.9,19.1-5.8,24c0.1,4.6,6.1,5.6,10.2,6.1
	c3.9,0.6,7.7-1.6,9.3-5.2c1.4-4.2,1-9.6,0.1-19c-0.2-1.9-0.5-3.7-1-5.5c0.2-12.8,3.2-33.6,4.2-46.9c0.6-9.4,0.3-18.9-1-28.3
	c1.7-11,6-37.1,7-50.8c0.5-6,0.9-11.4,1.2-16.4c3.5,0.5,7.1,0.5,10.6,0c0.3,5.1,0.8,10.4,1.2,16.4c1.1,13.8,5.3,39.8,7,50.8
	c-1.3,9.4-1.6,18.9-1,28.3c1.1,13.4,4,34.2,4.2,46.9c-0.5,1.8-0.9,3.6-1,5.5c-0.9,9.3-1.3,14.7,0.1,19c1.6,3.6,5.4,5.8,9.3,5.2
	c4-0.5,10.1-1.5,10.2-6.1c0.1-5-5.5-7.1-5.8-24c0-0.3-0.1-0.7-0.1-1c0.3-14.5,4.6-41.7,3.4-56.2c-0.4-6.8-1.6-13.4-3.6-19.9
	c1.6-11.6,3.7-29.5,5.3-48.5c1.8-22.4,0.8-36.4-4.7-55.9c-0.4-1.5-1-2.9-1.7-4.3c-0.5-5.6-0.3-11.2,0.4-16.7
	c1.5-9.4,3.4-19.6,5.1-29.2c5.3,16.1,8.9,22.6,13.2,31.7c0.5,3.1,1.1,6.1,1.7,8.5c1.1,4.2,7.1,18.4,12.9,29.1c1.4,2.6,2.5,5.3,3,8.2
	c-2.7,6.9-6.9,20.5-4.8,23.9c1.7,2.8,3.1-11.4,5.8-9.5s1.7,17.8,3.2,17.8s5.8-1.3,6.6-4.4C1304.1,328.9,1303.1,313.3,1302.9,307.8z"
	/>
<circle id="미세플라스틱-177-2" class="st6" cx="1221.9" cy="247.2" r="2.5"/>
<circle id="미세플라스틱-178-2" class="st6" cx="1224.9" cy="242.5" r="2.5"/>
<circle id="미세플라스틱-179-2" class="st6" cx="1220" cy="237.8" r="2.5"/>
<circle id="미세플라스틱-180-2" class="st6" cx="1223" cy="236" r="2.5"/>
<circle id="미세플라스틱-181-2" class="st6" cx="1227.4" cy="248.5" r="2.5"/>
<circle id="미세플라스틱-182-36" class="st6" cx="1217.8" cy="244.1" r="2.5"/>
<circle id="미세플라스틱-183-2" class="st6" cx="1215.3" cy="240.6" r="2.5"/>
<circle id="미세플라스틱-184-2" class="st6" cx="1230.7" cy="244.1" r="2.5"/>
<circle id="미세플라스틱-185-2" class="st6" cx="1226.7" cy="237.8" r="2.5"/>
<circle id="미세플라스틱-186-2" class="st6" cx="1230.2" cy="236" r="2.5"/>
<circle id="미세플라스틱-187-2" class="st6" cx="1234.5" cy="247.4" r="2.5"/>
<circle id="미세플라스틱-188-2" class="st6" cx="1237.1" cy="242.5" r="2.5"/>
<circle id="미세플라스틱-189-2" class="st6" cx="1241.8" cy="247.2" r="2.5"/>
<circle id="미세플라스틱-190-2" class="st6" cx="1233.2" cy="239.6" r="2.5"/>
<circle id="미세플라스틱-191-2" class="st6" cx="1238" cy="256.8" r="2.5"/>
<circle id="미세플라스틱-192-2" class="st6" cx="1241.8" cy="253.4" r="2.5"/>
<circle id="미세플라스틱-193-2" class="st6" cx="1236.3" cy="263" r="2.5"/>
<circle id="미세플라스틱-194-2" class="st6" cx="1233.2" cy="266.1" r="2.5"/>
<circle id="미세플라스틱-195-2" class="st6" cx="1241.8" cy="260.6" r="2.5"/>
<circle id="미세플라스틱-196-2" class="st6" cx="1233.2" cy="252.9" r="2.5"/>
<circle id="미세플라스틱-197-2" class="st6" cx="1238" cy="251" r="2.5"/>
<circle id="미세플라스틱-198-2" class="st6" cx="1231.3" cy="259.9" r="2.5"/>
<circle id="미세플라스틱-199-2" class="st6" cx="1228.6" cy="265" r="2.5"/>
<circle id="미세플라스틱-200-2" class="st6" cx="1221.3" cy="265" r="2.5"/>
<circle id="미세플라스틱-201-2" class="st6" cx="1225.3" cy="267.1" r="2.5"/>
<circle id="미세플라스틱-202-2" class="st6" cx="1228.8" cy="255.2" r="2.5"/>
<circle id="미세플라스틱-203-2" class="st6" cx="1224.9" cy="260.6" r="2.5"/>
<circle id="미세플라스틱-204-2" class="st6" cx="1217.5" cy="260.6" r="2.5"/>
<circle id="미세플라스틱-205-2" class="st6" cx="1214.8" cy="258.1" r="2.5"/>
<circle id="미세플라스틱-206-2" class="st6" cx="1224.4" cy="252.9" r="2.5"/>
<circle id="미세플라스틱-207-2" class="st6" cx="1221.3" cy="256.1" r="2.5"/>
<circle id="미세플라스틱-208-2" class="st6" cx="1214.2" cy="254.4" r="2.5"/>
<circle id="미세플라스틱-209-2" class="st6" cx="1218.8" cy="251" r="2.5"/>
<circle id="미세플라스틱-210-2" class="st6" cx="1213.6" cy="247.4" r="2.5"/>
<circle id="미세플라스틱-211-2" class="st6" cx="1215.3" cy="249.2" r="2.5"/>
<path class="st20" d="M70,207H37.8v-15.1c0-1.1,0.9-2,2-2H68c1.1,0,2,0.9,2,2V207z"/>
<line class="st21" x1="0.4" y1="429.3" x2="197.7" y2="429.3"/>
<line class="st22" x1="227.5" y1="429.3" x2="425.5" y2="429.3"/>
<line class="st23" x1="226.9" y1="429.3" x2="392.8" y2="429.3"/>
<text transform="matrix(1 0 0 1 389.37 472.39)" class="st6 st24 st25">.</text>
<line class="st26" x1="419.4" y1="310.1" x2="462.2" y2="310.1"/>
<polygon class="st27" points="461.3,313.4 467,310.1 461.3,306.8 "/>
<path class="st5" d="M442.8,286l-2.2,2.3l-1.4-1.4l3.8-3.9h2v13.3h-2.3L442.8,286z"/>
<circle class="st28" cx="443.2" cy="289.6" r="10.9"/>
<line class="st26" x1="638.5" y1="310.1" x2="681.4" y2="310.1"/>
<polygon class="st27" points="680.5,313.4 686.1,310.1 680.5,306.8 "/>
<path class="st5" d="M657.4,294.5c5.2-3.9,7.2-5.7,7.2-7.6c-0.1-1.2-1.1-2.1-2.3-2l0,0h-0.1c-1.4,0-2.7,0.6-3.6,1.6l-1.4-1.5
	c1.2-1.4,3-2.2,4.9-2.1c2.6,0,4.8,1.5,4.8,4.1s-2.3,4.7-5.8,7.4h5.9v2.1h-9.7L657.4,294.5z"/>
<circle class="st28" cx="662.2" cy="289.6" r="10.9"/>
<line class="st26" x1="839.7" y1="310.1" x2="882.6" y2="310.1"/>
<polygon class="st27" points="881.6,313.4 887.3,310.1 881.6,306.8 "/>
<path class="st5" d="M860.2,292.7c1,1,2.3,1.6,3.7,1.6c1.8,0,2.8-0.8,2.8-2s-1.1-1.9-3-1.9h-1.5v-2h1.5c1.6,0,2.7-0.5,2.7-1.8
	s-1.2-1.9-2.7-1.9c-1.3,0-2.5,0.5-3.4,1.5l-1.2-1.5c1.2-1.4,3-2.2,4.9-2.1c2.9,0,4.8,1.4,4.8,3.6c-0.1,1.6-1.3,2.9-2.9,3.1
	c1.7,0.1,3,1.5,3.1,3.2c0,2.3-1.9,3.9-5,3.9c-1.9,0.1-3.8-0.7-5-2.2L860.2,292.7z"/>
<circle class="st28" cx="863.5" cy="289.6" r="10.9"/>
<line class="st26" x1="1076.9" y1="310.1" x2="1119.7" y2="310.1"/>
<polygon class="st27" points="1118.8,313.4 1124.5,310.1 1118.8,306.8 "/>
<path class="st5" d="M1101.4,293.2h-6.4v-1.9l5.5-8.4h3.2v8.3h1.8v2.1h-1.8v3h-2.3L1101.4,293.2L1101.4,293.2z M1097.3,291.1h4.1
	v-6.2L1097.3,291.1z"/>
<circle class="st28" cx="1100.7" cy="289.6" r="10.9"/>
<text transform="matrix(1 0 0 1 0.3999 444.44)" class="st6 st24 st29">Tiny pieces of plastic that are</text>
<text transform="matrix(1 0 0 1 0.3999 458.74)" class="st6 st24 st29">purposefully manufactured.</text>
<path class="st19" d="M492.6,256l0.5-0.1c0,0.6,0,0.6,0.9,1.6l-1.1,1l0.1,0.1l2.4-1.3l0.1,0.1l-0.6,1.1l3-0.6l0.1,0.2l-1.8,2
	l0.2,0.2c1.8-1.5,3.8-2.7,5.9-3.8c-1,1.1-2.4,1.9-2.6,3.6l0.4-0.4l5.4-4.3c0.5-0.4,1.2-0.6,1.9-0.5c1.4,0.2,2.9,0.1,4.3-0.3
	c0.4-0.1,0.8-0.2,1.1,0.2c0,0.1,0.3,0,0.5-0.1c0.6-0.1,1.1-0.2,1.7-0.1c1.1,0.3,2.3,0.3,3.4,0c0.6-0.1,1.2-0.2,1.8-0.2
	c-0.3,1.4-0.6,2.7-0.9,3.9c0,0.2-0.3,0.4-0.5,0.5c-0.4,0.2-0.9,0.3-1.3,0.5c-0.2,0.1-0.5,0.3-0.5,0.6c-0.1,0.6-0.5,0.7-1,0.8
	c-0.7,0.2-1.5,0.3-2.2,0.5c-0.5,0-0.9,0.4-1,0.9c-0.1,0.4-0.8,0.8-1.2,1c-0.9,0.5-1.7,1.2-2.2,2.1c-0.2,0.4-0.3,0.8-0.4,1.2l1.6-0.5
	c-1,1.8-2.6,3.1-2.9,5.3l4-2.1l0.1,0.2c-0.7,1.3-0.8,2.9-0.3,4.3c0.8-0.7,1.7-1.6,2.4-2.4c1.2-1.3,2.3-2.7,3.5-4
	c0.6-0.7,1.2-1.3,1.9-1.9c1-0.7,1.6-1.8,1.6-3c0-0.6,0.1-1.2,0.2-1.8c0.1-0.6,0.3-1.2,0.6-1.7c0.8-1.5,1.6-2.9,2.5-4.4
	c0.2-0.3,0.5-0.6,0.8-0.7c3.2-0.8,6.4-1.7,9.7-2.4c2.5-0.5,5.1-0.8,7.7-1.2c4.1-0.5,8.1-1.6,11.9-3.3c2.4-1,4.8-2,7.1-3
	c3.1-1.4,6-3.4,8.5-5.7c1.4-1.4,3.1-2.5,4.9-3.3c2.6-0.9,5.3-1.2,8-1c0.6,0,1.1-0.1,1.7-0.1c0.8,0,1.5,0.1,2.3,0.2
	c1.6,0.4,3.1,1,4.7,1.4c0.4,0.1,0.8,0.1,1.2,0.1c1,0,1.1-0.2,1.2-1.2c0-0.9-0.4-1.7-1-2.4c-1.1-1.1-2.5-1.9-4.1-2.2
	c-0.7-0.1-1.3-0.3-1.9-0.4c-1.8-0.4-3.5-1.4-4.7-2.8c-0.2-0.1-0.3-0.3-0.4-0.5c-0.4-1.2-1.3-2.1-2.5-2.5c-1.3-0.8-2.8-1.3-4.3-1.6
	c-3.3-0.2-6.6-1.1-9.9-0.2c-0.9,0.3-1.7,0.5-2.6,0.7c-1.2,0.3-1.8-0.1-1.8-1.4c-0.1-1.4,0-2.9,0.2-4.3c0.6-3.2,1.3-6.4,2.2-9.6
	c0.6-1.5,1.3-3,2-4.5c0.5-1.1,1-2.2,1.5-3.4c0.4-1.1,1-2.1,1.8-3c0.4-0.5,0.7-1.1,0.8-1.8c0.1-0.6,0.3-1.2,0.7-1.7
	c0.5-0.7,0.7-1.6,0.4-2.4c-0.1-0.2-0.2-0.5-0.3-0.7c-0.5-0.8-0.4-1.8,0.1-2.6c0.2-0.4,0.3-0.9,0.2-1.3c-0.2-1.6-0.5-3.1-0.7-4.7
	c-0.2-1.3-0.1-2.7-0.3-4c-0.3-2.1-0.7-4.2-1.1-6.2c-1.2-6.4-3.9-12.5-7.8-17.8c-1-1.6-2.5-2.9-4.3-3.6c-1.4-0.4-2.9-0.6-4.3-0.4
	l-0.1,0.2l1.8,0.8c-0.4,0.4-1.3,0.1-1.2,1c-0.5-0.1-1-0.2-1.5-0.3c-0.5,0-0.9,0.1-1.4,0.2c0.5,0.5,1.5,0.5,1.4,1.6
	c-1.5-0.9-3-0.2-4.5,0c1.2,0.3,1.4,1.6,2.7,2l-0.9,0.6l1.6,0.9c-0.6,0.5-1.4,0.6-2.2,0.4c-0.7-0.1-1.4-0.1-2.1,0
	c-0.1,0-0.2,0-0.3,0.1l-1.2,0.8l0.7,0.8c-0.4,0.5-1.3,0.2-1.3,1l-1.6,0.2v0.2l2.1,1.6l-2.3,0.8v0.2l2.1,1.2c0.3,0.2,0.8,0.2,0.8,0.8
	c0,0.2,0.4,0.3,0.6,0.5s0.4,0.2,0.6,0.3c0,0.3-0.1,0.5-0.2,0.8c-0.1,0.2-0.3,0.4-0.5,0.6c-0.5,0.2-0.6,0.5-0.3,0.9
	c0.2,0.3,0.5,0.6,0.8,0.8c0.2,0.2,0.5,0.2,0.7,0.4c0.1,0.1,0.2,0.3,0.2,0.5c0,0.1-0.3,0.2-0.5,0.3c-0.4,0.1-0.9,0.1-1.2,0.2
	l-0.5,1.2l0.5,0.6l-1.9,0.6l0.2,0.7l-1.7,0.3v0.2l1.3,1.2l-0.1,0.2c-1.3-0.3-2.8-1.3-3.7,0.7c0.4,0.2,0.7,0.4,1,0.7s0.4,0.5-0.1,0.7
	l-1.8,0.8v0.2h2.5v0.2c-1.5,0.4-3,1-4.3,1.9c0.8,0.7,1.8,0.2,2.8,0.6l-2.1,0.6l0.3,0.8l-1.9,0.5l0.4,1.5c-1.3,0.4-1.3,0.4-1.3,1.6
	h-0.8l1.4,2.6l-1.4,1.1c-0.4,0.3-0.5,0.6,0,1c0.4,0.3,0.7,0.7,0.9,1.1c0.1,0.4,0,0.9-0.2,1.3c-0.6,0.6-0.8,1.5-0.4,2.2
	c0.1,0.4,0.2,0.9,0.1,1.3c-0.1,0.7,0,0.9,0.7,0.9c0.3,0,0.7-0.1,1-0.1l-1.6,2l0.2,0.2l1.2-0.3l-1.9,2.5l0.7,0.1l-0.7,0.6
	c-0.4-0.4-0.7-0.9-0.9-1.4c-3.3-6.3-8-11.7-13.7-15.8c-3.3-2.4-6.8-4.6-10.2-6.9c-6.8-4.4-13.2-9.3-19.7-14.1
	c-6.1-4.6-11.9-9.5-18.4-13.7c-1.1-0.7-2-1.7-3.1-2.4c-0.9-0.6-1.9-1.1-2.9-1.6c-0.1,0-0.1,0-0.2-0.1c-0.6,0.6-1.2,0.2-1.9,0.2
	c-0.1,0-0.1,0-0.2,0.1l0.7,0.9c-0.5,0.6-1.4-0.3-1.6,0.7c-0.2,0-0.5-0.1-0.7-0.2c-0.3-0.2-0.8-0.1-1,0.2c-0.4,0.3-0.8,0.5-1.3,0.6
	l-0.2,0.3c0.3,0.2,0.6,0.3,0.9,0.5s0.6,0.4,0.8,0.6l-1,0.3l-0.1,0.2l1.5,0.8h-0.6c-1.4,0.1-2.9,0.3-4.3,0.5c-0.2,0-0.6-0.1-0.6,0.5
	c0,0.1-0.6,0.2-1.1,0.4l2.9,1.5l-0.1,0.2l-0.8,0.4l1.5,1v0.1c-0.6,0.6-0.6,1,0.3,1.2c1.2,0.3,2.5,0.4,3.8,0.6c0.2,0,0.4,0,0.6,0.1
	l-1,0.6c0.9,1,2.2,1,3,1.4l0.3,1.2c0.7,0.9,1.5,1.8,2.2,2.7c-0.3,0.3,0.1,0.6,0.5,0.7c0.5,0.2,1.1,0.3,1.6,0.4
	c-0.5,0.4-0.5,1.1-0.1,1.6l0,0l0.1,0.1c0.4,0.4,0.9,0.7,1.4,1l-0.7,0.5c0.4,0.3,0.9,0.6,1.3,0.8s0.8,0.5,1.1,0.6
	c1.4,0.5,1.3,1.7,1.7,2.7c0,0.1,0,0.1,0.1,0.2c0.1,0,0.1,0,0.1,0.1l0,0l0.2-0.4c0.9-0.1,0.9,0.8,1.3,1.2s0.8,0.8,1.1,1.3
	c0.6-0.2,0.8,0.3,1,0.7c0.7,1.3,1.2,2.6,1.9,3.8c0.2,0.3,0.3,1.1,1,0.7c0,1.8,1,3,2.1,4.3c0.6,0.5,1.2,1,1.9,1.5
	c0.3,0.3,0.5,0.7,0.6,1.1c0.1,0.3,0.1,0.6,0.2,0.8s0.2,0.5,0.3,0.5c1.1,0.1,1.4,1.2,2.3,1.5c0.5,0.1,0.9,0.4,1.1,0.9l0.3-0.1
	l0.1,0.9l0.7-0.4l-0.3,1.1c0.3,0.1,0.6,0.2,0.9,0.2c0.7,0,1,0.3,0.8,1l-0.1,0.6l0.6,0.1l0.1,0.6l0.9-0.4l-0.3,2.1l1.2-0.4
	c-0.2,1.3-1,2.6-0.5,3.9c0.8,0,1.6-0.5,2-1.2c0.1-0.2,0.6-0.3,1-0.6c0.2,1.5,0.5,2.9-0.2,4.2c0.8,0.2,0.8-0.6,1.2-0.8l0.3,0.6
	c0.1,0.4,0.4,0.7,0.8,0.6l0,0c0.5,0,0.6,0.2,0.5,0.7s-0.3,1.2-0.4,1.9l0.3,0.1l0.7-0.8c0.5,0.3,0.1,1.5,1.2,1.3
	c-0.1,0.3-0.2,0.7-0.2,1c-0.2,0.4,0,1,0.4,1.2c0,0,0,0,0.1,0c0.5,0.3,0.8,0.8,0.8,1.4c0.2,0.5,0.5,1,0.9,1.5
	c0.2,0.2,0.4,0.5,0.5,0.8l0.6,1.2c0.4,0.3,0.6,0.8,0.6,1.3c0,0.6,0.3,0.7,0.8,0.5c0.2,0.4,0,1.1,0.7,1.2c0.1,0,0.1,0.3,0.1,0.4
	c0.2,0.6,0.4,1.2,0.7,1.9c0.1,0.2,0.4,0.2,0.8,0.4c0,0.2,0.1,0.5,0.1,0.7c0,0.7,0.5,1.3,1.2,1.4c0.4,0.1,0.5,0.3,0.5,0.6v1.8h2
	c0,0.4,0.1,0.8,0.2,1.2s0.1,0.9,0.7,1c0.2,0,0.4,0.5,0.5,0.7c1,0,1,0,1.2,1c0.1,0.2,0.1,0.4,0.1,0.6c0,0.4,0.3,0.8,0.7,0.9h0.1
	c0.9,0.2,1,0.5,0.6,1.3c-0.1,0.4-0.2,0.7-0.2,1.1c0.9-0.4,1.1-1.2,1.6-2.1l0.4,1.2l0.7-0.9v2h0.2l0.3-0.6c0.9,0.9,0.5,2.1,0.5,3.2
	l0.8-0.1l-0.6,1.8l0.8-0.4c-1.1,1.4-0.7,2.7-0.3,4c0.2,0.6,0.3,1.1,0.5,1.7c0,0.3-0.1,0.5-0.3,0.7c-1.4,1-2.8,1.9-4.2,2.9
	c-2.4,1.7-5.1,2.9-7.9,3.7c-3.6,1-7.2,2.2-10.7,3.4c-0.8,0.3-1.7,0.5-2.5,0.7c-0.9,0.1-1.7,0.8-1.9,1.7c0.4,0,0.8-0.2,1,0.4
	s0.8,1.3-0.4,1.8L492.6,256z"/>
<circle id="미세플라스틱-142" class="st6" cx="535.1" cy="232.3" r="1.4"/>
<circle id="미세플라스틱-143" class="st6" cx="536.7" cy="229.8" r="1.4"/>
<circle id="미세플라스틱-144" class="st6" cx="534.1" cy="227.2" r="1.4"/>
<circle id="미세플라스틱-145" class="st6" cx="535.7" cy="226.2" r="1.4"/>
<circle id="미세플라스틱-146" class="st6" cx="538.1" cy="233.1" r="1.4"/>
<circle id="미세플라스틱-147" class="st6" cx="532.8" cy="230.6" r="1.4"/>
<circle id="미세플라스틱-148" class="st6" cx="531.5" cy="228.7" r="1.4"/>
<circle id="미세플라스틱-149" class="st6" cx="540" cy="230.6" r="1.4"/>
<circle id="미세플라스틱-150" class="st6" cx="537.7" cy="227.2" r="1.4"/>
<circle id="미세플라스틱-151" class="st6" cx="539.6" cy="226.2" r="1.4"/>
<circle id="미세플라스틱-152" class="st6" cx="542" cy="232.5" r="1.4"/>
<circle id="미세플라스틱-153" class="st6" cx="543.4" cy="229.8" r="1.4"/>
<circle id="미세플라스틱-154" class="st6" cx="546" cy="232.3" r="1.4"/>
<circle id="미세플라스틱-155" class="st6" cx="541.3" cy="228.2" r="1.4"/>
<circle id="미세플라스틱-156" class="st6" cx="543.9" cy="237.6" r="1.4"/>
<circle id="미세플라스틱-157" class="st6" cx="546" cy="235.8" r="1.4"/>
<circle id="미세플라스틱-158" class="st6" cx="543" cy="241.1" r="1.4"/>
<circle id="미세플라스틱-159" class="st6" cx="541.3" cy="242.7" r="1.4"/>
<circle id="미세플라스틱-160" class="st6" cx="546" cy="239.7" r="1.4"/>
<circle id="미세플라스틱-161" class="st6" cx="541.3" cy="235.5" r="1.4"/>
<circle id="미세플라스틱-162" class="st6" cx="543.9" cy="234.4" r="1.4"/>
<circle id="미세플라스틱-163" class="st6" cx="540.3" cy="239.3" r="1.4"/>
<circle id="미세플라스틱-164" class="st6" cx="538.8" cy="242.1" r="1.4"/>
<circle id="미세플라스틱-165" class="st6" cx="534.8" cy="242.1" r="1.4"/>
<circle id="미세플라스틱-166" class="st6" cx="537" cy="243.3" r="1.4"/>
<circle id="미세플라스틱-167" class="st6" cx="538.9" cy="236.7" r="1.4"/>
<circle id="미세플라스틱-168" class="st6" cx="536.7" cy="239.7" r="1.4"/>
<circle id="미세플라스틱-169" class="st6" cx="532.7" cy="239.7" r="1.4"/>
<circle id="미세플라스틱-170" class="st6" cx="531.2" cy="238.3" r="1.4"/>
<circle id="미세플라스틱-171" class="st6" cx="536.5" cy="235.5" r="1.4"/>
<circle id="미세플라스틱-172" class="st6" cx="534.8" cy="237.2" r="1.4"/>
<circle id="미세플라스틱-173" class="st6" cx="530.8" cy="236.2" r="1.4"/>
<circle id="미세플라스틱-174" class="st6" cx="533.4" cy="234.4" r="1.4"/>
<circle id="미세플라스틱-175" class="st6" cx="530.6" cy="232.5" r="1.4"/>
<circle id="미세플라스틱-176" class="st6" cx="531.5" cy="233.5" r="1.4"/>
<line class="st23" x1="495.1" y1="516.7" x2="1059.7" y2="516.7"/>
<path class="st23" d="M410.9,543.2"/>
<path class="st23" d="M0.4,543.2"/>
<line class="st23" x1="0.4" y1="516.7" x2="413.2" y2="516.7"/>
<path class="st5" d="M1050,322c-1.1-3.8-3.4-7.1-6.4-9.6c-2.8-2.2-6-3.8-9.5-4.7c3.4-1.8,6.6-4,9.6-6.4c3.1-2.6,5.2-6.1,6.1-10
	c-4.7,0.2-9.3,1.6-13.4,4c-3.9,2.3-6.4,4.1-9.2,5.1c-2.1,0.7-4.4,1-6.6,0.9c-2.7-0.2-5.3-0.9-7.7-2.1c5-1.7,9.5-4.9,12.7-9.1
	c0,0-4.7-3.8-18.4-3.9c-5.2,0-10.4,0.5-15.5,1.6c-5.8-2.4-12.1-3.6-18.4-3.5c-1.9,0-3.9,0.1-5.8,0.3c-5.9,0.7-11.6,2.2-17.1,4.5
	c-10.6,4.4-18.8,11-21.7,15.7c-0.7,1.2,0.6,2.1,0.6,3s-1.4,2-0.8,2.8c2.2,3.3,8.3,6.7,17.2,9.4c2.3,0.7,4.9,1.4,7.7,2
	c3.1,3.5,6.7,6.6,10.6,9.3c6.6,4.3,16.4,4.5,16.4,4.5c-2.3-4-4.9-7.7-7.9-11.2l3.7,0.2c5.9,0.4,11.9-0.1,17.7-1.3
	c4.4,1.8,9.2,2.5,13.9,2.3c10.3-0.8,15.5-4,15.5-4s-2.5-2.8-11.5-5.8c2.7-1.6,5-2.6,7.3-2.6c3,0,5.9,0.7,8.6,2
	c2.8,1.3,5.6,3,9.5,4.6C1044.8,323,1050,322,1050,322z M942.4,308.3c-1.9,0-3.5-1.6-3.5-3.5s1.6-3.5,3.5-3.5s3.5,1.6,3.5,3.5l0,0
	C945.9,306.7,944.3,308.3,942.4,308.3z"/>
<circle id="미세플라스틱-37" class="st6" cx="982.9" cy="297.4" r="1.4"/>
<circle id="미세플라스틱-38" class="st6" cx="984.6" cy="294.8" r="1.4"/>
<circle id="미세플라스틱-39" class="st6" cx="981.9" cy="292.2" r="1.4"/>
<circle id="미세플라스틱-40" class="st6" cx="983.5" cy="291.2" r="1.4"/>
<circle id="미세플라스틱-41" class="st6" cx="986" cy="298.1" r="1.4"/>
<circle id="미세플라스틱-42" class="st6" cx="980.7" cy="295.7" r="1.4"/>
<circle id="미세플라스틱-43" class="st6" cx="979.4" cy="293.7" r="1.4"/>
<circle id="미세플라스틱-44" class="st6" cx="987.7" cy="295.7" r="1.4"/>
<circle id="미세플라스틱-45" class="st6" cx="985.6" cy="292.2" r="1.4"/>
<circle id="미세플라스틱-46" class="st6" cx="987.5" cy="291.2" r="1.4"/>
<circle id="미세플라스틱-47" class="st6" cx="989.9" cy="297.5" r="1.4"/>
<circle id="미세플라스틱-48" class="st6" cx="991.3" cy="294.8" r="1.4"/>
<circle id="미세플라스틱-49" class="st6" cx="993.8" cy="297.4" r="1.4"/>
<circle id="미세플라스틱-50" class="st6" cx="989.1" cy="293.2" r="1.4"/>
<circle id="미세플라스틱-51" class="st6" cx="991.8" cy="302.7" r="1.4"/>
<circle id="미세플라스틱-52" class="st6" cx="993.8" cy="300.8" r="1.4"/>
<circle id="미세플라스틱-53" class="st6" cx="990.9" cy="306.1" r="1.4"/>
<circle id="미세플라스틱-54" class="st6" cx="989.1" cy="307.8" r="1.4"/>
<circle id="미세플라스틱-55" class="st6" cx="993.8" cy="304.7" r="1.4"/>
<circle id="미세플라스틱-56" class="st6" cx="989.1" cy="300.5" r="1.4"/>
<circle id="미세플라스틱-57" class="st6" cx="991.8" cy="299.4" r="1.4"/>
<circle id="미세플라스틱-58" class="st6" cx="988.1" cy="304.3" r="1.4"/>
<circle id="미세플라스틱-59" class="st6" cx="986.6" cy="307.2" r="1.4"/>
<circle id="미세플라스틱-60" class="st6" cx="982.6" cy="307.2" r="1.4"/>
<circle id="미세플라스틱-61" class="st6" cx="984.8" cy="308.3" r="1.4"/>
<circle id="미세플라스틱-62" class="st6" cx="986.8" cy="301.7" r="1.4"/>
<circle id="미세플라스틱-63" class="st6" cx="984.6" cy="304.7" r="1.4"/>
<circle id="미세플라스틱-64" class="st6" cx="980.5" cy="304.7" r="1.4"/>
<circle id="미세플라스틱-65" class="st6" cx="979" cy="303.3" r="1.4"/>
<circle id="미세플라스틱-66" class="st6" cx="984.3" cy="300.5" r="1.4"/>
<circle id="미세플라스틱-67" class="st6" cx="982.6" cy="302.3" r="1.4"/>
<circle id="미세플라스틱-68" class="st6" cx="978.7" cy="301.3" r="1.4"/>
<circle id="미세플라스틱-69" class="st6" cx="981.3" cy="299.4" r="1.4"/>
<circle id="미세플라스틱-70" class="st6" cx="978.4" cy="297.5" r="1.4"/>
<circle id="미세플라스틱-71" class="st6" cx="979.4" cy="298.5" r="1.4"/>
<circle id="미세플라스틱-72" class="st6" cx="973.3" cy="307.6" r="1.4"/>
<circle id="미세플라스틱-73" class="st6" cx="974.9" cy="305" r="1.4"/>
<circle id="미세플라스틱-74" class="st6" cx="972.3" cy="302.4" r="1.4"/>
<circle id="미세플라스틱-75" class="st6" cx="973.9" cy="301.4" r="1.4"/>
<circle id="미세플라스틱-76" class="st6" cx="976.3" cy="308.3" r="1.4"/>
<circle id="미세플라스틱-77" class="st6" cx="971" cy="305.8" r="1.4"/>
<circle id="미세플라스틱-78" class="st6" cx="969.7" cy="303.9" r="1.4"/>
<circle id="미세플라스틱-79" class="st6" cx="978.2" cy="305.8" r="1.4"/>
<circle id="미세플라스틱-80" class="st6" cx="975.9" cy="302.4" r="1.4"/>
<circle id="미세플라스틱-81" class="st6" cx="977.8" cy="301.4" r="1.4"/>
<circle id="미세플라스틱-82" class="st6" cx="980.2" cy="307.7" r="1.4"/>
<circle id="미세플라스틱-83" class="st6" cx="981.6" cy="305" r="1.4"/>
<circle id="미세플라스틱-84" class="st6" cx="984.2" cy="307.6" r="1.4"/>
<circle id="미세플라스틱-85" class="st6" cx="979.5" cy="303.4" r="1.4"/>
<circle id="미세플라스틱-86" class="st6" cx="982.1" cy="312.8" r="1.4"/>
<circle id="미세플라스틱-87" class="st6" cx="984.2" cy="311" r="1.4"/>
<circle id="미세플라스틱-88" class="st6" cx="981.2" cy="316.3" r="1.4"/>
<circle id="미세플라스틱-89" class="st6" cx="979.5" cy="317.9" r="1.4"/>
<circle id="미세플라스틱-90" class="st6" cx="984.2" cy="314.9" r="1.4"/>
<circle id="미세플라스틱-91" class="st6" cx="979.5" cy="310.7" r="1.4"/>
<circle id="미세플라스틱-92" class="st6" cx="982.1" cy="309.6" r="1.4"/>
<circle id="미세플라스틱-93" class="st6" cx="978.5" cy="314.5" r="1.4"/>
<circle id="미세플라스틱-94" class="st6" cx="977" cy="317.3" r="1.4"/>
<circle id="미세플라스틱-95" class="st6" cx="973" cy="317.3" r="1.4"/>
<circle id="미세플라스틱-96" class="st6" cx="975.2" cy="318.5" r="1.4"/>
<circle id="미세플라스틱-97" class="st6" cx="977.1" cy="311.9" r="1.4"/>
<circle id="미세플라스틱-98" class="st6" cx="974.9" cy="314.9" r="1.4"/>
<circle id="미세플라스틱-99" class="st6" cx="970.9" cy="314.9" r="1.4"/>
<circle id="미세플라스틱-100" class="st6" cx="969.4" cy="313.5" r="1.4"/>
<circle id="미세플라스틱-101" class="st6" cx="974.7" cy="310.7" r="1.4"/>
<circle id="미세플라스틱-102" class="st6" cx="973" cy="312.4" r="1.4"/>
<circle id="미세플라스틱-103" class="st6" cx="969" cy="311.5" r="1.4"/>
<circle id="미세플라스틱-104" class="st6" cx="971.6" cy="309.6" r="1.4"/>
<circle id="미세플라스틱-105" class="st6" cx="968.8" cy="307.7" r="1.4"/>
<circle id="미세플라스틱-106" class="st6" cx="969.7" cy="308.7" r="1.4"/>
<circle id="미세플라스틱-107" class="st6" cx="969.9" cy="294.9" r="1.4"/>
<circle id="미세플라스틱-108" class="st6" cx="971.6" cy="292.3" r="1.4"/>
<circle id="미세플라스틱-109" class="st6" cx="968.9" cy="289.8" r="1.4"/>
<circle id="미세플라스틱-110" class="st6" cx="970.5" cy="288.7" r="1.4"/>
<circle id="미세플라스틱-111" class="st6" cx="972.9" cy="295.6" r="1.4"/>
<circle id="미세플라스틱-112" class="st6" cx="967.7" cy="293.1" r="1.4"/>
<circle id="미세플라스틱-113" class="st6" cx="966.3" cy="291.2" r="1.4"/>
<circle id="미세플라스틱-114" class="st6" cx="974.7" cy="293.1" r="1.4"/>
<circle id="미세플라스틱-115" class="st6" cx="972.5" cy="289.8" r="1.4"/>
<circle id="미세플라스틱-116" class="st6" cx="974.4" cy="288.7" r="1.4"/>
<circle id="미세플라스틱-117" class="st6" cx="976.8" cy="295" r="1.4"/>
<circle id="미세플라스틱-118" class="st6" cx="978.2" cy="292.3" r="1.4"/>
<circle id="미세플라스틱-119" class="st6" cx="980.8" cy="294.9" r="1.4"/>
<circle id="미세플라스틱-120" class="st6" cx="976.1" cy="290.7" r="1.4"/>
<circle id="미세플라스틱-121" class="st6" cx="978.7" cy="300.2" r="1.4"/>
<circle id="미세플라스틱-122" class="st6" cx="980.8" cy="298.3" r="1.4"/>
<circle id="미세플라스틱-123" class="st6" cx="977.8" cy="303.6" r="1.4"/>
<circle id="미세플라스틱-124" class="st6" cx="976.1" cy="305.2" r="1.4"/>
<circle id="미세플라스틱-125" class="st6" cx="980.8" cy="302.2" r="1.4"/>
<circle id="미세플라스틱-126" class="st6" cx="976.1" cy="298" r="1.4"/>
<circle id="미세플라스틱-127" class="st6" cx="978.7" cy="297" r="1.4"/>
<circle id="미세플라스틱-128" class="st6" cx="975.1" cy="301.8" r="1.4"/>
<circle id="미세플라스틱-129" class="st6" cx="973.6" cy="304.6" r="1.4"/>
<circle id="미세플라스틱-130" class="st6" cx="969.6" cy="304.6" r="1.4"/>
<circle id="미세플라스틱-131" class="st6" cx="971.8" cy="305.8" r="1.4"/>
<circle id="미세플라스틱-132" class="st6" cx="973.7" cy="299.2" r="1.4"/>
<circle id="미세플라스틱-133" class="st6" cx="971.6" cy="302.2" r="1.4"/>
<circle id="미세플라스틱-134" class="st6" cx="967.5" cy="302.2" r="1.4"/>
<circle id="미세플라스틱-135" class="st6" cx="966" cy="300.8" r="1.4"/>
<circle id="미세플라스틱-136" class="st6" cx="971.3" cy="298" r="1.4"/>
<circle id="미세플라스틱-137" class="st6" cx="969.6" cy="299.8" r="1.4"/>
<circle id="미세플라스틱-138" class="st6" cx="965.7" cy="298.8" r="1.4"/>
<circle id="미세플라스틱-139" class="st6" cx="968.2" cy="297" r="1.4"/>
<circle id="미세플라스틱-140" class="st6" cx="965.4" cy="295" r="1.4"/>
<circle id="미세플라스틱-141" class="st6" cx="966.3" cy="296" r="1.4"/>
<path class="st5" d="M749,315.2c3.2,0.4,6.1,2.3,7.8,5.1c0.3,0.6,0.6,1.1,1,1.6c1.2,2,2.7,3.9,4.5,5.4c1,0.7,2.1,1.2,3.3,1.3
	c0.5,0.1,1.1,0.1,1.6,0.2c1.7,0.4,3.4,0.9,5.1,1.6c1.6,0.7,3.1,1.5,4.5,2.5c0.5,0.4,1,0.7,1.6,0.9c1.8,0.9,3.7,1.6,5.6,2.1
	c1.5,0.5,2.7,0.7,2.8,0.8c-2.1-0.7-3.8-7.3-1.4-11.9c1.1-2.4,1.7-5,1.8-7.6c1.4,0.4,2.6,1.3,3.5,2.5c1,1.7,3,2.6,5,2.2
	c-1.8-1.6-2.9-4-2.9-6.4c-0.3-4.5,6.8-7.4,6.8-7.4s-6-0.5-10.3,1.7c-0.9,0.5-1.8,0.7-2.8,0.7c-0.2-0.8-0.6-1.6-1-2.4
	c-0.5-0.8-1.1-1.6-1.7-2.5c-2.3-3.5-4.6-7.8-1.6-12.3c0.1-0.1,0.1-0.1,0.1-0.2c3.3-4.7,27.2-6.5,27.2-6.5c3.1-1.4-4.8-0.9-4.8-0.9
	c-8.1,0.8-16,2.4-23.8,4.6c-2,0.6-3.9,1.3-5.8,2.1c-1.2,0.5-2.2,0.9-3.2,1.4c-1.4,0.7-2.8,1.4-4.2,2.2c-1.4,0.8-2.7,1.7-3.9,2.7
	c-1.6,1.3-3,2.7-4.2,4.4c-0.8,1.1-1.5,2.3-2,3.5c-2.7,6.2-7,5.1-8.4,6S749,315.2,749,315.2z"/>
<path class="st5" d="M757.7,321.9c1.2,2,2.7,3.9,4.5,5.4c-0.3-3.3-0.2-6.6,0.4-9.9c0.7-4.2,1.9-8.4,1.9-12.7c0-2-0.3-4-0.8-6
	c-1.6,1.3-3,2.7-4.2,4.4c0.4,3.1,0.2,6.2-0.4,9.3C758.6,315.5,758,318.7,757.7,321.9z"/>
<path class="st5" d="M767.1,328.8c1.7,0.4,3.4,0.9,5.1,1.6c-0.2-1.6-0.2-3.3-0.2-4.9c0.1-2.7,0.3-5.5,0.7-8.2c0.5-3,0.8-6,0.9-9.1
	c0.1-4.9-0.6-9.8-1.9-14.5c-1.4,0.7-2.8,1.4-4.2,2.2c0.4,1.3,0.6,2.7,0.8,4.1c0.3,4.3,0.2,8.6-0.3,12.9
	C767.4,318.1,767.1,323.5,767.1,328.8z"/>
<path class="st5" d="M777.3,312.3c-0.3,7.3-1.4,14.8,1,21.6c1.8,0.9,3.7,1.6,5.6,2.1l-0.2-0.9c-0.9-4.5-1.3-9.2-1.2-13.8
	c0.2-5.2,1-10.4,1.1-15.5c-2.3-3.5-4.6-7.8-1.6-12.3c-0.4-1-0.8-2-1.3-3c-2,0.6-3.9,1.3-5.8,2.1
	C776.9,298.9,777.7,305.6,777.3,312.3z"/>
<path class="st5" d="M757,321.2c1.2,2,2.7,3.9,4.5,5.4c-0.3-3.3-0.2-6.6,0.4-9.9c0.7-4.2,1.9-8.4,1.9-12.7c0-2-0.3-4-0.8-6
	c-1.6,1.3-3,2.7-4.2,4.4c0.4,3.1,0.2,6.2-0.4,9.3C757.9,314.8,757.3,317.9,757,321.2z"/>
<path class="st5" d="M766.4,328.1c1.7,0.4,3.4,0.9,5.1,1.6c-0.1-1.6-0.2-3.3-0.2-4.9c0.1-2.7,0.3-5.5,0.7-8.2c0.5-3,0.8-6,0.9-9.1
	c0.1-4.9-0.5-9.8-1.8-14.5c-1.4,0.7-2.8,1.4-4.2,2.2c0.4,1.3,0.6,2.7,0.8,4.1c0.3,4.3,0.2,8.6-0.3,12.9
	C766.7,317.4,766.3,322.8,766.4,328.1z"/>
<path class="st5" d="M776.6,311.6c-0.3,7.3-1.4,14.8,1,21.6c1.8,0.9,3.7,1.6,5.6,2.1l-0.2-0.9c-0.9-4.5-1.3-9.2-1.2-13.8
	c0.2-5.2,1-10.3,1.1-15.5c-2.3-3.4-4.6-7.8-1.6-12.4c-0.4-1-0.8-2-1.3-3c-2.1,0.7-4,1.3-5.8,2.1
	C776.1,298.2,776.9,304.9,776.6,311.6z"/>
<circle class="st5" cx="760.9" cy="307.7" r="1.6"/>
<path class="st5" d="M771.7,304c0.5-0.3,1.4-0.5,1.6,0.1c0.1,0.2,0,0.4-0.1,0.6c-0.5,1.2-1.2,2.2-2.1,3.1c-0.9,0.9-1.3,2.3-0.9,3.5
	l0.9,1.5c0.3,0.5,0.4,1.1,0.1,1.6c-0.2,0.4-0.8,0.5-1.2,0.9c-0.7,0.6-1,1.4-1,2.3s0.2,1.8,0.2,2.6c0,0.5-0.2,1.2-0.7,1.1
	c-0.2,0-0.4-0.2-0.5-0.4c-2.4-2.6-3.5-6.2-3-9.7C765.7,308.1,769.1,305.4,771.7,304z"/>
<path class="st5" d="M772.8,304c0.5-0.3,1.4-0.5,1.6,0.1c0.1,0.2,0.1,0.5-0.1,0.6c-0.5,1.2-1.2,2.2-2.1,3.1
	c-0.9,0.9-1.3,2.3-0.9,3.5l0.9,1.5c0.3,0.5,0.4,1.1,0.1,1.6c-0.2,0.4-0.8,0.5-1.2,0.9c-0.7,0.5-1.1,1.4-1,2.3c0,0.9,0.1,1.7,0.3,2.6
	c0,0.5-0.2,1.2-0.7,1.1c-0.2,0-0.4-0.2-0.5-0.4c-2.4-2.6-3.5-6.2-3-9.7C766.9,308.1,770.3,305.4,772.8,304z"/>
<ellipse class="st5" cx="760.3" cy="307.5" rx="1.2" ry="1.7"/>
<circle id="미세플라스틱-2" class="st5" cx="770.3" cy="310.5" r="1.1"/>
<circle id="미세플라스틱-3" class="st5" cx="771.6" cy="308.4" r="1.1"/>
<circle id="미세플라스틱-4" class="st5" cx="769.5" cy="306.5" r="1.1"/>
<circle id="미세플라스틱-5" class="st5" cx="770.7" cy="305.6" r="1.1"/>
<circle id="미세플라스틱-6" class="st5" cx="772.7" cy="311.1" r="1.1"/>
<circle id="미세플라스틱-7" class="st5" cx="768.4" cy="309.2" r="1.1"/>
<circle id="미세플라스틱-8" class="st5" cx="767.4" cy="307.6" r="1.1"/>
<circle id="미세플라스틱-9" class="st5" cx="774.1" cy="309.2" r="1.1"/>
<circle id="미세플라스틱-10" class="st5" cx="772.4" cy="306.5" r="1.1"/>
<circle id="미세플라스틱-11" class="st5" cx="773.9" cy="305.6" r="1.1"/>
<circle id="미세플라스틱-12" class="st5" cx="775.8" cy="310.6" r="1.1"/>
<circle id="미세플라스틱-13" class="st5" cx="776.9" cy="308.4" r="1.1"/>
<circle id="미세플라스틱-14" class="st5" cx="779" cy="310.5" r="1.1"/>
<circle id="미세플라스틱-15" class="st5" cx="775.2" cy="307.2" r="1.1"/>
<circle id="미세플라스틱-16" class="st5" cx="777.3" cy="314.7" r="1.1"/>
<circle id="미세플라스틱-17" class="st5" cx="779" cy="313.3" r="1.1"/>
<path id="미세플라스틱-18" class="st5" d="M776.6,316.4c0.6,0,1.1,0.5,1.1,1.1s-0.5,1.1-1.1,1.1s-1.1-0.5-1.1-1.1l0,0
	C775.5,316.9,776,316.4,776.6,316.4z"/>
<circle id="미세플라스틱-19" class="st5" cx="775.2" cy="318.9" r="1.1"/>
<circle id="미세플라스틱-20" class="st5" cx="779" cy="316.4" r="1.1"/>
<circle id="미세플라스틱-21" class="st5" cx="775.2" cy="313" r="1.1"/>
<circle id="미세플라스틱-22" class="st5" cx="777.3" cy="312.2" r="1.1"/>
<circle id="미세플라스틱-23" class="st5" cx="774.4" cy="316.1" r="1.1"/>
<circle id="미세플라스틱-24" class="st5" cx="773.2" cy="318.4" r="1.1"/>
<circle id="미세플라스틱-25" class="st5" cx="770" cy="318.4" r="1.1"/>
<circle id="미세플라스틱-26" class="st5" cx="771.8" cy="319.3" r="1.1"/>
<circle id="미세플라스틱-27" class="st5" cx="773.3" cy="314.1" r="1.1"/>
<circle id="미세플라스틱-28" class="st5" cx="771.6" cy="316.4" r="1.1"/>
<circle id="미세플라스틱-29" class="st5" cx="768.4" cy="316.4" r="1.1"/>
<circle id="미세플라스틱-30" class="st5" cx="767.1" cy="315.3" r="1.1"/>
<circle id="미세플라스틱-31" class="st5" cx="771.4" cy="313" r="1.1"/>
<circle id="미세플라스틱-32" class="st5" cx="770" cy="314.4" r="1.1"/>
<circle id="미세플라스틱-33" class="st5" cx="766.9" cy="313.7" r="1.1"/>
<circle id="미세플라스틱-34" class="st5" cx="768.9" cy="312.2" r="1.1"/>
<circle id="미세플라스틱-35" class="st5" cx="766.6" cy="310.6" r="1.1"/>
<circle id="미세플라스틱-36" class="st5" cx="767.4" cy="311.4" r="1.1"/>
<circle id="미세플라스틱-142-2" class="st6" cx="769.5" cy="308.2" r="1.4"/>
<circle id="미세플라스틱-143-2" class="st6" cx="771.1" cy="305.6" r="1.4"/>
<circle id="미세플라스틱-144-2" class="st6" cx="768.5" cy="303.1" r="1.4"/>
<circle id="미세플라스틱-145-2" class="st6" cx="770" cy="302.1" r="1.4"/>
<circle id="미세플라스틱-146-2" class="st6" cx="772.5" cy="308.9" r="1.4"/>
<circle id="미세플라스틱-147-2" class="st6" cx="767.2" cy="306.5" r="1.4"/>
<circle id="미세플라스틱-148-2" class="st6" cx="765.9" cy="304.6" r="1.4"/>
<circle id="미세플라스틱-149-2" class="st6" cx="774.3" cy="306.5" r="1.4"/>
<circle id="미세플라스틱-150-2" class="st6" cx="772.1" cy="303.1" r="1.4"/>
<circle id="미세플라스틱-151-2" class="st6" cx="774" cy="302.1" r="1.4"/>
<circle id="미세플라스틱-152-2" class="st6" cx="776.4" cy="308.3" r="1.4"/>
<circle id="미세플라스틱-153-2" class="st6" cx="777.8" cy="305.6" r="1.4"/>
<circle id="미세플라스틱-154-2" class="st6" cx="780.4" cy="308.2" r="1.4"/>
<circle id="미세플라스틱-155-2" class="st6" cx="775.7" cy="304.1" r="1.4"/>
<circle id="미세플라스틱-156-2" class="st6" cx="778.3" cy="313.5" r="1.4"/>
<circle id="미세플라스틱-157-2" class="st6" cx="780.4" cy="311.7" r="1.4"/>
<circle id="미세플라스틱-158-2" class="st6" cx="777.4" cy="316.9" r="1.4"/>
<circle id="미세플라스틱-159-2" class="st6" cx="775.7" cy="318.6" r="1.4"/>
<circle id="미세플라스틱-160-2" class="st6" cx="780.4" cy="315.6" r="1.4"/>
<circle id="미세플라스틱-161-2" class="st6" cx="775.7" cy="311.4" r="1.4"/>
<circle id="미세플라스틱-162-2" class="st6" cx="778.3" cy="310.3" r="1.4"/>
<circle id="미세플라스틱-163-2" class="st6" cx="774.7" cy="315.2" r="1.4"/>
<circle id="미세플라스틱-164-2" class="st6" cx="773.2" cy="318" r="1.4"/>
<circle id="미세플라스틱-165-2" class="st6" cx="769.2" cy="318" r="1.4"/>
<circle id="미세플라스틱-166-2" class="st6" cx="771.4" cy="319.1" r="1.4"/>
<circle id="미세플라스틱-167-2" class="st6" cx="773.3" cy="312.6" r="1.4"/>
<circle id="미세플라스틱-168-2" class="st6" cx="771.1" cy="315.6" r="1.4"/>
<circle id="미세플라스틱-169-2" class="st6" cx="767.1" cy="315.6" r="1.4"/>
<circle id="미세플라스틱-170-2" class="st6" cx="765.5" cy="314.2" r="1.4"/>
<circle id="미세플라스틱-171-2" class="st6" cx="770.8" cy="311.4" r="1.4"/>
<circle id="미세플라스틱-172-2" class="st6" cx="769.2" cy="313.1" r="1.4"/>
<circle id="미세플라스틱-173-2" class="st6" cx="765.2" cy="312.1" r="1.4"/>
<circle id="미세플라스틱-174-2" class="st6" cx="767.8" cy="310.3" r="1.4"/>
<circle id="미세플라스틱-175-2" class="st6" cx="764.9" cy="308.3" r="1.4"/>
<circle id="미세플라스틱-176-2" class="st6" cx="765.9" cy="309.3" r="1.4"/>
<g>
	<g>
		<defs>
			<circle id="SVGID_6_" cx="919.1" cy="84.6" r="17.5"/>
		</defs>
		<clipPath id="SVGID_7_">
			<use xlink:href="#SVGID_6_"  style="overflow:visible;"/>
		</clipPath>
		<circle id="미세플라스틱-177-2-2" class="st30" cx="913.7" cy="81.1" r="2.7"/>
	</g>
</g>
<g>
	<g>
		<defs>
			<circle id="SVGID_8_" cx="919.1" cy="84.6" r="17.5"/>
		</defs>
		<clipPath id="SVGID_9_">
			<use xlink:href="#SVGID_8_"  style="overflow:visible;"/>
		</clipPath>
		<circle id="미세플라스틱-178-2-2" class="st31" cx="916.8" cy="76.1" r="2.7"/>
	</g>
</g>
<g>
	<g>
		<defs>
			<circle id="SVGID_10_" cx="919.1" cy="84.6" r="17.5"/>
		</defs>
		<clipPath id="SVGID_11_">
			<use xlink:href="#SVGID_10_"  style="overflow:visible;"/>
		</clipPath>
		<circle id="미세플라스틱-179-2-2" class="st32" cx="911.7" cy="71.2" r="2.7"/>
	</g>
</g>
<g>
	<g>
		<defs>
			<circle id="SVGID_12_" cx="919.1" cy="84.6" r="17.5"/>
		</defs>
		<clipPath id="SVGID_13_">
			<use xlink:href="#SVGID_12_"  style="overflow:visible;"/>
		</clipPath>
		<circle id="미세플라스틱-180-2-2" class="st33" cx="914.8" cy="69.3" r="2.7"/>
	</g>
</g>
<g>
	<g>
		<defs>
			<circle id="SVGID_14_" cx="919.1" cy="84.6" r="17.5"/>
		</defs>
		<clipPath id="SVGID_15_">
			<use xlink:href="#SVGID_14_"  style="overflow:visible;"/>
		</clipPath>
		<circle id="미세플라스틱-181-2-2" class="st34" cx="919.5" cy="82.5" r="2.7"/>
	</g>
</g>
<g>
	<g>
		<defs>
			<circle id="SVGID_16_" cx="919.1" cy="84.6" r="17.5"/>
		</defs>
		<clipPath id="SVGID_17_">
			<use xlink:href="#SVGID_16_"  style="overflow:visible;"/>
		</clipPath>
		<circle id="미세플라스틱-182-2-2" class="st35" cx="909.4" cy="77.8" r="2.7"/>
	</g>
</g>
<g>
	<g>
		<defs>
			<circle id="SVGID_18_" cx="919.1" cy="84.6" r="17.5"/>
		</defs>
		<clipPath id="SVGID_19_">
			<use xlink:href="#SVGID_18_"  style="overflow:visible;"/>
		</clipPath>
		<circle id="미세플라스틱-183-2-2" class="st36" cx="906.7" cy="74.1" r="2.7"/>
	</g>
</g>
<g>
	<g>
		<defs>
			<circle id="SVGID_20_" cx="919.1" cy="84.6" r="17.5"/>
		</defs>
		<clipPath id="SVGID_21_">
			<use xlink:href="#SVGID_20_"  style="overflow:visible;"/>
		</clipPath>
		<circle id="미세플라스틱-184-2-2" class="st37" cx="923" cy="77.8" r="2.7"/>
	</g>
</g>
<g>
	<g>
		<defs>
			<circle id="SVGID_22_" cx="919.1" cy="84.6" r="17.5"/>
		</defs>
		<clipPath id="SVGID_23_">
			<use xlink:href="#SVGID_22_"  style="overflow:visible;"/>
		</clipPath>
		<circle id="미세플라스틱-185-2-2" class="st38" cx="918.7" cy="71.2" r="2.7"/>
	</g>
</g>
<g>
	<g>
		<defs>
			<circle id="SVGID_24_" cx="919.1" cy="84.6" r="17.5"/>
		</defs>
		<clipPath id="SVGID_25_">
			<use xlink:href="#SVGID_24_"  style="overflow:visible;"/>
		</clipPath>
		<circle id="미세플라스틱-186-2-2" class="st39" cx="922.4" cy="69.3" r="2.7"/>
	</g>
</g>
<g>
	<g>
		<defs>
			<circle id="SVGID_26_" cx="919.1" cy="84.6" r="17.5"/>
		</defs>
		<clipPath id="SVGID_27_">
			<use xlink:href="#SVGID_26_"  style="overflow:visible;"/>
		</clipPath>
		<circle id="미세플라스틱-187-2-2" class="st40" cx="927.1" cy="81.4" r="2.7"/>
	</g>
</g>
<g>
	<g>
		<defs>
			<circle id="SVGID_28_" cx="919.1" cy="84.6" r="17.5"/>
		</defs>
		<clipPath id="SVGID_29_">
			<use xlink:href="#SVGID_28_"  style="overflow:visible;"/>
		</clipPath>
		<circle id="미세플라스틱-188-2-2" class="st41" cx="929.8" cy="76.1" r="2.7"/>
	</g>
</g>
<g>
	<g>
		<defs>
			<circle id="SVGID_30_" cx="919.1" cy="84.6" r="17.5"/>
		</defs>
		<clipPath id="SVGID_31_">
			<use xlink:href="#SVGID_30_"  style="overflow:visible;"/>
		</clipPath>
		<circle id="미세플라스틱-188-3" class="st42" cx="929.7" cy="68.8" r="2.7"/>
	</g>
</g>
<g>
	<g>
		<defs>
			<circle id="SVGID_32_" cx="919.1" cy="84.6" r="17.5"/>
		</defs>
		<clipPath id="SVGID_33_">
			<use xlink:href="#SVGID_32_"  style="overflow:visible;"/>
		</clipPath>
		<circle id="미세플라스틱-188-4" class="st43" cx="934.3" cy="75" r="2.7"/>
	</g>
</g>
<g>
	<g>
		<defs>
			<circle id="SVGID_34_" cx="919.1" cy="84.6" r="17.5"/>
		</defs>
		<clipPath id="SVGID_35_">
			<use xlink:href="#SVGID_34_"  style="overflow:visible;"/>
		</clipPath>
		<circle id="미세플라스틱-189-2-2" class="st44" cx="934.8" cy="81.1" r="2.7"/>
	</g>
</g>
<g>
	<g>
		<defs>
			<circle id="SVGID_36_" cx="919.1" cy="84.6" r="17.5"/>
		</defs>
		<clipPath id="SVGID_37_">
			<use xlink:href="#SVGID_36_"  style="overflow:visible;"/>
		</clipPath>
		<circle id="미세플라스틱-190-2-2" class="st45" cx="925.7" cy="73" r="2.7"/>
	</g>
</g>
<g>
	<g>
		<defs>
			<circle id="SVGID_38_" cx="919.1" cy="84.6" r="17.5"/>
		</defs>
		<clipPath id="SVGID_39_">
			<use xlink:href="#SVGID_38_"  style="overflow:visible;"/>
		</clipPath>
		<circle id="미세플라스틱-191-2-2" class="st46" cx="930.7" cy="91.3" r="2.7"/>
	</g>
</g>
<g>
	<g>
		<defs>
			<circle id="SVGID_40_" cx="919.1" cy="84.6" r="17.5"/>
		</defs>
		<clipPath id="SVGID_41_">
			<use xlink:href="#SVGID_40_"  style="overflow:visible;"/>
		</clipPath>
		<circle id="미세플라스틱-192-2-2" class="st47" cx="934.8" cy="87.7" r="2.7"/>
	</g>
</g>
<g>
	<g>
		<defs>
			<circle id="SVGID_42_" cx="919.1" cy="84.6" r="17.5"/>
		</defs>
		<clipPath id="SVGID_43_">
			<use xlink:href="#SVGID_42_"  style="overflow:visible;"/>
		</clipPath>
		<circle id="미세플라스틱-193-2-2" class="st48" cx="928.9" cy="97.9" r="2.7"/>
	</g>
</g>
<g>
	<g>
		<defs>
			<circle id="SVGID_44_" cx="919.1" cy="84.6" r="17.5"/>
		</defs>
		<clipPath id="SVGID_45_">
			<use xlink:href="#SVGID_44_"  style="overflow:visible;"/>
		</clipPath>
		<circle id="미세플라스틱-194-2-2" class="st49" cx="925.7" cy="101.2" r="2.7"/>
	</g>
</g>
<g>
	<g>
		<defs>
			<circle id="SVGID_46_" cx="919.1" cy="84.6" r="17.5"/>
		</defs>
		<clipPath id="SVGID_47_">
			<use xlink:href="#SVGID_46_"  style="overflow:visible;"/>
		</clipPath>
		<circle id="미세플라스틱-195-2-2" class="st50" cx="934.8" cy="95.3" r="2.7"/>
	</g>
</g>
<g>
	<g>
		<defs>
			<circle id="SVGID_48_" cx="919.1" cy="84.6" r="17.5"/>
		</defs>
		<clipPath id="SVGID_49_">
			<use xlink:href="#SVGID_48_"  style="overflow:visible;"/>
		</clipPath>
		<circle id="미세플라스틱-196-2-2" class="st51" cx="925.7" cy="87.2" r="2.7"/>
	</g>
</g>
<g>
	<g>
		<defs>
			<circle id="SVGID_50_" cx="919.1" cy="84.6" r="17.5"/>
		</defs>
		<clipPath id="SVGID_51_">
			<use xlink:href="#SVGID_50_"  style="overflow:visible;"/>
		</clipPath>
		<circle id="미세플라스틱-197-2-2" class="st52" cx="930.7" cy="85.1" r="2.7"/>
	</g>
</g>
<g>
	<g>
		<defs>
			<circle id="SVGID_52_" cx="919.1" cy="84.6" r="17.5"/>
		</defs>
		<clipPath id="SVGID_53_">
			<use xlink:href="#SVGID_52_"  style="overflow:visible;"/>
		</clipPath>
		<circle id="미세플라스틱-198-2-2" class="st53" cx="923.6" cy="94.5" r="2.7"/>
	</g>
</g>
<g>
	<g>
		<defs>
			<circle id="SVGID_54_" cx="919.1" cy="84.6" r="17.5"/>
		</defs>
		<clipPath id="SVGID_55_">
			<use xlink:href="#SVGID_54_"  style="overflow:visible;"/>
		</clipPath>
		<circle id="미세플라스틱-199-2-2" class="st54" cx="920.8" cy="100" r="2.7"/>
	</g>
</g>
<g>
	<g>
		<defs>
			<circle id="SVGID_56_" cx="919.1" cy="84.6" r="17.5"/>
		</defs>
		<clipPath id="SVGID_57_">
			<use xlink:href="#SVGID_56_"  style="overflow:visible;"/>
		</clipPath>
		<circle id="미세플라스틱-200-2-2" class="st55" cx="913.1" cy="100" r="2.7"/>
	</g>
</g>
<g>
	<g>
		<defs>
			<circle id="SVGID_58_" cx="919.1" cy="84.6" r="17.5"/>
		</defs>
		<clipPath id="SVGID_59_">
			<use xlink:href="#SVGID_58_"  style="overflow:visible;"/>
		</clipPath>
		<circle id="미세플라스틱-201-2-2" class="st56" cx="917.3" cy="102.2" r="2.7"/>
	</g>
</g>
<g>
	<g>
		<defs>
			<circle id="SVGID_60_" cx="919.1" cy="84.6" r="17.5"/>
		</defs>
		<clipPath id="SVGID_61_">
			<use xlink:href="#SVGID_60_"  style="overflow:visible;"/>
		</clipPath>
		<circle id="미세플라스틱-202-2-2" class="st57" cx="921" cy="89.6" r="2.7"/>
	</g>
</g>
<g>
	<g>
		<defs>
			<circle id="SVGID_62_" cx="919.1" cy="84.6" r="17.5"/>
		</defs>
		<clipPath id="SVGID_63_">
			<use xlink:href="#SVGID_62_"  style="overflow:visible;"/>
		</clipPath>
		<circle id="미세플라스틱-203-2-2" class="st58" cx="916.8" cy="95.3" r="2.7"/>
	</g>
</g>
<g>
	<g>
		<defs>
			<circle id="SVGID_64_" cx="919.1" cy="84.6" r="17.5"/>
		</defs>
		<clipPath id="SVGID_65_">
			<use xlink:href="#SVGID_64_"  style="overflow:visible;"/>
		</clipPath>
		<circle id="미세플라스틱-204-2-2" class="st59" cx="909.1" cy="95.3" r="2.7"/>
	</g>
</g>
<g>
	<g>
		<defs>
			<circle id="SVGID_66_" cx="919.1" cy="84.6" r="17.5"/>
		</defs>
		<clipPath id="SVGID_67_">
			<use xlink:href="#SVGID_66_"  style="overflow:visible;"/>
		</clipPath>
		<circle id="미세플라스틱-205-2-2" class="st60" cx="906.1" cy="92.6" r="2.7"/>
	</g>
</g>
<g>
	<g>
		<defs>
			<circle id="SVGID_68_" cx="919.1" cy="84.6" r="17.5"/>
		</defs>
		<clipPath id="SVGID_69_">
			<use xlink:href="#SVGID_68_"  style="overflow:visible;"/>
		</clipPath>
		<circle id="미세플라스틱-206-2-2" class="st61" cx="916.3" cy="87.2" r="2.7"/>
	</g>
</g>
<g>
	<g>
		<defs>
			<circle id="SVGID_70_" cx="919.1" cy="84.6" r="17.5"/>
		</defs>
		<clipPath id="SVGID_71_">
			<use xlink:href="#SVGID_70_"  style="overflow:visible;"/>
		</clipPath>
		<circle id="미세플라스틱-207-2-2" class="st62" cx="913.1" cy="90.5" r="2.7"/>
	</g>
</g>
<g>
	<g>
		<defs>
			<circle id="SVGID_72_" cx="919.1" cy="84.6" r="17.5"/>
		</defs>
		<clipPath id="SVGID_73_">
			<use xlink:href="#SVGID_72_"  style="overflow:visible;"/>
		</clipPath>
		<circle id="미세플라스틱-208-2-2" class="st63" cx="905.5" cy="88.7" r="2.7"/>
	</g>
</g>
<g>
	<g>
		<defs>
			<circle id="SVGID_74_" cx="919.1" cy="84.6" r="17.5"/>
		</defs>
		<clipPath id="SVGID_75_">
			<use xlink:href="#SVGID_74_"  style="overflow:visible;"/>
		</clipPath>
		<circle id="미세플라스틱-209-2-2" class="st64" cx="910.4" cy="85.1" r="2.7"/>
	</g>
</g>
<g>
	<g>
		<defs>
			<circle id="SVGID_76_" cx="919.1" cy="84.6" r="17.5"/>
		</defs>
		<clipPath id="SVGID_77_">
			<use xlink:href="#SVGID_76_"  style="overflow:visible;"/>
		</clipPath>
		<circle id="미세플라스틱-210-2-2" class="st65" cx="904.9" cy="81.4" r="2.7"/>
	</g>
</g>
<g>
	<g>
		<defs>
			<circle id="SVGID_78_" cx="919.1" cy="84.6" r="17.5"/>
		</defs>
		<clipPath id="SVGID_79_">
			<use xlink:href="#SVGID_78_"  style="overflow:visible;"/>
		</clipPath>
		<circle id="미세플라스틱-211-2-2" class="st66" cx="906.7" cy="83.3" r="2.7"/>
	</g>
</g>
<g>
	<g>
		<defs>
			<circle id="SVGID_80_" cx="919.1" cy="84.6" r="17.5"/>
		</defs>
		<clipPath id="SVGID_81_">
			<use xlink:href="#SVGID_80_"  style="overflow:visible;"/>
		</clipPath>
		<circle class="st67" cx="919.1" cy="84.6" r="17.5"/>
	</g>
</g>
<path class="st68" d="M679.8,66.7"/>
<line class="st69" x1="681.9" y1="0.1" x2="921.4" y2="0.1"/>
<g>
	<text transform="matrix(1 0 0 1 681.8998 13.5717)" class="st24 st70">Plastic: more than 25mm</text>
	<text transform="matrix(1 0 0 1 681.8998 46.8718)" class="st24 st70">Microplastic: less than 5mm</text>
	<text transform="matrix(1 0 0 1 681.8998 80.1818)" class="st24 st70">Microbeads: less than 1mm</text>
</g>
<rect x="226.9" y="436.7" class="st11" width="198.6" height="96.7"/>
<text transform="matrix(1 0 0 1 226.9498 445.4157)" class="st6 st24 st29">The result of larger pieces of </text>
<text transform="matrix(1 0 0 1 226.9498 461.0157)" class="st6 st24 st29">plastic breaking down into smaller </text>
<text transform="matrix(1 0 0 1 226.9498 476.6157)" class="st6 st24 st29">pieces due to sunlight exposure. </text>
<text transform="matrix(1 0 0 1 0.4001 533.9765)" class="st6 st71 st70">CAUSATION OF MICROPLASTIC</text>
<rect x="495.1" y="524.6" class="st11" width="308" height="18.7"/>
<text transform="matrix(1 0 0 1 495.1003 533.9765)" class="st6 st71 st70">OCEAN SPECIES FEED MICROPLASTIC</text>
<rect x="226.9" y="410.5" class="st11" width="308" height="16.8"/>
<text transform="matrix(1 0 0 1 226.9502 419.8321)" class="st6 st71 st70">SECONDARY MICRROPLASTIC</text>
<rect x="0.4" y="410.5" class="st11" width="211.8" height="17.3"/>
<text transform="matrix(1 0 0 1 0.4001 419.8321)" class="st6 st71 st70">PRIMARY MICRROPLASTIC</text>
<line class="st69" x1="681.9" y1="33.4" x2="921.4" y2="33.4"/>
<line class="st69" x1="681.9" y1="66.7" x2="921.4" y2="66.7"/>
</svg>
