<?xml version="1.0" encoding="utf-8"?>
<!-- Generator: Adobe Illustrator 24.0.1, SVG Export Plug-In . SVG Version: 6.00 Build 0)  -->
<svg version="1.1" id="Layer_1" xmlns="http://www.w3.org/2000/svg" xmlns:xlink="http://www.w3.org/1999/xlink" x="0px" y="0px"
	 viewBox="0 0 787.5 522.5" style="enable-background:new 0 0 787.5 522.5;" xml:space="preserve">
<style type="text/css">
	.st0{opacity:0.5;fill:#00CBE2;enable-background:new    ;}
	.st1{fill:none;stroke:#00CBE2;stroke-width:0.16;stroke-miterlimit:10;}
	.st2{fill:#00CBE2;}
	.st3{opacity:0.8;}
	.st4{fill:#53AC8F;}
	.st5{fill:#F1A55D;}
	.st6{fill:#478CC8;}
	.st7{fill:none;stroke:#000000;stroke-width:0.48;stroke-miterlimit:10;}
	.st8{fill:none;stroke:#000000;stroke-width:0.5;stroke-miterlimit:10;}
	.st9{fill:#FF5400;}
	.st10{font-family:'ProximaNova-Bold';}
	.st11{font-size:12px;}
	.st12{font-size:9px;}
	.st13{fill:#4D4D4D;}
	.st14{font-family:'ProximaNova-Regular';}
	.st15{fill:none;}
	.st16{fill:#051027;}
	.st17{font-family:'ProximaNova-Light';}
	.st18{font-size:14px;}
	.st19{font-size:10px;}
	.st20{letter-spacing:-1;}
	.st21{fill:none;stroke:#FF5400;stroke-width:0.75;stroke-miterlimit:10;}
	.st22{fill:none;stroke:#FF5400;stroke-width:0.73;stroke-miterlimit:10;}
	.st23{fill:none;stroke:#FF5400;stroke-width:0.74;stroke-miterlimit:10;}
	.st24{fill:none;stroke:#FF5400;stroke-width:0.76;stroke-miterlimit:10;}
	.st25{fill:none;stroke:#FF5400;stroke-width:0.77;stroke-miterlimit:10;}
	.st26{font-family:'Gotham-Medium';}
	.st27{font-size:7.5px;}
	.st28{font-size:8px;}
	.st29{font-size:4.35px;}
	.st30{fill:none;stroke:#000000;stroke-width:0.4926;stroke-miterlimit:10;}
</style>
<title>mapm3</title>
<g id="Layer_2_1_">
	<g id="Layer_1-2">
		<path class="st0" d="M442.3,180.7c-1.7-0.3-3.6-0.5-5.4-0.8c-0.1,0-0.2,0.3-0.3,0.3c0.2,0.4,0.5,0.8,0.7,1.2
			c-0.5,0.5-0.8,0.9-1.2,1.3c-0.3-0.4-0.7-0.7-1.1-1v-2.5c-1.2-2-3-2.8-4.8-3.7c-2.7-1.2-5.2-2.6-7.7-4.2c-1.6-1.1-3.4-1.7-5.3-1.8
			l-1.4-1.4c-2.3,0.4-4.7-0.5-6.9,0.5c-1.7-0.4-3.2-1.6-5.3-1c-0.3,0.6-0.5,1.3-0.9,2.1c0.9,1,2.2,1.7,1.4,3.3H402
			c-1.2-1-2.3-1.9-3.7-3c1.1-0.3,1.8-0.4,2.6-0.6c0-0.4,0-0.7-0.1-1.1h-3.1l-2.1,2.1c-1.7-0.4-3.4-0.6-5.1-0.8c-2-0.1-4,0-5.9,0
			c-0.5,0.5-1,0.9-1.6,1.5c-0.1-0.8-0.2-1.4-0.3-2.1c-0.8-0.1-1.7-0.2-2.5-0.2c0.2-0.9,0.5-1.6,0.7-2.4c-1.4-1-2.5-2.6-3.9-2.7
			c-2.9-0.4-5.9,0-8.9,0.1c-1.6,0.1-3.1,0.3-4.4,0.4c-0.6-1-1-1.6-1.4-2.2h-2.5c-0.3-0.4-0.8-1-1.2-1.6h-2.4V160
			c0.9-0.1,1.9-0.2,3.3-0.3c-1.3-0.8-2.1-1.3-2.8-1.8h-5.2c-0.3,1.5-1.2,2.2-2.5,3c-0.2-0.6-0.4-0.9-0.5-1.3l1.4-0.7
			c-0.7-0.5-1.3-0.9-2-1.4c0.8-0.1,1.7-0.1,2.5,0.2c0.1,0,0.2-0.2,0.3-0.3c-0.3-0.3-0.7-0.6-1-0.9l-10.6-1.5
			c-0.4,0.7-0.9,1.4-1.3,2.1l-0.7-0.7c-0.7,0.4-1.3,0.8-2.5,1.4c1,0.4,1.4,0.6,1.6,0.7c0.1,0.9,0.2,1.7,0.3,2.8
			c-1.4-0.2-2.7-1.6-4-0.4c0.2,0.2,0.4,0.5,1,1.2c-1.2-0.3-1.9-0.5-2.6-0.7c-1.5-0.2-3-1.6-4.4-0.8s-2.4,0.3-3.3,0.5
			c-0.8-0.6-1.4-1.1-2.2-1.6c-1.1,1.6-2.1,3-3.2,4.7c-1-0.4-1.9-0.9-2.9-1.3c-1.6-0.7-0.9-2.8-2.2-3.6c-0.2-0.1-0.3-0.3-0.5-0.5
			c0,0,0.1-0.2,0.2-0.2c0.6-0.1,1.3-0.2,1.9-0.4c-0.4-1.4-0.9-2.8-1.5-4.1c-0.7-1.5-2.2-2.1-3.6-2.7c-0.4,0.3-0.8,0.5-0.9,0.6
			c-1.2-0.3-2.3-0.5-3.7-0.9c-0.3-0.3-0.9-0.8-1.4-1.3c-0.9,0.5-1.6,0.8-2.4,1.2v3.1c-2.7-0.3-5.3,0.5-7.8-0.8
			c-0.5,0.3-0.9,0.6-1.6,1c-0.4-1-0.8-2-1.3-2.9c-1.8-0.4-3.6-0.7-5.4-0.8c-1.8,0-3.5,0.7-5.2,1c-0.4-0.6-0.8-1.2-1.3-1.9
			c-0.8,1.2-1.9,0.7-3.5,0.8c-0.1-0.3-0.5-0.9-0.7-1.4c-2,0.1-2,0.1-3.1,1.1c0.2,0.2,0.4,0.5,0.9,1.1c-2.2-0.9-2.8,1.4-4.6,1.4
			c-1.5,0-3,0.9-4.5,1.3c-0.1-0.1-0.2-0.2-0.2-0.4c1.3-1,2.7-2.1,4.1-3.2h1.7c1.3-0.8,2.5-1.8,3.7-2.8c1.1-1.2,2.8-0.8,3.9-2
			c0.9-1,2.3-1.5,3.3-2.2c0.3-1.1-0.4-2.2,0.8-2.9c-0.9-0.3-0.3-1.7-1.6-1.9c-0.6-0.1-1-1.3-1.3-1.8c-1.7-0.3-3.1-0.7-4.5-0.9
			c-1.6-0.1-3.2,0-4.8,0c-0.9,0.9-1.7,2.2-3.2,1c0.2-0.8,0.5-1.6,0.7-2.4c-1.6-0.2-3,0.2-4.6-0.5c0.8-0.7,1.4-1.2,2.2-1.8
			c-2.1-1.1-4.6-1.4-6.9-1c-1.1,1-2.6,2.3-4.1,3.6v2.4c-1.5,0.1-2.8,0.1-4.3,0.2c0.4,0.5,0.8,1,1.3,1.4c-1.1-0.3-1.6-0.5-2.3-0.7
			c-0.4,0.3-0.8,0.7-1.1,1.1h-2.7c0.4-0.4,0.6-0.7,1-1.1c-2.6-0.3-4.7,1.2-7,1.4c-0.2,0.5-0.3,0.9-0.4,1.2c-3.4,0-6.8,1.1-9.6,3
			h-1.7c-0.6,1.2-1.1,2.2-1.5,3.2c0.2,0.2,0.4,0.4,0.6,0.5c-0.2,0.2-0.4,0.5-0.7,0.8c0.5,0.2,0.9,0.5,1.4,0.7c0,0.3-0.1,0.5-0.1,0.9
			c-1.6,0.4-3.2,0.6-4.8,0.8c-1.3,0.1-2.6-0.1-3.8,0.1c-1.2,0.1-2.4,0.4-3.5,0.7c-0.7,0.3-1.3,0.7-1.9,1.1c0.4,0.5,0.6,1.1,0.8,1.7
			c0.1,0.7,0.1,1.4,0,2.1c0.9,0.3,1.6,0.6,2.8,1c0.3,0.4,0.9,1.1,1.5,1.8c-1.3,1.5-2.5,0.4-3.1-0.2c-2-1.9-4.7-1.7-7-2.7
			c-0.5-0.2-1.4,0.2-2.5,0.3c1.1,0.9,1.8,1.5,2.6,2.1l-0.3,0.3c-0.9-0.3-1.8-0.6-2.8-0.9c-0.5,0.5-0.9,1.1-1.3,1.7
			c4.1,2.2,4.1,2.2,4.9,3.6c-0.9-0.6-1.8-1.1-2.8-1.4c-1-0.2-2.1-0.4-3.1-0.4c-0.3-0.9-0.5-1.7-0.8-2.4c0.4-0.7,0.8-1.6,1.2-2.4
			c-0.4-0.7-0.8-1.4-1.1-2c-0.3,0-0.6,0-0.9,0.1v3.2c-1.3,1.1-3.1,1.4-3.5,3c0.8,1.3,1.5,2.5,2.3,3.7c-0.8,2-2.2,3.7-1.5,5.8
			c0.3,0.3,0.6,0.7,0.9,1c1.8,0.2,3.4-1.6,5.3-0.3c-1.5,0.4-2.9,0.9-4.5,1.3c0.2,1.4,0.4,2.7,0.7,4.3c-1.7,2.3-3.8,4.3-6.1,6
			c-0.9-0.3-1.7-0.6-2.3-0.8c-0.4,0.2-0.7,0.4-1,0.7l-3-1V181c1.5,0.2,3,0.3,4.4,0.5c1.5-1.7,3-3.3,4.5-5c0.2-0.7,0.3-1.6,0.6-2.7
			c-0.6-0.5-1.2-1.2-1.9-1.8v-6.1c0.3-0.6,0.6-1.2,0.9-1.7c-0.4-0.9-0.8-1.6-1.1-2.2c-0.5-0.2-0.9-0.4-1.4-0.6
			c0.5-1.3,2.1-1.9,1.6-3.4c1.3-1.2,0.8-2.2-0.3-3.1c-2.1-0.2-4.3,0.5-6.5-0.9c-0.8,1.7-1.3,3.6-2.4,5c-1.3,1.5-2.8,2.9-4.4,4.1
			c0.7,0.7,1.5,1.4,2.1,1.9c-0.4,1.1-0.8,2.2-1.3,3.6c0.9,0.4,1.8,0.7,2.8,1.1c0.3,0.8,0.7,1.6,1.1,2.3c0.5,0.2,0.8,0.3,1.1,0.4
			c-0.4,0.8-0.7,1.3-1,1.8h-1.5c-2.7-3.4-6.8-4.8-10.6-6.9h-5.2c-1.4-1-2.6-1.8-3.8-2.7c-0.4,0.5-0.7,0.9-1,1.2
			c0.7,2,2.4,1.3,3.7,1.6c0.5,1.3,1,2.5,1.4,3.6c-0.7,1.1-2.3,1.2-2.6,3c-0.6-1.4-1-2.3-1.4-3.2c-1.9-0.2-3.1,1.1-4.3,2.3
			c-2.6-2.1-3.9,0.2-5.7,1.3c-0.7-0.1-1.4-0.1-2.4-0.2c0.6-1.3,1.1-2.2,1.7-3.7c-0.8,0.3-1.6,0.7-2.3,1.1c-0.7,0.4-1.3,0.9-1.9,1.4
			c-2.2-0.4-4.5,0.3-6.1,2c-0.5,0.5-1.1,0.8-1.7,1c-0.7,0.3-1.4,0.5-2.1,0.7v1.5l-1.7,1.7h-1.4c-1.1-0.8-1.9-1.4-2.4-1.8
			c-0.3-2.4,1.5-2.3,3.1-2.7c-0.7-1.3-1.3-2.3-1.8-3.1h-4.9c0.6,0.7,1.1,1.3,1.5,1.8c-0.5,1.5-1,2.8-1.4,3.9
			c0.9,0.6,1.5,1.1,2.2,1.6c-0.5,0.9-0.9,1.7-1.4,2.6c-1.4-0.6-2.7-1.2-4-1.8c-1.4,2-4.5,1.8-5.4,4.6c0.5,0.9,1,1.9,1.6,2.9
			c-3.3,0.9-5.5-1.9-8.4-1.9v2l2.1,1.5c0.3,0.4,0.6,0.8,0.8,1.3h-3.5c-0.1-0.3-0.1-0.7-0.2-1.1c-0.6-0.2-1.4-0.4-2.1-0.7
			c-0.9-0.4-0.3-1.6-0.8-2.1c-1.3-1.6-0.1-3.4-0.7-5c-3.4-1.8-3.4-1.8-4.7-4.3c2.4,2.3,5.2,2.4,7.5,3.4c2.6,1.1,5.4,0.7,8,0.7
			c1.2-0.8,2.3-1.6,3.2-2.3v-2.7c-0.5-0.7-0.9-1.4-1.3-2.2c-0.9-0.4-1.8-0.9-2.6-1.5c-0.8-0.8-1.8-0.3-2.7-1.1
			c-1.8-1.5-3.7-3.3-6.5-2.8c-1.7-1.4-3.8-0.2-5.7-1c0.7-0.3,1.1-0.5,1.5-0.7c-1-2.1-2.4-0.7-3.6-0.3c-0.5-0.4-0.8-0.6-1-0.8
			c-0.9,0-1.9,1.8-2.3-0.1c1-0.8,1.9-1.6,2.8-2.2c-0.9-0.7-1.7-1.2-2.6-1.9c-0.5-0.1-1.1-0.1-1.6,0c-0.5,0.2-1,0.4-1.4,0.7v-2.1
			c-0.5-0.1-1-0.1-1.5,0c-1.4,0.4-0.9,2.1-1.9,3.2c-0.4-0.7-0.8-1.4-1.2-2.1c-0.4,0.7-0.7,1.2-1.1,1.8c-1.4-1.6,1.2-1.7,0.6-2.9
			c-1.1,0.3-2.1,0.7-3.1,1c-0.2,0.4-0.3,0.8-0.5,1.3c-1.1-0.4-2-0.7-3-1c-0.7,0.4-1.5,0.7-2.1,1.1c0.2,0.5,0.4,1,0.8,1.8
			c-0.9,0-1.7-0.2-1.9,0c-0.6,0.7-1,0.4-1.6,0c-0.1,0.7-0.2,1.3-0.3,2.1c-1-0.8-1.9-1.6-3.1-2.5c-0.2,1-0.3,1.7-0.4,2.3
			c-1.6,0.9-3.7,0.8-4.7,2.8c0.7,0.1,1.3,0.2,2.2,0.3c-0.8,0.5-1.4,0.8-1.9,1.1l-1.8-0.9c0.2-0.3,0.5-0.6,0.8-0.9
			c-0.5-0.1-1-0.3-1.1-0.1c-1,1.2-1.9,2.4-2.8,3.7c1.6-0.3,2.7-0.5,3.9-0.7c0,0.6-0.1,1.2-0.1,2c-0.5-0.4-0.7-0.7-1.1-1
			c-0.8,1.1-1.6,2.2-2.3,3.3c-1,1.7-1.8,3.6-3.1,4.9c-0.7,0.7-1.1,1-1.2,2c-0.1,0.6-0.4,1.2-0.7,1.8c-0.7,0.6-1.4,1.3-2.1,2
			c0.3,0.4,0.6,0.8,0.8,1.3c-2.6,0.1-3.6,2-4.8,3.9c-0.5-0.4-0.8-0.6-1.4-1.1c0.3,2.6-2.6,2.4-3.2,4.3h-1.2
			c-1.1,0.9-2.2,1.7-3.4,2.8c0.2,0.7,0.4,1.3,0.6,2c-1,1.3-0.4,2.8-0.5,4.3c0.8,0.1,1.4,0.1,2.1,0.2c-0.1,0.5-0.1,0.9-0.2,1.5
			c-0.7-0.3-1.2-0.5-2-0.8c0.1,1.1,0.2,1.9,0.3,2.9c0.8-0.3,1.3-0.5,2.3-0.9c-0.5,1.1-0.8,1.6-1.2,2.4c0.7,0.5,1.4,1.1,2.2,1.7
			c0.6,0.2,1.4,0.5,2.3,0.8c1.1-0.7,2.1-1.5,3.1-2.4c1-0.8,2-1.7,3.1-2.7c0.3,0.2,0.7,0.4,0.8,0.7c1,4.7,3.9,8.7,4.9,13.3h1.7
			c0.2-1.2,0.1-2.4,1.7-2.7c0.4,0.2,0.9,0.5,1.3,0.7l2.9-2.6c-0.1-0.5-0.2-1.1-0.4-1.6c-0.8-1.8-0.6-4,0.7-5.6
			c2.4-0.4,2.3-3.1,4.2-4.2c-1.4-1.3-2.6-2.3-3.8-3.4c-0.2-0.6-0.5-1.4-0.8-2.2c0.5-1.2,1.1-2.3,2-4.2c0.8-0.6,1.6-2.3,3.2-3.4
			s3.1-2.5,4.5-3.5c-1.3-2.9,0.5-4.2,1.8-5.5H89c0.8,1,2.2,1.6,1.5,3.3c-0.3,0.1-0.6,0.1-1,0.2c-0.4,0.8-0.8,1.7-1.1,2.4
			c-1.4,0.9-3,1.5-3.8,2.7s-2.6,1.6-3.1,3.4c0.4,1.5,0.9,3.2,1.4,4.9c-0.4,0.7-0.8,1.6-1.4,2.6c2.2,1,4.2,1.9,5.8,2.6l10.2-2.5
			c0.6,0.7,1.1,1.3,1.8,2.1c-1.5,1-2.9,1.8-4.2,2.6c-0.1-0.2-0.1-0.5-0.2-0.7c-2.9,0.4-6.1-1-8.5,1.9c0.7,1.5,0.9,3.1,2.5,3.2
			c-0.1,0.8-0.2,1.6-0.4,2.4l-0.3,0.9h-2.1c-0.6-0.8-1.2-1.5-2-2.6c-1.1,1.5-1.9,2.6-2.3,3.1c-1,3,0.6,5.7-1.3,7.8
			c-0.6-0.3-1.1-0.5-1.6-0.7c-0.2,0.5-0.4,0.9-0.6,1.4c-1.4,0.6-2.1-0.5-2.8-1.2c-0.6,0.2-1,0.4-1.5,0.6s-1.3,0-1.6,0.3
			c-1.3,1.5-3.2,1.6-4.8,2.3c-0.8-0.6-1.9-0.8-2-2c-1.7,0.5-3.4,0.9-4.7,2.4c-0.3-0.5-0.6-1.1-0.8-1.7c-0.6,0-1.1-0.1-1.8-0.1
			c0.1-0.6,0.1-1.3,0.1-1.9c0.4-0.1,0.8-0.2,1.2-0.2v-1.7c-0.5-0.2-0.9-0.3-1.7-0.6c1-0.7,1.8-1.3,3.2-2.3c-1.1-0.5-1.7-0.8-2.4-1.1
			c-1.1-1.3,2-2,0.4-3.2c-1.6,0.4-2.1,2.9-4.4,2.2c-0.3,1.7-0.5,3.2-0.7,4.4c1.7,1.6,2.4,3.9,1.9,6.2c-0.2,0.5-0.5,1.1-0.7,1.6
			c-0.8-0.5-1.3-0.7-1.9-1.1c-0.6,0.5-1.1,1-1.1,1c-1.7,0.3-2.7,0.6-3.6,0.7c-0.1,0.6-0.1,1.3-0.1,1.9c-0.7-0.4-1.1-0.6-1.6-0.9
			c-0.7,2.7-1.2,3.4-3.6,5.8h-2.2c-0.5,1.3-0.9,2.5-1.5,4.1c-1.7-0.5-2.7,0.4-3.1,2c-1-0.6-2-1.3-2.9-1.9c-0.3,0.3-0.6,0.6-1,0.9
			c1.1,0.9,0.7,2,0.5,3.3c-0.9-0.3-1.6-0.5-2.7-0.8h-4.1v2c0.9,0.5,1.9,0.9,2.9,1.4s2.2,0.9,3.2,1.3c0.1,0.8,0.2,1.4,0.2,1.8
			c0.7,0.5,1.4,0.9,2.1,1.3c-0.3,2.5-0.7,4.9-1,7.3l-0.8,0.8h-8.6c-0.8,0-1.9,0.3-2.4-0.1c-2.3-1.6-3.7-0.1-5.3,0.9
			c1.4,2.6,1.9,5.1,0.6,8c-0.9,1.9-1.3,4,0.3,5.9c0.9,1,0.2,2.2-0.2,3.4h4.8c0.9,1.1,1.6,2,2.3,2.8l1.4-1.4c2.1-0.3,4.3-0.7,6.4-1
			c1-0.8,2-1.5,2.8-2.1c0.6-1.1,1.1-2.1,1.8-3.4v-3.2c1-1.2,2-2.4,3.1-3.7c0.1,0.1,0.2,0.3,0.3,0.4l3.6-2.1v-3.5l1.1-1.1l2.9,0.3
			l2.7,0.5c2.4-1.5,4.4-2.6,6.3-3.8c2.5,1.4,2.8,3.9,3.6,5.1l2.3,1.9c1.5,1.2,2.9,2.6,4.4,3.7c3.9,2.7,4.3,3.4,3.2,7.6
			c0.3,0.1,0.5,0.1,0.8,0.1c0.7-1.2,1.3-2.4,1.9-3.6c0,0.1-0.4-2.7-0.4-2.8l3.2,0.9c-0.1-0.6,0-1.1-0.2-1.2
			c-2.4-1.7-4.9-3.3-7.6-5.1c-0.4-0.8-1-1.9-1.6-3c0.2-0.2,0.4-0.3,0.6-0.5l-3.7-3.7c0.2-0.7,0.5-1.6,0.9-2.6c2-0.2,3,1.6,4.5,2.3
			c0.1,0.6,0.1,1.2,0.1,1.8c1.4,0.9,2.1,2.4,3.8,3c2.3,0.9,4.3,2.4,5.8,4.4c-1.6,3.1,0.3,5.2,2.3,7c0,0.7,0.1,1.1,0.1,1.6
			c0.9,0.1,1.8,0.3,2.6,0.4v0.3c-0.6,0.1-1.3,0.2-2.1,0.3c0.4,1.7,1.4,3.1,2.8,4h1.3c0.2-0.8,0.5-1.6,1-2.3c0.7-0.7,1.5-1.4,2.3-2
			c-0.7-0.5-1.3-1-1.8-1.4c-0.5,0.4-0.7,0.6-1,0.8l-0.3-0.3c0.2-0.5,0.4-0.9,0.7-1.5c-0.5-0.7-1.2-1.6-1.8-2.5
			c-0.2-0.3-0.1-0.8-0.1-1.2c1.2,0.3,2.2,0.6,3.3,0.8c0.1-1,0.2-1.6,0.3-2.3c0.5,0.4,0.7,0.6,1,0.8c0.9-0.3,1.7-0.6,1.9-0.7
			c1.1,0.7,1.8,1.2,2.5,1.7c0.2,0.3,0.4,0.6,0.5,0.9c-0.7,0.2-1.4,0.3-2.4,0.6c1,0.3,1.4,0.5,1.6,0.5c0.3,1.8,0.5,3.5,0.7,5.2
			l-0.4,0.4c1.1,0.9,2.1,1.7,3.2,2.5c0.5,0.1,1.1,0.1,1.5,0.2c0.1,0.4,0.2,0.8,0.2,1.2h2.4l1.2-1.2h2.5c0.4,0.5,0.7,0.9,0.9,1.2
			c2,0.4,4-0.1,5.5-1.4c0.3,0.2,0.6,0.4,0.8,0.7c0.7-0.2,1.3-0.5,2-0.8c-0.4,0.8-0.8,1.1-0.8,1.5c0.1,3.2,0,6.3-2.1,8.9
			c-0.2,0.3,0.1,0.9,0,1.4c-0.3,1.5-1.2,2.8-2.5,3.7h-2.5c-1.1-0.6-2-1-2.9-1.5c-1.5,0.9-3.4,0.9-4.4,2.4c-1.5-0.7-2.6-1.5-4.2-1.6
			c-1.6-0.1-3.2-0.6-4.6-1.4c-1-0.6-1.9-0.5-3.3-0.7c-0.4-0.5-1.1-1.3-1.8-2.2c-1.3,0.3-2.6,0.6-3.9,1c0.1,0.1,0.2,0.1,0.3,0.2
			c-0.8,0.5-1.6,1-2.3,1.5c0.4,1.3,0.7,2.3,1,3.3c-1.8,1.5-1.8,1.5-3.2,0.6s-3-2.2-5-2.2s-1.4-1.7-1.9-2.6c-1.8-0.4-3.4-1.1-5.3-0.9
			c-0.7,0.1-1.6-0.6-2.3-1.1c-0.6-0.6-1.1-1.2-1.5-1.9c-0.1,0.1-0.2,0.3-0.3,0.4c-0.5-0.2-1.1-0.3-2.2-0.7c1.1-0.9,1.8-1.4,2.8-2.2
			c-0.1-1-0.4-2.4-0.6-4c0.1-0.2,0.4-0.6,0.6-1l-2.2-2.2c-0.7,0.3-1.5,0.6-2.3,0.8c-3.7,0.3-7.5,0.4-11.2,0.8c-2,0.2-4.2,0.2-5.8,1
			c-2.1,1.1-4.6,1.7-6.1,3.9c-2.1-0.3-4.2-0.6-6.5-1c-0.5-0.5-1.1-1-1.7-1.4c-1.6,1.3-2,3.1-2.7,4.6c-0.9,1.8-3,2.2-4.2,3
			c-1,1.6-1.8,2.9-2.8,4.6c0.2,0.9,0.5,2.3,0.8,3.6c-1.8,1.8-3.6,3.5-5,5c-1,0.3-1.9,0.4-2.1,0.8c-1.1,2.5-3.4,4.3-4.3,7
			c-0.1,0.8-0.4,1.5-0.8,2.1c-2,2.4-3,5.3-4,8l1.2,2.1c0.6,1.3-0.1,2.8,0.8,4.2c0.5,0.7,0.1,2,0.1,3c-2.1,1.9-0.8,4.8-1.9,6.5
			c0.2,1.8,2.3,3,0.5,4.8c0.8,0.9,1.7,1.9,2.8,3.2c0.5,1.3,1.3,2.5,2.4,3.3c1.3,1.1,2.2,2.6,2.5,4.2c0.2,1.1,0.8,2,1.7,2.7
			c2.1,1.7,4.4,3.4,6.7,4.9c0.7,0.5,1.5,0.9,2.2,1.4c1,0.7,2.3,0.9,3.4,0.3c4-1.4,4.9-1.3,9.4-0.4c0.7,0.2,1.4,0.1,2.1-0.1
			c2.4-1.3,4.7-2.6,7.2-4.1h4.7c1.1,0.8,2.1,1.6,3.2,2.4c-0.1,0.1-0.2,0.2-0.4,0.3c0.4,0.8,0.7,1.5,1.1,2.3c2-0.3,3.9,0.5,5.5-0.8
			c1.2,0.9,2.3,1.8,3.4,2.7v3.7c-0.3,0.7-0.7,1.4-1.1,2c0.2,1.3,0.3,2.2,0.5,3c-0.6,0.6-1,1.1-1.7,1.8c0.2,1.1,0.5,2.3,1,3.3
			c0.8,1.2,1.7,2.4,2.7,3.4c2.7,3.1,3.1,3.7,4.2,7.3c0.4,1.4,1.3,2.9,1.3,4.3c-0.1,2.8,0.5,5.6,1.6,8.1c-1.2,2.1-2.4,4-3.6,6.1
			c0.1,1.6,0.1,3.4-1.4,4.8v4.2c1,2.5,2.6,4.7,3.6,7.2c1.1,2.8,1.8,5.7,2.2,8.6c0.2,2.9,0.7,5.8,1.4,8.7c2.9,3.8,3.8,8.6,6.2,12.3
			c-0.8,2-0.8,2,0.3,5.5l3,2.1c1.6-0.6,3.1-1.3,4.7-1.9c0-0.1-0.1-0.2-0.1-0.4h7.2c0.1-0.3,0.2-0.7,0.2-1c1.4-0.4,2.9-0.4,3.8-1.2
			c1.6-1.4,3.1-3,4.5-4.7c2.3-2.8,3.4-6.5,5.9-8.3c0.4-1.1,0.8-2.2,1.1-3.4c-0.1-1.1-0.3-2.2-0.6-3.3c2.1-1.2,4.2-2.5,6.2-3.7
			c0.2-3-0.2-6.1-1.3-8.9c-0.6-1.6,0.3-3.3,1.8-4.4c0.5-0.4,1.5-0.6,1.6-1.1c0.3-2,2-2.5,3.3-3c2.5-1,4.6-2.9,5.8-5.3
			c0.3-4,0.1-8-0.6-11.9v-0.7c0-0.1-0.1-0.2-0.2-0.3c-0.3-0.1-0.6-0.2-0.9-0.2c-0.3-1-0.7-2.1-0.9-3.1c-0.1-1.2-0.1-2.3,0-3.5
			c0-0.3,0.2-0.8,0-1c-1.6-1.7-0.4-3.5,0.1-5c0.8-3,2.4-5.7,4.7-7.8c1.6-1.3,3-2.8,4.1-4.6c0.8-1.4,2-2.6,3.4-3.4
			c2.3-1.3,4.2-3.2,5.7-5.4c1.5-2,3.6-3.9,3.7-6.8c0-0.7,0.4-1.3,0.9-1.7c1.2-1.2,1.9-2.7,2.1-4.4c0.5-2,1.8-4,0.7-6.5
			c-1.1,0.6-2,1.1-3,1.6c-1.4-0.1-2.7-0.1-4.1,0.1c-1.1,0.2-2.2,1.2-3.3,1.3c-1.1,0.1-2.1,0.5-3,1.1l-3.8-3.8
			c0.2-0.1,0.6-0.2,1.3-0.5c-1-1.1-1.7-2-2.4-2.8c-1.2-1.4-2.1-3.3-3.6-4c-3.1-1.5-3.3-4.4-4.3-7.3c-0.9-0.9-2.1-2-3.2-3.2v-5.3
			c-0.6-1.3-0.9-2.8-1.8-3.2c-0.9-0.5-1.5-1.4-1.6-2.5c-0.5-2.1-1.3-4.1-2.4-6c-0.8-1.5-1.4-3.1-1.9-4.8l2.7-2.7
			c0.6,4.1,4.8,6.5,5.1,10.5c1.5,1.9,2.8,3.5,4.2,5.2v3.2c0.2,0.7,0.6,1.4,1.1,2c2.3,1.9,3.1,4.7,4.5,7.2c1.5,2.3,2.3,5,2.4,7.8
			c0.4,1.4,0.9,2.9,1.3,4.4h2.9c0-0.1-0.1-0.2-0.1-0.3c1.4-0.4,2.9-0.9,4.5-1.4l0.9-0.9c0.8,0,1.6-0.1,2.4-0.4
			c1.2-0.8,2.4-1.6,3.6-2.5c2.6,0.3,4.2-1.3,5.3-3.5c0.4,0.1,0.7,0.1,1.1,0c0.3-0.1,0.5-0.5,0.8-0.5c1.9-0.1,3.6-0.5,4.6-2.4
			c0.1-0.3,0.8-0.3,1.2-0.5s1.3-0.4,1.4-0.8c0.4-1.3,1.8-1.4,2.5-2.5v-2c1.6-1.9,4-3.2,4.2-6c-0.8-1.1-1.5-2.2-2.2-3.3
			c-4-0.9-4.3-1.3-5.1-6.5c-1.1,0.1-1.4,0.8-1.8,1.7c-0.6,1.4-1.4,2.8-3.1,3.1l-4.9,0.9l-0.9-1.8c0.9-0.9,0.8-2,0-3.7
			c-0.8,1.1-1.4,1.8-2.1,2.7c-0.4-1.6-0.8-3.2-1.2-5c-2.2-1.8-3.6-4.3-3.9-7.1c0.3-0.4,0.6-0.8,1-1.1h3c0.7,0.9,1.6,1.5,1.8,2.8
			c0.3,1.2,1,2.3,2,3c1.3,1,2.7,1.8,4.2,2.5c1,0.5,2,0.9,3.1,1.2l1.5-0.6c0.6-0.3,1.2-0.5,1.9-0.8c0.4,0.7,0.8,1.2,1.1,1.8
			s0.4,1.2,0.7,2c2.3-0.5,4.2,1.2,6.4,0.6c1.9,1.3,4.2,1,6,0.6c2.6-0.7,5.1-0.3,8-0.6c0.6,3.7,4.1,4.7,5.9,7.2
			c0.7-0.3,1.1-0.5,1.7-0.8c-0.1,0.4-0.1,0.7-0.1,1.1c-0.7,0.2-1.3,0.4-2,0.5l3.8,3.8h1.6c0.5-1,1-1.9,1.6-3.3
			c0.5,1.3,1.4,2.5,1.1,3c-1.3,2.4-0.3,4.6,0.2,6.8c0.5,2.7,1.1,5.3,2,7.9c0.5,1.2,1,2.4,1.4,3.6c0.3,1.6,0.9,3.1,1.5,4.6
			c1,1.8,1.7,3.8,2.1,5.8c0.3,1.1,0.8,2,1.6,2.8c0.2,0.3,1,0.2,1.5,0.2c1.6-2.3,3.1-4.4,4.3-6.1c0.4-1.9,0.7-3.9,0.9-5.8
			c0.1-2,0-3.9,0-6c1.9-1.6,3.5-3.5,5.6-5c1.7-1.2,3.5-2.6,4.3-4.8c0.2-0.4,0.8-0.7,1.3-1c1.2-0.7,2.4-1.4,2.1-3.2
			c0.6-0.6,1.2-1.1,1.6-1.5c2.1-0.4,4.1-0.7,6-1.1c0.2-1.2,0.6-2,2-1.9c0.4,1.5,0.7,3,1.1,4.9c1.1,1.1,2.5,2.4,3.7,3.6
			c0.7,2.5,1.5,4.9,0.3,7.2c0.8,1.2,1.9,1,3.3,0.8c0.4-0.7,1-1.6,1.5-2.4c0.1-0.1,0.3-0.1,0.6-0.2c0.5,0.9,1,1.7,1.5,2.5
			c0,4.6,0.2,5.4,2.3,7.7c-0.2,3.5-0.4,7.3-0.7,11.3c1,0.9,2.2,2,3.4,3.2c0.3,1.9,0.6,3.7,0.8,5.4c1.4,4,4.4,7.2,8.3,8.9
			c0-0.7-0.1-1.4-0.4-2c-1.2-1.4-1.1-3.1-1.1-4.8v-2.3c-1.9-3.2-5.3-4.4-7-7.3c0.2-0.3,0.4-0.5,0.7-0.7c-0.9-1.3-1.9-2.5-3-4
			c0.7-2.2,1.5-4.6,2.2-7c-0.2-0.4-0.4-0.7-0.6-1h2c0.1,0.4,0.2,0.8,0.2,1.2c0.8,0,1.6,0.1,2.3,0.1c0.5,0.5,1.4,1,1.4,1.5
			c0.2,2,1.6,2.9,2.8,4c1.2-0.1,2.1,0.2,2.4,1.4c-0.7,1.5-0.7,1.5,0.1,3c0.6-0.6,1.2-1.1,1.7-1.7s0.6-1.2,1-1.7s0.8-1,1.3-1
			c2.3-0.1,3.5-1.8,4.9-3.2c0.2-1.3,1-2.9,0.6-3.9c-0.6-1.3-0.4-2.6-0.8-4.4c-2.1-2.4-4.6-5-6.8-7.5v-4.3c0.7-1,1.2-1.8,1.6-2.3
			c1.6-0.7,2.9-1.2,4.2-1.7c0.5,0.2,0.9,0.5,1.3,0.8c0.4-0.3,0.8-0.5,1.1-0.7c0.2,1,0.4,1.9,0.6,3c3.8-4.1,8.3-5.5,13.4-6
			c1.2-1.4,2.5-2.6,3.9-3.8c1.5-1,2.5-2.6,4.1-3.5v-2.6c1.4-1.8,2.8-3.5,4.2-5.2c-0.1-0.7-0.1-1.3,0-2c0.1-0.5,0.2-0.9,0.4-1.4
			l-2-1.4c0.7-0.2,1.1-0.4,1.5-0.5v-1.6c-1-0.3-2.3-0.6-2-2.4c0.7,0.6,1.2,1,1.8,1.5c0.4-1.5-0.9-1.7-1.2-2.5
			c-1-2.3-1.7-4.7-3.5-6.6c-0.2-0.2,0-0.7,0-0.8l3.8-3.8c1.2-0.5,2.2-0.8,3.5-1.3c-1.6-0.8-2.9-1.6-4.6-2.5
			c-0.5,0.6-1.2,1.3-1.9,2.1c-0.4,0-0.8-0.1-1.3-0.1c-0.1-0.7-0.2-1.4-0.4-2.1h-2.8c-0.2-0.8-0.4-1.6-0.7-2.5c1-0.2,1.7-0.4,3.1-0.7
			l5.5-4.7c0.1-0.1,0.3-0.1,0.7-0.1c0.3,0.7,0.5,1.4,0.8,2c-0.7,0.6-1.2,1.1-1.7,1.6c0.1,1,0.3,1.8,0.4,2.7c2.1-1.4,3.9-2.5,5.7-3.7
			c1.1,0.9,0.1,0.1,1.1,0.9h0.4c0.1,0.1,0.1,0.3,0.2,0.4s-0.1,0.1,0,0.2s0.1-0.1,0.2-0.1v-0.3c0.1,0.1,0.3,0.1,0.4,0.3
			c0.2,0,0.3,0.2,0.5,0.3l0,0c0.1-0.1,0.1-0.1,0.2,0l0.1,0.1c0.1,0,0.2-0.1,0.4-0.1c-0.1,0.1-0.2,0.2-0.2,0.3v0.2
			c0.1,0,0.1,0,0.2,0.1c0,0.1,0,0.1-0.1,0.1l0,0v0.2c0,0.1-0.2,0.1-0.2,0.3s0,0.1,0,0.2c-0.1,0-0.2,0.1-0.2,0.2
			c0,0.1-0.1,0.2-0.1,0.3v0.3l0,0v0.4h-0.1l-0.1,0.1l-0.1,0.1c-0.1,0.1-0.1,0.2-0.2,0.3s-0.2,0.2-0.2,0.3v0.3l-0.2,0.3
			c0.1,0,0.2,0,0.2-0.1l0.7,0.3c0.1,0.3-0.5,0-0.5,0.2s0.2,0.2,0.3,0.2l0.2,0.1l0.2,0.3h0.2c0.1,0,0.2-0.1,0.2-0.2h0.2
			c0-0.1,0-0.3,0.1-0.4h0.2c0-0.1,0-0.2-0.1-0.2s-0.1,0-0.1-0.1h0.1c0.1,0,0.2,0.1,0.4,0.1l0,0c0.1,0.1,0.2,0.2,0.2,0.3
			s0.1,0.1,0.1,0c0-0.1,0-0.1-0.1-0.2h0.1c0.1,0.1,0.2,0.2,0.2,0.4c0,0.1,0.1,0.1,0.1,0V276c0.1-0.1,0.2-0.1,0.3-0.1
			c0.1,0,0.1,0,0.2-0.1c0.3,0.2,0.6,0.4,0.8,0.6l3.7-2c-0.1-0.2-0.1-0.3-0.2-0.5v-0.1c0-0.1,0-0.1-0.1-0.2l-0.1-0.1h-0.2l-0.3-0.3
			l0,0c-0.1-0.2-0.2-0.4-0.4-0.5c0-0.1-0.1-0.1-0.1-0.2h-0.2c-0.1-0.1-0.2-0.1-0.3-0.1l-0.1-0.1l-0.1,0.1c-0.2-0.1-0.2-0.1-0.1-0.4
			h0.3v-0.3c0-0.1,0-0.3,0.1-0.4c0.1-0.1,0-0.1,0-0.2c-0.1,0-0.1,0-0.1-0.1l0,0c0-0.1,0.1-0.4,0.2-0.4s0.1,0,0.2-0.1
			c0.1-0.1,0.2-0.1,0.3-0.1l0.1-0.1c0-0.1,0-0.1,0.1-0.1l0,0l0.2-0.2c0.2,0,0.3,0.1,0.5,0c0.1,0,0.1,0,0.1,0.1l0,0l0.2-0.2
			c0.2-0.1,0.3-0.2,0.5-0.3s0.1-0.1,0.1-0.2s-0.1-0.2,0.1-0.2h0.1c0.1-0.1,0.3-0.1,0.3-0.2s0.1-0.1,0.2-0.1c0.1,0,0.2-0.1,0.2-0.2
			c0-0.1,0-0.1,0.1-0.1l0,0c0-0.1,0.1-0.2,0.1-0.3h0.2c0.1-0.2,0.2-0.3,0.4-0.3h0.1c0.1-0.1,0.2-0.1,0.3-0.1h0.1
			c0-0.1,0.1-0.2,0-0.3c-0.1-0.2-0.1-0.5,0-0.7c0-0.1,0.1-0.3,0.1-0.4l-0.1-0.1c-0.1,0-0.2-0.2-0.1-0.3c0,0,0-0.1,0-0.1
			c0-0.2,0.1-0.3,0.2-0.5h0.1c0.1-0.1,0.2-0.1,0.2-0.2v-0.1c0.1,0,0.2,0,0.2-0.1s0.1-0.2,0.2-0.3h0.1c0.1,0,0.2-0.1,0.2-0.2
			c0-0.1,0-0.2,0.1-0.2s0.1,0.1,0.1,0c0-0.1,0-0.1,0.1-0.1l0,0l0,0v-0.1c0.1-0.1,0.2-0.1,0.3-0.1c0.1,0,0.1,0,0.1,0.1l0,0
			c0.1,0,0.1-0.1,0.2-0.1c1.2-1.3,1.7-3.3,3.9-3.3c0.6,0.5,1.3,1,2,1.6c1.2-0.9,2.4-1.8,3.5-2.8c1.3-1.4,2.6-2.8,3.8-4.3
			c1.6-2.1,3.6-3.9,4.5-6.6c0.3-0.5,0.7-0.9,1.1-1.3c1.9-2.2,3-4.9,3-7.8c0.1-1.4-0.1-2.9,0.7-4.3c1.2-2.1,0.6-4.4,0.7-6.3
			c-1.8-1.1-2.5-3.1-5.3-3.1c-0.6,0.5-1.5,1.5-2.3,2.3c-0.1-0.6-0.1-1.4-0.3-2.9c-0.7,1-1.1,1.5-1.9,2.6v-3.4
			c-1.1,0.4-1.9,1.4-2.8,0.2v-0.4c1.1-1.4,2.4-2.6,3.9-3.6c1.4-0.9,2.2-2.9,3.6-3.9c1.6-1.2,3.1-2.7,4.4-4.2
			c1.3-1.3,2.7-2.5,4.2-3.6c1.7-1.2,3.6-0.9,5.5-0.4s3.1,0.5,5.9-0.2c0.2-0.1,0.5,0.3,0.7,0.4l3.3-2.1c0.7,0.6,1.3,1.1,1.7,1.5
			c1,0.1,1.7,0.2,3.1,0.3l-2.5,2c2.6-0.3,4.7-0.5,6.7-0.9c0.7-0.2,1.4-0.5,2-1c-0.5-0.5-0.9-1-1.3-1.4c1.1-2.3,3-4.2,5.3-5.4
			c0.1-0.7,0.3-1.4,0.4-2h3.5c0.3-0.3,0.7-0.6,1.1-0.8c0.9,0.5,1.6,0.9,2.5,1.3c-0.3,0.4-0.6,0.8-0.9,1.1c0.4,0.7,0.7,1.3,1.2,2.1
			c1.5-1.1,2.9-2.1,3.8-2.7l2.6-1.1c0.1-0.8,0.1-1.7,0.1-2.5c0.5-1,1.8-1.3,2.7-0.7c0,0,0,0,0.1,0c-0.6,1.5-1.3,3.1-1.9,4.7
			c-0.4,1.1-0.8,2.1-2.3,2c-0.4,0.1-0.8,0.4-1.1,0.7c-2.4,3.4-5.5,6.1-8,8.7c-1.4,0.5-2.5,0.9-3.2,1.2c-0.5,1.2-0.6,2.5-1.3,3.2
			c-2.4,2.7-1.8,5.9-1.7,9c1.1,0.8,0.4,1.9,0.6,2.9c0.3,0.9,0.5,1.8,0.6,2.8c-0.1,1.8,0.7,3.3,1,5.1l4-4v-2.3
			c1.2-0.6,2.3-1.1,3.3-1.6c-0.3-0.4-0.5-0.8-0.7-1.3l2.7-2.7c0.6-0.1,1.4-0.2,2.5-0.3c-0.4-1.1-0.7-1.9-1-2.7
			c0.5-0.8,1-1.7,1.4-2.4c0.8-0.2,1.5-0.4,2.8-0.8c-0.8-0.5-1.6-1-2.4-1.4c0.5-1.1,1-2.3,1.6-3.7h-2.7v-1.4c1.5-2.2,3-4.3,4.5-6.4
			c0.7,0.2,1.4,0.4,2.1,0.6c0.7-0.8,1.4-1.7,2.4-2.8c0.1,0.9,0,1.2,0.1,1.5s0.2,0.6,0.4,1.1c1.8-1.6,4.1-2.5,6.5-2.4
			c0.5,0.6,1.1,1.4,1.5,1.9c2.5-1.7,4.8-3.2,7.1-4.8c1-0.7,2-1.9,3-2c2.2-0.1,4.3-1.2,5.7-3c1.3,0.5,2.4,0.9,3.5,1.3
			c0.5-0.3,1.1-0.6,1.8-1c-0.6-1-1.1-2-1.5-3.1c-0.5-3.3-3-4.3-5.7-5.2c0.5-0.4,1-0.8,1.4-1.1c0.5,0.4,1,0.9,1.4,1.4
			c2.4,0.6,4.9-0.4,6.3-2.4c0.1-0.6,0.1-1.1,0-1.7c-0.2-0.4-0.4-0.9-0.6-1.3c0.6-0.4,1.1-0.6,1.7-1c0.2,0.9,0.3,1.5,0.4,2.1l0.4-0.4
			c0.4,0.7,0.7,1.4,0.9,1.7c0.7-0.2,1.5-0.4,2.2-0.4c0.9,0.2,2.3,0.5,2.6,1.1c0.9,2,2.9,2.6,4.8,3.7c0.7,0,1.8-0.1,2.5-0.1
			c0.2-1.8,0.4-3.3,0.6-5.1c0.7,0.4,1.2,0.7,1.4,0.8c0.9-0.3,1.7-0.6,2.5-0.9c-0.5-1.4,1.7-0.6,1.4-1.8
			C444.9,182.9,443.6,181.8,442.3,180.7z"/>
		<path class="st0" d="M736.5,384.5h-3.1l-5-5h-5.7c-1.2-0.6-2-1-3.1-1.6c-0.3,0.4-0.6,0.8-0.9,1.1c-0.4,0.3-0.8,0.5-1.2,0.7
			c0.2-1.1,0.3-2,0.5-2.9c-2.6-1.1-4.6-3.3-7.6-2.8c-0.6,0.9-1,1.5-1.5,2.2c-2-1,0.3-1.5-0.2-2.6c-0.2-0.1-0.7-0.4-1.2-0.7
			c0.1-0.1,0.2-0.3,0.3-0.4h-3.3c0.6-1.4,1.2-2.5,1.7-3.6c-1.9-1.6-3.3-3.3-2.9-5.7c-1.8-1.4-2.8-3.2-4.8-4.1
			c-1.8-0.8-3.5-1.8-5.4-0.6c-0.7-0.5-1.3-0.9-1.9-1.4c-0.4,0.4-0.7,0.6-0.9,0.8c-2.4-1.8-3.8-4.7-6.5-6.2c-0.9,0-1.9-0.1-2.6-0.1
			c0.1-1,0.3-1.8,0.4-2.6c-1.1-0.1-1.9-0.1-2.8-0.1c-0.4-1-0.7-1.8-1.1-2.8c-2,0.8-4,1.6-6.1,2.4c-0.4-0.6-0.9-1.2-1.4-1.7h-4.3
			c0-2.2-1.7-2.8-3.7-3.4c0.1,2-1.9,1.6-3.1,2.6c0.2,1.3,0.5,2.8,0.7,4.4h-1.7c-0.3-0.6-0.6-1.2-0.8-1.7c0.4-0.8,0.9-1.7,1.3-2.5
			c-0.3-0.5-0.6-1-1-1.5c0.5-0.3,1.1-0.6,1.7-0.8c-0.2-0.4-0.3-0.9-0.4-1.3c-2.7,1.3-5,3.1-8.1,3.2c-0.7,2.7-2.3,4.8-4.3,7.1
			c-0.3-0.7-0.7-1.4-1.2-1.9c-0.7-0.5-1.5-0.9-2.3-1.1c-0.8-0.3-1.6-0.6-2.4-0.8c-0.6,0.7-1.2,1.5-1.7,2.1h-2.3
			c-0.9-0.9-1.7-1.6-2.5-2.5c-1.4-1.6-3-3.1-1.3-5.5c0.2-0.2,0-0.7,0-1c0.1-1.9,0.3-3.8,0.5-6.1c-0.8-1.2-2-2-3.4-2.2
			c-2.1-0.2-4.2-0.2-6.3-0.1c-0.7,0-1.1,1.4-1.8,0.5c0.3-1.8,0.5-3.5,0.8-5.2c1.9-1.9,2-4.4,1.9-6.5c0.7-1.1,1.1-1.7,1.7-2.6
			c-2.7-0.5-5.5-0.3-8.1,0.8c-0.3,1.4-0.6,2.9-0.7,3.6l-2.6,2.6c0-0.1-0.2-0.5-0.4-1.1c-1.8,0.5-3.6,1-5.5,1.5
			c-1-0.7-2.1-1.4-3.3-2.2c0.3-2.3-1.4-3.6-2.8-5c0.2-2.2-1.2-4.2-0.7-6.4c0.4-2,0.8-4.1,1.3-6.2c-0.3-0.6-0.8-1.3-1.2-2.1
			c0.9-2.1,2.5-3.7,4.6-4.5c0.4-0.2,0.8-0.6,1-1c1.1-1.7,2.8-2.1,4.9-1.3c0.8,0.4,1.8,0.2,2.4-0.4l1.1,1.1c1.6,0.3,3.1,0.5,4.8,0.8
			c-0.6-0.8-1.1-1.5-1.6-2.1c0.5-0.6,0.8-1,1.2-1.5c1.4,0.2,2.6,0.4,3.8,0.5c1.1,0,2.2-0.2,3.3-0.4c0.5,0.8,0.9,1.5,1.3,2.1
			c0,0.1,0.2,0,0.5,0c0.5-0.5,1.2-1,2-1.7c1,1.3,1.8,2.5,2.7,3.7c-1,2.4,1.2,4.3,1.4,6.7c0.8,1,1.7,2,2.8,3.3
			c0.3-0.5,0.5-1.1,0.8-1.6c0.7-2.5,0.5-5.2-0.5-7.6c-0.5-1.2-1.3-2.3-1.1-3.7c-1.6-1.4-0.2-3,0.1-4.3c0.3-1.6,1.4-2.9,2.9-3.4
			c0.5-0.1,0.9-1.2,1.3-1.8c0.3-0.4,0.6-0.7,0.8-1h1.7c0.1-0.4,0.2-0.7,0.3-1.1l2.8-1.4v-2.5c0.3,0.3,0.6,0.6,1,0.8
			c0.4-0.5,0.8-1,1.1-1.4c-0.3-0.3-0.5-0.7-0.7-1.1l0.5-0.5c-0.8-1.5-1.7-3-2.3-4.1c0.6-0.7,1-1.3,1.8-2.2v3.9
			c1.2-1.4,1.8-3.8,1.3-4.8c2.5-0.5,2.4-2.7,3-4.4c1.3-0.3,2.5-0.6,3.6-0.9c0.1,0,0.1-0.3,0.2-0.6c-0.9-0.1-1.8-0.1-3.2-0.2
			c2.1-0.7,3.7-1.2,5.3-1.7l0.2,0.2c0.5-0.3,1-0.5,1.8-0.9c-1.9-1.5-1-2.8-0.4-4.1c0.3-0.8,0.9-1.4,1.7-1.7c1.5-0.1,1.5-1.4,2.3-2.3
			c0.5,0.3,1,0.5,1.5,0.7c1.1-0.8,2.3-1.4,3.6-2c1.3-0.6,2.5-1.4,3.5-2.5c0.1-0.1,0.3-0.1,0.5-0.2c0.1,0.7,0.2,1.3,0.3,1.8
			c0.5,0.2,0.9,0.3,1.2,0.4c0,0.1,0,0.2-0.1,0.3h-2.9c-0.7,0.7-1.3,1.3-1.9,1.8v1.4l1,1h1.5c0.8-0.9,1.7-1.8,2.4-2.6
			c2.9-0.7,5.6-1.3,7.2-3.5c0.9-0.2,1.4-0.4,2.7-0.7c-0.7-0.5-1.5-0.9-2.3-1.3v-2.3c-1,1.8-1.7,3-2.3,4c-0.7,0.4-1.5,0.7-2.3,1
			c-1.7-1.1-3.4-2.1-5-3.1c-0.1-1.5-0.2-2.8-0.3-4.2c-0.4,0.3-0.7,0.6-1,0.9c-0.1-0.4-0.2-0.7-0.2-1.1c1-0.5,1.9-1,3.1-1.6
			c-0.4-0.8-0.8-1.6-1.1-2.4c-1.6,0.4-3-0.1-4.5,0.7c-1.2,0.6-2.6,1-3.8,1.6c-1.2,0.7-2.2,1.6-3.1,2.7c0.5-2.3,2.4-3.3,3.8-4.7
			c0.8-0.2,1.9-0.4,2-0.9c0.4-1.6,1.7-1.9,2.9-2.7h12.6c1.2-1,2.6-2.2,3.9-3.3c1.6-0.3,3.1-0.6,4.6-0.9c0.2-0.6,0.3-1.2,0.5-1.9
			c-0.1-0.2-0.4-0.5-0.8-1.2c0.7-0.4,1.3-0.8,1.9-1.2c-1.1-1-0.8-2.7-2.6-2.7c-0.2,0.2-0.5,0.4-0.8,0.7c-0.4-1.4-1.2-2.3-2.8-2.1
			c-0.1-0.2-0.1-0.3-0.2-0.5c0.7-0.1,1.3-0.2,1.9-0.3v-0.9c-2-0.7-4-1.4-5.9-2c-1.6-1.5-3-2.9-4.5-4.3c0.7-0.5,2-0.4,2-1.4
			c-2.5-4.3-4.9-8.2-7.4-12.6c-0.5,3.6-2.8,6.7-6.1,8.2l-2.1-2.1c-0.8-0.1-1.3-0.2-1.7-0.2c-0.6-2.6-1.6-4.9-0.2-7.4h-2.9
			c-2.9-1.5-4.1-4.5-6.9-5.7c-0.8,0.4-1.6,0.9-2.5,1.3c-3.2-1.3-3.2-1.3-6.3-1.1c-0.3,0.6-0.5,1.1-0.8,1.7c0.7,0.6,1.3,1.3,2.1,2.1
			c-0.6,0.4-1.1,0.9-1.6,1.2c0.5,1.5,1,2.8,1.5,4.1c-0.9,1.5-1.8,3-2.6,4.5c5,4.8,4,2.6,4,9.8c-2,1.4-4.1,2.7-6.3,4.2
			c0.4,0.8,0.8,1.6,1.3,2.5c0.5,1.1-0.2,2.4,0.7,3.5c0.5,0.6,0.2,1.8-0.4,2.8s-1.7,1.5-2.3,2.8c-1-1.3-1.5-2.7-2.5-3.1
			c-1.3-0.6-1-2.3-2.3-2.4v-7.1l-1-1c-1.6,0-3.3,0.3-4.8-0.1c-1.6-0.4-3.1-1.1-4.3-2.2c-2-1.7-3.8-3.3-6.5-3.7
			c-0.9-0.1-1.8-0.9-2.7-1c-0.9,0.1-1.8,0.3-2.7,0.6c-0.4-1.7-0.8-3.3-1.2-5.1l-3.9-1.5v-3.1c0.1-2.3,0.9-4.5,2.4-6.3
			c0.9-1.1,1.6-2.3,2.4-3.5c0.3-0.5,0.7-0.9,1-1.4h2.3c0.4-0.5,0.7-1,1.2-1.7c-1.8-0.4-3.5-0.6-4.6-2.2c2-0.7,3.7,1.4,5.6,0.3
			c0.1-0.6,0.2-1.2,0.3-2c1.2,1.4,2.5,0.7,3.5,0.8c1-1.3,1.8-2.4,2.7-3.5c-0.2-0.3-0.4-0.6-0.5-0.9c1.2-1.1,2.4-2.1,3.4-3
			c-0.4-0.9-0.7-1.5-1-2.2h2c0.2,0.3,0.3,0.6,0.4,0.9c1.7,1.2,2-1,3.3-0.7c1.1,0.2,1.9-0.6,2.7-1.3c0.9-0.7,1.8-1.3,2.7-1.9
			c-0.9-1.7-1.8-3.1-2.6-4.5c1-0.4,1.9-0.8,2.6-1c-0.4-1.1-0.6-1.9-1-2.8h-1.6c-0.1-0.4-0.2-0.8-0.3-1.1c-2-0.5-4-1.5-6.1-0.7v1.5
			c0.4,0.5,0.9,0.9,1.4,1.5c-0.7,0.4-1.3,0.8-2.2,1.4c-0.1,0.9,0.5,2.4-1.1,3c-0.2-0.4-0.4-0.9-0.6-1.3c-0.3,0.3-0.6,0.6-0.9,1
			c0.5,1,0.9,2,1.4,2.9c-0.7,0.3-1.4,0.6-2,1c-0.8-1.1-1.6-2.3-2.1-3.1c0.3-1.4,0.5-2.5,0.6-3.4c-1.1-1-2-1.8-3-2.7
			c-0.8,1.4-1.5,2.6-2.5,4.4c-0.3-2-0.4-3.4,0.3-4.8c-0.8-0.5-1.6-0.9-1.8-1h-2.6c0.8-1.1,1.4-1.9,2-2.8c-1.3-1-2.5-1.9-3.6-2.7
			l0.7-1.4c-1.2-1-2.4-2-3.5-3l2.1-2.1v-1.6h3.3c1.2-1.8,2.4-3.5,3.7-5.6c-1.6,0-2.9,0.4-3.8-0.1c-2.2-1.2-4.5-0.2-6.6-0.7
			c-0.1,0.9-0.3,1.5-0.4,2.1c-0.4,0.1-0.8,0.2-1.2,0.2c-0.2,1.9-0.2,3.6,1.2,5v3.7c-0.5,0.2-0.9,0.3-1.3,0.5
			c0.3,0.3,0.6,0.6,0.8,0.9c-0.8,0.1-1.5,0.2-2.3,0.4c0.2,1.2,0.4,2.4,0.6,3.5c-0.2,0.6-0.4,1.3-0.7,2.1c0.8,0.7,1.5,1.3,2.1,1.9
			c-0.5,0.2-1.3,0.4-2.1,0.7c-0.5-0.4-1.1-1-1.7-1.5c-0.8,0.1-1.6,0.1-2.4,0.2v1.8c-0.7,0.5-2.2-0.5-1.9,1.3
			c1.2,0.5,2.8,0.3,3.6,1.8c-2,1.2-2,1.2-2.5,3.3h-8.5l-1.4-1.4c-1.9,0.9-2.8-1.3-4.4-1.6c0-0.6-0.1-1.1-0.1-1.7
			c-2.6-0.3-4.5,1.2-6.5,2c-0.1,0.2-0.2,0.3-0.3,0.5c0.3,0.3,0.6,0.6,0.9,0.9c1-0.9,2.1-0.7,3.3-0.5c-0.9,0.6-1.7,1.1-2.4,1.6
			c0.3,1.2,0.6,2.2,0.9,3.2c-0.6,0.7-1,1.8-2.1,1c0.3-0.5,0.5-1,0.7-1.3c-0.9-1-1.7-1.8-2.5-2.7c-1,0.9-1.7-1.3-2.6-0.1
			c-3.1,0.3-6.2,0.7-9.1,1c-0.5-0.6-1-1.2-1.4-1.8c1.2-0.6,2.1-1,3.2-1.5c-0.9-0.8-1.7-1.5-2.8-2.5h-3.8c-0.7,0-1.3-0.1-1.9-0.5
			c-1.4-1-2.9-0.9-4.4-0.9c-1.1-0.7-2.1-1.4-3.1-2.1h-3.1c-0.8,0.7-1.7,1.5-2.7,2.4c-0.4-0.7-0.7-1.2-1-1.7l0.3-0.3l-0.9-1.8
			c-0.9,1.2-1.8,2.3-3,3.8c-0.9-1.8-1.5-3.3-2.3-4.7c-0.3-0.6-1.1-0.9-1.7-1.4c-0.7,3.1-1.4,3.6-3.7,3.5c-0.1-0.4-0.3-0.8-0.4-1.2
			c-2.9,0.2-5.2,1.6-7.8,2.7c-0.7-0.4-1.4-0.8-2.1-1.2c-0.7,1.1-2.8,0.2-3.1,2.1c0.2,0.4,0.4,0.8,0.7,1.5c-3.4-0.9-6.6-1.2-8.8-3.7
			c-1.2,0.1-2.4,0.1-3.6,0c-1-0.3-2-0.6-3-1.1c-0.3-0.1-0.6-0.3-0.9-0.2c-3.6,0.5-7-1-10.3-0.7c-2.8-2-5.7-1.6-8.5-0.9
			c-0.5-0.2-0.9-0.4-1.4-0.6c-0.3-0.5-0.8-1.3-1.3-2.1c-1.3,0.3-2.4,0.5-3.6,0.8c-0.2-0.5-0.4-0.9-0.7-1.7c-0.8,0.7-1.5,1.2-2.6,2.2
			c0.5-1.2,0.7-1.8,0.9-2.4h-2.2c-1,0.7-2,1.3-3.1,2.1h-3.5c-0.1,0.8-0.3,1.4-0.4,2.1c-0.2-0.2-0.4-0.3-0.6-0.5
			c-1.6,0.5-3.1,1-4.2,1.3c-1,0.9-1.9,1.6-2.7,2.4c0.2,1.7-1,2.2-2,3.2h-4.2v2.4c1.1,0.4,2.2,0.8,3.5,1.2c0.7,1.2,1.6,2.4,2.5,3.9
			h3.6c0.1,0.8,0.2,1.4,0.3,2c1,0.1,1.8,0.2,2.6,0.3v0.4h-2.2c-0.4,0.5-0.9,0.9-1.4,1.3c-0.7-0.2-1.4-0.4-2.1-0.5
			c-0.7-0.1-1.4-0.1-2.1-0.1v-2.3c-2.1,0.9-3.7,2.3-5.6,2.9c-0.4,0.1-0.8,0.3-1.2,0.5c-0.6,0.4-1,0.9-1.7,1.4l2.9,1.3
			c0.3,0.8,0.7,1.6,1,2.4c2.3,1.5,4.8,0.7,6.8,0.9c1.5-0.9,2.6-1.6,3.7-2.3c0.4,0.4,0.8,0.8,1.2,1.3c-1.9,1.1,0,2.3,0,3.4l-1.2,1.2
			h-2.4l-1.6,1.9c-0.8-0.3-1.5-0.7-2.2-1.2c-1.5,0.7-0.7,2.1-0.9,2.6c-1.4,1.3-2.4,2.3-3.3,3.1c-0.1,1.7,1.9,1.7,2.4,2.8
			c-0.3,0.5-0.5,0.9-0.5,0.9l3.7,3.7c0.8-0.3,1.9-0.8,2.9-1.3c0.3,0.6,0.6,1.2,0.9,1.9c-1,2-1,2,0.7,3.6c0.8-0.5,1.6-1.1,2.5-1.7
			c0.9,0.7,1.7,1.2,2.5,1.9c0.3-0.7,0.6-1.1,0.8-1.6c1,1.1,2,0.7,3.1,0.1c-0.3,1.7-0.6,3.2-0.8,4.5c-0.8,1.1-1.3,2.6-2.3,2.9
			c-2.1,0.7-3.4,2.2-5,3.7H463c-0.7,1-1.2,1.7-1.7,2.5c0.2,0.1,0.3,0.2,0.4,0.2c2.6-1,5.1-2.2,7.8-3.1c0.5-0.2,1.7,0,1.6-1.4
			c0-0.3,1-0.7,1.5-1.1c3.1-2.7,7.2-4.3,9.5-8.1c-0.5-0.5-1-1.1-1.5-1.6c1-0.8,2.2-1.3,2.6-2.2c1-2,2.9-3.2,4.1-4.7h1.9
			c-1,0.8-2,1.5-2.6,2.1c-0.3,1.3-0.5,2.2-0.8,3.1c1.3,0.6-1.2,1.8,0.6,2.4c1.8-1.1,3.7-2.4,5.6-3.6c0.3,0.2,0.7,0.4,1,0.6
			c0.4-0.3,0.7-0.6,1-0.8c-0.4-0.8-0.8-1.6-1.2-2.3c1.9-2.3,3.6,0.1,5.6,0c-0.3,0.3-0.6,0.6-0.8,0.9c0.8,0.4,1.6,0.8,2.3,1.1
			c0.3-0.3,0.6-0.6,1-0.9c0.2,0.5,0.4,1,0.5,1.5h7c0.6,0.5,1.2,1,1.9,1.5c0.7-0.6,1.3-1.1,2.1-1.7v2.3c2,1.5,3.7,2.7,5.7,4.2
			c0.4-0.2,1.2-0.4,1.9-0.7c0.8,0.2,1.4,0.4,1.9,0.5c-0.2-1-0.3-1.8-0.4-2.6c1,1.2,2.1,2.4,1,4.2c-1-0.3-2-0.5-3.6-0.9
			c0.8,1.4,1.1,2.7,1.7,2.8c1.7,0.4,0,2.5,1.6,2.6c0.2,0,0.3,0.1,0.9,0.2c-0.4-0.8-0.7-1.7-0.9-2.6c-0.1-0.2,0.2-0.5,0.5-1.4
			c0.5,0.9,0.8,1.5,1.2,2.1c0.6-0.7,0.9-1.1,1.2-1.4c-0.3-0.6-0.5-1-0.9-1.7c0.5,0.2,1,0.3,1.5,0.3v2.2c-0.5,1-2.1,1.3-2.1,3.2
			c1-0.2,1.8-0.3,2.6-0.5c0.2,0.2,0.5,0.3,0.7,0.4c0.2-0.6,0.3-1,0.2-0.8c0.7,0.4,1.5,0.8,2.6,1.4c-0.8,0.9-1.2,1.3-1.5,1.7
			c-1.1-0.4-1.8-0.6-3-1.1c1.2,1.5,1.5,2.4,0.4,3.4l0.8,0.8c0.9-0.3,1.7-0.5,2.5-0.7c0.1-0.4,0.3-0.8,0.4-1.2
			c0.3,0.3,0.6,0.5,0.8,0.7c0.3-0.2,0.6-0.5,0.9-0.8c-0.1,0.6-0.1,1.2,0.1,1.8c0.4,0.5,1,0.9,1.5,1.2v3.5h1.8c0,0.5,0.1,0.9,0.2,1.4
			c1.3,0.8,2.4,1.5,3.6,2.2c-0.3,0.4-0.6,0.7-0.9,1c0.4,1,0.7,2.1,1,3.1h1.6c0.3,0.6,0.6,1.2,0.9,1.9c-1.8-0.2-3.1-1.4-5-1.1
			c2.9,2.7,5.7,5.3,8.4,7.9c-0.5,2.4,1.3,3.9,1.9,5.7c-0.2,0.4-0.5,0.7-0.5,1c-0.3,2.7-0.4,5.4-0.7,8.1c-0.1,0.8-0.7,1.7-0.6,2.5
			c0.3,1.2,0.8,2.5,1.4,3.6c-2,2.2,0.8,4.3,0,6.1c1.6,2.2,3.2,4.3,4.6,6.4c0.2,0.6,0.3,1.3,0.3,2v0.3c0.6,0.6,1.4,1.1,1.7,1.7
			c2.2,1.6,3.3,1.8,4.8,3.6c0.8,1,0.4,1.2,0.9,2.8s3.4,3.1,4.4,4.6s1,3.3,1.5,4.8c2.4,1.3,3.8,3,3.4,4.2c-0.5,0.2-0.9,0.4-1.8,0.8
			c2.3,1.7,4.3,3.1,6.1,4.5c0.1,0.5,0.1,1,0,1.5c-0.2,0.4-0.4,0.8-0.7,1.1c2.2,1.1,4,2.8,5.3,4.9c0.3-0.3,0.7-0.6,1.1-1
			c-0.4-0.8-0.8-1.6-1.1-2.3c-0.6,0-1.1-0.1-1.7-0.1c-0.1-0.9,0.1-1.9-0.3-2.5c-1.2-2.1-1.8-4.4-3.4-6.3c-1.1-1.5-2.1-3.1-2.9-4.8
			c-0.2-0.1-1-0.7-1.7-1.1c-0.3-1.7-0.6-3.1-0.8-4.6c1.2,0,1.2,0,3.9,1.5c0.4,2,0.7,4,1.1,6c0.5,0,1.2-0.2,1.4,0
			c1.8,2,3.6,4,5.4,6.1v1.7c3.1,2.3,5.8,5.2,7.8,8.5c1.2,2.1,1.6,3.8,0.4,5.7c1,3.2,4.6,3.5,6,5.9c2.9-0.7,4.3,2.1,6.6,2.7
			s4.3,2.1,6.5,2.8c0.1-0.1,0.2-0.1,0.3-0.1c1.2-0.4,2.5-1.3,3.7-1.1c1.4,0.3,2.7,0.9,3.7,1.9c1.3,1.1,2.4,2.5,3.5,3.6
			c3.6-0.1,5.8,2.5,8.3,2.9c1.6,1.7,2.9,3.1,4.1,4.5c0.1,1.3,0.1,2.5,0.2,3.8h2.5c0.8,1.1,1.7,2.3,2.6,3.5c2.5-0.5,4.1,1.1,5.6,2.8
			c0.4-0.4,0.8-0.8,1.2-1.3c-0.3-0.4-0.6-0.8-0.8-1.3c0.4-0.2,0.8-0.3,1.2-0.5c0.1-0.3,0.2-0.7,0.4-1h2.5v2.3
			c2.5,1.7,3.1,4.2,2.9,7.1c0,0.9,0.1,1.9,0.4,2.8c-0.5,1.5-1.6,2.8-3.1,3.4c-0.6,1.5-1,3-2.8,3.4c-0.1,0.6-0.1,1.1-0.2,1.6
			l-1.1,0.3c-0.3,1.8-1.6,3.5-0.7,5.5c0.7,0.5,1.4,0.9,2.1,1.4c-1.2,0.9-2.1,1.6-3.2,2.5c0.3,1.4,0.5,2.8,0.8,4.3
			c-0.3,0.2-0.5,0.5-0.7,0.8c0.9,0.7,1.8,1.3,2.7,2c0.3,0.4,0.6,0.9,0.8,1.4c0.7,1.2,1.8,2.4,2,3.7c0.8,3.8,2.8,7,5,10.4v2.8
			c1.1,1.1,2.2,2,3.4,2.9c3.6,2.1,7.1,4.2,9.9,7.6c-0.3,5.8-0.6,11.7-0.9,17.6c0,0.3,0,0.7-0.1,1c-1.1,2.3-0.9,4.9-1.9,7.2
			c-0.6,1-0.4,2.3,0.5,3.1c-0.2,0.4-0.6,0.8-0.6,1.2c0.2,3.8-0.2,7.7-1.4,11.3c-0.7,2.3-1.5,4.5-2.4,6.7c-0.3,0.8-1.7,1.6-1,2.3
			c0.9,1-0.4,1.6,0,2.3c1.7,2.7-0.3,5-0.7,7.6c0.3,0.6,0.7,1.3,1,1.8c0.6-0.2,1.1-0.3,2-0.6c-0.4,4.8-1.7,9-2.4,13
			c-0.5-0.2-0.9-0.4-1.3-0.6c0.4-0.5,0.5-0.7,0.8-1.1c-2.5-0.4-1.9,1.6-2.3,2.6c-1.4,0.5-1.5,0.8-0.8,1.5c0.2-0.2,0.5-0.4,0.7-0.6
			c0.7,0.4,1.3,0.7,1.9,1.1c-0.4,0.8-0.7,1.3-0.9,1.8c0.2,0.3,0.5,0.6,0.8,0.9c-0.9,0.3-1.8,0.7-2.8,1c0.6,1.2,1.1,2.1,1.5,3
			c-0.4,0.5-0.6,0.8-1.1,1.4c0.6,0.4,1.1,0.7,1.6,1.1c0.1-0.7,0.3-1.3,0.4-2c0.3,0.1,0.6,0.2,0.9,0.2c-0.4,1.8-1,3.6-1.9,5.2
			c-0.1,0.2,0.1,0.6,0.1,0.9l2.7,0.3c-0.4,0.4-0.5,0.7-0.7,0.9l0.8,0.8c0.7-0.2,1.3-0.3,1.9-0.5v1.2l-2.9,0.3c0.1,0.5,0.2,1,0.4,1.5
			c0.6-0.4,1.4-0.7,2.1-0.9c0.8-0.1,1.6,0,2.4,0.1v0.4c-1.1,0.4-2.2,0.8-3.4,1.2c0,0.3,0.1,0.6,0.1,1c1-0.8,2.4-0.9,3.5-0.3
			c-1.6,0.5-3,0.9-4.3,1.4c0.1,1.8,1.8,1.6,2.6,2.5c0.1-0.8,0.2-1.4,0.3-2.4c0.6,0.7,1,1.1,1.3,1.5c-0.4,0.8-0.6,1.4-0.9,2.1
			c0.9,0.1,1.6,0.2,2.1,0.3c0.1,0.7,0.2,1.3,0.4,2.7c0.3-1.4,0.5-2.1,0.6-2.8c0.5,0.8,0.9,1.5,1.3,2.2l1.2-0.9l1.8,1.5l0.3-0.6
			c0.2-0.3,0.3-0.6,0.4-0.9l1.2,0.6c1.7-0.5,3.1-1,4.8-1.5c-0.9-0.2-1.8-0.6-2.6-1.1c-1.6-1.4-3-2.9-4.5-4.4
			c0.2-0.2,0.4-0.5,0.8-0.9c-1.1-0.5-2-0.9-3-1.3c0.1-0.4,0.3-0.8,0.5-1.1c0.5,0.3,1,0.6,1.6,0.9c0.6-2.1-1.2-3.9-0.4-6.1
			c1.2-1.4,3.5-2.2,3.6-4.9c0-0.5,1.1-1.1,1.7-1.6c0.4-0.3,0.9-0.5,1.3-0.8c0.3-1.2,0.6-2.2,0.9-3.2c-1.7-0.7-3.4-1.4-4.3-3.1
			c0.1-0.4,0.1-1,0.4-1.2c1.2-0.9,2.5-1.8,4-2.9c0.2-1,0.5-2.4,0.7-3.9c0.5-0.7,1-1.5,1.5-2.3c0.5,0.3,0.9,0.6,1.3,1
			c0.3-0.6,0.5-1.2,0.8-1.7c-0.4-0.3-0.8-0.6-1.2-0.9c-0.4,0.4-0.7,0.6-1,0.9c-0.3-0.3-0.6-0.6-0.8-1v-4c1.2,1.2,2.9,1.7,4.6,1.3
			c1.2-1.8,1.1-4.1,1.7-5.9c2.5-0.4,4.8-0.7,7.1-1c2.4-0.6,3.2-2.9,4.4-4.5v-2.1c-0.5-0.2-0.9-0.3-1.3-0.5c-0.1-0.5-0.1-0.9,0-1.4
			c0.2-0.4,0.5-0.7,0.8-1c-1.4-0.7-2.5-1.2-3.6-1.7c0-0.1,0.1-0.3,0.1-0.4h2.2c1,0.7,2,1.3,3,1.9c0-0.2,0.1-0.3,0.1-0.5
			c0.6,0.1,1.3,0.1,2.2,0.2c0.4-0.2,0.7-0.3,1.1-0.4c0.5-0.2,1.2-0.4,1.4-0.8c0.5-1.5,2-2.2,2.7-3.4c0.7-1.3,1.3-2.7,1.8-4.1
			c0.3-0.7,0.7-1.4,1.1-2.2c0.2,0.7,0.4,1.1,0.5,1.5c1.3-1.1,2.2-2.6,2.6-4.2c0.3-1.3,0.8-2.8,2.6-3c0.5-2.9-0.7-5.9,0.5-7.8
			c2.1-1.9,3.5-3.2,5-4.5c2.2,0.1,3.5-1.6,5-3c1.2,0.9,2.8,1.2,4.2,0.7c0.9-1.5,2.2-2.5,2.7-4.2c0.7-1.6,1.4-3.3,2.3-4.8
			c-0.1-1.5-0.1-3.2,1.4-4.5c0.1-1.3,0.3-2.6,0.6-3.9c0.4-1.1-0.4-2.6-0.6-3.9c-0.1-0.4-0.2-1.2,0.1-1.3c1.2-0.8,0.1-2.3,0.9-3.1
			c1.3,0.1,2.3-0.2,2.5-1.7c0.1-1.6,1-3.1,2.5-3.8c2.9-1.6,2.9-4.6,3.8-7.1C738,388.6,738.5,386.2,736.5,384.5z"/>
		<path class="st0" d="M782.3,107.5c-1.9-0.2-4-0.5-5.6,1.1c-0.1,0.6-0.1,1.1-0.2,1.9c-1.6-0.3-3-0.6-4.4-0.8
			c-0.2,0.2-0.4,0.4-0.7,0.6l-1.4-1.4c-2.1,2.2-4.2,4.3-7.5,5.5c1-2.7,4.1-3.7,4.4-6.7c-0.7-0.3-1.3-0.6-1.9-1
			c-1.8,1-3.1,2.1-4.6,2.6s-2.8,2.3-5,1.3c1.6-1,3-1.8,4.4-2.7c-2-0.4-4.1-0.5-6.1-0.4c-1.8,0-3.6,0.1-5.3,0.5
			c-1.2,0.3-2.5,1.5-4,0.5c0.2-0.3,0.5-0.6,0.8-0.8c2.8-0.7,5.6-1.2,8.4-1.6c2.1-0.3,4.2,0,6.3-0.1c0.6,0,1.3-0.1,1.9-0.3
			c1.8-0.6,3.5-1.3,4.5-1.2c1.1-0.5,1.5-0.7,1.8-0.8c-1.9-2.4-4.5-1.7-6.2-1.8c-1.3-1.2-2.3-2-3.2-2.8c-1.1,0-2.2,0.1-3.2,0
			c-1,0-1.9-0.3-2.8-0.7c-1.2-0.8-2.4-0.6-3.6-0.6c-2.8,0-5.6-0.1-8.4,0s-5.6,0.4-8.4,0.7c-0.2,0-0.4,0.2-0.7,0.4v1.7
			c-0.8-0.1-1.4-0.1-1.9-0.2c-0.2-0.6-0.2-0.9-0.3-1.2c-2.6-0.5-5.1,2-7.6-0.2c-2.1,2.4-5,1.2-7.9,1.8c0.3,0.4,0.6,0.8,0.9,1.2
			c0.3,0.3,0.7,0.6,1.3,1.2c-1.7,0.2-2.8,0.3-4.4,0.5c0.7,0.9,1,1.5,1.6,1.8c1.3,0.8,2.7,1.4,4,2.2c0.3,0.2,0.4,0.8,0.6,1.3
			c-3.6-1.6-6.9-3.1-10.5-4.8c-0.7,0.1-1.9-0.4-3.1,0.5c0.8,0.9,1.5,1.6,2.2,2.4c0.1,0.1,0,0.3,0,0.5h-3.1c-0.7-0.7-1.3-1.4-1.8-1.9
			h-1.8c-0.1,1.5-0.2,2.8-0.2,4.1c-0.4-0.1-0.7-0.1-1.1-0.1v-3c-0.2,0.1-0.4,0.2-0.5,0.4c-0.5-0.8-0.9-1.6-1.3-2.3
			c-3,0.7-5.6,1.9-8,2c-0.5,0.2-0.9,0.3-1.4,0.4c0.2,0.3,0.4,0.6,0.6,0.9c-1.9-0.2-3.6-0.4-5.1-0.5c-0.6,0.6-0.8,0.9-0.9,1
			c0.2,1.4,0.4,2.6,0.7,4.1c-1-0.1-1.9-0.3-2.9-0.5c-0.9-0.5-2-0.5-2.9,0c-2.7,1.2-5.2,2.6-7.7,4.2c-0.4,0.3-0.5,0.9-1,1.7h5.2
			c0.3,0.9,0.6,1.6,0.8,2.1c-0.7,1-1.3,1.8-2,2.8c-1.7,1.3-4.1,0.4-6.2,0.9c-0.6,0.5-1.3,0.9-2,1.1c-1.6,0.5-3.3,1-5,1.4
			c-1.5,0.3-1.7,1.2-1.6,2.5c1.2,0.5,2.4,0.9,3.7,1.2c1.2,0.4,2.1,1.9,3.6,2c1.7-0.5,3.2-0.9,4.6-1.3c0.6,0.7,1.2,1.4,1.7,2
			c-0.2,0.1-0.4,0.3-0.6,0.5c-1.5-0.2-2.9-0.8-3.8-0.4c-1.9,0.8-3.8,0.3-5.3,1.1c-0.4,0.2-0.8,0.3-1.7,0.7c2,0.5,3.4,0.9,4.9,1.3
			c-0.3,0.5-0.5,1-0.9,1.6c1.9,0.9,3.9,2,6.1,2.2c0.2-0.7,0.4-1,0.5-1.5c2.6,1.5,4.7-0.1,6.9-0.6c0.4,0.2,0.8,0.7,1.2,0.7
			c2.8,0,5.2,1.4,7.8,2.2c0.9,0.4,1.6,1.2,1.9,2.2c0.3,1.2,0.9,1.5,1.8,2.1c1.2,0.8,2.6,1.5,3,2.7c-0.2,1.1-0.4,1.8-0.6,2.8
			c0.6,0.3,1.2,0.7,1.6,0.9v2.9c0.4,0.2,1,0.4,1.8,0.7c-0.9,1.1-1.5,1.8-1.9,2.3c0.2,0.8,1.1,1.2,0.2,1.8c-0.3,0.2,0,1,0,1.6
			c0.5,0,0.8,0.1,1.1,0.1h1.3l1.3-1.3c0.1-0.1,0.4-0.1,0.7-0.1c0.8,2.3,0.8,2.5,3,3.4c1.2,0.5,2.1,1.4,2.5,2.6
			c-3.4-1.3-3.4-1.3-7.3-0.9c0.8,0.7,1.5,1.2,2.2,1.8h-2.9c-0.3,0.9-0.5,1.7-0.8,2.6l3.9,2.1c0.9-0.3,1.8-0.6,2.6-0.8v-1.2
			c-0.8-0.7-1.4-1.4-2.1-2c1.8,0.1,3.6,0.7,5.1,1.7c-0.4,1.5-0.7,3-1.1,4.6h-3.2c-1,2-2.1,3.9-3.1,5.9l2.4,1.8
			c-0.6,0.8-1.2,1.5-1.8,2.3l3.8,3.8v3.2c1.4,2.1,2.7,3.9,4,5.8c0,0-0.2,0.1-0.2,0.2c0,0.2,0,0.5,0.1,0.7c1.1,2.5,3.2,4.2,4.7,6.1
			c1.6,0.4,3,0.7,4.6,1.1c1.3,1.5,2.9,2.9,5.2,2.5c0.6-0.6,1.2-1.2,1.8-1.7v-2.7c0.5-0.5,1-1.1,1.5-1.7c-0.2-1.6-1.6-2.9-0.4-4.3
			h1.4c0.8-1.8,2-3.4,1.8-5.9c0.4-0.2,0.8-0.4,1.2-0.6c-0.5-0.9-1-1.6-1.6-2.6c1.1,0.4,1.6,0.6,2.2,0.8c0.1-0.8,0.2-1.5,0.2-1.6
			c1.5-0.8,2.6-1.7,3.8-1.8c1.4-0.2,2.8-0.6,4.2-0.7c2.1-0.1,4-1.3,4.9-3.2c0.8-1.7,2-3.1,3.6-4.1c0.2-0.8,0.3-1.4,0.5-2.1
			c0.8,0.4,1.2,0.7,1.9,1.1c0.3-0.3,0.6-0.8,0.9-0.8c2.6-0.1,5-1,7.4-1.5c1.3-0.2,2.5-0.7,3.6-1.3c2-1.1,3.9-2.3,5.9-3.5
			c0.6-0.4,1.2-0.8,1.8-1.1c-3.3-0.4-6.3-0.8-9.6-1.2c1-0.6,1.7-1.1,2.5-1.6c-0.2-0.7-0.3-1.5-0.5-2.3h1.4l3.4,3.4h3.1
			c0.4-0.3,0.7-0.7,1-1.1l-0.9-1.8c0.3-0.3,0.5-0.6,0.7-0.9c-1.6-1.9-4.2-2.7-5.7-5.4c1.6,0.4,2.7,0.7,3.8,1
			c1.6-1.8,1.6-1.8-0.1-3.8c-1.5,0.4-3.2,0.9-4.9,1.4c-0.3-0.3-0.6-0.7-1.1-1.2c0.7-0.5,1.4-1,2.1-1.5c-0.2-0.6-0.2-0.9-0.4-1.6
			c1.4,0.7,2.4,1.2,3.2,1.7h5l-0.3-0.3c0.4-0.2,0.8-0.4,1.3-0.6c-1.2-1-2.2-1.8-3.7-3.1h5.2c0.3-0.4,0.6-0.8,1-1.1
			c-1.4-0.6-2.8-1.2-4-1.8v-2.1h2.9c0.6-0.5,0.9-0.8,1.4-1.2c-0.4-1-0.8-2-1.1-3.1c-1.6-0.3-3.1-0.6-4.6-0.9c-0.3-0.7-0.9-1-1.4-1.5
			c-0.1-0.1,0-0.6,0.1-1c0.5,0.3,1,0.5,1.6,0.8c0.4-0.6,0.9-1.1,1.3-1.7c2.1,0.3,4,0.6,6.6,1c-0.6-1.4-1-2.2-1.5-3.2
			c-1.1,0.4-1.9,0.7-2.3,0.8c-0.8-0.7-1.5-1.2-2.5-2h3.8c-1.7-1-2.7-1.6-3.7-2.2l-2.5,2.2c0.5-2.2,1.6-4,1.2-5.9l3.4-1.7
			c-0.2-1.4,0.6-2.8,1.9-3.4c0.8-0.1,1.5-0.1,2.1-0.2c0.1,0,0.1-0.2,0.4-0.5c-0.5-0.6-1.2-1.1-2-1.3c-1.7,0.1-2.4,1.5-4.2,1
			c1.3-0.8,2.2-1.4,3.1-2h4.8c-0.1-0.2-0.3-0.3-0.4-0.5c0.5-0.1,0.9-0.3,1.6-0.5c-2-0.8-3.7,0.1-5.5-0.9c5.3-0.6,9.7-2.6,14.1-4.6
			v-1.6C785.9,108.5,784.1,107.8,782.3,107.5z"/>
		<path class="st0" d="M364.6,435.8c-0.1-0.2-0.1-0.3-0.2-0.5H363c-0.3-0.9-0.6-1.8-0.9-2.7c-1.3-1.1-2.2-1.9-2.9-2.5v-2.5
			c-0.9-0.3-1.8-0.6-2.8-1c0.3-1.3-1.2-2-1.2-2.8c-0.2-1.9-1.3-2.6-2.8-3.4c-1.1-0.5-2.1-1.3-2.9-2.2c-1-1.2-0.8-2.7-0.7-4.1
			c-1.8-1.6-1.4-3.7-1.4-4.8c-0.9-1.3-1.3-2-1.7-2.5c-0.8-0.1-1.7-0.1-2.5-0.1v-3.8c-0.8-1.9-1.3-3.2-2.1-5.2
			c-0.9,2.1-1.5,3.6-2.2,5.1c0.2,0.3,0.5,0.6,0.8,0.8c-0.2,0.2-0.5,0.3-0.5,0.5v7c-1.6,1.3-1.1,4.1-3.7,4c-1.5-0.5-1.9-2.6-3.7-2.1
			c-1.9-1.5-3.7-3-5.6-4.6c0.3-1,0.6-1.9,0.8-2.7c-0.3-0.4-0.4-0.6-0.7-1c2,0.1,2-1.7,2.8-2.6l-1-1c-0.3,0.2-0.5,0.4-0.7,0.7
			c-0.3-0.2-0.5-0.4-0.7-0.6c-0.3,0.2-0.6,0.4-0.8,0.7c-2.1-0.7-4.1-1.4-6.1-2.2c-0.5,0.8-1,1.5-1.4,2.2H316c-1,1.4-2,2.8-3.1,4.3
			c0.3,0.7,0.5,1.2,0.9,2.2c-1-0.4-1.8-0.7-2.4-0.9c-0.4,0.3-0.6,0.5-0.9,0.7c-0.6-1.9-2.6-2-3.3-3.4c-0.6,0.3-1.2,0.6-1.8,0.9
			c-0.1,0.3-0.2,0.7-0.2,1c-0.6,0.1-1.2,0.1-1.7,0.2c-0.7,1.4-1.4,2.7-2.1,4.2h-1.2c0.2,0.9,0.3,1.7,0.4,2.6h-1.2
			c-0.2-0.5-0.4-1-0.7-1.7c-0.7,0.6-1.1,0.9-1.6,1.4v2.8l-3.9,3.9c-1.6-0.1-3.3-0.1-4.7,1.2c-1.3,1.1-2.9,0.9-4.4,0.9
			c-1.6,1.9-3.7,3.2-6.1,3.8c0.3,0.8,0.6,1.6,0.9,2.5c-0.5,1-1,2.1-1.6,3.2c0.8,1.3,1.6,2.6,2.5,4.1c-0.9,0.2-1.6,0.3-2.5,0.5
			c1.2,2.5,2.3,4.8,3.6,7.6c-0.4,1.7,0.7,3.8,1.6,5.7c0.5,0.9,0.6,2.1,0.3,3.1c-0.3,1.1-0.6,2.2-0.7,3.4c-0.1,0-0.5,0.3-0.9,0.5
			c1.1,1.1,2.1,2.1,3,3.1h3.2c1.8-1,3.3-1.9,4.8-2.8c1.2-0.6,2.3-1.2,3.7-0.3c0.6,0.4,1.7,0.1,2.5,0s1.4-0.5,2-0.6
			c1-2.2,3.3-2.6,4.8-4h3.9c2.4-1.4,5.2-2.1,8-2.1c1.6,2,4,1.3,5.8,2.4c0,0.8,0.1,1.6,0.1,2.4c0.7,0.4,1.4,0.8,2,1.2v2.1l1,1
			c1-0.8,2.1-1.7,3.2-2.6c0.4-0.8,0.8-1.6,1.2-2.4c0.5,0.2,0.7,0.4,1,0.5c-0.7,1.7-1.3,3.4-2.3,5.7c1.2-0.9,1.9-1.5,3-2.3v3.1
			c0.7,0.1,1.3,0.2,2,0.2c0.5,0.9,1.1,1.9,1.6,2.7c-0.3,0.5-0.6,0.8-0.8,1.2c0.3,0.7,0.7,1.4,1,2.1c2.7,1,5.5,2,8.3,3.1l2.1-2.1
			c1.1,1,2.1,1.8,3,2.6c1.6-0.9,3.3-1.7,5.4-2.8h2.3c1.5-1.9,0.8-4,1-5.7c0.6-0.8,1.3-1.4,1.3-1.9c-0.1-1.6,0.7-2.7,1.4-4
			c0.4-0.6,0.4-1.5,0.9-2.1s1.1-0.5,1.3-1.5c0.4-1.8,1.1-3.5,1.4-5.4c0.6-4.1,0.7-4.1,0-8.5C363.9,438,363.5,436.7,364.6,435.8z"/>
		<path class="st0" d="M614.7,122.2c-1.9,1-3.1,1.6-4.3,2.2c1.9,1.4,3.7,2.8,5.4,4.1c1.3-0.1,2.6,0.2,3.5-0.3c1.2-0.7,2,1.2,3.2-0.3
			c0.2-2,2.9-2.4,3.5-4.3c0.9,0,1.7-0.1,2.5-0.1c0.5-0.8,1-1.5,1.6-2.4c1.1,2.3,3,4.2,5.4,5.1c-2.8,0.2-5.2-2.1-8.4-0.9
			c-2.1,1.2-2.7,1.8-2.7,2.8c0.6,0.4,1.2,0.7,1.9,1l3-0.8c-0.4,2.1,1.1,2.8,2,3.9c0.2,0.2,0,0.6,0,1h-1.7c-0.9-1.2-1.8-2.4-2.6-3.4
			h-2.2c-0.4,0.5-0.8,1-1.3,1.6c0.9,0.6,1.7,1.1,2.4,1.6c-1.5,1.5-3.7,1.1-5.6,2c0,0.6,0.1,1.2,0.2,1.8h5.8c1.8,0.7,3,1.1,4.8,1.9
			c0.3-0.7,0.5-1.4,0.7-1.9h5.4c1.1,0.7,2.1,1.4,2.8,1.9c1.7-0.7,3.2-1.3,4.7-1.9c0.9-0.1,1.6-1,1.5-1.9c0-0.1,0-0.2-0.1-0.3
			c-2,0.4-4-0.1-5.5-1.4c-2,1-3,0.8-3.4-0.3c0.2-0.3,0.4-0.6,0.7-0.8c2.4,0.9,5,0.8,7.3-0.3c0.1-0.2,0.2-0.5,0.3-0.7
			c-0.3-0.3-0.5-0.7-0.7-1l1-1h4.2c1.3-1.3,2.9-2.5,3.2-4.5l-1.2-1.2h-4.4v-1.2h5.9c0.8-1.1,1.4-2,1.9-2.7c1.5,0.3,2.6,0.4,3.8,0.6
			c0.5-0.9,0.9-1.5,1.1-1.9c1.6-0.9,3-1.5,4.2-2.3c2.6-2,5.5-3.5,8.7-4.3c1-0.2,1.6-0.7,1.4-2.1c-1.8,0.2-3.5-0.4-5.3,1.1
			c-0.1-0.8-0.1-1.2-0.2-1.7h6.5c2.3-1.3,4.4-2.4,6.5-3.6c0.1-0.1,0.1-0.3,0.2-0.4l-0.6-0.6c-0.8,0.2-1.7,0.3-2.6,0.1
			c-0.8-0.3-1.9-0.6-2-1.6c-1.2-0.4-2.4-0.7-3.6-0.9c-1.3,0-2.6,0.2-3.9,0.5c0.4-0.4,0.4-0.4,0.6-1.2c-1.8,0-3.6,0.3-5.2-0.1
			s-3.1-1.3-4.6,0c-0.9-0.5-1.7-0.9-2.6-1.4c-1,0.7-2,1.4-3.1,2.1c-0.1-0.1-0.2-0.3-0.4-0.3c-2.3-0.2-4.7-0.6-7,0.2
			c-1.1,0.2-2.2,0.1-3.3-0.1c-0.8-0.1-1.5-0.3-2.3-0.4c-0.2,0-0.4,0.1-0.5,0.3c-0.1,0.4-0.1,0.7-0.2,1.2c-0.7-0.3-1.2-0.5-1.8-0.7
			c-0.1,0.7-0.2,1.3-0.3,2.1h-3c-0.6,0.6-1.1,1-1.4,1.3c-2,0.1-3.1-2-5-1.3c-0.1,0.4-0.3,0.8-0.4,1.2c-0.5,0.1-1,0.1-1.5,0.1
			c-0.5,0.8-1,1.4-1.3,1.9c-1.2-0.6-2.3-1-3.4-1.6c-0.8,1-1.5,1.8-2.1,2.6c-0.5-0.4-0.8-0.9-1-0.9c-1.5,0.2-3,0.6-4.5,0.9
			c0.1,0.4,0.1,0.7,0.2,1.3c1-0.3,1.9-0.6,2.8-0.9c0.1,0,0.3,0.2,0.4,0.4c-0.2,0.2-0.4,0.5-0.6,0.7c0.5,0.2,1,0.4,1.5,0.7
			c-0.2,0.5-0.5,1-0.8,1.5c1.1,0.8,2.2,1.5,3.6,2.4c1.3-0.2,2.9-0.5,4.4-0.7c0.4,0.6,0.8,1.3,1.4,2.1c2.3-0.4,4.7-0.7,7.1-0.8
			c2.2,0,4.4-0.6,6.3-1.8c0.1-0.4,0.3-0.7,0.5-1.1l1.1,1.1c-1.1,0.8-2.1,1.6-3.3,2.4h-4.3c0.1,0.1,0.2,0.3,0.3,0.4
			c-0.4,0.1-0.8,0.3-1.4,0.5l4.1,3c-2.9,0.5-4.2-1.3-5.7-2.7c-1.9-0.3-3.8-0.5-5.2-0.7c-1.1,0.6-1.6,1.9-1.2,3.1
			c0.8,0.6,1.4,1,2.3,1.7h-3.1v-2.2c-0.4-0.5-0.9-1-1.4-1.4c0.2-0.3,0.4-0.5,1-1.3c-1.6,0.4-2.6,0.6-3.7,0.9c-0.4-0.6-0.8-1.3-1.3-2
			c-2.5-0.6-4.9-1.9-6.7-3.8c-0.6-0.7-2-1.9-3.6-0.6c0.3,0.5,0.5,0.9,0.8,1.5c-0.7,0.1-1.3,0.2-2.2,0.3c0.3,0.7,0.5,1.2,0.8,1.9
			c-0.9,0-1.7,0.1-2.4,0.1c-0.4,0.4-0.8,0.8-1.2,1.3c0.7,1.2,1.4,1.7,2.6,1.5c0.1,0,0.2,0.3,0.3,0.4c-0.3,0.3-0.7,0.6-1.1,1
			c-0.6-0.3-1.3-0.6-2-0.8c-0.2,0.2-0.3,0.4-0.5,0.5c0.8,1.3,1.7,2.5,2.6,3.9C610,122.2,611.9,122.2,614.7,122.2z"/>
		<path class="st0" d="M659.9,160.5c-1.5-0.1-3.1-0.2-4.4,0.8c-2.1-2.7-2.1-2.7-3.3-3c-1-1.1-1.7-2-2.3-2.7H645l-1.5,2.1l-1.3-1.3
			c-1.1,0.3-1.9,1.5-3.5,1.1c2.3-3.2-0.2-5.2-1.5-7.7c-3.2,0.9-6.5,1.5-8.6,3.9c-0.4,1.6,0.6,2.1,1.3,2.9c-0.5,0.6-1,1.1-1.5,1.6
			c0.5,1.3,2.6,1,2,3c-1.2-0.8-2.3-1.6-3.1-2.2c-0.2-1.6-0.4-2.8-0.6-4c0.5-2,1.8-3.6,3.5-4.7c-2.5-1-4.5,0-6.5,0.5
			c-4.8,4.6-4.8,4.7-4,10.2c1.7,0.3,3.5,0.7,5.3,1c-0.3,0.4-0.6,0.7-0.9,1c-0.9-0.7-2.2-0.9-3.2-0.3v1.5c1.3,0.6,2.5,1.2,3.6,1.7
			c0.6-0.4,0.9-0.6,1.3-0.9c0.7,0.6,1.2,1.1,1.7,1.6c1-0.1,1.9-0.1,2.9,0c0.8,0.2,1.7,0.4,2.5,0.7c0.9,0.2,1.9,0.8,2.8,0.6
			s1.9-0.9,2.9-1.3c0.2-0.1,0.5,0,0.7,0c2.1,0.8,3.9,1,4.6,0.1c-0.5-0.4-1.1-0.7-2.1-1.4h2.4c0.8,0.9,1.7,1.8,2.6,2.6
			c1.1,0.8,2.3,1.5,3.5,2.1c-0.9,0.7-1.6,1.2-2.4,1.8c0.1,0.2,0.2,0.3,0.3,0.5c0.9-0.3,1.8-0.5,2.9-0.9c0.4,0.7,0.9,1.4,1.3,2.1h1.3
			c0.9,0.8,1.7,1.6,2.4,2.3v4.4c-1.2,0.4-2.2,0.7-3.5,1.2c0.2,1.3,0.5,2.5,0.7,3.9c-0.9,0.5-1.9,1.1-2.5,1.4
			c-1.9-0.3-3.4-0.5-4.6-0.7l-1.8,1.8v2.4h6.8c0.1-0.4,0.2-0.7,0.2-1.1c1.2-0.5,2.5-0.2,3.5,0.6c1,0.9,1.9,1.8,2.6,2.9
			c0.2,0.5,0.6,1.6,0.8,2.3c0.9,0.5,1.3,1.1,1.8,1c2-0.1,3.3,1,4.8,2c1.5,1.2,3.2,1.9,5.1,2.1v-1.8l-5.3-5.3
			c-0.1-0.1-0.1-0.1-0.1-0.2c0-0.1,0.2-0.2,0.4-0.4c1.6,1,3.3,1.9,4.8,2.9h2.7c0.9-0.7,1.5-1.8,0.9-2.4c-1.3-1.3-1.4-3-2.2-4.4
			c-1.9-0.1-3.6-1.1-4.7-2.7c-0.6-0.9,1.2-1.7,0.1-2.6c0.3-0.4,0.6-0.8,1-1.2c1.4,0.7,2.5,1.2,3.7,1.8c0.5,1.8,2.2,2.5,3.1,3.8
			c1.3-0.1,0.8-1.9,2.2-2.1c0.8-0.1,1.3-1.7,2-2.5c0.8-0.7,1.6-1.4,2.4-2l-1-1h-2.7c-1.3-1.6-2.4-2.9-3.2-3.9
			c-3-0.5-5.8-1.6-8.3-3.2v-1.7c0.9-0.1,1.8-0.3,3.2-0.5c-1.3-0.3-2-0.5-3.1-0.8c0.8-0.9,1.4-1.5,1.8-2c-0.6-1.3-1.9-1.1-3-1.1
			c-0.1,0-0.2-0.3-0.3-0.3c0.2-0.4,0.5-0.8,0.7-1.2c-0.4-0.4-0.7-0.8-1.2-1.3h-3c-0.1-0.4-0.2-0.9-0.3-1.3c-1.2-0.3-2.1,1.7-3.3,0.3
			C658.8,162.3,660.3,162.3,659.9,160.5z"/>
		<path class="st0" d="M353.2,388c-1.3-2-3.6-2.2-4.9-3.1c-0.2-0.5-0.5-1-0.8-1.4c-1.9-1.8-4.2-3.1-6.7-4c-2.5-1-5.1-1.7-7.5-2.9
			c-0.8-0.5-1.8-0.7-2.7-0.6c-1.4,0.9-2.8,1.4-3.3,2.4c-0.6,1.4-1.7,1.4-2.9,2c-0.4-2-0.7-3.7-1.1-5.7l-1.5-1.5h-3.3
			c-0.9,0.6-1.7,1.2-2.6,1.7c0.8,0.7,1.6,1.4,2.7,2.4c0.7,0.1,1.4,0.2,2.1,0.4c-1,0.7-1.4,1-2,1.4c0.5,0.8,1.1,1.7,1.7,2.7
			c0.5-0.3,0.9-0.5,1.2-0.7c3.5,1.4,6.9,2.8,9.9,4c0.7,1.7,1.3,3,1.9,4.5c-1.3,0.2-2.3,1.2-2.7,2.4h5.9c0.4,0.7,0.8,1.4,1.1,1.9
			c1.3,0.3,2.4,0.6,3.6,1c1-1.2,1.9-2.3,3.1-3.6c2.2-0.5,4.4,0.6,5.5,2.5c0.7,1.3,1.9,2,2.4,2.9c2.1,0.3,4.1,0.6,6,1
			c-1.2-1.5-2.2-3-3.9-3.8s-1.6-3.3-2.9-4.7v-0.3C352,388.6,352.6,388.3,353.2,388z"/>
		<path class="st0" d="M268.2,369.1c0.6,0.6,1.1,1.2,1.6,1.8v2.1c0.7,0.7,1.4,1.3,2,2v2.1c0.4,0.5,1,1.1,1.5,1.5
			c0.6,0.4,1.4,0.6,2.1,0.7c1.5,0.2,2.9,0.2,4.8,0.4c0.2,0.3,0.6,0.8,1.2,1.6c1.3-0.8,2.5-1.5,3.7-2.2v-3.5l2.1-2.1v-3
			c1.2-0.6,2.3-1.1,3.5-1.6c-0.8-1-2-1.7-2-2.6c-0.1-1.3-0.9-1.7-1.5-2.5c0.3-0.4,0.5-0.7,0.7-1c-0.3-0.5-0.5-0.8-0.7-1.2
			c1.5-0.3,4-1.8,4.1-2.7c-0.3-0.1-0.8-0.4-1.4-0.6l0.4-0.4c-0.8,0-1.6-0.1-2.4-0.1c-0.1-0.4,0-0.8-0.2-1c-0.2-0.3-0.6-0.7-0.9-0.9
			h-2.1c-0.8,1.5-1.4,2.7-2.1,4.1h-3.2c-0.6,1.4-1.2,2.8-1.9,4.3h-3.6c-0.1,1.2-0.1,2.3-0.2,3.6c-1.4-0.7-2.6-1.2-3.8-1.8
			C269.4,367.1,268.8,368.2,268.2,369.1z"/>
		<path class="st0" d="M138.6,404.1c-0.1,0.9-0.1,1.7-0.1,2.6c-2.5,1.1-4.7,2.7-7.5,3c-0.3,1.9-0.6,3.8-0.7,5.6
			c-0.1,2,1.3,3.8,0.5,5.9c-2.3,2.7-2.4,3.1-1.2,8.3c0.4,2.1,2,3.8,4.1,4.3c1-0.3,1.7-0.5,2.7-0.9c0.6-1.1,1.1-2.2,1.5-3.4
			c0.4-1.1,0.1-2.7,0.8-3.4c1.1-1.1-0.1-2.9,1.3-3.7c0.5-2.7,1.6-5.2,2.1-7.8c0.3-1.9,0.6-3.9,0.9-5.8c0.4,0.2,0.8,0.5,1.2,0.9
			c0-4-0.7-7.1-2-9.3C140,400.8,141.3,404.4,138.6,404.1z"/>
		<path class="st0" d="M147.5,157.9c0.6,0.3,1.2,0.7,1.7,1.1c0.4,0.5,0.7,1,0.9,1.6c0.8-0.4,1.4-0.7,1.9-1c0.4,1,0.7,1.9,1.2,3
			c2.7-0.6,5,1.5,8,0.1c-0.7-0.9-1.6-1.7-2.5-2.4c-0.7-0.7-1.4-1.5-2-2.3v-2.9c1-1.3,2.2-2.3,2.7-3.6s1.9-1.9,2-3.3
			c1.4-0.2,2.4-1.5,2.2-3c0,0,0-0.1,0-0.1h3.7c3-3.2,6.9-4.5,10.9-5.6c2.6-0.7,5.3-1.2,7.5-2.9v-1.7l-1.6-0.8
			c-1.9,0.8-4.3,0.5-5.3,2.2c-2.2,0.5-4.1,1-6.2,1.5c-0.1-0.2-0.3-0.3-0.5-0.4c-0.7-0.1-1.4-0.1-2.1,0c-2.4,0.8-4.8,1.7-7.1,2.5
			c-0.2-0.2-0.5-0.4-0.7-0.6c-0.6,0.8-1.3,1.6-1.8,2.2c-1,0.1-1.8,0.2-2.7,0.3c0.4,0.9,0.7,1.4,0.9,2c0,0.1,0,0.3-0.1,0.4
			c-0.3,0.1-0.6,0.1-1,0.2c-0.4,0.9-0.9,1.8-1.4,2.7c-0.6,0-1.2,0.1-1.8,0.1v2.7c-1.4,1.3-2.5,2.2-3,2.7c-0.7,1.7-1,2.7-1.4,3.6
			C148.8,156.1,147.7,156.8,147.5,157.9z"/>
		<path class="st0" d="M24.6,218.8l-0.6,0.6c0.5,0.4,1,0.8,1.5,1.1c0.4-0.4,0.9-0.7,1.4-1c0,0.7-0.1,1.3-0.2,2
			c-0.2,0.6-0.5,1.2-0.9,1.8c1.6-0.2,2.7-0.4,3.8-0.5v1.4c0.5,0.5,0.9,1,1.2,1.3c-0.3,0.9-0.5,1.6-0.8,2.7h-2.7c0.3,1.1,0.6,2,0.9,3
			c-0.7,0.6-1.5,1.2-2.8,2.3c1.8,0.1,2.9,0.1,4,0.2c-0.1,0.1-0.1,0.2-0.2,0.3l1.2,0.6c0,0.1-0.1,0.3-0.1,0.4h-2.6
			c-0.4,0.8-0.7,1.4-1,1.9s-1.1,0.7-1.1,1.5c1.4-0.3,2.7-0.6,4-0.9c0.3-0.3,0.7-0.8,1.1-1.2h7c0.9-0.6,1.7-1.1,2.7-1.7
			c-0.6-0.3-1.1-0.5-1.4-0.7c0.9-1.2,1.8-2.4,2.6-3.5c-0.8-1.7-2.2-0.9-3.3-1.3c-0.6-1.8-1.1-3.6-1.5-5c-1-0.7-1.5-1-2.1-1.4v-2.1
			c-1.3-0.9-2.4-1.6-3.7-2.5c1.2-1.4,2.5-2.6,2.4-4.3c-0.4-0.6-0.8-1-1.1-1.4c-1.4,0.3-2.5,0.6-3.6,0.9c0.8-1.4,1.8-2.5,1.7-4.9
			c-0.6,1.1-0.9,1.7-1,1.8c-1.3-0.2-2.1-0.4-2.5-0.4c-0.8,1.6-1.4,2.9-2,4.1c-0.4-0.2-0.8-0.4-1.2-0.6c-0.1,0.1-0.2,0.3-0.3,0.4
			c0.5,0.7,1,1.4,1.5,2C23.4,216.9,24.2,217.9,24.6,218.8z"/>
		<path class="st0" d="M64,121.5c-1.3,1.1-0.8,2.2-0.8,3.1c1.4,1.5,3.5,2.1,5.5,1.5c0.1-1.3,1.2-1.8,2-2.8c0.2,1,0.2,1.6,0.4,2.4
			c0.6-0.6,1.1-1,1.6-1.5l1,1c-1.8,1.6-4.6,1.5-6.7,3.4c2.3,1.1,4.2-1.2,6.1,0.4c-2-0.3-3.4,0.7-5.2,1.2c0.9,1.7,2,2.5,3.6,2.5
			c0.1,1.4,1.2,1.9,1.9,2.7c0.4-0.5,1-0.8,1-1.2c0.1-1.7,0.9-3.3,2.3-4.3c0.9-0.9,1.5-1.9,1.9-3.1c0.8-2,1.7-2.6,4.3-2.4
			c-0.6,0.3-1.2,0.6-1.8,0.8c0.9,0.7,1.7,1.4,2.5,2c-0.3,1.1-0.6,2-1,3.2c1.1-0.2,1.9-0.3,2.8-0.5l1.1,1.1h1.7
			c0.7-0.8,1.4-1.6,2.1-2.4c0.2-0.2,0-0.6,0-1.2c-0.9,0.3-1.5,0.6-2.3,0.9c-0.4-0.8-1.1-1.5-1.9-1.9c-0.8-0.3-0.7-1.6-1.9-2
			c-0.7-0.2-1.1-1.5-1.7-2.3c-2.2-0.5-4.4-0.6-5.3-3c-0.6,0.3-1,0.4-1.8,0.8c0.4-0.9,0.7-1.4,0.9-2l-3.9-1.5
			c-0.3,0.6-0.5,1.2-0.8,1.7c1.2,2.2,1.2,2.2,0.7,4c-0.8-1.7-1.4-3.1-2-4.5c-1.7,0.3-1.5,1.8-1.7,2.4c-0.5-0.2-1.1-0.4-1.5-0.6
			c0.4-0.8,0.6-1.3,0.8-1.7c-2.5-0.1-5-0.5-6.8,1.6c0.3,0.6,0.5,1.1,0.8,1.8C62.6,121.3,63.3,121.5,64,121.5z"/>
		<path class="st0" d="M543.6,159.1h1.7l2.7,3.6c1.8-0.8,3.2-1.9,4.6-1.5c1.8-0.9,0.9-2.3,1.6-3l3.2-3.2c0.5-0.1,1.5-1,2.6-0.7
			c-0.7,0.7-2,1.5-2,2.2c0,1.4-1.6,1.7-1.5,2.9c0.9,0.6,1.8,1.2,2.6,1.8c0.8,0.1,1.5,0.2,2.9,0.3c-1.6,0.7-3.3,0.2-3.3,2.1
			c2.1,1.2,2.1,1.2,3.6,1.2h8.7c0.3,0.5,0.9,0.6,0.8,1.4h-7c-1.8-0.1-3.5,0.6-4.8,1.9c1.3,0.9,2.4,1.6,3.4,2.4h3.8
			c0.9,1.1,1.6,1.9,2.1,2.6c1.4,0.3,2.7-0.3,3.7,0.7c1-1.2,2.4-0.3,3.5-0.7c1.4-1.2,3.3-1.6,5.1-1.2c0.5-0.7,1.1-1.5,1.6-2.1
			c1.7,0.9,3.1,1.7,4.9,2.7c1.8-0.1,4.2,0.6,6.2-1v-1.9h-3.4v-0.5c1.6-0.4,3.3-0.8,5.1-1.2c-1.6-3.3-5.5-3.1-7.8-5.5v-3.5
			c-0.5-0.2-0.9-0.4-1.3-0.6v-4.4l1.5-1.5c-0.3-0.7-0.6-1.5-1.1-2.6c-1.5,0.5-2.8,0.9-4.7,1.4c1,0.7,1.5,1,2,1.4
			c-0.1,0.1-0.1,0.3-0.2,0.4c-1-0.2-2-0.3-3.2-0.5l-0.7,0.7v3c1.2,2.1,1.2,2.1,0.9,3.6h-1.7c0.2-3.4-1.6-5.2-4.7-6.3
			c-0.1,0.4-0.2,0.9-0.2,1.3c0.7,0.4,1.9,0.2,1.2,1.6h-2.3c-0.5-2.1-2.3-2.5-4.3-2.8c-0.4,1-0.8,1.9-1.2,2.8h-1.8
			c0.6-0.7,1.1-1.3,1.8-2.1c-0.5-0.7-1-1.4-1.4-2c-1.5,0.3-2.6,0.5-3.8,0.8c0.5-0.7,1-1.4,1.5-2.2c-0.8-0.7-1.6-1.3-2.4-1.8
			c-1.1-0.7-2.5-1-3.8-0.9c-2.3,0.3-4,0.2-5.4-0.7c-0.6-0.5-1.4-0.7-2.2-0.6c-2.2,0.4-4.4,1-7.3,1.6c1.3,1,2,1.6,2.8,2.2
			c-1.5,1.4-2.4,2.9-2.1,4.9c-0.8,0.8-1.5,1.6-2.5,2.7C542.3,158.4,543,158.7,543.6,159.1z"/>
		<path class="st0" d="M262.8,379.1c0.5-0.2,1-0.4,1.5-0.6c-0.7-1.3-0.7-3-3.1-3.3c0.5,0.7,1,1.4,1.5,2c-2.4-0.9-3.8-2.8-5.5-4.3
			c0.4-0.5,0.5-0.8,0.8-1.1c-1.9-2.4-3.2-5.5-7.5-5.7c-0.3-3.5-4.3-3.7-5.3-6.6c-0.1-0.2-0.7-0.1-0.9-0.3c-0.6-0.5-1.4-0.8-2.2-0.7
			c-0.8-0.1-1.6-0.4-2.3-0.7l-0.6,0.6c1.3,1.1,1.7,2.7,3,3.8s2.3,2.9,3.9,3.9c0.3,0.2,0.2,1.1,0.5,1.5c0.9,0.9,0.4,2.4,1.4,3.3
			c1.8,1.5,3,3.5,3.4,5.8c1.3,1.7,2.3,3.2,3.5,4.5s2.7,2.4,4.2,3.8h3.5C262.8,382.9,262.8,380.9,262.8,379.1z"/>
		<path class="st0" d="M619,146.5h2.2c0.1-0.2,0.4-0.8,0.7-1.5l1.4,1.4c2.3,0.4,4.8-0.5,6.6,0.6c2.2-0.6,4.2-2,6-1.1
			c2.1,1.1,3.6,0.3,5.3-0.5c0.3-1.2,0.6-2.4,0.8-3.4c-2.7-2.3-6-0.2-8.1-1.6c-3.3-0.1-6,2.3-8.8,0.5c-1,0.3-1.7,0.5-2.3,0.7
			c-0.5-0.5-1-1-1.5-1.4c-0.6-0.2-1.2-0.3-1.8-0.4c0-0.2,0-0.4-0.1-0.6c0.4-0.4,0.9-1,1.6-1.7c-2.3-0.4-4.2-2.6-6.9-1
			c-1.1-0.6-2.4-1.2-3.9-2h-2.5c-1,0-2,0.1-3.4,0.2c1.6,2,3.6,2.2,5.2,3.2c0.6,0.4,1.8-0.2,3-0.3c0.8,1,1.8,2.2,2.4,3
			c-0.2,1.5-0.3,2.5-0.4,3.5C616.1,145,617.3,145.6,619,146.5z"/>
		<path class="st0" d="M782.1,182.9c-0.7-0.1-1.3-0.1-1.8-0.2l-1.3-1.3c-0.8,0.7-1.6,1.5-2.4,2.2c-0.5-0.3-0.9-0.5-1.1-0.6
			c-0.4,0.2-0.8,0.5-1,0.6c-0.8-0.3-1.3-0.6-1.9-0.8c-0.2,0.7-0.4,1.1-0.5,1.4c-0.5-0.3-1-0.5-1.6-0.9c-0.1,0.9-0.2,1.5-0.3,2.1
			c-0.6,0.3-1.3,0.6-2,0.9v-2.7c-1-0.6-1.9-1.1-2.6-1.5c-2,0.3-2.4,2.2-3.6,3.2l0.2,0.2l0.7,0.7c1-0.2,2-0.5,3.1-0.8v2.2h-2.7
			c0.2,0.3,0.3,0.5,0.5,0.8c-0.5,0-0.9,0.1-1.4,0.1c0.1,0.2,0.2,0.4,0.4,0.5c0.8-0.2,1.6-0.4,1.7-0.4l2.4,2.4
			c-0.5,0.1-1.1,0.2-1.6,0.3c0.1,0.5,0.2,0.9,0.3,1.4c1-0.3,1.9-0.6,2.8-0.9c0.7,0.4,1.4,0.7,2,1.1c1.5,1.2,3.6,1.2,5.2,0.1
			c1.1-0.7,2.2-1.8,3.4-1.9c3-0.3,4.3-2.5,6.3-4.4c-1.1-0.9-2.1-1.7-3.1-2.5C782.2,183.8,782.2,183.4,782.1,182.9z"/>
		<path class="st0" d="M562.8,138.7c0.4,0.6,0.6,0.9,0.9,1.4c-0.7,0.1-1.3,0.2-1.9,0.3c-0.3,1.1-0.6,2.1-0.9,3.2
			c1.6,0.4,3.1,0.7,5.1,1.1l1.8-1.8c0,0,0.1,0.3,0.2,0.7c1.1,0.4,2.4,0.2,3.4-0.5c0.1-0.1,0.4,0.2,0.6,0.3c0,0.3,0,0.6,0.1,0.9
			c-1.3,0.4-2.6,0.8-4.3,1.2c-0.1,0.2-0.5,0.8-1.1,1.8c3-0.3,5.5,0.4,7.9-1.4c1-0.8,2.4-2.5,4.2-0.9c1.7-1.3,3.6-0.1,5.1-0.9
			c0.8-0.5,1.6-1,2-1.3v-1.7c-0.8-1.1-1.3-1.6-2.4-3c-0.2,0.7-0.4,1.4-0.6,2.1c-2.7-0.9-3-3.3-4.2-5.1c-1.1,0.9-2.2,1.7-3.4,2.6
			c0.8,0.3,1.2,0.4,1.8,0.6c-0.3,0.6-0.6,1-1.1,2c0.6,0.3,1.1,0.5,1.7,0.7c-0.1,0.1-0.1,0.2-0.2,0.3h-3c-1.4-1.1-2.7-2.3-4.1-3.5h-3
			c-0.6-0.6-1.1-1-1.7-1.6c-0.4,0.5-0.9,0.9-1.4,1.3C563.9,138.1,563.4,138.5,562.8,138.7z"/>
		<path class="st0" d="M332,278.4c-0.5-0.3-1-0.6-1.6-0.8c-1.4,0.5-1.2,1.6-1.5,2.5c-0.4,0.8-0.8,1.5-1.4,2.2
			c-2.4-1.1-4.5,1.1-6.2,0.3c-1.5,1.1-2.8,2-4,3c-0.2,0.1,0,0.6,0,1h3c0.1-0.2,0.4-0.9,0.5-0.9c1.8-0.4,3.1-0.8,4.4-1.1
			c0.3-0.1,0.6,0.1,1.1,0.1c0,0.9,0.1,1.8,0.1,2.7h1.8c0.6-0.8,1.4-1.7,2-2.6c0.2,0.2,0.5,0.6,0.8,0.5c2.5-0.3,4.8-1.1,7-2.3
			c0.4-2.7,0.7-5.3,1.1-8.1c0.6-0.5,1.3-1.2,2-1.8c-0.2-2.4-0.3-4.8-2.1-7c-0.7,1-1.2,1.7-2,2.9c0.8,1.9-1.3,3.9-1.6,6L332,278.4z"
			/>
		<path class="st0" d="M409.9,478.4l-0.9-1.5c-0.4,0.2-0.8,0.5-1.1,0.8c-0.8-0.2-1.5-0.4-2.2-0.6c-0.8,1.2-1.6,2.5-2.3,3.8
			c-0.7,1.4-1.7,2.6-3.1,3.4c-2.1,1.2-3.9,2.7-5.5,4.5c-1,0.9-1.5,2.2-1.4,3.5c1.1,0.4,2.2,0.8,3.3,1.3c2.2,1,3.9,0.5,5-1.6
			c0.9-1.7,1.5-3.5,2.3-5.3c1.2-0.8,2.1-1.1,2.9-2.2c1.2-1.6,1.2-3.8,3.2-4.7l-0.7-0.7C409.5,478.9,409.7,478.6,409.9,478.4z"/>
		<path class="st0" d="M595.6,154.9c-0.6-0.5-1.3-1-2.1-1.6c-0.6,0.6-1,1.1-1.6,1.7c0.9,0.7,1.6,1.3,2.4,2h1.1l0.4-0.4
			c1.4,1.5,2.8,3,4.3,4.7c1.6-1.2,4-1.4,5-2.9c0.4-1.9,0.6-3.3,0.9-4.7l-1-1c-0.2,0.5-0.3,0.9-0.5,1.3h-2.6v-1.4
			c1-0.8,1.9-1.5,2.7-2.2c-0.9-0.7-1.7-1.2-2.4-1.7h-2.6c0.4,0.4,0.6,0.7,1.2,1.3c-1.1-0.2-1.8-0.2-2.5-0.4c-1.2-0.4-3.1,0.1-3.5,1
			c0,0.5,0.1,1.1,0.2,1.6h2.6C597.6,154.4,597.6,154.4,595.6,154.9z"/>
		<path class="st0" d="M696.9,242.3l-2.4,0.6c-0.7-1.1-1.3-2-1.9-2.9c-0.3,0.3-0.6,0.5-1,0.9c-0.4-2.2,0.8-3.4,1.9-4.7l-1-1
			c-2.4,2.1-4,4.4-4,7.6c-0.7,0.4-1.3,0.8-2,1.2v2c-0.2,0.1-0.9,0.4-1.4,0.6c0.4,0.5,0.7,0.9,1,1.2c2.1-0.2,4.1,0.4,6.1-0.7
			c0.4-0.2,1.3,0.5,2.1,0.8c-0.4,0.5-0.8,1-1.3,1.4c1.2-0.4,1.9-0.6,2.8-0.9c0.5,0.5,1.2,1,2,1.8c0.8-0.6,1.5-1.1,2-1.5
			c-0.7-1.4-1.3-2.5-1.9-3.7c-0.4-0.1-0.7-0.3-1.1-0.5c0.3-0.6,0.5-1.1,0.7-1.5C697.3,242.8,697.1,242.5,696.9,242.3z"/>
		<path class="st0" d="M336.4,144.5c0.1,0.1,0.4,0.5,0.6,0.5c1.7-0.2,3.4-0.5,5.4-0.8c-0.2-0.9-0.3-1.7-0.5-2.7
			c0.4,0.1,0.7,0.2,1.1,0.2c0.1,0.6,0.1,1.2,0.2,1.8c1,0.3,2,0.7,3.1,1c0.7-1.1,1.2-2.1,1.9-3.2c-0.8-0.6-1.5-1.1-2.5-1.8
			c-1.7-0.2-3.9-0.5-5.8-0.8l-1.2,1.2c-1.8-0.7-2.9-2.5-5.2-1.8c-1.2,1.2-2.8,2.4-3,4.1c0.9,1.1,1.7,1.9,2.5,2.9
			C334.1,145,335.3,144.8,336.4,144.5z"/>
		<path class="st0" d="M80.5,118c0.9-0.5,2.4,0,3.6,0c-1.1,1-2.8,0-3.4,1.8c1.9,0.8,3.9,0.7,5.8,1.1c1.1,0.4,2.3,0.4,3.4,0
			c1.2-0.5,2.5-0.6,3.5-1.5c0.8-0.7,1.7-1.4,2.5-2.1c0-0.4-0.1-0.9-0.1-1.5c-1.7-0.1-3.4,0.2-5-0.7c-0.9-0.3-1.9-0.1-2.5,0.6
			c-0.1,0.1-0.4-0.1-0.6-0.1c-0.2-0.5-0.4-0.9-0.7-1.7c-0.7,0.6-1.2,1-1.5,1.3c0.2,0.4,0.4,0.7,0.7,1.4c-2.1-0.8-3.8-1.1-5-2.4
			c-1,0.6-1.7,1-2.5,1.4c-0.6-0.7-1.7-0.8-2.5-0.2c0,0,0,0,0,0c0.4,0.9,0.7,1.6,1,2.4C78.3,117.4,79.2,118.7,80.5,118z"/>
		<path class="st0" d="M16,233.6c1.7,0.2,3.4,0.3,4.6-1.1c1-1.2,2.3-0.8,3.6-1c-0.2-2-0.4-3.9-0.6-5.9c0.5-0.4,1.1-0.8,1.7-1.2
			c-0.7-1-1.2-1.8-1.8-2.7c-0.9,0.3-1.7,0.6-2.4,0.9c-0.6-0.3-1.1-0.6-1.5-0.8l-1.1,1.1c0.3,0.5,0.5,0.9,0.8,1.4l-1.8,0.9
			c-0.6-0.2-1.2-0.4-1.8-0.5v3.3c0.5,0.2,0.9,0.4,1.6,0.7c-0.9,1.5-1.7,2.7-2.5,4C15.2,233,15.6,233.3,16,233.6z"/>
		<path class="st0" d="M413.9,467.3c-0.2-0.6-0.4-1.2-0.5-1.8c-0.6,0.2-1.1,0.4-1.8,0.6c-0.2-2.5-1-4.6-2.9-6
			c-0.3-0.3-0.9-0.2-1.9-0.5c1.8,2.9,3.4,5.3,4.7,7.3c-0.4,1.5-0.7,2.7-0.9,3.8c-0.3,0.1-0.6,0.1-1,0.2v1.8c0.8,0.6,1.7,1.2,2.8,2.1
			c-0.2,0.9-0.6,2.1-0.8,3.2c-0.1,0.3,0.1,0.6,0.1,1h2.1c0.6-1.5,1.3-3.1,2-4.7c0.2-0.7,0.5-1.4,0.9-2c0.4-0.5,1.2-0.6,1.6-1
			c0.4-0.5,0.7-1.1,1-1.7c0.2-0.5,0.3-1.1,0.6-1.9c-1.6,0.4-3,0.7-4.4,1C414.8,468.4,414.3,467.9,413.9,467.3z"/>
		<path class="st0" d="M595.4,135.6c0.9,1.2,1.7,2.1,2.9,3.7c-2.1-0.5-2.8-2.8-4.7-1.4c0.2,0.3,0.4,0.7,0.5,1.1
			c0.1,0.4,0.2,0.7,0.3,1.1c-0.1,0.1-0.2,0.2-0.4,0.2c-1.1-1.4-2.3-2.9-3.2-4.1h-2.7c0.2,1.5,1,2.9,2.3,3.7c1,0.8,2.2,1.4,3.5,1.6
			c1.3,0.2,2.7-0.4,4.2-0.6c-0.4,1.2-0.7,2.2-0.8,2.5c0.4,0.6,0.7,1.2,1,1.9c0.5-0.4,1.1-0.7,1.7-0.9c0.7-0.1,1.3-0.1,2,0
			c-0.1-0.2-0.2-0.3-0.3-0.5c0.7-0.4,1.3-0.9,1.7-1.1v-4.4l-2.3-2.3C599.1,138.2,597.7,134.9,595.4,135.6z"/>
		<path class="st0" d="M290.6,380.2c0.5,0.4,1.1,0.7,1.6,1.1c-0.6,1.3-1.4,2.5-0.3,4c0.6-0.5,1.2-0.9,1.7-1.3
			c-1.4-2-0.7-3.9-0.9-5.8c0.6,0,0.9,0.1,1.3,0.1c-0.2,1.8,0.5,3.5,1.8,4.7c0.6-0.3,1.2-0.6,1.9-1c-0.5-1.8-1-3.7-1.5-5.6
			c2.1-1.1,2.1-1.1,2.7-3.1c-1.8,0.5-3.5,0.9-5.4,1.4v-3.3c1.5-0.3,2.9-0.5,4.4-0.8c1.7,1.6,3,0.2,4.6-0.5c-0.1-0.3-0.2-0.5-0.2-0.8
			c-0.7,0.3-1.4,0.4-2.1,0.5c-1,0.2-2,0-2.9-0.5c-1.6-0.9-3,0.8-4.6,0.7c0.4,3.9-3.3,5.9-3.6,9.2
			C289.6,379.5,290.1,379.9,290.6,380.2z"/>
		<path class="st0" d="M638,191.2c-0.9-0.1-1.6-0.7-1.6-1.1c-0.1-1.7-1.7-1.7-2.5-2.4s-2.2-0.9-3.2-1.6c-0.7-0.6-1.3-1.2-1.9-1.9
			c-1.9,2-2.2,2.8-2.4,6.4c-0.5,0.7-1,1.3-1.9,2.5c1.2-0.2,1.9-0.3,2.6-0.4c0.3,0.5,0.8,1.2,1.2,1.9c2-0.2,3.6-0.9,4-2.8h2.2
			l1.3,1.3h3.8C638.8,192.2,638.4,191.3,638,191.2z"/>
		<path class="st0" d="M344.5,229.9l-1.4-1.4c-0.1-0.6-0.2-1.3-0.4-1.9c-2.6,2.4-2.3,5.4-1.7,7.8c0.7,2.8,0.3,5.4,0.5,8.1
			c-0.1,0.6-0.4,1.2-0.7,1.7c2.2,2.5-1,5.1,0.5,7.7c0.4-0.6,0.8-1.2,1.1-1.7c1.4,1.3,1.4,1.3,3,1.3c-3.9-2.4-3.2-5.5-1.9-8.9
			c0.9,0.3,1.8,0.6,3,0.9c0.1-0.5,0.1-0.9,0-1.4c-0.8-2.6-1.5-5.2-2.5-7.7c-0.3-0.7-0.3-1.5,0-2.2
			C344.3,231.5,344.5,230.7,344.5,229.9z"/>
		<path class="st0" d="M292.9,334.6l1.2,1.2c0.1,0.9,0.2,1.7,0.2,2.3c1.8,0.4,3.3,0.7,5.1,1.1c0.6,0.5,1.1,1,1.7,1.5
			c-0.3,0.4-0.5,0.8-0.9,1.3c0.8,0.6,1.5,1.1,2.1,1.5c0.4,1.3,0.8,2.6,1.2,4c0.8-1.1,1.4-2,2-3c-0.1-0.4-0.2-0.8-0.4-1.2
			c-1.1-2.3-3.7-3.3-4.7-5.7h-3.1c-0.4-1.3-0.7-2.4-1-3.7l2.4-2.4c-0.4-1.5-0.8-2.9-1.1-4.3h-3.3v4.7c-0.4,0.1-0.9,0.2-1.3,0.3
			C292.9,333,292.9,333.8,292.9,334.6z"/>
		<path class="st0" d="M337.8,260.9c-1,1.4-1.3,3.2-0.8,4.8c0.7-0.3,1.4-0.6,2-1c-0.2-0.6-0.4-1.2-0.7-1.7h3.7
			c0.5,0.4,1,0.9,1.5,1.4c0.6-1,1.2-1.9,1.9-2.9h3.2c-0.6-2,1.3-2.6,2.1-4.1c-1.9,0.2-3.7,0.5-4.8,0.6c-2.4-1-3.2-3-4.6-4.1
			c-0.4,0.3-0.8,0.6-1.1,0.9c0.3,0.3,0.5,0.6,0.7,0.8c-0.5,1.8-1.1,3.5-1.6,5.2C338.8,260.9,338.3,260.9,337.8,260.9z"/>
		<path class="st0" d="M553,139c0.3,0.6,0.5,1.1,0.7,1.7c0.5-0.6,1.1-1.1,1.7-1.6c0.6-0.2,1.2-0.4,1.8-0.4c0.2-1.2-0.4-2.7,1.5-3.2
			c0.4,1,0.8,1.9,1.3,3.3c1-1.8,3.2-1.9,3.4-3.9c-0.2-0.2-0.3-0.4-0.7-0.8c0.5-0.3,1.1-0.7,2-1.2c-1.2-0.5-1.8-0.8-2.6-1.2
			c-0.7,0.6-1.3,1.1-1.8,1.6c-2.3-1-2.5-0.9-4.6,0.4s-3.8,3.3-6.5,3.8c-0.4,0.1-0.6,0.6-1,1c0.3,0.5,0.6,1.1,0.9,1.5
			C550.6,139.6,551.8,139.3,553,139z"/>
		<path class="st0" d="M282.7,391.7c-0.9-0.5-2-1-3.7-1.9h-2.8c1.2-0.7,1.9-1.2,2.7-1.7c-1.4-0.7-2.6,0-3.6,0.4
			c-1.3-0.5-2.2-0.9-3.3-1.3c-1.2,1.5-2.6,0.4-3.4-0.3c-0.9-0.9-2.1-1.3-3.4-1.2c-0.2,0-0.5-0.4-0.8-0.6c-0.7,0.9-2.6,0.5-2.5,2.3
			c1.4,0.9,2.9,1.8,4.2,2.6c2.8-1,2.8-1,5.3,0.7c0.5,0.3,1,0.5,1.5,0.6C276.1,392.2,279.4,392.3,282.7,391.7z"/>
		<path class="st0" d="M588.4,124.3c0.3,0.8,2.2,0.1,1.6,2h-2.6c0,0.4,0,0.9,0.1,1.3h6.4c1.2,0.8,2.2,1.5,3.2,2.2
			c1,0,2.3,0.3,2.8-1.1l-1.2-1.2c-0.1-0.5-0.1-1.1-0.2-1.6c-2.2-0.5-3.5-2.8-6-2.5c-0.1,0-0.3-0.3-0.5-0.5c-1.9-1.8-3.8-1.9-6.2-0.2
			c0.4,0.7,0.8,1.6,1.3,2.6C587.5,125,587.9,124.6,588.4,124.3z"/>
		<path class="st0" d="M249.6,129.2c1.3-0.3,2.4-0.9,3.3-0.8c2,0.3,3.8-0.5,5.6-0.9c1.2-0.3,3.4,0,3.6-2.3c-1.1-0.8-2.3-1.6-3.5-2.5
			c-0.6,0.3-1.2,0.6-2.1,1c0.3-1,0.5-1.6,0.8-2.6l-4.2,1C252.5,124.7,249.3,125.9,249.6,129.2z"/>
		<path class="st0" d="M235,119.9h2.5c0.5-0.7,0.9-1.4,1.3-2h0.9c0.6,1.5-1.8,1.8-1.4,2.9c1.2,1,2.3,1.8,3.1,2.5
			c1.8,0.3,3.6,0.7,5.3,1.3c1.4,0.6,2.1,0.2,2.6-0.4c0.4-1.9,0.6-3.5,0.9-5.2c-0.8-0.4-1.5-0.8-2.2-1.1c-0.6,0.4-1,0.6-1.5,1
			c-0.5-0.7-1-1.2-1.3-1.6h-3.3c0.5-1.5,1.8-0.2,2.6-0.8c0.2-0.8,0.4-1.6,0.7-2.4c-1.4-0.4-2.3-1.6-3.1-3.2c-1,0.5-1.9,1.5-2.8,1.5
			c-2.2-0.1-2.1,1.6-2.4,2.5c-0.9,0.6-1.4,1-2.1,1.5c0.6,0.4,1.1,0.9,1.3,1.6c-0.9,0.1-1.7,0.1-2.2,0.2
			C234.3,118.7,234.7,119.3,235,119.9z"/>
		<path class="st0" d="M652,321.7c-2.7-1.2-5.5-2.3-8.3-3.6c-1.2-0.5-2.2-1.4-3.4-1.8s-2.6-1.3-4.1-1c-1.6,0.4-3.1,0.9-4.6,1.5
			c-0.6,0.1-1.1,0.8-0.9,1.4c0,0.2,0.2,0.4,0.3,0.6c1.7-0.5,2.8-2.6,5-2.1c0.1,0.4,0.3,0.8,0.4,1.3c1.6,0.3,3.2,0.6,5.3,1.1
			c1.2,1.1,2.7,2.4,4.3,3.8c1.1,0.1,2.5,0.3,4.1,0.4c0.5-0.2,1.4-0.5,2.2-0.8C652.2,322,652.2,321.7,652,321.7z"/>
		<path class="st0" d="M302.8,351.8c-0.9-0.3-1.7-0.6-2.7-0.9c-1,1.3-2.6,2.1-3.3,3.8c0.3,0.1,0.7,0.3,1,0.5
			c0.6-0.5,1.2-1.1,1.9-1.7c0.7,0.3,1.4,0.6,2,0.9c0.1,1.1,0.2,1.9,0.3,2.9c1.1,0.5,2,1,3.3,1.6v-3.6c0.8-0.1,1.3-0.1,2.1-0.2
			c0.2-2.4-0.3-4.7-1.4-6.8C304.9,349.4,303.9,350.6,302.8,351.8z"/>
		<path class="st0" d="M349.3,477.1c-1.1,0-2.3-0.7-3.5-1.1c0.3,2,0.6,3.8,1,6l2.2,2.2h1.4c0.5-0.9,0.7-2.2,2.2-2.2
			c0.7-2.2,1.8-4.2-0.1-6C351.5,476.3,350.4,477.1,349.3,477.1z"/>
		<path class="st0" d="M656.6,328c2.3,1.6,3.9-0.3,5.4-0.5c1.1,0.2,1.9,0.3,2.8,0.5v-1.9c-0.6-0.4-1.3-1.3-2.2-1.5
			c-2.4-0.6-4.8-1-7.4-1.5v2.5c0.1,0.1,0.8,0.3,1.4,0.6l-1.2,1.2h-3.5c0.9,0.7,1.3,1.1,1.7,1.4C654.8,328.3,656.1,327.6,656.6,328z"
			/>
		<path class="st0" d="M638.8,150.1c0.9,1.7,1.6,3.1,2.5,5c1.2-0.4,2.5-0.7,3.7-0.9c1.3-0.2,2.6,0.3,4.1-0.4c-1.3-2-2.7-3.1-5-3.1
			c-0.9,0.2-1.8,0-2.6-0.5C641,149.8,639.9,150.1,638.8,150.1z"/>
		<path class="st0" d="M209.4,347.9c-0.4,1.5-1.2,2.9-0.9,4c0.3,1.4,0.5,2.8,0.6,4.2l1,1c0.1,0.1,0.2,0,0.3,0c1.9-1.5,1.9-1.5,2.9-4
			C212.2,351.5,211.9,349.1,209.4,347.9z"/>
		<path class="st0" d="M610.7,146.3c0.9-0.4,1.5-0.6,2.2-0.9c-1-1.5-1.8-2.7-2.5-3.7c-2.1-0.3-4.3,0.6-5.5,2.4
			c0.1,0.2,0.2,0.3,0.4,0.4l1.8,1.1C608.7,145.9,610.1,146.1,610.7,146.3z"/>
		<path class="st0" d="M360.2,145.1c0.1,0,0.2-0.1,0.2-0.2c0.1-0.1,0.1-0.2,0.1-0.6c-0.3-0.4-0.6-0.7-0.9-1l-8.9-1.5v1.7
			C356.2,145.9,356.2,145.9,360.2,145.1z"/>
		<path class="st0" d="M607.9,129.7c0.4-0.3,0.8-0.6,1.1-1c-0.3-0.2-0.5-0.5-0.7-0.8c0.2-0.3,0.4-0.5,0.6-0.7
			c-0.4-0.4-0.8-0.8-1.1-1.2c-2.1,0.9-3.6-0.7-5.7-1.4v2.5c0.6,0.9,1.1,1.6,1.7,2.5C605.2,129.7,606.6,129.7,607.9,129.7z"/>
		<path class="st0" d="M161.7,113c-0.3-0.5-0.5-0.8-1-1.5c1.4-0.3,2.5-0.6,3.6-0.9v-1c-2-0.5-3.7,0.8-6.4,0.8l2.1,1.7
			c0,0.1-0.1,0.2-0.1,0.3c-0.9-0.2-1.8-0.5-2.9-0.8c-0.4,1-2,1.1-2.6,2.6h6.4L161.7,113z"/>
		<path class="st0" d="M650.8,177.6v-3.1c-1-0.4-1.9-0.7-2.9-1.1c-0.7,0.7-1.3,1.4-1.8,1.9v3.1h3.9
			C650.3,178.2,650.6,177.9,650.8,177.6z"/>
		<path class="st0" d="M573.8,133.2c0.6-0.6,1.2-1.1,1.7-1.7V130c0.3-0.1,0.6-0.2,0.9-0.3c0.2-0.1,0.3-0.3,1-1
			c-2.9,0.4-5.1,0.7-7.1,0.9c-0.4,0.8-0.6,1.4-0.9,1.9C570.4,132.9,572.1,133.5,573.8,133.2z"/>
		<path class="st0" d="M295.3,317.8c0.8-2.8,2.4-5.2,2.4-8.3c-1.2,0.5-2,0.9-3.1,1.4C293.9,313.3,292.5,315.5,295.3,317.8z"/>
		<path class="st0" d="M314.5,289.3c-0.1,0.2,0.1,0.6,0.2,0.8c0.6-0.2,1.1-0.4,2.2-0.8c-0.9,2-1.5,3.6-0.7,5.4
			c2.2-1.3,2.5-3.4,3.4-5.6c-1.2-0.7-2.2-1.3-3.3-1.9C315.7,287.9,315,288.6,314.5,289.3z"/>
		<path class="st0" d="M429.4,162.4c0.1-0.1,0.1-0.4,0.3-0.8c-0.6-0.3-1.2-0.7-2-1.1c-2.1,0-4.6-0.4-6.2,2.8
			C424.6,163.1,427.1,163.8,429.4,162.4z"/>
		<path class="st0" d="M299.6,350.3c0.8-1.2,1.6-2.3,2.3-3.2c-1.1-1.4-2.1-2.7-3.1-3.9c-0.5,0.1-1.1,0.1-1.6,0.1v2.8h2.1
			c-0.3,1.2-0.5,2.2-0.8,3.1C298.8,349.6,299.2,350,299.6,350.3z"/>
		<path class="st0" d="M483.9,211.3c-1.7,1.2-2.7,3.2-4.6,3.8v1.7h3.2c0.6-0.7,1.2-1.4,1.8-2c-0.3-0.3-0.6-0.6-0.8-1
			c0.5-0.7,1-1.3,1.6-2.1L483.9,211.3z"/>
		<path class="st0" d="M269.1,324v3.1h2.7c0.7-1.3,1.4-2.6,2.2-4.2C272.2,323.3,270.4,322.2,269.1,324z"/>
		<path class="st0" d="M338,150.9c0.3,0.3,0.6,0.6,0.9,0.9c1.7,0.4,3.4,0.7,5.1,1c0.3-0.4,0.6-0.7,1-1c-1-1.3-2.4-2.2-4-2.6
			C340.1,149.7,339.2,150.2,338,150.9z"/>
		<path class="st0" d="M577,125.6c-2.9-0.2-5.3,0.6-8.1,1.8c3.2,0.4,5.9,0.7,9.1,1C577.5,127.2,577.3,126.4,577,125.6z"/>
		<path class="st0" d="M56.3,271.9c0.6-0.5,1.3-1.1,1.7-1.5v-4.5c-2.2,0-3.2,0.4-3.2,0.9c0.5,1,1,1.9,1.4,2.7
			c-0.2,0.3-0.4,0.6-0.7,0.8C55.8,270.8,56.1,271.4,56.3,271.9z"/>
		<path class="st0" d="M359.5,387.1c1-1.3,3.2-1.7,3-4c-0.3-0.1-0.7-0.1-1-0.2c-0.8,1.5-0.9,1.3-2.8,2.3c-1.4,0.7-2.4,0.8-3.6-0.1
			c-0.2-0.1-0.6,0.1-1.1,0.3c0.4,0.7,0.8,1.2,1.1,1.7L359.5,387.1z"/>
		<path class="st0" d="M144.3,115.2c1.1-1,2.6-1.7,4.1-1.8c-1.2-0.8-1.9-1.3-2.3-1.5c-2.4,1.5-4.6,2.9-7.3,4.5
			C141.2,116.7,143,116.3,144.3,115.2z"/>
		<path class="st0" d="M299.3,396.1h2.3c0.7-0.7,1.4-1.4,2.1-2c0.6-0.5,1.7-1.3,2.1-1.1c1.2,0.7,1.5-0.6,2.2-0.7
			c-1-0.2-2.1-0.4-3.3-0.7C303.2,392.8,300.9,393.5,299.3,396.1z"/>
		<path class="st0" d="M158.3,116.6c-0.2,0.2-0.2,0.6-0.4,1.1h4c1.1-0.6,2.1-1.1,3.1-1.6c-0.3-0.3-0.5-0.7-0.8-0.8
			C163,114.9,159.2,115.7,158.3,116.6z"/>
		<path class="st0" d="M70.2,274.3h-5.6v0.9c1.5,0.9,2.9,1.8,4.4,2.7C69.4,276.6,69.8,275.5,70.2,274.3z"/>
		<path class="st0" d="M167.4,115.6c1.6-0.5,3.1-0.9,4.2-1.3c-0.4-0.7-0.9-1.5-1.2-2H168c0.1,0.1,0.2,0.3,0.3,0.4l-2.6,2
			C166.4,115.1,167,115.4,167.4,115.6z"/>
		<path class="st0" d="M321.5,290.4c0.7-0.8,1.4-1.5,2.1-2.3c0.4,0,0.8-0.1,1.1-0.1c0.3-0.7,0.6-1.3,1-2.2c-1.7,0.3-3.2,0.5-4.6,0.9
			c-1.1,0.4-1.3,1.4-0.6,2.8C320.6,289.8,320.9,290,321.5,290.4z"/>
		<path class="st0" d="M525.9,228.5c1.7,0.9,1.6,3.5,4.4,4c-0.7-2.2-1.3-3.9-1.9-5.7C527.2,226.5,526.3,226.8,525.9,228.5z"/>
		<path class="st1" d="M316.3,264.1c0-0.1,0-0.2-0.1-0.3l0,0c0-0.1-0.1-0.2-0.1-0.4v-0.1h-0.2l-0.3-0.3v-0.5c-0.1,0-0.2,0-0.3-0.1
			c0-0.2,0-0.2-0.1-0.1s-0.1,0-0.2-0.1l-0.1-0.1c-0.1,0-0.2,0.1-0.2,0.2c0,0.1-0.1,0.3-0.1,0.4s-0.1,0.3-0.1,0.4s-0.1,0.3,0,0.4v0.2
			c-0.1-0.1-0.2,0-0.3,0.1c-0.1,0-0.1,0-0.1-0.1l0,0c-0.1-0.1-0.2-0.1-0.3,0c0,0,0,0,0,0l-0.3,0.3c-0.1,0.1,0,0.2-0.1,0.3
			s0,0.1-0.1,0.2s-0.1,0-0.1,0.1l-0.1,0.1l-0.2,0.2l0,0c-0.1,0-0.2-0.1-0.4,0h-0.2c-0.1,0.1-0.2,0.1-0.3,0c0,0,0,0,0,0
			c-0.1,0-0.2-0.1-0.3,0s-0.3,0.1-0.5,0.1v0.4c0,0.2,0.1,0.5,0.3,0.6c0.1,0.1,0.1,0.2,0,0.4c0,0.1,0,0.1-0.1,0.1l0,0v0.1l-0.1,0.1
			c-0.1,0-0.1,0-0.2-0.1c-0.1-0.1-0.2-0.1-0.4-0.1c-0.1,0.1-0.2,0.1-0.3,0c0,0,0,0,0,0c-0.1,0-0.3,0-0.4-0.1h-0.6
			c0-0.1,0-0.1-0.1-0.1l0,0c-0.1,0-0.1,0-0.2-0.1l0.1-0.1c-0.1-0.1-0.2-0.1-0.2-0.2c0-0.1,0-0.2-0.1-0.3c-0.1,0-0.1-0.1-0.2-0.2
			c-0.1,0-0.1,0-0.1,0.1l0,0c-0.1,0.1-0.2,0.1-0.3,0.1c-0.1,0.1-0.1,0.1-0.1,0.2h-0.1c-0.1,0-0.2,0.2-0.2,0.2c0,0.1,0,0.3-0.1,0.4
			v0.1c0,0.1,0,0.1-0.1,0.1l-0.3,0.3c-0.1,0.2-0.2,0.3-0.4,0.4c-0.1,0-0.1,0-0.1,0.1l0,0c-0.1,0.2-0.2,0.3-0.3,0.4
			c0,0.1,0,0.1-0.1,0.1l0,0h-0.4c-0.1,0-0.3,0.1-0.3,0.2c0,0,0,0,0,0.1c-0.1,0-0.1,0-0.1-0.1l0,0c-0.1,0.1-0.1,0.2-0.2,0.2l0,0
			c0,0.1-0.1,0.1-0.2,0.1h-0.1c-0.1,0.1-0.3,0.1-0.5,0.2s-0.1,0.1-0.1,0.2v0.1c-0.1,0-0.2,0-0.3-0.1l0,0c-0.1,0.1-0.1,0.2-0.3,0.2
			l-0.1,0.1c0,0.1-0.1,0.1-0.2,0.1c-0.1,0-0.1,0-0.2,0.1l-0.3,0.3c-0.1,0.1-0.1,0.2-0.1,0.3c0.1,0.1,0.1,0.1,0.2,0.1l0,0
			c-0.2,0-0.2,0-0.2,0.1s-0.1,0.1-0.1,0.2s0.3,0.2,0.5,0.3s0.1,0.3,0.2,0.4s-0.1,0.1,0,0.2s0.1-0.1,0.2-0.1v-0.3
			c0.1,0.1,0.3,0.1,0.4,0.3c0.2,0,0.3,0.2,0.5,0.3l0,0c0.1-0.1,0.1-0.1,0.2,0l0.1,0.1c0.1,0,0.2-0.1,0.4-0.1
			c-0.1,0.1-0.2,0.2-0.2,0.3v0.2c0.1,0,0.1,0,0.2,0.1c0,0.1,0,0.1-0.1,0.1l0,0v0.2c0,0.1-0.2,0.1-0.2,0.3s0,0.1,0,0.2
			c-0.1,0-0.2,0.1-0.2,0.2c0,0.1-0.1,0.2-0.1,0.3v0.3l0,0v0.4h-0.1l-0.1,0.1l-0.1,0.1c-0.1,0.1-0.1,0.2-0.2,0.3s-0.2,0.2-0.2,0.3
			v0.3l-0.2,0.3c0.1,0,0.2,0,0.2-0.1l0.7,0.3c0.1,0.3-0.5,0-0.5,0.2s0.2,0.2,0.3,0.2l0.2,0.1l0.2,0.3h0.2c0.1,0,0.2-0.1,0.2-0.2h0.2
			c0-0.1,0-0.3,0.1-0.4h0.2c0-0.1,0-0.2-0.1-0.2s-0.1,0-0.1-0.1h0.1c0.1,0,0.2,0.1,0.4,0.1l0,0c0.1,0.1,0.2,0.2,0.2,0.3
			s0.1,0.1,0.1,0c0-0.1,0-0.1-0.1-0.2h0.1c0.1,0.1,0.2,0.2,0.2,0.4c0,0.1,0.1,0.1,0.1,0v-0.2c0.1-0.1,0.2-0.1,0.3-0.1
			c0.1,0,0.1,0,0.2-0.1c0.3,0.2,0.6,0.4,0.8,0.6l3.7-2c-0.1-0.2-0.1-0.3-0.2-0.5v-0.1c0-0.1,0-0.1-0.1-0.2l-0.1-0.1h-0.2l-0.3-0.3
			l0,0c-0.1-0.2-0.2-0.4-0.4-0.5c0-0.1-0.1-0.1-0.1-0.2h-0.2c-0.1-0.1-0.2-0.1-0.3-0.1l-0.1-0.1l-0.1,0.1c-0.2-0.1-0.2-0.1-0.1-0.4
			h0.3v-0.3c0-0.1,0-0.3,0.1-0.4c0.1-0.1,0-0.1,0-0.2c-0.1,0-0.1,0-0.1-0.1l0,0c0-0.1,0.1-0.4,0.2-0.4s0.1,0,0.2-0.1
			c0.1-0.1,0.2-0.1,0.3-0.1l0.1-0.1c0-0.1,0-0.1,0.1-0.1l0,0l0.2-0.2c0.2,0,0.3,0.1,0.5,0c0.1,0,0.1,0,0.1,0.1l0,0l0.2-0.2
			c0.2-0.1,0.3-0.2,0.5-0.3s0.1-0.1,0.1-0.2s-0.1-0.2,0.1-0.2h0.1c0.1-0.1,0.3-0.1,0.3-0.2s0.1-0.1,0.2-0.1c0.1,0,0.2-0.1,0.2-0.2
			c0-0.1,0-0.1,0.1-0.1l0,0c0-0.1,0.1-0.2,0.1-0.3h0.2c0.1-0.2,0.2-0.3,0.4-0.3h0.1c0.1-0.1,0.2-0.1,0.3-0.1h0.1
			c0-0.1,0.1-0.2,0-0.3c-0.1-0.2-0.1-0.5,0-0.7c0-0.1,0.1-0.3,0.1-0.4l-0.1-0.1c-0.1,0-0.2-0.2-0.1-0.3c0,0,0-0.1,0-0.1
			c0-0.2,0.1-0.3,0.2-0.5h0.1c0.1-0.1,0.2-0.1,0.2-0.2v-0.1c0.1,0,0.2,0,0.2-0.1s0.1-0.2,0.2-0.3h0.1c0.1,0,0.2-0.1,0.2-0.2
			c0-0.1,0-0.2,0.1-0.2s0.1,0.1,0.1,0c0-0.1,0-0.1,0.1-0.1l0,0l0,0v-0.1c0.1-0.1,0.2-0.1,0.3-0.1c0.1,0,0.1,0,0.1,0.1l0,0
			c0.1,0,0.1-0.1,0.2-0.1L316.3,264.1z"/>
		<path class="st2" d="M308,276.4l-0.2-0.2l-0.1,0.2c-0.2,0-0.1,0.2-0.2,0.3l0,0c0-0.1,0-0.1-0.1-0.1l0,0v0.2c0,0.1,0,0.1,0.1,0.1
			l0,0h0.1l-0.1,0.1c0.1,0.1,0.2,0,0.3,0.1V277l0.2,0.2v0.2h-0.1c0,0.1,0,0.1,0.1,0.1l0,0l0.2,0.2v0.1c0.1,0,0.1,0.1,0.2,0.2
			c0,0.1,0,0.1-0.1,0.1l0,0h-0.2c0,0.1-0.1,0.3,0,0.4s0.1-0.2,0.2-0.1s-0.1,0.2-0.1,0.3s0.2,0.3,0.3,0.4l-0.2,0.2v-0.1
			c0-0.1-0.1-0.3-0.2-0.2H308c0,0.1,0,0.1-0.1,0.1l0,0l-0.3-0.3c0,0.1-0.1,0.1,0,0.1s0,0.1,0,0.2c-0.1-0.2-0.1-0.3-0.3-0.2
			c0,0.1,0.1,0.1,0.2,0.2c-0.1,0.1-0.1,0.2-0.2,0.1V279c0,0.1-0.1,0.1-0.1,0.2l-0.1-0.1c-0.1,0.1-0.1,0.2-0.2,0.3v0.1h0.1v0.1
			c0.1,0,0.1-0.1,0.2-0.1s0.1,0.1,0.1,0.2v0.1c0.1,0.1,0.1,0.2,0.1,0.3c0,0.1,0,0.2,0.2,0.2c-0.1-0.2-0.1-0.5-0.2-0.7l0.1-0.1l0,0
			v0.2c0.1,0,0.1-0.1,0.2-0.2c0.1,0.1,0.1,0.1,0.1,0.2l0,0c-0.1,0-0.1,0.1-0.1,0.2v0.4l0,0l0.1,0.1c0,0.1-0.1,0.1,0,0.2v0.3h-0.1
			l-0.1,0.1c0.1,0,0.2,0,0.2,0.1c0.1,0.1,0.1,0.2,0.1,0.3c-0.1,0-0.1,0.1-0.2,0.1s0,0.1,0.1,0.2h0.3c-0.1,0-0.1,0-0.2,0.1
			s0.2,0.1,0.2,0.2c-0.1-0.1-0.2-0.1-0.3,0c0,0,0,0,0,0c0,0.1-0.1,0.2-0.2,0.3l-0.1,0.1l-0.1,0.1c0,0.1,0,0.1,0.1,0.1l0,0h0.1
			c-0.1,0-0.1,0-0.1,0.1l0,0c-0.1,0-0.1,0-0.2,0.1s-0.1,0.2-0.2,0.3s-0.1,0.3-0.2,0.4l0.3,0.3v0.1c-0.1-0.1-0.2-0.1-0.2-0.2h-0.2
			v0.2c-0.1-0.1-0.1-0.1-0.3-0.1l0,0c0,0.1,0,0.2-0.1,0.2s0,0.1,0.1,0.2c0.1,0,0.1,0,0.1-0.1l0,0V284c0.1,0,0.1,0,0.1-0.1l0,0
			c0.1,0,0.1,0,0.1,0.1l0,0l0.2-0.2l0.1,0.1c0,0.1-0.1,0.1-0.1,0.2s0,0.2-0.1,0.2h0.2c0,0.1-0.1,0.2-0.1,0.3s0,0.2,0,0.3h-0.1v0.1
			c-0.1,0.1-0.2,0.1-0.3,0.2l-0.1,0.1c0,0.1,0,0.2,0.1,0.2h0.1c0.1-0.1,0.2,0,0.3-0.1s0.2-0.2,0.1-0.4v-0.1c0.1,0,0.2,0.1,0.3,0.1
			c0,0.2,0.1,0.3,0,0.5c0.1,0,0.1,0.2,0.2,0.2c0-0.1,0-0.1,0.1-0.1l0,0c0-0.1,0-0.1,0.1-0.2c0.1,0.1,0.1,0.1,0.1,0.2s0.1,0.1,0.2,0
			s0.1-0.1,0.2,0h0.1l0.1-0.1v-0.1c-0.1,0-0.2,0-0.2-0.1s0.1-0.1,0.2-0.1s0.1,0,0.1-0.1s0.1-0.2,0.1-0.3s0.2-0.1,0.2-0.2h0.1
			c0.1,0,0.1,0,0.2-0.1l0.1-0.1v0.1c-0.1,0.1-0.1,0.1,0,0.2s0,0.1-0.1,0.1v-0.1c-0.2,0.1-0.2,0.3-0.2,0.5s0.1,0.1,0.2,0.1l0.1-0.1
			c0-0.1,0-0.1-0.1-0.1l0,0h-0.1c0.2-0.1,0.3-0.1,0.4,0.2c0.1-0.1,0.1-0.2,0.2-0.2l0.2,0.2h0.1v-0.1c-0.1-0.1-0.1-0.2-0.2-0.3h0.2
			c0-0.1,0-0.2-0.1-0.2s-0.1-0.1-0.2-0.1c0.1-0.2,0.1-0.2,0.2-0.2c-0.1,0-0.1,0-0.1-0.1l0,0c0.1,0,0.1-0.1,0.2-0.1s0.1,0.2,0.1,0.3
			c-0.1,0.1-0.1,0.2,0,0.3c0,0,0,0,0,0c0.1,0,0.1,0,0.1,0.1l0,0v0.2c0.1,0.1,0.2,0.1,0.3,0.2v0.2l0,0v-0.2c-0.1-0.1-0.2-0.1-0.2-0.3
			h0.2v-0.2c0-0.1-0.1-0.2,0-0.4s0-0.2-0.1-0.2s0,0.2-0.2,0.2c-0.1-0.1-0.1-0.1-0.1-0.2v-0.1c0.1,0,0.1,0,0.1,0.1l0,0
			c0.1-0.1,0.3-0.2,0.5-0.1c-0.1,0.1-0.1,0.2,0,0.4v0.1l0.1,0.1c0.1,0,0.1,0,0.1-0.1l0,0l0.1,0.1h0.2v-0.3c0.1-0.1,0.1-0.2,0-0.2
			s-0.2-0.1-0.2,0c-0.1,0.1-0.1,0.2,0,0.2c0,0,0,0,0,0c-0.1,0-0.1,0-0.1-0.1l0,0c0.1-0.1,0.1-0.1,0-0.2V284c0.1,0,0.1,0,0.1,0.1
			c0-0.1,0-0.1,0.1-0.2v0.1c0,0.1,0.2,0.3,0.3,0.2l0.1-0.1h0.1c0.1,0.1,0.2,0.1,0.3,0.2h-0.1c0.1,0.1,0.1,0.2,0.2,0.2
			c0-0.1,0-0.1,0.1-0.1l0,0v0.2h0.2l0.1,0.1l0.1-0.1l0,0c0-0.1,0-0.1,0.1-0.1l0.1-0.1c0-0.1,0-0.1,0.1-0.1l0,0
			c0-0.1-0.1-0.2-0.1-0.3s0-0.1-0.1-0.1s-0.2,0.1-0.1,0.3h-0.1l0,0c0,0.1-0.1,0.1-0.1,0v-0.1c0-0.1,0-0.1,0.1-0.1l0,0v-0.2h0.2
			c0,0,0.1,0.1,0.1,0s0-0.1-0.1-0.2h0.1c0.1,0,0.2,0.1,0.3,0.1s0,0.1,0.1,0.2c0.1-0.1,0.1-0.2,0-0.3c0,0,0,0,0,0
			c0.2,0.1,0.3,0.2,0.4,0h0.1v-0.1h0.1c0-0.1,0-0.1,0.1-0.1c0.1,0,0.1,0,0.1-0.1l0,0c0-0.1,0-0.1,0.1-0.2s0-0.1,0.1-0.2
			s0.1-0.1,0.1-0.2v-0.2c0.1,0,0.1,0,0.2-0.1V282c0-0.2,0.1-0.3,0.1-0.5s0-0.4,0.1-0.6s0-0.1-0.1-0.2c0,0.1-0.1,0.1-0.2,0.2
			s-0.1,0.1-0.1,0v-0.1c0.1,0,0-0.1,0-0.2c-0.1-0.2-0.1-0.5,0-0.7c0.1-0.1,0.1-0.3,0-0.4v-0.3c0.1-0.1,0.1-0.2,0-0.4
			c-0.1-0.2-0.1-0.4-0.1-0.6c0-0.1,0-0.1-0.1-0.2c-0.1-0.1-0.1-0.2-0.1-0.3v-0.1c-0.1-0.1-0.2-0.2-0.2-0.4c-0.1-0.1-0.2-0.2-0.2-0.4
			s-0.1-0.3-0.2-0.4c-0.1-0.1-0.2-0.3-0.3-0.4c-0.1-0.2-0.2-0.3-0.3-0.5c-0.1-0.1-0.2-0.3-0.2-0.5v-0.1c-0.1-0.2-0.1-0.3-0.1-0.5
			c0-0.1,0,0-0.1-0.2c0-0.1-0.1-0.3-0.2-0.4c0,0.1-0.2,0.1-0.2,0.2c0,0.2-0.1,0.5-0.3,0.6c-0.1,0.1-0.2,0.1-0.3,0.1
			c-0.2-0.1-0.3,0.1-0.5,0l0,0c-0.2,0-0.3,0-0.5,0.1h-0.1c-0.2-0.1-0.5,0-0.7,0c-0.2,0.1-0.3,0.2-0.4,0.3c0,0.1-0.1,0.1-0.1,0.2
			l-0.1,0.1c-0.1,0.2-0.2,0.3-0.4,0.4c0,0.2-0.1,0.1-0.1,0.2C308.2,276.3,308.1,276.4,308,276.4L308,276.4L308,276.4z M307.5,284.6
			L307.5,284.6C307.6,284.6,307.6,284.5,307.5,284.6C307.6,284.5,307.6,284.6,307.5,284.6L307.5,284.6z M308.3,285.7l-0.1-0.1l0,0
			C308.2,285.7,308.2,285.7,308.3,285.7L308.3,285.7z M308.2,285.6l0.1-0.1L308.2,285.6z"/>
		<g class="st3">
			<rect x="485.8" y="31.3" width="0.3" height="45.6"/>
		</g>
		<rect x="710.1" y="42.1" class="st4" width="29.3" height="3.5"/>
		<rect x="710.1" y="54.7" class="st5" width="29.3" height="3.5"/>
		<rect x="710.1" y="67.2" class="st6" width="29.3" height="3.5"/>
		<g>
			<line class="st7" x1="332.2" y1="290" x2="394.6" y2="290"/>
			<rect x="330.6" y="288.4" width="3.2" height="3.2"/>
		</g>
		<line class="st8" x1="309.3" y1="263.4" x2="393.8" y2="263.4"/>
		<rect x="307.8" y="261.7" width="3.3" height="3.3"/>
		<g>
			<text transform="matrix(1 0 0 1 399.8 265.04)" class="st9 st10 st11">2nd</text>
			<text transform="matrix(1 0 0 1 421 265.04)" class="st9 st10 st12"> density</text>
			<text transform="matrix(1 0 0 1 399.8 275.84)" class="st13 st14 st12">K</text>
			<text transform="matrix(1 0 0 1 404.9 275.84)" class="st13 st14 st12">orea | Incheon coast</text>
		</g>
		<rect x="395.4" y="295.3" class="st15" width="88.2" height="27"/>
		<g>
			<text transform="matrix(1 0 0 1 399.8 294.35)" class="st9 st10 st11">3rd</text>
			<text transform="matrix(1 0 0 1 418.2 294.35)" class="st9 st10 st12"> density</text>
			<text transform="matrix(1 0 0 1 399.8 305.15)" class="st13 st14 st12">K</text>
			<text transform="matrix(1 0 0 1 404.9 305.15)" class="st13 st14 st12">orea | Na</text>
			<text transform="matrix(1 0 0 1 440.49 305.15)" class="st13 st14 st12">k</text>
			<text transform="matrix(1 0 0 1 444.91 305.15)" class="st13 st14 st12">dong</text>
		</g>
		<rect x="16.3" y="139" class="st15" width="108.3" height="38"/>
		<g>
			<text transform="matrix(1 0 0 1 16.26 147.03)" class="st9 st10 st11">1st</text>
			<text transform="matrix(1 0 0 1 34.06 147.03)" class="st9 st10 st12">density</text>
			<text transform="matrix(1 0 0 1 16.26 157.83)" class="st13 st14 st12">England | Merge &amp; Irwell</text>
		</g>
		<g>
			<text transform="matrix(1 0 0 1 1.33 48.68)" class="st16 st17 st18">Microplastic Contamination Density</text>
			<text transform="matrix(1 0 0 1 1.33 60.68)" class="st16 st17 st19 st20">T</text>
			<text transform="matrix(1 0 0 1 5.74 60.68)" class="st16 st17 st19">op 15  microplastic concentrated area. </text>
		</g>
		<line class="st21" x1="515.3" y1="63.4" x2="680.6" y2="63.4"/>
		<line class="st21" x1="515.7" y1="60.7" x2="515.7" y2="66.1"/>
		<line class="st21" x1="560.3" y1="60.9" x2="560.3" y2="66.2"/>
		<line class="st21" x1="598.3" y1="60.9" x2="598.3" y2="66.2"/>
		<line class="st21" x1="631.6" y1="60.9" x2="631.6" y2="66.2"/>
		<line class="st21" x1="658.9" y1="60.9" x2="658.9" y2="66.2"/>
		<line class="st21" x1="680.9" y1="60.9" x2="680.9" y2="66.2"/>
		<circle class="st22" cx="515.7" cy="43.2" r="16"/>
		<circle class="st22" cx="560.3" cy="45.8" r="13.5"/>
		<circle class="st23" cx="598.3" cy="47.3" r="11.5"/>
		<circle class="st24" cx="631.6" cy="48.9" r="10"/>
		<circle class="st25" cx="658.9" cy="52.7" r="7"/>
		<circle class="st22" cx="680.9" cy="54.9" r="4.5"/>
		<text transform="matrix(1 0 0 1 494.92 76.56)" class="st26 st27">&gt;10</text>
		<text transform="matrix(1 0 0 1 508.12 76.56)" class="st26 st27">0,</text>
		<text transform="matrix(1 0 0 1 515.27 76.56)" class="st26 st27">000</text>
		<text transform="matrix(1 0 0 1 544.7 76.56)" class="st26 st27">&gt;1</text>
		<text transform="matrix(1 0 0 1 552.47 76.56)" class="st26 st27">0,</text>
		<text transform="matrix(1 0 0 1 559.62 76.56)" class="st26 st27">000</text>
		<text transform="matrix(1 0 0 1 586.26 76.56)" class="st26 st27">&gt;1000</text>
		<text transform="matrix(1 0 0 1 677.04 76.56)" class="st26 st27">&gt;1</text>
		<text transform="matrix(1 0 0 1 622.3 76.56)" class="st26 st27">&gt;100</text>
		<text transform="matrix(1 0 0 1 652.34 76.56)" class="st26 st27">&gt;10</text>
		<text transform="matrix(1 0 0 1 435.19 46.73)" class="st26 st28">A</text>
		<text transform="matrix(1 0 0 1 440.71 46.73)" class="st26 st28">VER</text>
		<text transform="matrix(1 0 0 1 457.86 46.73)" class="st26 st28">A</text>
		<text transform="matrix(1 0 0 1 463.83 46.73)" class="st26 st28">GE </text>
		<text transform="matrix(1 0 0 1 437.07 56.73)" class="st26 st28">DENSITY</text>
		<text transform="matrix(1 0 0 1 425.29 68.73)" class="st26 st28">  </text>
		<text transform="matrix(1 0 0 1 433.35 76.56)" class="st26 st27">P</text>
		<text transform="matrix(1 0 0 1 438.28 76.56)" class="st26 st27">articles m</text>
		<text transform="matrix(1 0 0 1 475.0898 74.0703)" class="st26 st29">-2</text>
		<text transform="matrix(1 0 0 1 743.58 46.37)" class="st26 st27">RIVER</text>
		<text transform="matrix(1 0 0 1 743.58 58.92)" class="st26 st27">OCEAN</text>
		<text transform="matrix(1 0 0 1 743.58 71.47)" class="st26 st27">LAKES</text>
		<g>
			<line class="st30" x1="36.3" y1="162.9" x2="36.3" y2="205.9"/>
			<rect x="34.6" y="204.3" width="3.3" height="3.2"/>
		</g>
	</g>
</g>
</svg>
