<svg xmlns="http://www.w3.org/2000/svg" xmlns:xlink="http://www.w3.org/1999/xlink" viewBox="0 0 1304.87 535.57"><defs><style>.cls-1,.cls-4{fill:#fff;}.cls-1{opacity:0;}.cls-2,.cls-21,.cls-5,.cls-6,.cls-8{fill:#00cee5;}.cls-3{fill:#ff5400;}.cls-4{opacity:0.13;}.cls-5{opacity:0.47;}.cls-19,.cls-23,.cls-6,.cls-8,.cls-9{isolation:isolate;}.cls-10,.cls-11,.cls-20,.cls-22,.cls-7,.cls-9{fill:none;}.cls-10,.cls-20,.cls-21,.cls-22,.cls-7,.cls-8,.cls-9{stroke:#00cee5;stroke-miterlimit:10;}.cls-7{stroke-width:2.73px;}.cls-10,.cls-8,.cls-9{stroke-width:2.35px;}.cls-12{fill:#d9d9d9;}.cls-13{fill:url(#linear-gradient);}.cls-14{fill:url(#linear-gradient-2);}.cls-15{fill:url(#linear-gradient-3);}.cls-16{fill:url(#linear-gradient-4);}.cls-17{fill:url(#linear-gradient-5);}.cls-18{fill:#00cbe2;}.cls-19{fill:#00cde4;}.cls-20{stroke-width:2.4px;}.cls-22{stroke-width:2px;}</style><linearGradient id="linear-gradient" x1="300.03" y1="225.77" x2="275.22" y2="263.88" gradientTransform="translate(22.12 -4.13) rotate(0.37)" gradientUnits="userSpaceOnUse"><stop offset="0" stop-color="#fff" stop-opacity="0"/><stop offset="1" stop-color="#ff5400"/></linearGradient><linearGradient id="linear-gradient-2" x1="304.07" y1="228.4" x2="279.26" y2="266.51" gradientTransform="translate(22.12 -4.13) rotate(0.37)" gradientUnits="userSpaceOnUse"><stop offset="0" stop-color="#fff"/><stop offset="1" stop-color="#ff5400"/></linearGradient><linearGradient id="linear-gradient-3" x1="297.39" y1="224.05" x2="272.58" y2="262.16" xlink:href="#linear-gradient-2"/><linearGradient id="linear-gradient-4" x1="294.84" y1="222.39" x2="270.04" y2="260.5" xlink:href="#linear-gradient-2"/><linearGradient id="linear-gradient-5" x1="305.05" y1="229.04" x2="280.24" y2="267.15" xlink:href="#linear-gradient-2"/></defs><title>diagram6</title><g id="Layer_2" data-name="Layer 2"><g id="Layer_1-2" data-name="Layer 1"><rect class="cls-1" width="1304.87" height="535.57"/><path id="플랑크톤1" class="cls-2" d="M532.1,261.63l-4.79-5s-2.38-.61-1.86.72,4.2,5.24,4.2,5.24l-.14.73-4.68-1.75s-3,.25-.74,1.72A30.45,30.45,0,0,0,529.3,266l-.54,1.26-4.38,2.48s-1.86,1.11.52,1a10.9,10.9,0,0,0,4.71-1.68l.39,1.12-4.26,4.34s-2,2.63,1.12.73a21.09,21.09,0,0,0,5.25-4.46l.87,7.48s-.4,1.12.73.73.87-2.84.87-2.84l0-4.36,4.4,4.85s1.84,1.86.73-1.12a33.34,33.34,0,0,0-2.47-5.37l5.6,2.15s1.72.28,0-1.65a35.22,35.22,0,0,0-5.6-2.88l-.12-1.39,6.49-2.6s.74-1.71-1.24-1.39-4.77,1.09-4.77,1.09l2.87-4.48s.28-1.71-1-.86a55.14,55.14,0,0,0-4,3.81l-1.25-.87,0-4.63s-1.44-1.26-1.71,0S532.1,261.63,532.1,261.63Z"/><path id="플랑크톤1-2" class="cls-2" d="M583.67,280l-2.56-2.66s-1.25-.34-1,.39a16.9,16.9,0,0,0,2.23,2.79l-.06.39-2.51-.94s-1.59.12-.4.92a15.29,15.29,0,0,0,2.76,1.41l-.26.66-2.33,1.31s-1,.58.27.53a5.59,5.59,0,0,0,2.51-.91l.2.59-2.26,2.3s-1.07,1.38.59.4a12,12,0,0,0,2.79-2.36l.44,4s-.21.59.39.39.47-1.51.47-1.51l0-2.32,2.36,2.6s1,1,.4-.6a22.87,22.87,0,0,0-1.3-2.85l3,1.15s.93.13,0-.86a17.82,17.82,0,0,0-3-1.54l-.06-.73,3.51-1.36s.41-.93-.65-.74-2.52.58-2.52.58l1.54-2.37s.14-.92-.53-.46c-.73.65-1.46,1.31-2.13,2l-.65-.46V277.3s-.79-.66-.92,0S583.67,280,583.67,280Z"/><path id="플랑크톤2" class="cls-2" d="M560.63,285.74s-3.56-1.81-5-1.55a3.61,3.61,0,0,0-3.12,2.16c-.67,1.45-1.23,5.74-1.7,6.66a24.75,24.75,0,0,1-1.41,3.1c-.46.59-.87,1.52-.6,1.85s1.79-1.71,1.79-1.71a18,18,0,0,0,1.21-2.5c.2-.79.61-2.18.88-3a25.71,25.71,0,0,1,1-3.3c.33-.52-.06-1.32,1.33-1.38a6.86,6.86,0,0,1,3.23.69,13.52,13.52,0,0,0,2.31.61V289a16.51,16.51,0,0,0-3.38,1.83c-.93.85-2.54,5.07-2.54,5.07a4.87,4.87,0,0,0-.41,2.11c.19.6.92,0,.92,0l1.41-3.3s1.74-2.63,1.94-2.83,1.59-1.31,1.59-1.31l.06,1.85s-1.67,2.44-2.14,3.29a15,15,0,0,0-1,3.77c.06.19.45,1.12.45,1.12a7.71,7.71,0,0,0,1.21-2.37c0-.66.28-2.25.68-2.51a5.92,5.92,0,0,1,1.12-.58l.26,2,.71,2s1.5,2.45,2.16,3.45a8.48,8.48,0,0,1,.84,3.31l0,5.68s1.2-.92,1.2-1.11.87-2.51.87-2.51l1-.06c.4.47.86.93,1.32,1.4.2.06,1.38.2,1.52-.06a15.54,15.54,0,0,0,.47-1.71,29.84,29.84,0,0,1-2-2.26c-.26-.47-.85-1.46-.85-1.46l.24-5.22-.7-5.49L568,292a16,16,0,0,1,1.18,2c.59,1.06,1.3,3.64,1.69,3.91a3.26,3.26,0,0,1,.92,1l0-2.38a6.12,6.12,0,0,1-1-2.12,7.6,7.6,0,0,0-1.7-3,5.62,5.62,0,0,0-1.78-.94l-.92-.67v-.92a6,6,0,0,1,1.85.08,14.56,14.56,0,0,0,2.63,1.86,8.53,8.53,0,0,1,2.56,2.33c.53.67.79,1.07.79,1.07v-2a8.9,8.9,0,0,0-1.18-1.86,17.07,17.07,0,0,0-2.63-2.33,19.3,19.3,0,0,0-2.17-.47,13.85,13.85,0,0,0-2.32-.08c-.59,0-.65-.87-.65-.87v-1.38a13.74,13.74,0,0,0,1.52-1.12c.87-.72,1.07-1.45,2.46-1.3a3.39,3.39,0,0,1,2.43,1.8c.33.59,2.36,2.85,2.56,3.38a10.47,10.47,0,0,0,1.83,2.33,6.09,6.09,0,0,0,1.92,1,8.27,8.27,0,0,0,1.78-.18,1.71,1.71,0,0,0-1.18-1.4,7.85,7.85,0,0,1-2.5-1.21c-.2-.2-2.43-3.05-2.69-3.32s-2.1-2.85-2.43-3.25a2.63,2.63,0,0,0-1.71-.54,6.1,6.1,0,0,0-2.79,1.37c-.6.65-1.33,1.91-2.13,2.23a11.64,11.64,0,0,1-2.64.51A5.5,5.5,0,0,1,560.63,285.74Z"/><path id="플랑크톤3" class="cls-2" d="M562.17,262s-3.31,1.76-4.11,2.75a10,10,0,0,0-1.41,3.36,20.74,20.74,0,0,0,2.22,4.18c.19.07,5,0,5,0s.19,1.13.66,1a3.74,3.74,0,0,0,1.46-1.18c.07-.2,1-.59,1-.59a3.8,3.8,0,0,1-.48,1.38,14.52,14.52,0,0,0-.94,2.31h1.39s.61-1.65.81-2a2.71,2.71,0,0,1,1.06-.72v1.19c0,.47-.93,1.65-1,1.85a4.84,4.84,0,0,0-.21,1.45c.07.2.66.27.93,0a10.34,10.34,0,0,0,1-1.85,1.07,1.07,0,0,1,1-.65c.46.07,0,1.05,0,1.45s-.81,1.45-.87,1.71-.35,2-.08,1.46a23.79,23.79,0,0,1,1.53-2.11s.87-.52.79.34a15.7,15.7,0,0,0,0,3.5,22.78,22.78,0,0,0,1.64,2.39c.2.07,1.11,1.33,1.45,1.13s.92-.19.86-.85-.32-.8-1-1.66a3.08,3.08,0,0,1-1.1-2.32c-.06-1.19,0-2.58-.11-4.16a37.94,37.94,0,0,0-.17-3.84,7,7,0,0,0-1.43-4c-.79-.8-1.31-2.26-2.49-3.06a9.88,9.88,0,0,0-3.1-1.74,14.52,14.52,0,0,0-2.51-.54A4.77,4.77,0,0,1,562.17,262Z"/><path id="플랑크톤3-2" class="cls-2" d="M596.1,248a16,16,0,0,0-3-.55,4.85,4.85,0,0,0-2.06.92,21.48,21.48,0,0,0-.81,2.83c.07.14,2.23,2.13,2.23,2.13s-.4.59-.13.73a2.4,2.4,0,0,0,1.19.07c.13-.06.72.21.72.21a1.59,1.59,0,0,1-.79.39,12.52,12.52,0,0,0-1.4.65l.6.6s1-.53,1.19-.59a3.13,3.13,0,0,1,.79.14l-.53.52a5.13,5.13,0,0,1-1.26.39,3,3,0,0,0-.73.53c-.07.13.2.39.39.39a4,4,0,0,0,1.26-.38.61.61,0,0,1,.73.13c.13.2-.47.46-.6.66s-1,.32-1.13.39-1,.72-.66.66l1.59-.32s.59.13.19.53a8.43,8.43,0,0,0-1.53,1.57c-.13.6-.2,1.19-.27,1.79.06.13,0,1,.12,1.12s.53.33.79,0,.21-.52.21-1.18a2.12,2.12,0,0,1,.47-1.52c.47-.53,1.07-1.18,1.73-1.91s1.07-1.18,1.53-1.77a4.64,4.64,0,0,0,1.08-2.37,10.08,10.08,0,0,0,.21-2.45,7.89,7.89,0,0,0-.65-2.12,10.39,10.39,0,0,0-.91-1.33A2.68,2.68,0,0,1,596.1,248Z"/><circle id="미세플라스틱" class="cls-3" cx="583.98" cy="282.72" r="0.93"/><path id="미세_플라스틱2" data-name="미세 플라스틱2" class="cls-4" d="M461.93,241.55c-.87,1.18-.34.92-1.4,2s-1.47,1.44-1.47,1.9-.07.86.72.87.93-.66,1.46,0,.12.86.92.93a2.09,2.09,0,0,0,1.39-.32,8.09,8.09,0,0,0,1.06-1c.2-.4.73-.4,0-1.52s-1.57-2.33-1.57-2.33Z"/><path id="미세_플라스틱2-2" data-name="미세 플라스틱2-2" class="cls-4" d="M407.73,207.8c-1,0-.59.19-1.58.12s-1.32-.21-1.59,0-.46.33-.14.73.73.2.59.79-.4.4-.13.86a1.52,1.52,0,0,0,.72.6,4.91,4.91,0,0,0,.92.14c.33-.07.46.2.8-.59a17.25,17.25,0,0,0,.61-1.72Z"/><path id="미세_플라스틱2-3" data-name="미세 플라스틱2-3" class="cls-5" d="M583.36,265.79a9.79,9.79,0,0,1-1.45.72c-.93.32-1.33.32-1.46.59s-.34.46.13.72.72-.06.79.47-.21.53.19.8a1.5,1.5,0,0,0,.86.27,4,4,0,0,0,.92-.26c.27-.13.53,0,.47-.86s-.12-1.78-.12-1.78Z"/><path id="미세_플라스틱3" data-name="미세 플라스틱3" class="cls-5" d="M551.71,274.45c-1,.52-2.38.44-2.85,1.43s-.54,1.85-.74,2.18-1.4,1.44-1.46,1.77-2.46,1.64-.74,1.52a22.16,22.16,0,0,0,4.63-1c.93-.2,3.11-.31,3.31-1a8,8,0,0,0,.55-3.17c-.26-.86-.52-1.72-.84-2.59Z"/><path id="미세_플라스틱3-2" data-name="미세 플라스틱3-2" class="cls-5" d="M576.29,244.79c-.72.4-1.78.32-2.12,1.05s-.4,1.38-.54,1.65-1.06,1-1.06,1.31-1.86,1.18-.54,1.12a14.8,14.8,0,0,0,3.44-.7c.67-.2,2.32-.25,2.45-.71a6.69,6.69,0,0,0,.41-2.31c-.19-.67-.38-1.26-.64-1.93Z"/><path id="미세_플라스틱_4" data-name="미세 플라스틱 4" class="cls-5" d="M546.26,249.1a37.93,37.93,0,0,0-.3-4.9l-6.55-8.57a3.82,3.82,0,0,1,2-1.7c1.26-.39,8.68-3.58,9.41-3.91s7.3-4,7.3-4a3.14,3.14,0,0,0,1.17,2.58A14.54,14.54,0,0,0,564,231.5c.79.2,3.76.61,4.69,1.15s4.28,2.47,4.6,3.07-1.93,2-1.93,2l-11,6.67-9.35,5.56Z"/><path id="플라스틱" class="cls-5" d="M600.15,235.36c-1-.33-1.65-.93-2.11,0s-.41,1.58-1.21,2.11a8.09,8.09,0,0,0-1.59,1.44,2.21,2.21,0,0,0-.54,1.91c.19.67-.55,2,1,1.47s1.66-1.25,2.72-.91,1.91,1.33,2.44,1.07,2.19-.84,2.19-.84a4.85,4.85,0,0,0,1.59-1.18c.4-.66-.52-1.26.93-1.06s2.11.55,3.24.75,1.91.74,2.11-.18a7.9,7.9,0,0,0,.55-2.64c-.13-.86-.31-3.57-.64-4s-.19-1.19-1.18-1.07a14.79,14.79,0,0,0-3.91,1.36c-.86.4-3.25,1.64-3.25,1.64Z"/><circle id="미세플라스틱-212" class="cls-3" cx="533.65" cy="267.92" r="1.39"/><circle id="미세플라스틱-213" class="cls-3" cx="563.57" cy="291.64" r="1.39"/><circle id="미세플라스틱-214" class="cls-3" cx="563.54" cy="296.33" r="1.39"/><circle id="미세플라스틱-215" class="cls-3" cx="563.72" cy="267.65" r="1.39"/><circle id="미세플라스틱-216" class="cls-3" cx="596" cy="253.25" r="1.39" transform="translate(338.93 847.61) rotate(-89.63)"/><path class="cls-6" d="M661.7,432.28l-4.2-6.85-1.17-6.07,1.38-2,5-20.5-4.14-28.6-16.54-20-11.1-6,1.91-2.41,4.78-1.33,10.22,2.19,9.8,7.33,5.09-1.93-9-13.78-11.93-7.5L631.43,332l-4.22,8.31-5.81-3.14-11.9-.69L607,332.89s-2.54-5.78-5-7.46-8.92-4.15-10.16,0,.86,8.26,1.14,11a66.46,66.46,0,0,0,1.32,7l-3.73,3.46-6,8.76-6.79-4.52L567,353.24l-11.21,10.39-1.09,16.43,5.38-.8L565,368.08l10.66-8.19,4.78-1.18,1.67.69-3.14,4.6-2,18.4,8.17,25.89,13.62,14.79,4.15,2,2,10.62-1.33,7.87-2,3.7,2.95.86,6.77-4,2.47-7.1L615,431.3s-1-.62-2.41-1.61l10,4.76,13,4.4,9.27-3.57,4.36-6.11.53.76,5,5.64,7.72,1.18,2.36-1.88Z"/><g id="미세_플라스틱_그룹-6" data-name="미세 플라스틱 그룹-6"><circle id="미세플라스틱-177" class="cls-3" cx="615.4" cy="377.74" r="2.51" transform="translate(233.71 990.7) rotate(-89.63)"/><circle id="미세플라스틱-178" class="cls-3" cx="618.41" cy="373.07" r="2.51" transform="translate(241.37 989.06) rotate(-89.63)"/><circle id="미세플라스틱-179" class="cls-3" cx="613.61" cy="368.41" r="2.51" transform="translate(241.27 979.64) rotate(-89.63)"/><circle id="미세플라스틱-180" class="cls-3" cx="616.53" cy="366.58" r="2.51" transform="translate(246 980.74) rotate(-89.63)"/><circle id="미세플라스틱-181" class="cls-3" cx="620.88" cy="379.1" r="2.51" transform="translate(237.8 997.53) rotate(-89.63)"/><circle id="미세플라스틱-182" class="cls-3" cx="611.33" cy="374.61" r="2.51" transform="translate(232.79 983.51) rotate(-89.63)"/><circle id="미세플라스틱-183" class="cls-3" cx="608.84" cy="371.09" r="2.51" transform="translate(233.84 977.53) rotate(-89.63)"/><circle id="미세플라스틱-184" class="cls-3" cx="624.22" cy="374.69" r="2.51" transform="translate(245.52 996.48) rotate(-89.63)"/><circle id="미세플라스틱-185" class="cls-3" cx="620.22" cy="368.45" r="2.51" transform="translate(247.79 986.29) rotate(-89.63)"/><circle id="미세플라스틱-186" class="cls-3" cx="623.74" cy="366.62" r="2.51" transform="translate(253.11 987.99) rotate(-89.63)"/><circle id="미세플라스틱-187" class="cls-3" cx="628.03" cy="378.09" r="2.51" transform="translate(245.91 1003.67) rotate(-89.63)"/><circle id="미세플라스틱-188" class="cls-3" cx="630.64" cy="373.15" r="2.51" transform="translate(253.44 1001.37) rotate(-89.63)"/><circle id="미세플라스틱-189" class="cls-3" cx="635.3" cy="377.87" r="2.51" transform="translate(253.35 1010.73) rotate(-89.63)"/><circle id="미세플라스틱-190" class="cls-3" cx="626.76" cy="370.21" r="2.51" transform="translate(252.52 994.58) rotate(-89.63)"/><circle id="미세플라스틱-191" class="cls-3" cx="631.4" cy="387.49" r="2.51" transform="translate(239.86 1016.39) rotate(-89.63)"/><circle id="미세플라스틱-192" class="cls-3" cx="635.26" cy="384.15" r="2.51" transform="translate(247.03 1016.92) rotate(-89.63)"/><circle id="미세플라스틱-193" class="cls-3" cx="629.71" cy="393.7" r="2.51" transform="translate(231.97 1020.86) rotate(-89.63)"/><circle id="미세플라스틱-194" class="cls-3" cx="626.59" cy="396.78" r="2.51" transform="translate(225.78 1020.8) rotate(-89.63)"/><circle id="미세플라스틱-195" class="cls-3" cx="635.21" cy="391.29" r="2.51" transform="translate(239.85 1023.97) rotate(-89.63)"/><circle id="미세플라스틱-196" class="cls-3" cx="626.67" cy="383.56" r="2.51" transform="translate(239.08 1007.75) rotate(-89.63)"/><circle id="미세플라스틱-197" class="cls-3" cx="631.44" cy="381.68" r="2.51" transform="translate(245.71 1010.65) rotate(-89.63)"/><circle id="미세플라스틱-198" class="cls-3" cx="624.71" cy="390.49" r="2.51" transform="translate(230.21 1012.68) rotate(-89.63)"/><circle id="미세플라스틱-199" class="cls-3" cx="622.03" cy="395.63" r="2.51" transform="translate(222.41 1015.1) rotate(-89.63)"/><circle id="미세플라스틱-200" class="cls-3" cx="614.7" cy="395.58" r="2.51" transform="translate(215.17 1007.72) rotate(-89.63)"/><circle id="미세플라스틱-201" class="cls-3" cx="618.71" cy="397.66" r="2.51" transform="translate(217.08 1013.8) rotate(-89.63)"/><circle id="미세플라스틱-202" class="cls-3" cx="622.29" cy="385.78" r="2.51" transform="translate(232.52 1005.58) rotate(-89.63)"/><circle id="미세플라스틱-203" class="cls-3" cx="618.29" cy="391.18" r="2.51" transform="translate(223.15 1006.94) rotate(-89.63)"/><circle id="미세플라스틱-204" class="cls-3" cx="610.96" cy="391.13" r="2.51" transform="translate(215.9 999.56) rotate(-89.63)"/><circle id="미세플라스틱-205" class="cls-3" cx="608.2" cy="388.6" r="2.51" transform="translate(215.69 994.29) rotate(-89.63)"/><circle id="미세플라스틱-206" class="cls-3" cx="617.88" cy="383.51" r="2.51" transform="translate(230.41 998.91) rotate(-89.63)"/><circle id="미세플라스틱-207" class="cls-3" cx="614.75" cy="386.66" r="2.51" transform="translate(224.15 998.91) rotate(-89.63)"/><circle id="미세플라스틱-208" class="cls-3" cx="607.63" cy="384.9" r="2.51" transform="translate(218.83 990.03) rotate(-89.63)"/><circle id="미세플라스틱-209" class="cls-3" cx="612.27" cy="381.55" r="2.51" transform="translate(226.79 991.36) rotate(-89.63)"/><circle id="미세플라스틱-210" class="cls-3" cx="607.14" cy="377.95" r="2.51" transform="translate(225.29 982.65) rotate(-89.63)"/><circle id="미세플라스틱-211" class="cls-3" cx="608.78" cy="379.75" r="2.51" transform="translate(225.13 986.08) rotate(-89.63)"/></g><rect class="cls-2" x="172.06" y="230.3" width="33.23" height="12.51" rx="1" transform="translate(375.82 474.32) rotate(-179.63)"/><path class="cls-2" d="M138.25,123.09l-11.4-.07,11.4.07,0,3.48a.39.39,0,0,1-.37.39h-.46a.62.62,0,0,0-.55.59l-1.78,42.67a1.58,1.58,0,0,1-.21.74l-3.28,5.87a1.43,1.43,0,0,1-1.27.76l-3.81,0h-.13l-3.81,0a1.45,1.45,0,0,1-1.26-.78l-3.21-5.91a1.7,1.7,0,0,1-.2-.74l-1.23-42.69a.61.61,0,0,0-.54-.59h-.46a.37.37,0,0,1-.36-.39l0-3.48Z"/><polygon class="cls-2" points="126.39 179.56 126.46 179.56 130.33 179.59 129.77 187.27 126.41 187.25 126.34 187.25 122.97 187.22 122.51 179.53 126.39 179.56"/><path class="cls-7" d="M177.71,187.6l6.84.05a15.18,15.18,0,0,1,15.09,15.28l-.18,28-22-.14.11-16.63a4.55,4.55,0,0,0-4.52-4.57L3.21,208.51l.14-22Z"/><path class="cls-8" d="M73.53,158.11,49,158c-1.3,0-2.36.68-2.37,1.54l-.16,26c0,.57.69,1,1.56,1l24.58.16c.87,0,1.57-.45,1.57-1l.18-27.06C74.31,158.35,74,158.11,73.53,158.11Z"/><path class="cls-9" d="M50.35,143.1c0-4.64,4.62-8.37,10.25-8.33s10.18,3.83,10.15,8.47M60.63,128.87l0,5.9m-9-5.58,15.48.58a1.57,1.57,0,0,0,1.63-1.56V126.1a1.56,1.56,0,0,0-1.63-1.58l-15.48.68a1.58,1.58,0,0,0-1.5,1.52l0,.85A1.56,1.56,0,0,0,51.59,129.19Z"/><path class="cls-2" d="M104.43,151.64a10.12,10.12,0,0,0-3.91-7,4.69,4.69,0,0,1-1.3-2.2c-.24-.73-.33-1.13-.17-1.39a1.27,1.27,0,0,1,.47-.29l3.85-.79a1,1,0,0,0,.82-1.23s0,0,0-.05a1,1,0,0,0-1-.77l-3.83.81-.25.05a.37.37,0,0,1-.18,0,.44.44,0,0,1-.25-.19.32.32,0,0,1-.08-.14.27.27,0,0,1,0-.09.41.41,0,0,1,0-.11.42.42,0,0,1,.32-.31l.43-.09.42-.09,3.18-.67a1,1,0,0,0,.59-.54,1,1,0,0,0,.1-.64,1,1,0,0,0-1-.82l-3.77.79-.4.09h-.18a.45.45,0,0,1-.19-.11.25.25,0,0,1-.08-.12.47.47,0,0,1-.06-.09v0a.37.37,0,0,1,0-.25.38.38,0,0,1,.09-.13.51.51,0,0,1,.2-.12h0l.55-.13,1.21-.25,2.15-.43.09,0a1,1,0,0,0,.63-.54,1,1,0,0,0,.1-.66,1,1,0,0,0-1-.82l-3.81.81h0l-.44.09h-.11a.38.38,0,0,1-.21-.07.41.41,0,0,1-.22-.4.39.39,0,0,1,.09-.23l.08-.08a.38.38,0,0,1,.17-.08l.2-.05c1.16-.26,2.33-.54,3.5-.75a1.92,1.92,0,0,0,.87-.36,1,1,0,0,0,.28-.9h0a1,1,0,0,0-1.2-.82l-4,.85h-.12a.48.48,0,0,1-.23-.07.43.43,0,0,1-.2-.36.39.39,0,0,1,.08-.22.63.63,0,0,1,.36-.22h.06l2.17-.46,2-.42a1,1,0,0,0,.53-1.11s0-.07-.05-.11a.85.85,0,0,0-.09-.22.94.94,0,0,0-.09-.12l0,0-.14-.13-.09-.07a1,1,0,0,0-.76-.14l-3.85.78a1.25,1.25,0,0,1-.67-.09.55.55,0,0,1-.19-.15h0a1.8,1.8,0,0,0-1.09-.64,1.88,1.88,0,0,0-.71,0h0a2.05,2.05,0,0,0-1.59,2.43l2.5,11.94s0,.08,0,.12h0l.44,1.83,0,.23.16.83a7.19,7.19,0,0,0,.87,1.89A5.08,5.08,0,0,0,98,147.21c2.27,1.55,2.7,4,3.22,6.39.43,2.05.88,4.1,1.33,6.15l3.45,0C105.43,157.07,104.83,154.37,104.43,151.64Z"/><path class="cls-10" d="M106,159.77l12,.08a2.22,2.22,0,0,1,1.42.49,1.35,1.35,0,0,1,.5,1.15l-2.39,23.74a1.81,1.81,0,0,1-1.94,1.39l-18-.11a1.82,1.82,0,0,1-1.92-1.42l-2.08-23.77a1.33,1.33,0,0,1,.52-1.14,2.2,2.2,0,0,1,1.42-.48l7.07.05Z"/><path class="cls-2" d="M106.18,139.55a3.07,3.07,0,0,0,2.4-3.43h0s.24,1.31,2.09.77a.55.55,0,0,1,.63.8,5.62,5.62,0,0,1-6.16,1.88A3,3,0,0,0,106.18,139.55Z"/><path class="cls-2" d="M103,138.3s0,0,0,0"/><path class="cls-2" d="M104.24,139.07a3.34,3.34,0,0,1-1.15-1c-.22-.32-.54-.87-.54-.87h0l-1.53-7.3a3.2,3.2,0,0,1,2.2-3.8,3.07,3.07,0,0,1,3.77,2.34l1.57,7.5c0,.07,0,.14,0,.21a3.07,3.07,0,0,1-2.4,3.43,3,3,0,0,1-1,0h0Z"/><path class="cls-11" d="M307.81,208.32c-.56,1-1.08,2.11-1.57,3.18C306.73,210.43,307.25,209.36,307.81,208.32Z"/><path class="cls-11" d="M322.21,225.65a12.33,12.33,0,0,0,1.52-.72c.6-.34,1.2-.66,1.81-1-.61.29-1.21.61-1.81,1A12.33,12.33,0,0,1,322.21,225.65Z"/><path class="cls-11" d="M319.15,226.44a11.5,11.5,0,0,1-1.55.08A11.5,11.5,0,0,0,319.15,226.44Z"/><path class="cls-11" d="M331.16,222.32h0c-.33,0-.65.07-1,.12C330.51,222.39,330.83,222.35,331.16,222.32Z"/><path class="cls-3" d="M303.65,279.89a2.56,2.56,0,0,0,2.75-3.34c-.18-.74-.1-1.55-.21-2.32s-.07-1.46-.45-1.82c-.55-.51-1.57-1.09-2.12-.9a13.22,13.22,0,0,0-4,2.26c-.37.31.09,1.6.17,2.44A4.29,4.29,0,0,0,303.65,279.89Z"/><path class="cls-3" d="M284.63,263c1.77-1-.82-2.63-.61-4.16,0-.21-.73-.75-1.11-.74a9.54,9.54,0,0,0-2.87.48A3.21,3.21,0,0,0,277.6,262c.28.37.78,1.64,1.31,1.65C280.84,263.73,283.11,263.92,284.63,263Z"/><path class="cls-3" d="M297.86,272.75c.19-1.72-.87-2.39-4.13-2.62a3,3,0,0,0-3.23,2.62c-.16,1.33,1.4,2.57,3.42,2.73C295.78,275.63,297.7,274.3,297.86,272.75Z"/><path class="cls-3" d="M283.42,271.9c-.33.91-1.13,2.14-.81,2.68.61,1,1.88,1.68,2.87,2.49,1.77-.5,3.08-.62,2.35-2.67-.19-.53.06-1.23-.17-1.73a8.07,8.07,0,0,0-1.7-2.61c-.17-.16-1.38.76-2.08,1.22A1.32,1.32,0,0,0,283.42,271.9Z"/><path class="cls-3" d="M259.09,252.67a4,4,0,0,0-2.29,2.18c-.42,1.35,1.5,3.08,3,3.11s3.19-1.17,3.17-2.3S260.19,252.28,259.09,252.67Z"/><path class="cls-3" d="M302.38,283.78c-1.11-.84-2.25-1.27-3.38-.33-.56.47-1.24,1.58-1,2a3.89,3.89,0,0,0,4,2.79,6.36,6.36,0,0,0,1.91-1.74C304.6,285.16,303.34,284.51,302.38,283.78Z"/><path class="cls-3" d="M319,275.62c.28-.36,1-.91,1.18-1.6.27-1.19-1.29-2.68-2.53-2.66s-1.68.54-1.63,1.7C316.07,274.63,316.82,275.48,319,275.62Z"/><path class="cls-3" d="M305.5,292.05c-.57,0-1.7,1.34-1.59,1.88.14.73,1.23,1.27,2.29,2.25.89-1.05,1.94-1.71,2-2.46C308.36,291.88,306.54,292.06,305.5,292.05Z"/><path class="cls-3" d="M375.45,332.59c-.83,1.23-1.78,2.17-1.61,2.44l3.94.59C377.43,334.68,376.56,333.94,375.45,332.59Z"/><path class="cls-3" d="M310.73,271.35c-1.21-.07-2,.56-1.77,1.69.16.72,1.06,1.27,2,2.32.88-1.12,1.76-1.74,1.87-2.47C313.07,271.4,311.78,271.41,310.73,271.35Z"/><path class="cls-3" d="M291.72,278.32c-1.12,0-2.34.17-2.26,1.53,0,.71,1,1.36,1.88,2.5,1-1.08,1.83-1.65,2-2.39C293.67,278.85,292.8,278.34,291.72,278.32Z"/><path class="cls-3" d="M314.25,279.83c.89.65,1.51,1.45,2.14,1.46s1.5-1.25,1.37-1.5a10.17,10.17,0,0,0-1.88-2.19Z"/><path class="cls-3" d="M270.17,267.86c-.41.74-1.2,1.52-1.13,2.21s1,1.35,1.7,1.6c.31.12,1.49-.93,1.42-1.28a10.08,10.08,0,0,0-1.3-2.55Z"/><path class="cls-3" d="M286.66,281.15c-.59.62-1.53,1.18-1.63,1.87-.07.46,1,1.31,1.65,1.59.38.16,1.09-.5,2-1Z"/><path class="cls-3" d="M282.85,300.42a9.64,9.64,0,0,0-1.86,1.66,8.06,8.06,0,0,0,1.86,1.58c.21.1.9-.88,1.64-1.63C283.75,301.29,283,300.33,282.85,300.42Z"/><path class="cls-3" d="M348.65,272.12a2.2,2.2,0,0,0,1.39,1.59c.45.11,1.13-.71,2.24-1.49-1.09-.85-1.69-1.68-2.3-1.68S348.64,271.56,348.65,272.12Z"/><path class="cls-3" d="M274.27,330c.49.4,1,1.1,1.48,1.12.67,0,1.35-.5,2.62-1.05-1.2-1-1.92-2-2.46-1.88S274.81,329.36,274.27,330Z"/><path class="cls-3" d="M259,301.13a6.64,6.64,0,0,0,1.8,1.55c.3.11,1-.8,1.71-1.44l-1.64-2.11Z"/><path class="cls-3" d="M360.07,311.84c0,.45,1,1.36,1.38,1.29a2.22,2.22,0,0,0,1.43-1.46c.11-.46-.59-1.11-1.27-2.24C360.81,310.61,360.09,311.21,360.07,311.84Z"/><path class="cls-3" d="M282.82,278.72c.13-.44-.49-1.09-1-2.18-.83,1-1.48,1.59-1.67,2.26-.08.28.87,1.22,1.27,1.17A2.06,2.06,0,0,0,282.82,278.72Z"/><path class="cls-3" d="M368.42,302.57c-.49,0-1.15.88-1.31,1.49-.08.3.79.85,1.55,1.61.61-.83,1.38-1.49,1.26-1.77C369.67,303.31,368.93,302.54,368.42,302.57Z"/><path class="cls-3" d="M343.17,298.81c-.65.23-1.13,1-1.67,1.49.51.37,1,1,1.53,1s1.05-.52,2-1.07C344.13,299.52,343.48,298.69,343.17,298.81Z"/><path class="cls-3" d="M246.1,283c-.06.4.7,1.25,1.18,1.31s1.22-.47,1.84-.74c0-.26,0-.51,0-.77-.58-.37-1.16-1-1.74-1A1.83,1.83,0,0,0,246.1,283Z"/><path class="cls-3" d="M326.41,286.61a5.55,5.55,0,0,0-1.76-1.07c-.44-.08-1,.47-2,1,1.14.7,1.77,1.32,2.48,1.42C325.5,288,326,287.09,326.41,286.61Z"/><path class="cls-3" d="M321.77,305.38c-.46.07-.81.86-1.21,1.33.51.43,1,1.11,1.56,1.2.41.07.94-.67,2-1.47C322.92,305.87,322.3,305.31,321.77,305.38Z"/><path class="cls-3" d="M298,290.3c-.61.2-1,.95-1.56,1.46.51.37,1,1,1.52,1s1-.56,2-1.17C299,290.93,298.38,290.19,298,290.3Z"/><path class="cls-3" d="M317.14,298.05c.49.49.91,1.16,1.51,1.39.27.11.88-.62,1.69-1.24-.82-.52-1.31-1.08-1.77-1.06S317.62,297.73,317.14,298.05Z"/><path class="cls-3" d="M312.74,300.73c-.51.12-.87.84-1.29,1.3.46.41.9,1.11,1.39,1.14s1-.62,2-1.35C313.76,301.23,313.17,300.63,312.74,300.73Z"/><path class="cls-3" d="M306.87,286.39c.46.53.84,1.28,1.42,1.5.33.13,1-.6,1.88-1.2-.82-.65-1.29-1.3-1.69-1.26C307.92,285.48,307.4,286,306.87,286.39Z"/><path class="cls-3" d="M288.26,294.51a1.88,1.88,0,0,0,1.32,1.29c.43,0,1.12-.73,1.3-1.28.1-.3-.59-.87-1.19-1.67C289,293.6,288.19,294.13,288.26,294.51Z"/><path class="cls-3" d="M277.23,281.39c-1-.75-1.48-1.49-2-1.46s-1,.76-1.56,1.18c.42.39.81,1.05,1.27,1.1S276.14,281.82,277.23,281.39Z"/><path class="cls-3" d="M318.57,288.1c0-.45-.69-.85-1.08-1.27-.41.4-1.08.76-1.15,1.21s.52.94,1.08,1.83C318,289,318.61,288.53,318.57,288.1Z"/><path class="cls-3" d="M306.07,300c-.56,0-1.05.67-1.57,1,.4.4.76,1,1.23,1.12s1-.36,1.92-.74C306.9,300.68,306.44,299.93,306.07,300Z"/><path class="cls-3" d="M229.73,246.17c-.18.43.36,1.15.58,1.74l1-.47,1.43-1.23c-.46-.37-.94-1.06-1.38-1A2.09,2.09,0,0,0,229.73,246.17Z"/><path class="cls-3" d="M328.16,319.85c.4.39.76,1,1.21,1.12s1.07-.4,2-.81c-.83-.65-1.3-1.32-1.76-1.31S328.66,319.49,328.16,319.85Z"/><path class="cls-3" d="M324.06,292.26c.08.51.6.94,1.15,1.7l1.49-1.73c-.5-.31-1-.81-1.5-.84S324,292,324.06,292.26Z"/><path class="cls-3" d="M239.46,266.15A4.62,4.62,0,0,0,241,267c.41,0,.87-.45,1.79-1-1-.48-1.58-1-2.06-.9S239.87,265.78,239.46,266.15Z"/><path class="cls-3" d="M335.85,288.93c.43.32.85.9,1.28.9s1-.5,2.07-1.08c-1-.44-1.55-.87-2-.79S336.3,288.59,335.85,288.93Z"/><path class="cls-3" d="M250.55,322.3a4.51,4.51,0,0,0-1.5.84l1.19,1.45,1.39-1.45C251.27,322.84,250.87,322.26,250.55,322.3Z"/><path class="cls-6" d="M298.48,226.21a1.54,1.54,0,0,0-.08.19h0l.09-.19Z"/><path class="cls-12" d="M325,192v0l0,0Z"/><path class="cls-12" d="M307,223.05c1.51.63,2.95,1.24,4.36,1.91h0C309.94,224.29,308.5,223.68,307,223.05Z"/><path class="cls-13" d="M335.44,222.92h0a26.44,26.44,0,0,1-1,3.45L317.92,257h0c-1.23,2.46-2.48,4.92-3.78,7.36a2.92,2.92,0,0,1-2.08,1.47c-.63,0-1.37-1-1.81-1.7a10,10,0,0,1-1.21-2.87c-.41-1.67-1.45-2.37-3-2a2.52,2.52,0,0,0-2.06,3.07c.06.38.33.79.26,1.13-.17.76-.27,1.76-.79,2.18a4.86,4.86,0,0,1-6.6-.65c-1.23-1.46-2.32-1.52-3.88-.56a4.12,4.12,0,0,1-5.53-1.46,2.56,2.56,0,0,1,.22-2.13c.42-.67,1.37-1,1.87-1.65a4.17,4.17,0,0,0,.88-2.18c0-.25-1.08-.71-1.71-.82-1.26-.23-2.33-.43-3-1.78a2.93,2.93,0,0,1,.12-3.21c2.5-4.56,4.82-9.23,7.17-13.87,1.84-3.65,3.64-7.32,5.46-11,3.4,1.43,10.12-2.78,13-1.44.53.24,1,.46,1.57.65a14.18,14.18,0,0,0,4.68.91,11.5,11.5,0,0,0,1.55-.08,11.7,11.7,0,0,0,3.06-.79,12.33,12.33,0,0,0,1.52-.72c.6-.34,1.2-.66,1.81-1a18.36,18.36,0,0,1,1.83-.79,15.33,15.33,0,0,1,1.86-.57l1-.18c.32-.05.64-.09,1-.12h.42a36.47,36.47,0,0,1,3.86.6Z"/><path class="cls-12" d="M327.37,223.19a18.36,18.36,0,0,0-1.83.79A18.36,18.36,0,0,1,327.37,223.19Z"/><path class="cls-14" d="M327.37,223.19a18.36,18.36,0,0,0-1.83.79A18.36,18.36,0,0,1,327.37,223.19Z"/><path class="cls-12" d="M317.6,226.52a14.18,14.18,0,0,1-4.68-.91A14.18,14.18,0,0,0,317.6,226.52Z"/><path class="cls-15" d="M317.6,226.52a14.18,14.18,0,0,1-4.68-.91A14.18,14.18,0,0,0,317.6,226.52Z"/><path class="cls-12" d="M311.35,225c.53.24,1,.46,1.57.65C312.4,225.42,311.88,225.2,311.35,225Z"/><path class="cls-16" d="M311.35,225c.53.24,1,.46,1.57.65C312.4,225.42,311.88,225.2,311.35,225Z"/><path class="cls-12" d="M329.23,222.62a15.33,15.33,0,0,0-1.86.57A15.33,15.33,0,0,1,329.23,222.62Z"/><path class="cls-17" d="M329.23,222.62a15.33,15.33,0,0,0-1.86.57A15.33,15.33,0,0,1,329.23,222.62Z"/><path class="cls-6" d="M335.44,222.92h0c.06,0,.06,0,0-.13l0,.13Z"/><path class="cls-12" d="M335,214.46c-.17.25-.37.56-.58.93C334.64,215,334.84,214.71,335,214.46Z"/><path class="cls-12" d="M335.44,222.92a36.47,36.47,0,0,0-3.86-.6,36.47,36.47,0,0,1,3.86.6Z"/><path class="cls-12" d="M335.44,222.92h0l0-.13h0Z"/><path class="cls-18" d="M324.94,192.05h0l0,0Z"/><path class="cls-18" d="M324.49,193.17h0a.5.5,0,0,1,0-.12Z"/><path class="cls-6" d="M311.35,225h0c.53.24,1,.46,1.57.65a14.18,14.18,0,0,0,4.68.91,11.5,11.5,0,0,0,1.55-.08,11.7,11.7,0,0,0,3.06-.79,12.33,12.33,0,0,0,1.52-.72c.6-.34,1.2-.66,1.81-1a18.36,18.36,0,0,1,1.83-.79,15.33,15.33,0,0,1,1.86-.57l1-.18c.32-.05.64-.09,1-.12h.42a36.47,36.47,0,0,1,3.86.6l0-.13a25.79,25.79,0,0,0,.53-8.42s0-.05,0-.07a32.2,32.2,0,0,0-2.43-9.14,3.93,3.93,0,0,1,3.15-5.63.44.44,0,0,0,.29-.14l.06,0,.72-1.16v0l-.17-1a.91.91,0,0,1-.41-1.22l1-1.91a.92.92,0,0,0-.41-1.22l-8.46-4.2a.91.91,0,0,0-1.22.41l-.95,1.91a.91.91,0,0,1-1.22.41L325,192l0,0,0,0-.4,1a.5.5,0,0,0,0,.12.62.62,0,0,0,0,.39c1.32,2.62.7,4.49-2,5.51-1.89.71-3.84,1.27-5.66,2.1-3.59,1.64-7.18,3.58-9.07,7.14-2.2,4.12-7.49,13.7-9.33,17.89h0l-.09.19c3.4,1.43,10.12-2.78,13-1.44"/><circle id="미세플라스틱-182-2" data-name="미세플라스틱-182" class="cls-3" cx="130.27" cy="157.85" r="1.18"/><circle id="미세플라스틱-182-3" data-name="미세플라스틱-182" class="cls-3" cx="123.7" cy="142.88" r="1.18"/><circle id="미세플라스틱-182-4" data-name="미세플라스틱-182" class="cls-3" cx="130.29" cy="134.7" r="1.18"/><circle id="미세플라스틱-182-5" data-name="미세플라스틱-182" class="cls-3" cx="104.19" cy="129.58" r="1.18"/><circle id="미세플라스틱-182-6" data-name="미세플라스틱-182" class="cls-3" cx="105.69" cy="136.17" r="1.18"/><circle id="미세플라스틱-182-7" data-name="미세플라스틱-182" class="cls-3" cx="69.23" cy="162.87" r="1.18"/><circle id="미세플라스틱-182-8" data-name="미세플라스틱-182" class="cls-3" cx="63.56" cy="169.3" r="1.18"/><circle id="미세플라스틱-182-9" data-name="미세플라스틱-182" class="cls-3" cx="55.54" cy="165.88" r="1.18"/><circle id="미세플라스틱-182-10" data-name="미세플라스틱-182" class="cls-3" cx="54.02" cy="177.64" r="1.18"/><circle id="미세플라스틱-182-11" data-name="미세플라스틱-182" class="cls-3" cx="67.57" cy="179.89" r="1.18"/><circle id="미세플라스틱-182-12" data-name="미세플라스틱-182" class="cls-3" cx="124.28" cy="163.51" r="1.18"/><circle id="미세플라스틱-182-13" data-name="미세플라스틱-182" class="cls-3" cx="123.45" cy="154.43" r="1.18"/><circle id="미세플라스틱-182-14" data-name="미세플라스틱-182" class="cls-3" cx="129.36" cy="147.54" r="1.18"/><circle id="미세플라스틱-182-15" data-name="미세플라스틱-182" class="cls-3" cx="181.69" cy="196.8" r="1.36"/><circle id="미세플라스틱-182-16" data-name="미세플라스틱-182" class="cls-3" cx="187.44" cy="207.87" r="1.36"/><circle id="미세플라스틱-182-17" data-name="미세플라스틱-182" class="cls-3" cx="184.12" cy="223.23" r="1.36"/><circle id="미세플라스틱-182-18" data-name="미세플라스틱-182" class="cls-3" cx="184.86" cy="251.55" r="1.36"/><circle id="미세플라스틱-182-19" data-name="미세플라스틱-182" class="cls-3" cx="194.23" cy="246.01" r="1.36"/><circle id="미세플라스틱-182-20" data-name="미세플라스틱-182" class="cls-3" cx="194.16" cy="257.05" r="1.36"/><circle id="미세플라스틱-182-21" data-name="미세플라스틱-182" class="cls-3" cx="187.71" cy="267.27" r="1.36"/><circle id="미세플라스틱-182-22" data-name="미세플라스틱-182" class="cls-3" cx="195.96" cy="267.33" r="1.36"/><circle id="미세플라스틱-182-23" data-name="미세플라스틱-182" class="cls-3" cx="201.12" cy="260.24" r="1.36"/><circle id="미세플라스틱-182-24" data-name="미세플라스틱-182" class="cls-3" cx="201.02" cy="274.81" r="1.36"/><circle id="미세플라스틱-182-25" data-name="미세플라스틱-182" class="cls-3" cx="199.22" cy="278.69" r="1.36"/><circle id="미세플라스틱-182-26" data-name="미세플라스틱-182" class="cls-3" cx="192.6" cy="274.76" r="1.36"/><circle id="미세플라스틱-182-27" data-name="미세플라스틱-182" class="cls-3" cx="192.54" cy="284.64" r="1.36"/><circle id="미세플라스틱-182-28" data-name="미세플라스틱-182" class="cls-3" cx="192.94" cy="217.87" r="1.36"/><circle id="미세플라스틱-182-29" data-name="미세플라스틱-182" class="cls-3" cx="153.26" cy="197.03" r="1.36"/><circle id="미세플라스틱-182-30" data-name="미세플라스틱-182" class="cls-3" cx="141.87" cy="195.34" r="1.36"/><circle id="미세플라스틱-182-31" data-name="미세플라스틱-182" class="cls-3" cx="129.36" cy="202.38" r="1.36"/><circle id="미세플라스틱-182-32" data-name="미세플라스틱-182" class="cls-3" cx="115.41" cy="195.5" r="1.36"/><circle id="미세플라스틱-182-33" data-name="미세플라스틱-182" class="cls-3" cx="99.57" cy="196.52" r="1.36"/><circle id="미세플라스틱-182-34" data-name="미세플라스틱-182" class="cls-3" cx="74.86" cy="200.97" r="1.36"/><circle id="미세플라스틱-182-35" data-name="미세플라스틱-182" class="cls-3" cx="89.56" cy="202.56" r="1.36"/><path class="cls-19" d="M1303.66,262.32c.28-3.83-5-29.18-8.35-38.66a163.55,163.55,0,0,0-8-17.89c-1.4-7.35-3.78-18.8-7.32-33-2.32-9.34-5.67-22.78-11.47-25.79a14.79,14.79,0,0,0-5.8-1.69c-6.92-3.61-17.43-4.28-23.28-8.48l-.27-.13-.18-12.76c3.13-3,5.07-7.5,6.16-12.39,1.93-1.37,3.34-5,3.22-7.44a4.55,4.55,0,0,0-2.09-3.45c-.32-11.71-7.54-19-16.53-19.08s-16.38,7.23-16.78,18.86a4.17,4.17,0,0,0-2.14,3.42c-.15,2.38,1.22,6,3.13,7.49,1,5,3,9.54,6.13,12.6l-.35,12.36-.59.39c-5.91,4.13-16.49,4.66-23.45,8.18a16.35,16.35,0,0,0-5.57,1.55c-5.83,2.94-9.35,16.33-11.79,25.64-3.73,14.18-6.25,25.6-7.75,32.93a165.72,165.72,0,0,0-8.18,17.79c-3.5,9.43-9.15,34.71-8.84,38.55-.3,5.48-1.39,21.14-.17,26,.78,3.11,5.06,4.46,6.58,4.47s.63-15.79,3.29-17.76,4,12.19,5.69,9.49c2.14-3.42-1.94-17.13-4.61-24a25.59,25.59,0,0,1,3.1-8.17c5.82-10.67,12-24.78,13.07-29,.68-2.44,1.23-5.41,1.78-8.52,4.28-8.89,8-15.35,13.22-31,1.59,9.46,3.37,19.58,4.84,28.78a75.19,75.19,0,0,1,.28,17.19,24.6,24.6,0,0,0-1.48,3.82c-5.67,19.4-6.76,33.4-5,55.82,1.47,19,3.47,36.84,5,48.48-1.35,4.09-2.84,9.7-3.77,19.87-1.34,14.47,2.78,41.66,3,56.21a5.6,5.6,0,0,0-.13,1c-.38,17-6,19.06-5.91,24,.1,4.56,6.11,5.59,10.14,6.14a8.68,8.68,0,0,0,9.29-5.16c1.41-4.22,1-9.64.25-19a41.29,41.29,0,0,0-1-5.55c.28-12.76,3.38-33.56,4.46-46.84a138.83,138.83,0,0,0-.81-28.29c1.79-11,6.25-37,7.33-50.72.5-5.95,1-11.36,1.36-16.38a35.4,35.4,0,0,0,10.58.06c.3,5.1.73,10.45,1.15,16.4,1,13.76,5,39.83,6.68,50.81a139.23,139.23,0,0,0-1.17,28.28c1,13.36,3.81,34.2,3.86,46.89a26,26,0,0,0-1,5.55c-.92,9.31-1.41,14.73,0,19a8.79,8.79,0,0,0,9.22,5.28c4-.51,10.12-1.46,10.22-6,.16-5-5.44-7.17-5.6-24.09a5,5,0,0,0-.12-1c.36-14.53,4.83-41.67,3.73-56.15a86.73,86.73,0,0,0-3.51-19.92c1.66-11.63,3.89-29.46,5.6-48.42,2-22.39,1-36.41-4.33-55.88a20.13,20.13,0,0,0-1.69-4.3,79.12,79.12,0,0,1,.5-16.72c1.58-9.38,3.57-19.61,5.28-29.19,5.18,16.17,8.78,22.67,13,31.75.5,3.11,1,6.09,1.66,8.54,1.1,4.23,7,18.42,12.7,29.16a26.67,26.67,0,0,1,3,8.22c-2.76,6.85-7,20.44-4.91,23.89,1.7,2.79,3.17-11.35,5.81-9.41s1.53,17.79,3,17.8,5.83-1.29,6.64-4.39C1304.78,283.48,1303.88,267.81,1303.66,262.32Z"/><g id="미세_플라스틱_그룹-6-2" data-name="미세 플라스틱 그룹-6"><circle id="미세플라스틱-177-2" data-name="미세플라스틱-177" class="cls-3" cx="1223.08" cy="201.19" r="2.51" transform="translate(1014.03 1422.95) rotate(-89.63)"/><circle id="미세플라스틱-178-2" data-name="미세플라스틱-178" class="cls-3" cx="1226.08" cy="196.52" r="2.51" transform="translate(1021.69 1421.31) rotate(-89.63)"/><circle id="미세플라스틱-179-2" data-name="미세플라스틱-179" class="cls-3" cx="1221.29" cy="191.86" r="2.51" transform="translate(1021.58 1411.89) rotate(-89.63)"/><circle id="미세플라스틱-180-2" data-name="미세플라스틱-180" class="cls-3" cx="1224.21" cy="190.03" r="2.51" transform="translate(1026.31 1412.99) rotate(-89.63)"/><circle id="미세플라스틱-181-2" data-name="미세플라스틱-181" class="cls-3" cx="1228.56" cy="202.55" r="2.51" transform="translate(1018.11 1429.77) rotate(-89.63)"/><circle id="미세플라스틱-182-36" data-name="미세플라스틱-182" class="cls-3" cx="1219" cy="198.06" r="2.51" transform="translate(1013.11 1415.76) rotate(-89.63)"/><circle id="미세플라스틱-183-2" data-name="미세플라스틱-183" class="cls-3" cx="1216.51" cy="194.54" r="2.51" transform="translate(1014.15 1409.77) rotate(-89.63)"/><circle id="미세플라스틱-184-2" data-name="미세플라스틱-184" class="cls-3" cx="1231.89" cy="198.14" r="2.51" transform="translate(1025.83 1428.73) rotate(-89.63)"/><circle id="미세플라스틱-185-2" data-name="미세플라스틱-185" class="cls-3" cx="1227.9" cy="191.9" r="2.51" transform="translate(1028.1 1418.54) rotate(-89.63)"/><circle id="미세플라스틱-186-2" data-name="미세플라스틱-186" class="cls-3" cx="1231.41" cy="190.07" r="2.51" transform="translate(1033.42 1420.24) rotate(-89.63)"/><circle id="미세플라스틱-187-2" data-name="미세플라스틱-187" class="cls-3" cx="1235.7" cy="201.53" r="2.51" transform="translate(1026.22 1435.91) rotate(-89.63)"/><circle id="미세플라스틱-188-2" data-name="미세플라스틱-188" class="cls-3" cx="1238.31" cy="196.59" r="2.51" transform="translate(1033.76 1433.61) rotate(-89.63)"/><circle id="미세플라스틱-189-2" data-name="미세플라스틱-189" class="cls-3" cx="1242.97" cy="201.32" r="2.51" transform="translate(1033.67 1442.97) rotate(-89.63)"/><circle id="미세플라스틱-190-2" data-name="미세플라스틱-190" class="cls-3" cx="1234.43" cy="193.66" r="2.51" transform="translate(1032.83 1426.82) rotate(-89.63)"/><circle id="미세플라스틱-191-2" data-name="미세플라스틱-191" class="cls-3" cx="1239.08" cy="210.94" r="2.51" transform="translate(1020.17 1448.64) rotate(-89.63)"/><circle id="미세플라스틱-192-2" data-name="미세플라스틱-192" class="cls-3" cx="1242.93" cy="207.6" r="2.51" transform="translate(1027.35 1449.17) rotate(-89.63)"/><circle id="미세플라스틱-193-2" data-name="미세플라스틱-193" class="cls-3" cx="1237.39" cy="217.14" r="2.51" transform="translate(1012.29 1453.11) rotate(-89.63)"/><circle id="미세플라스틱-194-2" data-name="미세플라스틱-194" class="cls-3" cx="1234.26" cy="220.23" r="2.51" transform="translate(1006.09 1453.05) rotate(-89.63)"/><circle id="미세플라스틱-195-2" data-name="미세플라스틱-195" class="cls-3" cx="1242.89" cy="214.73" r="2.51" transform="translate(1020.16 1456.21) rotate(-89.63)"/><circle id="미세플라스틱-196-2" data-name="미세플라스틱-196" class="cls-3" cx="1234.34" cy="207.01" r="2.51" transform="translate(1019.4 1440) rotate(-89.63)"/><circle id="미세플라스틱-197-2" data-name="미세플라스틱-197" class="cls-3" cx="1239.11" cy="205.13" r="2.51" transform="translate(1026.02 1442.9) rotate(-89.63)"/><circle id="미세플라스틱-198-2" data-name="미세플라스틱-198" class="cls-3" cx="1232.38" cy="213.94" r="2.51" transform="translate(1010.52 1444.92) rotate(-89.63)"/><circle id="미세플라스틱-199-2" data-name="미세플라스틱-199" class="cls-3" cx="1229.71" cy="219.08" r="2.51" transform="translate(1002.72 1447.35) rotate(-89.63)"/><circle id="미세플라스틱-200-2" data-name="미세플라스틱-200" class="cls-3" cx="1222.37" cy="219.03" r="2.51" transform="translate(995.48 1439.97) rotate(-89.63)"/><circle id="미세플라스틱-201-2" data-name="미세플라스틱-201" class="cls-3" cx="1226.39" cy="221.11" r="2.51" transform="translate(997.4 1446.05) rotate(-89.63)"/><circle id="미세플라스틱-202-2" data-name="미세플라스틱-202" class="cls-3" cx="1229.97" cy="209.23" r="2.51" transform="translate(1012.83 1437.83) rotate(-89.63)"/><circle id="미세플라스틱-203-2" data-name="미세플라스틱-203" class="cls-3" cx="1225.97" cy="214.63" r="2.51" transform="translate(1003.46 1439.19) rotate(-89.63)"/><circle id="미세플라스틱-204-2" data-name="미세플라스틱-204" class="cls-3" cx="1218.63" cy="214.58" r="2.51" transform="translate(996.22 1431.8) rotate(-89.63)"/><circle id="미세플라스틱-205-2" data-name="미세플라스틱-205" class="cls-3" cx="1215.87" cy="212.05" r="2.51" transform="translate(996.01 1426.53) rotate(-89.63)"/><circle id="미세플라스틱-206-2" data-name="미세플라스틱-206" class="cls-3" cx="1225.55" cy="206.96" r="2.51" transform="translate(1010.72 1431.15) rotate(-89.63)"/><circle id="미세플라스틱-207-2" data-name="미세플라스틱-207" class="cls-3" cx="1222.43" cy="210.11" r="2.51" transform="translate(1004.46 1431.16) rotate(-89.63)"/><circle id="미세플라스틱-208-2" data-name="미세플라스틱-208" class="cls-3" cx="1215.3" cy="208.34" r="2.51" transform="translate(999.14 1422.28) rotate(-89.63)"/><circle id="미세플라스틱-209-2" data-name="미세플라스틱-209" class="cls-3" cx="1219.95" cy="205" r="2.51" transform="translate(1007.1 1423.61) rotate(-89.63)"/><circle id="미세플라스틱-210-2" data-name="미세플라스틱-210" class="cls-3" cx="1214.81" cy="201.4" r="2.51" transform="translate(1005.61 1414.89) rotate(-89.63)"/><circle id="미세플라스틱-211-2" data-name="미세플라스틱-211" class="cls-3" cx="1216.46" cy="203.2" r="2.51" transform="translate(1005.44 1418.32) rotate(-89.63)"/></g><path class="cls-20" d="M46.64,143.33H74.36a0,0,0,0,1,0,0V156.1a2,2,0,0,1-2,2H48.64a2,2,0,0,1-2-2V143.33a0,0,0,0,1,0,0Z" transform="translate(120.03 301.82) rotate(-179.63)"/><line class="cls-21" x1="420.17" y1="258.93" x2="463" y2="259.2"/><polygon class="cls-21" points="462.05 262.5 467.76 259.23 462.09 255.89 462.05 262.5"/><path class="cls-2" d="M443.75,235l-2.19,2.24-1.35-1.43,3.86-3.85h2L446,245.34h-2.34Z"/><circle class="cls-22" cx="444.09" cy="238.63" r="10.92"/><line class="cls-21" x1="639.34" y1="260.34" x2="682.17" y2="260.61"/><polygon class="cls-21" points="681.22 263.91 686.93 260.64 681.26 257.3 681.22 263.91"/><path class="cls-2" d="M658.33,244.88c5.21-3.89,7.24-5.62,7.25-7.54,0-1.4-1.19-2-2.41-2.05a4.62,4.62,0,0,0-3.61,1.58l-1.35-1.55a6.39,6.39,0,0,1,4.94-2.11c2.58,0,4.83,1.49,4.81,4.15,0,2.46-2.29,4.65-5.89,7.32l5.92,0v2.06l-9.66-.06Z"/><circle class="cls-22" cx="663.1" cy="240.04" r="10.92"/><line class="cls-21" x1="840.51" y1="261.63" x2="883.34" y2="261.91"/><polygon class="cls-21" points="882.39 265.2 888.1 261.94 882.44 258.59 882.39 265.2"/><path class="cls-2" d="M861.09,244.44a5,5,0,0,0,3.69,1.65c1.76,0,2.79-.79,2.79-2s-1-1.88-3-1.9c-.56,0-1.34,0-1.54,0l0-2.11c.24,0,1,0,1.54,0,1.56,0,2.74-.53,2.75-1.75s-1.19-1.89-2.69-1.9a4.71,4.71,0,0,0-3.45,1.46l-1.19-1.47a6.16,6.16,0,0,1,4.87-2.06c2.89,0,4.82,1.39,4.8,3.63a3.26,3.26,0,0,1-2.92,3,3.35,3.35,0,0,1,3.08,3.26c0,2.26-2,3.87-5,3.85a6.22,6.22,0,0,1-5-2.19Z"/><circle class="cls-22" cx="864.44" cy="241.34" r="10.92"/><g class="cls-23"><line class="cls-21" x1="1077.68" y1="263.15" x2="1120.51" y2="263.43"/><polygon class="cls-21" points="1119.57 266.73 1125.27 263.46 1119.61 260.12 1119.57 266.73"/></g><path class="cls-2" d="M1102.3,246.45l-6.36,0v-1.88l5.53-8.4,3.22,0,0,8.26h1.78v2.06h-1.78l0,3-2.34,0Zm-4-2.08,4.06,0,0-6.16Z"/><circle class="cls-22" cx="1101.61" cy="242.86" r="10.92"/><g id="MHSeby.tif"><path class="cls-19" d="M493.74,205.37l.55-.13c0,.63,0,.63.85,1.66l-1.05,1,.1.14,2.45-1.28.09.12-.54,1.12,3-.62.08.16-1.85,2,.2.24a33.54,33.54,0,0,1,5.95-3.72c-1.06,1.08-2.4,1.92-2.69,3.6.15-.12.28-.24.43-.35l5.45-4.31a2.31,2.31,0,0,1,1.86-.48,10.05,10.05,0,0,0,4.26-.28c.37-.1.78-.23,1.07.23,0,.06.31,0,.47,0a5.37,5.37,0,0,1,1.68-.11,7.11,7.11,0,0,0,3.4,0,14.57,14.57,0,0,1,1.76-.18c-.32,1.37-.61,2.66-1,3.93,0,.19-.34.36-.56.46-.42.18-.88.27-1.29.47-.22.11-.51.33-.54.54-.08.6-.51.7-1,.8-.73.17-1.47.32-2.19.5-.45.12-.82.23-1,.84-.13.43-.77.76-1.23,1a5.87,5.87,0,0,0-2.22,2.12,7.27,7.27,0,0,0-.4,1.18l1.58-.46c-1,1.77-2.67,3.11-3,5.32l4-2,.14.17a5.32,5.32,0,0,0-.3,4.32c.82-.78,1.69-1.51,2.45-2.34,1.19-1.29,2.29-2.68,3.47-4a11.36,11.36,0,0,1,2-1.85,3.62,3.62,0,0,0,1.65-3,10.16,10.16,0,0,1,.18-1.84,6.65,6.65,0,0,1,.62-1.66q1.19-2.2,2.48-4.36a1.58,1.58,0,0,1,.83-.73c3.23-.82,6.45-1.66,9.71-2.32,2.53-.51,5.1-.8,7.66-1.12a44.6,44.6,0,0,0,11.9-3.25c2.38-1,4.77-2,7.15-3a31.31,31.31,0,0,0,8.5-5.66,17.78,17.78,0,0,1,4.93-3.31,19,19,0,0,1,8-1c.57,0,1.14-.07,1.71,0a12.06,12.06,0,0,1,2.33.27c1.57.43,3.1,1,4.66,1.46a3.58,3.58,0,0,0,1.18.08c1,0,1.14-.22,1.17-1.19a3.33,3.33,0,0,0-1-2.38,7.26,7.26,0,0,0-4.07-2.19c-.65-.14-1.29-.32-1.94-.44a8.53,8.53,0,0,1-4.7-2.78,1.21,1.21,0,0,1-.35-.47,4.15,4.15,0,0,0-2.49-2.51,13.44,13.44,0,0,0-4.32-1.58c-3.29-.27-6.6-1.1-9.92-.22-.87.23-1.73.54-2.61.71-1.25.24-1.76-.11-1.77-1.36A21,21,0,0,1,562,167c.65-3.22,1.38-6.43,2.28-9.58a32.8,32.8,0,0,1,2-4.47c.51-1.12,1.07-2.22,1.54-3.36a7.7,7.7,0,0,1,1.86-3,2.93,2.93,0,0,0,.78-1.78,4,4,0,0,1,.67-1.66,2.83,2.83,0,0,0,.46-2.44,3.14,3.14,0,0,0-.28-.74,2.4,2.4,0,0,1,.13-2.62,2.14,2.14,0,0,0,.22-1.33c-.19-1.57-.49-3.13-.67-4.71-.14-1.33-.09-2.69-.27-4-.28-2.09-.68-4.17-1-6.25A44.41,44.41,0,0,0,562,103.13a9.4,9.4,0,0,0-4.24-3.57,9.65,9.65,0,0,0-4.26-.44l-.07.19,1.83.82c-.43.44-1.31.1-1.19,1a8.77,8.77,0,0,0-1.48-.32,7.48,7.48,0,0,0-1.4.2c.51.48,1.46.51,1.42,1.63-1.53-.92-3-.21-4.52,0,1.17.31,1.43,1.62,2.66,2l-.94.56,1.64.94a2.44,2.44,0,0,1-2.21.41,13.1,13.1,0,0,0-2.08,0,.51.51,0,0,0-.25,0c-.39.26-.76.53-1.19.83l.73.81c-.42.47-1.3.2-1.34,1l-1.59.15,0,.22,2.09,1.61-2.3.8,0,.19,2.12,1.27c.31.18.74.21.76.75,0,.17.38.33.6.48l.56.34a3.53,3.53,0,0,1-.22.77,1.44,1.44,0,0,1-.55.57c-.47.22-.61.5-.29.92a5.61,5.61,0,0,0,.75.79c.2.17.48.25.67.42a.67.67,0,0,1,.25.49c0,.11-.28.23-.45.27-.43.08-.86.13-1.18.17l-.52,1.25.52.63-1.9.57.2.67-1.69.33,0,.23,1.34,1.24-.06.16c-1.33-.27-2.81-1.37-3.67.62.33.23.67.44,1,.68s.41.48-.11.69l-1.8.75,0,.19H542l.06.21a13,13,0,0,0-4.29,1.91c.8.68,1.84.17,2.78.66l-2.11.58.35.76-1.91.52.37,1.51c-1.34.41-1.34.41-1.35,1.56l-.85,0,1.34,2.59L535,138.9c-.42.33-.48.62,0,1a2.84,2.84,0,0,1,.91,1.15,1.58,1.58,0,0,1-.26,1.33,1.72,1.72,0,0,0-.37,2.18,2.56,2.56,0,0,1,.09,1.32c-.11.73,0,.9.7.88.32,0,.64-.05,1-.08l-1.61,2,.16.25,1.2-.25-1.89,2.44.67.11-.67.61a12.09,12.09,0,0,1-.92-1.36,45.62,45.62,0,0,0-13.61-15.91c-3.29-2.45-6.74-4.69-10.17-6.94-6.76-4.45-13.16-9.36-19.58-14.27-6-4.65-11.86-9.63-18.29-13.78-1.1-.72-2-1.71-3.11-2.47-.89-.62-1.9-1.09-2.86-1.63-.07,0-.21-.1-.24-.07-.56.59-1.23.14-1.84.21-.06,0-.12,0-.24.1l.72.9c-.45.55-1.41-.34-1.65.67-.24,0-.48-.09-.71-.16a.86.86,0,0,0-1,.24A4.07,4.07,0,0,1,460,98l-.25.29c.28.16.58.31.86.48s.48.34.84.59l-1.05.34,0,.17,1.49.78-.62,0c-1.42.14-2.85.26-4.27.43-.21,0-.64-.08-.61.46,0,.1-.59.24-1.12.45l2.9,1.5-.06.22-.84.43,1.49,1.06c0,.07,0,.12-.06.14-.64.58-.6,1,.31,1.22,1.24.31,2.52.44,3.78.64l.63.07-1,.56c.89,1,2.16,1,3,1.39a3.82,3.82,0,0,0,.34,1.18c.69.92,1.44,1.79,2.23,2.74-.27.35.12.59.52.74a14.28,14.28,0,0,0,1.57.41,1.12,1.12,0,0,0-.07,1.62,8.4,8.4,0,0,0,1.38,1l-.73.51a10.37,10.37,0,0,0,1.26.78c.41.17.8.5,1.14.62,1.35.47,1.26,1.7,1.66,2.67l.11.24a1,1,0,0,0,.13.11l.18-.36c.86-.06.87.78,1.29,1.2s.7.84,1.07,1.3c.58-.21.83.3,1,.71.66,1.27,1.23,2.59,1.92,3.85.18.32.29,1,1,.68,0,1.77,1,3,2,4.27a19.64,19.64,0,0,0,1.84,1.53,3.41,3.41,0,0,1,.65,1.13c.1.26.07.57.15.84s.18.47.3.48c1.06.07,1.42,1.24,2.26,1.49a1.4,1.4,0,0,1,1.05.86,2.88,2.88,0,0,0,.32-.1l.14.9.7-.37-.33,1.09a3.69,3.69,0,0,0,.91.25c.69,0,1,.33.81,1,0,.18-.08.37-.14.6l.63.1.1.55.91-.41-.29,2.06,1.19-.39c-.2,1.33-1,2.56-.52,3.94a2.25,2.25,0,0,0,2-1.14c.12-.25.61-.33,1-.54.18,1.47.44,2.85-.25,4.23.82.2.8-.56,1.24-.78a3.14,3.14,0,0,1,.29.58c.12.4.26.63.78.56s.63.2.45.74a18.52,18.52,0,0,0-.46,1.85l.27.11.68-.84c.55.34.1,1.51,1.22,1.27-.09.38-.17.67-.24,1a1,1,0,0,0,.44,1.22,1.92,1.92,0,0,1,.84,1.38c.08.54.6,1,.92,1.53.17.26.36.5.51.77a6.63,6.63,0,0,0,.57,1.2,1.94,1.94,0,0,1,.6,1.34c0,.55.32.72.83.51.23.41,0,1.09.71,1.2.06,0,.08.26.13.4.23.62.42,1.26.7,1.85.08.18.43.23.78.39,0,.12.05.4.1.67a1.47,1.47,0,0,0,1.18,1.35c.4.08.48.3.47.66,0,.56,0,1.13,0,1.79h2c0,.34.08.79.15,1.23s.06.92.71,1c.21,0,.35.46.53.72,1,0,1,0,1.19,1a3.09,3.09,0,0,1,.12.59.83.83,0,0,0,.76.89c.92.21,1,.51.6,1.34a3,3,0,0,0-.24,1c.86-.4,1.13-1.24,1.62-2.09l.4,1.21.66-.86v2l.18,0,.28-.65c.88.93.54,2.06.52,3.18l.79-.06-.63,1.82.84-.45c-1.07,1.37-.7,2.66-.35,4a15.6,15.6,0,0,1,.43,1.73.9.9,0,0,1-.32.74c-1.39,1-2.84,1.87-4.22,2.85a24.27,24.27,0,0,1-7.87,3.65c-3.62,1-7.18,2.18-10.76,3.27a17.37,17.37,0,0,1-2.49.68,2.09,2.09,0,0,0-1.9,1.71c.39,0,.8-.15,1,.45s.76,1.32-.4,1.83Z"/></g><g id="미세_플라스틱_그룹-5" data-name="미세 플라스틱 그룹-5"><circle id="미세플라스틱-142" class="cls-3" cx="536.43" cy="181.95" r="1.39" transform="translate(351.03 717.2) rotate(-89.63)"/><circle id="미세플라스틱-143" class="cls-3" cx="538.03" cy="179.39" r="1.39" transform="translate(355.19 716.25) rotate(-89.63)"/><circle id="미세플라스틱-144" class="cls-3" cx="535.4" cy="176.79" r="1.39" transform="translate(355.17 711.05) rotate(-89.63)"/><circle id="미세플라스틱-145" class="cls-3" cx="537" cy="175.81" r="1.39" transform="translate(357.74 711.66) rotate(-89.63)"/><circle id="미세플라스틱-146" class="cls-3" cx="539.4" cy="182.7" r="1.39" transform="translate(353.23 720.91) rotate(-89.63)"/><circle id="미세플라스틱-147" class="cls-3" cx="534.13" cy="180.22" r="1.39" transform="translate(350.47 713.18) rotate(-89.63)"/><circle id="미세플라스틱-148" class="cls-3" cx="532.82" cy="178.3" r="1.39" transform="translate(351.1 709.95) rotate(-89.63)"/><circle id="미세플라스틱-149" class="cls-3" cx="541.26" cy="180.27" r="1.39" transform="translate(357.52 720.36) rotate(-89.63)"/><circle id="미세플라스틱-150" class="cls-3" cx="539.04" cy="176.81" r="1.39" transform="translate(358.76 714.71) rotate(-89.63)"/><circle id="미세플라스틱-151" class="cls-3" cx="540.96" cy="175.84" r="1.39" transform="translate(361.65 715.66) rotate(-89.63)"/><circle id="미세플라스틱-152" class="cls-3" cx="543.3" cy="182.13" r="1.39" transform="matrix(0.01, -1, 1, 0.01, 357.68, 724.25)"/><circle id="미세플라스틱-153" class="cls-3" cx="544.71" cy="179.43" r="1.39" transform="translate(361.78 722.97) rotate(-89.63)"/><circle id="미세플라스틱-154" class="cls-3" cx="547.33" cy="182.02" r="1.39" transform="translate(361.79 728.18) rotate(-89.63)"/><circle id="미세플라스틱-155" class="cls-3" cx="542.6" cy="177.83" r="1.39" transform="translate(361.29 719.28) rotate(-89.63)"/><circle id="미세플라스틱-156" class="cls-3" cx="545.18" cy="187.3" r="1.39" transform="translate(354.38 731.27) rotate(-89.63)"/><circle id="미세플라스틱-157" class="cls-3" cx="547.31" cy="185.46" r="1.39" transform="translate(358.33 731.57) rotate(-89.63)"/><circle id="미세플라스틱-158" class="cls-3" cx="544.24" cy="190.73" r="1.39"/><circle id="미세플라스틱-159" class="cls-3" cx="542.51" cy="192.37" r="1.39"/><circle id="미세플라스틱-160" class="cls-3" cx="547.29" cy="189.36" r="1.39"/><circle id="미세플라스틱-161" class="cls-3" cx="542.55" cy="185.17" r="1.39" transform="translate(353.9 726.52) rotate(-89.63)"/><circle id="미세플라스틱-162" class="cls-3" cx="545.21" cy="184.06" r="1.39" transform="translate(357.64 728.07) rotate(-89.63)"/><circle id="미세플라스틱-163" class="cls-3" cx="541.54" cy="188.93" r="1.39" transform="translate(349.13 729.24) rotate(-89.63)"/><circle id="미세플라스틱-164" class="cls-3" cx="540.07" cy="191.76" r="1.39"/><circle id="미세플라스틱-165" class="cls-3" cx="536.03" cy="191.73" r="1.39"/><circle id="미세플라스틱-166" class="cls-3" cx="538.21" cy="192.87" r="1.39"/><circle id="미세플라스틱-167" class="cls-3" cx="540.17" cy="186.34" r="1.39" transform="translate(350.36 725.3) rotate(-89.63)"/><circle id="미세플라스틱-168" class="cls-3" cx="537.97" cy="189.3" r="1.39"/><circle id="미세플라스틱-169" class="cls-3" cx="533.94" cy="189.27" r="1.39"/><circle id="미세플라스틱-170" class="cls-3" cx="532.42" cy="187.88" r="1.39" transform="translate(341.13 719.08) rotate(-89.63)"/><circle id="미세플라스틱-171" class="cls-3" cx="537.73" cy="185.13" r="1.39" transform="translate(349.14 721.66) rotate(-89.63)"/><circle id="미세플라스틱-172" class="cls-3" cx="536.07" cy="186.84" r="1.39" transform="matrix(0.01, -1, 1, 0.01, 345.78, 721.7)"/><circle id="미세플라스틱-173" class="cls-3" cx="532.11" cy="185.83" r="1.39" transform="translate(342.86 716.73) rotate(-89.63)"/><circle id="미세플라스틱-174" class="cls-3" cx="534.7" cy="183.99" r="1.39" transform="translate(347.27 717.49) rotate(-89.63)"/><circle id="미세플라스틱-175" class="cls-3" cx="531.87" cy="182.06" r="1.39" transform="translate(346.39 712.74) rotate(-89.63)"/><circle id="미세플라스틱-176" class="cls-3" cx="532.79" cy="183.05" r="1.39" transform="translate(346.31 714.65) rotate(-89.63)"/></g><path class="cls-6" d="M1050.79,274.93s-1.6-6-6.31-9.64a25.76,25.76,0,0,0-9.51-4.73,58.13,58.13,0,0,0,9.64-6.38,17.75,17.75,0,0,0,6.13-10,29.36,29.36,0,0,0-13.42,3.95c-3.93,2.31-6.46,4.07-9.19,5.06a16.63,16.63,0,0,1-6.57.84,20.44,20.44,0,0,1-7.63-2.13,27,27,0,0,0,12.75-9s-4.64-3.82-18.35-4a70.53,70.53,0,0,0-15.48,1.47,47.62,47.62,0,0,0-18.42-3.65c-1.89,0-3.85.1-5.75.28a64.68,64.68,0,0,0-17.14,4.37c-10.64,4.35-18.82,10.87-21.76,15.59-.7,1.19.56,2.15.55,3s-1.4,1.95-.78,2.84c2.19,3.3,8.3,6.75,17.12,9.52,2.33.71,4.92,1.42,7.63,2a61,61,0,0,0,10.55,9.41c6.6,4.34,16.39,4.59,16.39,4.59a73.43,73.43,0,0,0-7.82-11.23l3.66.21a63.68,63.68,0,0,0,17.69-1.21,32.51,32.51,0,0,0,13.88,2.36c10.29-.69,15.56-3.94,15.56-3.94s-2.51-2.79-11.52-5.88c2.72-1.56,5-2.62,7.28-2.61a20.65,20.65,0,0,1,8.64,2.08c2.83,1.28,5.53,3.07,9.5,4.67C1045.48,275.91,1050.79,274.93,1050.79,274.93ZM943.21,260.54a3.48,3.48,0,1,1,3.49-3.45h0A3.46,3.46,0,0,1,943.21,260.54Z"/><g id="미세_플라스틱_그룹-2" data-name="미세 플라스틱 그룹-2"><circle id="미세플라스틱-37" class="cls-3" cx="983.79" cy="249.86" r="1.39" transform="translate(727.61 1232.02) rotate(-89.63)"/><circle id="미세플라스틱-38" class="cls-3" cx="985.46" cy="247.29" r="1.39" transform="translate(731.83 1231.14) rotate(-89.63)"/><circle id="미세플라스틱-39" class="cls-3" cx="982.83" cy="244.7" r="1.39" transform="translate(731.82 1225.93) rotate(-89.63)"/><circle id="미세플라스틱-40" class="cls-3" cx="984.42" cy="243.72" r="1.39" transform="translate(734.38 1226.55) rotate(-89.63)"/><circle id="미세플라스틱-41" class="cls-3" cx="986.82" cy="250.61" r="1.39" transform="translate(729.88 1235.8) rotate(-89.63)"/><circle id="미세플라스틱-42" class="cls-3" cx="981.55" cy="248.13" r="1.39" transform="translate(727.12 1228.06) rotate(-89.63)"/><circle id="미세플라스틱-43" class="cls-3" cx="980.24" cy="246.2" r="1.39" transform="translate(727.74 1224.84) rotate(-89.63)"/><circle id="미세플라스틱-44" class="cls-3" cx="988.62" cy="248.17" r="1.39" transform="translate(734.1 1235.18) rotate(-89.63)"/><circle id="미세플라스틱-45" class="cls-3" cx="986.47" cy="244.72" r="1.39" transform="translate(735.4 1229.59) rotate(-89.63)"/><circle id="미세플라스틱-46" class="cls-3" cx="988.39" cy="243.74" r="1.39" transform="translate(738.29 1230.54) rotate(-89.63)"/><circle id="미세플라스틱-47" class="cls-3" cx="990.73" cy="250.04" r="1.39" transform="translate(734.32 1239.14) rotate(-89.63)"/><circle id="미세플라스틱-48" class="cls-3" cx="992.13" cy="247.34" r="1.39" transform="translate(738.42 1237.86) rotate(-89.63)"/><circle id="미세플라스틱-49" class="cls-3" cx="994.69" cy="249.93" r="1.39" transform="translate(738.37 1243) rotate(-89.63)"/><circle id="미세플라스틱-50" class="cls-3" cx="990.03" cy="245.74" r="1.39" transform="translate(737.93 1234.16) rotate(-89.63)"/><circle id="미세플라스틱-51" class="cls-3" cx="992.61" cy="255.2" r="1.39" transform="translate(731.03 1246.15) rotate(-89.63)"/><circle id="미세플라스틱-52" class="cls-3" cx="994.67" cy="253.37" r="1.39" transform="translate(734.91 1246.39) rotate(-89.63)"/><circle id="미세플라스틱-53" class="cls-3" cx="991.66" cy="258.64" r="1.39" transform="translate(726.66 1248.62) rotate(-89.63)"/><circle id="미세플라스틱-54" class="cls-3" cx="989.93" cy="260.28" r="1.39" transform="translate(723.3 1248.52) rotate(-89.63)"/><circle id="미세플라스틱-55" class="cls-3" cx="994.65" cy="257.27" r="1.39" transform="translate(730.99 1250.24) rotate(-89.63)"/><circle id="미세플라스틱-56" class="cls-3" cx="989.98" cy="253.01" r="1.39" transform="translate(730.61 1241.34) rotate(-89.63)"/><circle id="미세플라스틱-57" class="cls-3" cx="992.63" cy="251.97" r="1.39" transform="translate(734.29 1242.96) rotate(-89.63)"/><circle id="미세플라스틱-58" class="cls-3" cx="988.9" cy="256.83" r="1.39" transform="translate(725.71 1244.06) rotate(-89.63)"/><circle id="미세플라스틱-59" class="cls-3" cx="987.43" cy="259.67" r="1.39" transform="translate(721.42 1245.4) rotate(-89.63)"/><circle id="미세플라스틱-60" class="cls-3" cx="983.39" cy="259.64" r="1.39" transform="translate(717.44 1241.34) rotate(-89.63)"/><circle id="미세플라스틱-61" class="cls-3" cx="985.63" cy="260.78" r="1.39" transform="translate(718.52 1244.72) rotate(-89.63)"/><circle id="미세플라스틱-62" class="cls-3" cx="987.59" cy="254.25" r="1.39" transform="translate(727 1240.19) rotate(-89.63)"/><circle id="미세플라스틱-63" class="cls-3" cx="985.39" cy="257.21" r="1.39" transform="translate(721.85 1240.93) rotate(-89.63)"/><circle id="미세플라스틱-64" class="cls-3" cx="981.36" cy="257.18" r="1.39" transform="translate(717.87 1236.87) rotate(-89.63)"/><circle id="미세플라스틱-65" class="cls-3" cx="979.85" cy="255.78" r="1.39" transform="translate(717.77 1233.97) rotate(-89.63)"/><circle id="미세플라스틱-66" class="cls-3" cx="985.16" cy="252.98" r="1.39" transform="translate(725.85 1236.48) rotate(-89.63)"/><circle id="미세플라스틱-67" class="cls-3" cx="983.43" cy="254.75" r="1.39" transform="translate(722.36 1236.52) rotate(-89.63)"/><circle id="미세플라스틱-68" class="cls-3" cx="979.53" cy="253.73" r="1.39" transform="translate(719.51 1231.61) rotate(-89.63)"/><circle id="미세플라스틱-69" class="cls-3" cx="982.12" cy="251.9" r="1.39" transform="translate(723.91 1232.38) rotate(-89.63)"/><circle id="미세플라스틱-70" class="cls-3" cx="979.29" cy="249.96" r="1.39" transform="translate(723.04 1227.63) rotate(-89.63)"/><circle id="미세플라스틱-71" class="cls-3" cx="980.21" cy="250.96" r="1.39" transform="translate(722.95 1229.54) rotate(-89.63)"/></g><g id="미세_플라스틱_그룹-3" data-name="미세 플라스틱 그룹-3"><circle id="미세플라스틱-72" class="cls-3" cx="974.14" cy="259.98" r="1.39" transform="translate(707.9 1232.42) rotate(-89.63)"/><circle id="미세플라스틱-73" class="cls-3" cx="975.74" cy="257.41" r="1.39" transform="translate(712.06 1231.48) rotate(-89.63)"/><circle id="미세플라스틱-74" class="cls-3" cx="973.11" cy="254.82" r="1.39" transform="translate(712.05 1226.27) rotate(-89.63)"/><circle id="미세플라스틱-75" class="cls-3" cx="974.77" cy="253.83" r="1.39" transform="translate(714.68 1226.96) rotate(-89.63)"/><circle id="미세플라스틱-76" class="cls-3" cx="977.11" cy="260.72" r="1.39" transform="translate(710.11 1236.14) rotate(-89.63)"/><circle id="미세플라스틱-77" class="cls-3" cx="971.84" cy="258.24" r="1.39" transform="translate(707.35 1228.4) rotate(-89.63)"/><circle id="미세플라스틱-78" class="cls-3" cx="970.53" cy="256.32" r="1.39" transform="translate(707.97 1225.18) rotate(-89.63)"/><circle id="미세플라스틱-79" class="cls-3" cx="978.97" cy="258.29" r="1.39" transform="translate(714.39 1235.58) rotate(-89.63)"/><circle id="미세플라스틱-80" class="cls-3" cx="976.75" cy="254.84" r="1.39" transform="translate(715.63 1229.93) rotate(-89.63)"/><circle id="미세플라스틱-81" class="cls-3" cx="978.67" cy="253.86" r="1.39" transform="translate(718.52 1230.88) rotate(-89.63)"/><circle id="미세플라스틱-82" class="cls-3" cx="981.01" cy="260.15" r="1.39" transform="translate(714.55 1239.47) rotate(-89.63)"/><circle id="미세플라스틱-83" class="cls-3" cx="982.42" cy="257.45" r="1.39" transform="translate(718.65 1238.19) rotate(-89.63)"/><circle id="미세플라스틱-84" class="cls-3" cx="985.04" cy="260.05" r="1.39" transform="translate(718.67 1243.4) rotate(-89.63)"/><circle id="미세플라스틱-85" class="cls-3" cx="980.31" cy="255.85" r="1.39" transform="translate(718.16 1234.5) rotate(-89.63)"/><circle id="미세플라스틱-86" class="cls-3" cx="982.9" cy="265.32" r="1.39" transform="translate(711.26 1246.49) rotate(-89.63)"/><circle id="미세플라스틱-87" class="cls-3" cx="985.02" cy="263.48" r="1.39" transform="translate(715.21 1246.79) rotate(-89.63)"/><circle id="미세플라스틱-88" class="cls-3" cx="981.95" cy="268.75" r="1.39" transform="translate(706.89 1248.95) rotate(-89.63)"/><circle id="미세플라스틱-89" class="cls-3" cx="980.22" cy="270.39" r="1.39"/><circle id="미세플라스틱-90" class="cls-3" cx="985" cy="267.38" r="1.39" transform="translate(711.28 1250.64) rotate(-89.63)"/><circle id="미세플라스틱-91" class="cls-3" cx="980.27" cy="263.19" r="1.39" transform="matrix(0.01, -1, 1, 0.01, 710.78, 1241.74)"/><circle id="미세플라스틱-92" class="cls-3" cx="982.92" cy="262.08" r="1.39" transform="translate(714.52 1243.29) rotate(-89.63)"/><circle id="미세플라스틱-93" class="cls-3" cx="979.25" cy="266.95" r="1.39" transform="translate(706.01 1244.46) rotate(-89.63)"/><circle id="미세플라스틱-94" class="cls-3" cx="977.78" cy="269.78" r="1.39"/><circle id="미세플라스틱-95" class="cls-3" cx="973.75" cy="269.76" r="1.39"/><circle id="미세플라스틱-96" class="cls-3" cx="975.92" cy="270.89" r="1.39"/><circle id="미세플라스틱-97" class="cls-3" cx="977.88" cy="264.36" r="1.39" transform="translate(707.23 1240.52) rotate(-89.63)"/><circle id="미세플라스틱-98" class="cls-3" cx="975.68" cy="267.32" r="1.39" transform="translate(702.08 1241.26) rotate(-89.63)"/><circle id="미세플라스틱-99" class="cls-3" cx="971.65" cy="267.3" r="1.39" transform="translate(698.1 1237.21) rotate(-89.63)"/><circle id="미세플라스틱-100" class="cls-3" cx="970.13" cy="265.9" r="1.39" transform="translate(698 1234.31) rotate(-89.63)"/><circle id="미세플라스틱-101" class="cls-3" cx="975.44" cy="263.16" r="1.39" transform="translate(706.01 1236.89) rotate(-89.63)"/><circle id="미세플라스틱-102" class="cls-3" cx="973.78" cy="264.87" r="1.39" transform="translate(702.65 1236.92) rotate(-89.63)"/><circle id="미세플라스틱-103" class="cls-3" cx="969.82" cy="263.85" r="1.39" transform="translate(699.74 1231.95) rotate(-89.63)"/><circle id="미세플라스틱-104" class="cls-3" cx="972.41" cy="262.02" r="1.39" transform="translate(704.14 1232.72) rotate(-89.63)"/><circle id="미세플라스틱-105" class="cls-3" cx="969.58" cy="260.08" r="1.39" transform="translate(703.27 1227.97) rotate(-89.63)"/><circle id="미세플라스틱-106" class="cls-3" cx="970.5" cy="261.08" r="1.39" transform="translate(703.18 1229.87) rotate(-89.63)"/></g><g id="미세_플라스틱_그룹-4" data-name="미세 플라스틱 그룹-4"><circle id="미세플라스틱-107" class="cls-3" cx="970.78" cy="247.26" r="1.39" transform="translate(717.28 1216.44) rotate(-89.63)"/><circle id="미세플라스틱-108" class="cls-3" cx="972.45" cy="244.7" r="1.39" transform="translate(721.51 1215.56) rotate(-89.63)"/><circle id="미세플라스틱-109" class="cls-3" cx="969.82" cy="242.17" r="1.39" transform="translate(721.42 1210.42) rotate(-89.63)"/><circle id="미세플라스틱-110" class="cls-3" cx="971.42" cy="241.12" r="1.39" transform="translate(724.05 1210.97) rotate(-89.63)"/><circle id="미세플라스틱-111" class="cls-3" cx="973.82" cy="248.01" r="1.39" transform="translate(719.55 1220.22) rotate(-89.63)"/><circle id="미세플라스틱-112" class="cls-3" cx="968.55" cy="245.53" r="1.39" transform="translate(716.79 1212.48) rotate(-89.63)"/><circle id="미세플라스틱-113" class="cls-3" cx="967.24" cy="243.61" r="1.39" transform="matrix(0.01, -1, 1, 0.01, 717.42, 1209.26)"/><circle id="미세플라스틱-114" class="cls-3" cx="975.62" cy="245.58" r="1.39" transform="translate(723.77 1219.6) rotate(-89.63)"/><circle id="미세플라스틱-115" class="cls-3" cx="973.46" cy="242.19" r="1.39" transform="translate(725.01 1214.08) rotate(-89.63)"/><circle id="미세플라스틱-116" class="cls-3" cx="975.32" cy="241.15" r="1.39" transform="translate(727.9 1214.89) rotate(-89.63)"/><circle id="미세플라스틱-117" class="cls-3" cx="977.72" cy="247.44" r="1.39" transform="translate(724 1223.55) rotate(-89.63)"/><circle id="미세플라스틱-118" class="cls-3" cx="979.13" cy="244.74" r="1.39" transform="translate(728.1 1222.27) rotate(-89.63)"/><circle id="미세플라스틱-119" class="cls-3" cx="981.69" cy="247.34" r="1.39" transform="translate(728.05 1227.41) rotate(-89.63)"/><circle id="미세플라스틱-120" class="cls-3" cx="977.02" cy="243.14" r="1.39" transform="translate(727.6 1218.58) rotate(-89.63)"/><circle id="미세플라스틱-121" class="cls-3" cx="979.54" cy="252.61" r="1.39" transform="translate(720.64 1230.5) rotate(-89.63)"/><circle id="미세플라스틱-122" class="cls-3" cx="981.67" cy="250.77" r="1.39" transform="translate(724.59 1230.81) rotate(-89.63)"/><circle id="미세플라스틱-123" class="cls-3" cx="978.66" cy="256.04" r="1.39" transform="translate(716.33 1233.03) rotate(-89.63)"/><circle id="미세플라스틱-124" class="cls-3" cx="976.93" cy="257.68" r="1.39" transform="translate(712.97 1232.93) rotate(-89.63)"/><circle id="미세플라스틱-125" class="cls-3" cx="981.64" cy="254.67" r="1.39" transform="translate(720.66 1234.66) rotate(-89.63)"/><circle id="미세플라스틱-126" class="cls-3" cx="976.98" cy="250.48" r="1.39" transform="translate(720.22 1225.82) rotate(-89.63)"/><circle id="미세플라스틱-127" class="cls-3" cx="979.56" cy="249.44" r="1.39" transform="translate(723.83 1227.37) rotate(-89.63)"/><circle id="미세플라스틱-128" class="cls-3" cx="975.89" cy="254.24" r="1.39" transform="translate(715.39 1228.48) rotate(-89.63)"/><circle id="미세플라스틱-129" class="cls-3" cx="974.42" cy="257.07" r="1.39" transform="translate(711.09 1229.82) rotate(-89.63)"/><circle id="미세플라스틱-130" class="cls-3" cx="970.39" cy="257.04" r="1.39" transform="translate(707.11 1225.76) rotate(-89.63)"/><circle id="미세플라스틱-131" class="cls-3" cx="972.63" cy="258.18" r="1.39" transform="translate(708.2 1229.13) rotate(-89.63)"/><circle id="미세플라스틱-132" class="cls-3" cx="974.59" cy="251.65" r="1.39" transform="matrix(0.01, -1, 1, 0.01, 716.67, 1224.6)"/><circle id="미세플라스틱-133" class="cls-3" cx="972.39" cy="254.61" r="1.39" transform="translate(711.53 1225.34) rotate(-89.63)"/><circle id="미세플라스틱-134" class="cls-3" cx="968.36" cy="254.59" r="1.39" transform="translate(707.55 1221.29) rotate(-89.63)"/><circle id="미세플라스틱-135" class="cls-3" cx="966.85" cy="253.19" r="1.39" transform="translate(707.44 1218.39) rotate(-89.63)"/><circle id="미세플라스틱-136" class="cls-3" cx="972.15" cy="250.45" r="1.39" transform="translate(715.46 1220.97) rotate(-89.63)"/><circle id="미세플라스틱-137" class="cls-3" cx="970.42" cy="252.15" r="1.39" transform="translate(712.03 1220.93) rotate(-89.63)"/><circle id="미세플라스틱-138" class="cls-3" cx="966.53" cy="251.14" r="1.39" transform="translate(709.18 1216.03) rotate(-89.63)"/><circle id="미세플라스틱-139" class="cls-3" cx="969.12" cy="249.37" r="1.39" transform="translate(713.52 1216.86) rotate(-89.63)"/><circle id="미세플라스틱-140" class="cls-3" cx="966.29" cy="247.37" r="1.39" transform="translate(712.71 1212.05) rotate(-89.63)"/><circle id="미세플라스틱-141" class="cls-3" cx="967.21" cy="248.37" r="1.39" transform="translate(712.63 1213.96) rotate(-89.63)"/></g><g class="cls-23"><path class="cls-2" d="M749.72,266.14a10.75,10.75,0,0,1,7.72,5.14,18.67,18.67,0,0,0,1,1.64,19.68,19.68,0,0,0,4.45,5.41,6.43,6.43,0,0,0,3.26,1.29,15.7,15.7,0,0,1,1.63.25,29.33,29.33,0,0,1,5.07,1.61,20.32,20.32,0,0,1,4.52,2.57A8,8,0,0,0,779,285a34.31,34.31,0,0,0,5.55,2.15c1.51.49,2.66.74,2.84.81-2.11-.74-3.7-7.35-1.32-11.93a19.2,19.2,0,0,0,1.81-7.55,6.89,6.89,0,0,1,3.49,2.5,4.78,4.78,0,0,0,4.95,2.27,8.85,8.85,0,0,1-2.87-6.43c-.27-4.48,6.89-7.34,6.89-7.34s-6-.52-10.36,1.63a5.68,5.68,0,0,1-2.79.71,10.46,10.46,0,0,0-1-2.43c-.48-.79-1.08-1.58-1.68-2.49-2.27-3.47-4.54-7.84-1.55-12.36.06-.06.06-.12.12-.18,3.3-4.69,27.21-6.36,27.21-6.36,3.15-1.43-4.84-.93-4.84-.93a138.32,138.32,0,0,0-23.8,4.44c-2.12.65-4.06,1.31-5.82,2-1.16.48-2.19.89-3.22,1.37-1.4.66-2.79,1.37-4.19,2.15a35,35,0,0,0-3.89,2.64,23.93,23.93,0,0,0-4.26,4.33,15.56,15.56,0,0,0-2,3.49c-2.76,6.16-7,5.1-8.45,6S749.72,266.14,749.72,266.14Z"/><path class="cls-2" d="M758.45,272.92a19.68,19.68,0,0,0,4.45,5.41,39.18,39.18,0,0,1,.42-9.92c.7-4.23,1.93-8.4,2-12.69a22.84,22.84,0,0,0-.75-6,23.93,23.93,0,0,0-4.26,4.33,30.35,30.35,0,0,1-.42,9.31C759.4,266.57,758.72,269.71,758.45,272.92Z"/><path class="cls-2" d="M767.79,279.93a29.33,29.33,0,0,1,5.07,1.61,44.63,44.63,0,0,1-.15-4.9,75.09,75.09,0,0,1,.72-8.17,77.29,77.29,0,0,0,1-9.07,51.27,51.27,0,0,0-1.78-14.53c-1.4.66-2.79,1.38-4.19,2.15a29.9,29.9,0,0,1,.76,4.12A70.35,70.35,0,0,1,768.8,264C768.28,269.35,767.58,274.67,767.79,279.93Z"/><path class="cls-2" d="M778.06,263.48c-.35,7.26-1.49,14.76.89,21.61a34.31,34.31,0,0,0,5.55,2.15l-.18-.91a62.7,62.7,0,0,1-1.06-13.8c.22-5.2,1-10.34,1.19-15.54-2.27-3.47-4.55-7.84-1.55-12.35a27.11,27.11,0,0,0-1.25-3c-2.13.65-4.07,1.31-5.82,2A57.3,57.3,0,0,1,778.06,263.48Z"/><path class="cls-2" d="M757.73,272.18a19.75,19.75,0,0,0,4.44,5.42,39.18,39.18,0,0,1,.43-9.92c.69-4.23,1.93-8.4,2-12.7a22.82,22.82,0,0,0-.75-6,23.93,23.93,0,0,0-4.26,4.33,30,30,0,0,1-.43,9.31C758.62,265.84,758,269,757.73,272.18Z"/><path class="cls-2" d="M767.07,279.14a29.33,29.33,0,0,1,5.07,1.61,44.63,44.63,0,0,1-.15-4.9,74.87,74.87,0,0,1,.72-8.17,77.29,77.29,0,0,0,1-9.07,51.27,51.27,0,0,0-1.78-14.53c-1.4.66-2.79,1.37-4.19,2.15a29.63,29.63,0,0,1,.76,4.12,70.35,70.35,0,0,1-.38,12.89C767.56,268.62,766.86,273.94,767.07,279.14Z"/><path class="cls-2" d="M777.34,262.75c-.35,7.26-1.49,14.75.89,21.61a34,34,0,0,0,5.55,2.15l-.18-.91a62.09,62.09,0,0,1-1.06-13.8c.22-5.2,1-10.34,1.19-15.54-2.28-3.47-4.55-7.84-1.55-12.36a27.79,27.79,0,0,0-1.25-3c-2.13.65-4.07,1.31-5.83,2A57.07,57.07,0,0,1,777.34,262.75Z"/><circle class="cls-2" cx="761.69" cy="258.72" r="1.57" transform="translate(498.08 1018.73) rotate(-89.63)"/><path class="cls-2" d="M772.48,255.1c.55-.3,1.4-.48,1.64.13a.71.71,0,0,1-.07.6,9.64,9.64,0,0,1-2.13,3.07,3.62,3.62,0,0,0-.93,3.51,9.22,9.22,0,0,0,.89,1.46,1.61,1.61,0,0,1,.11,1.57c-.24.42-.79.54-1.15.84a2.83,2.83,0,0,0-1,2.29c0,.85.17,1.76.22,2.61,0,.54-.19,1.2-.73,1.14a.85.85,0,0,1-.54-.37,12.35,12.35,0,0,1-2.91-9.76C766.53,259.23,769.93,256.47,772.48,255.1Z"/><path class="cls-2" d="M773.63,255.1c.55-.3,1.4-.47,1.64.13a.73.73,0,0,1-.07.61,9.51,9.51,0,0,1-2.14,3.07,3.66,3.66,0,0,0-.93,3.51,9.53,9.53,0,0,0,.9,1.45,1.49,1.49,0,0,1,.11,1.58c-.24.42-.79.54-1.15.84a2.76,2.76,0,0,0-1,2.29c0,.85.23,1.76.28,2.6,0,.55-.19,1.21-.73,1.15A.89.89,0,0,1,770,272a12.35,12.35,0,0,1-2.91-9.76C767.68,259.24,771.08,256.48,773.63,255.1Z"/><ellipse class="cls-2" cx="761.09" cy="258.59" rx="1.69" ry="1.21" transform="translate(497.6 1018) rotate(-89.63)"/><g id="미세_플라스틱_그룹" data-name="미세 플라스틱 그룹"><circle id="미세플라스틱-2" class="cls-2" cx="771.05" cy="261.62" r="1.09"/><circle id="미세플라스틱-3" class="cls-2" cx="772.4" cy="259.57" r="1.09"/><circle id="미세플라스틱-4" class="cls-2" cx="770.29" cy="257.56" r="1.09"/><circle id="미세플라스틱-5" class="cls-2" cx="771.57" cy="256.72" r="1.09"/><circle id="미세플라스틱-6" class="cls-2" cx="773.47" cy="262.24" r="1.09"/><circle id="미세플라스틱-7" class="cls-2" cx="769.24" cy="260.28" r="1.09"/><circle id="미세플라스틱-8" class="cls-2" cx="768.17" cy="258.7" r="1.09"/><circle id="미세플라스틱-9" class="cls-2" cx="774.93" cy="260.32" r="1.09"/><circle id="미세플라스틱-10" class="cls-2" cx="773.19" cy="257.58" r="1.09"/><circle id="미세플라스틱-11" class="cls-2" cx="774.71" cy="256.74" r="1.09"/><circle id="미세플라스틱-12" class="cls-2" cx="776.62" cy="261.78" r="1.09"/><circle id="미세플라스틱-13" class="cls-2" cx="777.72" cy="259.61" r="1.09"/><circle id="미세플라스틱-14" class="cls-2" cx="779.82" cy="261.68" r="1.09"/><circle id="미세플라스틱-15" class="cls-2" cx="776.03" cy="258.33" r="1.09"/><circle id="미세플라스틱-16" class="cls-2" cx="778.1" cy="265.9" r="1.09"/><circle id="미세플라스틱-17" class="cls-2" cx="779.81" cy="264.46" r="1.09"/><path id="미세플라스틱-18" class="cls-2" d="M777.37,267.59a1.09,1.09,0,1,1-1.1,1.08A1.09,1.09,0,0,1,777.37,267.59Z"/><circle id="미세플라스틱-19" class="cls-2" cx="775.96" cy="270" r="1.09"/><circle id="미세플라스틱-20" class="cls-2" cx="779.79" cy="267.61" r="1.09"/><circle id="미세플라스틱-21" class="cls-2" cx="776" cy="264.19" r="1.09"/><circle id="미세플라스틱-22" class="cls-2" cx="778.12" cy="263.36" r="1.09"/><circle id="미세플라스틱-23" class="cls-2" cx="775.19" cy="267.21" r="1.09"/><circle id="미세플라스틱-24" class="cls-2" cx="773.96" cy="269.51" r="1.09"/><circle id="미세플라스틱-25" class="cls-2" cx="770.76" cy="269.49" r="1.09"/><circle id="미세플라스틱-26" class="cls-2" cx="772.51" cy="270.4" r="1.09"/><circle id="미세플라스틱-27" class="cls-2" cx="774.05" cy="265.21" r="1.09"/><circle id="미세플라스틱-28" class="cls-2" cx="772.34" cy="267.56" r="1.09"/><circle id="미세플라스틱-29" class="cls-2" cx="769.14" cy="267.54" r="1.09"/><circle id="미세플라스틱-30" class="cls-2" cx="767.87" cy="266.38" r="1.09"/><circle id="미세플라스틱-31" class="cls-2" cx="772.12" cy="264.17" r="1.09"/><circle id="미세플라스틱-32" class="cls-2" cx="770.78" cy="265.55" r="1.09"/><circle id="미세플라스틱-33" class="cls-2" cx="767.64" cy="264.75" r="1.09"/><circle id="미세플라스틱-34" class="cls-2" cx="769.71" cy="263.31" r="1.09"/><circle id="미세플라스틱-35" class="cls-2" cx="767.42" cy="261.72" r="1.09"/><circle id="미세플라스틱-36" class="cls-2" cx="768.14" cy="262.51" r="1.09"/></g></g><g id="미세_플라스틱_그룹-5-2" data-name="미세 플라스틱 그룹-5"><circle id="미세플라스틱-142-2" data-name="미세플라스틱-142" class="cls-3" cx="770.31" cy="259.33" r="1.39" transform="translate(506.03 1027.95) rotate(-89.63)"/><circle id="미세플라스틱-143-2" data-name="미세플라스틱-143" class="cls-3" cx="771.91" cy="256.76" r="1.39" transform="translate(510.19 1027) rotate(-89.63)"/><circle id="미세플라스틱-144-2" data-name="미세플라스틱-144" class="cls-3" cx="769.28" cy="254.17" r="1.39" transform="translate(510.18 1021.8) rotate(-89.63)"/><circle id="미세플라스틱-145-2" data-name="미세플라스틱-145" class="cls-3" cx="770.88" cy="253.18" r="1.39" transform="translate(512.74 1022.42) rotate(-89.63)"/><circle id="미세플라스틱-146-2" data-name="미세플라스틱-146" class="cls-3" cx="773.28" cy="260.07" r="1.39" transform="matrix(0.01, -1, 1, 0.01, 508.24, 1031.66)"/><circle id="미세플라스틱-147-2" data-name="미세플라스틱-147" class="cls-3" cx="768.01" cy="257.59" r="1.39" transform="translate(505.48 1023.93) rotate(-89.63)"/><circle id="미세플라스틱-148-2" data-name="미세플라스틱-148" class="cls-3" cx="766.7" cy="255.67" r="1.39" transform="translate(506.1 1020.71) rotate(-89.63)"/><circle id="미세플라스틱-149-2" data-name="미세플라스틱-149" class="cls-3" cx="775.14" cy="257.64" r="1.39" transform="translate(512.52 1031.11) rotate(-89.63)"/><circle id="미세플라스틱-150-2" data-name="미세플라스틱-150" class="cls-3" cx="772.92" cy="254.19" r="1.39" transform="translate(513.76 1025.46) rotate(-89.63)"/><circle id="미세플라스틱-151-2" data-name="미세플라스틱-151" class="cls-3" cx="774.84" cy="253.21" r="1.39" transform="translate(516.65 1026.41) rotate(-89.63)"/><circle id="미세플라스틱-152-2" data-name="미세플라스틱-152" class="cls-3" cx="777.18" cy="259.5" r="1.39" transform="translate(512.68 1035) rotate(-89.63)"/><circle id="미세플라스틱-153-2" data-name="미세플라스틱-153" class="cls-3" cx="778.59" cy="256.8" r="1.39" transform="translate(516.78 1033.72) rotate(-89.63)"/><circle id="미세플라스틱-154-2" data-name="미세플라스틱-154" class="cls-3" cx="781.21" cy="259.4" r="1.39" transform="translate(516.8 1038.93) rotate(-89.63)"/><circle id="미세플라스틱-155-2" data-name="미세플라스틱-155" class="cls-3" cx="776.48" cy="255.2" r="1.39" transform="translate(516.29 1030.03) rotate(-89.63)"/><circle id="미세플라스틱-156-2" data-name="미세플라스틱-156" class="cls-3" cx="779.06" cy="264.67" r="1.39" transform="translate(509.39 1042.02) rotate(-89.63)"/><circle id="미세플라스틱-157-2" data-name="미세플라스틱-157" class="cls-3" cx="781.19" cy="262.83" r="1.39" transform="translate(513.34 1042.32) rotate(-89.63)"/><circle id="미세플라스틱-158-2" data-name="미세플라스틱-158" class="cls-3" cx="778.12" cy="268.1" r="1.39"/><circle id="미세플라스틱-159-2" data-name="미세플라스틱-159" class="cls-3" cx="776.39" cy="269.74" r="1.39"/><circle id="미세플라스틱-160-2" data-name="미세플라스틱-160" class="cls-3" cx="781.17" cy="266.73" r="1.39"/><circle id="미세플라스틱-161-2" data-name="미세플라스틱-161" class="cls-3" cx="776.43" cy="262.54" r="1.39" transform="translate(508.91 1037.27) rotate(-89.63)"/><circle id="미세플라스틱-162-2" data-name="미세플라스틱-162" class="cls-3" cx="779.09" cy="261.43" r="1.39" transform="translate(512.65 1038.82) rotate(-89.63)"/><circle id="미세플라스틱-163-2" data-name="미세플라스틱-163" class="cls-3" cx="775.42" cy="266.3" r="1.39" transform="translate(504.14 1039.99) rotate(-89.63)"/><circle id="미세플라스틱-164-2" data-name="미세플라스틱-164" class="cls-3" cx="773.95" cy="269.13" r="1.39"/><circle id="미세플라스틱-165-2" data-name="미세플라스틱-165" class="cls-3" cx="769.91" cy="269.11" r="1.39"/><circle id="미세플라스틱-166-2" data-name="미세플라스틱-166" class="cls-3" cx="772.09" cy="270.24" r="1.39"/><circle id="미세플라스틱-167-2" data-name="미세플라스틱-167" class="cls-3" cx="774.05" cy="263.71" r="1.39" transform="translate(505.36 1036.05) rotate(-89.63)"/><circle id="미세플라스틱-168-2" data-name="미세플라스틱-168" class="cls-3" cx="771.85" cy="266.67" r="1.39"/><circle id="미세플라스틱-169-2" data-name="미세플라스틱-169" class="cls-3" cx="767.82" cy="266.65" r="1.39"/><circle id="미세플라스틱-170-2" data-name="미세플라스틱-170" class="cls-3" cx="766.3" cy="265.25" r="1.39" transform="translate(496.13 1029.83) rotate(-89.63)"/><circle id="미세플라스틱-171-2" data-name="미세플라스틱-171" class="cls-3" cx="771.61" cy="262.51" r="1.39" transform="translate(504.14 1032.41) rotate(-89.63)"/><circle id="미세플라스틱-172-2" data-name="미세플라스틱-172" class="cls-3" cx="769.95" cy="264.22" r="1.39" transform="translate(500.78 1032.45) rotate(-89.63)"/><circle id="미세플라스틱-173-2" data-name="미세플라스틱-173" class="cls-3" cx="765.99" cy="263.2" r="1.39" transform="translate(497.87 1027.48) rotate(-89.63)"/><circle id="미세플라스틱-174-2" data-name="미세플라스틱-174" class="cls-3" cx="768.58" cy="261.37" r="1.39" transform="translate(502.27 1028.25) rotate(-89.63)"/><circle id="미세플라스틱-175-2" data-name="미세플라스틱-175" class="cls-3" cx="765.75" cy="259.43" r="1.39" transform="translate(501.4 1023.49) rotate(-89.63)"/><circle id="미세플라스틱-176-2" data-name="미세플라스틱-176" class="cls-3" cx="766.67" cy="260.43" r="1.39" transform="translate(501.31 1025.4) rotate(-89.63)"/></g></g></g></svg>