<?xml version="1.0" encoding="utf-8"?>
<!-- Generator: Adobe Illustrator 24.0.1, SVG Export Plug-In . SVG Version: 6.00 Build 0)  -->
<svg version="1.1" id="Layer_1" xmlns="http://www.w3.org/2000/svg" xmlns:xlink="http://www.w3.org/1999/xlink" x="0px" y="0px"
	 viewBox="0 0 1306.1 581.5" style="enable-background:new 0 0 1306.1 581.5;" xml:space="preserve">
<style type="text/css">
	.st0{fill:#051027;}
	.st1{font-family:'ProximaNova-Light';}
	.st2{font-size:23px;}
	.st3{clip-path:url(#SVGID_2_);fill:#FF5400;}
	.st4{clip-path:url(#SVGID_4_);fill:#FF5400;}
	.st5{clip-path:url(#SVGID_6_);fill:#FF5400;}
	.st6{clip-path:url(#SVGID_8_);fill:#FF5400;}
	.st7{clip-path:url(#SVGID_10_);fill:#FF5400;}
	.st8{clip-path:url(#SVGID_12_);fill:#FF5400;}
	.st9{clip-path:url(#SVGID_14_);fill:#FF5400;}
	.st10{clip-path:url(#SVGID_16_);fill:#FF5400;}
	.st11{clip-path:url(#SVGID_18_);fill:#FF5400;}
	.st12{clip-path:url(#SVGID_20_);fill:#FF5400;}
	.st13{clip-path:url(#SVGID_22_);fill:#FF5400;}
	.st14{clip-path:url(#SVGID_24_);fill:#FF5400;}
	.st15{clip-path:url(#SVGID_26_);fill:#FF5400;}
	.st16{clip-path:url(#SVGID_28_);fill:#FF5400;}
	.st17{clip-path:url(#SVGID_30_);fill:#FF5400;}
	.st18{clip-path:url(#SVGID_32_);fill:#FF5400;}
	.st19{clip-path:url(#SVGID_34_);fill:#FF5400;}
	.st20{clip-path:url(#SVGID_36_);fill:#FF5400;}
	.st21{clip-path:url(#SVGID_38_);fill:#FF5400;}
	.st22{clip-path:url(#SVGID_40_);fill:#FF5400;}
	.st23{clip-path:url(#SVGID_42_);fill:#FF5400;}
	.st24{clip-path:url(#SVGID_44_);fill:#FF5400;}
	.st25{clip-path:url(#SVGID_46_);fill:#FF5400;}
	.st26{clip-path:url(#SVGID_48_);fill:#FF5400;}
	.st27{clip-path:url(#SVGID_50_);fill:#FF5400;}
	.st28{clip-path:url(#SVGID_52_);fill:#FF5400;}
	.st29{clip-path:url(#SVGID_54_);fill:#FF5400;}
	.st30{clip-path:url(#SVGID_56_);fill:#FF5400;}
	.st31{clip-path:url(#SVGID_58_);fill:#FF5400;}
	.st32{clip-path:url(#SVGID_60_);fill:#FF5400;}
	.st33{clip-path:url(#SVGID_62_);fill:#FF5400;}
	.st34{clip-path:url(#SVGID_64_);fill:#FF5400;}
	.st35{clip-path:url(#SVGID_66_);fill:#FF5400;}
	.st36{clip-path:url(#SVGID_68_);fill:#FF5400;}
	.st37{clip-path:url(#SVGID_70_);fill:#FF5400;}
	.st38{clip-path:url(#SVGID_72_);fill:#FF5400;}
	.st39{clip-path:url(#SVGID_74_);fill:#FF5400;}
	.st40{clip-path:url(#SVGID_76_);fill:none;}
	.st41{fill:none;stroke:#000000;stroke-width:0.2659;stroke-miterlimit:10;}
	.st42{fill:none;stroke:#000000;stroke-width:0.2659;stroke-miterlimit:10;stroke-dasharray:1.9933,1.9933;}
	.st43{opacity:0.35;fill:#FF5400;enable-background:new    ;}
	.st44{opacity:0.5;fill:#FF5400;enable-background:new    ;}
	.st45{font-family:'ProximaNova-Regular';}
	.st46{font-size:12px;}
	.st47{fill:#FFBC6D;fill-opacity:0;}
	.st48{fill:#00CEE5;}
	.st49{fill:#FF5400;}
	.st50{opacity:0.13;fill:#FFFFFF;enable-background:new    ;}
	.st51{opacity:0.47;fill:#00CEE5;enable-background:new    ;}
	.st52{fill:none;stroke:#00CEE5;stroke-width:2.73;stroke-miterlimit:10;}
	.st53{fill:#00CEE5;stroke:#00CEE5;stroke-width:2.73;stroke-miterlimit:10;}
	.st54{fill:none;}
	.st55{fill:#D9D9D9;}
	.st56{fill:url(#SVGID_77_);}
	.st57{fill:url(#SVGID_78_);}
	.st58{fill:url(#SVGID_79_);}
	.st59{fill:url(#SVGID_80_);}
	.st60{fill:url(#SVGID_81_);}
	.st61{fill:#00CBE2;}
	.st62{fill:#00CDE4;}
	.st63{fill:none;stroke:#00CEE5;stroke-width:2.78;stroke-miterlimit:10;}
	.st64{fill:none;stroke:#FF5400;stroke-miterlimit:10;}
	.st65{font-family:'ProximaNova-Semibold';}
	.st66{font-size:11px;}
	.st67{fill:none;stroke:#FF5400;stroke-width:1.07;stroke-miterlimit:10;}
	.st68{fill:none;stroke:#00CEE5;stroke-miterlimit:10;}
	.st69{fill:#00CEE5;stroke:#00CEE5;stroke-miterlimit:10;}
	.st70{fill:none;stroke:#00CEE5;stroke-width:2;stroke-miterlimit:10;}
	.st71{fill:none;stroke:#FF5400;stroke-width:1.07;stroke-miterlimit:10;stroke-opacity:0;}
</style>
<title>diagram7</title>
<text transform="matrix(1 0 0 1 309.6024 19.9294)" class="st0 st1 st2">Bioaccumulation Process</text>
<g>
	<g>
		<g>
			<g>
				<defs>
					<circle id="SVGID_1_" cx="224.7" cy="86.1" r="17.5"/>
				</defs>
				<clipPath id="SVGID_2_">
					<use xlink:href="#SVGID_1_"  style="overflow:visible;"/>
				</clipPath>
				<circle id="미세플라스틱-177_1_" class="st3" cx="219.3" cy="82.6" r="2.7"/>
			</g>
		</g>
		<g>
			<g>
				<defs>
					<circle id="SVGID_3_" cx="224.7" cy="86.1" r="17.5"/>
				</defs>
				<clipPath id="SVGID_4_">
					<use xlink:href="#SVGID_3_"  style="overflow:visible;"/>
				</clipPath>
				<circle id="미세플라스틱-178_1_" class="st4" cx="222.4" cy="77.6" r="2.7"/>
			</g>
		</g>
		<g>
			<g>
				<defs>
					<circle id="SVGID_5_" cx="224.7" cy="86.1" r="17.5"/>
				</defs>
				<clipPath id="SVGID_6_">
					<use xlink:href="#SVGID_5_"  style="overflow:visible;"/>
				</clipPath>
				<circle id="미세플라스틱-179_1_" class="st5" cx="217.3" cy="72.7" r="2.7"/>
			</g>
		</g>
		<g>
			<g>
				<defs>
					<circle id="SVGID_7_" cx="224.7" cy="86.1" r="17.5"/>
				</defs>
				<clipPath id="SVGID_8_">
					<use xlink:href="#SVGID_7_"  style="overflow:visible;"/>
				</clipPath>
				<circle id="미세플라스틱-180_1_" class="st6" cx="220.4" cy="70.8" r="2.7"/>
			</g>
		</g>
		<g>
			<g>
				<defs>
					<circle id="SVGID_9_" cx="224.7" cy="86.1" r="17.5"/>
				</defs>
				<clipPath id="SVGID_10_">
					<use xlink:href="#SVGID_9_"  style="overflow:visible;"/>
				</clipPath>
				<circle id="미세플라스틱-181_1_" class="st7" cx="225.1" cy="84" r="2.7"/>
			</g>
		</g>
		<g>
			<g>
				<defs>
					<circle id="SVGID_11_" cx="224.7" cy="86.1" r="17.5"/>
				</defs>
				<clipPath id="SVGID_12_">
					<use xlink:href="#SVGID_11_"  style="overflow:visible;"/>
				</clipPath>
				<circle id="미세플라스틱-182_1_" class="st8" cx="215" cy="79.3" r="2.7"/>
			</g>
		</g>
		<g>
			<g>
				<defs>
					<circle id="SVGID_13_" cx="224.7" cy="86.1" r="17.5"/>
				</defs>
				<clipPath id="SVGID_14_">
					<use xlink:href="#SVGID_13_"  style="overflow:visible;"/>
				</clipPath>
				<circle id="미세플라스틱-183_1_" class="st9" cx="212.3" cy="75.6" r="2.7"/>
			</g>
		</g>
		<g>
			<g>
				<defs>
					<circle id="SVGID_15_" cx="224.7" cy="86.1" r="17.5"/>
				</defs>
				<clipPath id="SVGID_16_">
					<use xlink:href="#SVGID_15_"  style="overflow:visible;"/>
				</clipPath>
				<circle id="미세플라스틱-184_1_" class="st10" cx="228.6" cy="79.3" r="2.7"/>
			</g>
		</g>
		<g>
			<g>
				<defs>
					<circle id="SVGID_17_" cx="224.7" cy="86.1" r="17.5"/>
				</defs>
				<clipPath id="SVGID_18_">
					<use xlink:href="#SVGID_17_"  style="overflow:visible;"/>
				</clipPath>
				<circle id="미세플라스틱-185_1_" class="st11" cx="224.3" cy="72.7" r="2.7"/>
			</g>
		</g>
		<g>
			<g>
				<defs>
					<circle id="SVGID_19_" cx="224.7" cy="86.1" r="17.5"/>
				</defs>
				<clipPath id="SVGID_20_">
					<use xlink:href="#SVGID_19_"  style="overflow:visible;"/>
				</clipPath>
				<circle id="미세플라스틱-186_1_" class="st12" cx="228" cy="70.8" r="2.7"/>
			</g>
		</g>
		<g>
			<g>
				<defs>
					<circle id="SVGID_21_" cx="224.7" cy="86.1" r="17.5"/>
				</defs>
				<clipPath id="SVGID_22_">
					<use xlink:href="#SVGID_21_"  style="overflow:visible;"/>
				</clipPath>
				<circle id="미세플라스틱-187_1_" class="st13" cx="232.7" cy="82.9" r="2.7"/>
			</g>
		</g>
		<g>
			<g>
				<defs>
					<circle id="SVGID_23_" cx="224.7" cy="86.1" r="17.5"/>
				</defs>
				<clipPath id="SVGID_24_">
					<use xlink:href="#SVGID_23_"  style="overflow:visible;"/>
				</clipPath>
				<circle id="미세플라스틱-188_3_" class="st14" cx="235.4" cy="77.6" r="2.7"/>
			</g>
		</g>
		<g>
			<g>
				<defs>
					<circle id="SVGID_25_" cx="224.7" cy="86.1" r="17.5"/>
				</defs>
				<clipPath id="SVGID_26_">
					<use xlink:href="#SVGID_25_"  style="overflow:visible;"/>
				</clipPath>
				<circle id="미세플라스틱-188_2_" class="st15" cx="235.3" cy="70.3" r="2.7"/>
			</g>
		</g>
		<g>
			<g>
				<defs>
					<circle id="SVGID_27_" cx="224.7" cy="86.1" r="17.5"/>
				</defs>
				<clipPath id="SVGID_28_">
					<use xlink:href="#SVGID_27_"  style="overflow:visible;"/>
				</clipPath>
				<circle id="미세플라스틱-188_1_" class="st16" cx="239.9" cy="76.5" r="2.7"/>
			</g>
		</g>
		<g>
			<g>
				<defs>
					<circle id="SVGID_29_" cx="224.7" cy="86.1" r="17.5"/>
				</defs>
				<clipPath id="SVGID_30_">
					<use xlink:href="#SVGID_29_"  style="overflow:visible;"/>
				</clipPath>
				<circle id="미세플라스틱-189_1_" class="st17" cx="240.4" cy="82.6" r="2.7"/>
			</g>
		</g>
		<g>
			<g>
				<defs>
					<circle id="SVGID_31_" cx="224.7" cy="86.1" r="17.5"/>
				</defs>
				<clipPath id="SVGID_32_">
					<use xlink:href="#SVGID_31_"  style="overflow:visible;"/>
				</clipPath>
				<circle id="미세플라스틱-190_1_" class="st18" cx="231.3" cy="74.5" r="2.7"/>
			</g>
		</g>
		<g>
			<g>
				<defs>
					<circle id="SVGID_33_" cx="224.7" cy="86.1" r="17.5"/>
				</defs>
				<clipPath id="SVGID_34_">
					<use xlink:href="#SVGID_33_"  style="overflow:visible;"/>
				</clipPath>
				<circle id="미세플라스틱-191_1_" class="st19" cx="236.3" cy="92.8" r="2.7"/>
			</g>
		</g>
		<g>
			<g>
				<defs>
					<circle id="SVGID_35_" cx="224.7" cy="86.1" r="17.5"/>
				</defs>
				<clipPath id="SVGID_36_">
					<use xlink:href="#SVGID_35_"  style="overflow:visible;"/>
				</clipPath>
				<circle id="미세플라스틱-192_1_" class="st20" cx="240.4" cy="89.2" r="2.7"/>
			</g>
		</g>
		<g>
			<g>
				<defs>
					<circle id="SVGID_37_" cx="224.7" cy="86.1" r="17.5"/>
				</defs>
				<clipPath id="SVGID_38_">
					<use xlink:href="#SVGID_37_"  style="overflow:visible;"/>
				</clipPath>
				<circle id="미세플라스틱-193_1_" class="st21" cx="234.5" cy="99.4" r="2.7"/>
			</g>
		</g>
		<g>
			<g>
				<defs>
					<circle id="SVGID_39_" cx="224.7" cy="86.1" r="17.5"/>
				</defs>
				<clipPath id="SVGID_40_">
					<use xlink:href="#SVGID_39_"  style="overflow:visible;"/>
				</clipPath>
				<circle id="미세플라스틱-194_1_" class="st22" cx="231.3" cy="102.7" r="2.7"/>
			</g>
		</g>
		<g>
			<g>
				<defs>
					<circle id="SVGID_41_" cx="224.7" cy="86.1" r="17.5"/>
				</defs>
				<clipPath id="SVGID_42_">
					<use xlink:href="#SVGID_41_"  style="overflow:visible;"/>
				</clipPath>
				<circle id="미세플라스틱-195_1_" class="st23" cx="240.4" cy="96.8" r="2.7"/>
			</g>
		</g>
		<g>
			<g>
				<defs>
					<circle id="SVGID_43_" cx="224.7" cy="86.1" r="17.5"/>
				</defs>
				<clipPath id="SVGID_44_">
					<use xlink:href="#SVGID_43_"  style="overflow:visible;"/>
				</clipPath>
				<circle id="미세플라스틱-196_1_" class="st24" cx="231.3" cy="88.7" r="2.7"/>
			</g>
		</g>
		<g>
			<g>
				<defs>
					<circle id="SVGID_45_" cx="224.7" cy="86.1" r="17.5"/>
				</defs>
				<clipPath id="SVGID_46_">
					<use xlink:href="#SVGID_45_"  style="overflow:visible;"/>
				</clipPath>
				<circle id="미세플라스틱-197_1_" class="st25" cx="236.3" cy="86.6" r="2.7"/>
			</g>
		</g>
		<g>
			<g>
				<defs>
					<circle id="SVGID_47_" cx="224.7" cy="86.1" r="17.5"/>
				</defs>
				<clipPath id="SVGID_48_">
					<use xlink:href="#SVGID_47_"  style="overflow:visible;"/>
				</clipPath>
				<circle id="미세플라스틱-198_1_" class="st26" cx="229.2" cy="96" r="2.7"/>
			</g>
		</g>
		<g>
			<g>
				<defs>
					<circle id="SVGID_49_" cx="224.7" cy="86.1" r="17.5"/>
				</defs>
				<clipPath id="SVGID_50_">
					<use xlink:href="#SVGID_49_"  style="overflow:visible;"/>
				</clipPath>
				<circle id="미세플라스틱-199_1_" class="st27" cx="226.4" cy="101.5" r="2.7"/>
			</g>
		</g>
		<g>
			<g>
				<defs>
					<circle id="SVGID_51_" cx="224.7" cy="86.1" r="17.5"/>
				</defs>
				<clipPath id="SVGID_52_">
					<use xlink:href="#SVGID_51_"  style="overflow:visible;"/>
				</clipPath>
				<circle id="미세플라스틱-200_1_" class="st28" cx="218.7" cy="101.5" r="2.7"/>
			</g>
		</g>
		<g>
			<g>
				<defs>
					<circle id="SVGID_53_" cx="224.7" cy="86.1" r="17.5"/>
				</defs>
				<clipPath id="SVGID_54_">
					<use xlink:href="#SVGID_53_"  style="overflow:visible;"/>
				</clipPath>
				<circle id="미세플라스틱-201_1_" class="st29" cx="222.9" cy="103.7" r="2.7"/>
			</g>
		</g>
		<g>
			<g>
				<defs>
					<circle id="SVGID_55_" cx="224.7" cy="86.1" r="17.5"/>
				</defs>
				<clipPath id="SVGID_56_">
					<use xlink:href="#SVGID_55_"  style="overflow:visible;"/>
				</clipPath>
				<circle id="미세플라스틱-202_1_" class="st30" cx="226.6" cy="91.1" r="2.7"/>
			</g>
		</g>
		<g>
			<g>
				<defs>
					<circle id="SVGID_57_" cx="224.7" cy="86.1" r="17.5"/>
				</defs>
				<clipPath id="SVGID_58_">
					<use xlink:href="#SVGID_57_"  style="overflow:visible;"/>
				</clipPath>
				<circle id="미세플라스틱-203_1_" class="st31" cx="222.4" cy="96.8" r="2.7"/>
			</g>
		</g>
		<g>
			<g>
				<defs>
					<circle id="SVGID_59_" cx="224.7" cy="86.1" r="17.5"/>
				</defs>
				<clipPath id="SVGID_60_">
					<use xlink:href="#SVGID_59_"  style="overflow:visible;"/>
				</clipPath>
				<circle id="미세플라스틱-204_1_" class="st32" cx="214.7" cy="96.8" r="2.7"/>
			</g>
		</g>
		<g>
			<g>
				<defs>
					<circle id="SVGID_61_" cx="224.7" cy="86.1" r="17.5"/>
				</defs>
				<clipPath id="SVGID_62_">
					<use xlink:href="#SVGID_61_"  style="overflow:visible;"/>
				</clipPath>
				<circle id="미세플라스틱-205_1_" class="st33" cx="211.7" cy="94.1" r="2.7"/>
			</g>
		</g>
		<g>
			<g>
				<defs>
					<circle id="SVGID_63_" cx="224.7" cy="86.1" r="17.5"/>
				</defs>
				<clipPath id="SVGID_64_">
					<use xlink:href="#SVGID_63_"  style="overflow:visible;"/>
				</clipPath>
				<circle id="미세플라스틱-206_1_" class="st34" cx="221.9" cy="88.7" r="2.7"/>
			</g>
		</g>
		<g>
			<g>
				<defs>
					<circle id="SVGID_65_" cx="224.7" cy="86.1" r="17.5"/>
				</defs>
				<clipPath id="SVGID_66_">
					<use xlink:href="#SVGID_65_"  style="overflow:visible;"/>
				</clipPath>
				<circle id="미세플라스틱-207_1_" class="st35" cx="218.7" cy="92" r="2.7"/>
			</g>
		</g>
		<g>
			<g>
				<defs>
					<circle id="SVGID_67_" cx="224.7" cy="86.1" r="17.5"/>
				</defs>
				<clipPath id="SVGID_68_">
					<use xlink:href="#SVGID_67_"  style="overflow:visible;"/>
				</clipPath>
				<circle id="미세플라스틱-208_1_" class="st36" cx="211.1" cy="90.2" r="2.7"/>
			</g>
		</g>
		<g>
			<g>
				<defs>
					<circle id="SVGID_69_" cx="224.7" cy="86.1" r="17.5"/>
				</defs>
				<clipPath id="SVGID_70_">
					<use xlink:href="#SVGID_69_"  style="overflow:visible;"/>
				</clipPath>
				<circle id="미세플라스틱-209_1_" class="st37" cx="216" cy="86.6" r="2.7"/>
			</g>
		</g>
		<g>
			<g>
				<defs>
					<circle id="SVGID_71_" cx="224.7" cy="86.1" r="17.5"/>
				</defs>
				<clipPath id="SVGID_72_">
					<use xlink:href="#SVGID_71_"  style="overflow:visible;"/>
				</clipPath>
				<circle id="미세플라스틱-210_1_" class="st38" cx="210.5" cy="82.9" r="2.7"/>
			</g>
		</g>
		<g>
			<g>
				<defs>
					<circle id="SVGID_73_" cx="224.7" cy="86.1" r="17.5"/>
				</defs>
				<clipPath id="SVGID_74_">
					<use xlink:href="#SVGID_73_"  style="overflow:visible;"/>
				</clipPath>
				<circle id="미세플라스틱-211_1_" class="st39" cx="212.3" cy="84.8" r="2.7"/>
			</g>
		</g>
		<g>
			<g>
				<defs>
					<circle id="SVGID_75_" cx="224.7" cy="86.1" r="17.5"/>
				</defs>
				<clipPath id="SVGID_76_">
					<use xlink:href="#SVGID_75_"  style="overflow:visible;"/>
				</clipPath>
				<circle class="st40" cx="224.7" cy="86.1" r="17.5"/>
			</g>
		</g>
	</g>
	<g>
		<g>
			<line class="st41" x1="2.9" y1="68.2" x2="3.9" y2="68.2"/>
			<line class="st42" x1="5.9" y1="68.2" x2="220.2" y2="68.2"/>
			<line class="st41" x1="221.2" y1="68.2" x2="222.2" y2="68.2"/>
		</g>
	</g>
	<g>
		<g>
			<line class="st41" x1="2.9" y1="34.9" x2="3.9" y2="34.9"/>
			<line class="st42" x1="5.9" y1="34.9" x2="220.2" y2="34.9"/>
			<line class="st41" x1="221.2" y1="34.9" x2="222.2" y2="34.9"/>
		</g>
	</g>
	<g>
		<g>
			<line class="st41" x1="2.9" y1="1.6" x2="3.9" y2="1.6"/>
			<line class="st42" x1="5.9" y1="1.6" x2="220.2" y2="1.6"/>
			<line class="st41" x1="221.2" y1="1.6" x2="222.2" y2="1.6"/>
		</g>
	</g>
	<circle class="st43" cx="224.7" cy="60.8" r="59.2"/>
	
		<ellipse transform="matrix(0.3162 -0.9487 0.9487 0.3162 82.9685 264.1116)" class="st44" cx="224.7" cy="74.5" rx="39.5" ry="39.5"/>
	<text transform="matrix(1 0 0 1 1.2601 13.8711)" class="st45 st46">Plastic: more than 25mm </text>
	<text transform="matrix(1 0 0 1 1.2599 47.1752)" class="st45 st46">Microplastic: less than 5mm</text>
	<text transform="matrix(1 0 0 1 1.2605 80.4795)" class="st45 st46">Microbeads: less than 1mm</text>
</g>
<g id="Layer_2_2_">
	<g id="Layer_1-2_1_">
		<rect x="-0.2" y="50.3" class="st47" width="1304.9" height="535.6"/>
		<path id="플랑크톤1_1_" class="st48" d="M531.1,312.7l-4.8-5c0,0-2.4-0.6-1.8,0.7s4.2,5.2,4.2,5.2l-0.1,0.7l-4.7-1.7
			c0,0-3,0.3-0.7,1.7c1.6,1.1,3.4,1.9,5.2,2.6l-0.5,1.2l-4.4,2.5c0,0-1.8,1.1,0.5,1c1.7-0.2,3.3-0.8,4.7-1.7l0.4,1.1l-4.3,4.4
			c0,0-2,2.6,1.1,0.7c2-1.2,3.7-2.7,5.2-4.5l0.9,7.5c0,0-0.4,1.1,0.7,0.7s0.9-2.8,0.9-2.8v-4.4l4.4,4.8c0,0,1.8,1.9,0.7-1.1
			c-0.7-1.9-1.5-3.6-2.5-5.4l5.6,2.1c0,0,1.7,0.3,0-1.6c-1.8-1.1-3.7-2.1-5.6-2.8l-0.1-1.4l6.5-2.6c0,0,0.7-1.7-1.3-1.4
			s-4.8,1.1-4.8,1.1l2.8-4.5c0,0,0.3-1.7-1-0.9c-1.4,1.2-2.7,2.5-4,3.8l-1.3-0.9v-4.6c0,0-1.5-1.2-1.7,0S531.1,312.7,531.1,312.7z"
			/>
		<path id="플랑크톤1-2_1_" class="st48" d="M582.8,330.7l-2.6-2.6c0,0-1.2-0.3-1,0.4c0.6,1,1.4,1.9,2.2,2.8l-0.1,0.4l-2.5-0.9
			c0,0-1.6,0.1-0.4,0.9c0.9,0.6,1.8,1,2.8,1.4l-0.3,0.7l-2.3,1.3c0,0-1,0.6,0.3,0.5c0.9-0.1,1.8-0.4,2.5-0.9l0.2,0.6l-2.2,2.3
			c0,0-1.1,1.4,0.6,0.4c1-0.6,2-1.4,2.8-2.4l0.5,4c0,0-0.2,0.6,0.4,0.4s0.5-1.5,0.5-1.5v-2.3l2.4,2.6c0,0,1,1,0.4-0.6
			c-0.4-1-0.8-1.9-1.3-2.8l3,1.1c0,0,0.9,0.1,0-0.9c-1-0.6-2-1.1-3-1.5l-0.1-0.7l3.5-1.4c0,0,0.4-0.9-0.7-0.7s-2.5,0.6-2.5,0.6
			l1.5-2.4c0,0,0.1-0.9-0.5-0.5c-0.7,0.7-1.5,1.3-2.1,2l-0.7-0.5V328c0,0-0.8-0.7-0.9,0S582.8,330.7,582.8,330.7z"/>
		<path id="플랑크톤2_1_" class="st48" d="M559.8,336.6c0,0-3.6-1.8-5-1.5c-1.4,0.1-2.6,0.9-3.1,2.2c-0.7,1.5-1.2,5.8-1.7,6.7
			c-0.4,1.1-0.9,2.1-1.4,3.1c-0.5,0.6-0.9,1.5-0.6,1.9s1.8-1.7,1.8-1.7c0.5-0.8,0.9-1.6,1.2-2.5c0.2-0.8,0.6-2.2,0.9-3
			c0.3-1.1,0.6-2.2,1-3.3c0.3-0.5-0.1-1.3,1.3-1.4c1.1,0,2.2,0.2,3.2,0.7c0.7,0.3,1.5,0.5,2.3,0.6v1.6c-1.2,0.5-2.3,1.1-3.4,1.9
			c-0.9,0.9-2.5,5.1-2.5,5.1c-0.3,0.7-0.4,1.4-0.4,2.1c0.2,0.6,0.9,0,0.9,0l1.4-3.3c0,0,1.7-2.6,1.9-2.8s1.6-1.3,1.6-1.3l0.1,1.9
			c0,0-1.7,2.4-2.1,3.3c-0.5,1.2-0.8,2.5-0.9,3.8c0.1,0.2,0.5,1.1,0.5,1.1c0.5-0.7,0.9-1.5,1.2-2.4c0-0.7,0.3-2.2,0.7-2.5
			c0.4-0.2,0.7-0.4,1.1-0.6l0.3,2l0.7,2c0,0,1.5,2.5,2.2,3.4c0.5,1,0.8,2.2,0.9,3.3v5.7c0,0,1.2-0.9,1.2-1.1s0.8-2.5,0.8-2.5l1-0.1
			c0.4,0.5,0.8,0.9,1.3,1.4c0.2,0.1,1.4,0.2,1.5-0.1c0.2-0.6,0.3-1.1,0.5-1.7c-0.7-0.7-1.4-1.5-2-2.2l-0.9-1.5l0.2-5.2l-0.7-5.5
			l0.5-1c0.4,0.6,0.8,1.3,1.2,2c0.6,1.1,1.3,3.6,1.7,3.9s0.7,0.6,0.9,1v-2.6c-0.5-0.6-0.8-1.4-1-2.1c-0.3-1.1-0.9-2.1-1.7-3
			c-0.5-0.4-1.1-0.7-1.8-0.9l-0.9-0.7v-0.9c0.6-0.1,1.2,0,1.8,0.1c0.8,0.7,1.7,1.3,2.6,1.9c1,0.6,1.9,1.4,2.6,2.3
			c0.5,0.7,0.8,1.1,0.8,1.1v-2c-0.3-0.7-0.7-1.3-1.2-1.9c-0.8-0.9-1.7-1.6-2.6-2.3c-0.7-0.2-1.4-0.3-2.2-0.5
			c-0.8-0.1-1.5-0.1-2.3-0.1c-0.6,0-0.7-0.9-0.7-0.9V336c0.5-0.3,1-0.7,1.5-1.1c0.9-0.7,1.1-1.5,2.5-1.3c1,0.2,2,0.8,2.4,1.8
			c0.3,0.6,2.4,2.8,2.6,3.4c0.5,0.9,1.1,1.6,1.8,2.3c0.6,0.4,1.2,0.8,1.9,1c0.6,0,1.2-0.1,1.8-0.2c-0.1-0.7-0.6-1.2-1.2-1.4
			c-0.9-0.3-1.7-0.7-2.5-1.2c-0.2-0.2-2.4-3-2.7-3.3s-2.1-2.8-2.4-3.2c-0.5-0.4-1.1-0.6-1.7-0.5c-1,0.2-2,0.7-2.8,1.4
			c-0.6,0.7-1.3,1.9-2.1,2.2c-0.9,0.3-1.7,0.5-2.7,0.5C560.6,336.4,560.2,336.5,559.8,336.6z"/>
		<path id="플랑크톤3_1_" class="st48" d="M561.2,312.8c0,0-3.3,1.8-4.1,2.8c-0.7,1-1.1,2.2-1.4,3.4c0.6,1.5,1.3,2.9,2.2,4.2
			c0.2,0.1,5,0,5,0s0.2,1.1,0.7,1c0.6-0.3,1.1-0.7,1.5-1.2c0.1-0.2,1-0.6,1-0.6c-0.1,0.5-0.2,1-0.5,1.4c-0.4,0.7-0.7,1.5-0.9,2.3
			h1.4c0,0,0.6-1.6,0.8-2c0.3-0.3,0.6-0.6,1-0.7v1.2c0,0.5-0.9,1.6-1,1.9c-0.1,0.5-0.2,1-0.2,1.5c0.1,0.2,0.7,0.3,0.9,0
			c0.4-0.6,0.7-1.2,1-1.9c0.2-0.4,0.6-0.7,1-0.7c0.5,0.1,0,1,0,1.5s-0.8,1.5-0.9,1.7s-0.3,2-0.1,1.5c0.5-0.7,1-1.4,1.5-2.1
			c0,0,0.9-0.5,0.8,0.3c-0.1,1.2-0.1,2.3,0,3.5c0.5,0.8,1,1.6,1.7,2.4c0.2,0.1,1.1,1.3,1.5,1.1s0.9-0.2,0.9-0.9s-0.3-0.8-1.1-1.6
			c-0.7-0.6-1.1-1.4-1.1-2.3c-0.1-1.2-0.1-2.6-0.1-4.2c0-1.3-0.1-2.6-0.2-3.8c-0.1-1.5-0.6-2.8-1.5-4c-0.8-0.8-1.3-2.2-2.5-3
			c-0.9-0.8-2-1.3-3.1-1.7c-0.8-0.3-1.7-0.4-2.5-0.5C562.3,313.1,561.7,313,561.2,312.8z"/>
		<path id="플랑크톤3-2_1_" class="st48" d="M595,298.6c-1-0.3-2-0.5-3-0.5c-0.7,0.1-1.4,0.5-2,0.9c-0.3,0.9-0.6,1.9-0.8,2.9
			c0.1,0.1,2.2,2.1,2.2,2.1s-0.4,0.6-0.1,0.7c0.4,0.1,0.8,0.1,1.2,0.1c0.1-0.1,0.7,0.2,0.7,0.2c-0.2,0.2-0.5,0.3-0.8,0.4
			c-0.5,0.2-0.9,0.4-1.4,0.7l0.6,0.6c0,0,1-0.5,1.2-0.6c0.3,0,0.5,0.1,0.8,0.1l-0.5,0.5c-0.2,0.2-1.1,0.3-1.3,0.4
			c-0.3,0.1-0.5,0.3-0.7,0.5c-0.1,0.1,0.2,0.4,0.4,0.4c0.4-0.1,0.9-0.2,1.3-0.4c0.2-0.1,0.5-0.1,0.7,0.1c0.1,0.2-0.5,0.5-0.6,0.7
			s-1,0.3-1.1,0.4s-1,0.7-0.7,0.7l1.6-0.3c0,0,0.6,0.1,0.2,0.5c-0.6,0.5-1.1,1-1.5,1.6c-0.1,0.6-0.2,1.2-0.3,1.8
			c0.1,0.1,0,1,0.1,1.1s0.5,0.3,0.8,0s0.2-0.5,0.2-1.2c-0.1-0.5,0.1-1.1,0.5-1.5c0.5-0.5,1.1-1.2,1.7-1.9s1.1-1.2,1.5-1.8
			c0.6-0.7,0.9-1.5,1.1-2.4c0.2-0.8,0.2-1.6,0.2-2.5c-0.1-0.7-0.3-1.4-0.7-2.1c-0.3-0.5-0.6-0.9-0.9-1.3
			C595.4,299.2,595.2,298.9,595,298.6z"/>
		<circle id="미세플라스틱_1_" class="st49" cx="583.1" cy="333.4" r="0.9"/>
		<path id="미세_플라스틱2_1_" class="st50" d="M460.8,293c-0.9,1.2-0.3,0.9-1.4,2.1c-1.1,1.1-1.5,1.5-1.5,1.9
			s-0.1,0.9,0.7,0.9s0.9-0.7,1.5,0s0.1,0.9,0.9,0.9c0.5,0.1,1-0.1,1.4-0.3c0.4-0.3,0.7-0.7,1.1-1.1c0.2-0.4,0.7-0.4,0-1.5
			s-1.6-2.3-1.6-2.3L460.8,293z"/>
		<path id="미세_플라스틱2-2_1_" class="st50" d="M406.4,259.6c-1,0-0.6,0.2-1.6,0.1s-1.3-0.2-1.6,0c-0.3,0.2-0.5,0.3-0.1,0.7
			c0.3,0.4,0.7,0.2,0.6,0.8s-0.4,0.4-0.1,0.9c0.2,0.3,0.4,0.5,0.7,0.6c0.3,0.1,0.6,0.1,0.9,0.1c0.3-0.1,0.5,0.2,0.8-0.6
			c0.3-0.8,0.6-1.7,0.6-1.7L406.4,259.6z"/>
		<path id="미세_플라스틱2-3_1_" class="st51" d="M582.4,316.5c-0.5,0.3-0.9,0.5-1.5,0.7c-0.9,0.3-1.3,0.3-1.5,0.6
			s-0.3,0.5,0.1,0.7s0.7-0.1,0.8,0.5s-0.2,0.5,0.2,0.8c0.3,0.2,0.6,0.3,0.9,0.3c0.3,0,0.6-0.1,0.9-0.3c0.3-0.1,0.5,0,0.5-0.9
			s-0.1-1.8-0.1-1.8L582.4,316.5z"/>
		<path id="미세_플라스틱3_1_" class="st51" d="M550.8,325.3c-1,0.5-2.4,0.5-2.8,1.5s-0.5,1.9-0.7,2.2s-1.4,1.5-1.5,1.8
			s-2.5,1.6-0.7,1.5c1.6-0.2,3.1-0.5,4.6-1c0.9-0.2,3.1-0.3,3.3-1c0.4-1,0.6-2.1,0.5-3.2c-0.3-0.9-0.5-1.7-0.9-2.6L550.8,325.3z"/>
		<path id="미세_플라스틱3-2_1_" class="st51" d="M575.2,295.5c-0.7,0.4-1.8,0.3-2.1,1s-0.4,1.4-0.5,1.7
			c-0.1,0.3-1.1,1-1.1,1.3s-1.8,1.2-0.5,1.1c1.2-0.1,2.3-0.4,3.4-0.7c0.7-0.2,2.3-0.3,2.4-0.7c0.3-0.7,0.4-1.5,0.4-2.3
			c-0.2-0.7-0.4-1.2-0.7-1.9L575.2,295.5z"/>
		<path id="미세_플라스틱_4_1_" class="st51" d="M545.2,300c0-1.6-0.1-3.3-0.3-4.9l-6.6-8.5c0.4-0.8,1.2-1.4,2-1.7
			c1.3-0.4,8.7-3.6,9.4-4s7.3-4,7.3-4c0,1,0.4,2,1.2,2.6c1.4,1.2,3,2.2,4.8,2.9c0.8,0.2,3.8,0.6,4.7,1.1s4.3,2.4,4.6,3
			c0.3,0.5-1.9,2-1.9,2l-10.9,6.8l-9.3,5.6L545.2,300z"/>
		<path id="플라스틱_1_" class="st51" d="M599,285.9c-1-0.3-1.7-0.9-2.1,0c-0.5,0.9-0.4,1.6-1.2,2.1c-0.6,0.4-1.1,0.9-1.6,1.4
			s-0.7,1.2-0.5,1.9c0.2,0.7-0.5,2,1.1,1.4c1.6-0.5,1.7-1.2,2.7-0.9c1.1,0.3,1.9,1.3,2.5,1s2.2-0.9,2.2-0.9c0.6-0.3,1.1-0.7,1.6-1.2
			c0.4-0.7-0.5-1.3,0.9-1.1c1.5,0.2,2.1,0.5,3.2,0.7s1.9,0.7,2.1-0.2c0.3-0.8,0.5-1.7,0.5-2.6c-0.1-0.9-0.3-3.6-0.7-4
			s-0.2-1.2-1.2-1.1c-1.4,0.3-2.7,0.7-3.9,1.4c-0.9,0.4-3.2,1.6-3.2,1.6L599,285.9z"/>
		<circle id="미세플라스틱-212_1_" class="st49" cx="532.7" cy="318.9" r="1.4"/>
		<circle id="미세플라스틱-213_1_" class="st49" cx="562.8" cy="342.5" r="1.4"/>
		<circle id="미세플라스틱-214_1_" class="st49" cx="562.8" cy="347.2" r="1.4"/>
		<circle id="미세플라스틱-215_1_" class="st49" cx="562.8" cy="318.5" r="1.4"/>
		<circle id="미세플라스틱-216_1_" class="st49" cx="595" cy="303.9" r="1.4"/>
		<path class="st48" d="M661.8,482.5l-4.2-6.8l-1.2-6.1l1.4-2l4.8-20.5l-4.3-28.6l-16.7-19.9l-11.1-5.9l1.9-2.4l4.8-1.4l10.2,2.1
			l9.8,7.3l5.1-2l-9.1-13.7l-12-7.4l-10.3,7.2l-4.2,8.3l-5.8-3.1L609,387l-2.6-3.6c0,0-2.6-5.8-5-7.4s-8.9-4.1-10.2,0.1
			s0.9,8.3,1.2,11c0.3,2.4,0.8,4.7,1.4,7l-3.7,3.5l-5.9,8.8l-6.8-4.5l-10.8,2.2l-11.1,10.5l-1,16.4l5.4-0.8l4.8-11.2l10.6-8.3
			l4.8-1.2l1.7,0.7l-3.1,4.6l-1.9,18.4L585,459l13.7,14.7l4.2,2l2.1,10.6l-1.3,7.9l-2,3.7l3,0.8l6.8-4l2.4-7.1l1.2-5.8
			c0,0-1-0.6-2.4-1.6l10,4.7l13,4.3l9.2-3.6l4.3-6.1l0.5,0.8l5,5.6l7.7,1.1l2.3-1.9L661.8,482.5z"/>
		<g id="미세_플라스틱_그룹-6_1_">
			<circle id="미세플라스틱-177_2_" class="st49" cx="615.2" cy="428.2" r="2.5"/>
			<circle id="미세플라스틱-178_2_" class="st49" cx="618.1" cy="423.5" r="2.5"/>
			<circle id="미세플라스틱-179_2_" class="st49" cx="613.3" cy="418.9" r="2.5"/>
			<circle id="미세플라스틱-180_2_" class="st49" cx="616.2" cy="417.1" r="2.5"/>
			<circle id="미세플라스틱-181_2_" class="st49" cx="620.7" cy="429.5" r="2.5"/>
			<circle id="미세플라스틱-182_2_" class="st49" cx="611.1" cy="425.1" r="2.5"/>
			<circle id="미세플라스틱-183_2_" class="st49" cx="608.6" cy="421.6" r="2.5"/>
			<circle id="미세플라스틱-184_2_" class="st49" cx="624" cy="425.1" r="2.5"/>
			<circle id="미세플라스틱-185_2_" class="st49" cx="619.9" cy="418.9" r="2.5"/>
			<circle id="미세플라스틱-186_2_" class="st49" cx="623.4" cy="417.1" r="2.5"/>
			<circle id="미세플라스틱-187_2_" class="st49" cx="627.8" cy="428.5" r="2.5"/>
			<circle id="미세플라스틱-188_4_" class="st49" cx="630.4" cy="423.5" r="2.5"/>
			<circle id="미세플라스틱-189_2_" class="st49" cx="635.1" cy="428.2" r="2.5"/>
			<circle id="미세플라스틱-190_2_" class="st49" cx="626.5" cy="420.6" r="2.5"/>
			<circle id="미세플라스틱-191_2_" class="st49" cx="631.2" cy="437.9" r="2.5"/>
			<circle id="미세플라스틱-192_2_" class="st49" cx="635.1" cy="434.5" r="2.5"/>
			<circle id="미세플라스틱-193_2_" class="st49" cx="629.6" cy="444.1" r="2.5"/>
			<circle id="미세플라스틱-194_2_" class="st49" cx="626.5" cy="447.2" r="2.5"/>
			<circle id="미세플라스틱-195_2_" class="st49" cx="635.1" cy="441.6" r="2.5"/>
			<circle id="미세플라스틱-196_2_" class="st49" cx="626.5" cy="434" r="2.5"/>
			<circle id="미세플라스틱-197_2_" class="st49" cx="631.2" cy="432.1" r="2.5"/>
			<circle id="미세플라스틱-198_2_" class="st49" cx="624.6" cy="440.9" r="2.5"/>
			<circle id="미세플라스틱-199_2_" class="st49" cx="621.9" cy="446.1" r="2.5"/>
			<circle id="미세플라스틱-200_2_" class="st49" cx="614.6" cy="446.1" r="2.5"/>
			<circle id="미세플라스틱-201_2_" class="st49" cx="618.6" cy="448.1" r="2.5"/>
			<circle id="미세플라스틱-202_2_" class="st49" cx="622.1" cy="436.2" r="2.5"/>
			<circle id="미세플라스틱-203_2_" class="st49" cx="618.1" cy="441.6" r="2.5"/>
			<circle id="미세플라스틱-204_2_" class="st49" cx="610.8" cy="441.6" r="2.5"/>
			<circle id="미세플라스틱-205_2_" class="st49" cx="608" cy="439.1" r="2.5"/>
			<circle id="미세플라스틱-206_2_" class="st49" cx="617.7" cy="434" r="2.5"/>
			<circle id="미세플라스틱-207_2_" class="st49" cx="614.6" cy="437.1" r="2.5"/>
			<circle id="미세플라스틱-208_2_" class="st49" cx="607.4" cy="435.4" r="2.5"/>
			<circle id="미세플라스틱-209_2_" class="st49" cx="612.1" cy="432.1" r="2.5"/>
			<circle id="미세플라스틱-210_2_" class="st49" cx="606.9" cy="428.5" r="2.5"/>
			<circle id="미세플라스틱-211_2_" class="st49" cx="608.6" cy="430.3" r="2.5"/>
		</g>
		<path class="st48" d="M203.1,296h-31.2c-0.6,0-1-0.4-1-1v-10.5c0-0.6,0.4-1,1-1h31.2c0.6,0,1,0.4,1,1V295
			C204.1,295.6,203.7,296,203.1,296z"/>
		<path class="st48" d="M143.7,166.4L143.7,166.4v4c0,0.2-0.2,0.4-0.4,0.5h-0.5c-0.4,0-0.6,0.3-0.6,0.7l-1.8,49.5
			c0,0.3-0.1,0.6-0.2,0.9l-3.8,6.8c-0.3,0.5-0.8,0.9-1.5,0.9h-9c-0.6,0-1.2-0.3-1.5-0.9l-3.8-6.8c-0.1-0.3-0.2-0.6-0.2-0.9
			l-1.8-49.5c0-0.4-0.3-0.6-0.6-0.7h-0.5c-0.2,0-0.4-0.2-0.4-0.5v-4H143.7z"/>
		<polygon class="st48" points="130.3,232 130.4,232 134.9,232 134.3,240.9 130.4,240.9 130.3,240.9 126.4,240.9 125.8,232 		"/>
		<path class="st52" d="M176.3,240.9h6.9c8.4,0,15.2,6.8,15.2,15.2l0,0v28h-22v-16.6c0-2.5-2-4.5-4.5-4.5H1.9v-22L176.3,240.9z"/>
		<path class="st53" d="M68.9,207.5H40.4c-1.5,0-2.7,0.8-2.7,1.8v30.2c0,0.7,0.8,1.2,1.8,1.2H68c1,0,1.8-0.5,1.8-1.2v-31.4
			C69.8,207.8,69.4,207.5,68.9,207.5z"/>
		<path class="st52" d="M41.9,190.3c0-5.4,5.3-9.7,11.8-9.7s11.8,4.4,11.8,9.7 M53.7,173.7v6.8 M43.2,174.1l18,0.6
			c1,0,1.8-0.8,1.9-1.8c0,0,0,0,0-0.1v-2.4c0-1-0.8-1.8-1.8-1.8h-0.1l-17.9,0.9c-0.9,0-1.7,0.8-1.8,1.7v1
			C41.5,173.3,42.2,174.1,43.2,174.1L43.2,174.1L43.2,174.1z"/>
		<path class="st48" d="M104.7,199.8c-0.4-3.2-2-6.1-4.6-8.1c-0.7-0.7-1.3-1.6-1.5-2.6c-0.3-0.8-0.4-1.3-0.2-1.6
			c0.2-0.1,0.3-0.3,0.5-0.3l4.5-0.9c0.7-0.1,1.1-0.8,0.9-1.4l0,0c0,0,0,0,0-0.1c-0.1-0.5-0.6-0.9-1.2-0.9l-4.4,1l-0.3,0.1
			c-0.1,0-0.1,0-0.2,0s-0.2-0.1-0.3-0.2c0,0-0.1-0.1-0.1-0.2v-0.1v-0.1c0-0.2,0.2-0.3,0.4-0.4l0.5-0.1l0.5-0.1l3.7-0.8
			c0.3-0.1,0.5-0.3,0.7-0.6c0.3-0.6,0.1-1.3-0.5-1.6c-0.2-0.1-0.3-0.1-0.5-0.1l-4.4,1l-0.5,0.1h-0.2c-0.1,0-0.2-0.1-0.2-0.1
			l-0.1-0.1c0,0,0-0.1-0.1-0.1l0,0c0-0.1,0-0.2,0-0.3s0.1-0.1,0.1-0.2c0.1-0.1,0.1-0.1,0.2-0.1l0,0l0.6-0.1l1.4-0.3l2.5-0.5h0.1
			c0.3-0.1,0.6-0.3,0.7-0.6c0.1-0.2,0.2-0.5,0.1-0.8c-0.1-0.5-0.6-0.9-1.1-0.9l-4.4,1l0,0l-0.5,0.1h-0.1c-0.1,0-0.2,0-0.2-0.1
			c-0.2-0.1-0.3-0.3-0.3-0.5c0-0.1,0-0.2,0.1-0.3l0.1-0.1c0.1,0,0.1-0.1,0.2-0.1l0.2-0.1c1.3-0.3,2.7-0.6,4-0.9
			c0.4-0.1,0.7-0.2,1-0.4c0.3-0.3,0.4-0.6,0.3-1l0,0c-0.1-0.6-0.8-1.1-1.4-0.9l-4.7,1h0c-0.1,0-0.2,0-0.3-0.1
			c-0.1-0.1-0.2-0.2-0.2-0.4c0-0.1,0-0.2,0.1-0.2c0.1-0.1,0.2-0.2,0.4-0.2l0,0l2.5-0.5l2.3-0.5c0.5-0.2,0.7-0.8,0.6-1.3v-0.1
			c0-0.1-0.1-0.2-0.1-0.3s-0.1-0.1-0.1-0.1l0,0l-0.2-0.1l-0.1-0.1c-0.3-0.2-0.6-0.2-0.9-0.2l-4.5,0.9c-0.3,0-0.5,0-0.8-0.1
			c-0.1,0-0.2-0.1-0.2-0.2l0,0c-0.3-0.4-0.8-0.6-1.3-0.7c-0.3-0.1-0.6-0.1-0.8,0l0,0c-1.3,0.3-2.1,1.5-1.8,2.8l3,13.8
			c0,0,0,0.1,0.1,0.1l0,0l0.5,2.1l0.1,0.3l0.2,1c0.2,0.8,0.6,1.5,1,2.2s1,1.3,1.7,1.7c2.7,1.8,3.2,4.6,3.8,7.4
			c0.5,2.4,1.1,4.7,1.6,7.1h4C105.8,206.1,105.2,202.9,104.7,199.8z"/>
		<path class="st52" d="M106.6,209.2h13.9c0.6,0,1.2,0.2,1.6,0.6c0.4,0.3,0.6,0.8,0.6,1.3l-2.6,27.5c-0.2,1.1-1.2,1.8-2.3,1.7H97
			c-1,0.1-2-0.6-2.2-1.6l-2.6-27.5c0-0.5,0.2-1,0.6-1.3c0.5-0.4,1.1-0.6,1.7-0.6L106.6,209.2L106.6,209.2z"/>
		<path class="st48" d="M106.6,185.7c1.8-0.4,3-2.1,2.8-4l0,0c0,0,0.3,1.5,2.4,0.9c0.3-0.1,0.7,0.1,0.8,0.4c0.1,0.2,0,0.4-0.1,0.5
			c-1.7,2.2-4.5,3.1-7.1,2.2C105.8,185.8,106.2,185.8,106.6,185.7z"/>
		<path class="st48" d="M103,184.3L103,184.3"/>
		<path class="st48" d="M104.4,185.3c-0.5-0.3-1-0.7-1.3-1.2c-0.3-0.4-0.6-1-0.6-1l0,0l-1.8-8.4c-0.5-1.9,0.6-3.8,2.5-4.4
			c1.9-0.5,3.8,0.6,4.4,2.5c0,0.1,0,0.1,0,0.2l1.9,8.7c0,0.1,0,0.2,0,0.2c0.3,1.9-1,3.7-2.9,4c-0.4,0.1-0.7,0.1-1.1,0l0,0
			L104.4,185.3z"/>
		<path class="st54" d="M306.5,260.8c-0.5,1-1.1,2.1-1.5,3.2C305.4,262.9,305.9,261.8,306.5,260.8z"/>
		<path class="st54" d="M321,278c0.5-0.2,1-0.5,1.5-0.7c0.6-0.3,1.2-0.7,1.8-1c-0.6,0.3-1.2,0.6-1.8,1
			C322,277.6,321.5,277.8,321,278z"/>
		<path class="st54" d="M317.9,278.8c-0.5,0.1-1,0.1-1.5,0.1C316.9,278.9,317.4,278.9,317.9,278.8z"/>
		<path class="st54" d="M329.9,274.6L329.9,274.6c-0.3,0-0.6,0.1-1,0.1C329.3,274.7,329.6,274.7,329.9,274.6z"/>
		<path class="st49" d="M302.8,332.4c1.4,0.2,2.7-0.9,2.8-2.3c0-0.4,0-0.7-0.1-1.1c-0.1-0.8-0.2-1.5-0.2-2.3
			c-0.1-0.6-0.1-1.5-0.5-1.8c-0.5-0.5-1.6-1.1-2.1-0.9c-1.5,0.5-2.8,1.3-4,2.3c-0.4,0.3,0.1,1.6,0.2,2.4
			C299.2,330.7,300.8,332.2,302.8,332.4z"/>
		<path class="st49" d="M283.7,315.6c1.8-1.1-0.8-2.6-0.6-4.1c0-0.2-0.7-0.7-1.1-0.7c-1,0-1.9,0.2-2.9,0.5c-1.5,0.4-2.6,1.8-2.4,3.4
			c0.3,0.4,0.8,1.6,1.3,1.6C279.8,316.4,282.1,316.5,283.7,315.6z"/>
		<path class="st49" d="M297,325.3c0.2-1.7-0.9-2.4-4.1-2.6c-1.6-0.1-3,1-3.2,2.6c-0.1,1.3,1.4,2.6,3.4,2.7
			C294.9,328.2,296.8,326.8,297,325.3z"/>
		<path class="st49" d="M282.5,324.5c-0.3,0.9-1.1,2.1-0.8,2.7c0.6,1,1.9,1.7,2.9,2.5c1.8-0.5,3.1-0.6,2.3-2.7
			c-0.2-0.5,0-1.2-0.2-1.7c-0.4-1-1-1.8-1.7-2.6c-0.2-0.2-1.4,0.8-2.1,1.2C282.8,324.1,282.6,324.3,282.5,324.5z"/>
		<path class="st49" d="M258.1,305.4c-1,0.4-1.8,1.2-2.3,2.2c-0.4,1.4,1.5,3.1,3.1,3.1s3.2-1.2,3.2-2.3
			C262,307.4,259.2,305,258.1,305.4z"/>
		<path class="st49" d="M301.5,336.3c-1.1-0.8-2.3-1.2-3.4-0.3c-0.6,0.5-1.2,1.6-1,2c0.5,1.7,2.2,2.9,4,2.8c0.7-0.5,1.4-1.1,1.9-1.8
			C303.8,337.6,302.5,337,301.5,336.3z"/>
		<path class="st49" d="M318.1,328c0.3-0.4,1-0.9,1.2-1.6c0.3-1.2-1.3-2.7-2.5-2.6c-0.8-0.1-1.5,0.4-1.6,1.2c0,0.2,0,0.3,0,0.5
			C315.2,327,315.9,327.9,318.1,328z"/>
		<path class="st49" d="M304.7,344.5c-0.6,0-1.7,1.3-1.6,1.9c0.1,0.7,1.2,1.3,2.3,2.2c0.9-1,1.9-1.7,2-2.5
			C307.6,344.3,305.8,344.5,304.7,344.5z"/>
		<path class="st49" d="M374.9,384.6c-0.8,1.2-1.8,2.2-1.6,2.5l3.9,0.6C376.9,386.7,376,386,374.9,384.6z"/>
		<path class="st49" d="M309.8,323.8c-1.2-0.1-2,0.6-1.8,1.7c0.2,0.7,1.1,1.3,2,2.3c0.9-1.1,1.8-1.8,1.9-2.5
			C312.2,323.8,310.8,323.9,309.8,323.8z"/>
		<path class="st49" d="M290.8,330.9c-1.1,0-2.3,0.2-2.2,1.5c0,0.7,1,1.4,1.9,2.5c1-1.1,1.8-1.7,2-2.4
			C292.8,331.4,291.9,330.9,290.8,330.9z"/>
		<path class="st49" d="M313.4,332.3c0.9,0.6,1.5,1.4,2.1,1.4s1.5-1.2,1.4-1.5c-0.5-0.8-1.2-1.6-1.9-2.2L313.4,332.3z"/>
		<path class="st49" d="M269.2,320.6c-0.4,0.7-1.2,1.5-1.1,2.2s1,1.3,1.7,1.6c0.3,0.1,1.5-0.9,1.4-1.3c-0.3-0.9-0.8-1.8-1.3-2.5
			L269.2,320.6z"/>
		<path class="st49" d="M285.8,333.8c-0.6,0.6-1.5,1.2-1.6,1.9c-0.1,0.5,1,1.3,1.7,1.6c0.4,0.1,1.1-0.5,2-1L285.8,333.8z"/>
		<path class="st49" d="M282.1,353c-0.7,0.5-1.3,1-1.9,1.7c0.5,0.6,1.2,1.1,1.9,1.5c0.2,0.1,0.9-0.9,1.6-1.6
			C283,353.9,282.3,353,282.1,353z"/>
		<path class="st49" d="M347.7,324.3c0.2,0.7,0.7,1.3,1.4,1.6c0.5,0.1,1.1-0.7,2.2-1.5c-1.1-0.9-1.7-1.7-2.3-1.7
			S347.7,323.8,347.7,324.3z"/>
		<path class="st49" d="M273.7,382.7c0.5,0.4,1,1.1,1.5,1.1c0.7,0,1.3-0.5,2.6-1.1c-1.2-1-1.9-2-2.5-1.9S274.3,382,273.7,382.7z"/>
		<path class="st49" d="M258.3,353.9c0.5,0.6,1.1,1.1,1.8,1.5c0.3,0.1,1-0.8,1.7-1.5l-1.6-2.1L258.3,353.9z"/>
		<path class="st49" d="M359.4,364c0,0.5,1,1.4,1.4,1.3c0.7-0.2,1.2-0.8,1.4-1.5c0.1-0.5-0.6-1.1-1.3-2.2
			C360.1,362.7,359.4,363.3,359.4,364z"/>
		<path class="st49" d="M282,331.3c0.1-0.4-0.5-1.1-1.1-2.2c-0.8,1-1.5,1.6-1.6,2.3c-0.1,0.3,0.9,1.2,1.3,1.2
			C281.2,332.4,281.7,332,282,331.3z"/>
		<path class="st49" d="M367.7,354.6c-0.5,0-1.1,0.9-1.3,1.5c-0.1,0.3,0.8,0.9,1.6,1.6c0.6-0.8,1.4-1.5,1.2-1.8
			C369,355.4,368.2,354.6,367.7,354.6z"/>
		<path class="st49" d="M342.4,351c-0.6,0.2-1.1,1-1.7,1.5c0.5,0.4,1,1,1.5,1s1-0.5,2-1.1C343.4,351.7,342.7,350.9,342.4,351z"/>
		<path class="st49" d="M245.3,335.8c-0.1,0.4,0.7,1.2,1.2,1.3s1.2-0.5,1.8-0.8c0-0.2,0-0.5,0.1-0.8c-0.6-0.4-1.2-1-1.8-1
			C246,334.8,245.5,335.2,245.3,335.8z"/>
		<path class="st49" d="M325.6,339c-0.5-0.5-1.1-0.8-1.8-1.1c-0.4-0.1-1,0.5-2,1c1.1,0.7,1.8,1.3,2.5,1.4
			C324.7,340.4,325.2,339.4,325.6,339z"/>
		<path class="st49" d="M321.1,357.8c-0.5,0.1-0.8,0.9-1.2,1.3c0.5,0.4,1,1.1,1.6,1.2c0.4,0.1,0.9-0.7,2-1.5
			C322.2,358.3,321.6,357.7,321.1,357.8z"/>
		<path class="st49" d="M297.2,342.8c-0.6,0.2-1,1-1.5,1.5c0.5,0.4,1,1,1.5,1s1-0.6,2-1.2C298.2,343.4,297.6,342.7,297.2,342.8z"/>
		<path class="st49" d="M316.4,350.5c0.5,0.5,0.9,1.1,1.5,1.4c0.3,0.1,0.9-0.6,1.7-1.2c-0.8-0.5-1.3-1.1-1.8-1
			S316.8,350.1,316.4,350.5z"/>
		<path class="st49" d="M312,353.2c-0.5,0.1-0.9,0.8-1.3,1.3c0.5,0.4,0.9,1.1,1.4,1.1s1-0.6,2-1.4C313,353.7,312.4,353.1,312,353.2z
			"/>
		<path class="st49" d="M306.1,338.9c0.5,0.5,0.8,1.3,1.4,1.5c0.3,0.1,1-0.6,1.9-1.2c-0.8-0.6-1.3-1.3-1.7-1.2
			S306.6,338.5,306.1,338.9z"/>
		<path class="st49" d="M287.5,347.1c0.2,0.6,0.7,1.1,1.3,1.3c0.4,0,1.1-0.7,1.3-1.3c0.1-0.3-0.6-0.9-1.2-1.7
			C288.2,346.2,287.4,346.7,287.5,347.1z"/>
		<path class="st49" d="M276.4,334.1c-1-0.8-1.5-1.5-2-1.5s-1,0.8-1.5,1.2c0.4,0.4,0.8,1,1.3,1.1S275.3,334.5,276.4,334.1z"/>
		<path class="st49" d="M317.8,340.5c0-0.5-0.7-0.9-1.1-1.3c-0.4,0.4-1.1,0.8-1.1,1.2s0.5,0.9,1.1,1.8
			C317.2,341.4,317.8,340.9,317.8,340.5z"/>
		<path class="st49" d="M305.3,352.4c-0.5,0.1-1,0.7-1.6,1.1c0.4,0.4,0.8,1,1.2,1.1s1-0.4,1.9-0.8
			C306.2,353.1,305.7,352.4,305.3,352.4z"/>
		<path class="st49" d="M228.7,299.1c-0.2,0.4,0.4,1.1,0.6,1.7l1-0.5l1.4-1.2c-0.5-0.4-0.9-1.1-1.4-1
			C229.6,298.2,229,298.6,228.7,299.1z"/>
		<path class="st49" d="M327.6,372.2c0.4,0.4,0.8,1,1.2,1.1s1.1-0.4,2-0.8c-0.8-0.6-1.3-1.3-1.8-1.3S328.1,371.8,327.6,372.2z"/>
		<path class="st49" d="M323.3,344.6c0.1,0.5,0.6,0.9,1.2,1.7l1.5-1.7c-0.5-0.3-1-0.8-1.5-0.8S323.2,344.4,323.3,344.6z"/>
		<path class="st49" d="M238.5,319.1c0.5,0.4,1,0.6,1.5,0.8c0.4,0,0.9-0.5,1.8-1c-1-0.5-1.6-1-2.1-0.9S238.9,318.7,238.5,319.1z"/>
		<path class="st49" d="M335,341.3c0.4,0.3,0.9,0.9,1.3,0.9s1-0.5,2.1-1.1c-1-0.4-1.6-0.9-2-0.8S335.5,340.9,335,341.3z"/>
		<path class="st49" d="M250,375.1c-0.5,0.2-1.1,0.5-1.5,0.9l1.2,1.5l1.4-1.5C250.7,375.7,250.3,375.1,250,375.1z"/>
		<path class="st48" d="M297.3,278.7c0,0.1-0.1,0.1-0.1,0.2l0,0L297.3,278.7L297.3,278.7z"/>
		<path class="st55" d="M323.6,244.4L323.6,244.4L323.6,244.4z"/>
		<path class="st55" d="M305.8,275.5c1.5,0.6,3,1.2,4.4,1.9l0,0C308.7,276.7,307.3,276.1,305.8,275.5z"/>
		
			<linearGradient id="SVGID_77_" gradientUnits="userSpaceOnUse" x1="319.6633" y1="716.0781" x2="294.8533" y2="754.188" gradientTransform="matrix(1 0 0 1 0 -440)">
			<stop  offset="0" style="stop-color:#FFFFFF;stop-opacity:0"/>
			<stop  offset="1" style="stop-color:#FF5400"/>
		</linearGradient>
		<path class="st56" d="M334.2,275.3L334.2,275.3c-0.3,1.2-0.6,2.3-1,3.5l-16.3,30.8l0,0c-1.2,2.5-2.5,4.9-3.7,7.4
			c-0.4,0.8-1.2,1.3-2.1,1.5c-0.6,0-1.4-1-1.8-1.7c-0.6-0.9-1-1.8-1.2-2.9c-0.4-1.7-1.5-2.4-3-2c-1.4,0.2-2.3,1.6-2,2.9
			c0,0.1,0,0.1,0,0.2c0.1,0.4,0.3,0.8,0.3,1.1c-0.2,0.8-0.3,1.8-0.8,2.2c-2,1.6-4.9,1.3-6.6-0.6c-1.2-1.5-2.3-1.5-3.9-0.5
			c-1.9,1.1-4.4,0.5-5.5-1.4c-0.2-0.7-0.2-1.5,0.2-2.1c0.4-0.7,1.4-1,1.9-1.7c0.5-0.6,0.8-1.4,0.9-2.2c0-0.2-1.1-0.7-1.7-0.8
			c-1.2-0.2-2.3-0.4-3-1.8c-0.6-1-0.6-2.3,0.1-3.2c2.5-4.6,4.8-9.3,7.1-13.9c1.8-3.7,3.6-7.3,5.4-11c3.4,1.4,10.1-2.8,13-1.5
			c0.5,0.2,1,0.5,1.6,0.6c1.5,0.6,3.1,0.9,4.7,0.9c0.5,0,1,0,1.5-0.1c1.1-0.1,2.1-0.4,3.1-0.8c0.5-0.2,1-0.5,1.5-0.7
			c0.6-0.3,1.2-0.7,1.8-1c0.6-0.3,1.2-0.6,1.8-0.8c0.6-0.2,1.2-0.4,1.9-0.6c0.3-0.1,0.6-0.1,1-0.2c0.3-0.1,0.6-0.1,1-0.1h0.4
			c1.3,0.1,2.6,0.3,3.9,0.6L334.2,275.3z"/>
		<path class="st55" d="M326.1,275.5c-0.6,0.2-1.2,0.5-1.8,0.8C324.9,276,325.5,275.8,326.1,275.5z"/>
		
			<linearGradient id="SVGID_78_" gradientUnits="userSpaceOnUse" x1="323.471" y1="718.5569" x2="298.6709" y2="756.6669" gradientTransform="matrix(1 0 0 1 0 -440)">
			<stop  offset="0" style="stop-color:#FFFFFF"/>
			<stop  offset="1" style="stop-color:#FF5400"/>
		</linearGradient>
		<path class="st57" d="M326.1,275.5c-0.6,0.2-1.2,0.5-1.8,0.8C324.9,276,325.5,275.8,326.1,275.5z"/>
		<path class="st55" d="M316.4,278.9c-1.6,0-3.2-0.3-4.7-0.9C313.2,278.6,314.8,278.9,316.4,278.9z"/>
		
			<linearGradient id="SVGID_79_" gradientUnits="userSpaceOnUse" x1="316.8059" y1="714.2166" x2="291.9959" y2="752.3266" gradientTransform="matrix(1 0 0 1 0 -440)">
			<stop  offset="0" style="stop-color:#FFFFFF"/>
			<stop  offset="1" style="stop-color:#FF5400"/>
		</linearGradient>
		<path class="st58" d="M316.4,278.9c-1.6,0-3.2-0.3-4.7-0.9C313.2,278.6,314.8,278.9,316.4,278.9z"/>
		<path class="st55" d="M310.1,277.4c0.5,0.2,1,0.5,1.6,0.6C311.2,277.9,310.7,277.6,310.1,277.4z"/>
		
			<linearGradient id="SVGID_80_" gradientUnits="userSpaceOnUse" x1="314.2537" y1="712.5486" x2="289.4437" y2="750.6586" gradientTransform="matrix(1 0 0 1 0 -440)">
			<stop  offset="0" style="stop-color:#FFFFFF"/>
			<stop  offset="1" style="stop-color:#FF5400"/>
		</linearGradient>
		<path class="st59" d="M310.1,277.4c0.5,0.2,1,0.5,1.6,0.6C311.2,277.9,310.7,277.6,310.1,277.4z"/>
		<path class="st55" d="M328,274.9c-0.6,0.2-1.3,0.4-1.9,0.6C326.8,275.3,327.4,275.1,328,274.9z"/>
		
			<linearGradient id="SVGID_81_" gradientUnits="userSpaceOnUse" x1="324.4496" y1="719.196" x2="299.6496" y2="757.306" gradientTransform="matrix(1 0 0 1 0 -440)">
			<stop  offset="0" style="stop-color:#FFFFFF"/>
			<stop  offset="1" style="stop-color:#FF5400"/>
		</linearGradient>
		<path class="st60" d="M328,274.9c-0.6,0.2-1.3,0.4-1.9,0.6C326.8,275.3,327.4,275.1,328,274.9z"/>
		<path class="st48" d="M334.2,275.3L334.2,275.3c0.1,0,0.1,0,0-0.1V275.3z"/>
		<path class="st55" d="M333.7,266.8c-0.2,0.3-0.4,0.6-0.6,0.9C333.3,267.4,333.5,267.1,333.7,266.8z"/>
		<path class="st55" d="M334.2,275.3c-1.3-0.3-2.6-0.4-3.9-0.6C331.6,274.8,332.9,275,334.2,275.3z"/>
		<path class="st55" d="M334.2,275.3L334.2,275.3v-0.1l0,0V275.3z"/>
		<path class="st61" d="M323.5,244.4L323.5,244.4L323.5,244.4z"/>
		<path class="st61" d="M323.1,245.5L323.1,245.5v-0.1V245.5z"/>
		<path class="st48" d="M310.1,277.4L310.1,277.4c0.5,0.2,1,0.5,1.6,0.6c1.5,0.6,3.1,0.9,4.7,0.9c0.5,0,1,0,1.5-0.1
			c1.1-0.1,2.1-0.4,3.1-0.8c0.5-0.2,1-0.5,1.5-0.7c0.6-0.3,1.2-0.7,1.8-1c0.6-0.3,1.2-0.6,1.8-0.8c0.6-0.2,1.2-0.4,1.9-0.6
			c0.3-0.1,0.6-0.1,1-0.2c0.3,0,0.6-0.1,1-0.1h0.4c1.3,0.1,2.6,0.3,3.9,0.6V275c0.6-2.8,0.8-5.6,0.5-8.4v-0.1
			c-0.4-3.1-1.2-6.2-2.5-9.1c-1-1.9-0.2-4.3,1.8-5.3c0.4-0.2,0.9-0.3,1.3-0.4c0.1,0,0.2-0.1,0.3-0.1h0.1l0.7-1.2l0,0l-0.2-1
			c-0.4-0.2-0.6-0.8-0.4-1.2l0.9-1.9c0.2-0.5,0-1-0.4-1.2l-8.5-4.1c-0.5-0.2-1,0-1.2,0.4l-0.9,1.9c-0.2,0.5-0.8,0.6-1.2,0.4l0,0
			l-0.9,0.6l0,0l0,0l-0.4,1v0.1c0,0.1,0,0.3,0,0.4c1.3,2.6,0.7,4.5-2,5.5c-1.9,0.7-3.8,1.3-5.6,2.1c-3.6,1.7-7.1,3.6-9,7.2
			c-2.2,4.1-7.4,13.8-9.2,18l0,0l-0.1,0.2C300.6,280.3,307.3,276,310.1,277.4"/>
		<circle id="미세플라스틱-182-2_1_" class="st49" cx="134.7" cy="206.8" r="1.4"/>
		<circle id="미세플라스틱-182-3_1_" class="st49" cx="126.9" cy="189.5" r="1.4"/>
		<circle id="미세플라스틱-182-4_1_" class="st49" cx="134.5" cy="179.9" r="1.4"/>
		<circle id="미세플라스틱-182-5_1_" class="st49" cx="104.2" cy="174.2" r="1.4"/>
		<circle id="미세플라스틱-182-6_1_" class="st49" cx="106" cy="181.8" r="1.4"/>
		<circle id="미세플라스틱-182-7_1_" class="st49" cx="64" cy="213" r="1.4"/>
		<circle id="미세플라스틱-182-8_1_" class="st49" cx="57.4" cy="220.5" r="1.4"/>
		<circle id="미세플라스틱-182-9_1_" class="st49" cx="48.1" cy="216.6" r="1.4"/>
		<circle id="미세플라스틱-182-10_1_" class="st49" cx="46.4" cy="230.3" r="1.4"/>
		<circle id="미세플라스틱-182-11_1_" class="st49" cx="62.2" cy="232.8" r="1.4"/>
		<circle id="미세플라스틱-182-12_1_" class="st49" cx="127.8" cy="213.4" r="1.4"/>
		<circle id="미세플라스틱-182-13_1_" class="st49" cx="126.7" cy="202.9" r="1.4"/>
		<circle id="미세플라스틱-182-14_1_" class="st49" cx="133.5" cy="194.8" r="1.4"/>
		<circle id="미세플라스틱-182-15_1_" class="st49" cx="180.3" cy="250.1" r="1.4"/>
		<circle id="미세플라스틱-182-16_1_" class="st49" cx="186.1" cy="261.1" r="1.4"/>
		<circle id="미세플라스틱-182-17_1_" class="st49" cx="182.9" cy="276.5" r="1.4"/>
		<circle id="미세플라스틱-182-18_1_" class="st49" cx="183.8" cy="304.8" r="1.4"/>
		<circle id="미세플라스틱-182-19_1_" class="st49" cx="193.2" cy="299.2" r="1.4"/>
		<circle id="미세플라스틱-182-20_1_" class="st49" cx="193.2" cy="310.2" r="1.4"/>
		<circle id="미세플라스틱-182-21_1_" class="st49" cx="186.8" cy="320.5" r="1.4"/>
		<circle id="미세플라스틱-182-22_1_" class="st49" cx="195" cy="320.5" r="1.4"/>
		<circle id="미세플라스틱-182-23_1_" class="st49" cx="200.1" cy="313.4" r="1.4"/>
		<circle id="미세플라스틱-182-24_1_" class="st49" cx="200.1" cy="328" r="1.4"/>
		<circle id="미세플라스틱-182-25_1_" class="st49" cx="198.4" cy="331.8" r="1.4"/>
		<circle id="미세플라스틱-182-26_1_" class="st49" cx="191.7" cy="328" r="1.4"/>
		<circle id="미세플라스틱-182-27_1_" class="st49" cx="191.7" cy="337.8" r="1.4"/>
		<circle id="미세플라스틱-182-28_1_" class="st49" cx="191.7" cy="271.1" r="1.4"/>
		<circle id="미세플라스틱-182-29_1_" class="st49" cx="151.9" cy="250.5" r="1.4"/>
		<circle id="미세플라스틱-182-30_1_" class="st49" cx="140.5" cy="248.9" r="1.4"/>
		<circle id="미세플라스틱-182-31_1_" class="st49" cx="128" cy="256" r="1.4"/>
		<circle id="미세플라스틱-182-32_1_" class="st49" cx="114" cy="249.2" r="1.4"/>
		<circle id="미세플라스틱-182-33_1_" class="st49" cx="98.2" cy="250.3" r="1.4"/>
		<circle id="미세플라스틱-182-34_1_" class="st49" cx="73.5" cy="254.9" r="1.4"/>
		<circle id="미세플라스틱-182-35_1_" class="st49" cx="88.2" cy="256.4" r="1.4"/>
		<path class="st62" d="M1302.7,308.4c0.3-3.8-5.2-29.1-8.6-38.6c-2.3-6.1-5-12.1-8.1-17.8c-1.4-7.3-3.9-18.8-7.5-33
			c-2.4-9.3-5.8-22.7-11.6-25.7c-1.8-0.9-3.8-1.5-5.8-1.6c-6.9-3.6-17.4-4.2-23.3-8.3l-0.3-0.1l-0.3-12.8c3.1-3,5-7.5,6.1-12.4
			c1.9-1.4,3.3-5,3.2-7.5c-0.1-1.4-0.9-2.7-2.1-3.4c-0.4-11.7-7.7-19-16.7-19s-16.3,7.3-16.7,19c-1.3,0.7-2,2-2.1,3.4
			c-0.1,2.4,1.2,6,3.2,7.5c1.1,5,3,9.5,6.2,12.6l-0.3,12.4l-0.6,0.4c-5.9,4.2-16.4,4.8-23.4,8.3c-1.9,0.2-3.8,0.7-5.6,1.6
			c-5.8,3-9.2,16.4-11.6,25.7c-3.6,14.2-6.1,25.6-7.5,33c-3,5.8-5.7,11.7-8.1,17.9c-3.4,9.4-8.9,34.8-8.6,38.6
			c-0.3,5.5-1.3,21.1,0,26c0.8,3.1,5.1,4.4,6.6,4.4s0.5-15.8,3.2-17.8s4,12.2,5.8,9.5c2.1-3.4-2-17.1-4.8-23.9
			c0.5-2.9,1.5-5.7,3-8.2c5.8-10.7,11.8-24.9,12.9-29.1c0.7-2.4,1.2-5.4,1.7-8.5c4.2-8.9,7.9-15.4,13-31.1c1.7,9.4,3.5,19.6,5,28.8
			c0.8,5.7,0.9,11.5,0.4,17.2c-0.6,1.2-1.1,2.5-1.4,3.8c-5.6,19.4-6.6,33.4-4.7,55.9c1.6,19,3.7,36.8,5.3,48.5
			c-1.3,4.1-2.8,9.7-3.6,19.9c-1.3,14.5,3,41.6,3.4,56.2c-0.1,0.3-0.1,0.7-0.1,1c-0.3,17-5.9,19.1-5.8,24c0.1,4.6,6.1,5.6,10.2,6.1
			c3.9,0.6,7.7-1.6,9.3-5.2c1.4-4.2,1-9.6,0.1-19c-0.2-1.9-0.5-3.7-1-5.5c0.2-12.8,3.2-33.6,4.2-46.9c0.6-9.4,0.3-18.9-1-28.3
			c1.7-11,6-37.1,7-50.8c0.5-6,0.9-11.4,1.2-16.4c3.5,0.5,7.1,0.5,10.6,0c0.3,5.1,0.8,10.4,1.2,16.4c1.1,13.8,5.3,39.8,7,50.8
			c-1.3,9.4-1.6,18.9-1,28.3c1.1,13.4,4,34.2,4.2,46.9c-0.5,1.8-0.9,3.7-1,5.5c-0.9,9.3-1.3,14.7,0.1,19c1.6,3.6,5.3,5.8,9.3,5.2
			c4-0.5,10.1-1.5,10.2-6.1c0.1-5-5.5-7.1-5.8-24c0-0.3-0.1-0.7-0.1-1c0.3-14.5,4.6-41.7,3.4-56.2c-0.4-6.7-1.6-13.4-3.6-19.9
			c1.6-11.6,3.7-29.5,5.3-48.5c1.8-22.4,0.8-36.4-4.7-55.9c-0.4-1.5-1-2.9-1.7-4.3c-0.5-5.6-0.3-11.2,0.4-16.7
			c1.5-9.4,3.4-19.6,5.1-29.2c5.3,16.1,8.9,22.6,13.2,31.7c0.5,3.1,1.1,6.1,1.7,8.5c1.1,4.2,7.1,18.4,12.9,29.1
			c1.4,2.6,2.5,5.3,3,8.2c-2.7,6.9-6.9,20.5-4.8,23.9c1.7,2.8,3.1-11.4,5.8-9.5s1.7,17.8,3.2,17.8s5.8-1.3,6.6-4.4
			C1303.9,329.5,1302.9,313.9,1302.7,308.4z"/>
		<g id="미세_플라스틱_그룹-6-2_1_">
			<circle id="미세플라스틱-177-2_1_" class="st49" cx="1221.7" cy="247.8" r="2.5"/>
			<circle id="미세플라스틱-178-2_1_" class="st49" cx="1224.7" cy="243.1" r="2.5"/>
			<circle id="미세플라스틱-179-2_1_" class="st49" cx="1219.8" cy="238.4" r="2.5"/>
			<circle id="미세플라스틱-180-2_1_" class="st49" cx="1222.8" cy="236.6" r="2.5"/>
			<circle id="미세플라스틱-181-2_1_" class="st49" cx="1227.2" cy="249.1" r="2.5"/>
			<circle id="미세플라스틱-182-36_1_" class="st49" cx="1217.6" cy="244.7" r="2.5"/>
			<circle id="미세플라스틱-183-2_1_" class="st49" cx="1215.1" cy="241.2" r="2.5"/>
			<circle id="미세플라스틱-184-2_1_" class="st49" cx="1230.5" cy="244.7" r="2.5"/>
			<circle id="미세플라스틱-185-2_1_" class="st49" cx="1226.5" cy="238.4" r="2.5"/>
			<circle id="미세플라스틱-186-2_1_" class="st49" cx="1230" cy="236.6" r="2.5"/>
			<circle id="미세플라스틱-187-2_1_" class="st49" cx="1234.3" cy="248" r="2.5"/>
			<circle id="미세플라스틱-188-2_1_" class="st49" cx="1236.9" cy="243.1" r="2.5"/>
			<circle id="미세플라스틱-189-2_1_" class="st49" cx="1241.6" cy="247.8" r="2.5"/>
			<circle id="미세플라스틱-190-2_1_" class="st49" cx="1233" cy="240.2" r="2.5"/>
			<circle id="미세플라스틱-191-2_1_" class="st49" cx="1237.8" cy="257.4" r="2.5"/>
			<circle id="미세플라스틱-192-2_1_" class="st49" cx="1241.6" cy="254" r="2.5"/>
			<circle id="미세플라스틱-193-2_1_" class="st49" cx="1236.1" cy="263.6" r="2.5"/>
			<circle id="미세플라스틱-194-2_1_" class="st49" cx="1233" cy="266.7" r="2.5"/>
			<circle id="미세플라스틱-195-2_1_" class="st49" cx="1241.6" cy="261.2" r="2.5"/>
			<circle id="미세플라스틱-196-2_1_" class="st49" cx="1233" cy="253.5" r="2.5"/>
			<circle id="미세플라스틱-197-2_1_" class="st49" cx="1237.8" cy="251.6" r="2.5"/>
			<circle id="미세플라스틱-198-2_1_" class="st49" cx="1231.1" cy="260.5" r="2.5"/>
			<circle id="미세플라스틱-199-2_1_" class="st49" cx="1228.4" cy="265.6" r="2.5"/>
			<circle id="미세플라스틱-200-2_1_" class="st49" cx="1221.1" cy="265.6" r="2.5"/>
			<circle id="미세플라스틱-201-2_1_" class="st49" cx="1225.1" cy="267.7" r="2.5"/>
			<circle id="미세플라스틱-202-2_1_" class="st49" cx="1228.6" cy="255.8" r="2.5"/>
			<circle id="미세플라스틱-203-2_1_" class="st49" cx="1224.7" cy="261.2" r="2.5"/>
			<circle id="미세플라스틱-204-2_1_" class="st49" cx="1217.3" cy="261.2" r="2.5"/>
			<circle id="미세플라스틱-205-2_1_" class="st49" cx="1214.6" cy="258.7" r="2.5"/>
			<circle id="미세플라스틱-206-2_1_" class="st49" cx="1224.2" cy="253.5" r="2.5"/>
			<circle id="미세플라스틱-207-2_1_" class="st49" cx="1221.1" cy="256.7" r="2.5"/>
			<circle id="미세플라스틱-208-2_1_" class="st49" cx="1214" cy="255" r="2.5"/>
			<circle id="미세플라스틱-209-2_1_" class="st49" cx="1218.6" cy="251.6" r="2.5"/>
			<circle id="미세플라스틱-210-2_1_" class="st49" cx="1213.4" cy="248" r="2.5"/>
			<circle id="미세플라스틱-211-2_1_" class="st49" cx="1215.1" cy="249.8" r="2.5"/>
		</g>
		<path class="st63" d="M69.8,207.6H37.6l0,0v-15.1c0-1.1,0.9-2,2-2h28.2c1.1,0,2,0.9,2,2V207.6L69.8,207.6z"/>
		<line class="st64" x1="1.9" y1="429.9" x2="199.2" y2="429.9"/>
		<line class="st64" x1="227.3" y1="429.9" x2="413" y2="429.9"/>
		<text transform="matrix(1 0 0 1 1.9042 421.7685)" class="st49 st65 st46">PRIMA</text>
		<text transform="matrix(1 0 0 1 38.5443 421.7685)" class="st49 st65 st46">R</text>
		<text transform="matrix(1 0 0 1 45.9943 421.7685)" class="st49 st65 st46">Y MICROPL</text>
		<text transform="matrix(1 0 0 1 109.3242 421.7685)" class="st49 st65 st46">AS</text>
		<text transform="matrix(1 0 0 1 124.5342 421.7685)" class="st49 st65 st46">TICS</text>
		<line class="st64" x1="0.2" y1="543.8" x2="197.5" y2="543.8"/>
		<text transform="matrix(1 0 0 1 0.2343 534.9585)" class="st49 st65 st66">C</text>
		<text transform="matrix(1 0 0 1 7.6843 534.9585)" class="st49 st65 st66">A</text>
		<text transform="matrix(1 0 0 1 14.7543 534.9585)" class="st49 st65 st66">U</text>
		<text transform="matrix(1 0 0 1 22.6642 534.9585)" class="st49 st65 st66">S</text>
		<text transform="matrix(1 0 0 1 29.0842 534.9585)" class="st49 st65 st66">A</text>
		<text transform="matrix(1 0 0 1 35.7742 534.9585)" class="st49 st65 st66">TION OF MICROPL</text>
		<text transform="matrix(1 0 0 1 128.7943 534.9585)" class="st49 st65 st66">AS</text>
		<text transform="matrix(1 0 0 1 142.5043 534.9585)" class="st49 st65 st66">TICS</text>
		<line class="st67" x1="227.3" y1="429.9" x2="393.1" y2="429.9"/>
		<text transform="matrix(1 0 0 1 227.9442 421.7685)" class="st49 st65 st46">SECON</text>
		<text transform="matrix(1 0 0 1 268.6042 421.7685)" class="st49 st65 st46">D</text>
		<text transform="matrix(1 0 0 1 276.8242 421.7685)" class="st49 st65 st46">A</text>
		<text transform="matrix(1 0 0 1 285.0143 421.7685)" class="st49 st65 st46">R</text>
		<text transform="matrix(1 0 0 1 292.4642 421.7685)" class="st49 st65 st46">Y</text>
		<text transform="matrix(1 0 0 1 300.2343 421.7685)" class="st65 st46"> </text>
		<text transform="matrix(1 0 0 1 303.4342 421.7685)" class="st49 st65 st46"> MICROPL</text>
		<text transform="matrix(1 0 0 1 359.0043 421.7685)" class="st49 st65 st46">AS</text>
		<text transform="matrix(1 0 0 1 374.2142 421.7685)" class="st49 st65 st46">TICS</text>
		<text transform="matrix(1 0 0 1 227.3142 445.7284)" class="st49 st45 st66">The result of larger pieces of </text>
		<text transform="matrix(1 0 0 1 227.3142 458.7284)" class="st49 st45 st66">plastic breaking down into smaller </text>
		<text transform="matrix(1 0 0 1 227.3142 471.7284)" class="st49 st45 st66">pieces due to sunlight </text>
		<text transform="matrix(1 0 0 1 336.3142 471.7284)" class="st49 st45 st66">e</text>
		<text transform="matrix(1 0 0 1 342.1543 471.7284)" class="st49 st45 st66">xpo</text>
		<text transform="matrix(1 0 0 1 360.1042 471.7284)" class="st49 st45 st66">sur</text>
		<text transform="matrix(1 0 0 1 375.2443 471.7284)" class="st49 st45 st66">e</text>
		<text transform="matrix(1 0 0 1 381.4642 471.7284)" class="st49 st45 st66">.</text>
		<line class="st68" x1="419.2" y1="310.7" x2="462" y2="310.7"/>
		<polygon class="st69" points="461.1,314 466.8,310.7 461.1,307.4 		"/>
		<path class="st48" d="M442.6,286.6l-2.2,2.3l-1.4-1.4l3.8-3.9h2v13.3h-2.3L442.6,286.6z"/>
		<circle class="st70" cx="443" cy="290.2" r="10.9"/>
		<line class="st68" x1="638.3" y1="310.7" x2="681.2" y2="310.7"/>
		<polygon class="st69" points="680.3,314 685.9,310.7 680.3,307.4 		"/>
		<path class="st48" d="M657.2,295.1c5.2-3.9,7.2-5.7,7.2-7.6c-0.1-1.2-1.1-2.1-2.3-2H662c-1.4,0-2.7,0.6-3.6,1.6l-1.4-1.5
			c1.2-1.4,3-2.2,4.9-2.1c2.6,0,4.8,1.5,4.8,4.1c0,2.5-2.3,4.7-5.8,7.4h5.9v2.1h-9.7L657.2,295.1z"/>
		<circle class="st70" cx="662" cy="290.2" r="10.9"/>
		<line class="st68" x1="839.5" y1="310.7" x2="882.4" y2="310.7"/>
		<polygon class="st69" points="881.4,314 887.1,310.7 881.4,307.4 		"/>
		<path class="st48" d="M860,293.3c1,1,2.3,1.6,3.7,1.6c1.8,0,2.8-0.8,2.8-2s-1.1-1.9-3-1.9c-0.6,0-1.3,0-1.5,0v-2c0.2,0,1,0,1.5,0
			c1.6,0,2.7-0.5,2.7-1.8s-1.2-1.9-2.7-1.9c-1.3,0-2.5,0.5-3.4,1.5l-1.2-1.5c1.2-1.4,3-2.2,4.9-2.1c2.9,0,4.8,1.4,4.8,3.6
			c-0.1,1.6-1.3,2.9-2.9,3.1c1.7,0.1,3,1.5,3.1,3.2c0,2.3-1.9,3.9-5,3.9c-1.9,0.1-3.8-0.7-5-2.2L860,293.3z"/>
		<circle class="st70" cx="863.3" cy="290.2" r="10.9"/>
		<g>
			<line class="st68" x1="1076.7" y1="310.7" x2="1119.5" y2="310.7"/>
			<polygon class="st69" points="1118.6,314 1124.3,310.7 1118.6,307.4 			"/>
		</g>
		<path class="st48" d="M1101.2,293.8h-6.4v-1.9l5.5-8.4h3.2v8.3h1.8v2.1h-1.8v3h-2.3L1101.2,293.8L1101.2,293.8z M1097.1,291.7h4.1
			v-6.2L1097.1,291.7z"/>
		<circle class="st70" cx="1100.5" cy="290.2" r="10.9"/>
		<text transform="matrix(1 0 0 1 1.9042 445.7284)" class="st49 st45 st66">Tiny pieces of plastic that are </text>
		<text transform="matrix(1 0 0 1 1.9042 458.7284)" class="st49 st45 st66">purposefully manufactured.</text>
		<g id="MHSeby.tif_1_">
			<path class="st62" d="M492.4,256.6l0.5-0.1c0,0.6,0,0.6,0.9,1.6l-1.1,1l0.1,0.1l2.4-1.3l0.1,0.1l-0.6,1.1l3-0.6l0.1,0.2l-1.8,2
				l0.2,0.2c1.8-1.5,3.8-2.7,5.9-3.8c-1,1.1-2.4,1.9-2.6,3.6l0.4-0.4l5.4-4.3c0.5-0.4,1.2-0.6,1.9-0.5c1.4,0.2,2.9,0.1,4.3-0.3
				c0.4-0.1,0.8-0.2,1.1,0.2c0,0.1,0.3,0,0.5-0.1c0.5-0.1,1.1-0.2,1.7-0.1c1.1,0.3,2.3,0.3,3.4,0c0.6-0.1,1.2-0.2,1.8-0.2
				c-0.3,1.4-0.6,2.7-0.9,3.9c0,0.2-0.3,0.4-0.5,0.5c-0.4,0.2-0.9,0.3-1.3,0.5c-0.2,0.1-0.5,0.3-0.5,0.6c-0.1,0.6-0.5,0.7-1,0.8
				c-0.7,0.2-1.5,0.3-2.2,0.5c-0.5,0-0.9,0.4-1,0.9c-0.1,0.4-0.8,0.8-1.2,1c-0.9,0.5-1.7,1.2-2.2,2.1c-0.2,0.4-0.3,0.8-0.4,1.2
				l1.6-0.5c-1,1.8-2.6,3.1-2.9,5.3l4-2.1l0.1,0.2c-0.7,1.3-0.8,2.9-0.3,4.3c0.8-0.8,1.7-1.5,2.4-2.4c1.2-1.3,2.3-2.7,3.5-4
				c0.6-0.7,1.2-1.3,1.9-1.9c1-0.7,1.6-1.8,1.6-3c0-0.6,0.1-1.2,0.2-1.8c0.1-0.6,0.3-1.1,0.6-1.7c0.8-1.5,1.6-2.9,2.5-4.4
				c0.2-0.3,0.5-0.6,0.8-0.7c3.2-0.8,6.4-1.7,9.7-2.4c2.5-0.5,5.1-0.8,7.7-1.2c4.1-0.5,8.1-1.6,11.9-3.3c2.4-1,4.8-2,7.1-3
				c3.1-1.4,6-3.4,8.5-5.7c1.4-1.4,3.1-2.5,4.9-3.3c2.6-0.9,5.3-1.2,8-1c0.6,0,1.1-0.1,1.7-0.1c0.8,0,1.6,0.1,2.3,0.2
				c1.6,0.4,3.1,1,4.7,1.4c0.4,0.1,0.8,0.1,1.2,0.1c1,0,1.1-0.2,1.2-1.2c0-0.9-0.4-1.7-1-2.4c-1.1-1.1-2.5-1.9-4.1-2.2
				c-0.7-0.1-1.3-0.3-1.9-0.4c-1.8-0.4-3.5-1.3-4.7-2.8c-0.2-0.1-0.3-0.3-0.4-0.5c-0.4-1.2-1.3-2.1-2.5-2.5
				c-1.3-0.8-2.8-1.3-4.3-1.6c-3.3-0.2-6.6-1.1-9.9-0.2c-0.9,0.2-1.7,0.6-2.6,0.7c-1.2,0.3-1.8-0.1-1.8-1.4c-0.1-1.5,0-2.9,0.2-4.3
				c0.6-3.2,1.3-6.4,2.2-9.6c0.6-1.5,1.2-3,2-4.5c0.5-1.1,1-2.2,1.5-3.4c0.4-1.1,1-2.2,1.8-3c0.4-0.5,0.7-1.1,0.8-1.8
				c0.1-0.6,0.3-1.2,0.7-1.7c0.5-0.7,0.7-1.6,0.4-2.4c-0.1-0.3-0.2-0.5-0.3-0.7c-0.5-0.8-0.4-1.8,0.1-2.6c0.2-0.4,0.3-0.9,0.2-1.3
				c-0.2-1.6-0.5-3.1-0.7-4.7c-0.2-1.3-0.1-2.7-0.3-4c-0.3-2.1-0.7-4.2-1.1-6.2c-1.3-6.5-3.9-12.6-7.8-17.8c-1-1.6-2.5-2.8-4.3-3.6
				c-1.4-0.4-2.8-0.6-4.3-0.4l-0.1,0.2l1.8,0.8c-0.4,0.4-1.3,0.1-1.2,1c-0.5-0.1-1-0.3-1.5-0.3s-0.9,0.1-1.4,0.2
				c0.5,0.5,1.5,0.5,1.4,1.6c-1.5-0.9-3-0.2-4.5,0c1.2,0.3,1.4,1.6,2.7,2l-0.9,0.6l1.6,0.9c-0.6,0.5-1.4,0.6-2.2,0.4
				c-0.7-0.1-1.4-0.1-2.1,0c-0.1,0-0.2,0-0.3,0.1l-1.2,0.8l0.7,0.8c-0.4,0.5-1.3,0.2-1.3,1l-1.6,0.2v0.2l2.1,1.6l-2.3,0.8v0.2
				l2.1,1.2c0.3,0.2,0.8,0.2,0.8,0.8c0,0.2,0.4,0.3,0.6,0.5s0.4,0.2,0.6,0.3c0,0.3-0.1,0.5-0.2,0.8c-0.1,0.2-0.3,0.4-0.5,0.6
				c-0.5,0.2-0.6,0.5-0.3,0.9c0.2,0.3,0.5,0.5,0.8,0.8c0.2,0.2,0.5,0.2,0.7,0.4c0.1,0.1,0.2,0.3,0.2,0.5c0,0.1-0.3,0.2-0.5,0.3
				c-0.4,0.1-0.9,0.1-1.2,0.2l-0.5,1.2l0.5,0.6l-1.9,0.6l0.2,0.7l-1.7,0.3v0.2l1.3,1.2l-0.1,0.2c-1.3-0.3-2.8-1.3-3.7,0.7
				c0.3,0.2,0.7,0.4,1,0.7s0.4,0.5-0.1,0.7l-1.8,0.8v0.2h2.5v0.2c-1.5,0.4-3,1-4.3,1.9c0.8,0.7,1.8,0.2,2.8,0.6l-2.1,0.6l0.3,0.8
				l-1.9,0.5l0.4,1.5c-1.3,0.4-1.3,0.4-1.3,1.6h-0.8l1.4,2.6l-1.4,1.1c-0.4,0.3-0.5,0.6,0,1c0.4,0.3,0.7,0.7,0.9,1.1
				c0.1,0.5,0,1-0.2,1.3c-0.6,0.5-0.8,1.5-0.4,2.2c0.1,0.4,0.2,0.9,0.1,1.3c-0.1,0.7,0,0.9,0.7,0.9c0.3,0,0.7-0.1,1-0.1l-1.6,2
				l0.2,0.2l1.2-0.3l-1.9,2.5l0.7,0.1l-0.7,0.6c-0.3-0.4-0.7-0.9-0.9-1.4c-3.3-6.3-8-11.7-13.7-15.8c-3.3-2.4-6.8-4.6-10.2-6.9
				c-6.8-4.4-13.2-9.3-19.7-14.1c-6.1-4.6-11.9-9.5-18.4-13.7c-1.1-0.7-2-1.7-3.1-2.4c-0.9-0.6-1.9-1.1-2.9-1.6
				c-0.1,0-0.2-0.1-0.2-0.1c-0.6,0.6-1.2,0.2-1.9,0.2c-0.1,0-0.2,0.1-0.2,0.1l0.7,0.9c-0.5,0.6-1.4-0.3-1.6,0.7
				c-0.2,0-0.5-0.1-0.7-0.2c-0.3-0.2-0.8-0.1-1,0.2c-0.4,0.3-0.9,0.5-1.3,0.6l-0.2,0.3c0.3,0.2,0.6,0.3,0.9,0.5s0.5,0.3,0.8,0.6
				l-1,0.3l-0.1,0.2l1.5,0.8h-0.6c-1.4,0.1-2.9,0.3-4.3,0.5c-0.2,0-0.6-0.1-0.6,0.5c0,0.1-0.6,0.2-1.1,0.4l2.9,1.5l-0.1,0.2
				l-0.8,0.4l1.5,1v0.1c-0.6,0.6-0.6,1,0.3,1.2c1.2,0.3,2.5,0.4,3.8,0.6c0.1,0,0.3,0,0.6,0.1l-1,0.6c0.9,1,2.2,1,3,1.4
				c0.1,0.4,0.2,0.8,0.3,1.2c0.7,0.9,1.5,1.8,2.2,2.7c-0.3,0.3,0.1,0.6,0.5,0.7c0.4,0.2,1,0.3,1.6,0.4c-0.5,0.4-0.5,1.1-0.1,1.6
				c0,0,0,0,0.1,0.1c0.4,0.4,0.9,0.7,1.4,1l-0.7,0.5c0.4,0.3,0.8,0.5,1.3,0.8c0.4,0.2,0.8,0.5,1.1,0.6c1.4,0.5,1.3,1.7,1.7,2.7
				c0,0.1,0.1,0.2,0.1,0.2s0.1,0,0.1,0.1l0.2-0.4c0.9-0.1,0.9,0.8,1.3,1.2s0.7,0.8,1.1,1.3c0.6-0.2,0.8,0.3,1,0.7
				c0.7,1.3,1.2,2.6,1.9,3.8c0.2,0.3,0.3,1.1,1,0.7c0,1.8,1,3,2.1,4.3c0.6,0.5,1.2,1,1.9,1.5c0.3,0.3,0.5,0.7,0.6,1.1
				c0.1,0.3,0.1,0.6,0.2,0.8c0,0.2,0.2,0.5,0.3,0.5c1.1,0.1,1.4,1.2,2.3,1.5c0.5,0.1,0.9,0.4,1.1,0.9l0.3-0.1l0.1,0.9l0.7-0.4
				l-0.3,1.1c0.3,0.1,0.6,0.2,0.9,0.2c0.7,0,1,0.3,0.8,1l-0.1,0.6l0.6,0.1l0.1,0.6l0.9-0.4l-0.3,2.1l1.2-0.4c-0.2,1.3-1,2.6-0.5,3.9
				c0.8,0,1.6-0.4,2-1.2c0.1-0.2,0.6-0.3,1-0.6c0.2,1.5,0.5,2.9-0.2,4.2c0.8,0.2,0.8-0.6,1.2-0.8c0.1,0.2,0.2,0.4,0.3,0.6
				c0.1,0.4,0.3,0.6,0.8,0.6s0.6,0.2,0.5,0.7s-0.3,1.2-0.4,1.9l0.3,0.1l0.7-0.8c0.5,0.3,0.1,1.5,1.2,1.3c-0.1,0.4-0.2,0.7-0.2,1
				c-0.2,0.5,0,1,0.5,1.2c0.5,0.3,0.8,0.8,0.8,1.4c0.1,0.5,0.6,1,0.9,1.5c0.2,0.3,0.4,0.5,0.5,0.8c0.2,0.4,0.4,0.8,0.6,1.2
				c0.4,0.3,0.6,0.8,0.6,1.3c0,0.6,0.3,0.7,0.8,0.5c0.2,0.4,0,1.1,0.7,1.2c0.1,0,0.1,0.3,0.1,0.4c0.2,0.6,0.4,1.2,0.7,1.9
				c0.1,0.2,0.4,0.2,0.8,0.4c0,0.1,0.1,0.4,0.1,0.7c0,0.7,0.5,1.2,1.2,1.4c0.4,0.1,0.5,0.3,0.5,0.6c0,0.6,0,1.1,0,1.8h2
				c0,0.3,0.1,0.8,0.2,1.2s0.1,0.9,0.7,1c0.2,0,0.4,0.5,0.5,0.7c1,0,1,0,1.2,1c0.1,0.2,0.1,0.4,0.1,0.6c0,0.5,0.2,0.8,0.8,0.9
				c0.9,0.2,1,0.5,0.6,1.3c-0.1,0.3-0.2,0.7-0.2,1.1c0.9-0.4,1.1-1.2,1.6-2.1l0.4,1.2l0.7-0.9v2h0.2l0.3-0.6
				c0.9,0.9,0.5,2.1,0.5,3.2l0.8-0.1l-0.6,1.8l0.8-0.4c-1.1,1.4-0.7,2.7-0.3,4c0.2,0.6,0.3,1.1,0.5,1.7c0,0.3-0.1,0.5-0.3,0.7
				c-1.4,1-2.8,1.9-4.2,2.9c-2.4,1.7-5,2.9-7.9,3.7c-3.6,1-7.2,2.2-10.7,3.4c-0.8,0.3-1.6,0.5-2.5,0.7c-0.9,0.1-1.7,0.8-1.9,1.7
				c0.4,0,0.8-0.2,1,0.4s0.8,1.3-0.4,1.8L492.4,256.6z"/>
		</g>
		<g id="미세_플라스틱_그룹-5_1_">
			<circle id="미세플라스틱-142_1_" class="st49" cx="534.9" cy="232.9" r="1.4"/>
			<circle id="미세플라스틱-143_1_" class="st49" cx="536.5" cy="230.4" r="1.4"/>
			<circle id="미세플라스틱-144_1_" class="st49" cx="533.9" cy="227.8" r="1.4"/>
			<circle id="미세플라스틱-145_1_" class="st49" cx="535.5" cy="226.8" r="1.4"/>
			<circle id="미세플라스틱-146_1_" class="st49" cx="537.9" cy="233.7" r="1.4"/>
			<circle id="미세플라스틱-147_1_" class="st49" cx="532.6" cy="231.2" r="1.4"/>
			<circle id="미세플라스틱-148_1_" class="st49" cx="531.3" cy="229.3" r="1.4"/>
			<circle id="미세플라스틱-149_1_" class="st49" cx="539.8" cy="231.2" r="1.4"/>
			<circle id="미세플라스틱-150_1_" class="st49" cx="537.5" cy="227.8" r="1.4"/>
			<circle id="미세플라스틱-151_1_" class="st49" cx="539.4" cy="226.8" r="1.4"/>
			<circle id="미세플라스틱-152_1_" class="st49" cx="541.8" cy="233.1" r="1.4"/>
			<circle id="미세플라스틱-153_1_" class="st49" cx="543.2" cy="230.4" r="1.4"/>
			<circle id="미세플라스틱-154_1_" class="st49" cx="545.8" cy="232.9" r="1.4"/>
			<circle id="미세플라스틱-155_1_" class="st49" cx="541.1" cy="228.8" r="1.4"/>
			<circle id="미세플라스틱-156_1_" class="st49" cx="543.7" cy="238.2" r="1.4"/>
			<circle id="미세플라스틱-157_1_" class="st49" cx="545.8" cy="236.4" r="1.4"/>
			<circle id="미세플라스틱-158_1_" class="st49" cx="542.8" cy="241.7" r="1.4"/>
			<circle id="미세플라스틱-159_1_" class="st49" cx="541.1" cy="243.3" r="1.4"/>
			<circle id="미세플라스틱-160_1_" class="st49" cx="545.8" cy="240.3" r="1.4"/>
			<circle id="미세플라스틱-161_1_" class="st49" cx="541.1" cy="236.1" r="1.4"/>
			<circle id="미세플라스틱-162_1_" class="st49" cx="543.7" cy="235" r="1.4"/>
			<circle id="미세플라스틱-163_1_" class="st49" cx="540.1" cy="239.9" r="1.4"/>
			<circle id="미세플라스틱-164_1_" class="st49" cx="538.6" cy="242.7" r="1.4"/>
			<circle id="미세플라스틱-165_1_" class="st49" cx="534.6" cy="242.7" r="1.4"/>
			<circle id="미세플라스틱-166_1_" class="st49" cx="536.8" cy="243.9" r="1.4"/>
			<circle id="미세플라스틱-167_1_" class="st49" cx="538.7" cy="237.3" r="1.4"/>
			<circle id="미세플라스틱-168_1_" class="st49" cx="536.5" cy="240.3" r="1.4"/>
			<circle id="미세플라스틱-169_1_" class="st49" cx="532.5" cy="240.3" r="1.4"/>
			<circle id="미세플라스틱-170_1_" class="st49" cx="531" cy="238.9" r="1.4"/>
			<circle id="미세플라스틱-171_1_" class="st49" cx="536.3" cy="236.1" r="1.4"/>
			<circle id="미세플라스틱-172_1_" class="st49" cx="534.6" cy="237.8" r="1.4"/>
			<circle id="미세플라스틱-173_1_" class="st49" cx="530.6" cy="236.8" r="1.4"/>
			<circle id="미세플라스틱-174_1_" class="st49" cx="533.2" cy="235" r="1.4"/>
			<circle id="미세플라스틱-175_1_" class="st49" cx="530.4" cy="233.1" r="1.4"/>
			<circle id="미세플라스틱-176_1_" class="st49" cx="531.3" cy="234.1" r="1.4"/>
		</g>
		<line class="st67" x1="476.9" y1="543.8" x2="1282.8" y2="543.8"/>
		<line class="st67" x1="1.9" y1="543.8" x2="412.4" y2="543.8"/>
		<line class="st67" x1="0.2" y1="543.8" x2="413" y2="543.8"/>
		<text transform="matrix(1 0 0 1 476.8643 535.6384)" class="st49 st65 st46">OCEAN SPECIES FEED MICROPL</text>
		<text transform="matrix(1 0 0 1 657.5742 535.6384)" class="st49 st65 st46">AS</text>
		<text transform="matrix(1 0 0 1 672.7742 535.6384)" class="st49 st65 st46">TICS</text>
		<line class="st71" x1="1.7" y1="563.8" x2="1304.2" y2="563.8"/>
		<path class="st48" d="M1049.8,322.6c0,0-1.6-6-6.4-9.6c-2.8-2.2-6.1-3.8-9.5-4.7c3.4-1.8,6.6-4,9.6-6.4c3.1-2.6,5.2-6.1,6.1-10
			c-4.7,0.2-9.3,1.6-13.4,4c-3.9,2.3-6.4,4.1-9.2,5.1c-2.1,0.7-4.3,1-6.6,0.9c-2.7-0.2-5.3-0.9-7.7-2.1c5-1.7,9.5-4.9,12.7-9.1
			c0,0-4.7-3.8-18.4-3.9c-5.2,0-10.4,0.5-15.5,1.6c-5.8-2.4-12.1-3.6-18.4-3.5c-1.9,0-3.8,0.1-5.8,0.3c-5.9,0.7-11.6,2.2-17.1,4.5
			c-10.6,4.4-18.8,11-21.7,15.7c-0.7,1.2,0.6,2.1,0.6,3s-1.4,2-0.8,2.8c2.2,3.3,8.3,6.7,17.2,9.4c2.3,0.7,4.9,1.4,7.7,2
			c3.2,3.5,6.7,6.7,10.6,9.3c6.6,4.3,16.4,4.5,16.4,4.5c-2.3-4-4.9-7.7-7.9-11.2l3.7,0.2c5.9,0.4,11.9-0.1,17.7-1.3
			c4.4,1.8,9.1,2.5,13.9,2.3c10.3-0.8,15.5-4,15.5-4s-2.5-2.8-11.5-5.8c2.7-1.6,5-2.6,7.3-2.6c3,0,5.9,0.7,8.6,2
			c2.8,1.3,5.6,3,9.5,4.6C1044.6,323.6,1049.8,322.6,1049.8,322.6z M942.2,308.9c-1.9,0-3.5-1.5-3.5-3.5c0-1.9,1.5-3.5,3.5-3.5
			c1.9,0,3.5,1.5,3.5,3.5l0,0l0,0C945.6,307.4,944.1,308.9,942.2,308.9L942.2,308.9z"/>
		<g id="미세_플라스틱_그룹-2_1_">
			<circle id="미세플라스틱-37_1_" class="st49" cx="982.7" cy="298" r="1.4"/>
			<circle id="미세플라스틱-38_1_" class="st49" cx="984.4" cy="295.4" r="1.4"/>
			<circle id="미세플라스틱-39_1_" class="st49" cx="981.7" cy="292.8" r="1.4"/>
			<circle id="미세플라스틱-40_1_" class="st49" cx="983.3" cy="291.8" r="1.4"/>
			<circle id="미세플라스틱-41_1_" class="st49" cx="985.8" cy="298.7" r="1.4"/>
			<circle id="미세플라스틱-42_1_" class="st49" cx="980.5" cy="296.3" r="1.4"/>
			<circle id="미세플라스틱-43_1_" class="st49" cx="979.2" cy="294.3" r="1.4"/>
			<circle id="미세플라스틱-44_1_" class="st49" cx="987.5" cy="296.3" r="1.4"/>
			<circle id="미세플라스틱-45_1_" class="st49" cx="985.4" cy="292.8" r="1.4"/>
			<circle id="미세플라스틱-46_1_" class="st49" cx="987.3" cy="291.8" r="1.4"/>
			<circle id="미세플라스틱-47_1_" class="st49" cx="989.7" cy="298.1" r="1.4"/>
			<circle id="미세플라스틱-48_1_" class="st49" cx="991.1" cy="295.4" r="1.4"/>
			<circle id="미세플라스틱-49_1_" class="st49" cx="993.6" cy="298" r="1.4"/>
			<circle id="미세플라스틱-50_1_" class="st49" cx="988.9" cy="293.8" r="1.4"/>
			<circle id="미세플라스틱-51_1_" class="st49" cx="991.6" cy="303.3" r="1.4"/>
			<circle id="미세플라스틱-52_1_" class="st49" cx="993.6" cy="301.4" r="1.4"/>
			<circle id="미세플라스틱-53_1_" class="st49" cx="990.7" cy="306.7" r="1.4"/>
			<circle id="미세플라스틱-54_1_" class="st49" cx="988.9" cy="308.4" r="1.4"/>
			<circle id="미세플라스틱-55_1_" class="st49" cx="993.6" cy="305.3" r="1.4"/>
			<circle id="미세플라스틱-56_1_" class="st49" cx="988.9" cy="301.1" r="1.4"/>
			<circle id="미세플라스틱-57_1_" class="st49" cx="991.6" cy="300" r="1.4"/>
			<circle id="미세플라스틱-58_1_" class="st49" cx="987.9" cy="304.9" r="1.4"/>
			<circle id="미세플라스틱-59_1_" class="st49" cx="986.4" cy="307.8" r="1.4"/>
			<circle id="미세플라스틱-60_1_" class="st49" cx="982.4" cy="307.8" r="1.4"/>
			<circle id="미세플라스틱-61_1_" class="st49" cx="984.6" cy="308.9" r="1.4"/>
			<circle id="미세플라스틱-62_1_" class="st49" cx="986.6" cy="302.3" r="1.4"/>
			<circle id="미세플라스틱-63_1_" class="st49" cx="984.4" cy="305.3" r="1.4"/>
			<circle id="미세플라스틱-64_1_" class="st49" cx="980.3" cy="305.3" r="1.4"/>
			<circle id="미세플라스틱-65_1_" class="st49" cx="978.8" cy="303.9" r="1.4"/>
			<circle id="미세플라스틱-66_1_" class="st49" cx="984.1" cy="301.1" r="1.4"/>
			<circle id="미세플라스틱-67_1_" class="st49" cx="982.4" cy="302.9" r="1.4"/>
			<circle id="미세플라스틱-68_1_" class="st49" cx="978.5" cy="301.9" r="1.4"/>
			<circle id="미세플라스틱-69_1_" class="st49" cx="981.1" cy="300" r="1.4"/>
			<circle id="미세플라스틱-70_1_" class="st49" cx="978.2" cy="298.1" r="1.4"/>
			<circle id="미세플라스틱-71_1_" class="st49" cx="979.2" cy="299.1" r="1.4"/>
		</g>
		<g id="미세_플라스틱_그룹-3_1_">
			<circle id="미세플라스틱-72_1_" class="st49" cx="973.1" cy="308.2" r="1.4"/>
			<circle id="미세플라스틱-73_1_" class="st49" cx="974.7" cy="305.6" r="1.4"/>
			<circle id="미세플라스틱-74_1_" class="st49" cx="972.1" cy="303" r="1.4"/>
			<circle id="미세플라스틱-75_1_" class="st49" cx="973.7" cy="302" r="1.4"/>
			<circle id="미세플라스틱-76_1_" class="st49" cx="976.1" cy="308.9" r="1.4"/>
			<circle id="미세플라스틱-77_1_" class="st49" cx="970.8" cy="306.4" r="1.4"/>
			<circle id="미세플라스틱-78_1_" class="st49" cx="969.5" cy="304.5" r="1.4"/>
			<circle id="미세플라스틱-79_1_" class="st49" cx="978" cy="306.4" r="1.4"/>
			<circle id="미세플라스틱-80_1_" class="st49" cx="975.7" cy="303" r="1.4"/>
			<circle id="미세플라스틱-81_1_" class="st49" cx="977.6" cy="302" r="1.4"/>
			<circle id="미세플라스틱-82_1_" class="st49" cx="980" cy="308.3" r="1.4"/>
			<circle id="미세플라스틱-83_1_" class="st49" cx="981.4" cy="305.6" r="1.4"/>
			<circle id="미세플라스틱-84_1_" class="st49" cx="984" cy="308.2" r="1.4"/>
			<circle id="미세플라스틱-85_1_" class="st49" cx="979.3" cy="304" r="1.4"/>
			<circle id="미세플라스틱-86_1_" class="st49" cx="981.9" cy="313.4" r="1.4"/>
			<circle id="미세플라스틱-87_1_" class="st49" cx="984" cy="311.6" r="1.4"/>
			<circle id="미세플라스틱-88_1_" class="st49" cx="981" cy="316.9" r="1.4"/>
			<circle id="미세플라스틱-89_1_" class="st49" cx="979.3" cy="318.5" r="1.4"/>
			<circle id="미세플라스틱-90_1_" class="st49" cx="984" cy="315.5" r="1.4"/>
			<circle id="미세플라스틱-91_1_" class="st49" cx="979.3" cy="311.3" r="1.4"/>
			<circle id="미세플라스틱-92_1_" class="st49" cx="981.9" cy="310.2" r="1.4"/>
			<circle id="미세플라스틱-93_1_" class="st49" cx="978.3" cy="315.1" r="1.4"/>
			<circle id="미세플라스틱-94_1_" class="st49" cx="976.8" cy="317.9" r="1.4"/>
			<circle id="미세플라스틱-95_1_" class="st49" cx="972.8" cy="317.9" r="1.4"/>
			<circle id="미세플라스틱-96_1_" class="st49" cx="975" cy="319.1" r="1.4"/>
			<circle id="미세플라스틱-97_1_" class="st49" cx="976.9" cy="312.5" r="1.4"/>
			<circle id="미세플라스틱-98_1_" class="st49" cx="974.7" cy="315.5" r="1.4"/>
			<circle id="미세플라스틱-99_1_" class="st49" cx="970.7" cy="315.5" r="1.4"/>
			<circle id="미세플라스틱-100_1_" class="st49" cx="969.2" cy="314.1" r="1.4"/>
			<circle id="미세플라스틱-101_1_" class="st49" cx="974.5" cy="311.3" r="1.4"/>
			<circle id="미세플라스틱-102_1_" class="st49" cx="972.8" cy="313" r="1.4"/>
			<circle id="미세플라스틱-103_1_" class="st49" cx="968.8" cy="312.1" r="1.4"/>
			<circle id="미세플라스틱-104_1_" class="st49" cx="971.4" cy="310.2" r="1.4"/>
			<circle id="미세플라스틱-105_1_" class="st49" cx="968.6" cy="308.3" r="1.4"/>
			<circle id="미세플라스틱-106_1_" class="st49" cx="969.5" cy="309.3" r="1.4"/>
		</g>
		<g id="미세_플라스틱_그룹-4_1_">
			<circle id="미세플라스틱-107_1_" class="st49" cx="969.7" cy="295.5" r="1.4"/>
			<circle id="미세플라스틱-108_1_" class="st49" cx="971.4" cy="292.9" r="1.4"/>
			<circle id="미세플라스틱-109_1_" class="st49" cx="968.7" cy="290.4" r="1.4"/>
			<circle id="미세플라스틱-110_1_" class="st49" cx="970.3" cy="289.3" r="1.4"/>
			<circle id="미세플라스틱-111_1_" class="st49" cx="972.7" cy="296.2" r="1.4"/>
			<circle id="미세플라스틱-112_1_" class="st49" cx="967.5" cy="293.7" r="1.4"/>
			<circle id="미세플라스틱-113_1_" class="st49" cx="966.1" cy="291.8" r="1.4"/>
			<circle id="미세플라스틱-114_1_" class="st49" cx="974.5" cy="293.7" r="1.4"/>
			<circle id="미세플라스틱-115_1_" class="st49" cx="972.3" cy="290.4" r="1.4"/>
			<circle id="미세플라스틱-116_1_" class="st49" cx="974.2" cy="289.3" r="1.4"/>
			<circle id="미세플라스틱-117_1_" class="st49" cx="976.6" cy="295.6" r="1.4"/>
			<circle id="미세플라스틱-118_1_" class="st49" cx="978" cy="292.9" r="1.4"/>
			<circle id="미세플라스틱-119_1_" class="st49" cx="980.6" cy="295.5" r="1.4"/>
			<circle id="미세플라스틱-120_1_" class="st49" cx="975.9" cy="291.3" r="1.4"/>
			<circle id="미세플라스틱-121_1_" class="st49" cx="978.5" cy="300.8" r="1.4"/>
			<circle id="미세플라스틱-122_1_" class="st49" cx="980.6" cy="298.9" r="1.4"/>
			<circle id="미세플라스틱-123_1_" class="st49" cx="977.6" cy="304.2" r="1.4"/>
			<circle id="미세플라스틱-124_1_" class="st49" cx="975.9" cy="305.8" r="1.4"/>
			<circle id="미세플라스틱-125_1_" class="st49" cx="980.6" cy="302.8" r="1.4"/>
			<circle id="미세플라스틱-126_1_" class="st49" cx="975.9" cy="298.6" r="1.4"/>
			<circle id="미세플라스틱-127_1_" class="st49" cx="978.5" cy="297.6" r="1.4"/>
			<circle id="미세플라스틱-128_1_" class="st49" cx="974.9" cy="302.4" r="1.4"/>
			<circle id="미세플라스틱-129_1_" class="st49" cx="973.4" cy="305.2" r="1.4"/>
			<circle id="미세플라스틱-130_1_" class="st49" cx="969.4" cy="305.2" r="1.4"/>
			<circle id="미세플라스틱-131_1_" class="st49" cx="971.6" cy="306.4" r="1.4"/>
			<circle id="미세플라스틱-132_1_" class="st49" cx="973.5" cy="299.8" r="1.4"/>
			<circle id="미세플라스틱-133_1_" class="st49" cx="971.4" cy="302.8" r="1.4"/>
			<circle id="미세플라스틱-134_1_" class="st49" cx="967.3" cy="302.8" r="1.4"/>
			<circle id="미세플라스틱-135_1_" class="st49" cx="965.8" cy="301.4" r="1.4"/>
			<circle id="미세플라스틱-136_1_" class="st49" cx="971.1" cy="298.6" r="1.4"/>
			<circle id="미세플라스틱-137_1_" class="st49" cx="969.4" cy="300.4" r="1.4"/>
			<circle id="미세플라스틱-138_1_" class="st49" cx="965.5" cy="299.4" r="1.4"/>
			<circle id="미세플라스틱-139_1_" class="st49" cx="968" cy="297.6" r="1.4"/>
			<circle id="미세플라스틱-140_1_" class="st49" cx="965.2" cy="295.6" r="1.4"/>
			<circle id="미세플라스틱-141_1_" class="st49" cx="966.1" cy="296.6" r="1.4"/>
		</g>
		<g>
			<path class="st48" d="M748.8,315.8c3.2,0.4,6.1,2.3,7.8,5.1c0.3,0.6,0.6,1.1,1,1.6c1.2,2,2.7,3.9,4.5,5.4
				c0.9,0.7,2.1,1.2,3.3,1.3c0.5,0.1,1.1,0.1,1.6,0.2c1.7,0.4,3.4,0.9,5.1,1.6c1.6,0.7,3.1,1.5,4.5,2.5c0.5,0.4,1,0.7,1.6,0.9
				c1.8,0.9,3.6,1.6,5.6,2.1c1.5,0.5,2.7,0.7,2.8,0.8c-2.1-0.7-3.8-7.3-1.4-11.9c1.1-2.4,1.7-4.9,1.8-7.6c1.4,0.4,2.6,1.3,3.5,2.5
				c1,1.7,3,2.6,5,2.2c-1.8-1.6-2.9-4-2.9-6.4c-0.3-4.5,6.8-7.4,6.8-7.4s-6-0.5-10.3,1.7c-0.9,0.5-1.8,0.7-2.8,0.7
				c-0.2-0.8-0.6-1.7-1-2.4c-0.5-0.8-1.1-1.6-1.7-2.5c-2.3-3.5-4.6-7.8-1.6-12.3c0.1-0.1,0.1-0.1,0.1-0.2c3.3-4.7,27.2-6.5,27.2-6.5
				c3.1-1.4-4.8-0.9-4.8-0.9c-8,0.8-16,2.4-23.8,4.6c-2.1,0.7-4.1,1.3-5.8,2.1c-1.2,0.5-2.2,0.9-3.2,1.4c-1.4,0.7-2.8,1.4-4.2,2.2
				c-1.4,0.8-2.6,1.7-3.9,2.7c-1.6,1.3-3,2.7-4.2,4.4c-0.8,1.1-1.5,2.3-2,3.5c-2.7,6.2-7,5.1-8.4,6S748.8,315.8,748.8,315.8z"/>
			<path class="st48" d="M757.5,322.5c1.2,2,2.7,3.9,4.5,5.4c-0.3-3.3-0.2-6.6,0.4-9.9c0.7-4.2,1.9-8.4,1.9-12.7c0-2-0.3-4-0.8-6
				c-1.6,1.3-3,2.7-4.2,4.4c0.4,3.1,0.2,6.3-0.4,9.3C758.4,316.1,757.8,319.3,757.5,322.5z"/>
			<path class="st48" d="M766.9,329.4c1.7,0.4,3.4,0.9,5.1,1.6c-0.2-1.6-0.2-3.3-0.2-4.9c0.1-2.7,0.3-5.5,0.7-8.2
				c0.5-3,0.8-6,0.9-9.1c0.1-4.9-0.6-9.8-1.9-14.5c-1.4,0.7-2.8,1.4-4.2,2.2c0.4,1.4,0.6,2.7,0.8,4.1c0.3,4.3,0.2,8.6-0.3,12.9
				C767.3,318.9,766.7,324.2,766.9,329.4z"/>
			<path class="st48" d="M777.1,312.9c-0.3,7.3-1.4,14.8,1,21.6c1.8,0.9,3.6,1.6,5.6,2.1l-0.2-0.9c-0.9-4.5-1.3-9.2-1.2-13.8
				c0.2-5.2,1-10.4,1.1-15.5c-2.3-3.5-4.6-7.8-1.6-12.3c-0.4-1-0.8-2-1.3-3c-2.1,0.7-4.1,1.3-5.8,2.1
				C776.7,299.5,777.5,306.2,777.1,312.9z"/>
			<path class="st48" d="M756.8,321.8c1.2,2,2.7,3.9,4.5,5.4c-0.3-3.3-0.2-6.6,0.4-9.9c0.7-4.2,1.9-8.4,1.9-12.7c0-2-0.3-4-0.8-6
				c-1.6,1.3-3,2.7-4.2,4.4c0.4,3.1,0.2,6.3-0.4,9.3C757.7,315.4,757.1,318.5,756.8,321.8z"/>
			<path class="st48" d="M766.2,328.7c1.7,0.4,3.4,0.9,5.1,1.6c-0.1-1.6-0.2-3.3-0.2-4.9c0.1-2.7,0.3-5.5,0.7-8.2
				c0.5-3,0.8-6,0.9-9.1c0.1-4.9-0.5-9.8-1.8-14.5c-1.4,0.7-2.8,1.4-4.2,2.2c0.4,1.4,0.6,2.7,0.8,4.1c0.3,4.3,0.2,8.6-0.3,12.9
				C766.6,318.1,766,323.4,766.2,328.7z"/>
			<path class="st48" d="M776.4,312.2c-0.3,7.3-1.4,14.8,1,21.6c1.8,0.9,3.7,1.6,5.6,2.1l-0.2-0.9c-0.9-4.5-1.3-9.2-1.2-13.8
				c0.2-5.2,1-10.3,1.1-15.5c-2.3-3.4-4.6-7.8-1.6-12.4c-0.4-1-0.8-2-1.3-3c-2.1,0.7-4,1.3-5.8,2.1
				C775.9,298.8,776.7,305.5,776.4,312.2z"/>
			<circle class="st48" cx="760.7" cy="308.3" r="1.6"/>
			<path class="st48" d="M771.5,304.6c0.5-0.3,1.4-0.5,1.6,0.1c0.1,0.2,0,0.4-0.1,0.6c-0.5,1.2-1.2,2.2-2.1,3.1
				c-0.9,0.9-1.3,2.3-0.9,3.5c0.3,0.5,0.6,1,0.9,1.5c0.3,0.5,0.4,1.1,0.1,1.6c-0.2,0.4-0.8,0.5-1.2,0.9c-0.7,0.6-1,1.4-1,2.3
				s0.2,1.8,0.2,2.6c0,0.5-0.2,1.2-0.7,1.1c-0.2,0-0.4-0.2-0.5-0.4c-2.4-2.7-3.5-6.2-3-9.7C765.5,308.7,768.9,306,771.5,304.6z"/>
			<path class="st48" d="M772.6,304.6c0.5-0.3,1.4-0.5,1.6,0.1c0.1,0.2,0.1,0.4-0.1,0.6c-0.5,1.2-1.2,2.2-2.1,3.1
				c-0.9,0.9-1.3,2.3-0.9,3.5c0.3,0.5,0.6,1,0.9,1.5c0.3,0.5,0.4,1.1,0.1,1.6c-0.2,0.4-0.8,0.5-1.2,0.9c-0.7,0.6-1.1,1.4-1,2.3
				c0,0.9,0.2,1.8,0.3,2.6c0,0.5-0.2,1.2-0.7,1.1c-0.2,0-0.4-0.2-0.5-0.4c-2.4-2.7-3.5-6.2-3-9.7C766.7,308.7,770.1,306,772.6,304.6
				z"/>
			<ellipse class="st48" cx="760.1" cy="308.1" rx="1.2" ry="1.7"/>
			<g id="미세_플라스틱_그룹_1_">
				<circle id="미세플라스틱-2_1_" class="st48" cx="770.1" cy="311.1" r="1.1"/>
				<circle id="미세플라스틱-3_1_" class="st48" cx="771.4" cy="309" r="1.1"/>
				<circle id="미세플라스틱-4_1_" class="st48" cx="769.3" cy="307.1" r="1.1"/>
				<circle id="미세플라스틱-5_1_" class="st48" cx="770.5" cy="306.2" r="1.1"/>
				<circle id="미세플라스틱-6_1_" class="st48" cx="772.5" cy="311.7" r="1.1"/>
				<circle id="미세플라스틱-7_1_" class="st48" cx="768.2" cy="309.8" r="1.1"/>
				<circle id="미세플라스틱-8_1_" class="st48" cx="767.2" cy="308.2" r="1.1"/>
				<circle id="미세플라스틱-9_1_" class="st48" cx="773.9" cy="309.8" r="1.1"/>
				<circle id="미세플라스틱-10_1_" class="st48" cx="772.2" cy="307.1" r="1.1"/>
				<circle id="미세플라스틱-11_1_" class="st48" cx="773.7" cy="306.2" r="1.1"/>
				<circle id="미세플라스틱-12_1_" class="st48" cx="775.6" cy="311.2" r="1.1"/>
				<circle id="미세플라스틱-13_1_" class="st48" cx="776.7" cy="309" r="1.1"/>
				<circle id="미세플라스틱-14_1_" class="st48" cx="778.8" cy="311.1" r="1.1"/>
				<circle id="미세플라스틱-15_1_" class="st48" cx="775" cy="307.8" r="1.1"/>
				<circle id="미세플라스틱-16_1_" class="st48" cx="777.1" cy="315.3" r="1.1"/>
				<circle id="미세플라스틱-17_1_" class="st48" cx="778.8" cy="313.9" r="1.1"/>
				<path id="미세플라스틱-18_1_" class="st48" d="M776.4,317c0.6,0,1.1,0.5,1.1,1.1s-0.5,1.1-1.1,1.1s-1.1-0.5-1.1-1.1
					C775.3,317.5,775.8,317,776.4,317z"/>
				<circle id="미세플라스틱-19_1_" class="st48" cx="775" cy="319.5" r="1.1"/>
				<circle id="미세플라스틱-20_1_" class="st48" cx="778.8" cy="317" r="1.1"/>
				<circle id="미세플라스틱-21_1_" class="st48" cx="775" cy="313.6" r="1.1"/>
				<circle id="미세플라스틱-22_1_" class="st48" cx="777.1" cy="312.8" r="1.1"/>
				<circle id="미세플라스틱-23_1_" class="st48" cx="774.2" cy="316.7" r="1.1"/>
				<circle id="미세플라스틱-24_1_" class="st48" cx="773" cy="319" r="1.1"/>
				<circle id="미세플라스틱-25_1_" class="st48" cx="769.8" cy="319" r="1.1"/>
				<circle id="미세플라스틱-26_1_" class="st48" cx="771.6" cy="319.9" r="1.1"/>
				<circle id="미세플라스틱-27_1_" class="st48" cx="773.1" cy="314.7" r="1.1"/>
				<circle id="미세플라스틱-28_1_" class="st48" cx="771.4" cy="317" r="1.1"/>
				<circle id="미세플라스틱-29_1_" class="st48" cx="768.2" cy="317" r="1.1"/>
				<circle id="미세플라스틱-30_1_" class="st48" cx="766.9" cy="315.9" r="1.1"/>
				<circle id="미세플라스틱-31_1_" class="st48" cx="771.2" cy="313.6" r="1.1"/>
				<circle id="미세플라스틱-32_1_" class="st48" cx="769.8" cy="315" r="1.1"/>
				<circle id="미세플라스틱-33_1_" class="st48" cx="766.7" cy="314.3" r="1.1"/>
				<circle id="미세플라스틱-34_1_" class="st48" cx="768.7" cy="312.8" r="1.1"/>
				<circle id="미세플라스틱-35_1_" class="st48" cx="766.4" cy="311.2" r="1.1"/>
				<circle id="미세플라스틱-36_1_" class="st48" cx="767.2" cy="312" r="1.1"/>
			</g>
		</g>
		<g id="미세_플라스틱_그룹-5-2_1_">
			<circle id="미세플라스틱-142-2_1_" class="st49" cx="769.3" cy="308.8" r="1.4"/>
			<circle id="미세플라스틱-143-2_1_" class="st49" cx="770.9" cy="306.2" r="1.4"/>
			<circle id="미세플라스틱-144-2_1_" class="st49" cx="768.3" cy="303.7" r="1.4"/>
			<circle id="미세플라스틱-145-2_1_" class="st49" cx="769.8" cy="302.7" r="1.4"/>
			<circle id="미세플라스틱-146-2_1_" class="st49" cx="772.3" cy="309.5" r="1.4"/>
			<circle id="미세플라스틱-147-2_1_" class="st49" cx="767" cy="307.1" r="1.4"/>
			<circle id="미세플라스틱-148-2_1_" class="st49" cx="765.7" cy="305.2" r="1.4"/>
			<circle id="미세플라스틱-149-2_1_" class="st49" cx="774.1" cy="307.1" r="1.4"/>
			<circle id="미세플라스틱-150-2_1_" class="st49" cx="771.9" cy="303.7" r="1.4"/>
			<circle id="미세플라스틱-151-2_1_" class="st49" cx="773.8" cy="302.7" r="1.4"/>
			<circle id="미세플라스틱-152-2_1_" class="st49" cx="776.2" cy="308.9" r="1.4"/>
			<circle id="미세플라스틱-153-2_1_" class="st49" cx="777.6" cy="306.2" r="1.4"/>
			<circle id="미세플라스틱-154-2_1_" class="st49" cx="780.2" cy="308.8" r="1.4"/>
			<circle id="미세플라스틱-155-2_1_" class="st49" cx="775.5" cy="304.7" r="1.4"/>
			<circle id="미세플라스틱-156-2_1_" class="st49" cx="778.1" cy="314.1" r="1.4"/>
			<circle id="미세플라스틱-157-2_1_" class="st49" cx="780.2" cy="312.3" r="1.4"/>
			<circle id="미세플라스틱-158-2_1_" class="st49" cx="777.2" cy="317.5" r="1.4"/>
			<circle id="미세플라스틱-159-2_1_" class="st49" cx="775.5" cy="319.2" r="1.4"/>
			<circle id="미세플라스틱-160-2_1_" class="st49" cx="780.2" cy="316.2" r="1.4"/>
			<circle id="미세플라스틱-161-2_1_" class="st49" cx="775.5" cy="312" r="1.4"/>
			<circle id="미세플라스틱-162-2_1_" class="st49" cx="778.1" cy="310.9" r="1.4"/>
			<circle id="미세플라스틱-163-2_1_" class="st49" cx="774.5" cy="315.8" r="1.4"/>
			<circle id="미세플라스틱-164-2_1_" class="st49" cx="773" cy="318.6" r="1.4"/>
			<circle id="미세플라스틱-165-2_1_" class="st49" cx="769" cy="318.6" r="1.4"/>
			<circle id="미세플라스틱-166-2_1_" class="st49" cx="771.2" cy="319.7" r="1.4"/>
			<circle id="미세플라스틱-167-2_1_" class="st49" cx="773.1" cy="313.2" r="1.4"/>
			<circle id="미세플라스틱-168-2_1_" class="st49" cx="770.9" cy="316.2" r="1.4"/>
			<circle id="미세플라스틱-169-2_1_" class="st49" cx="766.9" cy="316.2" r="1.4"/>
			<circle id="미세플라스틱-170-2_1_" class="st49" cx="765.3" cy="314.8" r="1.4"/>
			<circle id="미세플라스틱-171-2_1_" class="st49" cx="770.6" cy="312" r="1.4"/>
			<circle id="미세플라스틱-172-2_1_" class="st49" cx="769" cy="313.7" r="1.4"/>
			<circle id="미세플라스틱-173-2_1_" class="st49" cx="765" cy="312.7" r="1.4"/>
			<circle id="미세플라스틱-174-2_1_" class="st49" cx="767.6" cy="310.9" r="1.4"/>
			<circle id="미세플라스틱-175-2_1_" class="st49" cx="764.7" cy="308.9" r="1.4"/>
			<circle id="미세플라스틱-176-2_1_" class="st49" cx="765.7" cy="309.9" r="1.4"/>
		</g>
	</g>
</g>
</svg>
