<svg xmlns="http://www.w3.org/2000/svg" xmlns:xlink="http://www.w3.org/1999/xlink" viewBox="0 0 1304.87 535.57"><defs><style>.cls-1{fill:#ffbc6d;}.cls-1,.cls-43{opacity:0;}.cls-2,.cls-40,.cls-5,.cls-6,.cls-8{fill:#00cee5;}.cls-21,.cls-25,.cls-3,.cls-32,.cls-36{fill:#ff5400;}.cls-4{fill:#fff;opacity:0.13;}.cls-5{opacity:0.47;}.cls-18,.cls-42,.cls-6,.cls-8,.cls-9{isolation:isolate;}.cls-10,.cls-19,.cls-20,.cls-31,.cls-41,.cls-43,.cls-7,.cls-9{fill:none;}.cls-19,.cls-40,.cls-41,.cls-7,.cls-8,.cls-9{stroke:#00cee5;}.cls-19,.cls-20,.cls-31,.cls-40,.cls-41,.cls-43,.cls-7,.cls-8,.cls-9{stroke-miterlimit:10;}.cls-7,.cls-8,.cls-9{stroke-width:2.73px;}.cls-11{fill:#d9d9d9;}.cls-12{fill:url(#linear-gradient);}.cls-13{fill:url(#linear-gradient-2);}.cls-14{fill:url(#linear-gradient-3);}.cls-15{fill:url(#linear-gradient-4);}.cls-16{fill:url(#linear-gradient-5);}.cls-17{fill:#00cbe2;}.cls-18{fill:#00cde4;}.cls-19{stroke-width:2.78px;}.cls-20,.cls-31,.cls-43{stroke:#ff5400;}.cls-21,.cls-32{font-size:12px;}.cls-21,.cls-25,.cls-32{font-family:ProximaNova-Semibold, Proxima Nova;font-weight:600;}.cls-21,.cls-33,.cls-35{letter-spacing:0.01em;}.cls-22{letter-spacing:-0.01em;}.cls-23{letter-spacing:0.01em;}.cls-24{letter-spacing:0em;}.cls-25,.cls-36{font-size:11px;}.cls-26{letter-spacing:0em;}.cls-27{letter-spacing:-0.03em;}.cls-28{letter-spacing:-0.01em;}.cls-29{letter-spacing:-0.06em;}.cls-30{letter-spacing:-0.01em;}.cls-31,.cls-43{stroke-width:1.07px;}.cls-34{letter-spacing:-0.02em;}.cls-35{fill:#000;}.cls-36{font-family:ProximaNova-Regular, Proxima Nova;}.cls-37{letter-spacing:-0.03em;}.cls-38{letter-spacing:0.01em;}.cls-39{letter-spacing:0em;}.cls-41{stroke-width:2px;}</style><linearGradient id="linear-gradient" x1="319.62" y1="225.69" x2="294.81" y2="263.8" gradientUnits="userSpaceOnUse"><stop offset="0" stop-color="#fff" stop-opacity="0"/><stop offset="1" stop-color="#ff5400"/></linearGradient><linearGradient id="linear-gradient-2" x1="323.66" y1="228.32" x2="298.86" y2="266.43" gradientUnits="userSpaceOnUse"><stop offset="0" stop-color="#fff"/><stop offset="1" stop-color="#ff5400"/></linearGradient><linearGradient id="linear-gradient-3" x1="316.98" y1="223.97" x2="292.17" y2="262.08" xlink:href="#linear-gradient-2"/><linearGradient id="linear-gradient-4" x1="314.44" y1="222.31" x2="289.63" y2="260.42" xlink:href="#linear-gradient-2"/><linearGradient id="linear-gradient-5" x1="324.64" y1="228.96" x2="299.84" y2="267.07" xlink:href="#linear-gradient-2"/></defs><title>Asset 4</title><g id="Layer_2" data-name="Layer 2"><g id="Layer_1-2" data-name="Layer 1"><rect class="cls-1" width="1304.87" height="535.57"/><path id="플랑크톤1" class="cls-2" d="M531.27,262.4l-4.82-5s-2.38-.6-1.85.72,4.23,5.23,4.23,5.23l-.13.72L524,262.4s-3,.26-.72,1.71a29.76,29.76,0,0,0,5.22,2.65L528,268l-4.36,2.51s-1.85,1.13.53,1a11,11,0,0,0,4.69-1.72l.39,1.12L525,275.28s-2,2.65,1.13.73a21.29,21.29,0,0,0,5.22-4.49l.93,7.47s-.4,1.12.72.72.86-2.84.86-2.84v-4.36l4.43,4.82s1.85,1.85.73-1.12a32.56,32.56,0,0,0-2.51-5.35l5.61,2.11s1.72.26,0-1.65a33.55,33.55,0,0,0-5.61-2.84l-.14-1.39,6.48-2.65s.73-1.71-1.26-1.38-4.75,1.12-4.75,1.12l2.84-4.49s.26-1.72-1-.86c-1.39,1.19-2.71,2.51-4,3.83l-1.26-.86v-4.63s-1.45-1.25-1.71,0S531.27,262.4,531.27,262.4Z"/><path id="플랑크톤1-2" class="cls-2" d="M583,280.44l-2.58-2.64s-1.25-.34-1,.39a16.74,16.74,0,0,0,2.25,2.78l-.07.39-2.51-.92s-1.58.13-.4.92a15.69,15.69,0,0,0,2.78,1.39l-.26.66-2.32,1.33s-1,.59.27.52a5.48,5.48,0,0,0,2.51-.92l.2.59-2.25,2.32s-1.06,1.39.6.39a12,12,0,0,0,2.77-2.38l.46,4s-.19.59.4.39.46-1.52.46-1.52v-2.31l2.38,2.58s1,1,.4-.6a22.86,22.86,0,0,0-1.32-2.84l3,1.12s.93.14,0-.86a18.49,18.49,0,0,0-3-1.52l-.07-.72,3.5-1.39s.4-.93-.66-.73-2.51.6-2.51.6l1.52-2.38s.13-.93-.53-.47c-.72.67-1.45,1.33-2.11,2.05l-.66-.46v-2.51s-.8-.66-.93,0S583,280.44,583,280.44Z"/><path id="플랑크톤2" class="cls-2" d="M560,286.32s-3.57-1.78-5-1.52a3.64,3.64,0,0,0-3.11,2.18c-.66,1.46-1.19,5.75-1.65,6.68a27,27,0,0,1-1.39,3.11c-.46.59-.86,1.52-.6,1.85S550,296.9,550,296.9a18.55,18.55,0,0,0,1.19-2.51c.2-.8.59-2.19.86-3a24.55,24.55,0,0,1,1-3.31c.33-.53-.07-1.32,1.32-1.39a6.91,6.91,0,0,1,3.24.66,12.64,12.64,0,0,0,2.31.6v1.65a16.52,16.52,0,0,0-3.37,1.85c-.92.86-2.51,5.09-2.51,5.09a5.07,5.07,0,0,0-.4,2.12c.2.59.93,0,.93,0l1.39-3.31s1.72-2.64,1.91-2.84,1.59-1.32,1.59-1.32l.07,1.85s-1.66,2.44-2.12,3.3a15,15,0,0,0-.92,3.77c.06.2.46,1.12.46,1.12a7.71,7.71,0,0,0,1.19-2.38c0-.66.26-2.24.66-2.51a6.6,6.6,0,0,1,1.12-.59l.27,2,.72,2s1.53,2.45,2.19,3.44a8.69,8.69,0,0,1,.86,3.31v5.68s1.19-.93,1.19-1.12.85-2.52.85-2.52l1-.06c.39.46.85.92,1.32,1.39.2.06,1.39.19,1.52-.07a15.06,15.06,0,0,0,.46-1.72,25.54,25.54,0,0,1-2-2.25l-.86-1.45.2-5.22-.73-5.49.46-1a14.84,14.84,0,0,1,1.19,2c.6,1.06,1.32,3.63,1.72,3.9a3.26,3.26,0,0,1,.93,1V297a6.08,6.08,0,0,1-1-2.12,7.77,7.77,0,0,0-1.71-3,6,6,0,0,0-1.79-.92l-.92-.66v-.93a6,6,0,0,1,1.85.07,14.58,14.58,0,0,0,2.64,1.85,8.67,8.67,0,0,1,2.58,2.31c.53.66.79,1.06.79,1.06v-2a9,9,0,0,0-1.19-1.85,17.49,17.49,0,0,0-2.64-2.32,19.17,19.17,0,0,0-2.18-.46,13.84,13.84,0,0,0-2.32-.07c-.59,0-.66-.85-.66-.85v-1.39a13.19,13.19,0,0,0,1.52-1.13c.86-.72,1.06-1.45,2.45-1.32a3.41,3.41,0,0,1,2.44,1.79c.33.59,2.38,2.84,2.58,3.37a10.73,10.73,0,0,0,1.85,2.31,6.06,6.06,0,0,0,1.92,1,7.71,7.71,0,0,0,1.78-.2,1.68,1.68,0,0,0-1.19-1.38,8.43,8.43,0,0,1-2.51-1.19c-.2-.2-2.44-3-2.71-3.31s-2.11-2.84-2.44-3.24a2.72,2.72,0,0,0-1.72-.53,6.2,6.2,0,0,0-2.78,1.39c-.59.66-1.32,1.92-2.11,2.25a12.21,12.21,0,0,1-2.65.53A5.25,5.25,0,0,1,560,286.32Z"/><path id="플랑크톤3" class="cls-2" d="M561.35,262.59s-3.31,1.79-4.1,2.78a10.22,10.22,0,0,0-1.39,3.37,21.24,21.24,0,0,0,2.25,4.16c.2.07,5,0,5,0s.19,1.13.66,1a3.82,3.82,0,0,0,1.45-1.19c.07-.2,1-.6,1-.6a3.8,3.8,0,0,1-.46,1.39,14.48,14.48,0,0,0-.93,2.31h1.39s.6-1.65.8-2a2.78,2.78,0,0,1,1-.73v1.19c0,.47-.92,1.65-1,1.85a5.31,5.31,0,0,0-.2,1.46c.07.2.66.26.93,0a9.7,9.7,0,0,0,1-1.85,1.08,1.08,0,0,1,1-.66c.46.06,0,1.05,0,1.45s-.79,1.45-.86,1.72-.33,2-.06,1.45a22.19,22.19,0,0,1,1.52-2.11s.86-.53.79.33a14.93,14.93,0,0,0,0,3.5,22.67,22.67,0,0,0,1.65,2.38c.2.07,1.13,1.32,1.46,1.12s.92-.19.86-.86-.33-.79-1.06-1.65a3.13,3.13,0,0,1-1.13-2.31c-.06-1.19-.06-2.58-.13-4.17a35.23,35.23,0,0,0-.2-3.83,7,7,0,0,0-1.45-4c-.79-.8-1.32-2.25-2.51-3a9.68,9.68,0,0,0-3.11-1.71,14.51,14.51,0,0,0-2.51-.53A4.54,4.54,0,0,1,561.35,262.59Z"/><path id="플랑크톤3-2" class="cls-2" d="M595.19,248.32a14.54,14.54,0,0,0-3-.53,4.76,4.76,0,0,0-2,.92,19,19,0,0,0-.79,2.85c.06.13,2.24,2.11,2.24,2.11s-.39.6-.13.73a2.41,2.41,0,0,0,1.19.06c.13-.06.73.2.73.2a1.53,1.53,0,0,1-.79.4,11.7,11.7,0,0,0-1.39.66l.59.59s1-.52,1.19-.59a3.52,3.52,0,0,1,.79.13l-.52.53c-.2.2-1.13.33-1.26.4a3,3,0,0,0-.73.53c-.06.13.2.39.4.39a4.11,4.11,0,0,0,1.26-.39.58.58,0,0,1,.72.13c.13.2-.46.46-.59.66s-1,.33-1.13.4-1,.72-.66.66l1.59-.33s.59.13.2.52a8.79,8.79,0,0,0-1.52,1.59c-.13.6-.2,1.19-.27,1.79.07.13,0,1,.14,1.12s.52.33.79,0,.2-.53.2-1.19a2.08,2.08,0,0,1,.46-1.52c.46-.53,1.06-1.19,1.72-1.92s1.06-1.19,1.52-1.78a4.69,4.69,0,0,0,1.06-2.38,9.64,9.64,0,0,0,.19-2.45,7.84,7.84,0,0,0-.66-2.11,8.38,8.38,0,0,0-.92-1.32A2.68,2.68,0,0,1,595.19,248.32Z"/><circle id="미세플라스틱" class="cls-3" cx="583.29" cy="283.15" r="0.93"/><path id="미세_플라스틱2" data-name="미세 플라스틱2" class="cls-4" d="M461,242.76c-.86,1.19-.33.93-1.39,2.05s-1.46,1.46-1.46,1.92-.06.86.73.86.93-.66,1.46,0,.13.86.92.92a2,2,0,0,0,1.39-.33,8.76,8.76,0,0,0,1.06-1.05c.19-.4.72-.4,0-1.52s-1.59-2.32-1.59-2.32Z"/><path id="미세_플라스틱2-2" data-name="미세 플라스틱2-2" class="cls-4" d="M406.56,209.36c-1,0-.59.2-1.58.14s-1.32-.2-1.59,0-.46.33-.13.72.73.2.59.8-.39.39-.13.86a1.64,1.64,0,0,0,.73.59,4.83,4.83,0,0,0,.92.13c.34-.06.47.2.8-.59s.59-1.72.59-1.72Z"/><path id="미세_플라스틱2-3" data-name="미세 플라스틱2-3" class="cls-5" d="M582.56,266.23a8.93,8.93,0,0,1-1.45.73c-.93.33-1.32.33-1.45.59s-.33.46.13.73.73-.07.79.46-.2.53.2.79a1.43,1.43,0,0,0,.86.27,3.54,3.54,0,0,0,.92-.27c.27-.13.53,0,.47-.86s-.14-1.78-.14-1.78Z"/><path id="미세_플라스틱3" data-name="미세 플라스틱3" class="cls-5" d="M551,275.09c-1,.52-2.38.46-2.84,1.45s-.53,1.85-.73,2.18-1.39,1.45-1.45,1.79-2.45,1.65-.73,1.52a22.23,22.23,0,0,0,4.63-1c.92-.19,3.1-.33,3.3-1a8.13,8.13,0,0,0,.53-3.17c-.26-.86-.53-1.72-.86-2.58Z"/><path id="미세_플라스틱3-2" data-name="미세 플라스틱3-2" class="cls-5" d="M575.36,245.28c-.73.39-1.78.33-2.12,1.05s-.39,1.39-.52,1.66-1.06,1-1.06,1.32-1.85,1.19-.53,1.12a15,15,0,0,0,3.44-.73c.66-.19,2.31-.26,2.44-.72a6.7,6.7,0,0,0,.4-2.32c-.2-.66-.4-1.25-.66-1.91Z"/><path id="미세_플라스틱_4" data-name="미세 플라스틱 4" class="cls-5" d="M545.35,249.77a37.6,37.6,0,0,0-.33-4.89l-6.61-8.53a3.92,3.92,0,0,1,2-1.72c1.26-.39,8.66-3.63,9.39-4s7.27-4,7.27-4a3.15,3.15,0,0,0,1.19,2.57,14.48,14.48,0,0,0,4.76,2.85c.79.19,3.77.59,4.69,1.12s4.3,2.45,4.63,3-1.92,2-1.92,2L559.5,245l-9.32,5.61Z"/><path id="플라스틱" class="cls-5" d="M599.15,235.69c-1-.33-1.65-.92-2.11,0s-.4,1.59-1.19,2.12a8.12,8.12,0,0,0-1.59,1.45,2.24,2.24,0,0,0-.53,1.92c.2.66-.52,2,1.06,1.45s1.65-1.25,2.71-.92,1.92,1.32,2.45,1,2.18-.85,2.18-.85a4.88,4.88,0,0,0,1.59-1.19c.39-.67-.53-1.26.92-1.06s2.12.53,3.24.72,1.92.73,2.11-.19a7.66,7.66,0,0,0,.53-2.65c-.13-.86-.33-3.57-.66-4s-.2-1.19-1.19-1.06a14.47,14.47,0,0,0-3.9,1.39c-.86.39-3.24,1.65-3.24,1.65Z"/><circle id="미세플라스틱-212" class="cls-3" cx="532.86" cy="268.67" r="1.39"/><circle id="미세플라스틱-213" class="cls-3" cx="562.93" cy="292.2" r="1.39"/><circle id="미세플라스틱-214" class="cls-3" cx="562.93" cy="296.9" r="1.39"/><circle id="미세플라스틱-215" class="cls-3" cx="562.93" cy="268.21" r="1.39"/><circle id="미세플라스틱-216" class="cls-3" cx="595.12" cy="253.6" r="1.39"/><path class="cls-6" d="M662,432.21l-4.24-6.82-1.21-6.06,1.36-2,4.85-20.54-4.32-28.57-16.67-19.93-11.14-5.91,1.9-2.42,4.77-1.37,10.23,2.13,9.85,7.27,5.08-2-9.1-13.71-12-7.43-10.3,7.2-4.17,8.33-5.84-3.1-11.89-.61-2.58-3.56s-2.58-5.76-5-7.43-8.94-4.09-10.15.08.9,8.26,1.21,11a65.83,65.83,0,0,0,1.36,7l-3.71,3.48-5.91,8.79-6.82-4.47-10.76,2.2-11.14,10.46-1,16.44,5.38-.83,4.78-11.22,10.61-8.26,4.77-1.21,1.67.68-3.11,4.62-1.89,18.42,8.33,25.84,13.72,14.7,4.17,2L605.22,436l-1.29,7.88-2,3.71,2.95.83,6.75-4,2.42-7.13,1.21-5.75s-1-.61-2.42-1.6l10,4.7,13,4.32,9.24-3.64,4.32-6.13.53.75,5,5.61,7.73,1.14,2.35-1.9Z"/><g id="미세_플라스틱_그룹-6" data-name="미세 플라스틱 그룹-6"><circle id="미세플라스틱-177" class="cls-3" cx="615.32" cy="377.97" r="2.51"/><circle id="미세플라스틱-178" class="cls-3" cx="618.3" cy="373.28" r="2.51"/><circle id="미세플라스틱-179" class="cls-3" cx="613.47" cy="368.65" r="2.51"/><circle id="미세플라스틱-180" class="cls-3" cx="616.38" cy="366.8" r="2.51"/><circle id="미세플라스틱-181" class="cls-3" cx="620.81" cy="379.29" r="2.51"/><circle id="미세플라스틱-182" class="cls-3" cx="611.23" cy="374.86" r="2.51"/><circle id="미세플라스틱-183" class="cls-3" cx="608.71" cy="371.36" r="2.51"/><circle id="미세플라스틱-184" class="cls-3" cx="624.11" cy="374.86" r="2.51"/><circle id="미세플라스틱-185" class="cls-3" cx="620.08" cy="368.65" r="2.51"/><circle id="미세플라스틱-186" class="cls-3" cx="623.59" cy="366.8" r="2.51"/><circle id="미세플라스틱-187" class="cls-3" cx="627.95" cy="378.23" r="2.51"/><circle id="미세플라스틱-188" class="cls-3" cx="630.53" cy="373.28" r="2.51"/><circle id="미세플라스틱-189" class="cls-3" cx="635.22" cy="377.97" r="2.51"/><circle id="미세플라스틱-190" class="cls-3" cx="626.63" cy="370.37" r="2.51"/><circle id="미세플라스틱-191" class="cls-3" cx="631.39" cy="387.62" r="2.51"/><circle id="미세플라스틱-192" class="cls-3" cx="635.22" cy="384.25" r="2.51"/><circle id="미세플라스틱-193" class="cls-3" cx="629.73" cy="393.83" r="2.51"/><circle id="미세플라스틱-194" class="cls-3" cx="626.63" cy="396.94" r="2.51"/><circle id="미세플라스틱-195" class="cls-3" cx="635.22" cy="391.39" r="2.51"/><circle id="미세플라스틱-196" class="cls-3" cx="626.63" cy="383.72" r="2.51"/><circle id="미세플라스틱-197" class="cls-3" cx="631.39" cy="381.8" r="2.51"/><circle id="미세플라스틱-198" class="cls-3" cx="624.71" cy="390.66" r="2.51"/><circle id="미세플라스틱-199" class="cls-3" cx="622.07" cy="395.82" r="2.51"/><circle id="미세플라스틱-200" class="cls-3" cx="614.73" cy="395.82" r="2.51"/><circle id="미세플라스틱-201" class="cls-3" cx="618.76" cy="397.86" r="2.51"/><circle id="미세플라스틱-202" class="cls-3" cx="622.26" cy="385.97" r="2.51"/><circle id="미세플라스틱-203" class="cls-3" cx="618.3" cy="391.39" r="2.51"/><circle id="미세플라스틱-204" class="cls-3" cx="610.96" cy="391.39" r="2.51"/><circle id="미세플라스틱-205" class="cls-3" cx="608.19" cy="388.88" r="2.51"/><circle id="미세플라스틱-206" class="cls-3" cx="617.84" cy="383.72" r="2.51"/><circle id="미세플라스틱-207" class="cls-3" cx="614.73" cy="386.89" r="2.51"/><circle id="미세플라스틱-208" class="cls-3" cx="607.59" cy="385.17" r="2.51"/><circle id="미세플라스틱-209" class="cls-3" cx="612.22" cy="381.8" r="2.51"/><circle id="미세플라스틱-210" class="cls-3" cx="607.06" cy="378.23" r="2.51"/><circle id="미세플라스틱-211" class="cls-3" cx="608.71" cy="380.02" r="2.51"/></g><rect class="cls-2" x="171.08" y="233.28" width="33.23" height="12.51" rx="1" transform="translate(375.38 479.06) rotate(-180)"/><path class="cls-2" d="M143.81,116.17h0v4a.45.45,0,0,1-.42.46h-.53a.69.69,0,0,0-.63.68l-1.75,49.48a1.93,1.93,0,0,1-.23.85l-3.77,6.83a1.67,1.67,0,0,1-1.46.89h-9a1.67,1.67,0,0,1-1.46-.89l-3.76-6.83a1.81,1.81,0,0,1-.24-.85l-1.75-49.48a.69.69,0,0,0-.63-.68h-.53a.45.45,0,0,1-.42-.46v-4Z"/><polygon class="cls-2" points="130.48 181.71 130.57 181.71 135.06 181.71 134.47 190.62 130.57 190.62 130.48 190.62 126.58 190.62 125.99 181.71 130.48 181.71"/><path class="cls-7" d="M176.41,190.65h6.85a15.19,15.19,0,0,1,15.19,15.19v28h-22V217.23a4.55,4.55,0,0,0-4.54-4.55H2.06v-22Z"/><path class="cls-8" d="M69.06,157.25H40.57c-1.51,0-2.73.8-2.73,1.8v30.16c0,.67.81,1.21,1.82,1.21H68.15c1,0,1.82-.54,1.82-1.21V157.85C70,157.52,69.56,157.25,69.06,157.25Z"/><path class="cls-9" d="M42.08,140c0-5.38,5.29-9.74,11.82-9.74s11.83,4.36,11.83,9.74M53.88,123.45l0,6.84m-10.49-6.4,18,.56a1.82,1.82,0,0,0,1.88-1.82v-2.45a1.82,1.82,0,0,0-1.91-1.82l-17.93.91A1.83,1.83,0,0,0,41.67,121l0,1A1.81,1.81,0,0,0,43.41,123.89Z"/><path class="cls-2" d="M104.83,149.51a11.69,11.69,0,0,0-4.59-8.07,5.52,5.52,0,0,1-1.52-2.55c-.29-.84-.39-1.3-.2-1.61a1.91,1.91,0,0,1,.53-.34l4.46-.94a1.2,1.2,0,0,0,.94-1.43.19.19,0,0,0,0-.07,1.21,1.21,0,0,0-1.18-.88l-4.43,1-.29.06a.37.37,0,0,1-.21,0,.51.51,0,0,1-.29-.21.35.35,0,0,1-.09-.17.34.34,0,0,1,0-.1.53.53,0,0,1,0-.13.51.51,0,0,1,.37-.37l.5-.1.48-.11,3.68-.8a1.22,1.22,0,0,0,.68-.62,1.17,1.17,0,0,0-1-1.7l-4.37,1-.46.1h-.21a.59.59,0,0,1-.22-.12.71.71,0,0,1-.1-.14.6.6,0,0,1-.06-.11v0a.58.58,0,0,1,0-.29.54.54,0,0,1,.1-.16.51.51,0,0,1,.24-.13h0l.63-.15,1.4-.29,2.5-.53.11,0a1.22,1.22,0,0,0,.72-.63,1.16,1.16,0,0,0,.11-.76,1.19,1.19,0,0,0-1.13-.95l-4.42,1h0l-.5.11-.13,0a.73.73,0,0,1-.25-.08.52.52,0,0,1-.26-.47.5.5,0,0,1,.11-.26.47.47,0,0,1,.1-.1.56.56,0,0,1,.19-.09l.23-.06c1.35-.31,2.69-.64,4-.9a2.18,2.18,0,0,0,1-.42,1.16,1.16,0,0,0,.32-1h0a1.21,1.21,0,0,0-1.4-.94l-4.67,1-.13,0a.51.51,0,0,1-.27-.09.49.49,0,0,1-.23-.42.42.42,0,0,1,.09-.25.72.72,0,0,1,.41-.25l.07,0,2.51-.54,2.32-.51a1.19,1.19,0,0,0,.61-1.29s0-.08,0-.12a1.19,1.19,0,0,0-.11-.26.71.71,0,0,0-.1-.14l0,0-.16-.14-.1-.08a1.19,1.19,0,0,0-.89-.16l-4.46.93a1.45,1.45,0,0,1-.77-.1.6.6,0,0,1-.22-.17h0a2.14,2.14,0,0,0-1.27-.73,2.11,2.11,0,0,0-.83,0h0a2.38,2.38,0,0,0-1.82,2.83l3,13.82a.52.52,0,0,0,.06.13h0l.52,2.11.06.27.19,1a7.88,7.88,0,0,0,1,2.18,5.76,5.76,0,0,0,1.67,1.7c2.65,1.79,3.17,4.6,3.78,7.4.52,2.37,1.06,4.74,1.59,7.11h4C106,155.8,105.31,152.67,104.83,149.51Z"/><path class="cls-7" d="M106.74,158.93h13.89a2.54,2.54,0,0,1,1.64.56,1.56,1.56,0,0,1,.6,1.33l-2.6,27.53A2.09,2.09,0,0,1,118,190H97.14a2.1,2.1,0,0,1-2.24-1.63l-2.59-27.53a1.55,1.55,0,0,1,.59-1.33,2.57,2.57,0,0,1,1.65-.56h12.19Z"/><path class="cls-2" d="M106.77,135.48a3.54,3.54,0,0,0,2.75-4h0s.29,1.53,2.43.88a.63.63,0,0,1,.74.92,6.53,6.53,0,0,1-7.13,2.23A3.53,3.53,0,0,0,106.77,135.48Z"/><path class="cls-2" d="M103.12,134.07s0,0,0,0"/><path class="cls-2" d="M104.51,135a3.89,3.89,0,0,1-1.33-1.19c-.27-.37-.64-1-.64-1h0l-1.83-8.45a3.71,3.71,0,0,1,2.52-4.42,3.56,3.56,0,0,1,4.39,2.69l1.87,8.67a2,2,0,0,1,0,.24,3.51,3.51,0,0,1-4,4h0Z"/><path class="cls-10" d="M306.64,210.53c-.55,1.05-1.06,2.11-1.55,3.19C305.58,212.64,306.09,211.58,306.64,210.53Z"/><path class="cls-10" d="M321.16,227.77a12.38,12.38,0,0,0,1.51-.74q.9-.51,1.8-1-.9.45-1.8,1A12.38,12.38,0,0,1,321.16,227.77Z"/><path class="cls-10" d="M318.1,228.58a13.3,13.3,0,0,1-1.55.09A13.3,13.3,0,0,0,318.1,228.58Z"/><path class="cls-10" d="M330.09,224.38h0c-.33,0-.65.07-1,.12C329.44,224.45,329.76,224.41,330.09,224.38Z"/><path class="cls-3" d="M303,282.12a2.57,2.57,0,0,0,2.73-3.36,21.77,21.77,0,0,1-.23-2.31c-.09-.63-.08-1.46-.46-1.82-.55-.5-1.58-1.08-2.13-.88a12.8,12.8,0,0,0-4,2.29c-.37.31.09,1.59.18,2.43A4.28,4.28,0,0,0,303,282.12Z"/><path class="cls-3" d="M283.82,265.37c1.76-1.06-.84-2.62-.64-4.15,0-.2-.73-.74-1.12-.73a9.24,9.24,0,0,0-2.86.5,3.21,3.21,0,0,0-2.42,3.43c.28.37.79,1.63,1.32,1.65C280,266.11,282.3,266.29,283.82,265.37Z"/><path class="cls-3" d="M297.11,275c.18-1.72-.88-2.38-4.14-2.59a3,3,0,0,0-3.22,2.64c-.15,1.33,1.41,2.56,3.44,2.71C295.05,277.91,297,276.58,297.11,275Z"/><path class="cls-3" d="M282.67,274.26c-.33.91-1.12,2.15-.8,2.69.62,1,1.89,1.67,2.89,2.47,1.77-.51,3.08-.64,2.33-2.68-.19-.53.05-1.23-.18-1.73a8.28,8.28,0,0,0-1.71-2.6c-.18-.16-1.38.76-2.08,1.23A1.28,1.28,0,0,0,282.67,274.26Z"/><path class="cls-3" d="M258.21,255.19a4,4,0,0,0-2.27,2.2c-.42,1.35,1.51,3.07,3.05,3.09s3.19-1.19,3.16-2.33C262.13,257.16,259.31,254.79,258.21,255.19Z"/><path class="cls-3" d="M301.7,286c-1.12-.83-2.26-1.25-3.38-.31-.56.47-1.23,1.59-1,2a3.92,3.92,0,0,0,4,2.77,6.46,6.46,0,0,0,1.9-1.76C303.93,287.39,302.67,286.75,301.7,286Z"/><path class="cls-3" d="M318.26,277.75c.28-.35,1-.91,1.17-1.6.26-1.19-1.31-2.68-2.55-2.64a1.44,1.44,0,0,0-1.62,1.71C315.33,276.78,316.09,277.63,318.26,277.75Z"/><path class="cls-3" d="M304.88,294.28c-.58,0-1.7,1.34-1.59,1.88.15.73,1.24,1.27,2.31,2.23.89-1.05,1.93-1.72,2-2.47C307.73,294.08,305.91,294.28,304.88,294.28Z"/><path class="cls-3" d="M375.09,334.37c-.83,1.22-1.77,2.17-1.6,2.45l3.94.56C377.08,336.44,376.2,335.71,375.09,334.37Z"/><path class="cls-3" d="M310,273.54c-1.21-.06-2,.57-1.76,1.7.17.72,1.07,1.26,2,2.31.88-1.13,1.76-1.76,1.86-2.49C312.31,273.58,311,273.6,310,273.54Z"/><path class="cls-3" d="M291,280.63c-1.12,0-2.34.19-2.25,1.54.05.71,1,1.36,1.9,2.5.95-1.09,1.82-1.67,2-2.41C293,281.15,292.08,280.64,291,280.63Z"/><path class="cls-3" d="M313.54,282c.9.64,1.53,1.44,2.15,1.44s1.49-1.25,1.37-1.5a10.27,10.27,0,0,0-1.9-2.19Z"/><path class="cls-3" d="M269.39,270.31c-.41.74-1.19,1.53-1.12,2.22s1,1.34,1.71,1.59c.31.11,1.49-.94,1.42-1.29a9.94,9.94,0,0,0-1.32-2.54Z"/><path class="cls-3" d="M286,283.5c-.58.62-1.52,1.18-1.62,1.87-.06.47,1,1.31,1.67,1.59.38.15,1.09-.51,2-1Z"/><path class="cls-3" d="M282.28,302.79a9.68,9.68,0,0,0-1.85,1.67A8.31,8.31,0,0,0,282.3,306c.21.1.9-.89,1.63-1.65C283.19,303.65,282.45,302.7,282.28,302.79Z"/><path class="cls-3" d="M347.89,274.07a2.22,2.22,0,0,0,1.4,1.58c.46.11,1.13-.72,2.23-1.5-1.09-.85-1.7-1.68-2.3-1.68S347.88,273.51,347.89,274.07Z"/><path class="cls-3" d="M273.89,332.43c.49.4,1,1.1,1.49,1.11.66,0,1.34-.51,2.61-1.06-1.2-1-1.93-2-2.47-1.87S274.42,331.78,273.89,332.43Z"/><path class="cls-3" d="M258.48,303.65a6.78,6.78,0,0,0,1.8,1.54c.3.1,1-.8,1.7-1.45l-1.65-2.1Z"/><path class="cls-3" d="M359.57,313.71c0,.45,1,1.36,1.39,1.28a2.21,2.21,0,0,0,1.42-1.46c.11-.47-.6-1.11-1.29-2.24C360.3,312.48,359.59,313.08,359.57,313.71Z"/><path class="cls-3" d="M282.11,281.09c.12-.44-.49-1.09-1.06-2.17-.81,1.05-1.46,1.6-1.65,2.27-.08.27.88,1.21,1.28,1.16A2.08,2.08,0,0,0,282.11,281.09Z"/><path class="cls-3" d="M367.86,304.38c-.49,0-1.15.89-1.3,1.5-.08.31.8.85,1.56,1.61.61-.84,1.37-1.5,1.24-1.79C369.11,305.12,368.37,304.36,367.86,304.38Z"/><path class="cls-3" d="M342.59,300.79c-.65.24-1.12,1-1.67,1.5.51.37,1,1,1.55,1s1-.52,2-1.08C343.55,301.49,342.9,300.67,342.59,300.79Z"/><path class="cls-3" d="M245.42,285.57c-.06.39.71,1.24,1.18,1.3s1.22-.48,1.84-.76c0-.25,0-.51.05-.76-.59-.37-1.17-1-1.75-1A1.85,1.85,0,0,0,245.42,285.57Z"/><path class="cls-3" d="M325.75,288.7a5.45,5.45,0,0,0-1.77-1.06c-.44-.08-1,.48-2,1,1.14.69,1.78,1.31,2.49,1.4C324.85,290.11,325.33,289.18,325.75,288.7Z"/><path class="cls-3" d="M321.23,307.5c-.46.07-.81.86-1.2,1.34.52.42,1,1.1,1.57,1.19.41.06.93-.68,1.95-1.49C322.39,308,321.76,307.42,321.23,307.5Z"/><path class="cls-3" d="M297.38,292.57c-.61.2-1,.95-1.54,1.47.5.36,1,1,1.52,1s1-.57,2-1.18C298.39,293.19,297.74,292.45,297.38,292.57Z"/><path class="cls-3" d="M316.55,300.2c.5.49.93,1.15,1.52,1.38.28.11.88-.63,1.68-1.25-.82-.52-1.31-1.07-1.77-1.05S317,299.87,316.55,300.2Z"/><path class="cls-3" d="M312.17,302.91c-.51.12-.86.84-1.28,1.31.46.4.91,1.1,1.39,1.13s1-.63,2-1.37C313.19,303.4,312.6,302.81,312.17,302.91Z"/><path class="cls-3" d="M306.21,288.6c.46.53.84,1.28,1.43,1.5.33.12,1-.62,1.87-1.22-.82-.64-1.29-1.29-1.7-1.25S306.74,288.25,306.21,288.6Z"/><path class="cls-3" d="M287.65,296.84a1.9,1.9,0,0,0,1.33,1.29c.43,0,1.11-.74,1.29-1.29.1-.31-.6-.87-1.2-1.67C288.39,295.93,287.58,296.47,287.65,296.84Z"/><path class="cls-3" d="M276.54,283.8c-1-.75-1.49-1.48-2-1.45s-1,.76-1.55,1.19c.42.39.82,1,1.27,1.09S275.45,284.23,276.54,283.8Z"/><path class="cls-3" d="M317.92,290.24c-.05-.46-.7-.85-1.09-1.27-.4.41-1.07.77-1.14,1.22s.53.94,1.09,1.83C317.36,291.16,318,290.66,317.92,290.24Z"/><path class="cls-3" d="M305.49,302.19c-.55.06-1,.68-1.56,1.06.41.39.77,1,1.24,1.11s1-.37,1.92-.76C306.33,302.89,305.87,302.15,305.49,302.19Z"/><path class="cls-3" d="M228.81,248.88c-.17.43.36,1.15.59,1.74l1-.48,1.42-1.23c-.46-.38-.94-1.06-1.39-1A2.11,2.11,0,0,0,228.81,248.88Z"/><path class="cls-3" d="M327.72,321.92c.4.4.76,1.05,1.21,1.12s1.07-.41,2-.82c-.83-.65-1.3-1.31-1.76-1.31S328.21,321.56,327.72,321.92Z"/><path class="cls-3" d="M323.44,294.36c.08.51.6.94,1.16,1.69l1.48-1.74c-.5-.3-1-.8-1.51-.83S323.39,294.12,323.44,294.36Z"/><path class="cls-3" d="M238.67,268.8a4.54,4.54,0,0,0,1.53.81c.4,0,.86-.46,1.78-1-1-.47-1.59-.95-2.07-.89S239.08,268.42,238.67,268.8Z"/><path class="cls-3" d="M335.2,291c.43.32.86.89,1.29.89s1-.51,2.06-1.09c-1-.44-1.56-.86-2-.78S335.65,290.62,335.2,291Z"/><path class="cls-3" d="M250.12,324.87a4.84,4.84,0,0,0-1.5.85l1.2,1.45,1.39-1.47C250.84,325.41,250.44,324.83,250.12,324.87Z"/><path class="cls-6" d="M297.43,228.48c0,.06-.06.13-.08.19h0l.09-.19Z"/><path class="cls-11" d="M323.71,194.11v0l0,0Z"/><path class="cls-11" d="M305.92,225.27c1.51.61,3,1.22,4.38,1.87h0C308.88,226.49,307.43,225.88,305.92,225.27Z"/><path class="cls-12" d="M334.37,225h0a28.47,28.47,0,0,1-1,3.46l-16.33,30.77h0q-1.81,3.72-3.73,7.39a3,3,0,0,1-2.07,1.48c-.63,0-1.38-1-1.83-1.69a9.92,9.92,0,0,1-1.22-2.86c-.43-1.67-1.46-2.36-3-1.95a2.52,2.52,0,0,0-2,3.08c.06.39.34.79.27,1.13-.16.76-.26,1.76-.77,2.19a4.86,4.86,0,0,1-6.61-.61c-1.24-1.46-2.33-1.51-3.89-.54a4.11,4.11,0,0,1-5.54-1.42,2.59,2.59,0,0,1,.21-2.13c.42-.68,1.37-1,1.87-1.66a4.29,4.29,0,0,0,.86-2.19c0-.25-1.08-.7-1.72-.81-1.25-.22-2.33-.41-3-1.76a2.93,2.93,0,0,1,.11-3.21c2.46-4.58,4.75-9.26,7.07-13.92,1.82-3.66,3.6-7.34,5.39-11,3.41,1.41,10.11-2.84,12.95-1.53a16.25,16.25,0,0,0,1.57.65,14.13,14.13,0,0,0,4.68.88,13.3,13.3,0,0,0,1.55-.09,11.75,11.75,0,0,0,3.06-.81,12.38,12.38,0,0,0,1.51-.74q.9-.51,1.8-1c.61-.29,1.21-.56,1.83-.79a15.44,15.44,0,0,1,1.86-.59c.32-.07.63-.14.95-.19s.65-.09,1-.12h.41a37.35,37.35,0,0,1,3.87.57Z"/><path class="cls-11" d="M326.3,225.28c-.62.23-1.22.5-1.83.79C325.08,225.78,325.68,225.51,326.3,225.28Z"/><path class="cls-13" d="M326.3,225.28c-.62.23-1.22.5-1.83.79C325.08,225.78,325.68,225.51,326.3,225.28Z"/><path class="cls-11" d="M316.55,228.67a14.13,14.13,0,0,1-4.68-.88A14.13,14.13,0,0,0,316.55,228.67Z"/><path class="cls-14" d="M316.55,228.67a14.13,14.13,0,0,1-4.68-.88A14.13,14.13,0,0,0,316.55,228.67Z"/><path class="cls-11" d="M310.3,227.14a16.25,16.25,0,0,0,1.57.65A16.25,16.25,0,0,1,310.3,227.14Z"/><path class="cls-15" d="M310.3,227.14a16.25,16.25,0,0,0,1.57.65A16.25,16.25,0,0,1,310.3,227.14Z"/><path class="cls-11" d="M328.16,224.69a15.44,15.44,0,0,0-1.86.59A15.44,15.44,0,0,1,328.16,224.69Z"/><path class="cls-16" d="M328.16,224.69a15.44,15.44,0,0,0-1.86.59A15.44,15.44,0,0,1,328.16,224.69Z"/><path class="cls-6" d="M334.37,225h0c.06,0,.06,0,0-.13l0,.13Z"/><path class="cls-11" d="M333.89,216.5a8.91,8.91,0,0,0-.58.92A8.91,8.91,0,0,1,333.89,216.5Z"/><path class="cls-11" d="M334.37,225a37.35,37.35,0,0,0-3.87-.57,37.35,37.35,0,0,1,3.87.57Z"/><path class="cls-11" d="M334.37,225h0l0-.13h0Z"/><path class="cls-17" d="M323.67,194.15h0l0,0Z"/><path class="cls-17" d="M323.23,195.27h0a.5.5,0,0,1,0-.12Z"/><path class="cls-6" d="M310.3,227.14h0a16.25,16.25,0,0,0,1.57.65,14.13,14.13,0,0,0,4.68.88,13.3,13.3,0,0,0,1.55-.09,11.75,11.75,0,0,0,3.06-.81,12.38,12.38,0,0,0,1.51-.74q.9-.51,1.8-1c.61-.29,1.21-.56,1.83-.79a15.44,15.44,0,0,1,1.86-.59c.32-.07.63-.14.95-.19s.65-.09,1-.12h.41a37.35,37.35,0,0,1,3.87.57l0-.13a26.2,26.2,0,0,0,.48-8.42s0-.05,0-.08a32,32,0,0,0-2.49-9.12,3.92,3.92,0,0,1,3.12-5.64.45.45,0,0,0,.29-.15l.06,0,.71-1.16,0,0-.19-1A.92.92,0,0,1,336,198l.94-1.91a.92.92,0,0,0-.42-1.22L328,190.74a.92.92,0,0,0-1.22.42l-.93,1.92a.91.91,0,0,1-1.22.41l-.91.62,0,0,0,0-.39,1a.5.5,0,0,0,0,.12.62.62,0,0,0,0,.39c1.33,2.61.73,4.49-2,5.52-1.88.73-3.82,1.3-5.64,2.14-3.58,1.66-7.15,3.63-9,7.2-2.17,4.13-7.39,13.75-9.21,17.95h0l-.09.19c3.41,1.41,10.11-2.84,12.95-1.53"/><circle id="미세플라스틱-182-2" data-name="미세플라스틱-182" class="cls-3" cx="134.83" cy="156.53" r="1.36"/><circle id="미세플라스틱-182-3" data-name="미세플라스틱-182" class="cls-3" cx="127.1" cy="139.22" r="1.36"/><circle id="미세플라스틱-182-4" data-name="미세플라스틱-182" class="cls-3" cx="134.68" cy="129.69" r="1.36"/><circle id="미세플라스틱-182-5" data-name="미세플라스틱-182" class="cls-3" cx="104.39" cy="123.95" r="1.36"/><circle id="미세플라스틱-182-6" data-name="미세플라스틱-182" class="cls-3" cx="106.18" cy="131.58" r="1.36"/><circle id="미세플라스틱-182-7" data-name="미세플라스틱-182" class="cls-3" cx="64.12" cy="162.79" r="1.36"/><circle id="미세플라스틱-182-8" data-name="미세플라스틱-182" class="cls-3" cx="57.59" cy="170.29" r="1.36"/><circle id="미세플라스틱-182-9" data-name="미세플라스틱-182" class="cls-3" cx="48.26" cy="166.39" r="1.36"/><circle id="미세플라스틱-182-10" data-name="미세플라스틱-182" class="cls-3" cx="46.59" cy="180.03" r="1.36"/><circle id="미세플라스틱-182-11" data-name="미세플라스틱-182" class="cls-3" cx="62.32" cy="182.53" r="1.36"/><circle id="미세플라스틱-182-12" data-name="미세플라스틱-182" class="cls-3" cx="127.93" cy="163.12" r="1.36"/><circle id="미세플라스틱-182-13" data-name="미세플라스틱-182" class="cls-3" cx="126.9" cy="152.61" r="1.36"/><circle id="미세플라스틱-182-14" data-name="미세플라스틱-182" class="cls-3" cx="133.7" cy="144.57" r="1.36"/><circle id="미세플라스틱-182-15" data-name="미세플라스틱-182" class="cls-3" cx="180.46" cy="199.82" r="1.36"/><circle id="미세플라스틱-182-16" data-name="미세플라스틱-182" class="cls-3" cx="186.28" cy="210.86" r="1.36"/><circle id="미세플라스틱-182-17" data-name="미세플라스틱-182" class="cls-3" cx="183.06" cy="226.23" r="1.36"/><circle id="미세플라스틱-182-18" data-name="미세플라스틱-182" class="cls-3" cx="183.98" cy="254.55" r="1.36"/><circle id="미세플라스틱-182-19" data-name="미세플라스틱-182" class="cls-3" cx="193.31" cy="248.95" r="1.36"/><circle id="미세플라스틱-182-20" data-name="미세플라스틱-182" class="cls-3" cx="193.31" cy="259.99" r="1.36"/><circle id="미세플라스틱-182-21" data-name="미세플라스틱-182" class="cls-3" cx="186.93" cy="270.25" r="1.36"/><circle id="미세플라스틱-182-22" data-name="미세플라스틱-182" class="cls-3" cx="195.17" cy="270.25" r="1.36"/><circle id="미세플라스틱-182-23" data-name="미세플라스틱-182" class="cls-3" cx="200.29" cy="263.13" r="1.36"/><circle id="미세플라스틱-182-24" data-name="미세플라스틱-182" class="cls-3" cx="200.29" cy="277.71" r="1.36"/><circle id="미세플라스틱-182-25" data-name="미세플라스틱-182" class="cls-3" cx="198.51" cy="281.59" r="1.36"/><circle id="미세플라스틱-182-26" data-name="미세플라스틱-182" class="cls-3" cx="191.87" cy="277.71" r="1.36"/><circle id="미세플라스틱-182-27" data-name="미세플라스틱-182" class="cls-3" cx="191.87" cy="287.59" r="1.36"/><circle id="미세플라스틱-182-28" data-name="미세플라스틱-182" class="cls-3" cx="191.84" cy="220.81" r="1.36"/><circle id="미세플라스틱-182-29" data-name="미세플라스틱-182" class="cls-3" cx="152.03" cy="200.24" r="1.36"/><circle id="미세플라스틱-182-30" data-name="미세플라스틱-182" class="cls-3" cx="140.62" cy="198.62" r="1.36"/><circle id="미세플라스틱-182-31" data-name="미세플라스틱-182" class="cls-3" cx="128.16" cy="205.74" r="1.36"/><circle id="미세플라스틱-182-32" data-name="미세플라스틱-182" class="cls-3" cx="114.17" cy="198.94" r="1.36"/><circle id="미세플라스틱-182-33" data-name="미세플라스틱-182" class="cls-3" cx="98.34" cy="200.06" r="1.36"/><circle id="미세플라스틱-182-34" data-name="미세플라스틱-182" class="cls-3" cx="73.65" cy="204.68" r="1.36"/><circle id="미세플라스틱-182-35" data-name="미세플라스틱-182" class="cls-3" cx="88.36" cy="206.17" r="1.36"/><path class="cls-18" d="M1302.82,258.12c.26-3.83-5.16-29.15-8.59-38.6a166.7,166.7,0,0,0-8.07-17.84c-1.45-7.34-3.9-18.78-7.53-33-2.38-9.32-5.82-22.73-11.64-25.71a14.74,14.74,0,0,0-5.81-1.65c-6.94-3.57-17.45-4.16-23.33-8.33l-.27-.13-.26-12.76c3.1-3,5-7.53,6.08-12.42,1.91-1.39,3.3-5,3.17-7.47a4.59,4.59,0,0,0-2.12-3.44c-.39-11.7-7.66-19-16.65-19s-16.33,7.34-16.66,19a4.15,4.15,0,0,0-2.11,3.44c-.14,2.38,1.25,6,3.17,7.47,1.06,5,3,9.52,6.21,12.56l-.26,12.36-.6.39c-5.88,4.17-16.45,4.76-23.39,8.33a16.3,16.3,0,0,0-5.56,1.59c-5.81,3-9.25,16.39-11.63,25.71-3.63,14.21-6.08,25.64-7.53,33a163.85,163.85,0,0,0-8.07,17.85c-3.44,9.45-8.92,34.76-8.59,38.6-.27,5.48-1.26,21.15,0,26,.79,3.11,5.09,4.43,6.61,4.43s.53-15.8,3.17-17.78,4,12.16,5.75,9.45c2.12-3.44-2-17.12-4.76-23.93a25.58,25.58,0,0,1,3-8.19c5.75-10.71,11.83-24.86,12.89-29.09.66-2.44,1.19-5.42,1.72-8.52,4.23-8.93,7.87-15.4,13-31.13,1.65,9.45,3.5,19.56,5,28.75a74.69,74.69,0,0,1,.4,17.18,23.78,23.78,0,0,0-1.45,3.84c-5.55,19.43-6.55,33.44-4.7,55.85,1.59,19,3.71,36.81,5.29,48.45-1.32,4.09-2.77,9.71-3.63,19.89-1.26,14.48,3,41.64,3.37,56.18a4.81,4.81,0,0,0-.13,1c-.27,17-5.89,19.1-5.75,24,.13,4.56,6.14,5.56,10.17,6.09a8.71,8.71,0,0,0,9.26-5.23c1.39-4.23,1-9.65.13-19a41.44,41.44,0,0,0-1-5.55c.2-12.75,3.17-33.58,4.16-46.86a138.73,138.73,0,0,0-1-28.29c1.72-11,6-37.08,7-50.76.46-5.95.92-11.37,1.25-16.39a36.07,36.07,0,0,0,10.58,0c.33,5.09.79,10.44,1.25,16.39,1.06,13.75,5.29,39.79,7,50.76a139.45,139.45,0,0,0-1,28.29c1.06,13.35,4,34.17,4.16,46.86a25.61,25.61,0,0,0-1,5.55c-.86,9.32-1.32,14.74.13,19a8.8,8.8,0,0,0,9.26,5.23c4-.53,10.11-1.53,10.18-6.09.13-5-5.49-7.13-5.75-24a4.82,4.82,0,0,0-.14-1c.27-14.54,4.56-41.7,3.37-56.18a86.26,86.26,0,0,0-3.63-19.89c1.59-11.64,3.7-29.48,5.29-48.45,1.85-22.41.79-36.42-4.7-55.85a20.19,20.19,0,0,0-1.71-4.3,79,79,0,0,1,.39-16.72c1.52-9.39,3.44-19.63,5.09-29.22,5.29,16.13,8.92,22.61,13.22,31.66.53,3.11,1.06,6.08,1.72,8.53,1.12,4.23,7.14,18.37,12.89,29.08a26.93,26.93,0,0,1,3,8.2c-2.71,6.87-6.88,20.49-4.76,23.93,1.72,2.77,3.11-11.37,5.75-9.46s1.65,17.78,3.17,17.78,5.82-1.32,6.61-4.43C1304.07,279.27,1303.08,263.61,1302.82,258.12Z"/><g id="미세_플라스틱_그룹-6-2" data-name="미세 플라스틱 그룹-6"><circle id="미세플라스틱-177-2" data-name="미세플라스틱-177" class="cls-3" cx="1221.85" cy="197.51" r="2.51"/><circle id="미세플라스틱-178-2" data-name="미세플라스틱-178" class="cls-3" cx="1224.82" cy="192.82" r="2.51"/><circle id="미세플라스틱-179-2" data-name="미세플라스틱-179" class="cls-3" cx="1220" cy="188.19" r="2.51"/><circle id="미세플라스틱-180-2" data-name="미세플라스틱-180" class="cls-3" cx="1222.91" cy="186.34" r="2.51"/><circle id="미세플라스틱-181-2" data-name="미세플라스틱-181" class="cls-3" cx="1227.34" cy="198.83" r="2.51"/><circle id="미세플라스틱-182-36" data-name="미세플라스틱-182" class="cls-3" cx="1217.75" cy="194.41" r="2.51"/><circle id="미세플라스틱-183-2" data-name="미세플라스틱-183" class="cls-3" cx="1215.24" cy="190.9" r="2.51"/><circle id="미세플라스틱-184-2" data-name="미세플라스틱-184" class="cls-3" cx="1230.64" cy="194.41" r="2.51"/><circle id="미세플라스틱-185-2" data-name="미세플라스틱-185" class="cls-3" cx="1226.61" cy="188.19" r="2.51"/><circle id="미세플라스틱-186-2" data-name="미세플라스틱-186" class="cls-3" cx="1230.11" cy="186.34" r="2.51"/><circle id="미세플라스틱-187-2" data-name="미세플라스틱-187" class="cls-3" cx="1234.47" cy="197.78" r="2.51"/><circle id="미세플라스틱-188-2" data-name="미세플라스틱-188" class="cls-3" cx="1237.05" cy="192.82" r="2.51"/><circle id="미세플라스틱-189-2" data-name="미세플라스틱-189" class="cls-3" cx="1241.74" cy="197.51" r="2.51"/><circle id="미세플라스틱-190-2" data-name="미세플라스틱-190" class="cls-3" cx="1233.15" cy="189.91" r="2.51"/><circle id="미세플라스틱-191-2" data-name="미세플라스틱-191" class="cls-3" cx="1237.91" cy="207.16" r="2.51"/><circle id="미세플라스틱-192-2" data-name="미세플라스틱-192" class="cls-3" cx="1241.74" cy="203.79" r="2.51"/><circle id="미세플라스틱-193-2" data-name="미세플라스틱-193" class="cls-3" cx="1236.26" cy="213.38" r="2.51"/><circle id="미세플라스틱-194-2" data-name="미세플라스틱-194" class="cls-3" cx="1233.15" cy="216.48" r="2.51"/><circle id="미세플라스틱-195-2" data-name="미세플라스틱-195" class="cls-3" cx="1241.74" cy="210.93" r="2.51"/><circle id="미세플라스틱-196-2" data-name="미세플라스틱-196" class="cls-3" cx="1233.15" cy="203.26" r="2.51"/><circle id="미세플라스틱-197-2" data-name="미세플라스틱-197" class="cls-3" cx="1237.91" cy="201.35" r="2.51"/><circle id="미세플라스틱-198-2" data-name="미세플라스틱-198" class="cls-3" cx="1231.24" cy="210.2" r="2.51"/><circle id="미세플라스틱-199-2" data-name="미세플라스틱-199" class="cls-3" cx="1228.59" cy="215.36" r="2.51"/><circle id="미세플라스틱-200-2" data-name="미세플라스틱-200" class="cls-3" cx="1221.25" cy="215.36" r="2.51"/><circle id="미세플라스틱-201-2" data-name="미세플라스틱-201" class="cls-3" cx="1225.29" cy="217.41" r="2.51"/><circle id="미세플라스틱-202-2" data-name="미세플라스틱-202" class="cls-3" cx="1228.79" cy="205.51" r="2.51"/><circle id="미세플라스틱-203-2" data-name="미세플라스틱-203" class="cls-3" cx="1224.82" cy="210.93" r="2.51"/><circle id="미세플라스틱-204-2" data-name="미세플라스틱-204" class="cls-3" cx="1217.49" cy="210.93" r="2.51"/><circle id="미세플라스틱-205-2" data-name="미세플라스틱-205" class="cls-3" cx="1214.71" cy="208.42" r="2.51"/><circle id="미세플라스틱-206-2" data-name="미세플라스틱-206" class="cls-3" cx="1224.36" cy="203.26" r="2.51"/><circle id="미세플라스틱-207-2" data-name="미세플라스틱-207" class="cls-3" cx="1221.25" cy="206.44" r="2.51"/><circle id="미세플라스틱-208-2" data-name="미세플라스틱-208" class="cls-3" cx="1214.12" cy="204.72" r="2.51"/><circle id="미세플라스틱-209-2" data-name="미세플라스틱-209" class="cls-3" cx="1218.74" cy="201.35" r="2.51"/><circle id="미세플라스틱-210-2" data-name="미세플라스틱-210" class="cls-3" cx="1213.59" cy="197.78" r="2.51"/><circle id="미세플라스틱-211-2" data-name="미세플라스틱-211" class="cls-3" cx="1215.24" cy="199.56" r="2.51"/></g><path class="cls-19" d="M37.84,140.21H70a0,0,0,0,1,0,0v15.12a2,2,0,0,1-2,2H39.84a2,2,0,0,1-2-2V140.21A0,0,0,0,1,37.84,140.21Z" transform="translate(107.8 297.54) rotate(-180)"/><line class="cls-20" x1="2.06" y1="379.69" x2="199.34" y2="379.69"/><line class="cls-20" x1="227.47" y1="379.69" x2="413.15" y2="379.69"/><text class="cls-21" transform="translate(2.06 371.51)">PRIMA<tspan class="cls-22" x="36.64" y="0">R</tspan><tspan class="cls-23" x="44.09" y="0">Y MICROPL</tspan><tspan class="cls-24" x="107.42" y="0">AS</tspan><tspan x="122.63" y="0">TICS</tspan></text><line class="cls-20" x1="0.39" y1="493.54" x2="197.67" y2="493.54"/><text class="cls-25" transform="translate(0.39 484.7)"><tspan class="cls-26">C</tspan><tspan class="cls-27" x="7.45" y="0">A</tspan><tspan x="14.52" y="0">U</tspan><tspan class="cls-28" x="22.43" y="0">S</tspan><tspan class="cls-29" x="28.85" y="0">A</tspan><tspan x="35.54" y="0">TION OF MICROPL</tspan><tspan class="cls-30" x="128.56" y="0">AS</tspan><tspan x="142.27" y="0">TICS</tspan></text><line class="cls-31" x1="227.47" y1="379.69" x2="393.24" y2="379.69"/><text class="cls-32" transform="translate(228.1 371.51)"><tspan class="cls-33">SECON</tspan><tspan class="cls-34" x="40.66" y="0">D</tspan><tspan class="cls-23" x="48.88" y="0">A</tspan><tspan class="cls-22" x="57.07" y="0">R</tspan><tspan class="cls-33" x="64.52" y="0">Y</tspan><tspan class="cls-35" x="72.29" y="0"> </tspan><tspan class="cls-23" x="75.49" y="0" xml:space="preserve"> MICROPL</tspan><tspan x="131.06" y="0">AS</tspan><tspan class="cls-33" x="146.27" y="0">TICS</tspan></text><text class="cls-36" transform="translate(227.47 395.47)">The result of larger pieces of <tspan x="0" y="13">plastic breaking down into smaller </tspan><tspan x="0" y="26">pieces due to sunlight </tspan><tspan class="cls-37" x="109" y="26">e</tspan><tspan x="114.84" y="26">xpo</tspan><tspan class="cls-38" x="132.79" y="26">sur</tspan><tspan class="cls-39" x="147.93" y="26">e</tspan><tspan class="cls-38" x="154.15" y="26">.</tspan></text><line class="cls-40" x1="419.33" y1="260.41" x2="462.16" y2="260.41"/><polygon class="cls-40" points="461.23 263.72 466.92 260.41 461.23 257.11 461.23 263.72"/><path class="cls-2" d="M442.76,236.36l-2.18,2.26-1.36-1.42,3.84-3.88h2v13.34h-2.34Z"/><circle class="cls-41" cx="443.12" cy="239.97" r="10.92"/><line class="cls-40" x1="638.5" y1="260.41" x2="681.33" y2="260.41"/><polygon class="cls-40" points="680.41 263.72 686.09 260.41 680.41 257.11 680.41 263.72"/><path class="cls-2" d="M657.39,244.83c5.19-3.92,7.21-5.66,7.21-7.58a2.15,2.15,0,0,0-2.42-2,4.63,4.63,0,0,0-3.6,1.6l-1.36-1.54a6.39,6.39,0,0,1,4.92-2.14c2.58,0,4.84,1.46,4.84,4.12,0,2.46-2.26,4.66-5.84,7.36h5.92v2.06h-9.67Z"/><circle class="cls-41" cx="662.14" cy="239.97" r="10.92"/><line class="cls-40" x1="839.68" y1="260.41" x2="882.51" y2="260.41"/><polygon class="cls-40" points="881.59 263.72 887.27 260.41 881.59 257.11 881.59 263.72"/><path class="cls-2" d="M860.15,243.09a5,5,0,0,0,3.7,1.62c1.76,0,2.78-.8,2.78-2s-1.06-1.88-3-1.88c-.56,0-1.34,0-1.54,0v-2.1c.24,0,1,0,1.54,0,1.56,0,2.74-.54,2.74-1.76s-1.2-1.88-2.7-1.88a4.69,4.69,0,0,0-3.44,1.48l-1.2-1.46a6.18,6.18,0,0,1,4.86-2.1c2.88,0,4.82,1.36,4.82,3.6a3.26,3.26,0,0,1-2.9,3.06,3.35,3.35,0,0,1,3.1,3.24c0,2.26-1.94,3.88-5,3.88a6.18,6.18,0,0,1-5-2.16Z"/><circle class="cls-41" cx="863.47" cy="239.97" r="10.92"/><g class="cls-42"><line class="cls-40" x1="1076.86" y1="260.41" x2="1119.69" y2="260.41"/><polygon class="cls-40" points="1118.76 263.72 1124.44 260.41 1118.76 257.11 1118.76 263.72"/></g><path class="cls-2" d="M1101.36,243.55H1095v-1.88l5.48-8.44h3.22v8.26h1.78v2.06h-1.78v3h-2.34Zm-4.06-2.06h4.06v-6.16Z"/><circle class="cls-41" cx="1100.65" cy="239.97" r="10.92"/><text class="cls-36" transform="translate(2.06 395.47)">Tiny pieces of plastic that are <tspan x="0" y="13">purposefully manufactured.</tspan></text><g id="MHSeby.tif"><path class="cls-18" d="M492.55,206.39l.55-.14c0,.63,0,.63.87,1.65l-1.06,1,.11.14,2.44-1.3.1.12L495,209l3-.63.07.16-1.83,2,.2.24a34.08,34.08,0,0,1,5.92-3.76c-1.05,1.08-2.38,1.94-2.65,3.61l.42-.35,5.42-4.34a2.35,2.35,0,0,1,1.86-.5,9.9,9.9,0,0,0,4.26-.3c.36-.1.77-.23,1.07.22,0,.06.31,0,.47-.05a5.63,5.63,0,0,1,1.67-.12,7.24,7.24,0,0,0,3.4,0,14.52,14.52,0,0,1,1.77-.19c-.32,1.37-.6,2.66-.93,3.93,0,.19-.34.37-.55.46-.42.19-.88.29-1.3.48-.22.11-.5.34-.53.55-.08.6-.51.7-1,.81-.72.17-1.46.32-2.18.51a1.12,1.12,0,0,0-1,.85c-.12.43-.76.76-1.22,1a5.8,5.8,0,0,0-2.2,2.14,7.27,7.27,0,0,0-.4,1.18l1.58-.47c-1,1.77-2.65,3.12-2.94,5.34l4-2.06.14.16a5.33,5.33,0,0,0-.28,4.32c.82-.78,1.69-1.51,2.44-2.35,1.19-1.3,2.28-2.69,3.45-4a11.82,11.82,0,0,1,1.94-1.87,3.57,3.57,0,0,0,1.62-3,11.25,11.25,0,0,1,.18-1.84,6.6,6.6,0,0,1,.6-1.66q1.18-2.22,2.45-4.38a1.69,1.69,0,0,1,.83-.74c3.22-.83,6.44-1.7,9.7-2.38,2.52-.52,5.09-.83,7.65-1.17A44.59,44.59,0,0,0,554,197.52c2.37-1,4.76-2,7.13-3a31.36,31.36,0,0,0,8.47-5.72,17.41,17.41,0,0,1,4.9-3.33,19,19,0,0,1,8-1c.56,0,1.14-.08,1.7-.05a11.24,11.24,0,0,1,2.33.25c1.57.42,3.11,1,4.67,1.43a3.94,3.94,0,0,0,1.19.08c1,0,1.13-.23,1.16-1.21a3.35,3.35,0,0,0-1-2.37,7.25,7.25,0,0,0-4.08-2.16c-.65-.14-1.29-.31-1.94-.43a8.53,8.53,0,0,1-4.72-2.75,1.24,1.24,0,0,1-.36-.47,4.11,4.11,0,0,0-2.5-2.49,13.5,13.5,0,0,0-4.33-1.55c-3.29-.25-6.6-1.06-9.92-.16-.87.24-1.73.55-2.61.72-1.25.26-1.76-.09-1.78-1.35a20.93,20.93,0,0,1,.24-4.34c.63-3.23,1.34-6.44,2.21-9.6a32.25,32.25,0,0,1,2-4.48c.5-1.12,1.05-2.23,1.51-3.38a7.71,7.71,0,0,1,1.85-3,2.94,2.94,0,0,0,.76-1.78,4,4,0,0,1,.66-1.67,2.78,2.78,0,0,0,.44-2.45,3.31,3.31,0,0,0-.28-.74,2.38,2.38,0,0,1,.12-2.62,2.18,2.18,0,0,0,.21-1.32c-.2-1.58-.52-3.13-.7-4.71-.16-1.33-.11-2.69-.3-4-.29-2.09-.71-4.16-1.08-6.25a44.32,44.32,0,0,0-7.83-17.85,9.35,9.35,0,0,0-4.26-3.55,9.83,9.83,0,0,0-4.27-.41l-.06.19,1.83.81c-.42.44-1.31.11-1.18,1a8.77,8.77,0,0,0-1.48-.32,8.5,8.5,0,0,0-1.4.21c.51.49,1.46.51,1.44,1.63-1.54-.91-3-.2-4.53,0,1.18.3,1.44,1.61,2.68,2l-.94.56,1.64.94a2.45,2.45,0,0,1-2.2.42,13.12,13.12,0,0,0-2.08,0,.46.46,0,0,0-.26.06l-1.17.83.73.81c-.42.47-1.3.21-1.33,1l-1.6.15,0,.23,2.1,1.59-2.3.82,0,.19,2.13,1.25c.31.19.75.21.77.75,0,.17.38.33.6.47s.41.25.56.34a4.24,4.24,0,0,1-.21.77,1.38,1.38,0,0,1-.55.57c-.46.23-.61.51-.29.93a5.16,5.16,0,0,0,.77.78c.19.17.47.25.67.42a.71.71,0,0,1,.25.49c0,.11-.28.23-.45.27-.43.09-.87.13-1.18.18l-.51,1.25.52.63-1.9.58.21.67-1.69.34,0,.23,1.34,1.23-.06.16c-1.33-.26-2.82-1.35-3.66.65.33.22.67.44,1,.67s.41.47-.1.69l-1.8.77,0,.18h2.46l.05.21a12.88,12.88,0,0,0-4.28,1.93c.81.67,1.84.16,2.79.65l-2.1.59.35.75-1.91.54.38,1.51c-1.33.41-1.33.41-1.34,1.56l-.85,0,1.36,2.58-1.4,1.1c-.41.33-.47.62,0,1a3,3,0,0,1,.92,1.14,1.6,1.6,0,0,1-.25,1.34,1.73,1.73,0,0,0-.36,2.18,2.56,2.56,0,0,1,.1,1.32c-.11.73,0,.89.7.87.33,0,.65-.05,1-.08l-1.59,2,.16.25,1.2-.27-1.88,2.46.68.11-.67.62a11.82,11.82,0,0,1-.93-1.36,45.78,45.78,0,0,0-13.72-15.83c-3.3-2.43-6.77-4.64-10.21-6.87-6.78-4.4-13.22-9.27-19.66-14.15-6.09-4.6-11.93-9.54-18.38-13.66-1.11-.71-2-1.69-3.13-2.44-.9-.62-1.91-1.09-2.87-1.62-.07,0-.21-.09-.24-.07-.56.6-1.23.15-1.85.22a1.37,1.37,0,0,0-.23.11l.73.89c-.46.56-1.41-.33-1.65.68-.24,0-.48-.09-.71-.15a.86.86,0,0,0-1,.24,4,4,0,0,1-1.34.65l-.25.3c.29.15.59.3.87.47s.48.34.84.59l-1,.34-.06.17,1.5.77-.62,0c-1.42.15-2.85.29-4.27.47-.21,0-.64-.09-.6.46,0,.1-.59.24-1.12.45l2.91,1.49-.06.22-.84.43,1.5,1a.42.42,0,0,1-.05.14c-.65.59-.6,1,.31,1.22,1.24.3,2.52.42,3.78.61.15,0,.3,0,.64.07l-1,.57c.9,1,2.17,1,3,1.37a4.12,4.12,0,0,0,.34,1.18c.7.91,1.46,1.78,2.25,2.73-.27.35.12.58.52.73s1,.26,1.58.4a1.11,1.11,0,0,0-.06,1.62,7.57,7.57,0,0,0,1.39,1l-.73.52a10.81,10.81,0,0,0,1.26.76c.42.18.81.5,1.14.62,1.36.46,1.28,1.69,1.69,2.66a1.28,1.28,0,0,0,.11.24s.06,0,.13.11l.17-.36c.86-.07.88.77,1.3,1.19s.7.84,1.08,1.29c.58-.21.83.3,1,.7.67,1.27,1.24,2.59,1.94,3.84.18.32.29,1.05,1,.67,0,1.77,1.05,3,2.06,4.26a23,23,0,0,0,1.85,1.52,3.25,3.25,0,0,1,.65,1.13,7,7,0,0,1,.16.84c.05.18.19.46.3.47,1.07.06,1.43,1.23,2.28,1.48a1.42,1.42,0,0,1,1.06.85l.31-.1.15.9.7-.37-.32,1.08a3.5,3.5,0,0,0,.9.25c.7,0,1,.32.82,1l-.13.61.62.09.1.55.92-.42-.28,2.07,1.19-.4c-.2,1.34-1,2.56-.5,3.95a2.26,2.26,0,0,0,2-1.16c.13-.25.61-.34,1-.55.19,1.47.46,2.85-.22,4.23.82.2.8-.56,1.24-.79a3.92,3.92,0,0,1,.29.58c.12.41.27.63.78.56s.63.2.45.73-.3,1.24-.44,1.85l.27.12.67-.84c.55.33.11,1.5,1.23,1.26-.09.37-.17.67-.23,1a1,1,0,0,0,.45,1.23,2,2,0,0,1,.84,1.37c.08.54.61,1,.94,1.52.17.26.36.5.5.77a7.87,7.87,0,0,0,.59,1.2,1.9,1.9,0,0,1,.6,1.33c0,.55.33.72.84.51.23.4,0,1.09.71,1.19.07,0,.09.26.14.4a19.62,19.62,0,0,0,.71,1.85c.08.17.43.22.78.38,0,.12.06.4.11.67a1.47,1.47,0,0,0,1.18,1.35c.4.07.49.29.48.65,0,.56,0,1.13,0,1.79h2c0,.33.08.78.16,1.23s.07.91.72,1c.2,0,.35.46.53.72,1,0,1,0,1.19,1a2.86,2.86,0,0,1,.13.58c0,.52.24.76.77.88.92.21,1,.51.61,1.34a3,3,0,0,0-.24,1.06c.86-.41,1.12-1.25,1.61-2.11l.41,1.21.65-.86v2l.19,0,.27-.65c.88.93.55,2.06.54,3.17l.79-.06-.62,1.83.84-.45c-1.06,1.37-.68,2.66-.33,4a14.65,14.65,0,0,1,.45,1.73.92.92,0,0,1-.32.73c-1.38,1-2.83,1.89-4.2,2.88a24.28,24.28,0,0,1-7.85,3.7c-3.61,1-7.16,2.23-10.74,3.35a18,18,0,0,1-2.49.68,2.11,2.11,0,0,0-1.88,1.73c.39,0,.79-.16,1,.44s.76,1.32-.39,1.83Z"/></g><g id="미세_플라스틱_그룹-5" data-name="미세 플라스틱 그룹-5"><circle id="미세플라스틱-142" class="cls-3" cx="535.09" cy="182.69" r="1.39"/><circle id="미세플라스틱-143" class="cls-3" cx="536.68" cy="180.12" r="1.39"/><circle id="미세플라스틱-144" class="cls-3" cx="534.03" cy="177.54" r="1.39"/><circle id="미세플라스틱-145" class="cls-3" cx="535.62" cy="176.55" r="1.39"/><circle id="미세플라스틱-146" class="cls-3" cx="538.06" cy="183.42" r="1.39"/><circle id="미세플라스틱-147" class="cls-3" cx="532.78" cy="180.98" r="1.39"/><circle id="미세플라스틱-148" class="cls-3" cx="531.45" cy="179.06" r="1.39"/><circle id="미세플라스틱-149" class="cls-3" cx="539.91" cy="180.98" r="1.39"/><circle id="미세플라스틱-150" class="cls-3" cx="537.67" cy="177.54" r="1.39"/><circle id="미세플라스틱-151" class="cls-3" cx="539.58" cy="176.55" r="1.39"/><circle id="미세플라스틱-152" class="cls-3" cx="541.96" cy="182.83" r="1.39"/><circle id="미세플라스틱-153" class="cls-3" cx="543.35" cy="180.12" r="1.39"/><circle id="미세플라스틱-154" class="cls-3" cx="546" cy="182.69" r="1.39"/><circle id="미세플라스틱-155" class="cls-3" cx="541.24" cy="178.53" r="1.39"/><circle id="미세플라스틱-156" class="cls-3" cx="543.88" cy="187.98" r="1.39"/><circle id="미세플라스틱-157" class="cls-3" cx="546" cy="186.13" r="1.39"/><circle id="미세플라스틱-158" class="cls-3" cx="542.95" cy="191.42" r="1.39"/><circle id="미세플라스틱-159" class="cls-3" cx="541.24" cy="193.07" r="1.39"/><circle id="미세플라스틱-160" class="cls-3" cx="546" cy="190.03" r="1.39"/><circle id="미세플라스틱-161" class="cls-3" cx="541.24" cy="185.87" r="1.39"/><circle id="미세플라스틱-162" class="cls-3" cx="543.88" cy="184.74" r="1.39"/><circle id="미세플라스틱-163" class="cls-3" cx="540.24" cy="189.63" r="1.39"/><circle id="미세플라스틱-164" class="cls-3" cx="538.79" cy="192.48" r="1.39"/><circle id="미세플라스틱-165" class="cls-3" cx="534.76" cy="192.48" r="1.39"/><circle id="미세플라스틱-166" class="cls-3" cx="536.94" cy="193.6" r="1.39"/><circle id="미세플라스틱-167" class="cls-3" cx="538.86" cy="187.06" r="1.39"/><circle id="미세플라스틱-168" class="cls-3" cx="536.68" cy="190.03" r="1.39"/><circle id="미세플라스틱-169" class="cls-3" cx="532.64" cy="190.03" r="1.39"/><circle id="미세플라스틱-170" class="cls-3" cx="531.12" cy="188.64" r="1.39"/><circle id="미세플라스틱-171" class="cls-3" cx="536.41" cy="185.87" r="1.39"/><circle id="미세플라스틱-172" class="cls-3" cx="534.76" cy="187.58" r="1.39"/><circle id="미세플라스틱-173" class="cls-3" cx="530.79" cy="186.59" r="1.39"/><circle id="미세플라스틱-174" class="cls-3" cx="533.37" cy="184.74" r="1.39"/><circle id="미세플라스틱-175" class="cls-3" cx="530.53" cy="182.83" r="1.39"/><circle id="미세플라스틱-176" class="cls-3" cx="531.45" cy="183.82" r="1.39"/></g><line class="cls-31" x1="477.02" y1="493.55" x2="1282.97" y2="493.55"/><line class="cls-31" x1="2.06" y1="493.55" x2="412.57" y2="493.55"/><line class="cls-31" x1="0.33" y1="493.55" x2="413.15" y2="493.55"/><text class="cls-32" transform="translate(477.02 485.38)"><tspan class="cls-33">OCEAN SPECIES FEED MICROPL</tspan><tspan x="180.71" y="0">AS</tspan><tspan class="cls-33" x="195.91" y="0">TICS </tspan></text><line class="cls-43" x1="1.9" y1="513.52" x2="1304.37" y2="513.52"/><path class="cls-6" d="M1050,272.36s-1.64-6-6.38-9.6a25.79,25.79,0,0,0-9.53-4.67,58.12,58.12,0,0,0,9.6-6.44,17.75,17.75,0,0,0,6.06-10,29.27,29.27,0,0,0-13.39,4c-3.92,2.34-6.44,4.1-9.16,5.11a16.41,16.41,0,0,1-6.56.89,20.3,20.3,0,0,1-7.65-2.09,27,27,0,0,0,12.7-9.09s-4.68-3.79-18.38-3.85a70.47,70.47,0,0,0-15.47,1.58,47.5,47.5,0,0,0-18.44-3.54c-1.9,0-3.85.13-5.75.32a64.48,64.48,0,0,0-17.11,4.48c-10.61,4.42-18.76,11-21.66,15.73-.7,1.2.57,2.14.57,3s-1.39,1.95-.76,2.84c2.21,3.28,8.33,6.69,17.17,9.41,2.34.69,4.93,1.39,7.65,2a60.43,60.43,0,0,0,10.61,9.34c6.63,4.3,16.41,4.49,16.41,4.49a72.24,72.24,0,0,0-7.89-11.18l3.66.19A64.07,64.07,0,0,0,994,273.94a32.52,32.52,0,0,0,13.89,2.27c10.29-.75,15.53-4,15.53-4s-2.52-2.78-11.55-5.81c2.71-1.58,5-2.65,7.26-2.65a20.48,20.48,0,0,1,8.65,2c2.84,1.26,5.56,3,9.54,4.61C1044.74,273.37,1050,272.36,1050,272.36Zm-107.67-13.7a3.48,3.48,0,1,1,3.47-3.47h0A3.46,3.46,0,0,1,942.37,258.66Z"/><g id="미세_플라스틱_그룹-2" data-name="미세 플라스틱 그룹-2"><circle id="미세플라스틱-37" class="cls-3" cx="982.88" cy="247.72" r="1.39"/><circle id="미세플라스틱-38" class="cls-3" cx="984.53" cy="245.14" r="1.39"/><circle id="미세플라스틱-39" class="cls-3" cx="981.89" cy="242.57" r="1.39"/><circle id="미세플라스틱-40" class="cls-3" cx="983.47" cy="241.57" r="1.39"/><circle id="미세플라스틱-41" class="cls-3" cx="985.92" cy="248.45" r="1.39"/><circle id="미세플라스틱-42" class="cls-3" cx="980.63" cy="246" r="1.39"/><circle id="미세플라스틱-43" class="cls-3" cx="979.31" cy="244.09" r="1.39"/><circle id="미세플라스틱-44" class="cls-3" cx="987.7" cy="246" r="1.39"/><circle id="미세플라스틱-45" class="cls-3" cx="985.52" cy="242.57" r="1.39"/><circle id="미세플라스틱-46" class="cls-3" cx="987.44" cy="241.57" r="1.39"/><circle id="미세플라스틱-47" class="cls-3" cx="989.82" cy="247.85" r="1.39"/><circle id="미세플라스틱-48" class="cls-3" cx="991.21" cy="245.14" r="1.39"/><circle id="미세플라스틱-49" class="cls-3" cx="993.78" cy="247.72" r="1.39"/><circle id="미세플라스틱-50" class="cls-3" cx="989.09" cy="243.56" r="1.39"/><circle id="미세플라스틱-51" class="cls-3" cx="991.73" cy="253.01" r="1.39"/><circle id="미세플라스틱-52" class="cls-3" cx="993.78" cy="251.16" r="1.39"/><circle id="미세플라스틱-53" class="cls-3" cx="990.81" cy="256.45" r="1.39"/><circle id="미세플라스틱-54" class="cls-3" cx="989.09" cy="258.1" r="1.39"/><circle id="미세플라스틱-55" class="cls-3" cx="993.78" cy="255.06" r="1.39"/><circle id="미세플라스틱-56" class="cls-3" cx="989.09" cy="250.83" r="1.39"/><circle id="미세플라스틱-57" class="cls-3" cx="991.73" cy="249.77" r="1.39"/><circle id="미세플라스틱-58" class="cls-3" cx="988.03" cy="254.66" r="1.39"/><circle id="미세플라스틱-59" class="cls-3" cx="986.58" cy="257.5" r="1.39"/><circle id="미세플라스틱-60" class="cls-3" cx="982.55" cy="257.5" r="1.39"/><circle id="미세플라스틱-61" class="cls-3" cx="984.79" cy="258.63" r="1.39"/><circle id="미세플라스틱-62" class="cls-3" cx="986.71" cy="252.08" r="1.39"/><circle id="미세플라스틱-63" class="cls-3" cx="984.53" cy="255.06" r="1.39"/><circle id="미세플라스틱-64" class="cls-3" cx="980.5" cy="255.06" r="1.39"/><circle id="미세플라스틱-65" class="cls-3" cx="978.98" cy="253.67" r="1.39"/><circle id="미세플라스틱-66" class="cls-3" cx="984.27" cy="250.83" r="1.39"/><circle id="미세플라스틱-67" class="cls-3" cx="982.55" cy="252.61" r="1.39"/><circle id="미세플라스틱-68" class="cls-3" cx="978.65" cy="251.62" r="1.39"/><circle id="미세플라스틱-69" class="cls-3" cx="981.22" cy="249.77" r="1.39"/><circle id="미세플라스틱-70" class="cls-3" cx="978.38" cy="247.85" r="1.39"/><circle id="미세플라스틱-71" class="cls-3" cx="979.31" cy="248.85" r="1.39"/></g><g id="미세_플라스틱_그룹-3" data-name="미세 플라스틱 그룹-3"><circle id="미세플라스틱-72" class="cls-3" cx="973.29" cy="257.9" r="1.39"/><circle id="미세플라스틱-73" class="cls-3" cx="974.88" cy="255.32" r="1.39"/><circle id="미세플라스틱-74" class="cls-3" cx="972.24" cy="252.74" r="1.39"/><circle id="미세플라스틱-75" class="cls-3" cx="973.89" cy="251.75" r="1.39"/><circle id="미세플라스틱-76" class="cls-3" cx="976.27" cy="258.63" r="1.39"/><circle id="미세플라스틱-77" class="cls-3" cx="970.98" cy="256.18" r="1.39"/><circle id="미세플라스틱-78" class="cls-3" cx="969.66" cy="254.27" r="1.39"/><circle id="미세플라스틱-79" class="cls-3" cx="978.12" cy="256.18" r="1.39"/><circle id="미세플라스틱-80" class="cls-3" cx="975.87" cy="252.74" r="1.39"/><circle id="미세플라스틱-81" class="cls-3" cx="977.79" cy="251.75" r="1.39"/><circle id="미세플라스틱-82" class="cls-3" cx="980.17" cy="258.03" r="1.39"/><circle id="미세플라스틱-83" class="cls-3" cx="981.56" cy="255.32" r="1.39"/><circle id="미세플라스틱-84" class="cls-3" cx="984.2" cy="257.9" r="1.39"/><circle id="미세플라스틱-85" class="cls-3" cx="979.44" cy="253.74" r="1.39"/><circle id="미세플라스틱-86" class="cls-3" cx="982.08" cy="263.19" r="1.39"/><circle id="미세플라스틱-87" class="cls-3" cx="984.2" cy="261.34" r="1.39"/><circle id="미세플라스틱-88" class="cls-3" cx="981.16" cy="266.63" r="1.39"/><circle id="미세플라스틱-89" class="cls-3" cx="979.44" cy="268.28" r="1.39"/><circle id="미세플라스틱-90" class="cls-3" cx="984.2" cy="265.24" r="1.39"/><circle id="미세플라스틱-91" class="cls-3" cx="979.44" cy="261.07" r="1.39"/><circle id="미세플라스틱-92" class="cls-3" cx="982.08" cy="259.95" r="1.39"/><circle id="미세플라스틱-93" class="cls-3" cx="978.45" cy="264.84" r="1.39"/><circle id="미세플라스틱-94" class="cls-3" cx="976.99" cy="267.68" r="1.39"/><circle id="미세플라스틱-95" class="cls-3" cx="972.96" cy="267.68" r="1.39"/><circle id="미세플라스틱-96" class="cls-3" cx="975.14" cy="268.81" r="1.39"/><circle id="미세플라스틱-97" class="cls-3" cx="977.06" cy="262.26" r="1.39"/><circle id="미세플라스틱-98" class="cls-3" cx="974.88" cy="265.24" r="1.39"/><circle id="미세플라스틱-99" class="cls-3" cx="970.85" cy="265.24" r="1.39"/><circle id="미세플라스틱-100" class="cls-3" cx="969.33" cy="263.85" r="1.39"/><circle id="미세플라스틱-101" class="cls-3" cx="974.62" cy="261.07" r="1.39"/><circle id="미세플라스틱-102" class="cls-3" cx="972.96" cy="262.79" r="1.39"/><circle id="미세플라스틱-103" class="cls-3" cx="969" cy="261.8" r="1.39"/><circle id="미세플라스틱-104" class="cls-3" cx="971.57" cy="259.95" r="1.39"/><circle id="미세플라스틱-105" class="cls-3" cx="968.73" cy="258.03" r="1.39"/><circle id="미세플라스틱-106" class="cls-3" cx="969.66" cy="259.02" r="1.39"/></g><g id="미세_플라스틱_그룹-4" data-name="미세 플라스틱 그룹-4"><circle id="미세플라스틱-107" class="cls-3" cx="969.86" cy="245.21" r="1.39"/><circle id="미세플라스틱-108" class="cls-3" cx="971.51" cy="242.63" r="1.39"/><circle id="미세플라스틱-109" class="cls-3" cx="968.86" cy="240.12" r="1.39"/><circle id="미세플라스틱-110" class="cls-3" cx="970.45" cy="239.06" r="1.39"/><circle id="미세플라스틱-111" class="cls-3" cx="972.9" cy="245.94" r="1.39"/><circle id="미세플라스틱-112" class="cls-3" cx="967.61" cy="243.49" r="1.39"/><circle id="미세플라스틱-113" class="cls-3" cx="966.29" cy="241.57" r="1.39"/><circle id="미세플라스틱-114" class="cls-3" cx="974.68" cy="243.49" r="1.39"/><circle id="미세플라스틱-115" class="cls-3" cx="972.5" cy="240.12" r="1.39"/><circle id="미세플라스틱-116" class="cls-3" cx="974.35" cy="239.06" r="1.39"/><circle id="미세플라스틱-117" class="cls-3" cx="976.8" cy="245.34" r="1.39"/><circle id="미세플라스틱-118" class="cls-3" cx="978.18" cy="242.63" r="1.39"/><circle id="미세플라스틱-119" class="cls-3" cx="980.76" cy="245.21" r="1.39"/><circle id="미세플라스틱-120" class="cls-3" cx="976.07" cy="241.05" r="1.39"/><circle id="미세플라스틱-121" class="cls-3" cx="978.65" cy="250.5" r="1.39"/><circle id="미세플라스틱-122" class="cls-3" cx="980.76" cy="248.65" r="1.39"/><circle id="미세플라스틱-123" class="cls-3" cx="977.79" cy="253.93" r="1.39"/><circle id="미세플라스틱-124" class="cls-3" cx="976.07" cy="255.59" r="1.39"/><circle id="미세플라스틱-125" class="cls-3" cx="980.76" cy="252.55" r="1.39"/><circle id="미세플라스틱-126" class="cls-3" cx="976.07" cy="248.38" r="1.39"/><circle id="미세플라스틱-127" class="cls-3" cx="978.65" cy="247.33" r="1.39"/><circle id="미세플라스틱-128" class="cls-3" cx="975.01" cy="252.15" r="1.39"/><circle id="미세플라스틱-129" class="cls-3" cx="973.56" cy="254.99" r="1.39"/><circle id="미세플라스틱-130" class="cls-3" cx="969.53" cy="254.99" r="1.39"/><circle id="미세플라스틱-131" class="cls-3" cx="971.77" cy="256.12" r="1.39"/><circle id="미세플라스틱-132" class="cls-3" cx="973.69" cy="249.57" r="1.39"/><circle id="미세플라스틱-133" class="cls-3" cx="971.51" cy="252.55" r="1.39"/><circle id="미세플라스틱-134" class="cls-3" cx="967.48" cy="252.55" r="1.39"/><circle id="미세플라스틱-135" class="cls-3" cx="965.96" cy="251.16" r="1.39"/><circle id="미세플라스틱-136" class="cls-3" cx="971.24" cy="248.38" r="1.39"/><circle id="미세플라스틱-137" class="cls-3" cx="969.53" cy="250.1" r="1.39"/><circle id="미세플라스틱-138" class="cls-3" cx="965.63" cy="249.11" r="1.39"/><circle id="미세플라스틱-139" class="cls-3" cx="968.2" cy="247.33" r="1.39"/><circle id="미세플라스틱-140" class="cls-3" cx="965.36" cy="245.34" r="1.39"/><circle id="미세플라스틱-141" class="cls-3" cx="966.29" cy="246.33" r="1.39"/></g><g class="cls-42"><path class="cls-2" d="M748.92,265.51a10.74,10.74,0,0,1,7.75,5.08,17.28,17.28,0,0,0,1,1.64,19.72,19.72,0,0,0,4.47,5.38,6.38,6.38,0,0,0,3.27,1.27,15.25,15.25,0,0,1,1.63.24,29.46,29.46,0,0,1,5.09,1.58,20.51,20.51,0,0,1,4.53,2.54,8.25,8.25,0,0,0,1.58.9,33.43,33.43,0,0,0,5.56,2.12c1.52.49,2.67.73,2.85.79-2.12-.73-3.75-7.32-1.39-11.92a19.35,19.35,0,0,0,1.75-7.56,7,7,0,0,1,3.51,2.48,4.78,4.78,0,0,0,5,2.24,8.85,8.85,0,0,1-2.9-6.42c-.31-4.47,6.83-7.38,6.83-7.38s-6.05-.48-10.34,1.7a5.69,5.69,0,0,1-2.79.72,10.86,10.86,0,0,0-1-2.42c-.49-.79-1.09-1.57-1.7-2.48-2.3-3.45-4.6-7.8-1.63-12.34.06-.06.06-.12.12-.18,3.27-4.72,27.17-6.54,27.17-6.54,3.14-1.45-4.84-.91-4.84-.91a139.73,139.73,0,0,0-23.78,4.6c-2.12.67-4.06,1.33-5.81,2.06-1.15.48-2.18.91-3.21,1.39-1.39.67-2.78,1.39-4.17,2.18a34.14,34.14,0,0,0-3.88,2.66,23.93,23.93,0,0,0-4.23,4.36,15.62,15.62,0,0,0-2,3.51c-2.72,6.17-7,5.14-8.41,6.05S748.92,265.51,748.92,265.51Z"/><path class="cls-2" d="M757.7,272.23a19.72,19.72,0,0,0,4.47,5.38,38.71,38.71,0,0,1,.37-9.92c.66-4.24,1.87-8.41,1.87-12.71a22.87,22.87,0,0,0-.78-6,23.66,23.66,0,0,0-4.24,4.36,30.42,30.42,0,0,1-.36,9.32C758.6,265.87,757.94,269,757.7,272.23Z"/><path class="cls-2" d="M767.07,279.18a29.46,29.46,0,0,1,5.09,1.58,44.69,44.69,0,0,1-.19-4.9,77.33,77.33,0,0,1,.67-8.17,77.56,77.56,0,0,0,.91-9.08,51.24,51.24,0,0,0-1.88-14.52c-1.39.67-2.78,1.39-4.17,2.18a31.06,31.06,0,0,1,.78,4.11,70.29,70.29,0,0,1-.3,12.89C767.5,268.6,766.83,273.92,767.07,279.18Z"/><path class="cls-2" d="M777.24,262.67c-.3,7.26-1.39,14.76,1,21.6a34.3,34.3,0,0,0,5.56,2.11l-.18-.9a62.17,62.17,0,0,1-1.15-13.8c.18-5.2,1-10.35,1.09-15.55-2.3-3.45-4.6-7.8-1.63-12.34a27.91,27.91,0,0,0-1.27-3c-2.12.67-4.06,1.33-5.81,2.06A57,57,0,0,1,777.24,262.67Z"/><path class="cls-2" d="M757,271.5a19.42,19.42,0,0,0,4.48,5.38,38.74,38.74,0,0,1,.36-9.92c.67-4.23,1.88-8.41,1.88-12.7a22.77,22.77,0,0,0-.79-6,24.26,24.26,0,0,0-4.24,4.35,29.79,29.79,0,0,1-.36,9.32C757.82,265.15,757.21,268.29,757,271.5Z"/><path class="cls-2" d="M766.35,278.4a28.48,28.48,0,0,1,5.08,1.57,44.59,44.59,0,0,1-.18-4.9,75,75,0,0,1,.66-8.17,75.3,75.3,0,0,0,.91-9.07A51.26,51.26,0,0,0,771,243.3q-2.1,1-4.18,2.18a31.22,31.22,0,0,1,.79,4.12,71.1,71.1,0,0,1-.3,12.88C766.77,267.87,766.11,273.19,766.35,278.4Z"/><path class="cls-2" d="M776.51,261.94c-.3,7.26-1.39,14.76,1,21.6a34.44,34.44,0,0,0,5.57,2.12l-.18-.91a62.17,62.17,0,0,1-1.15-13.8c.18-5.2,1-10.34,1.09-15.54-2.3-3.45-4.6-7.81-1.64-12.35a24.19,24.19,0,0,0-1.27-3c-2.12.66-4.05,1.33-5.81,2.05A57,57,0,0,1,776.51,261.94Z"/><circle class="cls-2" cx="760.84" cy="258.01" r="1.57"/><path class="cls-2" d="M771.61,254.32c.55-.31,1.39-.49,1.64.12a.68.68,0,0,1-.07.6,9.77,9.77,0,0,1-2.11,3.09,3.64,3.64,0,0,0-.91,3.51,8.88,8.88,0,0,0,.91,1.45,1.64,1.64,0,0,1,.12,1.57c-.24.43-.79.55-1.15.85a2.84,2.84,0,0,0-1,2.3c0,.85.18,1.75.24,2.6,0,.54-.18,1.21-.72,1.15a.87.87,0,0,1-.55-.36,12.33,12.33,0,0,1-3-9.74C765.68,258.49,769.07,255.71,771.61,254.32Z"/><path class="cls-2" d="M772.76,254.32c.55-.31,1.39-.49,1.63.12a.65.65,0,0,1-.06.6,9.77,9.77,0,0,1-2.11,3.09,3.64,3.64,0,0,0-.91,3.51,8.88,8.88,0,0,0,.91,1.45,1.49,1.49,0,0,1,.12,1.57c-.24.43-.79.55-1.15.85a2.77,2.77,0,0,0-1,2.3c0,.85.24,1.75.3,2.6,0,.54-.18,1.21-.72,1.15a.87.87,0,0,1-.55-.36,12.33,12.33,0,0,1-3-9.74C766.83,258.49,770.22,255.71,772.76,254.32Z"/><ellipse class="cls-2" cx="760.24" cy="257.89" rx="1.21" ry="1.69"/><g id="미세_플라스틱_그룹" data-name="미세 플라스틱 그룹"><circle id="미세플라스틱-2" class="cls-2" cx="770.22" cy="260.85" r="1.09"/><circle id="미세플라스틱-3" class="cls-2" cx="771.55" cy="258.79" r="1.09"/><circle id="미세플라스틱-4" class="cls-2" cx="769.43" cy="256.8" r="1.09"/><circle id="미세플라스틱-5" class="cls-2" cx="770.7" cy="255.95" r="1.09"/><circle id="미세플라스틱-6" class="cls-2" cx="772.64" cy="261.46" r="1.09"/><circle id="미세플라스틱-7" class="cls-2" cx="768.4" cy="259.52" r="1.09"/><circle id="미세플라스틱-8" class="cls-2" cx="767.32" cy="257.95" r="1.09"/><circle id="미세플라스틱-9" class="cls-2" cx="774.09" cy="259.52" r="1.09"/><circle id="미세플라스틱-10" class="cls-2" cx="772.34" cy="256.8" r="1.09"/><circle id="미세플라스틱-11" class="cls-2" cx="773.85" cy="255.95" r="1.09"/><circle id="미세플라스틱-12" class="cls-2" cx="775.79" cy="260.97" r="1.09"/><circle id="미세플라스틱-13" class="cls-2" cx="776.88" cy="258.79" r="1.09"/><circle id="미세플라스틱-14" class="cls-2" cx="778.99" cy="260.85" r="1.09"/><circle id="미세플라스틱-15" class="cls-2" cx="775.18" cy="257.52" r="1.09"/><circle id="미세플라스틱-16" class="cls-2" cx="777.3" cy="265.09" r="1.09"/><circle id="미세플라스틱-17" class="cls-2" cx="778.99" cy="263.63" r="1.09"/><path id="미세플라스틱-18" class="cls-2" d="M776.57,266.78a1.09,1.09,0,0,1,0,2.18,1.09,1.09,0,0,1,0-2.18Z"/><circle id="미세플라스틱-19" class="cls-2" cx="775.18" cy="269.2" r="1.09"/><circle id="미세플라스틱-20" class="cls-2" cx="778.99" cy="266.78" r="1.09"/><circle id="미세플라스틱-21" class="cls-2" cx="775.18" cy="263.39" r="1.09"/><circle id="미세플라스틱-22" class="cls-2" cx="777.3" cy="262.54" r="1.09"/><circle id="미세플라스틱-23" class="cls-2" cx="774.39" cy="266.42" r="1.09"/><circle id="미세플라스틱-24" class="cls-2" cx="773.18" cy="268.72" r="1.09"/><circle id="미세플라스틱-25" class="cls-2" cx="769.98" cy="268.72" r="1.09"/><circle id="미세플라스틱-26" class="cls-2" cx="771.73" cy="269.62" r="1.09"/><circle id="미세플라스틱-27" class="cls-2" cx="773.25" cy="264.42" r="1.09"/><circle id="미세플라스틱-28" class="cls-2" cx="771.55" cy="266.78" r="1.09"/><circle id="미세플라스틱-29" class="cls-2" cx="768.34" cy="266.78" r="1.09"/><circle id="미세플라스틱-30" class="cls-2" cx="767.07" cy="265.63" r="1.09"/><circle id="미세플라스틱-31" class="cls-2" cx="771.31" cy="263.39" r="1.09"/><circle id="미세플라스틱-32" class="cls-2" cx="769.98" cy="264.78" r="1.09"/><circle id="미세플라스틱-33" class="cls-2" cx="766.83" cy="264" r="1.09"/><circle id="미세플라스틱-34" class="cls-2" cx="768.89" cy="262.54" r="1.09"/><circle id="미세플라스틱-35" class="cls-2" cx="766.59" cy="260.97" r="1.09"/><circle id="미세플라스틱-36" class="cls-2" cx="767.32" cy="261.76" r="1.09"/></g></g><g id="미세_플라스틱_그룹-5-2" data-name="미세 플라스틱 그룹-5"><circle id="미세플라스틱-142-2" data-name="미세플라스틱-142" class="cls-3" cx="769.46" cy="258.56" r="1.39"/><circle id="미세플라스틱-143-2" data-name="미세플라스틱-143" class="cls-3" cx="771.05" cy="255.98" r="1.39"/><circle id="미세플라스틱-144-2" data-name="미세플라스틱-144" class="cls-3" cx="768.41" cy="253.41" r="1.39"/><circle id="미세플라스틱-145-2" data-name="미세플라스틱-145" class="cls-3" cx="769.99" cy="252.41" r="1.39"/><circle id="미세플라스틱-146-2" data-name="미세플라스틱-146" class="cls-3" cx="772.44" cy="259.29" r="1.39"/><circle id="미세플라스틱-147-2" data-name="미세플라스틱-147" class="cls-3" cx="767.15" cy="256.84" r="1.39"/><circle id="미세플라스틱-148-2" data-name="미세플라스틱-148" class="cls-3" cx="765.83" cy="254.93" r="1.39"/><circle id="미세플라스틱-149-2" data-name="미세플라스틱-149" class="cls-3" cx="774.29" cy="256.84" r="1.39"/><circle id="미세플라스틱-150-2" data-name="미세플라스틱-150" class="cls-3" cx="772.04" cy="253.41" r="1.39"/><circle id="미세플라스틱-151-2" data-name="미세플라스틱-151" class="cls-3" cx="773.96" cy="252.41" r="1.39"/><circle id="미세플라스틱-152-2" data-name="미세플라스틱-152" class="cls-3" cx="776.34" cy="258.69" r="1.39"/><circle id="미세플라스틱-153-2" data-name="미세플라스틱-153" class="cls-3" cx="777.72" cy="255.98" r="1.39"/><circle id="미세플라스틱-154-2" data-name="미세플라스틱-154" class="cls-3" cx="780.37" cy="258.56" r="1.39"/><circle id="미세플라스틱-155-2" data-name="미세플라스틱-155" class="cls-3" cx="775.61" cy="254.4" r="1.39"/><circle id="미세플라스틱-156-2" data-name="미세플라스틱-156" class="cls-3" cx="778.25" cy="263.85" r="1.39"/><circle id="미세플라스틱-157-2" data-name="미세플라스틱-157" class="cls-3" cx="780.37" cy="262" r="1.39"/><circle id="미세플라스틱-158-2" data-name="미세플라스틱-158" class="cls-3" cx="777.33" cy="267.29" r="1.39"/><circle id="미세플라스틱-159-2" data-name="미세플라스틱-159" class="cls-3" cx="775.61" cy="268.94" r="1.39"/><circle id="미세플라스틱-160-2" data-name="미세플라스틱-160" class="cls-3" cx="780.37" cy="265.9" r="1.39"/><circle id="미세플라스틱-161-2" data-name="미세플라스틱-161" class="cls-3" cx="775.61" cy="261.73" r="1.39"/><circle id="미세플라스틱-162-2" data-name="미세플라스틱-162" class="cls-3" cx="778.25" cy="260.61" r="1.39"/><circle id="미세플라스틱-163-2" data-name="미세플라스틱-163" class="cls-3" cx="774.62" cy="265.5" r="1.39"/><circle id="미세플라스틱-164-2" data-name="미세플라스틱-164" class="cls-3" cx="773.16" cy="268.34" r="1.39"/><circle id="미세플라스틱-165-2" data-name="미세플라스틱-165" class="cls-3" cx="769.13" cy="268.34" r="1.39"/><circle id="미세플라스틱-166-2" data-name="미세플라스틱-166" class="cls-3" cx="771.31" cy="269.47" r="1.39"/><circle id="미세플라스틱-167-2" data-name="미세플라스틱-167" class="cls-3" cx="773.23" cy="262.92" r="1.39"/><circle id="미세플라스틱-168-2" data-name="미세플라스틱-168" class="cls-3" cx="771.05" cy="265.9" r="1.39"/><circle id="미세플라스틱-169-2" data-name="미세플라스틱-169" class="cls-3" cx="767.02" cy="265.9" r="1.39"/><circle id="미세플라스틱-170-2" data-name="미세플라스틱-170" class="cls-3" cx="765.5" cy="264.51" r="1.39"/><circle id="미세플라스틱-171-2" data-name="미세플라스틱-171" class="cls-3" cx="770.78" cy="261.73" r="1.39"/><circle id="미세플라스틱-172-2" data-name="미세플라스틱-172" class="cls-3" cx="769.13" cy="263.45" r="1.39"/><circle id="미세플라스틱-173-2" data-name="미세플라스틱-173" class="cls-3" cx="765.17" cy="262.46" r="1.39"/><circle id="미세플라스틱-174-2" data-name="미세플라스틱-174" class="cls-3" cx="767.74" cy="260.61" r="1.39"/><circle id="미세플라스틱-175-2" data-name="미세플라스틱-175" class="cls-3" cx="764.9" cy="258.69" r="1.39"/><circle id="미세플라스틱-176-2" data-name="미세플라스틱-176" class="cls-3" cx="765.83" cy="259.69" r="1.39"/></g></g></g></svg>