<svg xmlns="http://www.w3.org/2000/svg" xmlns:xlink="http://www.w3.org/1999/xlink" viewBox="0 0 1304.87 611.69"><defs><style>.cls-1{fill:#ffbc6d;opacity:0;}.cls-10,.cls-2,.cls-3,.cls-6,.cls-7{fill:#00cee5;}.cls-10,.cls-11,.cls-2,.cls-20,.cls-8{isolation:isolate;}.cls-23,.cls-28,.cls-32,.cls-36,.cls-4{fill:#ff5400;}.cls-5{fill:#fff;opacity:0.13;}.cls-6{opacity:0.47;}.cls-10,.cls-11,.cls-21,.cls-35,.cls-7,.cls-9{stroke:#00cee5;}.cls-10,.cls-11,.cls-21,.cls-22,.cls-27,.cls-35,.cls-7,.cls-9{stroke-miterlimit:10;}.cls-11,.cls-12,.cls-21,.cls-22,.cls-27,.cls-35,.cls-9{fill:none;}.cls-10,.cls-11,.cls-9{stroke-width:3px;}.cls-13{fill:#d9d9d9;}.cls-14{fill:url(#linear-gradient);}.cls-15{fill:url(#linear-gradient-2);}.cls-16{fill:url(#linear-gradient-3);}.cls-17{fill:url(#linear-gradient-4);}.cls-18{fill:url(#linear-gradient-5);}.cls-19{fill:#00cbe2;}.cls-20{fill:#00cde4;}.cls-21{stroke-width:3.06px;}.cls-22,.cls-27{stroke:#ff5400;}.cls-23,.cls-28{font-size:12px;}.cls-23,.cls-28,.cls-36{font-family:ProximaNova-Semibold, Proxima Nova;font-weight:600;}.cls-23,.cls-29,.cls-31,.cls-36{letter-spacing:0.01em;}.cls-24{letter-spacing:-0.01em;}.cls-25{letter-spacing:0.01em;}.cls-26{letter-spacing:0em;}.cls-27{stroke-width:1.07px;}.cls-30{letter-spacing:-0.02em;}.cls-31{fill:#000;}.cls-32{font-size:11px;font-family:ProximaNova-Regular, Proxima Nova;}.cls-33{letter-spacing:-0.03em;}.cls-34{letter-spacing:0.01em;}.cls-36{font-size:10px;}.cls-37{letter-spacing:-0.05em;}</style><linearGradient id="linear-gradient" x1="351.14" y1="301.7" x2="323.87" y2="343.59" gradientUnits="userSpaceOnUse"><stop offset="0" stop-color="#fff" stop-opacity="0"/><stop offset="1" stop-color="#ff5400"/></linearGradient><linearGradient id="linear-gradient-2" x1="355.58" y1="304.59" x2="328.31" y2="346.49" gradientUnits="userSpaceOnUse"><stop offset="0" stop-color="#fff"/><stop offset="1" stop-color="#ff5400"/></linearGradient><linearGradient id="linear-gradient-3" x1="348.24" y1="299.81" x2="320.97" y2="341.7" xlink:href="#linear-gradient-2"/><linearGradient id="linear-gradient-4" x1="345.44" y1="297.99" x2="318.17" y2="339.88" xlink:href="#linear-gradient-2"/><linearGradient id="linear-gradient-5" x1="356.66" y1="305.3" x2="329.39" y2="347.19" xlink:href="#linear-gradient-2"/></defs><title>diagram4</title><g id="Layer_2" data-name="Layer 2"><g id="Layer_1-2" data-name="Layer 1"><rect class="cls-1" width="1304.87" height="611.69"/><path class="cls-2" d="M1025.87,347.84s-1.71-6.28-6.67-10a27.12,27.12,0,0,0-10-4.89,61,61,0,0,0,10-6.74,18.56,18.56,0,0,0,6.35-10.51,30.63,30.63,0,0,0-14,4.23c-4.1,2.44-6.75,4.29-9.59,5.35a17.42,17.42,0,0,1-6.87.93,21.34,21.34,0,0,1-8-2.18,28.38,28.38,0,0,0,13.29-9.52s-4.89-4-19.24-4A73.37,73.37,0,0,0,965,312.08a49.61,49.61,0,0,0-19.3-3.7c-2,0-4,.13-6,.33a67.34,67.34,0,0,0-17.91,4.69c-11.1,4.63-19.63,11.5-22.67,16.46-.73,1.25.6,2.25.6,3.17s-1.46,2.05-.8,3c2.32,3.43,8.73,7,18,9.84,2.45.73,5.16,1.46,8,2a63.56,63.56,0,0,0,11.1,9.79c6.94,4.49,17.19,4.69,17.19,4.69a76.17,76.17,0,0,0-8.26-11.7l3.83.2a67.29,67.29,0,0,0,18.51-1.39,34.26,34.26,0,0,0,14.54,2.38c10.77-.79,16.26-4.23,16.26-4.23s-2.65-2.91-12.1-6.08c2.84-1.65,5.22-2.78,7.6-2.78a21.43,21.43,0,0,1,9.06,2.12c3,1.32,5.81,3.17,10,4.82C1020.32,348.89,1025.87,347.84,1025.87,347.84ZM913.18,333.49a3.64,3.64,0,1,1,3.63-3.63h0A3.62,3.62,0,0,1,913.18,333.49Z"/><path id="플랑크톤1" class="cls-3" d="M531.27,338.52l-4.82-5s-2.38-.59-1.85.73,4.23,5.22,4.23,5.22l-.13.73-4.7-1.72s-3,.26-.72,1.72a30.42,30.42,0,0,0,5.22,2.64l-.53,1.26-4.36,2.51s-1.85,1.12.53,1a10.88,10.88,0,0,0,4.69-1.72l.39,1.12L525,351.41s-2,2.64,1.13.72a21.29,21.29,0,0,0,5.22-4.49l.93,7.47s-.4,1.12.72.72.86-2.84.86-2.84v-4.36l4.43,4.83s1.85,1.85.73-1.13A33,33,0,0,0,536.5,347l5.61,2.11s1.72.27,0-1.65a34.33,34.33,0,0,0-5.61-2.84l-.14-1.39,6.48-2.64s.73-1.72-1.26-1.39-4.75,1.12-4.75,1.12l2.84-4.49s.26-1.72-1-.86c-1.39,1.19-2.71,2.51-4,3.83l-1.26-.86V333.3s-1.45-1.26-1.71,0S531.27,338.52,531.27,338.52Z"/><path id="플랑크톤1-2" class="cls-3" d="M583,356.56l-2.58-2.64s-1.25-.33-1,.39a16.74,16.74,0,0,0,2.25,2.78l-.07.4-2.51-.93s-1.58.13-.4.93a15.64,15.64,0,0,0,2.78,1.38l-.26.67-2.32,1.32s-1,.59.27.53a5.61,5.61,0,0,0,2.51-.93l.2.6-2.25,2.31s-1.06,1.39.6.4a12.19,12.19,0,0,0,2.77-2.38l.46,4s-.19.59.4.39.46-1.52.46-1.52V362l2.38,2.58s1,1,.4-.6a22.86,22.86,0,0,0-1.32-2.84l3,1.13s.93.13,0-.86a17,17,0,0,0-3-1.52l-.07-.73,3.5-1.39s.4-.92-.66-.73-2.51.6-2.51.6l1.52-2.38s.13-.93-.53-.46c-.72.66-1.45,1.32-2.11,2.05l-.66-.47v-2.51s-.8-.66-.93,0S583,356.56,583,356.56Z"/><path id="플랑크톤2" class="cls-3" d="M560,362.44s-3.57-1.78-5-1.52a3.63,3.63,0,0,0-3.11,2.19c-.66,1.45-1.19,5.75-1.65,6.67a26.3,26.3,0,0,1-1.39,3.11c-.46.59-.86,1.52-.6,1.85S550,373,550,373a17.47,17.47,0,0,0,1.19-2.51c.2-.8.59-2.18.86-3a24.55,24.55,0,0,1,1-3.31c.33-.53-.07-1.32,1.32-1.39a6.79,6.79,0,0,1,3.24.67,13.48,13.48,0,0,0,2.31.59v1.65a17.54,17.54,0,0,0-3.37,1.85c-.92.86-2.51,5.09-2.51,5.09a5.07,5.07,0,0,0-.4,2.12c.2.59.93,0,.93,0l1.39-3.31s1.72-2.64,1.91-2.84,1.59-1.32,1.59-1.32l.07,1.85s-1.66,2.45-2.12,3.3a15.06,15.06,0,0,0-.92,3.77c.06.2.46,1.13.46,1.13a7.83,7.83,0,0,0,1.19-2.38c0-.66.26-2.25.66-2.52a6.6,6.6,0,0,1,1.12-.59l.27,2,.72,2s1.53,2.44,2.19,3.43a8.69,8.69,0,0,1,.86,3.31v5.68s1.19-.92,1.19-1.12.85-2.51.85-2.51l1-.07c.39.46.85.93,1.32,1.39.2.06,1.39.2,1.52-.07a15.06,15.06,0,0,0,.46-1.72,26.69,26.69,0,0,1-2-2.24c-.27-.47-.86-1.46-.86-1.46l.2-5.22-.73-5.49.46-1a14.84,14.84,0,0,1,1.19,2c.6,1.06,1.32,3.64,1.72,3.9a3.26,3.26,0,0,1,.93,1v-2.38a6.12,6.12,0,0,1-1-2.11,7.7,7.7,0,0,0-1.71-3,5.76,5.76,0,0,0-1.79-.93l-.92-.66v-.93a6,6,0,0,1,1.85.07,14.58,14.58,0,0,0,2.64,1.85,8.8,8.8,0,0,1,2.58,2.31c.53.67.79,1.06.79,1.06v-2a9,9,0,0,0-1.19-1.85,5.74,5.74,0,0,0-4.82-2.78,13.84,13.84,0,0,0-2.32-.06c-.59,0-.66-.86-.66-.86v-1.39a13.74,13.74,0,0,0,1.52-1.12c.86-.73,1.06-1.46,2.45-1.33a3.41,3.41,0,0,1,2.44,1.79c.33.59,2.38,2.84,2.58,3.37a10.73,10.73,0,0,0,1.85,2.31,5.68,5.68,0,0,0,1.92,1,8.29,8.29,0,0,0,1.78-.19,1.69,1.69,0,0,0-1.19-1.39,8.19,8.19,0,0,1-2.51-1.19c-.2-.2-2.44-3-2.71-3.31s-2.11-2.84-2.44-3.24a2.71,2.71,0,0,0-1.72-.52,6.08,6.08,0,0,0-2.78,1.38c-.59.66-1.32,1.92-2.11,2.25a11.64,11.64,0,0,1-2.65.53A5.25,5.25,0,0,1,560,362.44Z"/><path id="플랑크톤3" class="cls-3" d="M561.35,338.72s-3.31,1.78-4.1,2.77a10.22,10.22,0,0,0-1.39,3.37,21.32,21.32,0,0,0,2.25,4.17c.2.06,5,0,5,0s.19,1.12.66,1a3.82,3.82,0,0,0,1.45-1.19c.07-.2,1-.6,1-.6a3.74,3.74,0,0,1-.46,1.39,14.48,14.48,0,0,0-.93,2.31h1.39s.6-1.65.8-2a2.9,2.9,0,0,1,1-.73v1.19c0,.47-.92,1.66-1,1.86a5.18,5.18,0,0,0-.2,1.45c.07.2.66.26.93,0a9.7,9.7,0,0,0,1-1.85,1.08,1.08,0,0,1,1-.66c.46.06,0,1.06,0,1.45s-.79,1.46-.86,1.72-.33,2-.06,1.45a23.6,23.6,0,0,1,1.52-2.11s.86-.53.79.33a14.93,14.93,0,0,0,0,3.5,21.67,21.67,0,0,0,1.65,2.38c.2.07,1.13,1.32,1.46,1.13s.92-.2.86-.86-.33-.8-1.06-1.66a3.11,3.11,0,0,1-1.13-2.31c-.06-1.19-.06-2.58-.13-4.16a35.28,35.28,0,0,0-.2-3.84,7,7,0,0,0-1.45-4c-.79-.8-1.32-2.25-2.51-3a9.54,9.54,0,0,0-3.11-1.72A14.51,14.51,0,0,0,563,339,4.76,4.76,0,0,1,561.35,338.72Z"/><path id="플랑크톤3-2" class="cls-3" d="M595.19,324.44a15.22,15.22,0,0,0-3-.53,4.67,4.67,0,0,0-2,.93,18.88,18.88,0,0,0-.79,2.84c.06.13,2.24,2.11,2.24,2.11s-.39.6-.13.73a2.53,2.53,0,0,0,1.19.07c.13-.07.73.19.73.19a1.53,1.53,0,0,1-.79.4,13.5,13.5,0,0,0-1.39.66l.59.6s1-.53,1.19-.6a3.52,3.52,0,0,1,.79.13l-.52.53c-.2.2-1.13.33-1.26.4a3,3,0,0,0-.73.53c-.06.13.2.39.4.39a3.86,3.86,0,0,0,1.26-.39.59.59,0,0,1,.72.13c.13.2-.46.46-.59.66s-1,.33-1.13.4-1,.72-.66.66l1.59-.33s.59.13.2.53a8.42,8.42,0,0,0-1.52,1.58c-.13.6-.2,1.19-.27,1.79.07.13,0,1.06.14,1.12s.52.33.79,0,.2-.53.2-1.19a2.08,2.08,0,0,1,.46-1.52c.46-.53,1.06-1.19,1.72-1.92s1.06-1.19,1.52-1.78a4.69,4.69,0,0,0,1.06-2.38,9.64,9.64,0,0,0,.19-2.45,7.84,7.84,0,0,0-.66-2.11,8.87,8.87,0,0,0-.92-1.32A2.68,2.68,0,0,1,595.19,324.44Z"/><circle id="미세플라스틱" class="cls-4" cx="583.29" cy="359.27" r="0.93"/><path id="미세_플라스틱2" data-name="미세 플라스틱2" class="cls-5" d="M461,318.89c-.86,1.19-.33.92-1.39,2.05s-1.46,1.45-1.46,1.91-.06.86.73.86.93-.66,1.46,0,.13.86.92.93a2.15,2.15,0,0,0,1.39-.33,8.17,8.17,0,0,0,1.06-1.06c.19-.4.72-.4,0-1.52s-1.59-2.31-1.59-2.31Z"/><path id="미세_플라스틱2-2" data-name="미세 플라스틱2-2" class="cls-5" d="M445.31,370c-1,0-.59.2-1.59.13s-1.32-.2-1.58,0-.46.33-.13.73.72.2.59.79-.4.4-.13.86a1.66,1.66,0,0,0,.73.6,5.79,5.79,0,0,0,.92.13c.33-.07.46.2.79-.6s.6-1.72.6-1.72Z"/><path id="미세_플라스틱2-3" data-name="미세 플라스틱2-3" class="cls-6" d="M582.56,342.35a8.93,8.93,0,0,1-1.45.73c-.93.33-1.32.33-1.45.59s-.33.47.13.73.73-.07.79.46-.2.53.2.8a1.49,1.49,0,0,0,.86.26,4,4,0,0,0,.92-.26c.27-.14.53,0,.47-.86s-.14-1.79-.14-1.79Z"/><path id="미세_플라스틱3" data-name="미세 플라스틱3" class="cls-6" d="M551,351.21c-1,.53-2.38.46-2.84,1.45s-.53,1.85-.73,2.18S546,356.3,546,356.63s-2.45,1.65-.73,1.52a22.21,22.21,0,0,0,4.63-1c.92-.2,3.1-.33,3.3-1a8.21,8.21,0,0,0,.53-3.18c-.26-.86-.53-1.72-.86-2.58Z"/><path id="미세_플라스틱3-2" data-name="미세 플라스틱3-2" class="cls-6" d="M575.36,321.4c-.73.39-1.78.33-2.12,1.06a17.18,17.18,0,0,0-.52,1.65c-.14.26-1.06,1.06-1.06,1.32s-1.85,1.19-.53,1.12a15.48,15.48,0,0,0,3.44-.72c.66-.2,2.31-.27,2.44-.73a6.68,6.68,0,0,0,.4-2.31c-.2-.66-.4-1.26-.66-1.92Z"/><path id="미세_플라스틱_4" data-name="미세 플라스틱 4" class="cls-6" d="M545.35,325.89A37.6,37.6,0,0,0,545,321l-6.61-8.52a3.87,3.87,0,0,1,2-1.72c1.26-.4,8.66-3.64,9.39-4s7.27-4,7.27-4a3.17,3.17,0,0,0,1.19,2.58,14.63,14.63,0,0,0,4.76,2.84c.79.2,3.77.59,4.69,1.12s4.3,2.45,4.63,3-1.92,2-1.92,2l-10.9,6.74-9.32,5.62Z"/><path id="플라스틱" class="cls-6" d="M599.15,311.81c-1-.33-1.65-.92-2.11,0s-.4,1.59-1.19,2.12a8.44,8.44,0,0,0-1.59,1.45,2.24,2.24,0,0,0-.53,1.92c.2.66-.52,2,1.06,1.45s1.65-1.25,2.71-.92,1.92,1.32,2.45,1.06,2.18-.86,2.18-.86a4.74,4.74,0,0,0,1.59-1.19c.39-.66-.53-1.26.92-1.06s2.12.53,3.24.73,1.92.72,2.11-.2a7.66,7.66,0,0,0,.53-2.64c-.13-.86-.33-3.57-.66-4s-.2-1.19-1.19-1.06a14.82,14.82,0,0,0-3.9,1.39c-.86.4-3.24,1.65-3.24,1.65Z"/><line class="cls-7" x1="620.3" y1="336.53" x2="663.13" y2="336.53"/><polygon class="cls-7" points="662.2 339.84 667.89 336.53 662.2 333.23 662.2 339.84"/><line class="cls-7" x1="419.33" y1="336.53" x2="462.16" y2="336.53"/><polygon class="cls-7" points="461.23 339.84 466.92 336.53 461.23 333.23 461.23 339.84"/><line class="cls-7" x1="810.33" y1="336.53" x2="853.16" y2="336.53"/><polygon class="cls-7" points="852.24 339.84 857.92 336.53 852.24 333.23 852.24 339.84"/><g class="cls-8"><line class="cls-7" x1="1058.86" y1="336.53" x2="1101.69" y2="336.53"/><polygon class="cls-7" points="1100.76 339.84 1106.44 336.53 1100.76 333.23 1100.76 339.84"/></g><g class="cls-8"><path class="cls-3" d="M710.13,339.64a11.72,11.72,0,0,1,8.46,5.55c.4.66.73,1.26,1.12,1.79a21.38,21.38,0,0,0,4.9,5.88,7,7,0,0,0,3.57,1.39,15.92,15.92,0,0,1,1.78.26,31.62,31.62,0,0,1,5.55,1.72,22.5,22.5,0,0,1,5,2.78,9.48,9.48,0,0,0,1.72,1,36.88,36.88,0,0,0,6.08,2.31c1.65.53,2.91.8,3.1.86-2.31-.79-4.09-8-1.52-13a20.89,20.89,0,0,0,1.92-8.26,7.6,7.6,0,0,1,3.84,2.71A5.19,5.19,0,0,0,761,347s-2.85-2.11-3.18-7,7.47-8.07,7.47-8.07-6.61-.53-11.3,1.85a6.14,6.14,0,0,1-3,.8,11.82,11.82,0,0,0-1.13-2.65c-.52-.86-1.18-1.71-1.85-2.71-2.51-3.76-5-8.52-1.78-13.48.07-.07.07-.13.13-.2,3.57-5.15,29.68-7.14,29.68-7.14,3.44-1.58-5.29-1-5.29-1a152.16,152.16,0,0,0-26,5c-2.32.72-4.43,1.45-6.35,2.24-1.26.53-2.38,1-3.5,1.52q-2.28,1.1-4.56,2.38a36,36,0,0,0-4.23,2.91,26.09,26.09,0,0,0-4.63,4.76,16.86,16.86,0,0,0-2.18,3.83c-3,6.74-7.6,5.62-9.19,6.61S710.13,339.64,710.13,339.64Z"/><path class="cls-3" d="M719.71,347a21.38,21.38,0,0,0,4.9,5.88A42.71,42.71,0,0,1,725,342c.73-4.63,2-9.19,2-13.88a24.49,24.49,0,0,0-.86-6.54,25.72,25.72,0,0,0-4.62,4.76,33.11,33.11,0,0,1-.4,10.17C720.71,340,720,343.47,719.71,347Z"/><path class="cls-3" d="M730,354.58a31.62,31.62,0,0,1,5.55,1.72,50.54,50.54,0,0,1-.2-5.36A81.24,81.24,0,0,1,736,342a83.14,83.14,0,0,0,1-9.91,55.61,55.61,0,0,0-2-15.87q-2.28,1.1-4.56,2.38a33.72,33.72,0,0,1,.86,4.5A77.08,77.08,0,0,1,731,337.2C730.42,343,729.7,348.83,730,354.58Z"/><path class="cls-3" d="M741.06,336.53c-.33,7.94-1.52,16.13,1.13,23.6a36,36,0,0,0,6.08,2.31l-.2-1a68.11,68.11,0,0,1-1.26-15.07c.2-5.68,1.06-11.3,1.19-17-2.51-3.77-5-8.53-1.78-13.49a29,29,0,0,0-1.39-3.24c-2.31.73-4.43,1.46-6.34,2.25A62.29,62.29,0,0,1,741.06,336.53Z"/><path class="cls-3" d="M718.92,346.18a21.44,21.44,0,0,0,4.89,5.89,42.26,42.26,0,0,1,.4-10.84c.73-4.63,2-9.19,2-13.88a25,25,0,0,0-.86-6.55,26.41,26.41,0,0,0-4.63,4.76,32.86,32.86,0,0,1-.39,10.18C719.85,339.24,719.19,342.68,718.92,346.18Z"/><path class="cls-3" d="M729.17,353.72a32.15,32.15,0,0,1,5.55,1.72,48,48,0,0,1-.2-5.36,81.44,81.44,0,0,1,.73-8.92,83.14,83.14,0,0,0,1-9.91,56.32,56.32,0,0,0-2-15.87q-2.28,1.1-4.56,2.38a33.72,33.72,0,0,1,.86,4.5,78,78,0,0,1-.33,14.08C729.63,342.22,728.9,348,729.17,353.72Z"/><path class="cls-3" d="M740.27,335.74c-.33,7.93-1.52,16.13,1.12,23.6a37.33,37.33,0,0,0,6.09,2.31l-.2-1A68.21,68.21,0,0,1,746,345.59c.2-5.68,1.06-11.3,1.19-17-2.51-3.76-5-8.52-1.78-13.48a29,29,0,0,0-1.39-3.24c-2.32.73-4.43,1.45-6.35,2.25A62,62,0,0,1,740.27,335.74Z"/><circle class="cls-3" cx="723.15" cy="331.44" r="1.72"/><path class="cls-3" d="M734.92,327.41c.59-.33,1.52-.53,1.78.14a.77.77,0,0,1-.06.66,10.7,10.7,0,0,1-2.32,3.37,4,4,0,0,0-1,3.83,10.61,10.61,0,0,0,1,1.59,1.77,1.77,0,0,1,.13,1.72c-.26.46-.86.59-1.25.92a3.11,3.11,0,0,0-1.06,2.51c0,.93.2,1.92.27,2.84,0,.6-.2,1.33-.8,1.26a1,1,0,0,1-.59-.4,13.5,13.5,0,0,1-3.24-10.64C728.44,332,732.14,328.93,734.92,327.41Z"/><path class="cls-3" d="M736.17,327.41c.6-.33,1.52-.53,1.79.14a.82.82,0,0,1-.07.66,10.67,10.67,0,0,1-2.31,3.37,4,4,0,0,0-1,3.83,9.85,9.85,0,0,0,1,1.59,1.65,1.65,0,0,1,.13,1.72c-.26.46-.86.59-1.26.92a3.05,3.05,0,0,0-1.05,2.51c0,.93.26,1.92.33,2.84,0,.6-.2,1.33-.8,1.26a1,1,0,0,1-.59-.4,13.5,13.5,0,0,1-3.24-10.64C729.7,332,733.4,328.93,736.17,327.41Z"/><ellipse class="cls-3" cx="722.49" cy="331.31" rx="1.32" ry="1.85"/><g id="미세_플라스틱_그룹" data-name="미세 플라스틱 그룹"><circle id="미세플라스틱-2" class="cls-3" cx="733.4" cy="334.55" r="1.19"/><circle id="미세플라스틱-3" class="cls-3" cx="734.85" cy="332.3" r="1.19"/><circle id="미세플라스틱-4" class="cls-3" cx="732.54" cy="330.12" r="1.19"/><circle id="미세플라스틱-5" class="cls-3" cx="733.93" cy="329.2" r="1.19"/><circle id="미세플라스틱-6" class="cls-3" cx="736.04" cy="335.21" r="1.19"/><circle id="미세플라스틱-7" class="cls-3" cx="731.41" cy="333.1" r="1.19"/><circle id="미세플라스틱-8" class="cls-3" cx="730.22" cy="331.38" r="1.19"/><circle id="미세플라스틱-9" class="cls-3" cx="737.63" cy="333.1" r="1.19"/><circle id="미세플라스틱-10" class="cls-3" cx="735.71" cy="330.12" r="1.19"/><circle id="미세플라스틱-11" class="cls-3" cx="737.36" cy="329.2" r="1.19"/><circle id="미세플라스틱-12" class="cls-3" cx="739.48" cy="334.68" r="1.19"/><circle id="미세플라스틱-13" class="cls-3" cx="740.67" cy="332.3" r="1.19"/><circle id="미세플라스틱-14" class="cls-3" cx="742.98" cy="334.55" r="1.19"/><circle id="미세플라스틱-15" class="cls-3" cx="738.82" cy="330.92" r="1.19"/><circle id="미세플라스틱-16" class="cls-3" cx="741.13" cy="339.18" r="1.19"/><circle id="미세플라스틱-17" class="cls-3" cx="742.98" cy="337.59" r="1.19"/><path id="미세플라스틱-18" class="cls-3" d="M740.34,341a1.19,1.19,0,1,1-1.19,1.19A1.19,1.19,0,0,1,740.34,341Z"/><circle id="미세플라스틱-19" class="cls-3" cx="738.82" cy="343.67" r="1.19"/><circle id="미세플라스틱-20" class="cls-3" cx="742.98" cy="341.03" r="1.19"/><circle id="미세플라스틱-21" class="cls-3" cx="738.82" cy="337.33" r="1.19"/><circle id="미세플라스틱-22" class="cls-3" cx="741.13" cy="336.4" r="1.19"/><circle id="미세플라스틱-23" class="cls-3" cx="737.96" cy="340.63" r="1.19"/><circle id="미세플라스틱-24" class="cls-3" cx="736.64" cy="343.14" r="1.19"/><circle id="미세플라스틱-25" class="cls-3" cx="733.13" cy="343.14" r="1.19"/><circle id="미세플라스틱-26" class="cls-3" cx="735.05" cy="344.14" r="1.19"/><circle id="미세플라스틱-27" class="cls-3" cx="736.7" cy="338.45" r="1.19"/><circle id="미세플라스틱-28" class="cls-3" cx="734.85" cy="341.03" r="1.19"/><circle id="미세플라스틱-29" class="cls-3" cx="731.35" cy="341.03" r="1.19"/><circle id="미세플라스틱-30" class="cls-3" cx="729.96" cy="339.77" r="1.19"/><circle id="미세플라스틱-31" class="cls-3" cx="734.59" cy="337.33" r="1.19"/><circle id="미세플라스틱-32" class="cls-3" cx="733.13" cy="338.85" r="1.19"/><circle id="미세플라스틱-33" class="cls-3" cx="729.7" cy="337.99" r="1.19"/><circle id="미세플라스틱-34" class="cls-3" cx="731.94" cy="336.4" r="1.19"/><circle id="미세플라스틱-35" class="cls-3" cx="729.43" cy="334.68" r="1.19"/><circle id="미세플라스틱-36" class="cls-3" cx="730.22" cy="335.54" r="1.19"/></g></g><g id="미세_플라스틱_그룹-2" data-name="미세 플라스틱 그룹-2"><circle id="미세플라스틱-37" class="cls-4" cx="955.88" cy="323.84" r="1.39"/><circle id="미세플라스틱-38" class="cls-4" cx="957.53" cy="321.27" r="1.39"/><circle id="미세플라스틱-39" class="cls-4" cx="954.89" cy="318.69" r="1.39"/><circle id="미세플라스틱-40" class="cls-4" cx="956.47" cy="317.7" r="1.39"/><circle id="미세플라스틱-41" class="cls-4" cx="958.92" cy="324.57" r="1.39"/><circle id="미세플라스틱-42" class="cls-4" cx="953.63" cy="322.13" r="1.39"/><circle id="미세플라스틱-43" class="cls-4" cx="952.31" cy="320.21" r="1.39"/><circle id="미세플라스틱-44" class="cls-4" cx="960.7" cy="322.13" r="1.39"/><circle id="미세플라스틱-45" class="cls-4" cx="958.52" cy="318.69" r="1.39"/><circle id="미세플라스틱-46" class="cls-4" cx="960.44" cy="317.7" r="1.39"/><circle id="미세플라스틱-47" class="cls-4" cx="962.82" cy="323.98" r="1.39"/><circle id="미세플라스틱-48" class="cls-4" cx="964.21" cy="321.27" r="1.39"/><circle id="미세플라스틱-49" class="cls-4" cx="966.78" cy="323.84" r="1.39"/><circle id="미세플라스틱-50" class="cls-4" cx="962.09" cy="319.68" r="1.39"/><circle id="미세플라스틱-51" class="cls-4" cx="964.73" cy="329.13" r="1.39"/><circle id="미세플라스틱-52" class="cls-4" cx="966.78" cy="327.28" r="1.39"/><circle id="미세플라스틱-53" class="cls-4" cx="963.81" cy="332.57" r="1.39"/><circle id="미세플라스틱-54" class="cls-4" cx="962.09" cy="334.22" r="1.39"/><circle id="미세플라스틱-55" class="cls-4" cx="966.78" cy="331.18" r="1.39"/><circle id="미세플라스틱-56" class="cls-4" cx="962.09" cy="326.95" r="1.39"/><circle id="미세플라스틱-57" class="cls-4" cx="964.73" cy="325.89" r="1.39"/><circle id="미세플라스틱-58" class="cls-4" cx="961.03" cy="330.78" r="1.39"/><circle id="미세플라스틱-59" class="cls-4" cx="959.58" cy="333.63" r="1.39"/><circle id="미세플라스틱-60" class="cls-4" cx="955.55" cy="333.63" r="1.39"/><circle id="미세플라스틱-61" class="cls-4" cx="957.79" cy="334.75" r="1.39"/><circle id="미세플라스틱-62" class="cls-4" cx="959.71" cy="328.21" r="1.39"/><circle id="미세플라스틱-63" class="cls-4" cx="957.53" cy="331.18" r="1.39"/><circle id="미세플라스틱-64" class="cls-4" cx="953.5" cy="331.18" r="1.39"/><circle id="미세플라스틱-65" class="cls-4" cx="951.98" cy="329.79" r="1.39"/><circle id="미세플라스틱-66" class="cls-4" cx="957.27" cy="326.95" r="1.39"/><circle id="미세플라스틱-67" class="cls-4" cx="955.55" cy="328.73" r="1.39"/><circle id="미세플라스틱-68" class="cls-4" cx="951.65" cy="327.74" r="1.39"/><circle id="미세플라스틱-69" class="cls-4" cx="954.22" cy="325.89" r="1.39"/><circle id="미세플라스틱-70" class="cls-4" cx="951.38" cy="323.98" r="1.39"/><circle id="미세플라스틱-71" class="cls-4" cx="952.31" cy="324.97" r="1.39"/></g><g id="미세_플라스틱_그룹-3" data-name="미세 플라스틱 그룹-3"><circle id="미세플라스틱-72" class="cls-4" cx="946.29" cy="334.02" r="1.39"/><circle id="미세플라스틱-73" class="cls-4" cx="947.88" cy="331.44" r="1.39"/><circle id="미세플라스틱-74" class="cls-4" cx="945.24" cy="328.87" r="1.39"/><circle id="미세플라스틱-75" class="cls-4" cx="946.89" cy="327.88" r="1.39"/><circle id="미세플라스틱-76" class="cls-4" cx="949.27" cy="334.75" r="1.39"/><circle id="미세플라스틱-77" class="cls-4" cx="943.98" cy="332.3" r="1.39"/><circle id="미세플라스틱-78" class="cls-4" cx="942.66" cy="330.39" r="1.39"/><circle id="미세플라스틱-79" class="cls-4" cx="951.12" cy="332.3" r="1.39"/><circle id="미세플라스틱-80" class="cls-4" cx="948.87" cy="328.87" r="1.39"/><circle id="미세플라스틱-81" class="cls-4" cx="950.79" cy="327.88" r="1.39"/><circle id="미세플라스틱-82" class="cls-4" cx="953.17" cy="334.15" r="1.39"/><circle id="미세플라스틱-83" class="cls-4" cx="954.56" cy="331.44" r="1.39"/><circle id="미세플라스틱-84" class="cls-4" cx="957.2" cy="334.02" r="1.39"/><circle id="미세플라스틱-85" class="cls-4" cx="952.44" cy="329.86" r="1.39"/><circle id="미세플라스틱-86" class="cls-4" cx="955.08" cy="339.31" r="1.39"/><circle id="미세플라스틱-87" class="cls-4" cx="957.2" cy="337.46" r="1.39"/><circle id="미세플라스틱-88" class="cls-4" cx="954.16" cy="342.75" r="1.39"/><circle id="미세플라스틱-89" class="cls-4" cx="952.44" cy="344.4" r="1.39"/><circle id="미세플라스틱-90" class="cls-4" cx="957.2" cy="341.36" r="1.39"/><circle id="미세플라스틱-91" class="cls-4" cx="952.44" cy="337.2" r="1.39"/><circle id="미세플라스틱-92" class="cls-4" cx="955.08" cy="336.07" r="1.39"/><circle id="미세플라스틱-93" class="cls-4" cx="951.45" cy="340.96" r="1.39"/><circle id="미세플라스틱-94" class="cls-4" cx="949.99" cy="343.8" r="1.39"/><circle id="미세플라스틱-95" class="cls-4" cx="945.96" cy="343.8" r="1.39"/><circle id="미세플라스틱-96" class="cls-4" cx="948.14" cy="344.93" r="1.39"/><circle id="미세플라스틱-97" class="cls-4" cx="950.06" cy="338.39" r="1.39"/><circle id="미세플라스틱-98" class="cls-4" cx="947.88" cy="341.36" r="1.39"/><circle id="미세플라스틱-99" class="cls-4" cx="943.85" cy="341.36" r="1.39"/><circle id="미세플라스틱-100" class="cls-4" cx="942.33" cy="339.97" r="1.39"/><circle id="미세플라스틱-101" class="cls-4" cx="947.62" cy="337.2" r="1.39"/><circle id="미세플라스틱-102" class="cls-4" cx="945.96" cy="338.91" r="1.39"/><circle id="미세플라스틱-103" class="cls-4" cx="942" cy="337.92" r="1.39"/><circle id="미세플라스틱-104" class="cls-4" cx="944.57" cy="336.07" r="1.39"/><circle id="미세플라스틱-105" class="cls-4" cx="941.73" cy="334.15" r="1.39"/><circle id="미세플라스틱-106" class="cls-4" cx="942.66" cy="335.15" r="1.39"/></g><g id="미세_플라스틱_그룹-4" data-name="미세 플라스틱 그룹-4"><circle id="미세플라스틱-107" class="cls-4" cx="942.86" cy="321.33" r="1.39"/><circle id="미세플라스틱-108" class="cls-4" cx="944.51" cy="318.75" r="1.39"/><circle id="미세플라스틱-109" class="cls-4" cx="941.86" cy="316.24" r="1.39"/><circle id="미세플라스틱-110" class="cls-4" cx="943.45" cy="315.19" r="1.39"/><circle id="미세플라스틱-111" class="cls-4" cx="945.9" cy="322.06" r="1.39"/><circle id="미세플라스틱-112" class="cls-4" cx="940.61" cy="319.61" r="1.39"/><circle id="미세플라스틱-113" class="cls-4" cx="939.29" cy="317.7" r="1.39"/><circle id="미세플라스틱-114" class="cls-4" cx="947.68" cy="319.61" r="1.39"/><circle id="미세플라스틱-115" class="cls-4" cx="945.5" cy="316.24" r="1.39"/><circle id="미세플라스틱-116" class="cls-4" cx="947.35" cy="315.19" r="1.39"/><circle id="미세플라스틱-117" class="cls-4" cx="949.8" cy="321.46" r="1.39"/><circle id="미세플라스틱-118" class="cls-4" cx="951.18" cy="318.75" r="1.39"/><circle id="미세플라스틱-119" class="cls-4" cx="953.76" cy="321.33" r="1.39"/><circle id="미세플라스틱-120" class="cls-4" cx="949.07" cy="317.17" r="1.39"/><circle id="미세플라스틱-121" class="cls-4" cx="951.65" cy="326.62" r="1.39"/><circle id="미세플라스틱-122" class="cls-4" cx="953.76" cy="324.77" r="1.39"/><circle id="미세플라스틱-123" class="cls-4" cx="950.79" cy="330.06" r="1.39"/><circle id="미세플라스틱-124" class="cls-4" cx="949.07" cy="331.71" r="1.39"/><circle id="미세플라스틱-125" class="cls-4" cx="953.76" cy="328.67" r="1.39"/><circle id="미세플라스틱-126" class="cls-4" cx="949.07" cy="324.5" r="1.39"/><circle id="미세플라스틱-127" class="cls-4" cx="951.65" cy="323.45" r="1.39"/><circle id="미세플라스틱-128" class="cls-4" cx="948.01" cy="328.27" r="1.39"/><circle id="미세플라스틱-129" class="cls-4" cx="946.56" cy="331.11" r="1.39"/><circle id="미세플라스틱-130" class="cls-4" cx="942.53" cy="331.11" r="1.39"/><circle id="미세플라스틱-131" class="cls-4" cx="944.77" cy="332.24" r="1.39"/><circle id="미세플라스틱-132" class="cls-4" cx="946.69" cy="325.69" r="1.39"/><circle id="미세플라스틱-133" class="cls-4" cx="944.51" cy="328.67" r="1.39"/><circle id="미세플라스틱-134" class="cls-4" cx="940.48" cy="328.67" r="1.39"/><circle id="미세플라스틱-135" class="cls-4" cx="938.96" cy="327.28" r="1.39"/><circle id="미세플라스틱-136" class="cls-4" cx="944.24" cy="324.5" r="1.39"/><circle id="미세플라스틱-137" class="cls-4" cx="942.53" cy="326.22" r="1.39"/><circle id="미세플라스틱-138" class="cls-4" cx="938.63" cy="325.23" r="1.39"/><circle id="미세플라스틱-139" class="cls-4" cx="941.2" cy="323.45" r="1.39"/><circle id="미세플라스틱-140" class="cls-4" cx="938.36" cy="321.46" r="1.39"/><circle id="미세플라스틱-141" class="cls-4" cx="939.29" cy="322.46" r="1.39"/></g><g id="미세_플라스틱_그룹-5" data-name="미세 플라스틱 그룹-5"><circle id="미세플라스틱-142" class="cls-4" cx="733.46" cy="334.68" r="1.39"/><circle id="미세플라스틱-143" class="cls-4" cx="735.05" cy="332.11" r="1.39"/><circle id="미세플라스틱-144" class="cls-4" cx="732.41" cy="329.53" r="1.39"/><circle id="미세플라스틱-145" class="cls-4" cx="733.99" cy="328.54" r="1.39"/><circle id="미세플라스틱-146" class="cls-4" cx="736.44" cy="335.41" r="1.39"/><circle id="미세플라스틱-147" class="cls-4" cx="731.15" cy="332.97" r="1.39"/><circle id="미세플라스틱-148" class="cls-4" cx="729.83" cy="331.05" r="1.39"/><circle id="미세플라스틱-149" class="cls-4" cx="738.29" cy="332.97" r="1.39"/><circle id="미세플라스틱-150" class="cls-4" cx="736.04" cy="329.53" r="1.39"/><circle id="미세플라스틱-151" class="cls-4" cx="737.96" cy="328.54" r="1.39"/><circle id="미세플라스틱-152" class="cls-4" cx="740.34" cy="334.82" r="1.39"/><circle id="미세플라스틱-153" class="cls-4" cx="741.72" cy="332.11" r="1.39"/><circle id="미세플라스틱-154" class="cls-4" cx="744.37" cy="334.68" r="1.39"/><circle id="미세플라스틱-155" class="cls-4" cx="739.61" cy="330.52" r="1.39"/><circle id="미세플라스틱-156" class="cls-4" cx="742.25" cy="339.97" r="1.39"/><circle id="미세플라스틱-157" class="cls-4" cx="744.37" cy="338.12" r="1.39"/><circle id="미세플라스틱-158" class="cls-4" cx="741.33" cy="343.41" r="1.39"/><circle id="미세플라스틱-159" class="cls-4" cx="739.61" cy="345.06" r="1.39"/><circle id="미세플라스틱-160" class="cls-4" cx="744.37" cy="342.02" r="1.39"/><circle id="미세플라스틱-161" class="cls-4" cx="739.61" cy="337.86" r="1.39"/><circle id="미세플라스틱-162" class="cls-4" cx="742.25" cy="336.73" r="1.39"/><circle id="미세플라스틱-163" class="cls-4" cx="738.62" cy="341.62" r="1.39"/><circle id="미세플라스틱-164" class="cls-4" cx="737.16" cy="344.47" r="1.39"/><circle id="미세플라스틱-165" class="cls-4" cx="733.13" cy="344.47" r="1.39"/><circle id="미세플라스틱-166" class="cls-4" cx="735.31" cy="345.59" r="1.39"/><circle id="미세플라스틱-167" class="cls-4" cx="737.23" cy="339.05" r="1.39"/><circle id="미세플라스틱-168" class="cls-4" cx="735.05" cy="342.02" r="1.39"/><circle id="미세플라스틱-169" class="cls-4" cx="731.02" cy="342.02" r="1.39"/><circle id="미세플라스틱-170" class="cls-4" cx="729.5" cy="340.63" r="1.39"/><circle id="미세플라스틱-171" class="cls-4" cx="734.78" cy="337.86" r="1.39"/><circle id="미세플라스틱-172" class="cls-4" cx="733.13" cy="339.57" r="1.39"/><circle id="미세플라스틱-173" class="cls-4" cx="729.17" cy="338.58" r="1.39"/><circle id="미세플라스틱-174" class="cls-4" cx="731.74" cy="336.73" r="1.39"/><circle id="미세플라스틱-175" class="cls-4" cx="728.9" cy="334.82" r="1.39"/><circle id="미세플라스틱-176" class="cls-4" cx="729.83" cy="335.81" r="1.39"/></g><circle id="미세플라스틱-212" class="cls-4" cx="532.86" cy="344.8" r="1.39"/><circle id="미세플라스틱-213" class="cls-4" cx="562.93" cy="368.33" r="1.39"/><circle id="미세플라스틱-214" class="cls-4" cx="562.93" cy="373.02" r="1.39"/><circle id="미세플라스틱-215" class="cls-4" cx="562.93" cy="344.33" r="1.39"/><circle id="미세플라스틱-216" class="cls-4" cx="595.12" cy="329.73" r="1.39"/><path class="cls-2" d="M662,508.33l-4.24-6.82-1.21-6.06,1.36-2,4.85-20.54-4.32-28.56-16.67-19.93-11.14-5.91,1.9-2.43,4.77-1.36,10.23,2.12,9.85,7.27,5.08-2-9.1-13.71-12-7.43-10.3,7.2-4.17,8.34-5.84-3.11-11.89-.61-2.58-3.56s-2.58-5.76-5-7.42-8.94-4.1-10.15.07.9,8.26,1.21,11a64.87,64.87,0,0,0,1.36,7l-3.71,3.49-5.91,8.79-6.82-4.48-10.76,2.2-11.14,10.46-1,16.44,5.38-.83,4.78-11.22,10.61-8.26,4.77-1.21,1.67.68-3.11,4.63L576.88,459l8.33,25.84,13.72,14.7,4.17,2,2.12,10.61L603.93,520l-2,3.71,2.95.84,6.75-4,2.42-7.12,1.21-5.76s-1-.61-2.42-1.59l10,4.69,13,4.32,9.24-3.63,4.32-6.14.53.76,5,5.6,7.73,1.14,2.35-1.89Z"/><g id="미세_플라스틱_그룹-6" data-name="미세 플라스틱 그룹-6"><circle id="미세플라스틱-177" class="cls-4" cx="615.32" cy="454.09" r="2.51"/><circle id="미세플라스틱-178" class="cls-4" cx="618.3" cy="449.4" r="2.51"/><circle id="미세플라스틱-179" class="cls-4" cx="613.47" cy="444.77" r="2.51"/><circle id="미세플라스틱-180" class="cls-4" cx="616.38" cy="442.92" r="2.51"/><circle id="미세플라스틱-181" class="cls-4" cx="620.81" cy="455.41" r="2.51"/><circle id="미세플라스틱-182" class="cls-4" cx="611.23" cy="450.98" r="2.51"/><circle id="미세플라스틱-183" class="cls-4" cx="608.71" cy="447.48" r="2.51"/><circle id="미세플라스틱-184" class="cls-4" cx="624.11" cy="450.98" r="2.51"/><circle id="미세플라스틱-185" class="cls-4" cx="620.08" cy="444.77" r="2.51"/><circle id="미세플라스틱-186" class="cls-4" cx="623.59" cy="442.92" r="2.51"/><circle id="미세플라스틱-187" class="cls-4" cx="627.95" cy="454.36" r="2.51"/><circle id="미세플라스틱-188" class="cls-4" cx="630.53" cy="449.4" r="2.51"/><circle id="미세플라스틱-189" class="cls-4" cx="635.22" cy="454.09" r="2.51"/><circle id="미세플라스틱-190" class="cls-4" cx="626.63" cy="446.49" r="2.51"/><circle id="미세플라스틱-191" class="cls-4" cx="631.39" cy="463.74" r="2.51"/><circle id="미세플라스틱-192" class="cls-4" cx="635.22" cy="460.37" r="2.51"/><circle id="미세플라스틱-193" class="cls-4" cx="629.73" cy="469.95" r="2.51"/><circle id="미세플라스틱-194" class="cls-4" cx="626.63" cy="473.06" r="2.51"/><circle id="미세플라스틱-195" class="cls-4" cx="635.22" cy="467.51" r="2.51"/><circle id="미세플라스틱-196" class="cls-4" cx="626.63" cy="459.84" r="2.51"/><circle id="미세플라스틱-197" class="cls-4" cx="631.39" cy="457.92" r="2.51"/><circle id="미세플라스틱-198" class="cls-4" cx="624.71" cy="466.78" r="2.51"/><circle id="미세플라스틱-199" class="cls-4" cx="622.07" cy="471.94" r="2.51"/><circle id="미세플라스틱-200" class="cls-4" cx="614.73" cy="471.94" r="2.51"/><circle id="미세플라스틱-201" class="cls-4" cx="618.76" cy="473.99" r="2.51"/><circle id="미세플라스틱-202" class="cls-4" cx="622.26" cy="462.09" r="2.51"/><circle id="미세플라스틱-203" class="cls-4" cx="618.3" cy="467.51" r="2.51"/><circle id="미세플라스틱-204" class="cls-4" cx="610.96" cy="467.51" r="2.51"/><circle id="미세플라스틱-205" class="cls-4" cx="608.19" cy="465" r="2.51"/><circle id="미세플라스틱-206" class="cls-4" cx="617.84" cy="459.84" r="2.51"/><circle id="미세플라스틱-207" class="cls-4" cx="614.73" cy="463.01" r="2.51"/><circle id="미세플라스틱-208" class="cls-4" cx="607.59" cy="461.3" r="2.51"/><circle id="미세플라스틱-209" class="cls-4" cx="612.22" cy="457.92" r="2.51"/><circle id="미세플라스틱-210" class="cls-4" cx="607.06" cy="454.36" r="2.51"/><circle id="미세플라스틱-211" class="cls-4" cx="608.71" cy="456.14" r="2.51"/></g><rect class="cls-3" x="187.85" y="310.04" width="36.53" height="13.75" rx="1" transform="translate(412.23 633.84) rotate(-180)"/><path class="cls-3" d="M157.88,181.32h0v4.43a.49.49,0,0,1-.46.5h-.59a.78.78,0,0,0-.69.75l-1.92,54.39a2.07,2.07,0,0,1-.26.94l-4.14,7.5a1.83,1.83,0,0,1-1.61,1h-9.87a1.84,1.84,0,0,1-1.61-1l-4.14-7.5a2.07,2.07,0,0,1-.26-.94L130.41,187a.78.78,0,0,0-.69-.75h-.59a.49.49,0,0,1-.46-.5v-4.43Z"/><polygon class="cls-3" points="143.23 253.37 143.32 253.37 148.26 253.37 147.61 263.16 143.32 263.16 143.23 263.16 138.94 263.16 138.29 253.37 143.23 253.37"/><path class="cls-9" d="M193.72,263.19h7.52a16.7,16.7,0,0,1,16.7,16.69v30.8H193.72V292.41a5,5,0,0,0-5-5H2.06V263.19Z"/><path class="cls-10" d="M75.71,226.47H44.39c-1.66,0-3,.89-3,2v33.16c0,.73.9,1.32,2,1.32H74.71c1.1,0,2-.59,2-1.32V227.13C76.71,226.76,76.26,226.47,75.71,226.47Z"/><path class="cls-11" d="M46.05,207.54c0-5.91,5.82-10.71,13-10.71s13,4.8,13,10.71M59,189.31l0,7.52m-11.54-7,19.74.6a2,2,0,0,0,2.06-2v-2.7a2,2,0,0,0-2.1-2l-19.71,1a2,2,0,0,0-1.89,1.94l0,1.09A2,2,0,0,0,47.51,189.81Z"/><path class="cls-3" d="M115,218a12.83,12.83,0,0,0-5-8.88,6,6,0,0,1-1.66-2.79c-.32-.93-.44-1.44-.23-1.78a1.82,1.82,0,0,1,.59-.38l4.9-1a1.33,1.33,0,0,0,1-1.58l0-.07a1.33,1.33,0,0,0-1.3-1l-4.87,1.07-.31.06a.49.49,0,0,1-.24,0,.55.55,0,0,1-.31-.23.59.59,0,0,1-.11-.19v-.11a.66.66,0,0,1,0-.14.54.54,0,0,1,.41-.4l.55-.12.53-.12,4-.88a1.37,1.37,0,0,0,.76-.68,1.29,1.29,0,0,0-1.16-1.86l-4.8,1-.51.11a.45.45,0,0,1-.23,0,.56.56,0,0,1-.24-.13.53.53,0,0,1-.11-.15.54.54,0,0,1-.07-.13v0a.5.5,0,0,1,0-.32.52.52,0,0,1,.12-.17.49.49,0,0,1,.26-.15h0l.7-.17,1.54-.32,2.74-.57c.05,0,.08,0,.12,0a1.35,1.35,0,0,0,.79-.69,1.28,1.28,0,0,0,.13-.84,1.33,1.33,0,0,0-1.25-1L107,194.35h0l-.56.11a.32.32,0,0,1-.14,0,.61.61,0,0,1-.27-.08.55.55,0,0,1-.28-.52.52.52,0,0,1,.11-.29l.11-.11a.68.68,0,0,1,.21-.1l.25-.06c1.49-.34,3-.7,4.46-1a2.39,2.39,0,0,0,1.11-.46,1.26,1.26,0,0,0,.34-1.15h0a1.32,1.32,0,0,0-1.53-1l-5.13,1.12h-.15a.51.51,0,0,1-.29-.1.53.53,0,0,1-.26-.45.45.45,0,0,1,.1-.28.81.81,0,0,1,.45-.28l.08,0,2.76-.6,2.55-.55a1.33,1.33,0,0,0,.67-1.43,8.14,8.14,0,0,1-.18-.41.72.72,0,0,0-.11-.15l0,0-.17-.16-.12-.09a1.3,1.3,0,0,0-1-.18l-4.91,1a1.53,1.53,0,0,1-.84-.11.88.88,0,0,1-.25-.18v0a2.39,2.39,0,0,0-1.39-.81,2.32,2.32,0,0,0-.91,0h0a2.62,2.62,0,0,0-2,3.11L103,204.29c0,.05,0,.1.05.15h0l.58,2.32.06.3.21,1a8.75,8.75,0,0,0,1.12,2.4,6.56,6.56,0,0,0,1.84,1.87c2.91,2,3.48,5.06,4.16,8.13.57,2.61,1.16,5.21,1.75,7.82h4.39C116.35,224.88,115.56,221.44,115,218Z"/><path class="cls-9" d="M117.13,228.32H132.4a2.77,2.77,0,0,1,1.8.62,1.7,1.7,0,0,1,.66,1.46L132,260.66a2.31,2.31,0,0,1-2.46,1.79h-23a2.31,2.31,0,0,1-2.46-1.79l-2.85-30.26a1.66,1.66,0,0,1,.65-1.46,2.78,2.78,0,0,1,1.81-.62h13.4Z"/><path class="cls-3" d="M117.16,202.55a3.91,3.91,0,0,0,3-4.39h0s.31,1.68,2.67,1a.7.7,0,0,1,.81,1,7.19,7.19,0,0,1-7.84,2.45A4.26,4.26,0,0,0,117.16,202.55Z"/><path class="cls-3" d="M113.15,201l0,0"/><path class="cls-3" d="M114.68,202a4.39,4.39,0,0,1-1.47-1.31c-.29-.4-.7-1.1-.7-1.1h0l-2-9.29a4.08,4.08,0,0,1,2.77-4.86,3.91,3.91,0,0,1,4.82,3l2.07,9.54c0,.08,0,.17,0,.26a3.91,3.91,0,0,1-3,4.39,4.26,4.26,0,0,1-1.33,0h0Z"/><path class="cls-12" d="M336.87,285c-.6,1.15-1.17,2.32-1.7,3.51C335.7,287.36,336.27,286.19,336.87,285Z"/><path class="cls-12" d="M352.83,304a14.92,14.92,0,0,0,1.66-.81c.66-.38,1.32-.73,2-1.06-.66.33-1.32.68-2,1.06A14.92,14.92,0,0,1,352.83,304Z"/><path class="cls-12" d="M349.47,304.88a14,14,0,0,1-1.71.1A14,14,0,0,0,349.47,304.88Z"/><path class="cls-12" d="M362.64,300.27a3.37,3.37,0,0,1,.46,0,3.37,3.37,0,0,0-.46,0c-.36,0-.71.07-1.07.13C361.93,300.34,362.28,300.3,362.64,300.27Z"/><path class="cls-4" d="M332.81,363.74a2.82,2.82,0,0,0,3-3.69,23.68,23.68,0,0,1-.24-2.55c-.1-.69-.09-1.6-.52-2-.6-.56-1.73-1.2-2.34-1a14.17,14.17,0,0,0-4.38,2.52c-.41.34.1,1.75.2,2.68A4.71,4.71,0,0,0,332.81,363.74Z"/><path class="cls-4" d="M311.78,345.33c1.94-1.17-.92-2.89-.7-4.56,0-.23-.81-.83-1.23-.81a10.16,10.16,0,0,0-3.15.54,3.54,3.54,0,0,0-2.65,3.78c.31.41.86,1.8,1.45,1.81C307.62,346.14,310.11,346.33,311.78,345.33Z"/><path class="cls-4" d="M326.4,355.93c.19-1.89-1-2.62-4.56-2.85a3.33,3.33,0,0,0-3.54,2.9c-.16,1.46,1.56,2.82,3.78,3C324.13,359.11,326.23,357.64,326.4,355.93Z"/><path class="cls-4" d="M310.52,355.1c-.36,1-1.23,2.36-.88,3,.68,1.13,2.08,1.83,3.18,2.71,1.94-.57,3.38-.71,2.56-2.95-.21-.58.05-1.35-.2-1.9a8.89,8.89,0,0,0-1.88-2.86c-.19-.17-1.51.84-2.28,1.35A1.39,1.39,0,0,0,310.52,355.1Z"/><path class="cls-4" d="M283.63,334.13a4.41,4.41,0,0,0-2.5,2.42c-.45,1.48,1.67,3.38,3.36,3.4s3.5-1.31,3.47-2.56C287.94,336.29,284.84,333.69,283.63,334.13Z"/><path class="cls-4" d="M331.44,368c-1.23-.92-2.49-1.39-3.72-.35-.61.52-1.35,1.75-1.13,2.24.66,1.46,1.51,3,4.42,3.05a7,7,0,0,0,2.08-1.93C333.89,369.52,332.5,368.82,331.44,368Z"/><path class="cls-4" d="M349.64,358.94c.31-.4,1.12-1,1.29-1.76.29-1.32-1.45-2.95-2.81-2.91a1.59,1.59,0,0,0-1.78,1.88C346.42,357.87,347.26,358.8,349.64,358.94Z"/><path class="cls-4" d="M334.93,377.1c-.63,0-1.86,1.48-1.74,2.07.16.8,1.36,1.39,2.54,2.46,1-1.16,2.12-1.9,2.18-2.72C338.07,376.88,336.07,377.1,334.93,377.1Z"/><path class="cls-4" d="M412.11,421.17c-.91,1.35-1.94,2.39-1.76,2.69l4.34.61C414.3,423.45,413.33,422.64,412.11,421.17Z"/><path class="cls-4" d="M340.53,354.3c-1.33-.07-2.22.63-1.93,1.88.18.78,1.17,1.38,2.23,2.53,1-1.24,1.93-1.93,2-2.73C343.1,354.34,341.68,354.36,340.53,354.3Z"/><path class="cls-4" d="M319.68,362.1c-1.23,0-2.57.2-2.47,1.7.05.77,1.09,1.48,2.09,2.73,1.05-1.2,2-1.82,2.22-2.64C321.84,362.67,320.87,362.11,319.68,362.1Z"/><path class="cls-4" d="M344.46,363.6c1,.71,1.67,1.59,2.36,1.58s1.64-1.37,1.5-1.65a11.14,11.14,0,0,0-2.08-2.4Z"/><path class="cls-4" d="M295.92,350.76c-.45.81-1.31,1.67-1.23,2.43s1.11,1.48,1.88,1.75c.34.12,1.64-1,1.56-1.42a10.78,10.78,0,0,0-1.45-2.79Z"/><path class="cls-4" d="M314.14,365.25c-.64.68-1.67,1.3-1.78,2.06-.07.51,1.06,1.43,1.83,1.74.42.17,1.19-.56,2.18-1.08Z"/><path class="cls-4" d="M310.09,386.46a10.26,10.26,0,0,0-2,1.83,8.94,8.94,0,0,0,2.05,1.73c.23.1,1-1,1.79-1.81C311.09,387.4,310.28,386.36,310.09,386.46Z"/><path class="cls-4" d="M382.22,354.88a2.39,2.39,0,0,0,1.53,1.74c.5.12,1.25-.79,2.45-1.65-1.19-.93-1.86-1.84-2.53-1.84S382.21,354.27,382.22,354.88Z"/><path class="cls-4" d="M300.86,419c.55.44,1.09,1.21,1.65,1.22.73,0,1.47-.56,2.87-1.17-1.33-1.06-2.13-2.15-2.72-2S301.45,418.33,300.86,419Z"/><path class="cls-4" d="M283.93,387.4c.65.6,1.22,1.41,2,1.69.33.12,1.06-.88,1.87-1.59L286,385.19Z"/><path class="cls-4" d="M395.05,398.46c0,.49,1.09,1.49,1.53,1.41a2.52,2.52,0,0,0,1.57-1.61c.11-.51-.67-1.22-1.43-2.46C395.85,397.1,395.07,397.77,395.05,398.46Z"/><path class="cls-4" d="M309.9,362.6c.14-.48-.54-1.19-1.16-2.39-.9,1.16-1.61,1.76-1.82,2.5-.08.3,1,1.34,1.41,1.28A2.26,2.26,0,0,0,309.9,362.6Z"/><path class="cls-4" d="M404.17,388.21c-.54,0-1.26,1-1.44,1.65-.08.33.88.93,1.72,1.76.67-.92,1.5-1.65,1.37-2C405.54,389,404.72,388.18,404.17,388.21Z"/><path class="cls-4" d="M376.38,384.25c-.71.27-1.23,1.07-1.83,1.66.57.4,1.11,1.08,1.7,1.13s1.15-.57,2.24-1.19C377.45,385,376.73,384.13,376.38,384.25Z"/><path class="cls-4" d="M269.57,367.52c-.06.44.78,1.37,1.3,1.43s1.35-.52,2-.83c0-.28,0-.56.05-.83-.64-.41-1.28-1.14-1.92-1.13A2,2,0,0,0,269.57,367.52Z"/><path class="cls-4" d="M357.88,371a6.29,6.29,0,0,0-1.95-1.16c-.48-.08-1.09.53-2.18,1.13,1.26.75,2,1.44,2.74,1.54C356.88,372.52,357.41,371.5,357.88,371Z"/><path class="cls-4" d="M352.91,391.63c-.51.08-.89.95-1.33,1.47.57.47,1.1,1.22,1.73,1.31.45.07,1-.74,2.15-1.63C354.18,392.16,353.49,391.55,352.91,391.63Z"/><path class="cls-4" d="M326.69,375.23c-.67.22-1.14,1-1.7,1.61.56.4,1.1,1.08,1.68,1.11s1.14-.63,2.23-1.3C327.8,375.9,327.09,375.1,326.69,375.23Z"/><path class="cls-4" d="M347.77,383.61c.54.53,1,1.27,1.66,1.52.31.11,1-.7,1.85-1.38-.91-.57-1.44-1.18-1.95-1.15S348.29,383.25,347.77,383.61Z"/><path class="cls-4" d="M342.94,386.59c-.55.13-.94.93-1.4,1.44.51.44,1,1.21,1.53,1.24s1.07-.7,2.17-1.5C344.07,387.13,343.42,386.47,342.94,386.59Z"/><path class="cls-4" d="M336.39,370.86c.51.58.93,1.4,1.57,1.64.37.14,1.09-.67,2.06-1.33-.9-.7-1.42-1.42-1.86-1.38C337.54,369.85,337,370.48,336.39,370.86Z"/><path class="cls-4" d="M316,379.92a2.11,2.11,0,0,0,1.46,1.41c.48,0,1.23-.81,1.42-1.42.12-.33-.65-1-1.31-1.83C316.81,378.91,315.92,379.51,316,379.92Z"/><path class="cls-4" d="M303.78,365.58c-1-.82-1.64-1.63-2.17-1.59s-1.13.84-1.7,1.31c.47.42.9,1.14,1.4,1.19S302.59,366.06,303.78,365.58Z"/><path class="cls-4" d="M349.27,372.66c0-.5-.77-.93-1.2-1.39-.44.44-1.18.84-1.25,1.34s.58,1,1.19,2C348.66,373.67,349.31,373.13,349.27,372.66Z"/><path class="cls-4" d="M335.61,385.8c-.61.06-1.15.74-1.72,1.16.45.43.85,1.12,1.36,1.23s1.11-.41,2.11-.84C336.53,386.57,336,385.75,335.61,385.8Z"/><path class="cls-4" d="M251.31,327.2c-.19.47.41,1.26.65,1.91l1.06-.53,1.56-1.36c-.51-.4-1-1.16-1.53-1.14A2.33,2.33,0,0,0,251.31,327.2Z"/><path class="cls-4" d="M360,407.49c.44.43.84,1.15,1.33,1.22s1.18-.44,2.22-.9c-.91-.71-1.43-1.44-1.94-1.43S360.58,407.09,360,407.49Z"/><path class="cls-4" d="M355.33,377.19c.1.56.67,1,1.28,1.86l1.62-1.91c-.55-.33-1.09-.88-1.65-.91S355.29,376.93,355.33,377.19Z"/><path class="cls-4" d="M262.15,349.09a5.08,5.08,0,0,0,1.68.89c.45,0,.95-.5,2-1.08-1.14-.53-1.74-1-2.28-1S262.6,348.68,262.15,349.09Z"/><path class="cls-4" d="M368.26,373.45c.48.35.95,1,1.42,1s1.12-.56,2.27-1.2c-1.14-.48-1.72-1-2.18-.85S368.76,373.07,368.26,373.45Z"/><path class="cls-4" d="M274.74,410.73a5.18,5.18,0,0,0-1.65.93c.38.46.76.91,1.32,1.6.63-.66,1.08-1.14,1.52-1.62C275.53,411.32,275.09,410.68,274.74,410.73Z"/><path class="cls-2" d="M326.75,304.77a1.89,1.89,0,0,0-.09.21h0l.1-.21Z"/><path class="cls-13" d="M355.64,267l0,0,0,0Z"/><path class="cls-13" d="M336.07,301.24c1.67.68,3.26,1.34,4.82,2.06h0C339.33,302.58,337.74,301.92,336.07,301.24Z"/><path class="cls-14" d="M367.35,300.89h0a29.83,29.83,0,0,1-1.07,3.81l-17.95,33.82h0c-1.34,2.72-2.7,5.43-4.11,8.12a3.24,3.24,0,0,1-2.28,1.63c-.69,0-1.51-1.09-2-1.86a10.64,10.64,0,0,1-1.34-3.14c-.47-1.83-1.61-2.59-3.34-2.15A2.78,2.78,0,0,0,333,344.5c.07.42.37.87.29,1.24-.17.84-.27,1.94-.84,2.41a5.34,5.34,0,0,1-7.26-.68c-1.37-1.59-2.56-1.65-4.28-.58a4.53,4.53,0,0,1-6.09-1.57,2.86,2.86,0,0,1,.23-2.34c.46-.74,1.5-1.11,2.05-1.83a4.52,4.52,0,0,0,.95-2.4c0-.28-1.19-.77-1.88-.89-1.39-.24-2.57-.45-3.35-1.93a3.21,3.21,0,0,1,.12-3.53c2.71-5,5.22-10.18,7.77-15.3,2-4,4-8.08,5.93-12.12,3.75,1.55,11.11-3.12,14.23-1.68.57.27,1.15.5,1.72.71a15.78,15.78,0,0,0,5.15,1,14,14,0,0,0,1.71-.1,12.86,12.86,0,0,0,3.36-.89,14.92,14.92,0,0,0,1.66-.81c.66-.38,1.32-.73,2-1.06s1.33-.62,2-.87a16.23,16.23,0,0,1,2-.64c.34-.08.69-.15,1-.21s.71-.1,1.07-.13a3.37,3.37,0,0,1,.46,0,40.74,40.74,0,0,1,4.25.63Z"/><path class="cls-13" d="M358.48,301.25c-.68.25-1.34.55-2,.87C357.14,301.8,357.8,301.5,358.48,301.25Z"/><path class="cls-15" d="M358.48,301.25c-.68.25-1.34.55-2,.87C357.14,301.8,357.8,301.5,358.48,301.25Z"/><path class="cls-13" d="M347.76,305a15.73,15.73,0,0,1-5.15-1A15.78,15.78,0,0,0,347.76,305Z"/><path class="cls-16" d="M347.76,305a15.73,15.73,0,0,1-5.15-1A15.78,15.78,0,0,0,347.76,305Z"/><path class="cls-13" d="M340.89,303.3c.57.27,1.15.5,1.72.71C342,303.8,341.46,303.57,340.89,303.3Z"/><path class="cls-17" d="M340.89,303.3c.57.27,1.15.5,1.72.71C342,303.8,341.46,303.57,340.89,303.3Z"/><path class="cls-13" d="M360.53,300.61a16.23,16.23,0,0,0-2,.64A16.23,16.23,0,0,1,360.53,300.61Z"/><path class="cls-18" d="M360.53,300.61a16.23,16.23,0,0,0-2,.64A16.23,16.23,0,0,1,360.53,300.61Z"/><path class="cls-2" d="M367.35,300.89h0c.07,0,.07-.05,0-.14l0,.14Z"/><path class="cls-13" d="M366.82,291.6c-.19.27-.4.61-.64,1C366.42,292.21,366.63,291.87,366.82,291.6Z"/><path class="cls-13" d="M367.35,300.89a40.74,40.74,0,0,0-4.25-.63,40.74,40.74,0,0,1,4.25.63Z"/><path class="cls-13" d="M367.35,300.89h0l0-.14h0Z"/><path class="cls-19" d="M355.59,267h0l0,0Z"/><path class="cls-19" d="M355.1,268.27h0l0-.13Z"/><path class="cls-2" d="M340.89,303.3h0c.57.27,1.15.5,1.72.71a15.73,15.73,0,0,0,5.15,1,14,14,0,0,0,1.71-.1,12.86,12.86,0,0,0,3.36-.89,14.92,14.92,0,0,0,1.66-.81c.66-.38,1.32-.73,2-1.06s1.33-.62,2-.87a16.23,16.23,0,0,1,2-.64c.34-.08.69-.15,1-.21s.71-.1,1.07-.13a3.37,3.37,0,0,1,.46,0,40.74,40.74,0,0,1,4.25.63l0-.14a28.4,28.4,0,0,0,.53-9.26s0-.05,0-.08a35.41,35.41,0,0,0-2.73-10c-1.17-2.91.29-5.73,3.42-6.2a.54.54,0,0,0,.32-.16l.07,0,.78-1.28v0l-.2-1.11a1,1,0,0,1-.46-1.34l1-2.1a1,1,0,0,0-.46-1.34l-9.32-4.56a1,1,0,0,0-1.34.46l-1,2.1a1,1,0,0,1-1.34.46l-1,.68,0,0,0,0-.43,1.11,0,.13a.82.82,0,0,0,0,.43c1.47,2.87.8,4.93-2.15,6.07-2.07.79-4.21,1.42-6.21,2.35-3.93,1.82-7.86,4-9.92,7.91-2.38,4.54-8.13,15.12-10.12,19.73h0l-.1.21c3.75,1.55,11.11-3.12,14.23-1.68"/><circle id="미세플라스틱-182-2" data-name="미세플라스틱-182" class="cls-4" cx="148.01" cy="225.68" r="1.5"/><circle id="미세플라스틱-182-3" data-name="미세플라스틱-182" class="cls-4" cx="139.51" cy="206.65" r="1.5"/><circle id="미세플라스틱-182-4" data-name="미세플라스틱-182" class="cls-4" cx="147.84" cy="196.18" r="1.5"/><circle id="미세플라스틱-182-5" data-name="미세플라스틱-182" class="cls-4" cx="114.54" cy="189.86" r="1.5"/><circle id="미세플라스틱-182-6" data-name="미세플라스틱-182" class="cls-4" cx="116.51" cy="198.25" r="1.5"/><circle id="미세플라스틱-182-7" data-name="미세플라스틱-182" class="cls-4" cx="70.27" cy="232.57" r="1.5"/><circle id="미세플라스틱-182-8" data-name="미세플라스틱-182" class="cls-4" cx="63.1" cy="240.8" r="1.5"/><circle id="미세플라스틱-182-9" data-name="미세플라스틱-182" class="cls-4" cx="52.85" cy="236.52" r="1.5"/><circle id="미세플라스틱-182-10" data-name="미세플라스틱-182" class="cls-4" cx="51.02" cy="251.51" r="1.5"/><circle id="미세플라스틱-182-11" data-name="미세플라스틱-182" class="cls-4" cx="68.3" cy="254.26" r="1.5"/><circle id="미세플라스틱-182-12" data-name="미세플라스틱-182" class="cls-4" cx="140.42" cy="232.93" r="1.5"/><circle id="미세플라스틱-182-13" data-name="미세플라스틱-182" class="cls-4" cx="139.29" cy="221.37" r="1.5"/><circle id="미세플라스틱-182-14" data-name="미세플라스틱-182" class="cls-4" cx="146.76" cy="212.54" r="1.5"/><circle id="미세플라스틱-182-15" data-name="미세플라스틱-182" class="cls-4" cx="198.16" cy="273.27" r="1.5"/><circle id="미세플라스틱-182-16" data-name="미세플라스틱-182" class="cls-4" cx="204.56" cy="285.4" r="1.5"/><circle id="미세플라스틱-182-17" data-name="미세플라스틱-182" class="cls-4" cx="201.02" cy="302.3" r="1.5"/><circle id="미세플라스틱-182-18" data-name="미세플라스틱-182" class="cls-4" cx="202.03" cy="333.42" r="1.5"/><circle id="미세플라스틱-182-19" data-name="미세플라스틱-182" class="cls-4" cx="212.29" cy="327.27" r="1.5"/><circle id="미세플라스틱-182-20" data-name="미세플라스틱-182" class="cls-4" cx="212.29" cy="339.41" r="1.5"/><circle id="미세플라스틱-182-21" data-name="미세플라스틱-182" class="cls-4" cx="205.28" cy="350.69" r="1.5"/><circle id="미세플라스틱-182-22" data-name="미세플라스틱-182" class="cls-4" cx="214.34" cy="350.69" r="1.5"/><circle id="미세플라스틱-182-23" data-name="미세플라스틱-182" class="cls-4" cx="219.96" cy="342.87" r="1.5"/><circle id="미세플라스틱-182-24" data-name="미세플라스틱-182" class="cls-4" cx="219.96" cy="358.89" r="1.5"/><circle id="미세플라스틱-182-25" data-name="미세플라스틱-182" class="cls-4" cx="218" cy="363.16" r="1.5"/><circle id="미세플라스틱-182-26" data-name="미세플라스틱-182" class="cls-4" cx="210.71" cy="358.89" r="1.5"/><circle id="미세플라스틱-182-27" data-name="미세플라스틱-182" class="cls-4" cx="210.71" cy="369.74" r="1.5"/><circle id="미세플라스틱-182-28" data-name="미세플라스틱-182" class="cls-4" cx="210.68" cy="296.35" r="1.5"/><circle id="미세플라스틱-182-29" data-name="미세플라스틱-182" class="cls-4" cx="166.91" cy="273.73" r="1.5"/><circle id="미세플라스틱-182-30" data-name="미세플라스틱-182" class="cls-4" cx="154.37" cy="271.95" r="1.5"/><circle id="미세플라스틱-182-31" data-name="미세플라스틱-182" class="cls-4" cx="140.68" cy="279.77" r="1.5"/><circle id="미세플라스틱-182-32" data-name="미세플라스틱-182" class="cls-4" cx="125.3" cy="272.3" r="1.5"/><circle id="미세플라스틱-182-33" data-name="미세플라스틱-182" class="cls-4" cx="107.89" cy="273.54" r="1.5"/><circle id="미세플라스틱-182-34" data-name="미세플라스틱-182" class="cls-4" cx="80.75" cy="278.61" r="1.5"/><circle id="미세플라스틱-182-35" data-name="미세플라스틱-182" class="cls-4" cx="96.93" cy="280.25" r="1.5"/><path class="cls-20" d="M1302.82,334.25c.26-3.84-5.16-29.15-8.59-38.61a167.6,167.6,0,0,0-8.07-17.84c-1.45-7.34-3.9-18.77-7.53-33-2.38-9.32-5.82-22.74-11.64-25.72a14.74,14.74,0,0,0-5.81-1.65c-6.94-3.57-17.45-4.16-23.33-8.33l-.27-.13-.26-12.75c3.1-3,5-7.54,6.08-12.43,1.91-1.39,3.3-5,3.17-7.47a4.59,4.59,0,0,0-2.12-3.44c-.39-11.7-7.66-19-16.65-19s-16.33,7.34-16.66,19a4.16,4.16,0,0,0-2.11,3.44c-.14,2.38,1.25,6,3.17,7.47,1.06,5,3,9.52,6.21,12.56l-.26,12.36-.6.39c-5.88,4.17-16.45,4.76-23.39,8.33a16.3,16.3,0,0,0-5.56,1.59c-5.81,3-9.25,16.39-11.63,25.71-3.63,14.21-6.08,25.65-7.53,33a163.85,163.85,0,0,0-8.07,17.85c-3.44,9.45-8.92,34.77-8.59,38.6-.27,5.48-1.26,21.15,0,26,.79,3.11,5.09,4.43,6.61,4.43s.53-15.8,3.17-17.78,4,12.16,5.75,9.45c2.12-3.44-2-17.12-4.76-23.93a25.67,25.67,0,0,1,3-8.19c5.75-10.71,11.83-24.85,12.89-29.08.66-2.45,1.19-5.42,1.72-8.53,4.23-8.92,7.87-15.4,13-31.13,1.65,9.45,3.5,19.56,5,28.75a74.77,74.77,0,0,1,.4,17.19,23.67,23.67,0,0,0-1.45,3.83c-5.55,19.43-6.55,33.44-4.7,55.85,1.59,19,3.71,36.82,5.29,48.45-1.32,4.1-2.77,9.72-3.63,19.89-1.26,14.48,3,41.64,3.37,56.19a4.8,4.8,0,0,0-.13,1c-.27,17-5.89,19.1-5.75,24.06.13,4.56,6.14,5.55,10.17,6.08a8.71,8.71,0,0,0,9.26-5.22c1.39-4.23,1-9.65.13-19a41.58,41.58,0,0,0-1-5.56c.2-12.75,3.17-33.57,4.16-46.86a138.76,138.76,0,0,0-1-28.29c1.72-11,6-37.08,7-50.76.46-5.95.92-11.37,1.25-16.39a35.4,35.4,0,0,0,10.58,0c.33,5.09.79,10.44,1.25,16.39,1.06,13.75,5.29,39.79,7,50.76a139.49,139.49,0,0,0-1,28.29c1.06,13.35,4,34.17,4.16,46.86a25.6,25.6,0,0,0-1,5.56c-.86,9.32-1.32,14.74.13,19a8.79,8.79,0,0,0,9.26,5.22c4-.53,10.11-1.52,10.18-6.08.13-5-5.49-7.14-5.75-24.06a4.82,4.82,0,0,0-.14-1c.27-14.55,4.56-41.71,3.37-56.19a86.38,86.38,0,0,0-3.63-19.89c1.59-11.63,3.7-29.48,5.29-48.45,1.85-22.41.79-36.42-4.7-55.85a20.19,20.19,0,0,0-1.71-4.3,79,79,0,0,1,.39-16.72c1.52-9.39,3.44-19.63,5.09-29.21,5.29,16.12,8.92,22.6,13.22,31.66.53,3.1,1.06,6.08,1.72,8.52,1.12,4.23,7.14,18.38,12.89,29.08a26.93,26.93,0,0,1,3,8.2c-2.71,6.87-6.88,20.49-4.76,23.93,1.72,2.77,3.11-11.37,5.75-9.45s1.65,17.78,3.17,17.78,5.82-1.33,6.61-4.43C1304.07,355.4,1303.08,339.73,1302.82,334.25Z"/><g id="미세_플라스틱_그룹-6-2" data-name="미세 플라스틱 그룹-6"><circle id="미세플라스틱-177-2" data-name="미세플라스틱-177" class="cls-4" cx="1221.85" cy="273.63" r="2.51"/><circle id="미세플라스틱-178-2" data-name="미세플라스틱-178" class="cls-4" cx="1224.82" cy="268.94" r="2.51"/><circle id="미세플라스틱-179-2" data-name="미세플라스틱-179" class="cls-4" cx="1220" cy="264.31" r="2.51"/><circle id="미세플라스틱-180-2" data-name="미세플라스틱-180" class="cls-4" cx="1222.91" cy="262.46" r="2.51"/><circle id="미세플라스틱-181-2" data-name="미세플라스틱-181" class="cls-4" cx="1227.34" cy="274.96" r="2.51"/><circle id="미세플라스틱-182-36" data-name="미세플라스틱-182" class="cls-4" cx="1217.75" cy="270.53" r="2.51"/><circle id="미세플라스틱-183-2" data-name="미세플라스틱-183" class="cls-4" cx="1215.24" cy="267.02" r="2.51"/><circle id="미세플라스틱-184-2" data-name="미세플라스틱-184" class="cls-4" cx="1230.64" cy="270.53" r="2.51"/><circle id="미세플라스틱-185-2" data-name="미세플라스틱-185" class="cls-4" cx="1226.61" cy="264.31" r="2.51"/><circle id="미세플라스틱-186-2" data-name="미세플라스틱-186" class="cls-4" cx="1230.11" cy="262.46" r="2.51"/><circle id="미세플라스틱-187-2" data-name="미세플라스틱-187" class="cls-4" cx="1234.47" cy="273.9" r="2.51"/><circle id="미세플라스틱-188-2" data-name="미세플라스틱-188" class="cls-4" cx="1237.05" cy="268.94" r="2.51"/><circle id="미세플라스틱-189-2" data-name="미세플라스틱-189" class="cls-4" cx="1241.74" cy="273.63" r="2.51"/><circle id="미세플라스틱-190-2" data-name="미세플라스틱-190" class="cls-4" cx="1233.15" cy="266.03" r="2.51"/><circle id="미세플라스틱-191-2" data-name="미세플라스틱-191" class="cls-4" cx="1237.91" cy="283.28" r="2.51"/><circle id="미세플라스틱-192-2" data-name="미세플라스틱-192" class="cls-4" cx="1241.74" cy="279.91" r="2.51"/><circle id="미세플라스틱-193-2" data-name="미세플라스틱-193" class="cls-4" cx="1236.26" cy="289.5" r="2.51"/><circle id="미세플라스틱-194-2" data-name="미세플라스틱-194" class="cls-4" cx="1233.15" cy="292.6" r="2.51"/><circle id="미세플라스틱-195-2" data-name="미세플라스틱-195" class="cls-4" cx="1241.74" cy="287.05" r="2.51"/><circle id="미세플라스틱-196-2" data-name="미세플라스틱-196" class="cls-4" cx="1233.15" cy="279.38" r="2.51"/><circle id="미세플라스틱-197-2" data-name="미세플라스틱-197" class="cls-4" cx="1237.91" cy="277.47" r="2.51"/><circle id="미세플라스틱-198-2" data-name="미세플라스틱-198" class="cls-4" cx="1231.24" cy="286.33" r="2.51"/><circle id="미세플라스틱-199-2" data-name="미세플라스틱-199" class="cls-4" cx="1228.59" cy="291.48" r="2.51"/><circle id="미세플라스틱-200-2" data-name="미세플라스틱-200" class="cls-4" cx="1221.25" cy="291.48" r="2.51"/><circle id="미세플라스틱-201-2" data-name="미세플라스틱-201" class="cls-4" cx="1225.29" cy="293.53" r="2.51"/><circle id="미세플라스틱-202-2" data-name="미세플라스틱-202" class="cls-4" cx="1228.79" cy="281.63" r="2.51"/><circle id="미세플라스틱-203-2" data-name="미세플라스틱-203" class="cls-4" cx="1224.82" cy="287.05" r="2.51"/><circle id="미세플라스틱-204-2" data-name="미세플라스틱-204" class="cls-4" cx="1217.49" cy="287.05" r="2.51"/><circle id="미세플라스틱-205-2" data-name="미세플라스틱-205" class="cls-4" cx="1214.71" cy="284.54" r="2.51"/><circle id="미세플라스틱-206-2" data-name="미세플라스틱-206" class="cls-4" cx="1224.36" cy="279.38" r="2.51"/><circle id="미세플라스틱-207-2" data-name="미세플라스틱-207" class="cls-4" cx="1221.25" cy="282.56" r="2.51"/><circle id="미세플라스틱-208-2" data-name="미세플라스틱-208" class="cls-4" cx="1214.12" cy="280.84" r="2.51"/><circle id="미세플라스틱-209-2" data-name="미세플라스틱-209" class="cls-4" cx="1218.74" cy="277.47" r="2.51"/><circle id="미세플라스틱-210-2" data-name="미세플라스틱-210" class="cls-4" cx="1213.59" cy="273.9" r="2.51"/><circle id="미세플라스틱-211-2" data-name="미세플라스틱-211" class="cls-4" cx="1215.24" cy="275.68" r="2.51"/></g><path class="cls-21" d="M41.39,207.74H76.71a0,0,0,0,1,0,0v16.82a2,2,0,0,1-2,2H43.39a2,2,0,0,1-2-2V207.74a0,0,0,0,1,0,0Z" transform="translate(118.1 434.3) rotate(-180)"/><line class="cls-22" x1="2.06" y1="455.81" x2="226.43" y2="455.81"/><text class="cls-23" transform="translate(39.78 447.64)">PRIMA<tspan class="cls-24" x="36.64" y="0">R</tspan><tspan class="cls-25" x="44.09" y="0">Y MICROPL</tspan><tspan class="cls-26" x="107.42" y="0">AS</tspan><tspan x="122.63" y="0">TICS</tspan></text><line class="cls-27" x1="255.4" y1="455.81" x2="421.17" y2="455.81"/><text class="cls-28" transform="translate(256.03 447.63)"><tspan class="cls-29">SECON</tspan><tspan class="cls-30" x="40.66" y="0">D</tspan><tspan class="cls-25" x="48.88" y="0">A</tspan><tspan class="cls-24" x="57.07" y="0">R</tspan><tspan class="cls-29" x="64.52" y="0">Y</tspan><tspan class="cls-31" x="72.29" y="0"> </tspan><tspan class="cls-25" x="75.49" y="0" xml:space="preserve"> MICROPL</tspan><tspan x="131.06" y="0">AS</tspan><tspan class="cls-29" x="146.27" y="0">TICS</tspan></text><text class="cls-32" transform="translate(268.93 471.59)">The result of larger pieces of <tspan x="-13.01" y="11">plastic breaking down into smaller </tspan><tspan x="-9.32" y="22">pieces. due to sunlight </tspan><tspan class="cls-33" x="102.21" y="22">e</tspan><tspan x="108.05" y="22">xpo</tspan><tspan class="cls-34" x="126" y="22">sure</tspan></text><path class="cls-3" d="M442.76,312.48l-2.18,2.26-1.36-1.42,3.84-3.88h2v13.35h-2.34Z"/><circle class="cls-35" cx="443.12" cy="316.09" r="10.92"/><path class="cls-3" d="M639.19,321c5.18-3.93,7.2-5.67,7.2-7.59a2.15,2.15,0,0,0-2.42-2,4.63,4.63,0,0,0-3.6,1.6L639,311.39a6.39,6.39,0,0,1,4.92-2.14c2.58,0,4.84,1.46,4.84,4.12,0,2.46-2.26,4.67-5.84,7.37h5.92v2.06h-9.66Z"/><circle class="cls-35" cx="643.93" cy="316.09" r="10.92"/><path class="cls-3" d="M830.8,319.22a5,5,0,0,0,3.7,1.62c1.76,0,2.78-.8,2.78-2s-1.06-1.89-3-1.89c-.56,0-1.34,0-1.54,0v-2.11c.24,0,1,0,1.54,0,1.56,0,2.74-.55,2.74-1.77s-1.2-1.88-2.7-1.88a4.69,4.69,0,0,0-3.44,1.48l-1.2-1.46a6.18,6.18,0,0,1,4.86-2.1c2.88,0,4.82,1.36,4.82,3.6a3.25,3.25,0,0,1-2.9,3.06,3.36,3.36,0,0,1,3.1,3.25c0,2.26-1.94,3.88-5,3.88a6.18,6.18,0,0,1-5-2.16Z"/><circle class="cls-35" cx="834.13" cy="316.09" r="10.92"/><path class="cls-3" d="M1083.36,319.68H1077v-1.89l5.48-8.44h3.22v8.27h1.78v2.06h-1.78v3h-2.34Zm-4.06-2.06h4.06v-6.17Z"/><circle class="cls-35" cx="1082.65" cy="316.09" r="10.92"/><text class="cls-32" transform="translate(43.78 471.59)">Tiny pieces of plastic that are <tspan x="5.73" y="11">purposefully manufactured</tspan></text><g id="MHSeby.tif"><path class="cls-20" d="M494.79,283.8l.51-.12c0,.58,0,.58.8,1.53l-1,.91.09.12,2.26-1.2.1.11-.5,1,2.77-.59.07.15-1.7,1.91.18.22a31.18,31.18,0,0,1,5.5-3.49c-1,1-2.21,1.79-2.47,3.35l.39-.33,5-4a2.16,2.16,0,0,1,1.73-.46,9.42,9.42,0,0,0,3.95-.28c.34-.1.72-.22,1,.2,0,.06.29,0,.44-.05a5.51,5.51,0,0,1,1.55-.11,6.75,6.75,0,0,0,3.16,0,14.51,14.51,0,0,1,1.63-.18c-.29,1.28-.55,2.47-.86,3.65,0,.18-.31.34-.51.43-.39.17-.82.26-1.2.45-.2.1-.47.31-.49.5-.08.56-.47.65-.89.75-.68.16-1.36.3-2,.48a1,1,0,0,0-.91.78c-.12.4-.71.71-1.14,1a5.41,5.41,0,0,0-2,2,6.19,6.19,0,0,0-.37,1.09l1.47-.43c-.9,1.64-2.46,2.89-2.73,4.94l3.69-1.91.13.16a4.91,4.91,0,0,0-.25,4c.76-.73,1.56-1.41,2.26-2.18,1.1-1.22,2.11-2.51,3.2-3.73a10.52,10.52,0,0,1,1.8-1.73,3.34,3.34,0,0,0,1.5-2.79,9.62,9.62,0,0,1,.16-1.71,6.07,6.07,0,0,1,.57-1.54c.72-1.37,1.48-2.73,2.27-4.06a1.51,1.51,0,0,1,.77-.69c3-.77,6-1.58,9-2.21,2.34-.48,4.73-.77,7.1-1.08a41.37,41.37,0,0,0,11-3.09c2.2-.95,4.41-1.85,6.62-2.79a29.18,29.18,0,0,0,7.85-5.3,16.35,16.35,0,0,1,4.55-3.09,17.38,17.38,0,0,1,7.43-.95c.53,0,1.06-.08,1.59-.05a10.36,10.36,0,0,1,2.16.24c1.46.39,2.88.9,4.33,1.32a3.39,3.39,0,0,0,1.1.07c.89,0,1-.21,1.08-1.11a3.13,3.13,0,0,0-.93-2.21,6.81,6.81,0,0,0-3.79-2c-.6-.13-1.19-.29-1.8-.39a8,8,0,0,1-4.37-2.56,1.21,1.21,0,0,1-.33-.43A3.85,3.85,0,0,0,575,254a12.73,12.73,0,0,0-4-1.44c-3.05-.22-6.13-1-9.2-.14-.81.22-1.61.51-2.43.67-1.15.24-1.62-.08-1.64-1.25a18.67,18.67,0,0,1,.22-4c.58-3,1.24-6,2.05-8.91a30.39,30.39,0,0,1,1.82-4.15c.47-1,1-2.07,1.41-3.13a7,7,0,0,1,1.71-2.8,2.75,2.75,0,0,0,.71-1.65,3.68,3.68,0,0,1,.61-1.55,2.58,2.58,0,0,0,.41-2.27,2.88,2.88,0,0,0-.26-.69,2.22,2.22,0,0,1,.11-2.43,2,2,0,0,0,.19-1.23c-.18-1.46-.48-2.9-.65-4.36-.14-1.24-.1-2.5-.27-3.73-.28-1.94-.66-3.87-1-5.8a40.93,40.93,0,0,0-7.26-16.56,8.64,8.64,0,0,0-4-3.29,8.88,8.88,0,0,0-4-.38l-.05.18,1.69.74c-.39.42-1.21.11-1.1.92a8.42,8.42,0,0,0-1.37-.29,7.16,7.16,0,0,0-1.3.19c.48.45,1.36.48,1.33,1.51-1.42-.84-2.79-.18-4.19,0,1.09.28,1.33,1.49,2.48,1.87l-.87.53,1.52.87a2.23,2.23,0,0,1-2,.38,12.43,12.43,0,0,0-1.93,0,.49.49,0,0,0-.24.05l-1.09.77.68.75c-.38.44-1.21.2-1.24,1l-1.47.15,0,.21,1.94,1.48-2.13.75,0,.19,2,1.16c.29.17.69.19.71.69,0,.15.36.3.56.44s.38.23.52.31a3,3,0,0,1-.2.71,1.31,1.31,0,0,1-.5.54c-.44.21-.57.46-.27.85a4.45,4.45,0,0,0,.71.73c.18.16.44.23.62.39a.64.64,0,0,1,.23.45c0,.11-.26.22-.41.25-.4.09-.81.13-1.1.17l-.48,1.16.49.58-1.76.54.19.62-1.57.32,0,.21,1.25,1.14-.06.16c-1.23-.25-2.61-1.26-3.39.6.31.2.62.4.92.62s.38.44-.1.64l-1.67.71,0,.17h2.27l0,.19a12.06,12.06,0,0,0-4,1.8c.75.62,1.71.14,2.59.59l-2,.56.32.69-1.77.5.36,1.4c-1.24.39-1.24.39-1.25,1.45l-.78,0,1.25,2.39-1.29,1c-.38.31-.44.58,0,1a2.6,2.6,0,0,1,.85,1.06,1.49,1.49,0,0,1-.23,1.24,1.6,1.6,0,0,0-.33,2,2.51,2.51,0,0,1,.09,1.22c-.1.68,0,.83.65.81.3,0,.6,0,1-.07L533.1,231l.15.23,1.11-.24-1.74,2.28.63.1-.63.57a11.8,11.8,0,0,1-.86-1.26A42.33,42.33,0,0,0,519,218c-3.06-2.25-6.28-4.3-9.47-6.38-6.3-4.08-12.27-8.6-18.25-13.12-5.64-4.27-11.06-8.86-17.05-12.67-1-.66-1.89-1.57-2.9-2.27a28.84,28.84,0,0,0-2.66-1.5c-.07,0-.2-.09-.22-.06-.52.55-1.15.13-1.72.2a1.66,1.66,0,0,0-.21.1l.67.83c-.42.51-1.31-.31-1.53.63-.22-.05-.44-.08-.65-.14a.79.79,0,0,0-1,.22c-.28.32-.82.41-1.24.6l-.23.28c.26.15.54.28.8.44s.45.31.79.54l-1,.32-.06.16,1.39.71-.57,0c-1.32.14-2.64.26-4,.43-.2,0-.6-.07-.56.43,0,.09-.55.23-1,.42l2.7,1.38-.05.2-.78.41,1.39,1a.44.44,0,0,1-.05.13c-.6.55-.56.92.29,1.13,1.15.28,2.33.39,3.51.57l.59.06-1,.53c.83.89,2,.92,2.79,1.27a3.58,3.58,0,0,0,.32,1.09c.65.85,1.35,1.65,2.09,2.53-.25.33.11.55.48.68s.94.25,1.46.38a1,1,0,0,0-.05,1.5,7.3,7.3,0,0,0,1.29.95l-.68.47a10.08,10.08,0,0,0,1.17.72c.39.16.75.46,1.06.56,1.26.44,1.18,1.57,1.56,2.47,0,.08.06.15.1.23s.06,0,.13.1l.16-.34c.8-.06.81.72,1.2,1.11s.66.78,1,1.2c.53-.2.77.27,1,.65.62,1.18,1.15,2.4,1.8,3.56.17.3.27,1,.95.62,0,1.65,1,2.81,1.91,3.95a21.51,21.51,0,0,0,1.72,1.41,3.22,3.22,0,0,1,.61,1.05,6,6,0,0,1,.14.78c.05.16.18.43.28.44,1,0,1.33,1.14,2.11,1.37a1.32,1.32,0,0,1,1,.79l.29-.1.13.84.65-.35-.3,1a3.71,3.71,0,0,0,.84.23c.65,0,.91.3.77.94l-.13.56.58.09.09.51.85-.39-.26,1.91,1.1-.36c-.17,1.24-.92,2.37-.46,3.66a2.11,2.11,0,0,0,1.87-1.07c.12-.24.57-.32,1-.51a6.47,6.47,0,0,1-.2,3.92c.76.18.74-.52,1.15-.73a4.42,4.42,0,0,1,.27.53c.11.38.25.59.73.52s.58.19.41.68-.28,1.15-.41,1.72l.25.1.63-.78c.51.32.09,1.4,1.14,1.18-.09.34-.16.62-.22.89a.91.91,0,0,0,.42,1.14,1.79,1.79,0,0,1,.78,1.27c.08.5.56.94.87,1.41.15.24.34.46.47.72a6.61,6.61,0,0,0,.54,1.1A1.86,1.86,0,0,1,505,245c0,.51.3.67.78.47.21.38,0,1,.66,1.11.06,0,.08.24.13.37a17,17,0,0,0,.66,1.72c.07.16.39.2.72.35,0,.11,0,.37.1.62a1.36,1.36,0,0,0,1.1,1.25c.37.07.45.27.44.6,0,.53,0,1.06,0,1.66h1.82c0,.31.08.73.15,1.15s.06.84.66.95c.19,0,.33.42.5.66.89,0,.89,0,1.1.92a1.94,1.94,0,0,1,.12.53.76.76,0,0,0,.71.82c.86.2.94.47.57,1.25a2.81,2.81,0,0,0-.22,1c.8-.38,1-1.16,1.49-2l.38,1.12.61-.8v1.87l.17,0,.25-.6c.82.86.52,1.91.5,2.94l.74-.05-.58,1.69.78-.42c-1,1.28-.63,2.47-.3,3.66a15.19,15.19,0,0,1,.41,1.61.84.84,0,0,1-.29.68c-1.29.91-2.63,1.75-3.9,2.67a22.6,22.6,0,0,1-7.29,3.44c-3.34.93-6.64,2.06-10,3.1a18.7,18.7,0,0,1-2.3.64,1.94,1.94,0,0,0-1.75,1.6c.36,0,.74-.15.94.4s.71,1.23-.36,1.7Z"/></g><g id="미세_플라스틱_그룹-5-2" data-name="미세 플라스틱 그룹-5"><circle id="미세플라스틱-142-2" data-name="미세플라스틱-142" class="cls-4" cx="535.09" cy="258.82" r="1.39"/><circle id="미세플라스틱-143-2" data-name="미세플라스틱-143" class="cls-4" cx="536.68" cy="256.24" r="1.39"/><circle id="미세플라스틱-144-2" data-name="미세플라스틱-144" class="cls-4" cx="534.03" cy="253.66" r="1.39"/><circle id="미세플라스틱-145-2" data-name="미세플라스틱-145" class="cls-4" cx="535.62" cy="252.67" r="1.39"/><circle id="미세플라스틱-146-2" data-name="미세플라스틱-146" class="cls-4" cx="538.06" cy="259.54" r="1.39"/><circle id="미세플라스틱-147-2" data-name="미세플라스틱-147" class="cls-4" cx="532.78" cy="257.1" r="1.39"/><circle id="미세플라스틱-148-2" data-name="미세플라스틱-148" class="cls-4" cx="531.45" cy="255.18" r="1.39"/><circle id="미세플라스틱-149-2" data-name="미세플라스틱-149" class="cls-4" cx="539.91" cy="257.1" r="1.39"/><circle id="미세플라스틱-150-2" data-name="미세플라스틱-150" class="cls-4" cx="537.67" cy="253.66" r="1.39"/><circle id="미세플라스틱-151-2" data-name="미세플라스틱-151" class="cls-4" cx="539.58" cy="252.67" r="1.39"/><circle id="미세플라스틱-152-2" data-name="미세플라스틱-152" class="cls-4" cx="541.96" cy="258.95" r="1.39"/><circle id="미세플라스틱-153-2" data-name="미세플라스틱-153" class="cls-4" cx="543.35" cy="256.24" r="1.39"/><circle id="미세플라스틱-154-2" data-name="미세플라스틱-154" class="cls-4" cx="546" cy="258.82" r="1.39"/><circle id="미세플라스틱-155-2" data-name="미세플라스틱-155" class="cls-4" cx="541.24" cy="254.65" r="1.39"/><circle id="미세플라스틱-156-2" data-name="미세플라스틱-156" class="cls-4" cx="543.88" cy="264.1" r="1.39"/><circle id="미세플라스틱-157-2" data-name="미세플라스틱-157" class="cls-4" cx="546" cy="262.25" r="1.39"/><circle id="미세플라스틱-158-2" data-name="미세플라스틱-158" class="cls-4" cx="542.95" cy="267.54" r="1.39"/><circle id="미세플라스틱-159-2" data-name="미세플라스틱-159" class="cls-4" cx="541.24" cy="269.19" r="1.39"/><circle id="미세플라스틱-160-2" data-name="미세플라스틱-160" class="cls-4" cx="546" cy="266.15" r="1.39"/><circle id="미세플라스틱-161-2" data-name="미세플라스틱-161" class="cls-4" cx="541.24" cy="261.99" r="1.39"/><circle id="미세플라스틱-162-2" data-name="미세플라스틱-162" class="cls-4" cx="543.88" cy="260.86" r="1.39"/><circle id="미세플라스틱-163-2" data-name="미세플라스틱-163" class="cls-4" cx="540.24" cy="265.76" r="1.39"/><circle id="미세플라스틱-164-2" data-name="미세플라스틱-164" class="cls-4" cx="538.79" cy="268.6" r="1.39"/><circle id="미세플라스틱-165-2" data-name="미세플라스틱-165" class="cls-4" cx="534.76" cy="268.6" r="1.39"/><circle id="미세플라스틱-166-2" data-name="미세플라스틱-166" class="cls-4" cx="536.94" cy="269.72" r="1.39"/><circle id="미세플라스틱-167-2" data-name="미세플라스틱-167" class="cls-4" cx="538.86" cy="263.18" r="1.39"/><circle id="미세플라스틱-168-2" data-name="미세플라스틱-168" class="cls-4" cx="536.68" cy="266.15" r="1.39"/><circle id="미세플라스틱-169-2" data-name="미세플라스틱-169" class="cls-4" cx="532.64" cy="266.15" r="1.39"/><circle id="미세플라스틱-170-2" data-name="미세플라스틱-170" class="cls-4" cx="531.12" cy="264.76" r="1.39"/><circle id="미세플라스틱-171-2" data-name="미세플라스틱-171" class="cls-4" cx="536.41" cy="261.99" r="1.39"/><circle id="미세플라스틱-172-2" data-name="미세플라스틱-172" class="cls-4" cx="534.76" cy="263.71" r="1.39"/><circle id="미세플라스틱-173-2" data-name="미세플라스틱-173" class="cls-4" cx="530.79" cy="262.72" r="1.39"/><circle id="미세플라스틱-174-2" data-name="미세플라스틱-174" class="cls-4" cx="533.37" cy="260.86" r="1.39"/><circle id="미세플라스틱-175-2" data-name="미세플라스틱-175" class="cls-4" cx="530.53" cy="258.95" r="1.39"/><circle id="미세플라스틱-176-2" data-name="미세플라스틱-176" class="cls-4" cx="531.45" cy="259.94" r="1.39"/></g><line class="cls-27" x1="1.9" y1="567.5" x2="1304.37" y2="567.5"/><text class="cls-36" transform="translate(1215.52 557.99)">BIOCCUMUL<tspan class="cls-37" x="59.16" y="0">A</tspan><tspan x="65.34" y="0">TION</tspan></text></g></g></svg>