<svg xmlns="http://www.w3.org/2000/svg" xmlns:xlink="http://www.w3.org/1999/xlink" viewBox="0 0 1306.06 459.06"><defs><style>.cls-1,.cls-4{fill:#fff;}.cls-1{opacity:0;}.cls-2,.cls-38,.cls-5,.cls-6,.cls-8{fill:#00cee5;}.cls-22,.cls-26,.cls-3,.cls-34{fill:#ff5400;}.cls-4{opacity:0.13;}.cls-5{opacity:0.47;}.cls-19,.cls-40,.cls-6,.cls-8,.cls-9{isolation:isolate;}.cls-10,.cls-11,.cls-20,.cls-21,.cls-30,.cls-39,.cls-7,.cls-9{fill:none;}.cls-10,.cls-20,.cls-38,.cls-39,.cls-7,.cls-8,.cls-9{stroke:#00cee5;}.cls-10,.cls-20,.cls-21,.cls-30,.cls-38,.cls-39,.cls-7,.cls-8,.cls-9{stroke-miterlimit:10;}.cls-7{stroke-width:2.73px;}.cls-10,.cls-8,.cls-9{stroke-width:2.35px;}.cls-12{fill:#d9d9d9;}.cls-13{fill:url(#linear-gradient);}.cls-14{fill:url(#linear-gradient-2);}.cls-15{fill:url(#linear-gradient-3);}.cls-16{fill:url(#linear-gradient-4);}.cls-17{fill:url(#linear-gradient-5);}.cls-18{fill:#00cbe2;}.cls-19{fill:#00cde4;}.cls-20{stroke-width:2.4px;}.cls-21,.cls-30{stroke:#ff5400;}.cls-22,.cls-26{font-size:13px;font-family:ProximaNova-Bold, Proxima Nova;font-weight:700;}.cls-22{letter-spacing:0.01em;}.cls-23{letter-spacing:-0.01em;}.cls-24{letter-spacing:0.01em;}.cls-25{letter-spacing:0em;}.cls-27{letter-spacing:-0.01em;}.cls-28{letter-spacing:-0.03em;}.cls-29{letter-spacing:-0.06em;}.cls-30{stroke-width:1.07px;}.cls-31{letter-spacing:-0.02em;}.cls-32{fill:#000;}.cls-33{letter-spacing:0em;}.cls-34{font-size:14px;font-family:ProximaNova-Regular, Proxima Nova;}.cls-35{letter-spacing:-0.03em;}.cls-36{letter-spacing:0.01em;}.cls-37{letter-spacing:0em;}.cls-39{stroke-width:2px;}</style><linearGradient id="linear-gradient" x1="320.27" y1="155.15" x2="295.47" y2="193.26" gradientTransform="translate(2.07 -4.18) rotate(0.37)" gradientUnits="userSpaceOnUse"><stop offset="0" stop-color="#fff" stop-opacity="0"/><stop offset="1" stop-color="#ff5400"/></linearGradient><linearGradient id="linear-gradient-2" x1="324.32" y1="157.78" x2="299.51" y2="195.89" gradientTransform="translate(2.07 -4.18) rotate(0.37)" gradientUnits="userSpaceOnUse"><stop offset="0" stop-color="#fff"/><stop offset="1" stop-color="#ff5400"/></linearGradient><linearGradient id="linear-gradient-3" x1="317.63" y1="153.43" x2="292.83" y2="191.54" xlink:href="#linear-gradient-2"/><linearGradient id="linear-gradient-4" x1="315.09" y1="151.77" x2="290.28" y2="189.88" xlink:href="#linear-gradient-2"/><linearGradient id="linear-gradient-5" x1="325.3" y1="158.42" x2="300.49" y2="196.53" xlink:href="#linear-gradient-2"/></defs><title>diagram7</title><g id="Layer_2" data-name="Layer 2"><g id="Layer_1-2" data-name="Layer 1"><rect class="cls-1" x="0.76" width="1305.3" height="459.06"/><path id="플랑크톤1" class="cls-2" d="M532.75,191.09l-4.79-5s-2.38-.61-1.86.72,4.2,5.24,4.2,5.24l-.14.73L525.48,191s-3,.25-.74,1.72a30.45,30.45,0,0,0,5.21,2.67l-.54,1.26L525,199.17s-1.85,1.11.53,1a10.86,10.86,0,0,0,4.7-1.68l.39,1.12-4.26,4.34s-2,2.63,1.12.73a21.3,21.3,0,0,0,5.25-4.46l.88,7.47s-.41,1.13.72.74.88-2.84.88-2.84l0-4.36,4.39,4.85s1.84,1.86.74-1.12a33.4,33.4,0,0,0-2.48-5.37l5.6,2.15s1.72.28,0-1.65a35.12,35.12,0,0,0-5.59-2.88l-.13-1.39,6.5-2.6s.73-1.71-1.25-1.39-4.77,1.09-4.77,1.09l2.87-4.48s.28-1.71-1-.86a53.11,53.11,0,0,0-4,3.8l-1.25-.86,0-4.63s-1.45-1.26-1.72,0S532.75,191.09,532.75,191.09Z"/><path id="플랑크톤1-2" class="cls-2" d="M584.32,209.46l-2.56-2.66s-1.25-.33-1,.39A16.48,16.48,0,0,0,583,210l-.07.4-2.51-.94s-1.58.12-.4.92a15.37,15.37,0,0,0,2.77,1.41l-.27.66-2.32,1.3s-1,.59.26.53a5.5,5.5,0,0,0,2.52-.9l.19.59-2.26,2.3s-1.07,1.38.59.4a12,12,0,0,0,2.79-2.36l.44,4s-.2.6.39.4.48-1.51.48-1.51v-2.32l2.36,2.6s1,1,.4-.6a22.87,22.87,0,0,0-1.3-2.85l3,1.15s.92.13,0-.86a17.73,17.73,0,0,0-3-1.54l-.06-.73,3.51-1.37s.4-.92-.66-.73-2.51.58-2.51.58l1.53-2.37s.14-.92-.52-.46a29.18,29.18,0,0,0-2.13,2l-.66-.47,0-2.51s-.79-.66-.93,0S584.32,209.46,584.32,209.46Z"/><path id="플랑크톤2" class="cls-2" d="M561.28,215.2s-3.55-1.81-5-1.55a3.61,3.61,0,0,0-3.12,2.16c-.67,1.45-1.23,5.74-1.7,6.66a26.21,26.21,0,0,1-1.4,3.1c-.47.59-.87,1.52-.61,1.85s1.8-1.71,1.8-1.71a17.93,17.93,0,0,0,1.2-2.5c.2-.8.61-2.18.88-3a25.71,25.71,0,0,1,1-3.3c.34-.52-.05-1.32,1.33-1.38a6.78,6.78,0,0,1,3.24.69,14.23,14.23,0,0,0,2.31.61v1.65a16.58,16.58,0,0,0-3.39,1.83c-.93.85-2.54,5.07-2.54,5.07a5,5,0,0,0-.41,2.11c.19.6.93,0,.93,0l1.4-3.3s1.74-2.63,1.94-2.83,1.59-1.31,1.59-1.31l.06,1.85s-1.67,2.44-2.14,3.29a15,15,0,0,0-.95,3.76c.07.2.46,1.13.46,1.13a7.73,7.73,0,0,0,1.2-2.37c0-.66.28-2.25.68-2.51a6.34,6.34,0,0,1,1.13-.59l.25,2,.71,2s1.51,2.45,2.16,3.45a8.48,8.48,0,0,1,.84,3.31l0,5.68s1.2-.92,1.2-1.11.88-2.51.88-2.51l1-.06c.39.47.85.93,1.31,1.4.2.06,1.39.2,1.52-.06a17.59,17.59,0,0,0,.48-1.72,26.12,26.12,0,0,1-2-2.26c-.26-.46-.85-1.45-.85-1.45l.23-5.23-.69-5.49.47-1a14.73,14.73,0,0,1,1.17,2c.59,1.06,1.3,3.64,1.7,3.91a3.52,3.52,0,0,1,.92,1V226a6.31,6.31,0,0,1-1-2.12,7.6,7.6,0,0,0-1.7-3.05,5.57,5.57,0,0,0-1.77-.94l-.93-.67v-.92a6,6,0,0,1,1.85.08,14.56,14.56,0,0,0,2.63,1.86,8.69,8.69,0,0,1,2.57,2.33c.52.67.78,1.07.78,1.07l0-2a9.32,9.32,0,0,0-1.18-1.86,18.06,18.06,0,0,0-2.63-2.33,19.43,19.43,0,0,0-2.18-.47,13.73,13.73,0,0,0-2.31-.08c-.6,0-.66-.87-.66-.87v-1.39a13.27,13.27,0,0,0,1.53-1.11c.86-.72,1.06-1.45,2.45-1.31a3.48,3.48,0,0,1,2.44,1.8c.32.6,2.36,2.86,2.55,3.39a11.06,11.06,0,0,0,1.84,2.33,5.94,5.94,0,0,0,1.91,1,7.7,7.7,0,0,0,1.78-.19,1.7,1.7,0,0,0-1.18-1.39,7.85,7.85,0,0,1-2.5-1.21c-.2-.2-2.43-3.05-2.69-3.32s-2.1-2.85-2.42-3.25a2.64,2.64,0,0,0-1.72-.54,6,6,0,0,0-2.78,1.37c-.6.65-1.34,1.91-2.13,2.23a11.62,11.62,0,0,1-2.65.51A5.35,5.35,0,0,1,561.28,215.2Z"/><path id="플랑크톤3" class="cls-2" d="M562.82,191.48s-3.31,1.76-4.11,2.75a10,10,0,0,0-1.41,3.36,20.74,20.74,0,0,0,2.22,4.18c.2.07,5,0,5,0s.19,1.13.65,1a3.67,3.67,0,0,0,1.46-1.18c.07-.2,1-.59,1-.59a4,4,0,0,1-.47,1.38,14.52,14.52,0,0,0-.94,2.31h1.38s.61-1.65.81-2a2.78,2.78,0,0,1,1.06-.72v1.19c0,.46-.94,1.65-1,1.85a5.58,5.58,0,0,0-.21,1.45c.07.2.66.27.93,0a9.93,9.93,0,0,0,1-1.84,1.07,1.07,0,0,1,1-.65c.46.06,0,1.05,0,1.45s-.8,1.45-.87,1.71-.34,2-.08,1.46a23.44,23.44,0,0,1,1.54-2.11s.86-.52.79.34a15.12,15.12,0,0,0,0,3.5,21.3,21.3,0,0,0,1.63,2.39c.2.07,1.12,1.33,1.45,1.13s.93-.19.86-.85-.32-.8-1-1.66a3.13,3.13,0,0,1-1.11-2.32c-.06-1.19,0-2.58-.11-4.17a37.88,37.88,0,0,0-.17-3.83,7.08,7.08,0,0,0-1.43-4c-.79-.79-1.31-2.25-2.49-3.05a9.77,9.77,0,0,0-3.1-1.74,15.64,15.64,0,0,0-2.5-.55A4.56,4.56,0,0,1,562.82,191.48Z"/><path id="플랑크톤3-2" class="cls-2" d="M596.76,177.42a16,16,0,0,0-3-.55,4.87,4.87,0,0,0-2.05.91,20.6,20.6,0,0,0-.82,2.84c.07.13,2.24,2.13,2.24,2.13s-.4.59-.14.73a2.53,2.53,0,0,0,1.19.07c.13-.06.73.2.73.2a1.56,1.56,0,0,1-.8.4,12.39,12.39,0,0,0-1.39.65l.59.6s1-.53,1.19-.59a3,3,0,0,1,.79.14l-.53.52a5,5,0,0,1-1.26.39,3.22,3.22,0,0,0-.73.52c-.06.14.2.4.4.4a4.1,4.1,0,0,0,1.26-.38.58.58,0,0,1,.72.13c.13.2-.46.46-.6.66s-1,.32-1.12.39-1,.72-.67.66l1.59-.33s.59.14.2.53A8.86,8.86,0,0,0,593,190c-.13.6-.2,1.19-.27,1.78.06.14,0,1.06.12,1.13s.53.33.8,0,.2-.52.2-1.18a2.08,2.08,0,0,1,.48-1.52c.46-.53,1.06-1.18,1.73-1.91s1.06-1.18,1.53-1.77a4.62,4.62,0,0,0,1.07-2.37,9.18,9.18,0,0,0,.21-2.45,7.76,7.76,0,0,0-.64-2.12,9.52,9.52,0,0,0-.92-1.33A2.66,2.66,0,0,1,596.76,177.42Z"/><circle id="미세플라스틱" class="cls-3" cx="584.64" cy="212.18" r="0.93"/><path id="미세_플라스틱2" data-name="미세 플라스틱2" class="cls-4" d="M462.58,171c-.86,1.18-.33.92-1.4,2s-1.46,1.44-1.46,1.9-.08.86.72.87.93-.66,1.45,0,.13.86.92.93a2.09,2.09,0,0,0,1.39-.32,8.09,8.09,0,0,0,1.06-1.05c.21-.4.73-.4,0-1.52s-1.57-2.33-1.57-2.33Z"/><path id="미세_플라스틱2-2" data-name="미세 플라스틱2-2" class="cls-4" d="M408.39,137.26c-1,0-.6.19-1.59.12s-1.32-.21-1.59,0-.46.33-.13.72.72.21.59.8-.4.4-.14.86a1.63,1.63,0,0,0,.72.6,4.89,4.89,0,0,0,.93.14c.33-.07.46.2.79-.59a17.25,17.25,0,0,0,.61-1.72Z"/><path id="미세_플라스틱2-3" data-name="미세 플라스틱2-3" class="cls-5" d="M584,195.25a10.43,10.43,0,0,1-1.46.72c-.93.32-1.32.32-1.46.58s-.33.47.13.73.73-.06.79.47-.2.53.19.79a1.47,1.47,0,0,0,.86.27,3.73,3.73,0,0,0,.93-.25c.26-.13.53,0,.46-.86s-.12-1.79-.12-1.79Z"/><path id="미세_플라스틱3" data-name="미세 플라스틱3" class="cls-5" d="M552.37,203.91c-1,.52-2.39.44-2.85,1.43s-.54,1.85-.75,2.18-1.39,1.44-1.46,1.77-2.46,1.64-.74,1.52a22.38,22.38,0,0,0,4.64-1c.92-.2,3.1-.31,3.31-1a8.32,8.32,0,0,0,.55-3.17c-.26-.86-.52-1.72-.85-2.59Z"/><path id="미세_플라스틱3-2" data-name="미세 플라스틱3-2" class="cls-5" d="M577,174.25c-.73.4-1.79.32-2.12,1.05a16.1,16.1,0,0,0-.54,1.65c-.14.26-1.07,1.05-1.07,1.31s-1.86,1.18-.54,1.12a14.88,14.88,0,0,0,3.45-.7c.66-.2,2.31-.25,2.45-.71a7,7,0,0,0,.41-2.32c-.2-.66-.39-1.25-.65-1.92Z"/><path id="미세_플라스틱_4" data-name="미세 플라스틱 4" class="cls-5" d="M546.91,178.55a37.88,37.88,0,0,0-.3-4.89l-6.55-8.57a3.85,3.85,0,0,1,2-1.7c1.26-.39,8.68-3.58,9.41-3.91s7.3-4,7.3-4a3.14,3.14,0,0,0,1.17,2.58,14.34,14.34,0,0,0,4.74,2.87c.8.21,3.77.62,4.69,1.16s4.28,2.47,4.61,3.07-1.93,2-1.93,2l-10.95,6.67-9.36,5.56Z"/><path id="플라스틱" class="cls-5" d="M600.8,164.82c-1-.33-1.64-.93-2.11,0s-.41,1.58-1.2,2.11a8.12,8.12,0,0,0-1.6,1.44,2.21,2.21,0,0,0-.54,1.91c.19.67-.54,2,1,1.46s1.66-1.24,2.71-.9,1.91,1.33,2.44,1.07,2.19-.85,2.19-.85a4.59,4.59,0,0,0,1.59-1.17c.4-.66-.52-1.26.93-1.06s2.12.55,3.24.75,1.91.74,2.11-.18a7.66,7.66,0,0,0,.55-2.64c-.13-.86-.31-3.58-.63-4s-.2-1.19-1.19-1.07a14.79,14.79,0,0,0-3.91,1.36c-.86.4-3.25,1.64-3.25,1.64Z"/><circle id="미세플라스틱-212" class="cls-3" cx="534.3" cy="197.38" r="1.39"/><circle id="미세플라스틱-213" class="cls-3" cx="564.22" cy="221.1" r="1.39"/><circle id="미세플라스틱-214" class="cls-3" cx="564.19" cy="225.79" r="1.39"/><circle id="미세플라스틱-215" class="cls-3" cx="564.37" cy="197.11" r="1.39"/><circle id="미세플라스틱-216" class="cls-3" cx="596.66" cy="182.71" r="1.39" transform="translate(410.12 778.18) rotate(-89.63)"/><path class="cls-6" d="M662.36,361.74l-4.2-6.85L657,348.82l1.38-2,5-20.5-4.13-28.6-16.55-20-11.1-6,1.91-2.41,4.79-1.33,10.21,2.19,9.81,7.33,5.09-1.93-9-13.78-11.92-7.5-10.36,7.13-4.22,8.31-5.81-3.14-11.89-.69-2.56-3.57s-2.54-5.78-5-7.46-8.92-4.15-10.15,0,.85,8.26,1.14,11a64,64,0,0,0,1.32,7l-3.74,3.46-6,8.76-6.79-4.52-10.77,2.13-11.21,10.38-1.09,16.44,5.39-.8,4.84-11.18,10.67-8.19,4.78-1.18,1.66.69-3.14,4.6-2,18.4,8.17,25.89,13.62,14.79,4.15,2,2.06,10.62L604.24,373l-2,3.7,3,.86,6.77-4,2.48-7.1,1.24-5.75s-1-.62-2.41-1.61l10,4.76,13,4.4,9.26-3.57,4.36-6.11.53.76,5,5.64,7.73,1.18,2.36-1.88Z"/><g id="미세_플라스틱_그룹-6" data-name="미세 플라스틱 그룹-6"><circle id="미세플라스틱-177" class="cls-3" cx="616.06" cy="307.2" r="2.51" transform="translate(304.9 921.27) rotate(-89.63)"/><circle id="미세플라스틱-178" class="cls-3" cx="619.06" cy="302.53" r="2.51" transform="translate(312.56 919.63) rotate(-89.63)"/><circle id="미세플라스틱-179" class="cls-3" cx="614.27" cy="297.87" r="2.51" transform="translate(312.45 910.21) rotate(-89.63)"/><circle id="미세플라스틱-180" class="cls-3" cx="617.19" cy="296.04" r="2.51" transform="translate(317.19 911.31) rotate(-89.63)"/><circle id="미세플라스틱-181" class="cls-3" cx="621.54" cy="308.56" r="2.51" transform="translate(308.99 928.1) rotate(-89.63)"/><circle id="미세플라스틱-182" class="cls-3" cx="611.98" cy="304.07" r="2.51" transform="translate(303.98 914.08) rotate(-89.63)"/><circle id="미세플라스틱-183" class="cls-3" cx="609.49" cy="300.55" r="2.51" transform="translate(305.03 908.09) rotate(-89.63)"/><circle id="미세플라스틱-184" class="cls-3" cx="624.87" cy="304.15" r="2.51" transform="translate(316.71 927.05) rotate(-89.63)"/><circle id="미세플라스틱-185" class="cls-3" cx="620.88" cy="297.91" r="2.51" transform="translate(318.98 916.86) rotate(-89.63)"/><circle id="미세플라스틱-186" class="cls-3" cx="624.39" cy="296.08" r="2.51" transform="translate(324.3 918.56) rotate(-89.63)"/><circle id="미세플라스틱-187" class="cls-3" cx="628.68" cy="307.55" r="2.51" transform="translate(317.1 934.24) rotate(-89.63)"/><circle id="미세플라스틱-188" class="cls-3" cx="631.29" cy="302.61" r="2.51" transform="translate(324.63 931.94) rotate(-89.63)"/><circle id="미세플라스틱-189" class="cls-3" cx="635.95" cy="307.33" r="2.51" transform="translate(324.54 941.29) rotate(-89.63)"/><circle id="미세플라스틱-190" class="cls-3" cx="627.41" cy="299.67" r="2.51" transform="translate(323.71 925.14) rotate(-89.63)"/><circle id="미세플라스틱-191" class="cls-3" cx="632.06" cy="316.95" r="2.51" transform="translate(311.05 946.96) rotate(-89.63)"/><circle id="미세플라스틱-192" class="cls-3" cx="635.91" cy="313.61" r="2.51" transform="translate(318.22 947.49) rotate(-89.63)"/><circle id="미세플라스틱-193" class="cls-3" cx="630.36" cy="323.16" r="2.51" transform="translate(303.16 951.43) rotate(-89.63)"/><circle id="미세플라스틱-194" class="cls-3" cx="627.24" cy="326.24" r="2.51" transform="translate(296.97 951.37) rotate(-89.63)"/><circle id="미세플라스틱-195" class="cls-3" cx="635.87" cy="320.75" r="2.51" transform="translate(311.04 954.54) rotate(-89.63)"/><circle id="미세플라스틱-196" class="cls-3" cx="627.32" cy="313.02" r="2.51" transform="translate(310.27 938.32) rotate(-89.63)"/><circle id="미세플라스틱-197" class="cls-3" cx="632.09" cy="311.14" r="2.51" transform="translate(316.9 941.22) rotate(-89.63)"/><circle id="미세플라스틱-198" class="cls-3" cx="625.36" cy="319.95" r="2.51" transform="translate(301.4 943.24) rotate(-89.63)"/><circle id="미세플라스틱-199" class="cls-3" cx="622.69" cy="325.09" r="2.51" transform="translate(293.6 945.67) rotate(-89.63)"/><circle id="미세플라스틱-200" class="cls-3" cx="615.35" cy="325.04" r="2.51" transform="translate(286.36 938.29) rotate(-89.63)"/><circle id="미세플라스틱-201" class="cls-3" cx="619.37" cy="327.12" r="2.51" transform="translate(288.27 944.37) rotate(-89.63)"/><circle id="미세플라스틱-202" class="cls-3" cx="622.95" cy="315.24" r="2.51" transform="translate(303.7 936.15) rotate(-89.63)"/><circle id="미세플라스틱-203" class="cls-3" cx="618.95" cy="320.64" r="2.51" transform="translate(294.34 937.51) rotate(-89.63)"/><circle id="미세플라스틱-204" class="cls-3" cx="611.61" cy="320.59" r="2.51" transform="translate(287.09 930.12) rotate(-89.63)"/><circle id="미세플라스틱-205" class="cls-3" cx="608.85" cy="318.06" r="2.51" transform="translate(286.88 924.85) rotate(-89.63)"/><circle id="미세플라스틱-206" class="cls-3" cx="618.53" cy="312.97" r="2.51" transform="translate(301.59 929.47) rotate(-89.63)"/><circle id="미세플라스틱-207" class="cls-3" cx="615.41" cy="316.12" r="2.51" transform="translate(295.34 929.48) rotate(-89.63)"/><circle id="미세플라스틱-208" class="cls-3" cx="608.28" cy="314.36" r="2.51" transform="translate(290.02 920.6) rotate(-89.63)"/><circle id="미세플라스틱-209" class="cls-3" cx="612.93" cy="311.01" r="2.51" transform="translate(297.98 921.93) rotate(-89.63)"/><circle id="미세플라스틱-210" class="cls-3" cx="607.79" cy="307.41" r="2.51" transform="translate(296.48 913.22) rotate(-89.63)"/><circle id="미세플라스틱-211" class="cls-3" cx="609.44" cy="309.21" r="2.51" transform="translate(296.32 916.64) rotate(-89.63)"/></g><rect class="cls-2" x="172.71" y="159.76" width="33.23" height="12.51" rx="1" transform="translate(377.58 333.25) rotate(-179.63)"/><path class="cls-2" d="M138.9,52.55l-11.39-.07,11.39.07,0,3.48a.39.39,0,0,1-.37.39h-.46a.62.62,0,0,0-.55.59l-1.78,42.67a1.7,1.7,0,0,1-.2.74l-3.29,5.87A1.43,1.43,0,0,1,131,107l-3.8,0H127l-3.81,0a1.45,1.45,0,0,1-1.26-.78l-3.21-5.91a1.57,1.57,0,0,1-.19-.74l-1.24-42.69a.59.59,0,0,0-.54-.59h-.45a.37.37,0,0,1-.37-.39l0-3.48Z"/><polygon class="cls-2" points="127.04 109.02 127.11 109.02 130.99 109.05 130.43 116.73 127.06 116.71 126.99 116.7 123.63 116.68 123.16 109 127.04 109.02"/><path class="cls-7" d="M178.36,117.06l6.85,0a15.19,15.19,0,0,1,15.09,15.28l-.19,28-22-.14.11-16.63a4.54,4.54,0,0,0-4.52-4.57L3.87,138l.14-22Z"/><path class="cls-8" d="M74.18,87.57,49.6,87.41c-1.3,0-2.36.68-2.36,1.54l-.17,26c0,.57.7,1,1.56,1l24.58.16c.87,0,1.57-.45,1.58-1L75,88.09C75,87.81,74.61,87.57,74.18,87.57Z"/><path class="cls-9" d="M51,72.56c0-4.64,4.62-8.37,10.26-8.33s10.17,3.82,10.14,8.46M61.28,58.33l0,5.9m-9-5.58,15.49.58a1.56,1.56,0,0,0,1.62-1.56l0-2.11A1.57,1.57,0,0,0,67.73,54l-15.47.68a1.57,1.57,0,0,0-1.5,1.52l0,.85A1.57,1.57,0,0,0,52.24,58.65Z"/><path class="cls-2" d="M105.09,81.1a10.13,10.13,0,0,0-3.92-7,4.67,4.67,0,0,1-1.29-2.2c-.25-.73-.34-1.13-.17-1.39a1.63,1.63,0,0,1,.46-.3l3.86-.78a1,1,0,0,0,.81-1.23s0,0,0,0a1,1,0,0,0-1-.77l-3.83.81-.24,0a.41.41,0,0,1-.19,0,.51.51,0,0,1-.25-.19.47.47,0,0,1-.08-.14v-.09a.41.41,0,0,1,0-.11.42.42,0,0,1,.33-.31l.43-.09.42-.09,3.17-.67a1,1,0,0,0,.59-.54.93.93,0,0,0,.1-.64,1,1,0,0,0-1-.82l-3.78.79-.4.09h-.18a.52.52,0,0,1-.19-.11,1.25,1.25,0,0,1-.08-.12.31.31,0,0,1-.05-.1v0a.53.53,0,0,1,0-.25.38.38,0,0,1,.09-.13.4.4,0,0,1,.21-.12h0l.55-.12,1.21-.25,2.16-.43.09,0a1.09,1.09,0,0,0,.63-.54,1.06,1.06,0,0,0,.1-.66,1,1,0,0,0-1-.82l-3.81.81h0l-.44.09h-.11a.38.38,0,0,1-.21-.07.43.43,0,0,1-.22-.4.39.39,0,0,1,.09-.23.38.38,0,0,1,.09-.09.46.46,0,0,1,.16-.07l.2,0c1.17-.26,2.33-.54,3.5-.75a1.88,1.88,0,0,0,.87-.36,1,1,0,0,0,.28-.9h0a1,1,0,0,0-1.19-.82l-4,.85h-.11a.42.42,0,0,1-.23-.07.41.41,0,0,1-.2-.36.33.33,0,0,1,.08-.22.64.64,0,0,1,.35-.22h.06L100,58.4l2-.42a1.05,1.05,0,0,0,.53-1.12,1,1,0,0,1,0-.1,1.47,1.47,0,0,0-.1-.22.83.83,0,0,0-.08-.12l0,0a1.59,1.59,0,0,0-.13-.13l-.09-.07a1,1,0,0,0-.77-.14l-3.85.78a1.22,1.22,0,0,1-.66-.09.59.59,0,0,1-.2-.15h0a1.8,1.8,0,0,0-1.09-.64,1.88,1.88,0,0,0-.71,0h0a2.05,2.05,0,0,0-1.59,2.43L95.7,70.3a.61.61,0,0,0,0,.12h0l.44,1.83,0,.23.16.83a7.16,7.16,0,0,0,.86,1.89,5.34,5.34,0,0,0,1.44,1.48c2.27,1.55,2.7,4,3.22,6.39q.66,3.07,1.33,6.15l3.45,0C106.08,86.53,105.49,83.83,105.09,81.1Z"/><path class="cls-10" d="M106.68,89.23l12,.08a2.22,2.22,0,0,1,1.42.49,1.33,1.33,0,0,1,.5,1.15l-2.39,23.74a1.81,1.81,0,0,1-1.94,1.39l-18-.11a1.81,1.81,0,0,1-1.92-1.42L94.22,90.78a1.33,1.33,0,0,1,.52-1.14,2.23,2.23,0,0,1,1.42-.48l7.07,0Z"/><path class="cls-2" d="M106.83,69a3.05,3.05,0,0,0,2.4-3.43h0s.24,1.32,2.1.77a.55.55,0,0,1,.62.81A5.63,5.63,0,0,1,105.79,69,2.81,2.81,0,0,0,106.83,69Z"/><path class="cls-2" d="M103.69,67.76l0,0"/><path class="cls-2" d="M104.89,68.53a3.4,3.4,0,0,1-1.14-1c-.23-.32-.55-.87-.55-.87h0l-1.53-7.3a3.21,3.21,0,0,1,2.2-3.8,3.07,3.07,0,0,1,3.77,2.34l1.57,7.5c0,.07,0,.14,0,.2a3.05,3.05,0,0,1-2.4,3.43,2.81,2.81,0,0,1-1,0h0Z"/><path class="cls-11" d="M308.46,137.78c-.56,1-1.08,2.11-1.57,3.18C307.38,139.89,307.9,138.82,308.46,137.78Z"/><path class="cls-11" d="M322.87,155.11a12.2,12.2,0,0,0,1.51-.72c.6-.34,1.21-.66,1.81-.95-.6.29-1.21.61-1.81.95A12.2,12.2,0,0,1,322.87,155.11Z"/><path class="cls-11" d="M319.8,155.9a11.42,11.42,0,0,1-1.55.08A11.42,11.42,0,0,0,319.8,155.9Z"/><path class="cls-11" d="M331.81,151.78h0c-.32,0-.65.07-1,.12C331.16,151.85,331.49,151.81,331.81,151.78Z"/><path class="cls-3" d="M304.3,209.34a2.56,2.56,0,0,0,2.76-3.33,19.8,19.8,0,0,1-.21-2.32c-.09-.63-.07-1.46-.46-1.82-.54-.51-1.57-1.09-2.12-.9a13,13,0,0,0-4,2.26c-.36.31.09,1.6.17,2.44A4.28,4.28,0,0,0,304.3,209.34Z"/><path class="cls-3" d="M285.28,192.48c1.77-1-.82-2.63-.61-4.16,0-.21-.73-.75-1.11-.74a9.59,9.59,0,0,0-2.87.48,3.21,3.21,0,0,0-2.44,3.42c.28.37.78,1.64,1.31,1.65C281.49,193.19,283.76,193.38,285.28,192.48Z"/><path class="cls-3" d="M298.52,202.21c.18-1.72-.88-2.39-4.14-2.62a3,3,0,0,0-3.23,2.62c-.15,1.33,1.4,2.56,3.42,2.73C296.43,205.09,298.35,203.76,298.52,202.21Z"/><path class="cls-3" d="M284.08,201.36c-.33.91-1.14,2.13-.82,2.68.61,1,1.88,1.68,2.88,2.49,1.76-.5,3.08-.62,2.35-2.67-.19-.53.05-1.23-.18-1.73a8.1,8.1,0,0,0-1.69-2.61c-.18-.16-1.38.76-2.09,1.22A1.24,1.24,0,0,0,284.08,201.36Z"/><path class="cls-3" d="M259.74,182.13a4,4,0,0,0-2.29,2.18c-.42,1.35,1.5,3.08,3,3.11s3.19-1.17,3.17-2.31S260.85,181.74,259.74,182.13Z"/><path class="cls-3" d="M303,213.24c-1.11-.84-2.25-1.27-3.37-.33-.57.47-1.25,1.57-1.05,2a3.89,3.89,0,0,0,4,2.79,6.36,6.36,0,0,0,1.91-1.74C305.26,214.62,304,214,303,213.24Z"/><path class="cls-3" d="M319.65,205.08c.27-.36,1-.91,1.18-1.6.26-1.19-1.3-2.68-2.54-2.66s-1.68.54-1.63,1.7C316.72,204.09,317.48,204.94,319.65,205.08Z"/><path class="cls-3" d="M306.15,221.51c-.57,0-1.7,1.34-1.59,1.88.14.73,1.23,1.27,2.3,2.25.89-1,1.93-1.71,2-2.46C309,221.34,307.19,221.52,306.15,221.51Z"/><path class="cls-3" d="M376.11,262.05c-.84,1.23-1.78,2.17-1.62,2.44l3.94.59C378.09,264.14,377.21,263.4,376.11,262.05Z"/><path class="cls-3" d="M311.38,200.81c-1.2-.07-2,.56-1.76,1.69.16.72,1.05,1.27,2,2.32.89-1.12,1.77-1.74,1.87-2.48C313.72,200.86,312.43,200.87,311.38,200.81Z"/><path class="cls-3" d="M292.37,207.78c-1.11,0-2.34.17-2.25,1.53,0,.7,1,1.36,1.88,2.5,1-1.08,1.83-1.65,2-2.39C294.33,208.31,293.45,207.8,292.37,207.78Z"/><path class="cls-3" d="M314.9,209.29c.89.65,1.51,1.45,2.14,1.45s1.5-1.24,1.38-1.49a10.77,10.77,0,0,0-1.88-2.2Z"/><path class="cls-3" d="M270.82,197.32c-.41.74-1.2,1.52-1.13,2.21s1,1.35,1.7,1.6c.31.12,1.49-.93,1.42-1.28a9.76,9.76,0,0,0-1.3-2.55Z"/><path class="cls-3" d="M287.31,210.61c-.58.62-1.53,1.18-1.63,1.87-.07.46,1,1.31,1.65,1.59.38.16,1.09-.5,2-1Z"/><path class="cls-3" d="M283.5,229.88a9.3,9.3,0,0,0-1.85,1.66,7.81,7.81,0,0,0,1.85,1.58c.21.1.91-.88,1.64-1.63C284.41,230.75,283.67,229.79,283.5,229.88Z"/><path class="cls-3" d="M349.3,201.58a2.2,2.2,0,0,0,1.39,1.59c.45.11,1.13-.71,2.24-1.49-1.08-.85-1.69-1.68-2.29-1.69S349.29,201,349.3,201.58Z"/><path class="cls-3" d="M274.92,259.47c.49.4,1,1.1,1.49,1.12s1.34-.5,2.61-1c-1.19-1-1.91-2-2.46-1.88S275.46,258.82,274.92,259.47Z"/><path class="cls-3" d="M259.7,230.59a6.46,6.46,0,0,0,1.79,1.55c.3.11,1-.8,1.71-1.44l-1.63-2.11Z"/><path class="cls-3" d="M360.73,241.3c0,.45,1,1.36,1.37,1.29a2.23,2.23,0,0,0,1.44-1.46c.1-.46-.6-1.11-1.28-2.24C361.46,240.07,360.75,240.67,360.73,241.3Z"/><path class="cls-3" d="M283.47,208.18c.13-.44-.48-1.09-1-2.18-.82,1.05-1.47,1.59-1.67,2.26-.08.28.88,1.22,1.28,1.17A2.06,2.06,0,0,0,283.47,208.18Z"/><path class="cls-3" d="M369.08,232c-.49,0-1.16.89-1.32,1.5-.08.3.8.85,1.55,1.61.62-.83,1.38-1.49,1.26-1.77C370.32,232.77,369.58,232,369.08,232Z"/><path class="cls-3" d="M343.82,228.27c-.65.23-1.12,1-1.67,1.49.51.37,1,1,1.54,1s1.05-.52,2-1.07C344.79,229,344.14,228.15,343.82,228.27Z"/><path class="cls-3" d="M246.75,212.42c-.06.4.7,1.25,1.18,1.31s1.23-.47,1.84-.74c0-.26,0-.51,0-.77-.58-.37-1.16-1-1.74-1A1.85,1.85,0,0,0,246.75,212.42Z"/><path class="cls-3" d="M327.06,216.07a5.51,5.51,0,0,0-1.75-1.07c-.45-.08-1,.47-2,1,1.14.7,1.78,1.32,2.49,1.42C326.15,217.47,326.64,216.55,327.06,216.07Z"/><path class="cls-3" d="M322.42,234.84c-.46.07-.81.86-1.21,1.33.52.43,1,1.11,1.57,1.2.4.07.94-.67,2-1.48C323.58,235.33,323,234.77,322.42,234.84Z"/><path class="cls-3" d="M298.67,219.76c-.61.2-1,1-1.55,1.46.5.36,1,1,1.52,1s1-.56,2-1.17C299.68,220.39,299,219.65,298.67,219.76Z"/><path class="cls-3" d="M317.8,227.51c.49.49.91,1.16,1.5,1.39.28.11.89-.62,1.69-1.24-.82-.52-1.31-1.08-1.77-1.06S318.27,227.19,317.8,227.51Z"/><path class="cls-3" d="M313.39,230.19c-.5.12-.87.84-1.29,1.3.46.41.9,1.11,1.39,1.14s1-.62,2-1.35C314.41,230.69,313.82,230.09,313.39,230.19Z"/><path class="cls-3" d="M307.52,215.85c.46.53.84,1.28,1.42,1.5.34.13,1-.6,1.88-1.2-.82-.65-1.28-1.3-1.68-1.26C308.57,214.94,308.06,215.5,307.52,215.85Z"/><path class="cls-3" d="M288.91,224a1.92,1.92,0,0,0,1.32,1.29c.44,0,1.12-.73,1.3-1.28.11-.3-.59-.88-1.18-1.67C289.66,223.06,288.84,223.59,288.91,224Z"/><path class="cls-3" d="M277.88,210.85c-.95-.75-1.48-1.49-2-1.46s-1,.76-1.55,1.18c.42.39.81,1.05,1.27,1.1S276.8,211.28,277.88,210.85Z"/><path class="cls-3" d="M319.22,217.56c0-.45-.69-.85-1.07-1.27-.41.4-1.09.76-1.15,1.21s.52.94,1.07,1.83C318.66,218.47,319.26,218,319.22,217.56Z"/><path class="cls-3" d="M306.72,229.43c-.55,0-1.05.67-1.57,1,.41.39.77,1,1.24,1.12s1-.36,1.92-.75C307.55,230.14,307.1,229.39,306.72,229.43Z"/><path class="cls-3" d="M230.38,175.63c-.18.43.36,1.15.58,1.74l1-.47,1.43-1.23c-.46-.37-.93-1.06-1.38-1A2.09,2.09,0,0,0,230.38,175.63Z"/><path class="cls-3" d="M328.82,249.31c.4.39.76,1.05,1.2,1.12s1.08-.4,2-.81c-.82-.65-1.29-1.32-1.76-1.31S329.31,249,328.82,249.31Z"/><path class="cls-3" d="M324.71,221.72c.09.51.6.94,1.16,1.7l1.48-1.74c-.49-.3-1-.8-1.5-.83S324.67,221.48,324.71,221.72Z"/><path class="cls-3" d="M240.11,195.61a4.83,4.83,0,0,0,1.52.82c.41,0,.87-.45,1.79-1-1-.48-1.58-1-2.06-.9S240.53,195.23,240.11,195.61Z"/><path class="cls-3" d="M336.5,218.39c.43.32.86.9,1.28.9s1-.5,2.08-1.08c-1-.44-1.56-.87-2-.79S337,218.05,336.5,218.39Z"/><path class="cls-3" d="M251.2,251.76a4.61,4.61,0,0,0-1.5.84l1.19,1.45,1.39-1.46C251.92,252.29,251.52,251.72,251.2,251.76Z"/><path class="cls-6" d="M299.13,155.67a1.54,1.54,0,0,1-.08.19h0l.09-.19Z"/><path class="cls-12" d="M325.63,121.47v0l0,0Z"/><path class="cls-12" d="M307.64,152.51c1.51.63,2.95,1.24,4.37,1.91h0C310.59,153.75,309.15,153.14,307.64,152.51Z"/><path class="cls-13" d="M336.09,152.38h0a28.28,28.28,0,0,1-1,3.45L318.57,186.5v0c-1.24,2.47-2.48,4.93-3.78,7.37a3,3,0,0,1-2.09,1.47c-.63,0-1.36-1-1.81-1.7a9.93,9.93,0,0,1-1.2-2.87c-.42-1.67-1.45-2.37-3-2a2.53,2.53,0,0,0-2.06,3.07c.06.38.33.79.26,1.13-.17.76-.26,1.76-.78,2.18a4.87,4.87,0,0,1-6.61-.65c-1.23-1.46-2.32-1.52-3.88-.56a4.12,4.12,0,0,1-5.53-1.46,2.56,2.56,0,0,1,.22-2.13c.42-.67,1.37-1,1.88-1.65a4.15,4.15,0,0,0,.87-2.18c0-.25-1.08-.71-1.71-.82-1.25-.23-2.33-.43-3-1.78a2.93,2.93,0,0,1,.13-3.21c2.49-4.56,4.81-9.23,7.16-13.87,1.85-3.65,3.65-7.33,5.46-11,3.41,1.43,10.13-2.78,13-1.44.52.24,1,.46,1.56.65a14.18,14.18,0,0,0,4.68.91,11.42,11.42,0,0,0,1.55-.08,11.87,11.87,0,0,0,3.07-.79,12.2,12.2,0,0,0,1.51-.72c.6-.34,1.21-.66,1.81-.95s1.22-.56,1.83-.79a15.48,15.48,0,0,1,1.87-.57c.31-.07.63-.13.95-.18s.65-.09,1-.12h.42a36.47,36.47,0,0,1,3.86.6Z"/><path class="cls-12" d="M328,152.65c-.61.23-1.22.49-1.83.79C326.8,153.14,327.41,152.88,328,152.65Z"/><path class="cls-14" d="M328,152.65c-.61.23-1.22.49-1.83.79C326.8,153.14,327.41,152.88,328,152.65Z"/><path class="cls-12" d="M318.25,156a14.18,14.18,0,0,1-4.68-.91A14.18,14.18,0,0,0,318.25,156Z"/><path class="cls-15" d="M318.25,156a14.18,14.18,0,0,1-4.68-.91A14.18,14.18,0,0,0,318.25,156Z"/><path class="cls-12" d="M312,154.42c.52.24,1,.46,1.56.65C313.05,154.88,312.53,154.66,312,154.42Z"/><path class="cls-16" d="M312,154.42c.52.24,1,.46,1.56.65C313.05,154.88,312.53,154.66,312,154.42Z"/><path class="cls-12" d="M329.89,152.08a15.48,15.48,0,0,0-1.87.57A15.48,15.48,0,0,1,329.89,152.08Z"/><path class="cls-17" d="M329.89,152.08a15.48,15.48,0,0,0-1.87.57A15.48,15.48,0,0,1,329.89,152.08Z"/><path class="cls-6" d="M336.09,152.38h0c.07,0,.07,0,0-.13l0,.13Z"/><path class="cls-12" d="M335.66,143.92c-.17.25-.37.55-.58.92C335.29,144.47,335.49,144.17,335.66,143.92Z"/><path class="cls-12" d="M336.09,152.38a36.47,36.47,0,0,0-3.86-.6,36.47,36.47,0,0,1,3.86.6Z"/><path class="cls-12" d="M336.09,152.38h0l0-.13h0Z"/><path class="cls-18" d="M325.59,121.51h0l0,0Z"/><path class="cls-18" d="M325.14,122.63h0l0-.12Z"/><path class="cls-6" d="M312,154.42h0c.52.24,1,.46,1.56.65a14.18,14.18,0,0,0,4.68.91,11.42,11.42,0,0,0,1.55-.08,11.87,11.87,0,0,0,3.07-.79,12.2,12.2,0,0,0,1.51-.72c.6-.34,1.21-.66,1.81-.95s1.22-.56,1.83-.79a15.48,15.48,0,0,1,1.87-.57c.31-.07.63-.13.95-.18s.65-.09,1-.12h.42a36.47,36.47,0,0,1,3.86.6l0-.13a26,26,0,0,0,.54-8.42.64.64,0,0,0,0-.07,32.2,32.2,0,0,0-2.43-9.14,3.93,3.93,0,0,1,3.15-5.63.5.5,0,0,0,.3-.14l0,0,.72-1.16,0,0-.18-1a.91.91,0,0,1-.41-1.22l.95-1.91a.92.92,0,0,0-.41-1.22l-8.46-4.2a.92.92,0,0,0-1.22.41l-.94,1.91a.92.92,0,0,1-1.22.41l-.92.61,0,0,0,0-.4,1,0,.12a.8.8,0,0,0,0,.39c1.32,2.62.7,4.49-2,5.51-1.88.71-3.83,1.26-5.66,2.1-3.59,1.64-7.17,3.58-9.07,7.14-2.2,4.12-7.48,13.7-9.33,17.89h0l-.09.19c3.41,1.43,10.13-2.78,13-1.44"/><circle id="미세플라스틱-182-2" data-name="미세플라스틱-182" class="cls-3" cx="130.93" cy="87.31" r="1.18"/><circle id="미세플라스틱-182-3" data-name="미세플라스틱-182" class="cls-3" cx="124.36" cy="72.34" r="1.18"/><circle id="미세플라스틱-182-4" data-name="미세플라스틱-182" class="cls-3" cx="130.95" cy="64.16" r="1.18"/><circle id="미세플라스틱-182-5" data-name="미세플라스틱-182" class="cls-3" cx="104.84" cy="59.04" r="1.18"/><circle id="미세플라스틱-182-6" data-name="미세플라스틱-182" class="cls-3" cx="106.35" cy="65.63" r="1.18"/><circle id="미세플라스틱-182-7" data-name="미세플라스틱-182" class="cls-3" cx="69.89" cy="92.33" r="1.18"/><circle id="미세플라스틱-182-8" data-name="미세플라스틱-182" class="cls-3" cx="64.21" cy="98.76" r="1.18"/><circle id="미세플라스틱-182-9" data-name="미세플라스틱-182" class="cls-3" cx="56.19" cy="95.34" r="1.18"/><circle id="미세플라스틱-182-10" data-name="미세플라스틱-182" class="cls-3" cx="54.68" cy="107.1" r="1.18"/><circle id="미세플라스틱-182-11" data-name="미세플라스틱-182" class="cls-3" cx="68.23" cy="109.35" r="1.18"/><circle id="미세플라스틱-182-12" data-name="미세플라스틱-182" class="cls-3" cx="124.94" cy="92.96" r="1.18"/><circle id="미세플라스틱-182-13" data-name="미세플라스틱-182" class="cls-3" cx="124.1" cy="83.89" r="1.18"/><circle id="미세플라스틱-182-14" data-name="미세플라스틱-182" class="cls-3" cx="130.02" cy="77" r="1.18"/><circle id="미세플라스틱-182-15" data-name="미세플라스틱-182" class="cls-3" cx="182.35" cy="126.26" r="1.36"/><circle id="미세플라스틱-182-16" data-name="미세플라스틱-182" class="cls-3" cx="188.1" cy="137.33" r="1.36"/><circle id="미세플라스틱-182-17" data-name="미세플라스틱-182" class="cls-3" cx="184.77" cy="152.69" r="1.36"/><circle id="미세플라스틱-182-18" data-name="미세플라스틱-182" class="cls-3" cx="185.51" cy="181.01" r="1.36"/><circle id="미세플라스틱-182-19" data-name="미세플라스틱-182" class="cls-3" cx="194.88" cy="175.47" r="1.36"/><circle id="미세플라스틱-182-20" data-name="미세플라스틱-182" class="cls-3" cx="194.81" cy="186.51" r="1.36"/><circle id="미세플라스틱-182-21" data-name="미세플라스틱-182" class="cls-3" cx="188.37" cy="196.73" r="1.36"/><circle id="미세플라스틱-182-22" data-name="미세플라스틱-182" class="cls-3" cx="196.61" cy="196.78" r="1.36"/><circle id="미세플라스틱-182-23" data-name="미세플라스틱-182" class="cls-3" cx="201.77" cy="189.7" r="1.36"/><circle id="미세플라스틱-182-24" data-name="미세플라스틱-182" class="cls-3" cx="201.68" cy="204.27" r="1.36"/><circle id="미세플라스틱-182-25" data-name="미세플라스틱-182" class="cls-3" cx="199.87" cy="208.15" r="1.36"/><circle id="미세플라스틱-182-26" data-name="미세플라스틱-182" class="cls-3" cx="193.26" cy="204.22" r="1.36"/><circle id="미세플라스틱-182-27" data-name="미세플라스틱-182" class="cls-3" cx="193.19" cy="214.1" r="1.36"/><circle id="미세플라스틱-182-28" data-name="미세플라스틱-182" class="cls-3" cx="193.6" cy="147.33" r="1.36"/><circle id="미세플라스틱-182-29" data-name="미세플라스틱-182" class="cls-3" cx="153.91" cy="126.49" r="1.36"/><circle id="미세플라스틱-182-30" data-name="미세플라스틱-182" class="cls-3" cx="142.52" cy="124.8" r="1.36"/><circle id="미세플라스틱-182-31" data-name="미세플라스틱-182" class="cls-3" cx="130.02" cy="131.84" r="1.36"/><circle id="미세플라스틱-182-32" data-name="미세플라스틱-182" class="cls-3" cx="116.07" cy="124.95" r="1.36"/><circle id="미세플라스틱-182-33" data-name="미세플라스틱-182" class="cls-3" cx="100.22" cy="125.97" r="1.36"/><circle id="미세플라스틱-182-34" data-name="미세플라스틱-182" class="cls-3" cx="75.51" cy="130.43" r="1.36"/><circle id="미세플라스틱-182-35" data-name="미세플라스틱-182" class="cls-3" cx="90.21" cy="132.02" r="1.36"/><path class="cls-19" d="M1304.31,191.78c.29-3.83-5-29.18-8.35-38.66a165.4,165.4,0,0,0-7.94-17.89c-1.41-7.35-3.78-18.8-7.33-33-2.32-9.34-5.67-22.78-11.46-25.79a14.79,14.79,0,0,0-5.81-1.69c-6.92-3.61-17.42-4.28-23.28-8.48l-.26-.13-.18-12.76c3.12-3,5.07-7.5,6.16-12.39,1.92-1.37,3.33-5,3.22-7.44a4.62,4.62,0,0,0-2.1-3.46c-.32-11.7-7.54-19-16.53-19.07s-16.37,7.23-16.78,18.86a4.14,4.14,0,0,0-2.13,3.42c-.15,2.38,1.21,6,3.12,7.49,1,5,3,9.54,6.13,12.6l-.34,12.36-.6.39c-5.91,4.13-16.49,4.65-23.45,8.18a16.24,16.24,0,0,0-5.56,1.55c-5.84,2.94-9.36,16.33-11.8,25.64-3.73,14.18-6.25,25.6-7.75,32.93a167.69,167.69,0,0,0-8.18,17.79c-3.49,9.43-9.14,34.71-8.84,38.55-.3,5.48-1.39,21.14-.16,26,.77,3.11,5.06,4.46,6.58,4.47s.63-15.79,3.28-17.76,4,12.19,5.69,9.49c2.14-3.42-1.94-17.13-4.6-24a25.57,25.57,0,0,1,3.09-8.17c5.82-10.67,12-24.78,13.08-29,.67-2.44,1.22-5.42,1.77-8.52,4.29-8.89,8-15.35,13.22-31,1.59,9.47,3.38,19.59,4.84,28.79a75.21,75.21,0,0,1,.29,17.19,22.75,22.75,0,0,0-1.48,3.82c-5.68,19.4-6.76,33.4-5.06,55.82,1.47,19,3.47,36.84,5,48.48-1.35,4.09-2.84,9.7-3.76,19.87-1.35,14.47,2.77,41.66,3,56.21a4.82,4.82,0,0,0-.14,1c-.38,17-6,19.06-5.91,24,.11,4.56,6.11,5.59,10.14,6.14a8.68,8.68,0,0,0,9.29-5.16c1.42-4.22,1-9.64.25-19a40.15,40.15,0,0,0-1-5.56c.28-12.75,3.39-33.55,4.46-46.83a138.12,138.12,0,0,0-.81-28.29c1.79-11,6.26-37.05,7.34-50.72.5-6,1-11.36,1.36-16.38a35.33,35.33,0,0,0,10.57.06c.3,5.09.73,10.45,1.15,16.4,1,13.76,5,39.83,6.68,50.81a139.23,139.23,0,0,0-1.17,28.28c1,13.36,3.81,34.2,3.86,46.89a25.43,25.43,0,0,0-1,5.55c-.92,9.31-1.42,14.73,0,19a8.78,8.78,0,0,0,9.22,5.28c4-.51,10.12-1.46,10.21-6,.17-5-5.44-7.17-5.59-24.09a4.9,4.9,0,0,0-.13-1c.36-14.54,4.83-41.67,3.73-56.16a86.87,86.87,0,0,0-3.5-19.91c1.66-11.63,3.89-29.46,5.6-48.42,2-22.39,1-36.41-4.34-55.88a19.89,19.89,0,0,0-1.69-4.31,78.4,78.4,0,0,1,.51-16.71c1.58-9.38,3.56-19.61,5.27-29.19,5.19,16.17,8.78,22.67,13,31.75.51,3.11,1,6.09,1.66,8.54,1.1,4.23,7,18.42,12.7,29.16a26.67,26.67,0,0,1,3,8.22c-2.75,6.85-7,20.44-4.91,23.89,1.7,2.79,3.18-11.35,5.81-9.41s1.54,17.79,3.06,17.8,5.82-1.29,6.64-4.39C1305.43,212.94,1304.54,197.27,1304.31,191.78Z"/><g id="미세_플라스틱_그룹-6-2" data-name="미세 플라스틱 그룹-6"><circle id="미세플라스틱-177-2" data-name="미세플라스틱-177" class="cls-3" cx="1223.73" cy="130.65" r="2.51" transform="translate(1085.22 1353.51) rotate(-89.63)"/><circle id="미세플라스틱-178-2" data-name="미세플라스틱-178" class="cls-3" cx="1226.74" cy="125.97" r="2.51" transform="translate(1092.87 1351.88) rotate(-89.63)"/><circle id="미세플라스틱-179-2" data-name="미세플라스틱-179" class="cls-3" cx="1221.94" cy="121.32" r="2.51" transform="translate(1092.77 1342.45) rotate(-89.63)"/><circle id="미세플라스틱-180-2" data-name="미세플라스틱-180" class="cls-3" cx="1224.86" cy="119.48" r="2.51" transform="translate(1097.5 1343.55) rotate(-89.63)"/><circle id="미세플라스틱-181-2" data-name="미세플라스틱-181" class="cls-3" cx="1229.21" cy="132.01" r="2.51" transform="translate(1089.3 1360.34) rotate(-89.63)"/><circle id="미세플라스틱-182-36" data-name="미세플라스틱-182" class="cls-3" cx="1219.65" cy="127.52" r="2.51" transform="translate(1084.3 1346.32) rotate(-89.63)"/><circle id="미세플라스틱-183-2" data-name="미세플라스틱-183" class="cls-3" cx="1217.16" cy="124" r="2.51" transform="translate(1085.34 1340.34) rotate(-89.63)"/><circle id="미세플라스틱-184-2" data-name="미세플라스틱-184" class="cls-3" cx="1232.54" cy="127.6" r="2.51" transform="translate(1097.02 1359.29) rotate(-89.63)"/><circle id="미세플라스틱-185-2" data-name="미세플라스틱-185" class="cls-3" cx="1228.55" cy="121.36" r="2.51" transform="translate(1099.29 1349.1) rotate(-89.63)"/><circle id="미세플라스틱-186-2" data-name="미세플라스틱-186" class="cls-3" cx="1232.07" cy="119.53" r="2.51" transform="translate(1104.61 1350.8) rotate(-89.63)"/><circle id="미세플라스틱-187-2" data-name="미세플라스틱-187" class="cls-3" cx="1236.35" cy="130.99" r="2.51" transform="translate(1097.41 1366.48) rotate(-89.63)"/><circle id="미세플라스틱-188-2" data-name="미세플라스틱-188" class="cls-3" cx="1238.96" cy="126.05" r="2.51" transform="translate(1104.95 1364.18) rotate(-89.63)"/><circle id="미세플라스틱-189-2" data-name="미세플라스틱-189" class="cls-3" cx="1243.63" cy="130.78" r="2.51" transform="translate(1104.85 1373.54) rotate(-89.63)"/><circle id="미세플라스틱-190-2" data-name="미세플라스틱-190" class="cls-3" cx="1235.08" cy="123.12" r="2.51" transform="translate(1104.02 1357.39) rotate(-89.63)"/><circle id="미세플라스틱-191-2" data-name="미세플라스틱-191" class="cls-3" cx="1239.73" cy="140.4" r="2.51" transform="translate(1091.36 1379.2) rotate(-89.63)"/><circle id="미세플라스틱-192-2" data-name="미세플라스틱-192" class="cls-3" cx="1243.59" cy="137.06" r="2.51" transform="translate(1098.54 1379.73) rotate(-89.63)"/><circle id="미세플라스틱-193-2" data-name="미세플라스틱-193" class="cls-3" cx="1238.04" cy="146.6" r="2.51" transform="translate(1083.48 1383.67) rotate(-89.63)"/><circle id="미세플라스틱-194-2" data-name="미세플라스틱-194" class="cls-3" cx="1234.91" cy="149.69" r="2.51" transform="translate(1077.28 1383.61) rotate(-89.63)"/><circle id="미세플라스틱-195-2" data-name="미세플라스틱-195" class="cls-3" cx="1243.54" cy="144.19" r="2.51" transform="translate(1091.35 1386.78) rotate(-89.63)"/><circle id="미세플라스틱-196-2" data-name="미세플라스틱-196" class="cls-3" cx="1235" cy="136.47" r="2.51" transform="translate(1090.59 1370.56) rotate(-89.63)"/><circle id="미세플라스틱-197-2" data-name="미세플라스틱-197" class="cls-3" cx="1239.77" cy="134.59" r="2.51" transform="translate(1097.21 1373.46) rotate(-89.63)"/><circle id="미세플라스틱-198-2" data-name="미세플라스틱-198" class="cls-3" cx="1233.04" cy="143.4" r="2.51" transform="translate(1081.71 1375.49) rotate(-89.63)"/><circle id="미세플라스틱-199-2" data-name="미세플라스틱-199" class="cls-3" cx="1230.36" cy="148.54" r="2.51" transform="translate(1073.91 1377.92) rotate(-89.63)"/><circle id="미세플라스틱-200-2" data-name="미세플라스틱-200" class="cls-3" cx="1223.02" cy="148.49" r="2.51" transform="translate(1066.67 1370.53) rotate(-89.63)"/><circle id="미세플라스틱-201-2" data-name="미세플라스틱-201" class="cls-3" cx="1227.04" cy="150.56" r="2.51" transform="translate(1068.59 1376.61) rotate(-89.63)"/><circle id="미세플라스틱-202-2" data-name="미세플라스틱-202" class="cls-3" cx="1230.62" cy="138.69" r="2.51" transform="translate(1084.02 1368.39) rotate(-89.63)"/><circle id="미세플라스틱-203-2" data-name="미세플라스틱-203" class="cls-3" cx="1226.62" cy="144.08" r="2.51" transform="translate(1074.65 1369.75) rotate(-89.63)"/><circle id="미세플라스틱-204-2" data-name="미세플라스틱-204" class="cls-3" cx="1219.28" cy="144.04" r="2.51" transform="translate(1067.41 1362.37) rotate(-89.63)"/><circle id="미세플라스틱-205-2" data-name="미세플라스틱-205" class="cls-3" cx="1216.52" cy="141.51" r="2.51" transform="translate(1067.19 1357.1) rotate(-89.63)"/><circle id="미세플라스틱-206-2" data-name="미세플라스틱-206" class="cls-3" cx="1226.21" cy="136.41" r="2.51" transform="translate(1081.91 1361.72) rotate(-89.63)"/><circle id="미세플라스틱-207-2" data-name="미세플라스틱-207" class="cls-3" cx="1223.08" cy="139.57" r="2.51" transform="translate(1075.65 1361.72) rotate(-89.63)"/><circle id="미세플라스틱-208-2" data-name="미세플라스틱-208" class="cls-3" cx="1215.95" cy="137.8" r="2.51" transform="translate(1070.33 1352.84) rotate(-89.63)"/><circle id="미세플라스틱-209-2" data-name="미세플라스틱-209" class="cls-3" cx="1220.6" cy="134.46" r="2.51" transform="translate(1078.29 1354.17) rotate(-89.63)"/><circle id="미세플라스틱-210-2" data-name="미세플라스틱-210" class="cls-3" cx="1215.47" cy="130.86" r="2.51" transform="translate(1076.79 1345.46) rotate(-89.63)"/><circle id="미세플라스틱-211-2" data-name="미세플라스틱-211" class="cls-3" cx="1217.11" cy="132.65" r="2.51" transform="translate(1076.63 1348.89) rotate(-89.63)"/></g><path class="cls-20" d="M47.29,72.79H75a0,0,0,0,1,0,0V85.56a2,2,0,0,1-2,2H49.29a2,2,0,0,1-2-2V72.79A0,0,0,0,1,47.29,72.79Z" transform="translate(121.79 160.74) rotate(-179.63)"/><line class="cls-21" x1="0.74" y1="304.96" x2="198.01" y2="306.23"/><line class="cls-21" x1="228.2" y1="306.43" x2="413.88" y2="307.62"/><text class="cls-22" transform="translate(0.78 297.45) rotate(0.37)">PRIMA<tspan class="cls-23" x="40.69" y="0">R</tspan><tspan class="cls-24" x="48.94" y="0">Y MICROPL</tspan><tspan class="cls-25" x="118.65" y="0">AS</tspan><tspan x="135.42" y="0">TICS</tspan></text><line class="cls-21" y1="418.81" x2="197.28" y2="420.08"/><text class="cls-26" transform="translate(0.05 411.3) rotate(0.37)"><tspan class="cls-27">C</tspan><tspan class="cls-28" x="8.84" y="0">A</tspan><tspan x="17.3" y="0">U</tspan><tspan class="cls-27" x="26.77" y="0">S</tspan><tspan class="cls-29" x="34.48" y="0">A</tspan><tspan x="42.54" y="0">TION OF MICROPL</tspan><tspan class="cls-27" x="153.93" y="0">AS</tspan><tspan x="170.44" y="0">TICS</tspan></text><line class="cls-30" x1="228.2" y1="306.43" x2="393.97" y2="307.49"/><text class="cls-22" transform="translate(228.25 298.92) rotate(0.37)">SECON<tspan class="cls-31" x="44.38" y="0">D</tspan><tspan class="cls-24" x="53.4" y="0">A</tspan><tspan class="cls-23" x="62.43" y="0">R</tspan><tspan x="70.68" y="0">Y</tspan><tspan class="cls-32" x="79.2" y="0"> </tspan><tspan class="cls-24" x="82.65" y="0" xml:space="preserve"> MICROPL</tspan><tspan class="cls-33" x="143.84" y="0">AS</tspan><tspan x="160.61" y="0">TICS</tspan></text><text class="cls-34" transform="translate(228.09 324.21) rotate(0.37)">The result of larger pieces of <tspan x="0" y="15">plastic breaking down into </tspan><tspan x="0" y="30">smaller pieces due to sun</tspan><tspan x="156.54" y="30">-</tspan><tspan x="0" y="45">light </tspan><tspan class="cls-35" x="29.79" y="45">e</tspan><tspan x="37.23" y="45">xpo</tspan><tspan class="cls-36" x="60.07" y="45">sur</tspan><tspan class="cls-37" x="79.34" y="45">e</tspan><tspan class="cls-36" x="87.26" y="45">.</tspan></text><line class="cls-38" x1="420.82" y1="188.39" x2="463.65" y2="188.66"/><polygon class="cls-38" points="462.7 191.96 468.41 188.69 462.75 185.35 462.7 191.96"/><path class="cls-2" d="M444.41,164.49l-2.2,2.24-1.35-1.43,3.87-3.85h2l-.09,13.34h-2.34Z"/><circle class="cls-39" cx="444.75" cy="168.09" r="10.92"/><line class="cls-38" x1="639.99" y1="189.8" x2="682.82" y2="190.07"/><polygon class="cls-38" points="681.88 193.37 687.58 190.1 681.92 186.76 681.88 193.37"/><path class="cls-2" d="M659,174.34c5.21-3.89,7.24-5.62,7.25-7.54a2.13,2.13,0,0,0-2.4-2.05,4.63,4.63,0,0,0-3.61,1.57l-1.35-1.54a6.34,6.34,0,0,1,4.93-2.11c2.58,0,4.83,1.49,4.81,4.15,0,2.46-2.29,4.65-5.88,7.32l5.92,0,0,2.06-9.66-.06Z"/><circle class="cls-39" cx="663.76" cy="169.5" r="10.92"/><line class="cls-38" x1="841.16" y1="191.09" x2="883.99" y2="191.36"/><polygon class="cls-38" points="883.05 194.66 888.75 191.4 883.09 188.05 883.05 194.66"/><path class="cls-2" d="M861.74,173.9a5,5,0,0,0,3.69,1.65c1.76,0,2.79-.79,2.8-2s-1.05-1.88-3-1.9h-1.54v-2.1c.24,0,1,0,1.54,0,1.56,0,2.74-.52,2.75-1.74s-1.19-1.89-2.69-1.9a4.71,4.71,0,0,0-3.45,1.46l-1.19-1.47a6.22,6.22,0,0,1,4.88-2.07c2.88,0,4.81,1.4,4.8,3.64a3.27,3.27,0,0,1-2.92,3,3.36,3.36,0,0,1,3.08,3.26c0,2.26-2,3.87-5,3.85a6.19,6.19,0,0,1-5-2.2Z"/><circle class="cls-39" cx="865.09" cy="170.8" r="10.92"/><g class="cls-40"><line class="cls-38" x1="1078.34" y1="192.61" x2="1121.17" y2="192.89"/><polygon class="cls-38" points="1120.22 196.19 1125.92 192.92 1120.26 189.58 1120.22 196.19"/></g><path class="cls-2" d="M1103,175.91l-6.36,0V174l5.54-8.4,3.22,0-.06,8.26h1.79l0,2.06h-1.78l0,3-2.34,0Zm-4-2.08,4.06,0,0-6.16Z"/><circle class="cls-39" cx="1102.26" cy="172.32" r="10.92"/><text class="cls-34" transform="translate(0.62 322.75) rotate(0.37)">Tiny pieces of plastic that are <tspan x="0" y="15">purposefully manufactured.</tspan></text><g id="MHSeby.tif"><path class="cls-19" d="M494.39,134.83l.56-.13c0,.63,0,.63.85,1.66l-1.06,1,.1.13,2.45-1.27.1.12-.54,1.11,3-.61.07.16-1.85,2,.2.24a33.54,33.54,0,0,1,5.95-3.72c-1.06,1.07-2.4,1.92-2.68,3.6l.42-.36,5.45-4.3a2.32,2.32,0,0,1,1.87-.48,10.06,10.06,0,0,0,4.26-.28c.36-.1.77-.23,1.06.23,0,.06.31,0,.48-.05a5.31,5.31,0,0,1,1.67-.11,7.11,7.11,0,0,0,3.4,0,14.57,14.57,0,0,1,1.76-.18c-.32,1.37-.61,2.66-.95,3.93-.05.19-.34.36-.55.46-.42.18-.89.27-1.3.47-.22.1-.51.33-.54.54-.08.6-.51.7-1,.8-.73.17-1.46.32-2.19.5-.45.12-.81.23-1,.84-.12.43-.76.76-1.23,1a5.77,5.77,0,0,0-2.21,2.12,8.26,8.26,0,0,0-.41,1.18l1.59-.46c-1,1.77-2.68,3.11-3,5.32l4-2,.14.17a5.32,5.32,0,0,0-.3,4.32c.82-.78,1.69-1.51,2.45-2.34,1.19-1.3,2.3-2.68,3.48-4a11.36,11.36,0,0,1,1.95-1.85,3.58,3.58,0,0,0,1.64-3,10.16,10.16,0,0,1,.19-1.84,6.63,6.63,0,0,1,.61-1.66c.8-1.47,1.62-2.92,2.48-4.36a1.62,1.62,0,0,1,.83-.73c3.23-.82,6.45-1.66,9.71-2.32,2.53-.51,5.11-.8,7.67-1.12a45,45,0,0,0,11.89-3.25c2.38-1,4.78-2,7.15-3a31.55,31.55,0,0,0,8.51-5.67,17.46,17.46,0,0,1,4.93-3.3,18.93,18.93,0,0,1,8-1c.57,0,1.15-.07,1.71,0a12,12,0,0,1,2.33.27c1.57.43,3.1,1,4.66,1.46a3.62,3.62,0,0,0,1.19.08c1,0,1.13-.22,1.17-1.19a3.38,3.38,0,0,0-1-2.38,7.23,7.23,0,0,0-4.07-2.19c-.65-.14-1.29-.32-1.94-.44a8.53,8.53,0,0,1-4.7-2.78,1.32,1.32,0,0,1-.35-.47,4.13,4.13,0,0,0-2.49-2.51,13.47,13.47,0,0,0-4.31-1.58c-3.29-.27-6.6-1.1-9.92-.22-.88.23-1.74.54-2.62.71-1.25.24-1.75-.11-1.77-1.36a21,21,0,0,1,.27-4.35c.65-3.22,1.38-6.43,2.27-9.58a32.26,32.26,0,0,1,2-4.47c.52-1.12,1.07-2.22,1.54-3.36a7.82,7.82,0,0,1,1.86-3,2.9,2.9,0,0,0,.78-1.78,4,4,0,0,1,.67-1.66,2.76,2.76,0,0,0,.46-2.44,3,3,0,0,0-.28-.75,2.37,2.37,0,0,1,.14-2.61,2.2,2.2,0,0,0,.21-1.33c-.18-1.57-.49-3.13-.66-4.71-.15-1.33-.09-2.69-.27-4-.29-2.09-.69-4.17-1-6.25a44.28,44.28,0,0,0-7.71-17.91A9.35,9.35,0,0,0,558.39,29a9.65,9.65,0,0,0-4.26-.44l-.06.19,1.82.82c-.43.44-1.31.1-1.19,1a7.89,7.89,0,0,0-1.48-.32,8.34,8.34,0,0,0-1.4.19c.51.49,1.46.52,1.43,1.64-1.54-.92-3-.21-4.53,0,1.18.31,1.43,1.62,2.66,2l-.94.56,1.64.94a2.43,2.43,0,0,1-2.21.41,13,13,0,0,0-2.07,0,.55.55,0,0,0-.26,0l-1.18.83.72.81c-.41.46-1.3.2-1.33,1l-1.6.15,0,.22,2.08,1.61-2.3.8,0,.19c.71.42,1.42.84,2.12,1.27.32.18.75.21.76.75,0,.17.39.33.6.48l.56.34a3.28,3.28,0,0,1-.22.76,1.44,1.44,0,0,1-.54.58c-.47.22-.62.5-.3.92a5.16,5.16,0,0,0,.76.79c.2.17.47.25.67.42a.71.71,0,0,1,.25.49c0,.11-.28.23-.45.27-.43.08-.87.13-1.18.17l-.53,1.25.52.63-1.9.57.2.67-1.69.32,0,.23,1.33,1.25-.06.16c-1.32-.27-2.81-1.37-3.66.62.33.23.66.44,1,.68s.4.48-.12.69l-1.8.75,0,.18,2.45,0,0,.21a13,13,0,0,0-4.29,1.91c.81.68,1.84.16,2.78.66l-2.1.58.34.76-1.91.52.38,1.51c-1.34.41-1.34.41-1.36,1.56l-.84,0L537,67.27l-1.4,1.09c-.42.32-.48.62,0,1a3,3,0,0,1,.92,1.15,1.59,1.59,0,0,1-.27,1.33,1.75,1.75,0,0,0-.37,2.18,2.56,2.56,0,0,1,.09,1.32c-.11.73,0,.9.7.88.32,0,.65,0,1-.08l-1.6,2,.15.25,1.2-.25-1.89,2.44.68.11-.68.61a14.86,14.86,0,0,1-.92-1.36A45.62,45.62,0,0,0,521,64c-3.29-2.45-6.74-4.69-10.17-6.94-6.75-4.45-13.16-9.36-19.57-14.27C485.19,38.16,479.38,33.18,473,29c-1.11-.72-2-1.71-3.11-2.47-.9-.62-1.91-1.09-2.86-1.63-.08,0-.22-.1-.24-.07-.57.59-1.24.13-1.85.21-.06,0-.11,0-.23.1l.72.9c-.46.55-1.41-.34-1.66.67-.24,0-.47-.09-.7-.16a.84.84,0,0,0-1,.24,3.92,3.92,0,0,1-1.35.63l-.25.3c.29.16.58.31.86.48s.48.34.85.59l-1.05.34-.06.17,1.49.78-.61.05c-1.43.14-2.86.26-4.28.43-.21,0-.64-.08-.6.46,0,.1-.59.24-1.13.45l2.91,1.5-.07.22-.84.43,1.5,1.06c0,.07,0,.12-.06.14-.65.58-.61,1,.31,1.22,1.23.31,2.51.43,3.77.64l.64.07-1,.56c.9,1,2.17,1,3,1.39a4.12,4.12,0,0,0,.34,1.18c.69.92,1.45,1.79,2.23,2.74-.27.35.12.59.52.74a15.56,15.56,0,0,0,1.57.41,1.13,1.13,0,0,0-.07,1.62,8.09,8.09,0,0,0,1.39,1l-.73.51a10.31,10.31,0,0,0,1.25.78c.42.17.8.5,1.14.62,1.35.47,1.26,1.7,1.67,2.67a2.44,2.44,0,0,0,.1.24,1,1,0,0,0,.13.11l.18-.36c.86-.06.87.78,1.29,1.2s.7.84,1.07,1.3c.58-.21.83.3,1.05.71.66,1.27,1.22,2.59,1.91,3.85.18.32.29,1.05,1,.68,0,1.77,1,3,2,4.27A18.56,18.56,0,0,0,486,64.56a3.39,3.39,0,0,1,.64,1.13,7.76,7.76,0,0,1,.15.84c.05.18.19.47.3.48,1.07.07,1.42,1.24,2.26,1.49a1.43,1.43,0,0,1,1.06.86s.18-.06.31-.1l.14.9.71-.37-.33,1.09a3.61,3.61,0,0,0,.9.25c.7,0,1,.33.82,1-.05.18-.09.37-.14.6l.62.1.1.55.92-.41-.3,2.06,1.19-.39c-.2,1.33-1,2.56-.52,3.94a2.24,2.24,0,0,0,2-1.14c.13-.25.62-.33,1-.54.18,1.47.44,2.85-.25,4.22.83.21.81-.55,1.25-.77a3.14,3.14,0,0,1,.29.58c.11.4.26.63.78.56s.62.2.44.74-.31,1.23-.46,1.84l.28.12.67-.84c.55.34.1,1.51,1.23,1.27-.1.38-.18.67-.24,1a1,1,0,0,0,.43,1.22,1.92,1.92,0,0,1,.84,1.38c.08.54.6,1,.93,1.53.16.26.36.5.5.77a7,7,0,0,0,.58,1.2,2,2,0,0,1,.59,1.34c0,.55.32.72.84.51.22.41,0,1.09.7,1.2.06,0,.09.26.14.4a19.5,19.5,0,0,0,.69,1.85c.09.18.43.23.78.39,0,.12.06.39.1.67a1.47,1.47,0,0,0,1.18,1.35c.4.08.49.3.48.66,0,.56,0,1.13,0,1.78l2,0c0,.33.08.79.16,1.23s.06.91.7,1c.21,0,.35.46.53.72,1,0,1,0,1.19,1a3.09,3.09,0,0,1,.12.59c0,.52.24.76.77.88.92.22,1,.52.6,1.35a2.84,2.84,0,0,0-.25,1c.86-.4,1.13-1.24,1.62-2.09l.4,1.21.67-.86,0,2,.19,0,.28-.65c.87.93.54,2.06.51,3.17l.8,0-.64,1.82.84-.45c-1.06,1.37-.69,2.66-.35,3.95a13.66,13.66,0,0,1,.43,1.73.89.89,0,0,1-.31.74c-1.39,1-2.84,1.86-4.23,2.85a24.48,24.48,0,0,1-7.87,3.65c-3.62,1-7.17,2.18-10.76,3.27a18,18,0,0,1-2.49.68,2.1,2.1,0,0,0-1.9,1.71c.39,0,.8-.15,1,.44s.75,1.33-.4,1.84Z"/></g><g id="미세_플라스틱_그룹-5" data-name="미세 플라스틱 그룹-5"><circle id="미세플라스틱-142" class="cls-3" cx="537.08" cy="111.41" r="1.39" transform="translate(422.22 647.77) rotate(-89.63)"/><circle id="미세플라스틱-143" class="cls-3" cx="538.68" cy="108.85" r="1.39" transform="translate(426.38 646.82) rotate(-89.63)"/><circle id="미세플라스틱-144" class="cls-3" cx="536.06" cy="106.25" r="1.39" transform="translate(426.36 641.61) rotate(-89.63)"/><circle id="미세플라스틱-145" class="cls-3" cx="537.65" cy="105.27" r="1.39" transform="translate(428.92 642.23) rotate(-89.63)"/><circle id="미세플라스틱-146" class="cls-3" cx="540.05" cy="112.16" r="1.39" transform="translate(424.42 651.48) rotate(-89.63)"/><circle id="미세플라스틱-147" class="cls-3" cx="534.78" cy="109.68" r="1.39" transform="translate(421.66 643.74) rotate(-89.63)"/><circle id="미세플라스틱-148" class="cls-3" cx="533.47" cy="107.75" r="1.39" transform="translate(422.29 640.52) rotate(-89.63)"/><circle id="미세플라스틱-149" class="cls-3" cx="541.92" cy="109.73" r="1.39" transform="translate(428.71 650.93) rotate(-89.63)"/><circle id="미세플라스틱-150" class="cls-3" cx="539.69" cy="106.27" r="1.39" transform="translate(429.95 645.27) rotate(-89.63)"/><circle id="미세플라스틱-151" class="cls-3" cx="541.62" cy="105.3" r="1.39" transform="translate(432.84 646.22) rotate(-89.63)"/><circle id="미세플라스틱-152" class="cls-3" cx="543.95" cy="111.59" r="1.39" transform="matrix(0.01, -1, 1, 0.01, 428.87, 654.81)"/><circle id="미세플라스틱-153" class="cls-3" cx="545.36" cy="108.89" r="1.39" transform="translate(432.97 653.54) rotate(-89.63)"/><circle id="미세플라스틱-154" class="cls-3" cx="547.99" cy="111.48" r="1.39" transform="translate(432.98 658.74) rotate(-89.63)"/><circle id="미세플라스틱-155" class="cls-3" cx="543.25" cy="107.29" r="1.39" transform="translate(432.47 649.84) rotate(-89.63)"/><circle id="미세플라스틱-156" class="cls-3" cx="545.84" cy="116.76" r="1.39" transform="translate(425.57 661.83) rotate(-89.63)"/><circle id="미세플라스틱-157" class="cls-3" cx="547.96" cy="114.92" r="1.39" transform="translate(429.52 662.13) rotate(-89.63)"/><circle id="미세플라스틱-158" class="cls-3" cx="544.89" cy="120.19" r="1.39"/><circle id="미세플라스틱-159" class="cls-3" cx="543.16" cy="121.83" r="1.39"/><circle id="미세플라스틱-160" class="cls-3" cx="547.94" cy="118.82" r="1.39"/><circle id="미세플라스틱-161" class="cls-3" cx="543.21" cy="114.63" r="1.39" transform="translate(425.09 657.08) rotate(-89.63)"/><circle id="미세플라스틱-162" class="cls-3" cx="545.86" cy="113.52" r="1.39" transform="translate(428.83 658.64) rotate(-89.63)"/><circle id="미세플라스틱-163" class="cls-3" cx="542.19" cy="118.39" r="1.39" transform="translate(420.32 659.81) rotate(-89.63)"/><circle id="미세플라스틱-164" class="cls-3" cx="540.72" cy="121.22" r="1.39"/><circle id="미세플라스틱-165" class="cls-3" cx="536.69" cy="121.19" r="1.39"/><circle id="미세플라스틱-166" class="cls-3" cx="538.86" cy="122.33" r="1.39"/><circle id="미세플라스틱-167" class="cls-3" cx="540.82" cy="115.8" r="1.39" transform="translate(421.55 655.86) rotate(-89.63)"/><circle id="미세플라스틱-168" class="cls-3" cx="538.62" cy="118.76" r="1.39"/><circle id="미세플라스틱-169" class="cls-3" cx="534.59" cy="118.73" r="1.39"/><circle id="미세플라스틱-170" class="cls-3" cx="533.08" cy="117.34" r="1.39" transform="translate(412.32 649.65) rotate(-89.63)"/><circle id="미세플라스틱-171" class="cls-3" cx="538.38" cy="114.59" r="1.39" transform="translate(420.33 652.23) rotate(-89.63)"/><circle id="미세플라스틱-172" class="cls-3" cx="536.72" cy="116.3" r="1.39" transform="matrix(0.01, -1, 1, 0.01, 416.97, 652.26)"/><circle id="미세플라스틱-173" class="cls-3" cx="532.76" cy="115.29" r="1.39" transform="translate(414.05 647.29) rotate(-89.63)"/><circle id="미세플라스틱-174" class="cls-3" cx="535.35" cy="113.45" r="1.39" transform="translate(418.46 648.06) rotate(-89.63)"/><circle id="미세플라스틱-175" class="cls-3" cx="532.52" cy="111.52" r="1.39" transform="translate(417.58 643.31) rotate(-89.63)"/><circle id="미세플라스틱-176" class="cls-3" cx="533.44" cy="112.51" r="1.39" transform="translate(417.5 645.22) rotate(-89.63)"/></g><line class="cls-30" x1="477.01" y1="421.89" x2="1305.06" y2="427.07"/><line class="cls-30" y1="418.82" x2="410.51" y2="421.46"/><line class="cls-30" y1="418.82" x2="412.82" y2="421.48"/><text class="cls-22" transform="translate(477.06 414.38) rotate(0.37)">OCEAN SPECIES FEED MICROPL<tspan class="cls-25" x="198.29" y="0">AS</tspan><tspan x="215.06" y="0">TICS </tspan></text><path class="cls-6" d="M1051.45,204.39s-1.61-6-6.32-9.64a25.76,25.76,0,0,0-9.51-4.73,58.13,58.13,0,0,0,9.64-6.38,17.75,17.75,0,0,0,6.13-10,29.28,29.28,0,0,0-13.41,4c-3.93,2.31-6.47,4.07-9.19,5.06a16.68,16.68,0,0,1-6.58.84,20.39,20.39,0,0,1-7.62-2.13,27.13,27.13,0,0,0,12.75-9s-4.65-3.81-18.35-4a71.24,71.24,0,0,0-15.49,1.48,47.57,47.57,0,0,0-18.41-3.65c-1.9,0-3.86.1-5.75.28a64.11,64.11,0,0,0-17.14,4.37c-10.64,4.35-18.83,10.87-21.77,15.59-.7,1.19.56,2.15.55,3s-1.4,1.95-.77,2.84c2.19,3.3,8.29,6.75,17.11,9.52,2.34.71,4.92,1.42,7.63,2a60.57,60.57,0,0,0,10.55,9.42c6.6,4.34,16.39,4.59,16.39,4.59a73.43,73.43,0,0,0-7.82-11.23l3.66.21a63.68,63.68,0,0,0,17.69-1.21A32.51,32.51,0,0,0,1009.3,208c10.3-.69,15.56-3.94,15.56-3.94s-2.51-2.79-11.52-5.88c2.73-1.56,5-2.62,7.28-2.61a20.35,20.35,0,0,1,8.64,2.08c2.83,1.28,5.54,3.07,9.5,4.67C1046.13,205.37,1051.45,204.39,1051.45,204.39ZM943.86,190a3.48,3.48,0,1,1,3.5-3.45h0A3.47,3.47,0,0,1,943.86,190Z"/><g id="미세_플라스틱_그룹-2" data-name="미세 플라스틱 그룹-2"><circle id="미세플라스틱-37" class="cls-3" cx="984.44" cy="179.32" r="1.39" transform="translate(798.79 1162.59) rotate(-89.63)"/><circle id="미세플라스틱-38" class="cls-3" cx="986.11" cy="176.75" r="1.39" transform="translate(803.02 1161.71) rotate(-89.63)"/><circle id="미세플라스틱-39" class="cls-3" cx="983.48" cy="174.16" r="1.39" transform="translate(803 1156.5) rotate(-89.63)"/><circle id="미세플라스틱-40" class="cls-3" cx="985.08" cy="173.18" r="1.39" transform="translate(805.57 1157.12) rotate(-89.63)"/><circle id="미세플라스틱-41" class="cls-3" cx="987.48" cy="180.07" r="1.39" transform="translate(801.06 1166.36) rotate(-89.63)"/><circle id="미세플라스틱-42" class="cls-3" cx="982.21" cy="177.59" r="1.39" transform="translate(798.31 1158.63) rotate(-89.63)"/><circle id="미세플라스틱-43" class="cls-3" cx="980.9" cy="175.66" r="1.39" transform="translate(798.93 1155.41) rotate(-89.63)"/><circle id="미세플라스틱-44" class="cls-3" cx="989.28" cy="177.63" r="1.39" transform="translate(805.29 1165.75) rotate(-89.63)"/><circle id="미세플라스틱-45" class="cls-3" cx="987.12" cy="174.18" r="1.39" transform="translate(806.59 1160.16) rotate(-89.63)"/><circle id="미세플라스틱-46" class="cls-3" cx="989.04" cy="173.2" r="1.39" transform="translate(809.48 1161.11) rotate(-89.63)"/><circle id="미세플라스틱-47" class="cls-3" cx="991.38" cy="179.5" r="1.39" transform="translate(805.51 1169.7) rotate(-89.63)"/><circle id="미세플라스틱-48" class="cls-3" cx="992.79" cy="176.8" r="1.39" transform="translate(809.61 1168.42) rotate(-89.63)"/><circle id="미세플라스틱-49" class="cls-3" cx="995.35" cy="179.39" r="1.39" transform="translate(809.56 1173.56) rotate(-89.63)"/><circle id="미세플라스틱-50" class="cls-3" cx="990.68" cy="175.2" r="1.39" transform="translate(809.12 1164.73) rotate(-89.63)"/><circle id="미세플라스틱-51" class="cls-3" cx="993.26" cy="184.66" r="1.39" transform="translate(802.22 1176.72) rotate(-89.63)"/><circle id="미세플라스틱-52" class="cls-3" cx="995.33" cy="182.83" r="1.39" transform="translate(806.1 1176.96) rotate(-89.63)"/><circle id="미세플라스틱-53" class="cls-3" cx="992.32" cy="188.1" r="1.39" transform="translate(797.84 1179.18) rotate(-89.63)"/><circle id="미세플라스틱-54" class="cls-3" cx="990.59" cy="189.74" r="1.39" transform="translate(794.48 1179.08) rotate(-89.63)"/><circle id="미세플라스틱-55" class="cls-3" cx="995.3" cy="186.73" r="1.39" transform="translate(802.18 1180.8) rotate(-89.63)"/><circle id="미세플라스틱-56" class="cls-3" cx="990.63" cy="182.47" r="1.39" transform="translate(801.8 1171.91) rotate(-89.63)"/><circle id="미세플라스틱-57" class="cls-3" cx="993.29" cy="181.43" r="1.39" transform="translate(805.48 1173.52) rotate(-89.63)"/><circle id="미세플라스틱-58" class="cls-3" cx="989.55" cy="186.29" r="1.39" transform="translate(796.9 1174.63) rotate(-89.63)"/><circle id="미세플라스틱-59" class="cls-3" cx="988.08" cy="189.13" r="1.39" transform="translate(792.6 1175.97) rotate(-89.63)"/><circle id="미세플라스틱-60" class="cls-3" cx="984.05" cy="189.1" r="1.39" transform="translate(788.62 1171.91) rotate(-89.63)"/><circle id="미세플라스틱-61" class="cls-3" cx="986.29" cy="190.24" r="1.39" transform="translate(789.71 1175.28) rotate(-89.63)"/><circle id="미세플라스틱-62" class="cls-3" cx="988.25" cy="183.71" r="1.39" transform="translate(798.19 1170.75) rotate(-89.63)"/><circle id="미세플라스틱-63" class="cls-3" cx="986.05" cy="186.67" r="1.39" transform="translate(793.04 1171.49) rotate(-89.63)"/><circle id="미세플라스틱-64" class="cls-3" cx="982.01" cy="186.64" r="1.39" transform="translate(789.06 1167.44) rotate(-89.63)"/><circle id="미세플라스틱-65" class="cls-3" cx="980.5" cy="185.24" r="1.39" transform="translate(788.96 1164.54) rotate(-89.63)"/><circle id="미세플라스틱-66" class="cls-3" cx="985.81" cy="182.43" r="1.39" transform="translate(797.04 1167.05) rotate(-89.63)"/><circle id="미세플라스틱-67" class="cls-3" cx="984.08" cy="184.21" r="1.39" transform="translate(793.55 1167.08) rotate(-89.63)"/><circle id="미세플라스틱-68" class="cls-3" cx="980.19" cy="183.19" r="1.39" transform="translate(790.69 1162.18) rotate(-89.63)"/><circle id="미세플라스틱-69" class="cls-3" cx="982.78" cy="181.36" r="1.39" transform="translate(795.1 1162.95) rotate(-89.63)"/><circle id="미세플라스틱-70" class="cls-3" cx="979.95" cy="179.42" r="1.39" transform="translate(794.22 1158.19) rotate(-89.63)"/><circle id="미세플라스틱-71" class="cls-3" cx="980.87" cy="180.42" r="1.39" transform="translate(794.14 1160.1) rotate(-89.63)"/></g><g id="미세_플라스틱_그룹-3" data-name="미세 플라스틱 그룹-3"><circle id="미세플라스틱-72" class="cls-3" cx="974.79" cy="189.44" r="1.39" transform="translate(779.09 1162.99) rotate(-89.63)"/><circle id="미세플라스틱-73" class="cls-3" cx="976.4" cy="186.87" r="1.39" transform="translate(783.25 1162.04) rotate(-89.63)"/><circle id="미세플라스틱-74" class="cls-3" cx="973.77" cy="184.27" r="1.39" transform="translate(783.23 1156.84) rotate(-89.63)"/><circle id="미세플라스틱-75" class="cls-3" cx="975.43" cy="183.29" r="1.39" transform="translate(785.86 1157.52) rotate(-89.63)"/><circle id="미세플라스틱-76" class="cls-3" cx="977.76" cy="190.18" r="1.39" transform="translate(781.29 1166.7) rotate(-89.63)"/><circle id="미세플라스틱-77" class="cls-3" cx="972.49" cy="187.7" r="1.39" transform="translate(778.54 1158.97) rotate(-89.63)"/><circle id="미세플라스틱-78" class="cls-3" cx="971.18" cy="185.78" r="1.39" transform="translate(779.16 1155.74) rotate(-89.63)"/><circle id="미세플라스틱-79" class="cls-3" cx="979.63" cy="187.75" r="1.39" transform="translate(785.58 1166.15) rotate(-89.63)"/><circle id="미세플라스틱-80" class="cls-3" cx="977.4" cy="184.3" r="1.39" transform="translate(786.82 1160.5) rotate(-89.63)"/><circle id="미세플라스틱-81" class="cls-3" cx="979.33" cy="183.32" r="1.39" transform="translate(789.71 1161.45) rotate(-89.63)"/><circle id="미세플라스틱-82" class="cls-3" cx="981.67" cy="189.61" r="1.39" transform="translate(785.74 1170.04) rotate(-89.63)"/><circle id="미세플라스틱-83" class="cls-3" cx="983.07" cy="186.91" r="1.39" transform="translate(789.84 1168.76) rotate(-89.63)"/><circle id="미세플라스틱-84" class="cls-3" cx="985.7" cy="189.51" r="1.39" transform="translate(789.86 1173.97) rotate(-89.63)"/><circle id="미세플라스틱-85" class="cls-3" cx="980.97" cy="185.31" r="1.39" transform="translate(789.35 1165.07) rotate(-89.63)"/><circle id="미세플라스틱-86" class="cls-3" cx="983.55" cy="194.78" r="1.39" transform="translate(782.45 1177.06) rotate(-89.63)"/><circle id="미세플라스틱-87" class="cls-3" cx="985.68" cy="192.94" r="1.39" transform="translate(786.4 1177.36) rotate(-89.63)"/><circle id="미세플라스틱-88" class="cls-3" cx="982.6" cy="198.21" r="1.39" transform="translate(778.07 1179.52) rotate(-89.63)"/><circle id="미세플라스틱-89" class="cls-3" cx="980.87" cy="199.85" r="1.39"/><circle id="미세플라스틱-90" class="cls-3" cx="985.65" cy="196.84" r="1.39" transform="translate(782.47 1181.21) rotate(-89.63)"/><circle id="미세플라스틱-91" class="cls-3" cx="980.92" cy="192.65" r="1.39" transform="matrix(0.01, -1, 1, 0.01, 781.97, 1172.31)"/><circle id="미세플라스틱-92" class="cls-3" cx="983.57" cy="191.54" r="1.39" transform="translate(785.71 1173.86) rotate(-89.63)"/><circle id="미세플라스틱-93" class="cls-3" cx="979.9" cy="196.41" r="1.39" transform="translate(777.2 1175.03) rotate(-89.63)"/><circle id="미세플라스틱-94" class="cls-3" cx="978.43" cy="199.24" r="1.39"/><circle id="미세플라스틱-95" class="cls-3" cx="974.4" cy="199.22" r="1.39"/><circle id="미세플라스틱-96" class="cls-3" cx="976.57" cy="200.35" r="1.39"/><circle id="미세플라스틱-97" class="cls-3" cx="978.53" cy="193.82" r="1.39" transform="translate(778.42 1171.09) rotate(-89.63)"/><circle id="미세플라스틱-98" class="cls-3" cx="976.33" cy="196.78" r="1.39" transform="translate(773.27 1171.83) rotate(-89.63)"/><circle id="미세플라스틱-99" class="cls-3" cx="972.3" cy="196.76" r="1.39" transform="translate(769.29 1167.77) rotate(-89.63)"/><circle id="미세플라스틱-100" class="cls-3" cx="970.79" cy="195.36" r="1.39" transform="translate(769.19 1164.87) rotate(-89.63)"/><circle id="미세플라스틱-101" class="cls-3" cx="976.09" cy="192.62" r="1.39" transform="translate(777.2 1167.45) rotate(-89.63)"/><circle id="미세플라스틱-102" class="cls-3" cx="974.43" cy="194.33" r="1.39" transform="translate(773.84 1167.49) rotate(-89.63)"/><circle id="미세플라스틱-103" class="cls-3" cx="970.47" cy="193.31" r="1.39" transform="translate(770.93 1162.52) rotate(-89.63)"/><circle id="미세플라스틱-104" class="cls-3" cx="973.06" cy="191.47" r="1.39" transform="translate(775.33 1163.28) rotate(-89.63)"/><circle id="미세플라스틱-105" class="cls-3" cx="970.23" cy="189.54" r="1.39" transform="translate(774.46 1158.53) rotate(-89.63)"/><circle id="미세플라스틱-106" class="cls-3" cx="971.15" cy="190.54" r="1.39" transform="translate(774.37 1160.44) rotate(-89.63)"/></g><g id="미세_플라스틱_그룹-4" data-name="미세 플라스틱 그룹-4"><circle id="미세플라스틱-107" class="cls-3" cx="971.44" cy="176.72" r="1.39" transform="translate(788.47 1147) rotate(-89.63)"/><circle id="미세플라스틱-108" class="cls-3" cx="973.11" cy="174.16" r="1.39" transform="translate(792.69 1146.12) rotate(-89.63)"/><circle id="미세플라스틱-109" class="cls-3" cx="970.48" cy="171.63" r="1.39" transform="translate(792.61 1140.98) rotate(-89.63)"/><circle id="미세플라스틱-110" class="cls-3" cx="972.07" cy="170.58" r="1.39" transform="translate(795.24 1141.54) rotate(-89.63)"/><circle id="미세플라스틱-111" class="cls-3" cx="974.47" cy="177.47" r="1.39" transform="translate(790.74 1150.78) rotate(-89.63)"/><circle id="미세플라스틱-112" class="cls-3" cx="969.2" cy="174.99" r="1.39" transform="translate(787.98 1143.05) rotate(-89.63)"/><circle id="미세플라스틱-113" class="cls-3" cx="967.89" cy="173.07" r="1.39" transform="matrix(0.01, -1, 1, 0.01, 788.6, 1139.82)"/><circle id="미세플라스틱-114" class="cls-3" cx="976.27" cy="175.04" r="1.39" transform="translate(794.96 1150.16) rotate(-89.63)"/><circle id="미세플라스틱-115" class="cls-3" cx="974.11" cy="171.65" r="1.39" transform="translate(796.2 1144.64) rotate(-89.63)"/><circle id="미세플라스틱-116" class="cls-3" cx="975.97" cy="170.61" r="1.39" transform="translate(799.09 1145.46) rotate(-89.63)"/><circle id="미세플라스틱-117" class="cls-3" cx="978.38" cy="176.9" r="1.39" transform="translate(795.19 1154.12) rotate(-89.63)"/><circle id="미세플라스틱-118" class="cls-3" cx="979.78" cy="174.2" r="1.39" transform="translate(799.28 1152.84) rotate(-89.63)"/><circle id="미세플라스틱-119" class="cls-3" cx="982.34" cy="176.79" r="1.39" transform="translate(799.23 1157.98) rotate(-89.63)"/><circle id="미세플라스틱-120" class="cls-3" cx="977.68" cy="172.6" r="1.39" transform="translate(798.79 1149.15) rotate(-89.63)"/><circle id="미세플라스틱-121" class="cls-3" cx="980.19" cy="182.07" r="1.39" transform="translate(791.83 1161.07) rotate(-89.63)"/><circle id="미세플라스틱-122" class="cls-3" cx="982.32" cy="180.23" r="1.39" transform="translate(795.78 1161.37) rotate(-89.63)"/><circle id="미세플라스틱-123" class="cls-3" cx="979.31" cy="185.5" r="1.39" transform="translate(787.52 1163.6) rotate(-89.63)"/><circle id="미세플라스틱-124" class="cls-3" cx="977.58" cy="187.14" r="1.39" transform="translate(784.16 1163.5) rotate(-89.63)"/><circle id="미세플라스틱-125" class="cls-3" cx="982.3" cy="184.13" r="1.39" transform="translate(791.85 1165.22) rotate(-89.63)"/><circle id="미세플라스틱-126" class="cls-3" cx="977.63" cy="179.94" r="1.39" transform="translate(791.41 1156.39) rotate(-89.63)"/><circle id="미세플라스틱-127" class="cls-3" cx="980.21" cy="178.9" r="1.39" transform="translate(795.02 1157.94) rotate(-89.63)"/><circle id="미세플라스틱-128" class="cls-3" cx="976.55" cy="183.7" r="1.39" transform="translate(786.57 1159.04) rotate(-89.63)"/><circle id="미세플라스틱-129" class="cls-3" cx="975.08" cy="186.53" r="1.39" transform="translate(782.28 1160.39) rotate(-89.63)"/><circle id="미세플라스틱-130" class="cls-3" cx="971.04" cy="186.5" r="1.39" transform="translate(778.3 1156.33) rotate(-89.63)"/><circle id="미세플라스틱-131" class="cls-3" cx="973.28" cy="187.64" r="1.39" transform="translate(779.39 1159.7) rotate(-89.63)"/><circle id="미세플라스틱-132" class="cls-3" cx="975.24" cy="181.11" r="1.39" transform="matrix(0.01, -1, 1, 0.01, 787.86, 1155.17)"/><circle id="미세플라스틱-133" class="cls-3" cx="973.04" cy="184.07" r="1.39" transform="translate(782.72 1155.91) rotate(-89.63)"/><circle id="미세플라스틱-134" class="cls-3" cx="969.01" cy="184.05" r="1.39" transform="translate(778.74 1151.85) rotate(-89.63)"/><circle id="미세플라스틱-135" class="cls-3" cx="967.5" cy="182.65" r="1.39" transform="translate(778.63 1148.95) rotate(-89.63)"/><circle id="미세플라스틱-136" class="cls-3" cx="972.8" cy="179.91" r="1.39" transform="translate(786.65 1151.53) rotate(-89.63)"/><circle id="미세플라스틱-137" class="cls-3" cx="971.08" cy="181.61" r="1.39" transform="translate(783.22 1151.5) rotate(-89.63)"/><circle id="미세플라스틱-138" class="cls-3" cx="967.18" cy="180.6" r="1.39" transform="translate(780.37 1146.6) rotate(-89.63)"/><circle id="미세플라스틱-139" class="cls-3" cx="969.77" cy="178.83" r="1.39" transform="translate(784.71 1147.43) rotate(-89.63)"/><circle id="미세플라스틱-140" class="cls-3" cx="966.94" cy="176.83" r="1.39" transform="translate(783.9 1142.61) rotate(-89.63)"/><circle id="미세플라스틱-141" class="cls-3" cx="967.86" cy="177.82" r="1.39" transform="translate(783.81 1144.52) rotate(-89.63)"/></g><g class="cls-40"><path class="cls-2" d="M750.38,195.6a10.77,10.77,0,0,1,7.71,5.13,18.09,18.09,0,0,0,1,1.64,19.4,19.4,0,0,0,4.44,5.42,6.43,6.43,0,0,0,3.26,1.29,15.3,15.3,0,0,1,1.63.25,29.33,29.33,0,0,1,5.07,1.61,20.32,20.32,0,0,1,4.52,2.57,9.21,9.21,0,0,0,1.57.92,35.26,35.26,0,0,0,5.55,2.15c1.51.49,2.66.74,2.84.8-2.11-.74-3.7-7.34-1.31-11.92a19.37,19.37,0,0,0,1.8-7.56,7,7,0,0,1,3.49,2.51,4.78,4.78,0,0,0,4.95,2.27,8.82,8.82,0,0,1-2.86-6.43c-.28-4.48,6.88-7.34,6.88-7.34s-6-.52-10.35,1.63a5.56,5.56,0,0,1-2.79.7,11.06,11.06,0,0,0-1-2.42c-.47-.79-1.07-1.58-1.67-2.49-2.28-3.47-4.55-7.84-1.56-12.36.06-.06.06-.12.12-.18,3.3-4.7,27.21-6.36,27.21-6.36,3.16-1.43-4.83-.94-4.83-.94a139.12,139.12,0,0,0-23.81,4.45c-2.12.65-4.06,1.3-5.82,2-1.15.48-2.18.89-3.22,1.37-1.39.66-2.79,1.37-4.19,2.15a34,34,0,0,0-3.88,2.64,23.66,23.66,0,0,0-4.27,4.33,16,16,0,0,0-2,3.49c-2.76,6.16-7,5.1-8.45,6S750.38,195.6,750.38,195.6Z"/><path class="cls-2" d="M759.11,202.37a19.4,19.4,0,0,0,4.44,5.42,38.72,38.72,0,0,1,.43-9.92c.69-4.23,1.93-8.4,1.95-12.7a22.4,22.4,0,0,0-.74-6,23.66,23.66,0,0,0-4.27,4.33,30,30,0,0,1-.42,9.31C760.06,196,759.37,199.17,759.11,202.37Z"/><path class="cls-2" d="M768.44,209.39a29.33,29.33,0,0,1,5.07,1.61,44.63,44.63,0,0,1-.15-4.9,74.87,74.87,0,0,1,.72-8.17,77.32,77.32,0,0,0,1-9.07,51.28,51.28,0,0,0-1.79-14.53c-1.39.66-2.79,1.37-4.18,2.15a33.23,33.23,0,0,1,.76,4.12,71.25,71.25,0,0,1-.39,12.89C768.93,198.81,768.23,204.13,768.44,209.39Z"/><path class="cls-2" d="M778.71,192.94c-.35,7.26-1.49,14.75.89,21.61a34.31,34.31,0,0,0,5.55,2.15l-.17-.91a62.09,62.09,0,0,1-1.06-13.8c.21-5.2,1-10.34,1.19-15.54-2.28-3.47-4.55-7.84-1.56-12.36a24.21,24.21,0,0,0-1.25-3c-2.12.65-4.06,1.31-5.82,2A56.82,56.82,0,0,1,778.71,192.94Z"/><path class="cls-2" d="M758.39,201.64a19.4,19.4,0,0,0,4.44,5.42,39.18,39.18,0,0,1,.42-9.92c.7-4.23,1.93-8.4,2-12.7a22,22,0,0,0-.75-6,23.93,23.93,0,0,0-4.26,4.33,30.35,30.35,0,0,1-.42,9.31C759.27,195.3,758.65,198.44,758.39,201.64Z"/><path class="cls-2" d="M767.72,208.6a29.33,29.33,0,0,1,5.07,1.61,44.63,44.63,0,0,1-.15-4.9,74.87,74.87,0,0,1,.72-8.17,79.52,79.52,0,0,0,1-9.07,51.28,51.28,0,0,0-1.79-14.53c-1.39.66-2.79,1.37-4.19,2.15a29.63,29.63,0,0,1,.76,4.12,70.35,70.35,0,0,1-.38,12.89C768.21,198.08,767.51,203.4,767.72,208.6Z"/><path class="cls-2" d="M778,192.21c-.35,7.26-1.49,14.75.89,21.61a35.26,35.26,0,0,0,5.55,2.15l-.17-.91a61.5,61.5,0,0,1-1.06-13.8c.21-5.2,1-10.34,1.18-15.54-2.27-3.47-4.54-7.84-1.55-12.36a25.88,25.88,0,0,0-1.25-3c-2.12.65-4.06,1.31-5.82,2A57.3,57.3,0,0,1,778,192.21Z"/><circle class="cls-2" cx="762.34" cy="188.18" r="1.57" transform="translate(569.27 949.3) rotate(-89.63)"/><path class="cls-2" d="M773.14,184.56c.54-.3,1.39-.48,1.63.13a.71.71,0,0,1-.06.6,9.67,9.67,0,0,1-2.14,3.07,3.64,3.64,0,0,0-.93,3.51,9.53,9.53,0,0,0,.9,1.45,1.65,1.65,0,0,1,.11,1.58c-.25.42-.79.54-1.16.84a2.83,2.83,0,0,0-1,2.29c0,.85.17,1.76.23,2.6,0,.55-.19,1.21-.74,1.15a.85.85,0,0,1-.54-.37,12.34,12.34,0,0,1-2.9-9.76C767.18,188.69,770.59,185.93,773.14,184.56Z"/><path class="cls-2" d="M774.29,184.56c.54-.3,1.39-.47,1.63.13a.73.73,0,0,1-.06.61,9.83,9.83,0,0,1-2.14,3.07,3.63,3.63,0,0,0-.93,3.5,9.14,9.14,0,0,0,.9,1.46,1.51,1.51,0,0,1,.11,1.58c-.25.42-.79.54-1.16.84a2.76,2.76,0,0,0-1,2.29c0,.85.23,1.75.29,2.6,0,.55-.19,1.21-.74,1.15a.93.93,0,0,1-.54-.37,12.35,12.35,0,0,1-2.9-9.76C768.33,188.7,771.74,185.94,774.29,184.56Z"/><ellipse class="cls-2" cx="761.74" cy="188.05" rx="1.69" ry="1.21" transform="translate(568.79 948.57) rotate(-89.63)"/><g id="미세_플라스틱_그룹" data-name="미세 플라스틱 그룹"><circle id="미세플라스틱-2" class="cls-2" cx="771.7" cy="191.08" r="1.09"/><circle id="미세플라스틱-3" class="cls-2" cx="773.05" cy="189.03" r="1.09"/><circle id="미세플라스틱-4" class="cls-2" cx="770.94" cy="187.02" r="1.09"/><circle id="미세플라스틱-5" class="cls-2" cx="772.22" cy="186.18" r="1.09"/><circle id="미세플라스틱-6" class="cls-2" cx="774.12" cy="191.7" r="1.09"/><circle id="미세플라스틱-7" class="cls-2" cx="769.9" cy="189.74" r="1.09"/><circle id="미세플라스틱-8" class="cls-2" cx="768.82" cy="188.16" r="1.09"/><circle id="미세플라스틱-9" class="cls-2" cx="775.58" cy="189.77" r="1.09"/><circle id="미세플라스틱-10" class="cls-2" cx="773.85" cy="187.04" r="1.09"/><circle id="미세플라스틱-11" class="cls-2" cx="775.37" cy="186.2" r="1.09"/><circle id="미세플라스틱-12" class="cls-2" cx="777.27" cy="191.24" r="1.09"/><circle id="미세플라스틱-13" class="cls-2" cx="778.37" cy="189.07" r="1.09"/><circle id="미세플라스틱-14" class="cls-2" cx="780.48" cy="191.14" r="1.09"/><circle id="미세플라스틱-15" class="cls-2" cx="776.69" cy="187.78" r="1.09"/><circle id="미세플라스틱-16" class="cls-2" cx="778.76" cy="195.36" r="1.09"/><circle id="미세플라스틱-17" class="cls-2" cx="780.46" cy="193.92" r="1.09"/><path id="미세플라스틱-18" class="cls-2" d="M778,197.05a1.09,1.09,0,1,1-1.1,1.08A1.09,1.09,0,0,1,778,197.05Z"/><circle id="미세플라스틱-19" class="cls-2" cx="776.61" cy="199.46" r="1.09"/><circle id="미세플라스틱-20" class="cls-2" cx="780.44" cy="197.07" r="1.09"/><circle id="미세플라스틱-21" class="cls-2" cx="776.65" cy="193.65" r="1.09"/><circle id="미세플라스틱-22" class="cls-2" cx="778.77" cy="192.82" r="1.09"/><circle id="미세플라스틱-23" class="cls-2" cx="775.84" cy="196.67" r="1.09"/><circle id="미세플라스틱-24" class="cls-2" cx="774.62" cy="198.97" r="1.09"/><circle id="미세플라스틱-25" class="cls-2" cx="771.41" cy="198.94" r="1.09"/><circle id="미세플라스틱-26" class="cls-2" cx="773.16" cy="199.86" r="1.09"/><circle id="미세플라스틱-27" class="cls-2" cx="774.71" cy="194.67" r="1.09"/><circle id="미세플라스틱-28" class="cls-2" cx="773" cy="197.02" r="1.09"/><circle id="미세플라스틱-29" class="cls-2" cx="769.79" cy="197" r="1.09"/><circle id="미세플라스틱-30" class="cls-2" cx="768.53" cy="195.84" r="1.09"/><circle id="미세플라스틱-31" class="cls-2" cx="772.78" cy="193.63" r="1.09"/><circle id="미세플라스틱-32" class="cls-2" cx="771.44" cy="195.01" r="1.09"/><circle id="미세플라스틱-33" class="cls-2" cx="768.3" cy="194.21" r="1.09"/><circle id="미세플라스틱-34" class="cls-2" cx="770.36" cy="192.77" r="1.09"/><circle id="미세플라스틱-35" class="cls-2" cx="768.07" cy="191.18" r="1.09"/><circle id="미세플라스틱-36" class="cls-2" cx="768.79" cy="191.97" r="1.09"/></g></g><g id="미세_플라스틱_그룹-5-2" data-name="미세 플라스틱 그룹-5"><circle id="미세플라스틱-142-2" data-name="미세플라스틱-142" class="cls-3" cx="770.96" cy="188.79" r="1.39" transform="translate(577.22 958.52) rotate(-89.63)"/><circle id="미세플라스틱-143-2" data-name="미세플라스틱-143" class="cls-3" cx="772.56" cy="186.22" r="1.39" transform="translate(581.38 957.57) rotate(-89.63)"/><circle id="미세플라스틱-144-2" data-name="미세플라스틱-144" class="cls-3" cx="769.94" cy="183.62" r="1.39" transform="translate(581.36 952.36) rotate(-89.63)"/><circle id="미세플라스틱-145-2" data-name="미세플라스틱-145" class="cls-3" cx="771.53" cy="182.64" r="1.39" transform="translate(583.93 952.98) rotate(-89.63)"/><circle id="미세플라스틱-146-2" data-name="미세플라스틱-146" class="cls-3" cx="773.93" cy="189.53" r="1.39" transform="matrix(0.01, -1, 1, 0.01, 579.42, 962.23)"/><circle id="미세플라스틱-147-2" data-name="미세플라스틱-147" class="cls-3" cx="768.66" cy="187.05" r="1.39" transform="translate(576.67 954.49) rotate(-89.63)"/><circle id="미세플라스틱-148-2" data-name="미세플라스틱-148" class="cls-3" cx="767.35" cy="185.13" r="1.39" transform="translate(577.29 951.27) rotate(-89.63)"/><circle id="미세플라스틱-149-2" data-name="미세플라스틱-149" class="cls-3" cx="775.8" cy="187.1" r="1.39" transform="translate(583.71 961.68) rotate(-89.63)"/><circle id="미세플라스틱-150-2" data-name="미세플라스틱-150" class="cls-3" cx="773.57" cy="183.65" r="1.39" transform="translate(584.95 956.02) rotate(-89.63)"/><circle id="미세플라스틱-151-2" data-name="미세플라스틱-151" class="cls-3" cx="775.5" cy="182.67" r="1.39" transform="translate(587.84 956.97) rotate(-89.63)"/><circle id="미세플라스틱-152-2" data-name="미세플라스틱-152" class="cls-3" cx="777.83" cy="188.96" r="1.39" transform="translate(583.87 965.57) rotate(-89.63)"/><circle id="미세플라스틱-153-2" data-name="미세플라스틱-153" class="cls-3" cx="779.24" cy="186.26" r="1.39" transform="translate(587.97 964.29) rotate(-89.63)"/><circle id="미세플라스틱-154-2" data-name="미세플라스틱-154" class="cls-3" cx="781.87" cy="188.86" r="1.39" transform="translate(587.99 969.49) rotate(-89.63)"/><circle id="미세플라스틱-155-2" data-name="미세플라스틱-155" class="cls-3" cx="777.14" cy="184.66" r="1.39" transform="translate(587.48 960.59) rotate(-89.63)"/><circle id="미세플라스틱-156-2" data-name="미세플라스틱-156" class="cls-3" cx="779.72" cy="194.13" r="1.39" transform="translate(580.58 972.58) rotate(-89.63)"/><circle id="미세플라스틱-157-2" data-name="미세플라스틱-157" class="cls-3" cx="781.85" cy="192.29" r="1.39" transform="translate(584.53 972.89) rotate(-89.63)"/><circle id="미세플라스틱-158-2" data-name="미세플라스틱-158" class="cls-3" cx="778.77" cy="197.56" r="1.39"/><circle id="미세플라스틱-159-2" data-name="미세플라스틱-159" class="cls-3" cx="777.04" cy="199.2" r="1.39"/><circle id="미세플라스틱-160-2" data-name="미세플라스틱-160" class="cls-3" cx="781.82" cy="196.19" r="1.39"/><circle id="미세플라스틱-161-2" data-name="미세플라스틱-161" class="cls-3" cx="777.09" cy="192" r="1.39" transform="translate(580.1 967.84) rotate(-89.63)"/><circle id="미세플라스틱-162-2" data-name="미세플라스틱-162" class="cls-3" cx="779.74" cy="190.89" r="1.39" transform="translate(583.84 969.39) rotate(-89.63)"/><circle id="미세플라스틱-163-2" data-name="미세플라스틱-163" class="cls-3" cx="776.07" cy="195.76" r="1.39" transform="translate(575.33 970.56) rotate(-89.63)"/><circle id="미세플라스틱-164-2" data-name="미세플라스틱-164" class="cls-3" cx="774.6" cy="198.59" r="1.39"/><circle id="미세플라스틱-165-2" data-name="미세플라스틱-165" class="cls-3" cx="770.57" cy="198.57" r="1.39"/><circle id="미세플라스틱-166-2" data-name="미세플라스틱-166" class="cls-3" cx="772.74" cy="199.7" r="1.39"/><circle id="미세플라스틱-167-2" data-name="미세플라스틱-167" class="cls-3" cx="774.7" cy="193.17" r="1.39" transform="translate(576.55 966.62) rotate(-89.63)"/><circle id="미세플라스틱-168-2" data-name="미세플라스틱-168" class="cls-3" cx="772.5" cy="196.13" r="1.39"/><circle id="미세플라스틱-169-2" data-name="미세플라스틱-169" class="cls-3" cx="768.47" cy="196.11" r="1.39"/><circle id="미세플라스틱-170-2" data-name="미세플라스틱-170" class="cls-3" cx="766.96" cy="194.71" r="1.39" transform="translate(567.32 960.4) rotate(-89.63)"/><circle id="미세플라스틱-171-2" data-name="미세플라스틱-171" class="cls-3" cx="772.26" cy="191.97" r="1.39" transform="translate(575.33 962.98) rotate(-89.63)"/><circle id="미세플라스틱-172-2" data-name="미세플라스틱-172" class="cls-3" cx="770.6" cy="193.68" r="1.39" transform="translate(571.97 963.01) rotate(-89.63)"/><circle id="미세플라스틱-173-2" data-name="미세플라스틱-173" class="cls-3" cx="766.64" cy="192.66" r="1.39" transform="translate(569.06 958.04) rotate(-89.63)"/><circle id="미세플라스틱-174-2" data-name="미세플라스틱-174" class="cls-3" cx="769.23" cy="190.82" r="1.39" transform="translate(573.46 958.81) rotate(-89.63)"/><circle id="미세플라스틱-175-2" data-name="미세플라스틱-175" class="cls-3" cx="766.4" cy="188.89" r="1.39" transform="translate(572.59 954.06) rotate(-89.63)"/><circle id="미세플라스틱-176-2" data-name="미세플라스틱-176" class="cls-3" cx="767.32" cy="189.89" r="1.39" transform="translate(572.5 955.97) rotate(-89.63)"/></g></g></g></svg>