<svg xmlns="http://www.w3.org/2000/svg" viewBox="0 0 1664.88 659.63"><defs><style>.cls-1{fill:none;}.cls-1,.cls-3{stroke:#000;stroke-miterlimit:10;}.cls-2{font-size:27px;font-family:ProximaNova-Regular, Proxima Nova;}.cls-3{stroke-width:0.5px;}.cls-4{letter-spacing:-0.01em;}.cls-5{letter-spacing:-0.01em;}.cls-6{letter-spacing:-0.03em;}</style></defs><title>gr1</title><g id="Layer_2" data-name="Layer 2"><g id="Layer_1-2" data-name="Layer 1"><line class="cls-1" x1="66.33" y1="599.47" x2="1664.33" y2="599.47"/><text class="cls-2" transform="translate(24.84 620.49)">0</text><text class="cls-2" transform="translate(10.37 470.99)">45</text><text class="cls-2" transform="translate(8.88 321.49)">90</text><text class="cls-2" transform="translate(1.24 171.99)">135</text><text class="cls-2" transform="translate(0 22.49)">180</text><line class="cls-1" x1="66.33" y1="599.47" x2="66.33" y2="1.47"/><line class="cls-1" x1="66.33" y1="599.47" x2="1664.33" y2="599.47"/><line class="cls-1" x1="66.33" y1="449.97" x2="1664.33" y2="449.97"/><line class="cls-1" x1="66.33" y1="300.47" x2="1664.33" y2="300.47"/><line class="cls-1" x1="66.33" y1="150.97" x2="1664.33" y2="150.97"/><line class="cls-1" x1="66.33" y1="1.47" x2="1664.33" y2="1.47"/><rect class="cls-3" x="82.31" y="15.09" width="82.18" height="584.38"/><rect class="cls-3" x="196.45" y="122.4" width="82.18" height="477.07"/><rect class="cls-3" x="310.6" y="270.24" width="82.18" height="329.23"/><rect class="cls-3" x="424.74" y="276.55" width="82.18" height="322.92"/><rect class="cls-3" x="538.88" y="276.55" width="82.18" height="322.92"/><rect class="cls-3" x="653.03" y="334.02" width="82.18" height="265.45"/><rect class="cls-3" x="767.17" y="365.92" width="82.18" height="233.55"/><rect class="cls-3" x="881.31" y="368.57" width="82.18" height="230.89"/><rect class="cls-3" x="995.45" y="371.23" width="82.18" height="228.24"/><rect class="cls-3" x="1109.6" y="428.71" width="82.18" height="170.76"/><rect class="cls-3" x="1223.74" y="433.36" width="82.18" height="166.11"/><rect class="cls-3" x="1337.88" y="456.94" width="82.18" height="142.52"/><rect class="cls-3" x="1452.03" y="492.49" width="82.18" height="106.98"/><rect class="cls-3" x="1566.17" y="530.7" width="82.18" height="68.77"/><text class="cls-2" transform="translate(1549.64 650.86)">Indonesia</text><text class="cls-2" transform="translate(1460.61 650.86)">Brazil</text><text class="cls-2" transform="translate(1340.62 650.86)">Russia</text><text class="cls-2" transform="translate(1213.67 650.86)"><tspan class="cls-4">A</tspan><tspan x="17.44" y="0">ustralia</tspan></text><text class="cls-2" transform="translate(1133.13 650.86)">UK</text><text class="cls-2" transform="translate(995.83 650.86)">France</text><text class="cls-2" transform="translate(888.24 650.86)">China</text><text class="cls-2" transform="translate(772.43 650.86)">Japan</text><text class="cls-2" transform="translate(648.45 650.86)">Canada</text><text class="cls-2" transform="translate(526.22 650.86)">Germany</text><text class="cls-2" transform="translate(441.87 650.86)">Italy</text><text class="cls-2" transform="translate(325.58 650.86)">U<tspan class="cls-5" x="18.9" y="0">S</tspan><tspan x="34.45" y="0">A</tspan></text><text class="cls-2" transform="translate(191.98 650.86)">S.<tspan class="cls-6" x="22.03" y="0">K</tspan><tspan x="37.34" y="0">orea</tspan></text><text class="cls-2" transform="translate(75.14 650.86)">Belgium</text></g></g></svg>