<?xml version="1.0" encoding="utf-8"?>
<!-- Generator: Adobe Illustrator 24.0.1, SVG Export Plug-In . SVG Version: 6.00 Build 0)  -->
<svg version="1.1" id="Layer_1" xmlns="http://www.w3.org/2000/svg" xmlns:xlink="http://www.w3.org/1999/xlink" x="0px" y="0px"
	 viewBox="0 0 787.4 557.4" style="enable-background:new 0 0 787.4 557.4;" xml:space="preserve">
<style type="text/css">
	.st0{opacity:5.000000e-02;}
	.st1{opacity:0.5;fill:#00CBE2;}
	.st2{fill:none;stroke:#00CBE2;stroke-width:0.1619;stroke-miterlimit:10;}
	.st3{fill:#00CBE2;}
	.st4{fill:none;}
	.st5{font-family:'ProximaNova-Medium';}
	.st6{font-size:12.0821px;}
	.st7{opacity:0.8;}
	.st8{fill:none;stroke:#FF5400;stroke-width:0.6473;stroke-miterlimit:0;}
	.st9{opacity:0.85;fill:#53AC8F;}
	.st10{opacity:0.8;fill:#478CC8;}
	.st11{fill:none;stroke:#000000;stroke-width:0.863;stroke-miterlimit:10;}
	.st12{fill:#53AC8F;}
	.st13{fill:#F1A55D;}
	.st14{fill:#478CC8;}
	.st15{opacity:0.8;fill:#F1A55D;}
	.st16{fill:none;stroke:#000000;stroke-width:0.25;stroke-miterlimit:10;}
	.st17{fill:#FF5400;}
	.st18{font-family:'ProximaNova-Bold';}
	.st19{font-size:12px;}
	.st20{font-size:9px;}
	.st21{fill:#4D4D4D;}
	.st22{font-family:'ProximaNova-Regular';}
	.st23{enable-background:new    ;}
	.st24{fill:#051027;}
	.st25{font-family:'ProximaNova-Light';}
	.st26{font-size:14px;}
	.st27{font-size:10px;}
</style>
<title>riri</title>
<rect x="156.9" y="717.2" class="st0" width="577.2" height="39.2"/>
<g>
	<path class="st1" d="M442.2,151.8c-1.7-0.3-3.6-0.5-5.4-0.8c-0.1,0-0.2,0.3-0.3,0.3c0.2,0.4,0.5,0.8,0.7,1.2
		c-0.5,0.5-0.8,0.9-1.2,1.3c-0.4-0.4-0.7-0.7-1.1-1c0-0.9,0-1.9,0-2.5c-1.2-2-3-2.8-4.8-3.7c-2.6-1.3-5.3-2.6-7.7-4.2
		c-1.6-1.1-3.3-1.6-5.3-1.8c-0.4-0.4-0.9-0.9-1.4-1.4c-2.3,0.4-4.7-0.5-6.9,0.5c-1.7-0.4-3.2-1.6-5.3-1c-0.3,0.6-0.5,1.3-0.9,2.1
		c0.9,1,2.2,1.7,1.4,3.3c-0.7,0-1.5,0-2.1,0c-1.2-1-2.3-1.9-3.7-3c1.1-0.3,1.8-0.4,2.6-0.6c0-0.3,0-0.7-0.1-1.1c-1.1,0-2.1,0-3.1,0
		c-0.6,0.6-1.3,1.3-2.1,2.1c-1.6-0.3-3.3-0.7-5.1-0.8c-2-0.1-4,0-5.9,0c-0.5,0.5-1,0.9-1.6,1.5c-0.1-0.8-0.2-1.4-0.3-2.1
		c-0.9-0.1-1.8-0.2-2.5-0.2c0.2-0.9,0.5-1.6,0.7-2.4c-1.4-1-2.5-2.6-3.9-2.7c-2.9-0.4-5.9,0-8.9,0.1c-1.6,0.1-3.1,0.3-4.4,0.4
		c-0.6-1-1-1.6-1.4-2.2c-0.8,0-1.5,0-2.5,0c-0.3-0.4-0.8-1-1.2-1.6c-0.8,0-1.6,0-2.4,0c0-0.1,0-0.3,0-0.4c0.9-0.1,1.9-0.2,3.3-0.3
		c-1.3-0.8-2.1-1.3-2.8-1.8c-1.8,0-3.5,0-5.2,0c-0.3,1.5-1.2,2.2-2.5,3c-0.2-0.6-0.4-0.9-0.5-1.3c0.6-0.3,1-0.5,1.4-0.7
		c-0.7-0.5-1.3-0.9-2-1.4c1-0.2,1.7,0,2.5,0.2c0.1,0,0.2-0.2,0.3-0.3c-0.3-0.3-0.7-0.6-1-0.9c-3.5-0.5-7.1-1-10.6-1.5
		c-0.4,0.7-0.9,1.4-1.3,2.1c-0.3-0.3-0.5-0.5-0.7-0.7c-0.7,0.4-1.3,0.8-2.5,1.4c1,0.4,1.4,0.6,1.6,0.7c0.1,0.9,0.2,1.7,0.3,2.8
		c-1.4-0.2-2.7-1.6-4-0.4c0.2,0.2,0.4,0.5,1,1.2c-1.2-0.3-1.9-0.5-2.6-0.7c-1.5-0.2-3-1.6-4.4-0.8c-1.3,0.8-2.4,0.3-3.3,0.5
		c-0.8-0.6-1.4-1.1-2.2-1.6c-1.1,1.6-2.1,3-3.2,4.7c-1-0.4-1.9-0.9-2.9-1.3c-1.6-0.7-0.9-2.8-2.2-3.6c-0.2-0.1-0.3-0.3-0.5-0.5
		c0,0,0.1-0.2,0.2-0.2c0.6-0.1,1.3-0.2,1.9-0.4c-0.5-1.5-0.9-2.8-1.5-4.1c-0.7-1.5-2.2-2.1-3.6-2.7c-0.4,0.3-0.8,0.5-0.9,0.6
		c-1.2-0.3-2.3-0.5-3.7-0.9c-0.3-0.3-0.9-0.8-1.4-1.3c-0.9,0.5-1.6,0.8-2.4,1.2c0,1,0,2,0,3.1c-2.7-0.3-5.3,0.5-7.8-0.8
		c-0.5,0.3-0.9,0.6-1.6,1c-0.5-1.2-0.9-2.2-1.3-2.9c-1.9-0.3-3.6-0.8-5.4-0.8c-1.8,0-3.5,0.7-5.2,1c-0.4-0.6-0.8-1.2-1.3-1.9
		c-0.8,1.2-1.9,0.7-3.5,0.8c-0.1-0.3-0.5-0.9-0.7-1.4c-2,0.1-2,0.1-3.1,1.1c0.2,0.2,0.4,0.5,0.9,1.1c-2.2-0.9-2.8,1.4-4.6,1.4
		c-1.5,0-3,0.9-4.5,1.3c-0.1-0.1-0.2-0.3-0.2-0.4c1.3-1,2.7-2.1,4.1-3.2c0.7,0,1.4,0,1.7,0c1.4-1.1,2.8-1.8,3.7-2.8
		c1.1-1.2,2.8-0.8,3.9-2c0.9-1,2.3-1.5,3.3-2.2c0.3-1.1-0.4-2.2,0.8-2.9c-0.9-0.3-0.3-1.7-1.6-1.9c-0.6-0.1-1-1.3-1.3-1.8
		c-1.7-0.3-3.1-0.7-4.5-0.9c-1.6-0.1-3.2,0-4.8,0c-0.9,0.9-1.7,2.2-3.2,1c0.2-0.8,0.5-1.6,0.7-2.4c-1.6-0.2-3,0.2-4.6-0.5
		c0.8-0.7,1.4-1.2,2.2-1.8c-2.3-1-4.3-1.5-6.9-1c-1.1,1-2.6,2.3-4.1,3.6c0,0.8,0,1.6,0,2.4c-1.5,0.1-2.8,0.1-4.3,0.2
		c0.4,0.5,0.6,0.7,1.3,1.4c-1.1-0.3-1.6-0.5-2.3-0.7c-0.4,0.3-0.8,0.8-1.1,1.1c-1,0-1.8,0-2.7,0c0.4-0.4,0.6-0.7,1-1.1
		c-2.6-0.3-4.7,1.2-7,1.4c-0.2,0.5-0.3,0.9-0.4,1.2c-3.5,0.2-6.7,0.9-9.6,3c-0.5,0-1.2,0-1.7,0c-0.6,1.2-1.1,2.2-1.5,3.2
		c0.2,0.2,0.4,0.4,0.6,0.5c-0.2,0.2-0.4,0.5-0.7,0.8c0.5,0.2,0.9,0.5,1.4,0.7c0,0.3-0.1,0.5-0.1,0.9c-1.6,0.3-3.2,0.7-4.8,0.8
		c-1.3,0.1-2.6-0.1-3.8,0.1c-1.2,0.1-2.4,0.4-3.5,0.7c-0.7,0.2-1.2,0.7-1.9,1.1c0.4,0.7,0.7,1.2,0.8,1.7c0.1,0.6,0,1.3,0,2.1
		c0.9,0.3,1.6,0.6,2.8,1c0.3,0.4,0.9,1.1,1.5,1.8c-1.3,1.5-2.5,0.4-3.1-0.2c-2-1.9-4.7-1.7-7-2.7c-0.5-0.2-1.4,0.2-2.5,0.3
		c1.1,0.9,1.8,1.5,2.6,2.1c-0.1,0.1-0.2,0.2-0.3,0.3c-0.9-0.3-1.8-0.6-2.8-0.9c-0.5,0.6-0.9,1.1-1.3,1.7c4.1,2.2,4.1,2.2,4.9,3.6
		c-1.1-0.6-1.9-1.2-2.8-1.4c-1.1-0.3-2.2-0.3-3.1-0.4c-0.3-0.9-0.5-1.7-0.8-2.4c0.4-0.7,0.8-1.6,1.2-2.4c-0.4-0.7-0.8-1.4-1.1-2
		c-0.2,0-0.5,0-0.9,0.1c0,1.1,0,2.2,0,3.2c-1.3,1.1-3.1,1.4-3.5,3c0.8,1.3,1.5,2.5,2.3,3.7c-0.8,2-2.2,3.7-1.5,5.8
		c0.3,0.3,0.6,0.7,0.9,1c1.8,0.2,3.4-1.6,5.3-0.3c-1.5,0.4-2.9,0.9-4.5,1.3c0.2,1.4,0.4,2.7,0.7,4.3c-1.5,2.2-3.7,4.1-6.1,6
		c-0.9-0.3-1.7-0.6-2.3-0.8c-0.5,0.3-0.9,0.6-1,0.7c-1.2-0.4-2.1-0.7-3-1c0-0.3,0-0.5,0-0.7c1.5,0.2,3,0.3,4.4,0.5
		c1.5-1.7,3-3.3,4.5-5c0.2-0.7,0.3-1.6,0.6-2.7c-0.6-0.5-1.2-1.2-1.9-1.8c0-2.1,0-4.2,0-6.1c0.3-0.7,0.6-1.2,0.9-1.7
		c-0.4-0.9-0.8-1.6-1.1-2.2c-0.5-0.2-0.9-0.4-1.4-0.6c0.5-1.3,2.1-1.9,1.6-3.4c1.3-1.2,0.8-2.2-0.3-3.1c-2.1-0.2-4.3,0.5-6.5-0.9
		c-0.8,1.7-1.3,3.6-2.4,5c-1.1,1.5-2.7,2.6-4.4,4.1c0.7,0.7,1.5,1.4,2.1,1.9c-0.4,1.1-0.8,2.2-1.3,3.6c0.9,0.4,1.8,0.7,2.8,1.1
		c0.3,0.7,0.7,1.6,1.1,2.3c0.5,0.2,0.8,0.3,1.1,0.4c-0.4,0.8-0.7,1.3-1,1.8c-0.5,0-1,0-1.5,0c-2.7-3.4-6.8-4.8-10.6-6.9
		c-1.7,0-3.5,0-5.2,0c-1.4-1-2.6-1.8-3.8-2.7c-0.4,0.5-0.7,0.9-1,1.2c0.7,2,2.4,1.3,3.7,1.6c0.5,1.3,1,2.5,1.4,3.6
		c-0.7,1.1-2.3,1.2-2.6,3c-0.6-1.4-1-2.3-1.4-3.2c-1.9-0.2-3.1,1.1-4.3,2.3c-2.6-2.1-3.9,0.2-5.7,1.3c-0.7-0.1-1.4-0.1-2.4-0.2
		c0.6-1.3,1.1-2.2,1.7-3.7c-1.1,0.5-1.7,0.7-2.3,1.1c-0.7,0.4-1.2,0.9-1.9,1.4c-2.3-0.3-4.4,0.2-6.1,2c-0.4,0.5-1.1,0.8-1.7,1
		c-0.7,0.3-1.4,0.5-2.1,0.7c0,0.5,0,1,0,1.5c-0.6,0.6-1.2,1.2-1.7,1.7c-0.7,0-1.4,0-1.4,0c-1.1-0.8-1.9-1.4-2.4-1.8
		c-0.3-2.4,1.5-2.3,3.1-2.7c-0.7-1.3-1.3-2.3-1.8-3.1c-1.8,0-3.3,0-4.9,0c0.6,0.7,1.1,1.3,1.5,1.8c-0.5,1.5-1,2.8-1.4,3.9
		c0.9,0.6,1.5,1.1,2.2,1.6c-0.5,0.9-0.9,1.7-1.4,2.6c-1.4-0.6-2.7-1.2-4-1.8c-1.4,2-4.5,1.8-5.4,4.6c0.5,0.9,1,1.9,1.6,2.9
		c-3.3,0.9-5.5-1.9-8.4-1.9c0,0.7,0,1.3,0,2c0.7,0.5,1.4,1,2.1,1.5c0.3,0.3,0.5,0.7,0.8,1.3c-1.4,0-2.4,0-3.5,0
		c-0.1-0.3-0.1-0.7-0.2-1.1c-0.6-0.2-1.4-0.4-2.1-0.7c-0.9-0.4-0.3-1.6-0.8-2.1c-1.3-1.6-0.1-3.4-0.7-5c-3.4-1.8-3.4-1.8-4.7-4.3
		c2.4,2.3,5.2,2.4,7.5,3.4c2.6,1.1,5.4,0.7,8,0.7c1.2-0.8,2.3-1.6,3.2-2.3c0-1.2,0-2.2,0-2.7c-0.7-1.1-1.2-1.9-1.3-2.2
		c-1.2-0.7-2-0.9-2.6-1.5c-0.8-0.8-1.8-0.3-2.7-1.1c-1.8-1.5-3.7-3.3-6.5-2.8c-1.7-1.4-3.8-0.2-5.7-1c0.7-0.3,1.1-0.5,1.5-0.7
		c-1-2.1-2.4-0.7-3.6-0.3c-0.5-0.4-0.8-0.6-1-0.8c-0.9,0-1.9,1.8-2.3-0.1c1-0.8,1.9-1.6,2.8-2.2c-0.9-0.7-1.7-1.2-2.6-1.9
		c-0.5,0-1.1-0.1-1.6,0c-0.4,0.1-0.8,0.4-1.4,0.7c0-0.9,0-1.5,0-2.1c-0.6,0-1.1-0.1-1.5,0c-1.4,0.4-0.9,2.1-1.9,3.2
		c-0.5-0.8-0.8-1.3-1.2-2.1c-0.4,0.7-0.7,1.2-1.1,1.8c-1.4-1.6,1.2-1.7,0.6-2.9c-1.1,0.3-2.1,0.7-3.1,1c-0.2,0.4-0.3,0.8-0.5,1.3
		c-1.1-0.4-2-0.7-3-1c-0.7,0.4-1.5,0.7-2.1,1.1c0.2,0.5,0.4,1,0.8,1.8c-0.9,0-1.7-0.2-1.9,0c-0.6,0.7-1,0.4-1.6,0
		c-0.1,0.7-0.2,1.3-0.3,2.1c-1-0.8-1.9-1.6-3.1-2.5c-0.2,1-0.3,1.7-0.4,2.3c-1.6,0.9-3.7,0.8-4.7,2.8c0.7,0.1,1.3,0.2,2.2,0.3
		c-0.8,0.5-1.4,0.8-1.9,1.1c-0.6-0.3-1.2-0.6-1.8-0.9c0.2-0.3,0.4-0.5,0.8-0.9c-0.5-0.1-1-0.3-1.1-0.1c-0.9,1-1.7,2.1-2.8,3.7
		c1.6-0.3,2.7-0.5,3.9-0.7c0,0.6-0.1,1.2-0.1,2c-0.5-0.4-0.7-0.7-1.1-1c-0.8,1.1-1.6,2.2-2.3,3.3c-1,1.7-1.8,3.6-3.1,4.9
		c-0.7,0.7-1.1,1-1.2,2c-0.1,0.8-0.6,1.6-0.7,1.8c-1,0.9-1.6,1.4-2.1,2c0.4,0.6,0.6,0.9,0.8,1.3c-2.6,0.1-3.6,2-4.8,3.9
		c-0.5-0.4-0.8-0.6-1.4-1.1c0.3,2.6-2.6,2.4-3.2,4.3c-0.4,0-0.9,0-1.2,0c-1.1,0.9-2.2,1.7-3.4,2.8c0.1,0.4,0.3,1.2,0.6,2
		c-1,1.3-0.4,2.8-0.5,4.3c0.8,0.1,1.4,0.1,2.1,0.2c-0.1,0.5-0.1,0.9-0.2,1.5c-0.7-0.3-1.2-0.5-2-0.8c0.1,1.1,0.2,1.9,0.3,2.9
		c0.8-0.3,1.3-0.5,2.3-0.9c-0.5,1.1-0.8,1.6-1.2,2.4c0.7,0.5,1.4,1.1,2.2,1.7c0.6,0.2,1.4,0.5,2.3,0.8c1-0.7,2.1-1.5,3.1-2.4
		c1-0.8,2-1.7,3.1-2.7c0.3,0.2,0.7,0.4,0.8,0.7c1,4.7,3.9,8.7,4.9,13.3c0.6,0,1.2,0,1.7,0c0.2-1.2,0.1-2.4,1.7-2.7
		c0.4,0.2,0.9,0.5,1.3,0.7c1-0.9,1.9-1.7,2.9-2.6c-0.1-0.5-0.2-1.1-0.4-1.6c-0.9-2-0.5-3.9,0.7-5.6c2.4-0.4,2.3-3.1,4.2-4.2
		c-1.4-1.3-2.6-2.3-3.8-3.4c-0.2-0.6-0.5-1.4-0.8-2.2c0.5-1.2,1.1-2.3,2-4.2c0.8-0.6,1.6-2.3,3.2-3.4c1.6-1.1,3.1-2.5,4.5-3.5
		c-1.3-2.9,0.5-4.2,1.8-5.5c1.6,0,3,0,4.3,0c0.8,1,2.2,1.6,1.5,3.3c-0.3,0.1-0.6,0.1-1,0.2c-0.4,0.8-0.8,1.7-1.1,2.4
		c-1.4,0.9-3,1.5-3.8,2.7c-0.9,1.3-2.6,1.6-3.1,3.4c0.4,1.5,0.9,3.2,1.4,4.9c-0.4,0.7-0.8,1.6-1.4,2.6c2.2,1,4.2,1.9,5.8,2.6
		c3.7-0.9,6.9-1.7,10.2-2.5c0.6,0.7,1.1,1.3,1.8,2.1c-1.5,1-2.9,1.8-4.2,2.6c-0.1-0.2-0.1-0.5-0.2-0.7c-2.9,0.4-6.1-1-8.5,1.9
		c0.7,1.5,0.9,3.1,2.5,3.2c-0.1,0.9-0.2,1.7-0.4,2.4c-0.1,0.3-0.2,0.6-0.3,0.9c-0.8,0-1.5,0-2.1,0c-0.6-0.8-1.2-1.5-2-2.6
		c-1.1,1.5-1.9,2.6-2.3,3.1c-1,3,0.6,5.7-1.3,7.8c-0.6-0.3-1.1-0.5-1.6-0.7c-0.2,0.6-0.4,1-0.6,1.4c-1.4,0.6-2.1-0.5-2.8-1.2
		c-0.6,0.2-1,0.4-1.5,0.6c-0.5,0.1-1.3,0-1.6,0.3c-1.3,1.5-3.2,1.6-4.8,2.3c-0.8-0.6-1.9-0.8-2-2c-1.7,0.5-3.4,0.9-4.7,2.4
		c-0.4-0.7-0.6-1.2-0.8-1.7c-0.6,0-1.1-0.1-1.8-0.1c0.1-0.8,0.1-1.4,0.1-1.9c0.6-0.1,0.9-0.2,1.2-0.2c0-0.6,0-1.2,0-1.7
		c-0.5-0.2-0.9-0.3-1.7-0.6c1-0.7,1.8-1.3,3.2-2.3c-1.1-0.5-1.7-0.8-2.4-1.1c-1.1-1.3,2-2,0.4-3.2c-1.6,0.4-2.1,2.9-4.4,2.2
		c-0.3,1.7-0.5,3.2-0.7,4.4c2,2,2.3,4.2,1.9,6.2c-0.2,0.5-0.5,1.1-0.7,1.6c-0.8-0.5-1.3-0.7-1.9-1.1c-0.6,0.5-1.1,1-1.1,1
		c-1.7,0.3-2.7,0.6-3.6,0.7c-0.1,0.8-0.1,1.3-0.1,1.9c-0.7-0.4-1.1-0.6-1.6-0.9c-0.7,2.7-1.2,3.4-3.6,5.8c-0.7,0-1.4,0-2.2,0
		c-0.5,1.3-0.9,2.5-1.5,4.1c-1.7-0.5-2.7,0.4-3.1,2c-1-0.6-2-1.3-2.9-1.9c-0.3,0.3-0.6,0.6-1,0.9c1.1,0.9,0.7,2,0.5,3.3
		c-0.9-0.3-1.6-0.5-2.7-0.8c-1.1,0-2.6,0-4.1,0c0,0.7,0,1.2,0,2c0.9,0.5,1.9,0.9,2.9,1.4c1.1,0.5,2.2,0.9,3.2,1.3
		c0.1,0.8,0.2,1.4,0.2,1.8c0.7,0.5,1.4,0.9,2.1,1.3c-0.3,2.5-0.7,4.9-1,7.3c-0.3,0.3-0.5,0.5-0.8,0.8c-2.8,0-5.7,0-8.6,0
		c-0.8,0-1.9,0.3-2.4-0.1c-2.3-1.6-3.7-0.1-5.3,0.9c1.4,2.6,1.9,5.1,0.6,8c-0.9,1.9-1.3,4,0.3,5.9c0.9,1,0.2,2.2-0.2,3.4
		c1.7,0,3.5,0,4.8,0c0.9,1.1,1.6,2,2.3,2.8c0.5-0.5,0.9-0.9,1.4-1.4c2.1-0.3,4.3-0.7,6.4-1c1-0.8,2-1.5,2.8-2.1
		c0.6-1.1,1.1-2.1,1.8-3.4c0-0.7,0-1.8,0-3.2c1-1.2,2-2.4,3.1-3.7c0.1,0.1,0.2,0.3,0.3,0.4c1.2-0.7,2.4-1.4,3.6-2.1
		c0-1.2,0-2.4,0-3.5c0.4-0.4,0.7-0.7,1.1-1.1c0.9,0.1,1.9,0.2,2.9,0.3c1.1,0.2,2.2,0.4,2.7,0.5c2.4-1.5,4.4-2.6,6.3-3.8
		c2.5,1.4,2.8,3.9,3.6,5.1c1.1,0.9,1.7,1.4,2.3,1.9c1.5,1.2,2.9,2.6,4.4,3.7c3.9,2.7,4.3,3.4,3.2,7.6c0.3,0.1,0.6,0.1,0.8,0.1
		c0.7-1.2,1.3-2.4,1.9-3.6c0,0.1-0.4-2.7-0.4-2.8c1.1,0.3,2.1,0.6,3.2,0.9c-0.1-0.6,0-1.1-0.2-1.2c-2.4-1.7-4.9-3.3-7.6-5.1
		c-0.4-0.8-1-1.9-1.6-3c0.2-0.2,0.4-0.3,0.6-0.5c-1.2-1.2-2.4-2.4-3.7-3.7c0.2-0.7,0.5-1.6,0.9-2.6c2-0.2,3,1.6,4.5,2.3
		c0.1,0.7,0.1,1.2,0.1,1.8c1.4,0.9,2.1,2.4,3.8,3c2.2,0.9,4.4,2.3,5.8,4.4c-1.6,3.1,0.3,5.2,2.3,7c0,0.7,0.1,1.1,0.1,1.6
		c0.9,0.1,1.8,0.3,2.6,0.4c0,0.1,0,0.2,0,0.3c-0.6,0.1-1.3,0.2-2.1,0.3c0.5,1.8,1.4,3.2,2.8,4c0.5,0,0.8,0,1.3,0
		c0.3-0.8,0.5-1.7,1-2.3c0.6-0.7,1.4-1.2,2.3-2c-0.7-0.5-1.3-1-1.8-1.4c-0.5,0.4-0.7,0.6-1,0.8c-0.1-0.1-0.2-0.2-0.3-0.3
		c0.2-0.5,0.4-0.9,0.7-1.5c-0.5-0.7-1.2-1.6-1.8-2.5c-0.2-0.3-0.1-0.8-0.1-1.2c1.2,0.3,2.2,0.6,3.3,0.8c0.1-1,0.2-1.6,0.3-2.3
		c0.5,0.4,0.7,0.6,1,0.8c0.9-0.3,1.7-0.6,1.9-0.7c1.1,0.7,1.8,1.2,2.5,1.7c0.2,0.3,0.4,0.6,0.5,0.9c-0.7,0.2-1.4,0.3-2.4,0.6
		c1,0.3,1.4,0.5,1.6,0.5c0.3,1.8,0.5,3.5,0.7,5.2c-0.1,0.1-0.3,0.3-0.4,0.4c1.1,0.9,2.1,1.7,3.2,2.5c0.5,0.1,1.1,0.1,1.5,0.2
		c0.1,0.6,0.2,0.9,0.2,1.2c0.9,0,1.7,0,2.4,0c0.5-0.5,0.9-0.9,1.2-1.2c0.9,0,1.7,0,2.5,0c0.4,0.5,0.7,0.9,0.9,1.2
		c2.3,0.5,3.9-0.3,5.5-1.4c0.4,0.3,0.7,0.6,0.8,0.7c0.6-0.2,1.1-0.4,2-0.8c-0.4,0.8-0.8,1.1-0.8,1.5c0.1,3.2,0,6.3-2.1,8.9
		c-0.2,0.3,0.1,0.9,0,1.4c-0.4,1.6-1.2,2.8-2.5,3.7c-1,0-1.9,0-2.5,0c-1.1-0.6-2-1-2.9-1.5c-1.5,0.9-3.4,0.9-4.4,2.4
		c-1.5-0.7-2.6-1.5-4.2-1.6c-1.6-0.1-3.3-0.6-4.6-1.4c-1-0.6-1.9-0.5-3.3-0.7c-0.4-0.5-1.1-1.3-1.8-2.2c-1.3,0.3-2.6,0.6-3.9,1
		c0.1,0.1,0.2,0.1,0.3,0.2c-0.8,0.5-1.6,1-2.3,1.5c0.4,1.3,0.7,2.3,1,3.3c-1.8,1.5-1.8,1.5-3.2,0.6c-1.5-1-3-2.2-5-2.2
		c-1.9,0-1.4-1.7-1.9-2.6c-1.8-0.4-3.4-1.1-5.3-0.9c-0.7,0.1-1.6-0.6-2.3-1.1c-0.6-0.5-1-1.2-1.5-1.9c-0.1,0.1-0.2,0.3-0.3,0.4
		c-0.5-0.2-1.1-0.3-2.2-0.7c1.1-0.9,1.8-1.4,2.8-2.2c-0.1-1-0.4-2.4-0.6-4c0.1-0.2,0.4-0.6,0.6-1c-0.8-0.8-1.4-1.4-2.2-2.2
		c-0.7,0.2-1.5,0.7-2.3,0.8c-3.7,0.3-7.5,0.4-11.2,0.8c-2,0.2-4.2,0.2-5.8,1c-2.1,1.1-4.6,1.7-6.1,3.9c-2.1-0.3-4.2-0.6-6.5-1
		c-0.4-0.4-1-0.9-1.7-1.4c-1.6,1.3-2,3.1-2.7,4.6c-0.9,1.8-3,2.2-4.2,3c-1,1.6-1.8,2.9-2.8,4.6c0.2,0.9,0.5,2.3,0.8,3.6
		c-1.8,1.8-3.6,3.5-5,5c-1,0.3-1.9,0.4-2.1,0.8c-1.1,2.5-3.4,4.3-4.3,7c-0.2,0.7-0.3,1.6-0.8,2.1c-2,2.4-3,5.3-4,8
		c0.4,0.7,0.8,1.4,1.2,2.1c0.6,1.3-0.1,2.8,0.8,4.2c0.5,0.7,0.1,2,0.1,3c-2.1,1.9-0.8,4.8-1.9,6.5c0.2,1.8,2.3,3,0.5,4.8
		c0.8,0.9,1.7,1.9,2.8,3.2c0.2,1.1,1.2,2.2,2.4,3.3c1.2,1.2,2.2,2.4,2.5,4.2c0.2,1,0.9,2.1,1.7,2.7c2.1,1.8,4.4,3.3,6.7,4.9
		c0.7,0.5,1.5,0.9,2.2,1.4c1.1,0.8,2.1,0.8,3.4,0.3c4-1.4,4.9-1.3,9.4-0.4c0.7,0.1,1.5,0.2,2.1-0.1c2.4-1.3,4.7-2.6,7.2-4.1
		c1.4,0,3,0,4.7,0c1.1,0.8,2.1,1.6,3.2,2.4c-0.1,0.1-0.2,0.2-0.4,0.3c0.4,0.8,0.7,1.5,1.1,2.3c2-0.3,3.9,0.5,5.5-0.8
		c1.2,0.9,2.3,1.8,3.4,2.7c0,0.6,0,1.3,0,2c0,0.7,0,1.4,0,1.7c-0.5,1.1-0.9,1.8-1.1,2c0.2,1.3,0.3,2.2,0.5,3c-0.6,0.6-1,1.1-1.7,1.8
		c0.3,1.1,0.4,2.3,1,3.3c0.7,1.3,1.7,2.3,2.7,3.4c2.7,3.1,3.1,3.7,4.2,7.3c0.4,1.4,1.3,2.9,1.3,4.3c0,2.8,0.4,5.5,1.6,8.1
		c-1.2,2.1-2.4,4-3.6,6.1c0.1,1.6,0.1,3.4-1.4,4.8c0,1.4,0,2.8,0,4.2c1,2.5,2.6,4.7,3.6,7.2c1.1,2.8,1.8,5.5,2.2,8.6
		c0.3,2.9,0.6,5.9,1.4,8.7c2.9,3.8,3.8,8.6,6.2,12.3c-0.8,2-0.8,2,0.3,5.5c1,0.7,2,1.4,3,2.1c1.6-0.6,3.1-1.3,4.7-1.9
		c0-0.1-0.1-0.2-0.1-0.4c2.4,0,4.8,0,7.2,0c0.1-0.5,0.2-0.8,0.2-1c1.4-0.4,2.9-0.4,3.8-1.2c1.7-1.4,3.1-3.1,4.5-4.7
		c2.3-2.8,3.4-6.5,5.9-8.3c0.5-1.6,1-2.5,1.1-3.4c0-1.1-0.4-2.1-0.6-3.3c2.1-1.2,4.2-2.5,6.2-3.7c0.2-3.3-0.2-6.1-1.3-8.9
		c-0.6-1.6,0.3-3.3,1.8-4.4c0.5-0.4,1.5-0.6,1.6-1.1c0.3-2,2-2.5,3.3-3c2.7-1,4.4-2.9,5.8-5.3c0.2-4,0.2-7.9-0.6-11.9
		c0-0.2,0-0.5,0-0.7c0-0.1-0.1-0.2-0.2-0.3c-0.3-0.1-0.6-0.2-0.9-0.2c-0.3-1-0.7-2.1-0.9-3.1c-0.2-1.1,0-2.3,0-3.5
		c0-0.3,0.2-0.8,0-1c-1.6-1.7-0.4-3.5,0.1-5c0.9-2.9,2.2-5.7,4.7-7.8c1.6-1.3,3-2.7,4.1-4.6c0.8-1.4,2.1-2.6,3.4-3.4
		c2.4-1.3,4.2-3.3,5.7-5.4c1.5-2,3.6-3.9,3.7-6.8c0-0.6,0.4-1.3,0.9-1.7c1.4-1.2,1.8-2.8,2.1-4.4c0.5-2,1.8-4,0.7-6.5
		c-1.1,0.6-2,1.1-3,1.6c-1.4,0-2.8-0.2-4.1,0.1c-1.1,0.2-2.2,1.2-3.3,1.3c-1.4,0.1-2.4,0.8-3,1.1c-1.4-1.4-2.6-2.6-3.8-3.8
		c0.2-0.1,0.6-0.2,1.3-0.5c-1-1.1-1.7-2-2.4-2.8c-1.2-1.4-2.1-3.3-3.6-4c-3.1-1.5-3.3-4.4-4.3-7.3c-0.9-0.9-2.1-2-3.2-3.2
		c0-1.9,0-3.7,0-5.3c-0.6-1.3-0.9-2.8-1.8-3.2c-1.2-0.6-1.4-1.5-1.6-2.5c-0.5-2.2-1.3-4.1-2.4-6c-0.9-1.6-1.4-3.4-1.9-4.8
		c1.1-1.1,1.9-1.9,2.7-2.7c0.6,4.1,4.8,6.5,5.1,10.5c1.5,1.9,2.8,3.5,4.2,5.2c0,1.2,0,2.3,0,3.2c0.4,0.9,0.6,1.6,1.1,2
		c2.3,1.9,3.1,4.7,4.5,7.2c1.5,2.5,2.4,5,2.4,7.8c0.4,1.4,0.9,2.9,1.3,4.4c0.9,0,1.9,0,2.9,0c0-0.1-0.1-0.2-0.1-0.3
		c1.4-0.4,2.9-0.9,4.5-1.4c0.2-0.2,0.6-0.6,0.9-0.9c0.9-0.1,1.8-0.1,2.4-0.4c1.2-0.7,2.4-1.6,3.6-2.5c2.6,0.3,4.2-1.3,5.3-3.5
		c0.4,0,0.8,0.1,1.1,0c0.3-0.1,0.5-0.5,0.8-0.5c1.9-0.1,3.6-0.5,4.6-2.4c0.1-0.3,0.8-0.3,1.2-0.5c0.5-0.2,1.3-0.4,1.4-0.8
		c0.4-1.3,1.8-1.4,2.5-2.5c0-0.7,0-1.4,0-2c1.6-1.9,4-3.2,4.2-6c-0.8-1.1-1.5-2.2-2.2-3.3c-4-0.9-4.3-1.3-5.1-6.5
		c-1.1,0.1-1.4,0.8-1.8,1.7c-0.6,1.4-1.4,2.8-3.1,3.1c-1.6,0.3-3.3,0.6-4.9,0.9c-0.3-0.6-0.6-1.2-0.9-1.8c0.9-0.9,0.8-2,0-3.7
		c-0.8,1.1-1.4,1.8-2.1,2.7c-0.4-1.6-0.8-3.2-1.2-5c-2.2-1.6-3.4-4.2-3.9-7.1c0.4-0.5,0.8-0.9,1-1.1c1.2,0,2.1,0,3,0
		c0.7,0.9,1.6,1.5,1.8,2.8c0.1,1.1,1.1,2.2,2,3c1.2,1,2.7,1.8,4.2,2.5c1,0.5,2.2,0.9,3.1,1.2c0.5-0.2,1-0.4,1.5-0.6
		c0.6-0.3,1.2-0.5,1.9-0.8c0.4,0.7,0.8,1.2,1.1,1.8c0.3,0.6,0.4,1.2,0.7,2c2.3-0.5,4.2,1.2,6.4,0.6c1.9,1.3,4.2,1,6,0.6
		c2.6-0.7,5.1-0.3,8-0.6c0.6,3.7,4.1,4.7,5.9,7.2c0.7-0.3,1.1-0.5,1.7-0.8c-0.1,0.5-0.1,0.8-0.1,1.1c-0.7,0.2-1.4,0.4-2,0.5
		c1.3,1.3,2.4,2.4,3.8,3.8c0,0,0.7,0,1.6,0c0.5-1,1-1.9,1.6-3.3c0.5,1.3,1.4,2.5,1.1,3c-1.3,2.4-0.3,4.6,0.2,6.8
		c0.6,2.6,1,5.3,2,7.9c0.5,1.2,1,2.4,1.4,3.6c0.5,1.5,0.7,3.2,1.5,4.6c1,1.9,1.8,3.7,2.1,5.8c0.1,1,0.9,2,1.6,2.8
		c0.2,0.3,1,0.2,1.5,0.2c1.6-2.3,3.1-4.4,4.3-6.1c0.4-2.3,0.8-4,0.9-5.8c0.1-2,0-3.9,0-6c1.9-1.6,3.5-3.5,5.6-5
		c1.7-1.2,3.5-2.6,4.3-4.8c0.2-0.4,0.8-0.7,1.3-1c1.2-0.7,2.4-1.4,2.1-3.2c0.6-0.6,1.2-1.1,1.6-1.5c2.1-0.4,4.1-0.7,6-1.1
		c0.2-1.2,0.6-2,2-1.9c0.4,1.5,0.7,3,1.1,4.9c1.1,1.1,2.5,2.4,3.7,3.6c0.7,2.5,1.5,4.9,0.3,7.2c0.8,1.2,1.9,1,3.3,0.8
		c0.4-0.7,1-1.6,1.5-2.4c0.1-0.1,0.3-0.1,0.6-0.2c0.5,0.9,1,1.7,1.5,2.5c0,4.6,0.2,5.4,2.3,7.7c-0.2,3.5-0.4,7.3-0.7,11.3
		c1,0.9,2.2,2,3.4,3.2c0.3,1.9,0.6,3.7,0.8,5.4c1.5,4.1,4.2,6.9,8.3,8.9c-0.1-0.8-0.1-1.6-0.4-2c-1.2-1.4-1.1-3.1-1.1-4.8
		c0-0.9,0-1.8,0-2.3c-1.9-3.2-5.3-4.4-7-7.3c0.2-0.2,0.4-0.5,0.7-0.7c-0.9-1.3-1.9-2.5-3-4c0.7-2.2,1.5-4.6,2.2-7
		c-0.1-0.2-0.3-0.6-0.6-1c0.8,0,1.4,0,2,0c0.1,0.5,0.2,0.8,0.2,1.2c0.8,0,1.6,0.1,2.3,0.1c0.5,0.5,1.4,1,1.4,1.5
		c0.2,2,1.6,2.9,2.8,4c1.2-0.1,2.1,0.2,2.4,1.4c-0.7,1.5-0.7,1.5,0.1,3c0.6-0.6,1.2-1.1,1.7-1.7c0.4-0.5,0.6-1.2,1-1.7
		c0.3-0.4,0.8-1,1.3-1c2.3-0.1,3.5-1.8,4.9-3.2c0.2-1.3,1-2.9,0.6-3.9c-0.6-1.3-0.4-2.6-0.8-4.4c-2.1-2.4-4.6-5-6.8-7.5
		c0-1.8,0-3.2,0-4.3c0.7-1,1.2-1.8,1.6-2.3c1.6-0.7,2.9-1.2,4.2-1.7c0.4,0.2,0.9,0.5,1.3,0.8c0.4-0.3,0.8-0.5,1.1-0.7
		c0.2,1,0.4,1.9,0.6,3c3.8-4.1,8.3-5.5,13.4-6c1.2-1.2,2.4-2.7,3.9-3.8c1.5-1,2.5-2.6,4.1-3.5c0-0.9,0-1.8,0-2.6
		c1.4-1.8,2.8-3.5,4.2-5.2c0-0.6-0.1-1.3,0-2c0.1-0.6,0.3-1.1,0.4-1.4c-0.7-0.5-1.3-0.9-2-1.4c0.7-0.2,1.1-0.4,1.5-0.5
		c0-0.5,0-1,0-1.6c-1-0.3-2.3-0.6-2-2.4c0.7,0.6,1.2,1,1.8,1.5c0.4-1.5-0.9-1.7-1.2-2.5c-1-2.3-1.7-4.7-3.5-6.6
		c-0.2-0.2,0-0.7,0-0.8c1.4-1.4,2.7-2.7,3.8-3.8c1.2-0.5,2.2-0.8,3.5-1.3c-1.6-0.8-2.9-1.6-4.6-2.5c-0.5,0.6-1.2,1.3-1.9,2.1
		c-0.4,0-0.8-0.1-1.3-0.1c-0.1-0.7-0.2-1.4-0.4-2.1c-0.9,0-1.7,0-2.8,0c-0.2-0.8-0.4-1.6-0.7-2.5c1-0.2,1.7-0.4,3.1-0.7
		c1.4-1.2,3.5-3,5.5-4.7c0.1-0.1,0.3-0.1,0.7-0.1c0.3,0.7,0.5,1.4,0.8,2c-0.7,0.6-1.2,1.1-1.7,1.6c0.1,1,0.3,1.8,0.4,2.7
		c2.1-1.4,3.9-2.5,5.7-3.7c1.1,0.9,0.1,0.1,1.1,0.9l0.4,0c0.1,0.1,0.1,0.3,0.2,0.4c0,0.1-0.1,0.1,0,0.2c0.1,0,0.1-0.1,0.2-0.1
		c0-0.1,0-0.2,0-0.3c0.1,0.1,0.3,0.1,0.4,0.3c0.2,0,0.3,0.2,0.5,0.3c0,0,0,0,0,0c0.1-0.1,0.1-0.1,0.2,0c0,0,0.1,0.1,0.1,0.1
		c0.1,0,0.2-0.1,0.4-0.1c-0.1,0.1-0.2,0.2-0.2,0.3c0,0.1,0,0.1,0,0.2c0.1,0,0.1,0,0.2,0.1c0,0.1-0.1,0.1-0.1,0.1c0,0.1,0,0.1,0,0.2
		c0,0.1-0.2,0.1-0.2,0.3c-0.1,0.1,0,0.1,0,0.2c-0.1,0-0.2,0.1-0.2,0.2c0,0.1-0.1,0.2-0.1,0.3l0,0.3l0,0l0,0.4l-0.1,0l-0.1,0.1
		l-0.1,0.1c-0.1,0.1-0.1,0.2-0.2,0.3c-0.1,0.1-0.2,0.2-0.2,0.3l0,0.3c0,0-0.2,0.3-0.2,0.3c0.1,0,0.2,0,0.2-0.1c0,0,0.7,0.3,0.7,0.3
		c0.1,0.3-0.5,0-0.5,0.2c0,0.2,0.2,0.2,0.3,0.2l0.2,0.1l0.2,0.3l0.2,0c0.1,0,0.2-0.1,0.2-0.2c0.1,0,0.1,0,0.2,0c0-0.1,0-0.3,0.1-0.4
		c0.1,0,0.1,0,0.2,0c0-0.1,0-0.2-0.1-0.2c-0.1,0-0.1,0-0.1-0.1c0,0,0,0,0.1,0c0.1,0,0.2,0.1,0.4,0.1c0,0,0,0,0,0
		c0.1,0.1,0.2,0.2,0.2,0.3c0,0.1,0.1,0.1,0.1,0c0,0,0-0.1-0.1-0.2c0.1,0,0.1,0,0.1,0c0.1,0.1,0.2,0.2,0.2,0.4c0,0.1,0.1,0.1,0.1,0
		c0-0.1,0-0.1,0-0.2c0.1-0.1,0.2-0.1,0.3-0.1c0.1,0,0.2-0.1,0.2-0.1c0.2,0.1,0.6,0.4,0.8,0.6l3.7-2c-0.1-0.2-0.1-0.3-0.2-0.5
		c0,0,0-0.1,0-0.1c0-0.1,0-0.1-0.1-0.2c0,0-0.1-0.1-0.1-0.1c-0.1,0-0.1,0-0.2,0c-0.1-0.1-0.2-0.2-0.3-0.3c0,0,0,0,0,0
		c-0.1-0.2-0.2-0.3-0.4-0.5c0-0.1-0.1-0.1-0.1-0.2c-0.1,0-0.2,0-0.2,0c-0.1-0.1-0.2-0.1-0.3-0.1c0,0-0.1-0.1-0.1-0.1
		c0,0,0,0-0.1,0.1c-0.2-0.1-0.2-0.1-0.1-0.4l0.3,0c0-0.1,0-0.2,0-0.3c0-0.1,0-0.2,0.1-0.4c0.1-0.1,0-0.1,0-0.2c0,0-0.1,0-0.1-0.1
		c0-0.1,0.1-0.4,0.2-0.4c0.1,0,0.1,0,0.2-0.1c0.1-0.1,0.2-0.1,0.3-0.1c0,0,0.1-0.1,0.1-0.1c0,0,0-0.1,0.1-0.1
		c0.1-0.1,0.1-0.1,0.2-0.2c0.2,0,0.3,0.1,0.5,0c0,0,0.1,0,0.1,0.1c0.1-0.1,0.1-0.1,0.2-0.2c0.2-0.1,0.3-0.2,0.5-0.3
		c0.1,0,0.1-0.1,0.1-0.2c-0.1-0.1-0.1-0.2,0.1-0.2c0,0,0.1,0,0.1,0c0.1-0.1,0.3-0.1,0.3-0.2c0-0.1,0.1-0.1,0.2-0.1
		c0.1,0,0.2-0.1,0.2-0.2c0,0,0-0.1,0.1-0.1c0-0.1,0.1-0.2,0.1-0.3c0.1,0,0.1,0,0.2,0c0.1-0.2,0.2-0.3,0.4-0.3c0,0,0,0,0.1,0
		c0.1-0.1,0.2-0.1,0.3-0.1c0,0,0.1,0,0.1,0c0-0.1,0.1-0.2,0-0.3c-0.1-0.2-0.1-0.5,0-0.7c0-0.1,0.1-0.3,0.1-0.4c0,0-0.1-0.1-0.1-0.1
		c-0.2-0.1-0.2-0.3-0.1-0.4c0-0.2,0.1-0.3,0.2-0.5c0,0,0,0,0.1,0c0.1-0.1,0.2-0.1,0.2-0.2c0,0,0-0.1,0-0.1c0.1,0,0.2,0,0.2-0.1
		c0-0.1,0.1-0.2,0.2-0.3c0,0,0,0,0.1,0c0.1,0,0.2-0.1,0.2-0.2c0-0.1,0-0.2,0.1-0.2c0,0,0.1,0.1,0.1,0c0-0.1,0.1-0.1,0.1-0.1
		c0,0,0,0,0,0c0,0,0-0.1,0-0.1c0.1-0.1,0.2-0.1,0.3-0.1c0.1,0,0.1,0.1,0.1,0.1c0.1,0,0.1-0.1,0.2-0.1c1.2-1.3,1.7-3.3,3.9-3.3
		c0.6,0.5,1.3,1,2,1.6c1.3-1,2.5-1.8,3.5-2.8c1.3-1.4,2.6-2.8,3.8-4.3c1.6-2.1,3.6-3.9,4.5-6.6c0.2-0.5,0.7-0.9,1.1-1.3
		c2-2.2,2.9-4.9,3-7.8c0.1-1.4-0.1-2.9,0.7-4.3c1.2-2.1,0.6-4.4,0.7-6.3c-1.8-1.1-2.5-3.1-5.3-3.1c-0.6,0.5-1.5,1.5-2.3,2.3
		c-0.1-0.6-0.1-1.4-0.3-2.9c-0.7,1-1.1,1.5-1.9,2.6c0-1.6,0-2.4,0-3.4c-1.1,0.4-1.9,1.4-2.8,0.2c0-0.1,0-0.3,0-0.4
		c1.1-1.4,2.3-2.6,3.9-3.6c1.4-0.9,2.2-2.9,3.6-3.9c1.7-1.2,3-2.7,4.4-4.2c1.3-1.3,2.7-2.5,4.2-3.6c1.7-1.2,3.6-0.9,5.5-0.4
		c2,0.5,3.1,0.5,5.9-0.2c0.2-0.1,0.5,0.3,0.7,0.4c1.1-0.7,2.2-1.4,3.3-2.1c0.7,0.6,1.3,1.1,1.7,1.5c1,0.1,1.7,0.2,3.1,0.3
		c-1,0.8-1.5,1.2-2.5,2c2.6-0.3,4.7-0.5,6.7-0.9c0.7-0.1,1.4-0.6,2-1c-0.5-0.5-0.9-1-1.3-1.4c1.1-2.5,3.1-4.2,5.3-5.4
		c0.1-0.7,0.3-1.4,0.4-2c1.3,0,2.5,0,3.5,0c0.4-0.3,0.7-0.6,1.1-0.8c0.9,0.5,1.6,0.9,2.5,1.3c-0.4,0.6-0.7,0.9-0.9,1.1
		c0.4,0.7,0.7,1.3,1.2,2.1c1.5-1.1,2.9-2.1,3.8-2.7c1.2-0.5,1.9-0.8,2.6-1.1c0.1-1,0.1-1.7,0.1-2.5c0.7-0.9,1.5-1.4,2.8-0.7
		c-0.6,1.5-1.3,3.1-1.9,4.7c-0.4,1.1-0.8,2.1-2.3,2c-0.3,0-0.8,0.4-1.1,0.7c-2.4,3.4-5.5,6.1-8,8.7c-1.4,0.5-2.5,0.9-3.2,1.2
		c-0.5,1.2-0.6,2.5-1.3,3.2c-2.4,2.7-1.8,5.9-1.7,9c1.1,0.8,0.4,1.9,0.6,2.9c0.2,1,0.7,1.9,0.6,2.8c-0.1,1.8,0.7,3.3,1,5.1
		c1.4-1.4,2.7-2.7,4-4c0-0.7,0-1.4,0-2.3c1.2-0.6,2.3-1.1,3.3-1.6c-0.4-0.6-0.6-1-0.7-1.3c0.9-0.9,1.8-1.8,2.7-2.7
		c0.6-0.1,1.4-0.2,2.5-0.3c-0.4-1.1-0.7-1.9-1-2.7c0.5-0.8,1-1.7,1.4-2.4c0.8-0.2,1.5-0.4,2.8-0.8c-1.1-0.7-1.6-1-2.4-1.4
		c0.5-1.1,1-2.3,1.6-3.7c-0.9,0-1.8,0-2.7,0c0-0.7,0-1.2,0-1.4c1.5-2.2,3-4.3,4.5-6.4c0.9,0.3,1.6,0.5,2.1,0.6
		c0.7-0.8,1.4-1.7,2.4-2.8c0.1,0.9,0,1.2,0.1,1.5c0.1,0.3,0.2,0.6,0.4,1.1c1.9-1.5,3.8-2.5,6.5-2.4c0.5,0.6,1.1,1.4,1.5,1.9
		c2.5-1.7,4.8-3.2,7.1-4.8c1-0.7,2-1.9,3-2c2.5-0.1,4.2-1.3,5.7-3c1.3,0.5,2.4,0.9,3.5,1.3c0.5-0.3,1.1-0.6,1.8-1
		c-0.5-1.1-1.3-2-1.5-3.1c-0.5-3.3-3-4.3-5.7-5.2c0.5-0.4,1-0.8,1.4-1.1c0.7,0.6,1.1,1.1,1.4,1.4c2.9,0.5,4.8-0.4,6.3-2.4
		c0-0.6,0.1-1.1,0-1.7c-0.1-0.4-0.4-0.8-0.6-1.3c0.6-0.4,1.1-0.6,1.7-1c0.2,0.9,0.3,1.5,0.4,2.1c0.1-0.1,0.3-0.3,0.4-0.4
		c0.4,0.7,0.7,1.4,0.9,1.7c1-0.2,1.7-0.5,2.2-0.4c0.9,0.2,2.3,0.5,2.6,1.1c0.9,2,2.9,2.6,4.8,3.7c0.7,0,1.8-0.1,2.5-0.1
		c0.2-1.8,0.4-3.3,0.6-5.1c0.7,0.4,1.2,0.7,1.4,0.8c0.9-0.3,1.7-0.6,2.5-0.9c-0.5-1.4,1.7-0.6,1.4-1.8
		C444.8,154,443.5,152.9,442.2,151.8z"/>
	<path class="st1" d="M736.2,356.2c-0.9,0-1.9,0-3.1,0c-1.6-1.6-3.2-3.2-5-5c-1.9,0-4,0-5.7,0c-1.2-0.6-2-1-3.1-1.6
		c-0.3,0.4-0.6,0.8-0.9,1.1c-0.3,0.3-0.7,0.4-1.2,0.7c0.2-1.1,0.3-2,0.5-2.9c-2.6-1.1-4.6-3.3-7.6-2.8c-0.6,0.9-1,1.5-1.5,2.2
		c-2-1,0.3-1.5-0.2-2.6c-0.2-0.1-0.7-0.4-1.2-0.7c0.1-0.1,0.2-0.3,0.3-0.4c-1,0-2,0-3.3,0c0.6-1.4,1.2-2.5,1.7-3.6
		c-1.9-1.6-3.3-3.3-2.9-5.7c-1.8-1.4-2.8-3.2-4.8-4.1c-1.8-0.8-3.5-1.8-5.4-0.6c-0.7-0.5-1.3-0.9-1.9-1.4c-0.4,0.4-0.7,0.6-0.9,0.8
		c-2.4-1.8-3.8-4.7-6.5-6.2c-0.9,0-1.9-0.1-2.6-0.1c0.1-1,0.3-1.8,0.4-2.6c-1.1-0.1-1.9-0.1-2.8-0.1c-0.4-1-0.7-1.8-1.1-2.8
		c-2,0.8-4,1.6-6.1,2.4c-0.5-0.7-0.9-1.2-1.4-1.7c-1.4,0-2.6,0-4.3,0c0-2.2-1.7-2.8-3.7-3.4c0.1,2-1.9,1.6-3.1,2.6
		c0.2,1.3,0.5,2.8,0.7,4.4c-0.6,0-1.2,0-1.7,0c-0.3-0.6-0.6-1.2-0.8-1.7c0.4-0.8,0.9-1.7,1.3-2.5c-0.3-0.5-0.6-1-1-1.5
		c0.6-0.3,1.1-0.6,1.7-0.8c-0.1-0.4-0.3-0.7-0.4-1.3c-2.7,1.3-5,3.1-8.1,3.2c-0.7,2.7-2.3,4.8-4.3,7.1c-0.4-0.8-0.7-1.5-1.2-1.9
		c-0.6-0.5-1.5-0.8-2.3-1.1c-0.7-0.3-1.4-0.5-2.4-0.8c-0.6,0.7-1.2,1.5-1.7,2.1c-1,0-1.7,0-2.3,0c-0.9-0.9-1.7-1.6-2.5-2.5
		c-1.4-1.6-3-3.1-1.3-5.5c0.2-0.2,0-0.7,0-1c0.1-1.9,0.3-3.8,0.5-6.1c-0.5-1-1.9-1.9-3.4-2.2c-2.1-0.3-4.2-0.1-6.3-0.1
		c-0.7,0-1.1,1.4-1.8,0.5c0.3-1.8,0.5-3.5,0.8-5.2c1.9-1.9,2-4.4,1.9-6.5c0.7-1.1,1.1-1.7,1.7-2.6c-2.9-0.5-5.4-0.3-8.1,0.8
		c-0.3,1.4-0.6,2.9-0.7,3.6c-1.2,1.2-2,2-2.6,2.6c0-0.1-0.2-0.5-0.4-1.1c-1.8,0.5-3.6,1-5.5,1.5c-1-0.7-2.1-1.4-3.3-2.2
		c0.3-2.3-1.4-3.6-2.8-5c0.2-2.2-1.2-4.2-0.7-6.4c0.4-2,0.8-4.1,1.3-6.2c-0.3-0.6-0.8-1.3-1.2-2.1c0.8-2.1,2.5-3.6,4.6-4.5
		c0.6-0.3,0.7-0.6,1-1c1.1-1.7,2.8-2.1,4.9-1.3c1,0.4,1.7,0.2,2.4-0.4c0.4,0.4,0.8,0.8,1.1,1.1c1.6,0.3,3.1,0.5,4.8,0.8
		c-0.6-0.8-1.1-1.5-1.6-2.1c0.5-0.6,0.8-1,1.2-1.5c1.4,0.2,2.6,0.4,3.8,0.5c1.1,0,2.2-0.2,3.3-0.4c0.5,0.8,0.9,1.5,1.3,2.1
		c0,0.1,0.2,0,0.5,0c0.5-0.5,1.2-1,2-1.7c1,1.3,1.8,2.5,2.7,3.7c-1,2.4,1.2,4.3,1.4,6.7c0.8,1,1.7,2,2.8,3.3
		c0.3-0.5,0.5-1.1,0.8-1.6c0.6-2.3,0.6-5-0.5-7.6c-0.5-1.2-1.3-2.3-1.1-3.7c-1.6-1.4-0.2-3,0.1-4.3c0.4-1.3,1.1-2.9,2.9-3.4
		c0.5-0.1,0.9-1.2,1.3-1.8c0.3-0.4,0.6-0.7,0.8-1c0.7,0,1.2,0,1.7,0c0.1-0.3,0.2-0.6,0.3-1.1c0.8-0.4,1.8-0.9,2.8-1.4
		c0-0.8,0-1.5,0-2.5c0.4,0.4,0.7,0.6,1,0.8c0.4-0.5,0.8-1,1.1-1.4c-0.4-0.5-0.6-0.8-0.7-1.1c0.3-0.3,0.4-0.4,0.5-0.5
		c-0.8-1.5-1.7-3-2.3-4.1c0.6-0.7,1-1.3,1.8-2.2c0,1.4,0,2.5,0,3.9c1.2-1.4,1.8-3.8,1.3-4.8c2.5-0.5,2.4-2.7,3-4.4
		c1.3-0.3,2.5-0.6,3.6-0.9c0.1,0,0.1-0.3,0.2-0.6c-0.9-0.1-1.8-0.1-3.2-0.2c2.1-0.7,3.7-1.2,5.3-1.7c0.1,0.1,0.1,0.1,0.2,0.2
		c0.5-0.3,1-0.5,1.8-0.9c-1.9-1.5-1-2.8-0.4-4.1c0.3-0.7,1.1-1.6,1.7-1.7c1.5-0.1,1.5-1.4,2.3-2.3c0.6,0.3,1.1,0.6,1.5,0.7
		c1.3-0.8,2.4-1.5,3.6-2c1.3-0.6,2.6-1.4,3.5-2.5c0.1-0.1,0.3-0.1,0.5-0.2c0.1,0.7,0.2,1.3,0.3,1.8c0.5,0.2,0.9,0.3,1.2,0.4
		c0,0.1,0,0.2-0.1,0.3c-1,0-2,0-2.9,0c-0.7,0.7-1.3,1.3-1.9,1.8c0,0.5,0,0.9,0,1.4c0.3,0.3,0.7,0.7,1,1c0.4,0,0.9,0,1.5,0
		c0.8-0.9,1.7-1.8,2.4-2.6c2.9-0.7,5.6-1.3,7.2-3.5c0.9-0.2,1.4-0.4,2.7-0.7c-1.1-0.7-1.6-1-2.3-1.3c0-0.5,0-1,0-2.3
		c-1,1.8-1.7,3-2.3,4c-0.8,0.4-1.5,0.7-2.3,1c-1.7-1.1-3.4-2.1-5-3.1c-0.1-1.5-0.2-2.8-0.3-4.2c-0.5,0.4-0.7,0.6-1,0.9
		c-0.1-0.4-0.2-0.8-0.2-1.1c1-0.5,1.9-1,3.1-1.6c-0.4-0.8-0.8-1.6-1.1-2.4c-1.6,0.4-3-0.1-4.5,0.7c-1.2,0.6-2.6,1-3.8,1.6
		c-1.2,0.6-2.1,1.7-3.1,2.7c0.5-2.3,2.4-3.3,3.8-4.7c0.8-0.2,1.9-0.4,2-0.9c0.4-1.6,1.7-1.9,2.9-2.7c4,0,8.2,0,12.6,0
		c1.2-1,2.6-2.2,3.9-3.3c1.6-0.3,3.1-0.6,4.6-0.9c0.2-0.6,0.3-1.2,0.5-1.9c-0.1-0.2-0.4-0.5-0.8-1.2c0.7-0.4,1.3-0.8,1.9-1.2
		c-1.1-1-0.8-2.7-2.6-2.7c-0.2,0.2-0.5,0.4-0.8,0.7c-0.4-1.4-1.2-2.3-2.8-2.1c0,0-0.1-0.3-0.2-0.5c0.7-0.1,1.3-0.2,1.9-0.3
		c0-0.4,0-0.6,0-0.9c-2-0.7-4-1.4-5.9-2c-1.6-1.5-3-2.9-4.5-4.3c0.7-0.5,2-0.4,2-1.4c-2.5-4.3-4.9-8.2-7.4-12.6
		c-0.7,3.9-2.7,6.5-6.1,8.2c-0.7-0.7-1.5-1.5-2.1-2.1c-0.8-0.1-1.3-0.2-1.7-0.2c-0.6-2.6-1.6-4.9-0.2-7.4c-1.1,0-2.1,0-2.9,0
		c-2.9-1.5-4.1-4.5-6.9-5.7c-0.8,0.4-1.6,0.9-2.5,1.3c-3.2-1.3-3.2-1.3-6.3-1.1c-0.3,0.6-0.5,1.1-0.8,1.7c0.7,0.6,1.3,1.3,2.1,2.1
		c-0.6,0.4-1.1,0.9-1.6,1.2c0.5,1.5,1,2.8,1.5,4.1c-0.9,1.5-1.8,3-2.6,4.5c5,4.8,4,2.6,4,9.8c-2,1.4-4.1,2.7-6.3,4.2
		c0.4,0.8,0.8,1.6,1.3,2.5c0.5,1.1-0.2,2.4,0.7,3.5c0.5,0.6,0.2,1.8-0.4,2.8c-0.7,1.1-1.7,1.5-2.3,2.8c-1-1.3-1.5-2.7-2.5-3.1
		c-1.3-0.6-1-2.3-2.3-2.4c0-2.5,0-4.8,0-7.1c-0.3-0.3-0.7-0.7-1-1c-1.6,0-3.3,0.3-4.8-0.1c-1.5-0.4-3.1-1.1-4.3-2.2
		c-2-1.7-3.8-3.3-6.5-3.7c-0.9-0.1-1.8-0.9-2.7-1c-0.9-0.1-1.8,0.4-2.7,0.6c-0.4-1.7-0.8-3.3-1.2-5.1c-1.3-0.5-2.6-1-3.9-1.5
		c0-1,0-2.1,0-3.1c0.1-2.4,0.9-4.5,2.4-6.3c0.9-1.1,1.6-2.3,2.4-3.5c0.3-0.5,0.7-0.9,1-1.4c0.8,0,1.5,0,2.3,0c0.4-0.5,0.7-1,1.2-1.7
		c-1.8-0.4-3.5-0.6-4.6-2.2c2-0.7,3.7,1.4,5.6,0.3c0.1-0.6,0.2-1.2,0.3-2c1.2,1.4,2.5,0.7,3.5,0.8c1-1.3,1.8-2.4,2.7-3.5
		c-0.3-0.5-0.5-0.8-0.5-0.9c1.2-1.1,2.4-2.1,3.4-3c-0.4-0.9-0.7-1.5-1-2.2c0.9,0,1.4,0,2,0c0.2,0.3,0.4,0.8,0.4,0.9
		c1.7,1.2,2-1,3.3-0.7c1.1,0.2,1.9-0.6,2.7-1.3c0.9-0.8,2-1.4,2.7-1.9c-0.9-1.7-1.8-3.1-2.6-4.5c1-0.4,1.9-0.8,2.6-1
		c-0.4-1.1-0.6-1.9-1-2.8c-0.5,0-1.1,0-1.6,0c-0.1-0.4-0.2-0.8-0.3-1.1c-2-0.5-4-1.5-6.1-0.7c0,0.5,0,1,0,1.5
		c0.4,0.5,0.9,0.9,1.4,1.5c-0.7,0.4-1.3,0.8-2.2,1.4c-0.1,0.9,0.5,2.4-1.1,3c-0.2-0.4-0.4-0.9-0.6-1.3c-0.4,0.4-0.7,0.7-0.9,1
		c0.5,1,0.9,2,1.4,2.9c-0.8,0.4-1.4,0.6-2,1c-0.8-1.1-1.6-2.3-2.1-3.1c0.3-1.4,0.5-2.5,0.6-3.4c-1.1-1-2-1.8-3-2.7
		c-0.8,1.4-1.5,2.6-2.5,4.4c-0.3-2-0.4-3.4,0.3-4.8c-0.8-0.5-1.6-0.9-1.8-1c-1.2,0-1.7,0-2.6,0c0.8-1.1,1.4-1.9,2-2.8
		c-1.3-1-2.5-1.9-3.6-2.7c0.3-0.6,0.5-1,0.7-1.4c-1.2-1-2.4-2-3.5-3c0.6-0.6,1.3-1.3,2.1-2.1c0-0.4,0-1,0-1.6c1.1,0,2.1,0,3.3,0
		c1.2-1.8,2.4-3.5,3.7-5.6c-1.6,0-2.9,0.4-3.8-0.1c-2.2-1.2-4.5-0.2-6.6-0.7c-0.1,0.9-0.3,1.5-0.4,2.1c-0.5,0.1-0.8,0.2-1.2,0.2
		c-0.2,1.9-0.2,3.6,1.2,5c0,1.3,0,2.5,0,3.7c-0.5,0.2-0.9,0.3-1.3,0.5c0.3,0.3,0.5,0.5,0.8,0.9c-0.8,0.1-1.4,0.2-2.3,0.4
		c0.2,1.2,0.4,2.4,0.6,3.5c-0.2,0.6-0.4,1.3-0.7,2.1c0.8,0.7,1.5,1.3,2.1,1.9c-0.5,0.2-1.3,0.4-2.1,0.7c-0.5-0.4-1.1-1-1.7-1.5
		c-0.8,0.1-1.6,0.1-2.4,0.2c0,0.8,0,1.3,0,1.8c-0.7,0.5-2.2-0.5-1.9,1.3c1.2,0.5,2.8,0.3,3.6,1.8c-2,1.2-2,1.2-2.5,3.3
		c-2.9,0-5.7,0-8.5,0c-0.5-0.5-0.9-0.9-1.4-1.4c-1.9,0.9-2.8-1.3-4.4-1.6c0-0.6-0.1-1.1-0.1-1.7c-2.6-0.3-4.5,1.2-6.5,2
		c-0.1,0.1-0.2,0.3-0.3,0.5c0.3,0.3,0.7,0.6,0.9,0.9c1-0.9,2.1-0.7,3.3-0.5c-0.9,0.6-1.7,1.1-2.4,1.6c0.3,1.2,0.6,2.2,0.9,3.2
		c-0.6,0.7-1,1.8-2.1,1c0.3-0.5,0.5-1,0.7-1.3c-0.9-1-1.7-1.8-2.5-2.7c-1,0.9-1.7-1.3-2.6-0.1c-3.1,0.3-6.2,0.7-9.1,1
		c-0.6-0.7-0.9-1.1-1.4-1.8c1.2-0.6,2.1-1,3.2-1.5c-0.9-0.8-1.7-1.5-2.8-2.5c-1.1,0-2.5,0-3.8,0c-0.6,0-1.4-0.1-1.9-0.5
		c-1.4-1-2.9-0.9-4.4-0.9c-1.1-0.7-2.1-1.4-3.1-2.1c-1,0-2.1,0-3.1,0c-0.8,0.7-1.7,1.5-2.7,2.4c-0.4-0.7-0.7-1.2-1-1.7
		c-0.1,0.1,0.2-0.2,0.3-0.3c-0.3-0.6-0.6-1.2-0.9-1.8c-0.9,1.2-1.8,2.3-3,3.8c-0.9-1.8-1.5-3.3-2.3-4.7c-0.3-0.6-1.1-0.9-1.7-1.4
		c-0.7,3.1-1.4,3.6-3.7,3.5c-0.1-0.4-0.3-0.8-0.4-1.2c-2.9,0.2-5.2,1.6-7.8,2.7c-0.6-0.4-1.3-0.8-2.1-1.2c-0.7,1.1-2.8,0.2-3.1,2.1
		c0.2,0.4,0.4,0.8,0.7,1.5c-3.4-0.9-6.6-1.2-8.8-3.7c-1.3,0-2.5,0.2-3.6,0c-1-0.2-2-0.7-3-1.1c-0.3-0.1-0.6-0.3-0.9-0.2
		c-3.6,0.5-7-1-10.3-0.7c-2.8-2-5.7-1.6-8.5-0.9c-0.5-0.2-0.9-0.4-1.4-0.6c-0.3-0.5-0.8-1.3-1.3-2.1c-1.3,0.3-2.4,0.5-3.6,0.8
		c-0.2-0.5-0.4-0.9-0.7-1.7c-0.8,0.7-1.5,1.2-2.6,2.2c0.5-1.2,0.7-1.8,0.9-2.4c-0.8,0-1.6,0-2.2,0c-1,0.7-2,1.3-3.1,2.1
		c-1.1,0-2.3,0-3.5,0c-0.1,0.8-0.3,1.4-0.4,2.1c-0.4-0.3-0.6-0.5-0.6-0.5c-1.6,0.5-3.1,1-4.2,1.3c-1,0.9-1.9,1.6-2.7,2.4
		c0.2,1.7-1,2.2-2,3.2c-1.3,0-2.8,0-4.2,0c0,0.9,0,1.6,0,2.4c1.1,0.4,2.2,0.8,3.5,1.2c0.7,1.2,1.6,2.4,2.5,3.9c1.1,0,2.3,0,3.6,0
		c0.1,0.8,0.2,1.4,0.3,2c1,0.1,1.8,0.2,2.6,0.3c0,0.1,0,0.2,0,0.4c-0.8,0-1.6,0-2.2,0c-0.6,0.6-1.1,1.1-1.4,1.3
		c-0.8-0.2-1.4-0.4-2.1-0.5c-0.6-0.1-1.3-0.1-2.1-0.1c0-0.8,0-1.3,0-2.3c-2.1,0.9-3.7,2.3-5.6,2.9c-0.4,0.1-0.8,0.3-1.2,0.5
		c-0.6,0.4-1,0.9-1.7,1.4c1.1,0.5,2,0.9,2.9,1.3c0.3,0.8,0.7,1.6,1,2.4c2.3,1.5,4.8,0.7,6.8,0.9c1.5-0.9,2.6-1.6,3.7-2.3
		c0.5,0.5,0.8,0.8,1.2,1.3c-1.9,1.1,0,2.3,0,3.4c-0.4,0.4-0.7,0.7-1.2,1.2c-0.7,0-1.4,0-2.4,0c-0.5,0.6-1.1,1.3-1.6,1.9
		c-0.9-0.4-1.6-0.8-2.2-1.2c-1.5,0.7-0.7,2.1-0.9,2.6c-1.4,1.3-2.4,2.3-3.3,3.1c-0.1,1.7,1.9,1.7,2.4,2.8c-0.3,0.5-0.5,0.9-0.5,0.9
		c1.3,1.3,2.4,2.4,3.7,3.7c0.8-0.3,1.9-0.8,2.9-1.3c0.3,0.6,0.6,1.2,0.9,1.9c-1,2-1,2,0.7,3.6c0.8-0.5,1.6-1.1,2.5-1.7
		c0.9,0.7,1.7,1.2,2.5,1.9c0.3-0.7,0.6-1.1,0.8-1.6c1,1.1,2,0.7,3.1,0.1c-0.3,1.7-0.6,3.2-0.8,4.5c-0.8,1.1-1.3,2.6-2.3,2.9
		c-2.1,0.7-3.4,2.2-5,3.7c-0.9,0-1.9,0-2.6,0c-0.7,1-1.2,1.7-1.7,2.5c0.2,0.1,0.3,0.2,0.4,0.2c2.6-1,5.1-2.2,7.8-3.1
		c0.5-0.2,1.7,0,1.6-1.4c0-0.3,1-0.7,1.5-1.1c3.1-2.7,7.2-4.3,9.5-8.1c-0.5-0.5-1-1.1-1.5-1.6c1-0.8,2.2-1.3,2.6-2.2
		c1-2,2.9-3.2,4.1-4.7c0.8,0,1.3,0,1.9,0c-1,0.8-2,1.5-2.6,2.1c-0.3,1.3-0.5,2.2-0.8,3.1c1.3,0.6-1.2,1.8,0.6,2.4
		c1.8-1.1,3.7-2.4,5.6-3.6c0.3,0.2,0.7,0.4,1,0.6c0.4-0.3,0.7-0.6,1-0.8c-0.4-0.8-0.8-1.6-1.2-2.3c1.9-2.3,3.6,0.1,5.6,0
		c-0.4,0.4-0.6,0.6-0.8,0.9c0.8,0.4,1.6,0.8,2.3,1.1c0.4-0.4,0.6-0.6,1-0.9c0.3,0.7,0.4,1.1,0.5,1.5c2.5,0,4.8,0,7,0
		c0.7,0.6,1.3,1.1,1.9,1.5c0.7-0.6,1.3-1.1,2.1-1.7c0,1.2,0,2,0,2.3c2,1.5,3.7,2.7,5.7,4.2c0.4-0.2,1.2-0.4,1.9-0.7
		c0.8,0.2,1.4,0.4,1.9,0.5c-0.2-1-0.3-1.8-0.4-2.6c1,1.2,2.1,2.4,1,4.2c-1-0.3-2-0.5-3.6-0.9c0.8,1.4,1.1,2.7,1.7,2.8
		c1.7,0.4,0,2.5,1.6,2.6c0.2,0,0.3,0.1,0.9,0.2c-0.4-1-0.7-1.8-0.9-2.6c-0.1-0.2,0.2-0.5,0.5-1.4c0.5,0.9,0.8,1.5,1.2,2.1
		c0.6-0.7,0.9-1.1,1.2-1.4c-0.3-0.6-0.5-1-0.9-1.7c0.8,0.2,1.1,0.3,1.5,0.3c0,0.8,0,1.5,0,2.2c-0.5,1-2.1,1.3-2.1,3.2
		c1-0.2,1.8-0.3,2.6-0.5c0.2,0.1,0.4,0.3,0.7,0.4c0.2-0.6,0.3-1,0.2-0.8c0.7,0.4,1.5,0.8,2.6,1.4c-0.8,0.9-1.2,1.3-1.5,1.7
		c-1.1-0.4-1.8-0.6-3-1.1c1.2,1.5,1.5,2.4,0.4,3.4c0.3,0.3,0.7,0.7,0.8,0.8c0.9-0.3,1.7-0.5,2.5-0.7c0.1-0.4,0.3-0.8,0.4-1.2
		c0.3,0.3,0.6,0.5,0.8,0.7c0.3-0.2,0.5-0.4,0.9-0.8c0,0.8-0.1,1.5,0.1,1.8c0.4,0.5,1.1,0.9,1.5,1.2c0,1.3,0,2.3,0,3.5
		c0.7,0,1.3,0,1.8,0c0.1,0.7,0.1,1.2,0.2,1.4c1.3,0.8,2.4,1.5,3.6,2.2c-0.4,0.5-0.6,0.7-0.9,1c0.4,1,0.7,2.1,1,3.1c0.5,0,1,0,1.6,0
		c0.3,0.5,0.6,1.2,0.9,1.9c-1.8-0.2-3.1-1.4-5-1.1c2.9,2.7,5.7,5.3,8.4,7.9c-0.5,2.4,1.3,3.9,1.9,5.7c-0.2,0.4-0.5,0.7-0.5,1
		c-0.3,2.7-0.4,5.4-0.7,8.1c-0.1,0.8-0.7,1.7-0.6,2.5c0.2,1.2,0.9,2.4,1.4,3.6c-2,2.2,0.8,4.3,0,6.1c1.6,2.2,3.2,4.3,4.6,6.4
		c0.3,0.5,0.2,1.3,0.3,2c0,0.1,0,0.2,0,0.3c0.6,0.6,1.4,1.1,1.7,1.7c2.2,1.6,3.3,1.8,4.8,3.6c0.8,1,0.4,1.2,0.9,2.8
		c0.4,1.7,3.4,3.1,4.4,4.6c0.9,1.4,1,3.3,1.5,4.8c2.4,1.3,3.8,3,3.4,4.2c-0.5,0.2-0.9,0.4-1.8,0.8c2.3,1.7,4.3,3.1,6.1,4.5
		c0,0.8,0.1,1.1,0,1.5c-0.1,0.4-0.4,0.7-0.7,1.1c2.3,1.2,4.1,2.8,5.3,4.9c0.3-0.3,0.7-0.6,1.1-1c-0.4-0.8-0.8-1.6-1.1-2.3
		c-0.6,0-1.1-0.1-1.7-0.1c-0.1-0.9,0.1-1.9-0.3-2.5c-1.2-2.1-1.8-4.4-3.4-6.3c-1-1.2-1.7-2.7-2.9-4.8c-0.2-0.1-1-0.7-1.7-1.1
		c-0.3-1.7-0.6-3.1-0.8-4.6c1.2,0,1.2,0,3.9,1.5c0.4,2,0.7,4,1.1,6c0.5,0,1.2-0.2,1.4,0c1.8,2,3.6,4,5.4,6.1c0,0.6,0,1.3,0,1.7
		c3.2,2.4,5.7,5.1,7.8,8.5c1.2,2.1,1.6,3.8,0.4,5.7c1,3.2,4.6,3.5,6,5.9c2.9-0.7,4.3,2.1,6.6,2.7c2.4,0.6,4.3,2.1,6.5,2.8
		c0.1-0.1,0.2-0.1,0.3-0.1c1.2-0.4,2.5-1.3,3.7-1.1c1.3,0.1,2.6,1,3.7,1.9c1.3,1.1,2.4,2.5,3.5,3.6c3.6-0.1,5.8,2.5,8.3,2.9
		c1.6,1.7,2.9,3.1,4.1,4.5c0.1,1.3,0.1,2.5,0.2,3.8c0.9,0,1.6,0,2.5,0c0.8,1.1,1.7,2.3,2.6,3.5c2.5-0.5,4.1,1.1,5.6,2.8
		c0.5-0.5,0.9-0.9,1.2-1.3c-0.4-0.5-0.6-0.9-0.8-1.3c0.4-0.2,0.8-0.3,1.2-0.5c0.1-0.4,0.3-0.8,0.4-1c0.9,0,1.7,0,2.5,0
		c0,0.8,0,1.5,0,2.3c2.5,1.7,3.1,4.2,2.9,7.1c-0.1,0.9,0.2,1.9,0.4,2.8c-0.5,1.6-1.6,2.7-3.1,3.4c-0.6,1.5-1,3-2.8,3.4
		c-0.1,0.6-0.1,1.1-0.2,1.6c-0.4,0.1-0.7,0.2-1.1,0.3c-0.3,1.8-1.6,3.5-0.7,5.5c0.7,0.5,1.4,0.9,2.1,1.4c-1.2,0.9-2.1,1.6-3.2,2.5
		c0.3,1.4,0.5,2.8,0.8,4.3c-0.2,0.2-0.4,0.4-0.7,0.8c0.9,0.7,1.8,1.3,2.7,2c0.3,0.5,0.6,0.9,0.8,1.4c0.7,1.2,1.8,2.4,2,3.7
		c0.8,3.8,2.8,7,5,10.4c0,0.8,0,1.8,0,2.8c1.2,1,2.2,2.2,3.4,2.9c3.6,2.1,7.1,4.2,9.9,7.6c-0.3,5.8-0.6,11.7-0.9,17.6
		c0,0.3,0,0.7-0.1,1c-1.1,2.3-0.9,4.9-1.9,7.2c-0.4,0.9-0.6,2.3,0.5,3.1c-0.2,0.4-0.6,0.8-0.6,1.2c0.3,3.9-0.3,7.6-1.4,11.3
		c-0.7,2.3-1.5,4.5-2.4,6.7c-0.3,0.8-1.7,1.6-1,2.3c0.9,1-0.4,1.6,0,2.3c1.7,2.7-0.3,5-0.7,7.6c0.3,0.6,0.7,1.3,1,1.8
		c0.6-0.2,1.1-0.3,2-0.6c-0.4,4.8-1.7,9-2.4,13c-0.5-0.2-0.9-0.4-1.3-0.6c0.4-0.5,0.5-0.7,0.8-1.1c-2.5-0.4-1.9,1.6-2.3,2.6
		c-1.4,0.5-1.5,0.8-0.8,1.5c0.2-0.2,0.5-0.4,0.7-0.6c0.7,0.4,1.3,0.7,1.9,1.1c-0.4,0.8-0.7,1.3-0.9,1.8c0.3,0.4,0.5,0.6,0.8,0.9
		c-0.9,0.3-1.8,0.7-2.8,1c0.6,1.2,1.1,2.1,1.5,3c-0.4,0.5-0.6,0.8-1.1,1.4c0.6,0.4,1.1,0.7,1.6,1.1c0.1-0.7,0.3-1.3,0.4-2
		c0.4,0.1,0.8,0.2,0.9,0.2c-0.4,1.9-1,3.5-1.9,5.2c-0.1,0.2,0.1,0.6,0.1,0.9c0.9,0.1,1.8,0.2,2.7,0.3c-0.4,0.4-0.5,0.7-0.7,0.9
		c0.4,0.4,0.7,0.7,0.8,0.8c0.7-0.2,1.3-0.3,1.9-0.5c0,0.5,0,0.8,0,1.2c-0.9,0.1-1.9,0.2-2.9,0.3c0.1,0.6,0.2,0.9,0.4,1.5
		c0.8-0.4,1.4-0.8,2.1-0.9c0.8-0.1,1.6,0,2.4,0.1c0,0.1,0,0.3,0,0.4c-1.1,0.4-2.2,0.8-3.4,1.2c0,0.3,0.1,0.6,0.1,1
		c1.1-0.8,2.2-0.9,3.5-0.3c-1.6,0.5-3,0.9-4.3,1.4c0.1,1.8,1.8,1.6,2.6,2.5c0.1-0.8,0.2-1.4,0.3-2.4c0.6,0.7,1,1.1,1.3,1.5
		c-0.4,0.8-0.6,1.4-0.9,2.1c0.9,0.1,1.6,0.2,2.1,0.3c0.1,0.7,0.2,1.3,0.4,2.7c0.3-1.4,0.5-2.1,0.6-2.8c0.5,0.8,0.9,1.5,1.3,2.2
		c0.4-0.3,0.8-0.6,1.2-0.9c0.6,0.5,1.2,1,1.8,1.5c0.1-0.2,0.2-0.4,0.3-0.6c0.1-0.3,0.3-0.5,0.4-0.9c0.6,0.3,1,0.5,1.2,0.6
		c1.7-0.5,3.1-1,4.8-1.5c-1.1-0.4-2-0.6-2.6-1.1c-1.6-1.4-3-2.9-4.5-4.4c0.2-0.2,0.4-0.5,0.8-0.9c-1.1-0.5-2-0.9-3-1.3
		c0.1-0.4,0.3-0.7,0.5-1.1c0.5,0.3,1,0.6,1.6,0.9c0.6-2.1-1.2-3.9-0.4-6.1c1.2-1.4,3.5-2.2,3.6-4.9c0-0.5,1.1-1.1,1.7-1.6
		c0.4-0.3,0.9-0.5,1.3-0.8c0.3-1.2,0.6-2.2,0.9-3.2c-1.7-0.7-3.4-1.4-4.3-3.1c0.1-0.4,0.1-1,0.4-1.2c1.2-0.9,2.5-1.8,4-2.9
		c0.2-1,0.5-2.4,0.7-3.9c0.5-0.7,1-1.5,1.5-2.3c0.3,0.2,0.7,0.5,1.3,1c0.3-0.6,0.5-1.2,0.8-1.7c-0.2-0.1-0.7-0.5-1.2-0.9
		c-0.4,0.4-0.7,0.6-1,0.9c-0.3-0.3-0.6-0.7-0.8-1c0-1.3,0-2.6,0-4c1.4,1.2,2.8,1.8,4.6,1.3c1.2-1.8,1.1-4.1,1.7-5.9
		c2.5-0.4,4.8-0.7,7.1-1c2.4-0.6,3.2-2.9,4.4-4.5c0-0.8,0-1.5,0-2.1c-0.5-0.2-0.9-0.3-1.3-0.5c0-0.5-0.1-1,0-1.4
		c0.1-0.3,0.4-0.6,0.8-1c-1.4-0.7-2.5-1.2-3.6-1.7c0-0.1,0.1-0.3,0.1-0.4c0.8,0,1.6,0,2.2,0c1,0.7,2,1.3,3,1.9
		c0-0.2,0.1-0.3,0.1-0.5c0.6,0.1,1.3,0.1,2.2,0.2c0.1-0.1,0.6-0.2,1.1-0.4c0.5-0.2,1.2-0.4,1.4-0.8c0.5-1.5,2-2.2,2.7-3.4
		c0.8-1.3,1.2-2.8,1.8-4.1c0.3-0.7,0.7-1.4,1.1-2.2c0.2,0.7,0.4,1.1,0.5,1.5c1.3-1.2,2.2-2.4,2.6-4.2c0.3-1.3,0.8-2.8,2.6-3
		c0.5-2.9-0.7-5.9,0.5-7.8c2.1-1.9,3.5-3.2,5-4.5c2.2,0.1,3.5-1.6,5-3c1.4,1.1,2.8,1,4.2,0.7c0.9-1.5,2.2-2.5,2.7-4.2
		c0.5-1.6,1.5-3.1,2.3-4.8c-0.1-1.5-0.1-3.2,1.4-4.5c0.1-1.3,0.2-2.6,0.6-3.9c0.4-1.1-0.4-2.6-0.6-3.9c-0.1-0.4-0.2-1.2,0.1-1.3
		c1.2-0.8,0.1-2.3,0.9-3.1c1.3,0.1,2.3-0.2,2.5-1.7c0.1-1.7,1.1-3.1,2.5-3.8c2.9-1.6,2.9-4.6,3.8-7.1
		C737.7,360.3,738.2,357.9,736.2,356.2z"/>
	<path class="st1" d="M782,79.2c-1.9-0.2-4-0.5-5.6,1.1c-0.1,0.6-0.1,1.1-0.2,1.9c-1.6-0.3-3-0.6-4.4-0.8c-0.2,0.2-0.4,0.4-0.7,0.6
		c-0.5-0.5-0.9-0.9-1.4-1.4c-2.1,2.2-4.2,4.3-7.5,5.5c1-2.7,4.1-3.7,4.4-6.7c-0.7-0.3-1.4-0.7-1.9-1c-1.8,1-3.1,2.1-4.6,2.6
		c-1.5,0.6-2.8,2.3-5,1.3c1.6-1,3-1.8,4.4-2.7c-2.1-0.4-4.1-0.5-6.1-0.4c-1.8,0-3.5,0.1-5.3,0.5c-1.2,0.3-2.5,1.5-4,0.5
		c0.3-0.3,0.6-0.7,0.8-0.8c2.8-0.6,5.6-1.3,8.4-1.6c2.1-0.3,4.2,0,6.3-0.1c0.7,0,1.3-0.1,1.9-0.3c1.8-0.6,3.5-1.3,4.5-1.2
		c1.1-0.5,1.5-0.7,1.8-0.8c-1.9-2.4-4.5-1.7-6.2-1.8c-1.3-1.2-2.3-2-3.2-2.8c-1.1,0-2.2,0.1-3.2,0c-1-0.1-2-0.2-2.8-0.7
		c-1.2-0.8-2.4-0.6-3.6-0.6c-2.8,0-5.6-0.1-8.4,0c-2.8,0.1-5.6,0.4-8.4,0.7c-0.2,0-0.4,0.2-0.7,0.4c0,0.5,0,1,0,1.7
		c-0.8-0.1-1.4-0.1-1.9-0.2c-0.2-0.6-0.2-0.9-0.3-1.2c-2.6-0.5-5.1,2-7.6-0.2c-2.1,2.4-5,1.2-7.9,1.8c0.4,0.6,0.6,0.9,0.9,1.2
		c0.3,0.3,0.7,0.6,1.3,1.2c-1.7,0.2-2.8,0.3-4.4,0.5c0.7,0.9,1,1.5,1.6,1.8c1.3,0.8,2.7,1.4,4,2.2c0.3,0.2,0.4,0.8,0.6,1.3
		c-3.6-1.6-6.9-3.1-10.5-4.8c-0.7,0.1-1.9-0.4-3.1,0.5c0.8,0.9,1.5,1.6,2.2,2.4c0.1,0.1,0,0.3,0,0.5c-1,0-2,0-3.1,0
		c-0.7-0.7-1.3-1.4-1.8-1.9c-0.8,0-1.3,0-1.8,0c-0.1,1.5-0.2,2.8-0.2,4.1c-0.5-0.1-0.8-0.1-1.1-0.1c0-1,0-2,0-3
		c-0.2,0.1-0.4,0.3-0.5,0.4c-0.5-0.8-0.9-1.6-1.3-2.3c-3,0.7-5.6,1.9-8,2c-0.5,0.2-1,0.3-1.4,0.4c0.3,0.5,0.5,0.8,0.6,0.9
		c-1.9-0.2-3.6-0.4-5.1-0.5c-0.6,0.6-0.8,0.9-0.9,1c0.2,1.4,0.4,2.6,0.7,4.1c-1.2-0.2-2.1-0.2-2.9-0.5c-1-0.4-1.9-0.5-2.9,0
		c-2.6,1.3-5.3,2.5-7.7,4.2c-0.4,0.3-0.5,0.9-1,1.7c2,0,3.5,0,5.2,0c0.3,0.9,0.6,1.6,0.8,2.1c-0.7,1-1.3,1.8-2,2.8
		c-1.7,1.3-4.1,0.4-6.2,0.9c-0.6,0.5-1.3,0.9-2,1.1c-1.6,0.5-3.3,1-5,1.4c-1.5,0.3-1.7,1.2-1.6,2.5c1.2,0.7,2.5,0.8,3.7,1.2
		c1.2,0.4,2.1,1.9,3.6,2c1.7-0.5,3.2-0.9,4.6-1.3c0.6,0.7,1.2,1.4,1.7,2c-0.2,0.1-0.5,0.4-0.6,0.5c-1.5-0.2-2.9-0.8-3.8-0.4
		c-1.9,0.8-3.8,0.3-5.3,1.1c-0.4,0.2-0.8,0.3-1.7,0.7c2,0.5,3.4,0.9,4.9,1.3c-0.3,0.5-0.5,1-0.9,1.6c1.9,0.9,3.9,2,6.1,2.2
		c0.2-0.7,0.4-1,0.5-1.5c2.6,1.5,4.7-0.1,6.9-0.6c0.4,0.2,0.8,0.7,1.2,0.7c2.8,0,5.2,1.4,7.8,2.2c0.8,0.2,1.7,1.3,1.9,2.2
		c0.3,1.2,0.9,1.5,1.8,2.1c1.2,0.8,2.6,1.5,3,2.7c-0.2,1.1-0.4,1.8-0.6,2.8c0.6,0.3,1.2,0.7,1.6,0.9c0,1,0,1.7,0,2.9
		c0.4,0.2,1,0.4,1.8,0.7c-0.9,1.1-1.5,1.8-1.9,2.3c0.2,0.8,1.1,1.2,0.2,1.8c-0.3,0.2,0,1,0,1.6c0.5,0,0.8,0.1,1.1,0.1
		c0.5,0,0.9,0,1.3,0c0.5-0.5,0.9-0.9,1.3-1.3c0.1-0.1,0.4-0.1,0.7-0.1c0.8,2.3,0.8,2.5,3,3.4c1.3,0.6,1.9,1.3,2.5,2.6
		c-3.4-1.3-3.4-1.3-7.3-0.9c0.8,0.7,1.5,1.2,2.2,1.8c-0.9,0-1.8,0-2.9,0c-0.3,0.9-0.5,1.7-0.8,2.6c1.5,0.8,2.8,1.5,3.9,2.1
		c0.9-0.3,1.8-0.6,2.6-0.8c0-0.5,0-0.9,0-1.2c-0.8-0.7-1.4-1.4-2.1-2c1.8,0,3.4,0.7,5.1,1.7c-0.4,1.5-0.7,3-1.1,4.6
		c-1.1,0-2.1,0-3.2,0c-1,2-2.1,3.9-3.1,5.9c0.8,0.6,1.6,1.2,2.4,1.8c-0.6,0.8-1.2,1.5-1.8,2.3c1.3,1.3,2.6,2.6,3.8,3.8
		c0,1.2,0,2.3,0,3.2c1.4,2.1,2.7,3.9,4,5.8c0,0-0.2,0.1-0.2,0.2c0,0.2,0,0.5,0.1,0.7c1.1,2.5,3.2,4.2,4.7,6.1c1.6,0.4,3,0.7,4.6,1.1
		c1.3,1.5,2.9,2.9,5.2,2.5c0.6-0.6,1.2-1.2,1.8-1.7c0-1,0-1.9,0-2.7c0.6-0.6,1.1-1.2,1.5-1.7c-0.2-1.6-1.6-2.9-0.4-4.3
		c0.5,0,0.9,0,1.4,0c0.8-1.8,2-3.4,1.8-5.9c0.4-0.2,0.9-0.4,1.2-0.6c-0.5-0.9-1-1.6-1.6-2.6c1.1,0.4,1.6,0.6,2.2,0.8
		c0.1-0.8,0.2-1.5,0.2-1.6c1.5-0.8,2.6-1.7,3.8-1.8c1.4-0.2,2.8-0.6,4.2-0.7c2.3-0.2,4.1-1.5,4.9-3.2c0.9-1.9,2.1-3.2,3.6-4.1
		c0.2-0.8,0.3-1.4,0.5-2.1c0.8,0.4,1.2,0.7,1.9,1.1c0.3-0.3,0.6-0.8,0.9-0.8c2.6-0.1,5-1,7.4-1.5c1.3-0.2,2.5-0.7,3.6-1.3
		c2-1.1,3.9-2.3,5.9-3.5c0.5-0.3,1-0.7,1.8-1.1c-3.3-0.4-6.3-0.8-9.6-1.2c1-0.6,1.7-1.1,2.5-1.6c-0.2-0.7-0.3-1.5-0.5-2.3
		c0.5,0,0.9,0,1.4,0c1.2,1.2,2.3,2.3,3.4,3.4c1.2,0,2.2,0,3.1,0c0.4-0.4,0.7-0.7,1-1.1c-0.3-0.6-0.6-1.2-0.9-1.8
		c0.3-0.3,0.5-0.6,0.7-0.9c-1.6-1.9-4.2-2.7-5.7-5.4c1.6,0.4,2.7,0.7,3.8,1c1.6-1.8,1.6-1.8-0.1-3.8c-1.5,0.4-3.2,0.9-4.9,1.4
		c-0.3-0.3-0.6-0.7-1.1-1.2c0.9-0.7,1.6-1.2,2.1-1.5c-0.2-0.6-0.2-0.9-0.4-1.6c1.4,0.7,2.4,1.2,3.2,1.7c1.8,0,3.4,0,5,0
		c-0.1-0.1-0.2-0.2-0.3-0.3c0.4-0.2,0.8-0.4,1.3-0.6c-1.2-1-2.2-1.8-3.7-3.1c2.2,0,3.8,0,5.2,0c0.5-0.6,0.8-0.9,1-1.1
		c-1.4-0.6-2.8-1.2-4-1.8c0-0.9,0-1.4,0-2.1c1.1,0,2.1,0,2.9,0c0.6-0.5,0.9-0.8,1.4-1.2c-0.4-1-0.8-2-1.1-3.1
		c-1.6-0.3-3.1-0.6-4.6-0.9c-0.3-0.7-0.9-1-1.4-1.5c-0.1-0.1,0-0.6,0.1-1c0.5,0.3,1,0.5,1.6,0.8c0.4-0.6,0.9-1.1,1.3-1.7
		c2.1,0.3,4,0.6,6.6,1c-0.6-1.4-1-2.2-1.5-3.2c-1.1,0.4-1.9,0.7-2.3,0.8c-0.8-0.7-1.5-1.2-2.5-2c1.2,0,2.1,0,3.8,0
		c-1.7-1-2.7-1.6-3.7-2.2c-0.9,0.8-1.7,1.5-2.5,2.2c0.5-2.2,1.6-4,1.2-5.9c1.2-0.6,2.2-1.1,3.4-1.7c-0.2-1.6,0.7-2.7,1.9-3.4
		c0.8-0.1,1.5-0.1,2.1-0.2c0.1,0,0.1-0.2,0.4-0.5c-0.6-0.9-1.7-1.1-2-1.3c-1.7,0.1-2.4,1.5-4.2,1c1.3-0.8,2.2-1.4,3.1-2
		c1.6,0,3.2,0,4.8,0c-0.1-0.2-0.3-0.3-0.4-0.5c0.5-0.1,0.9-0.3,1.6-0.5c-2-0.8-3.7,0.1-5.5-0.9c5.3-0.6,9.7-2.6,14.1-4.6
		c0-0.6,0-1.2,0-1.6C785.5,80.2,783.8,79.4,782,79.2z"/>
	<path class="st1" d="M364.3,407.5c0,0-0.1-0.3-0.2-0.5c-0.5,0-0.9,0-1.4,0c-0.4-1.1-0.8-2.2-0.9-2.7c-1.3-1.1-2.2-1.9-2.9-2.5
		c0-0.8,0-1.5,0-2.5c-0.9-0.3-1.8-0.6-2.8-1c0.3-1.3-1.2-2-1.2-2.8c-0.2-1.9-1.3-2.6-2.8-3.4c-1.1-0.5-2.1-1.3-2.9-2.2
		c-1-1.2-0.8-2.7-0.7-4.1c-1.8-1.6-1.4-3.7-1.4-4.8c-0.9-1.3-1.3-2-1.7-2.5c-1-0.1-1.8-0.1-2.5-0.1c0-1.7,0-3,0-3.8
		c-0.8-1.9-1.3-3.2-2.1-5.2c-0.9,2.1-1.5,3.6-2.2,5.1c0.3,0.3,0.5,0.6,0.8,0.8c-0.2,0.2-0.5,0.3-0.5,0.5c0,2.4,0,4.8,0,7
		c-1.6,1.3-1.1,4.1-3.7,4c-1.5-0.5-1.9-2.6-3.7-2.1c-1.9-1.5-3.7-3-5.6-4.6c0.3-1,0.6-1.9,0.8-2.7c-0.3-0.4-0.4-0.6-0.7-1
		c2,0.1,2-1.7,2.8-2.6c-0.3-0.3-0.7-0.7-1-1c-0.2,0.2-0.5,0.4-0.7,0.7c-0.3-0.2-0.5-0.4-0.7-0.6c-0.3,0.2-0.6,0.5-0.8,0.7
		c-2.1-0.7-4.1-1.4-6.1-2.2c-0.5,0.8-1,1.5-1.4,2.2c-0.9,0-1.6,0-2.4,0c-1,1.4-2,2.8-3.1,4.3c0.3,0.7,0.5,1.2,0.9,2.2
		c-1-0.4-1.8-0.7-2.4-0.9c-0.4,0.3-0.6,0.5-0.9,0.7c-0.6-1.9-2.6-2-3.3-3.4c-0.7,0.4-1.3,0.7-1.8,0.9c-0.1,0.4-0.2,0.7-0.2,1
		c-0.6,0.1-1.2,0.1-1.7,0.2c-0.7,1.4-1.4,2.7-2.1,4.2c-0.4,0-1,0-1.2,0c0.2,0.9,0.3,1.7,0.4,2.6c-0.6,0-0.9,0-1.2,0
		c-0.2-0.5-0.4-1-0.7-1.7c-0.7,0.6-1.1,0.9-1.6,1.4c0,0.9,0,1.9,0,2.8c-1.4,1.4-2.6,2.6-3.9,3.9c-1.6-0.1-3.3-0.1-4.7,1.2
		c-1.3,1.1-2.9,0.9-4.4,0.9c-1.7,1.8-3.5,3.2-6.1,3.8c0.3,0.8,0.6,1.6,0.9,2.5c-0.5,1-1,2.1-1.6,3.2c0.8,1.3,1.6,2.6,2.5,4.1
		c-0.9,0.2-1.6,0.3-2.5,0.5c1.2,2.5,2.3,4.8,3.6,7.6c-0.4,1.7,0.7,3.8,1.6,5.7c0.5,1.2,0.7,2,0.3,3.1c-0.3,0.8-0.4,1.7-0.7,3.4
		c-0.1,0-0.5,0.3-0.9,0.5c1.1,1.1,2.1,2.1,3,3.1c1.2,0,2.4,0,3.2,0c1.8-1,3.3-1.9,4.8-2.8c1.2-0.6,2.3-1.2,3.7-0.3
		c0.6,0.4,1.7,0.1,2.5,0c0.7-0.1,1.4-0.5,2-0.6c1-2.2,3.3-2.6,4.8-4c1.4,0,2.8,0,3.9,0c2.7-1.4,5.2-2.2,8-2.1c1.6,2,4,1.3,5.8,2.4
		c0,0.8,0.1,1.6,0.1,2.4c0.7,0.4,1.4,0.8,2,1.2c0,0.7,0,1.4,0,2.1c0.3,0.3,0.7,0.7,1,1c1-0.8,2.1-1.7,3.2-2.6
		c0.3-0.7,0.7-1.5,1.2-2.4c0.5,0.2,0.7,0.4,1,0.5c-0.7,1.7-1.3,3.4-2.3,5.7c1.2-0.9,1.9-1.5,3-2.3c0,1.4,0,2.3,0,3.1
		c0.8,0.1,1.3,0.2,2,0.2c0.5,0.9,1.1,1.9,1.6,2.7c-0.3,0.5-0.6,0.8-0.8,1.2c0.3,0.7,0.7,1.4,1,2.1c2.7,1,5.5,2,8.3,3.1
		c0.8-0.8,1.5-1.5,2.1-2.1c1.1,1,2.1,1.8,3,2.6c1.6-0.9,3.3-1.7,5.4-2.8c0.4,0,1.4,0,2.3,0c1.5-1.9,0.8-4,1-5.7
		c0.6-0.8,1.3-1.4,1.3-1.9c-0.1-1.6,0.7-2.7,1.4-4c0.4-0.6,0.4-1.5,0.9-2.1c0.4-0.5,1.1-0.5,1.3-1.5c0.4-1.8,1.1-3.5,1.4-5.4
		c0.6-4.1,0.7-4.1,0-8.5C363.6,409.7,363.2,408.4,364.3,407.5z"/>
	<path class="st1" d="M614.4,93.9c-1.9,1-3.1,1.6-4.3,2.2c1.9,1.4,3.7,2.8,5.4,4.1c1.3-0.1,2.6,0.2,3.5-0.3c1.2-0.7,2,1.2,3.2-0.3
		c0.2-2,2.9-2.4,3.5-4.3c0.9,0,1.7-0.1,2.5-0.1c0.5-0.8,1-1.5,1.6-2.4c1.2,2.6,3.1,4.1,5.4,5.1c-2.8,0.2-5.2-2.1-8.4-0.9
		c-2.1,1.2-2.7,1.8-2.7,2.8c0.7,0.4,1.4,0.8,1.9,1c1.1-0.3,1.9-0.5,3-0.8c-0.4,2.1,1.1,2.8,2,3.9c0.2,0.2,0,0.6,0,1
		c-0.6,0-1.1,0-1.7,0c-0.9-1.2-1.8-2.4-2.6-3.4c-1,0-1.5,0-2.2,0c-0.4,0.5-0.8,1-1.3,1.6c0.9,0.6,1.7,1.1,2.4,1.6
		c-1.5,1.5-3.7,1.1-5.6,2c0,0.6,0.1,1.2,0.2,1.8c2.3,0,4.4,0,5.8,0c1.8,0.7,3,1.1,4.8,1.9c0.3-0.7,0.5-1.4,0.7-1.9
		c2.1,0,3.8,0,5.4,0c1.1,0.7,2.1,1.4,2.8,1.9c1.7-0.7,3.2-1.3,4.7-1.9c0.9-0.3,1.6-0.7,1.4-2.2c-2.1,0.5-3.9-0.3-5.5-1.4
		c-2,1-3,0.8-3.4-0.3c0.3-0.4,0.6-0.7,0.7-0.8c2.6,0.8,5,0.8,7.3-0.3c0.1-0.1,0.2-0.4,0.3-0.7c-0.2-0.3-0.5-0.6-0.7-1
		c0.3-0.3,0.7-0.7,1-1c1.4,0,2.8,0,4.2,0c1.3-1.3,2.9-2.5,3.2-4.5c-0.4-0.4-0.7-0.7-1.2-1.2c-1.4,0-2.8,0-4.4,0c0-0.4,0-0.8,0-1.2
		c2,0,4,0,5.9,0c0.8-1.1,1.4-2,1.9-2.7c1.5,0.3,2.6,0.4,3.8,0.6c0.5-0.9,0.9-1.5,1.1-1.9c1.6-0.9,3-1.5,4.2-2.3
		c2.7-1.9,5.4-3.6,8.7-4.3c1-0.2,1.6-0.7,1.4-2.1c-1.8,0.2-3.5-0.4-5.3,1.1c-0.1-0.8-0.1-1.2-0.2-1.7c2.4,0,4.5,0,6.5,0
		c2.3-1.3,4.4-2.4,6.5-3.6c0.1-0.1,0.1-0.3,0.2-0.4c-0.3-0.3-0.5-0.5-0.6-0.6c-1,0.1-1.9,0.4-2.6,0.1c-0.8-0.3-1.9-0.6-2-1.6
		c-1.2-0.3-2.4-0.8-3.6-0.9c-1.2-0.1-2.5,0.3-3.9,0.5c0.4-0.4,0.4-0.4,0.6-1.2c-1.8,0-3.6,0.3-5.2-0.1c-1.6-0.4-3.1-1.3-4.6,0
		c-0.9-0.5-1.7-0.9-2.6-1.4c-1,0.7-2,1.4-3.1,2.1c-0.1-0.1-0.2-0.3-0.4-0.3c-2.3-0.2-4.7-0.6-7,0.2c-1,0.3-2.2,0-3.3-0.1
		c-0.8-0.1-1.5-0.3-2.3-0.4c-0.2,0-0.4,0.2-0.5,0.3c-0.1,0.4-0.1,0.7-0.2,1.2c-0.7-0.3-1.2-0.5-1.8-0.7c-0.1,0.7-0.2,1.3-0.3,2.1
		c-1.1,0-2.2,0-3,0c-0.6,0.6-1.1,1-1.4,1.3c-2,0.1-3.1-2-5-1.3c-0.1,0.4-0.3,0.8-0.4,1.2c-0.6,0.1-1.2,0.1-1.5,0.1
		c-0.5,0.8-1,1.4-1.3,1.9c-1.2-0.6-2.3-1-3.4-1.6c-0.8,1-1.5,1.8-2.1,2.6c-0.5-0.4-0.8-0.9-1-0.9c-1.5,0.2-3,0.6-4.5,0.9
		c0.1,0.4,0.1,0.7,0.2,1.3c1-0.3,1.9-0.6,2.8-0.9c0.1,0,0.3,0.2,0.4,0.4c-0.2,0.2-0.4,0.5-0.6,0.7c0.5,0.2,1,0.4,1.5,0.7
		c-0.3,0.6-0.5,1.1-0.8,1.5c1.1,0.8,2.2,1.5,3.6,2.4c1.3-0.2,2.9-0.5,4.4-0.7c0.4,0.6,0.8,1.3,1.4,2.1c2.4-0.3,4.8-0.8,7.1-0.8
		c2.4,0,4.5-0.7,6.3-1.8c0.2-0.5,0.3-0.7,0.5-1.1c0.5,0.5,0.7,0.7,1.1,1.1c-1.1,0.8-2.1,1.6-3.3,2.4c-1.4,0-2.8,0-4.3,0
		c0.1,0.1,0.2,0.3,0.3,0.4c-0.4,0.1-0.8,0.3-1.4,0.5c1.5,1.1,2.6,1.9,4.1,3c-2.9,0.5-4.2-1.3-5.7-2.7c-1.9-0.3-3.8-0.5-5.2-0.7
		c-1.5,1.1-1.4,2.2-1.2,3.1c0.8,0.6,1.4,1,2.3,1.7c-1.3,0-2.2,0-3.1,0c0-0.9,0-1.6,0-2.2c-0.5-0.5-0.9-1-1.4-1.4
		c0.2-0.3,0.4-0.5,1-1.3c-1.6,0.4-2.6,0.6-3.7,0.9c-0.4-0.6-0.8-1.3-1.3-2c-2.4-0.7-4.8-1.7-6.7-3.8c-0.6-0.7-2-1.9-3.6-0.6
		c0.3,0.5,0.5,0.9,0.8,1.5c-0.7,0.1-1.3,0.2-2.2,0.3c0.3,0.7,0.5,1.2,0.8,1.9c-0.9,0-1.7,0.1-2.4,0.1c-0.4,0.4-0.8,0.8-1.2,1.3
		c0.7,1.2,1.4,1.7,2.6,1.5c0.1,0,0.2,0.3,0.3,0.4c-0.3,0.3-0.7,0.6-1.1,1c-0.7-0.3-1.3-0.6-2-0.8c-0.2,0.2-0.3,0.4-0.5,0.5
		c0.8,1.3,1.7,2.5,2.6,3.9C609.7,93.9,611.6,93.9,614.4,93.9z"/>
	<path class="st1" d="M659.6,132.2c-1.5-0.1-3.1-0.2-4.4,0.8c-2.1-2.7-2.1-2.7-3.3-3c-1-1.1-1.7-2-2.3-2.7c-1.8,0-3.4,0-4.9,0
		c-0.5,0.7-1,1.4-1.5,2.1c-0.6-0.6-1-1-1.3-1.3c-1.1,0.3-1.9,1.5-3.5,1.1c2.3-3.2-0.2-5.2-1.5-7.7c-3.2,0.9-6.5,1.5-8.6,3.9
		c-0.4,1.6,0.6,2.1,1.3,2.9c-0.5,0.6-1,1.1-1.5,1.6c0.5,1.3,2.6,1,2,3c-1.2-0.8-2.3-1.6-3.1-2.2c-0.2-1.6-0.4-2.8-0.6-4
		c0.4-1.9,1.7-3.4,3.5-4.7c-2.5-1-4.5,0-6.5,0.5c-4.8,4.6-4.8,4.7-4,10.2c1.7,0.3,3.5,0.7,5.3,1c-0.3,0.4-0.6,0.7-0.9,1
		c-1.1-0.7-2.1-0.9-3.2-0.3c0,0.6,0,1,0,1.5c1.3,0.6,2.5,1.2,3.6,1.7c0.6-0.4,0.9-0.6,1.3-0.9c0.7,0.6,1.2,1.1,1.7,1.6
		c1.1,0,2-0.1,2.9,0c0.8,0.1,1.7,0.5,2.5,0.7c0.9,0.2,1.9,0.8,2.8,0.6c1-0.1,1.9-0.9,2.9-1.3c0.2-0.1,0.5,0,0.7,0
		c2.1,0.8,3.9,1,4.6,0.1c-0.5-0.4-1.1-0.7-2.1-1.4c1.2,0,1.7,0,2.4,0c0.8,0.8,1.6,1.8,2.6,2.6c1,0.8,2.2,1.3,3.5,2.1
		c-0.9,0.7-1.6,1.2-2.4,1.8c0.1,0.2,0.2,0.4,0.3,0.5c0.9-0.3,1.8-0.5,2.9-0.9c0.4,0.7,0.9,1.4,1.3,2.1c0.4,0,0.9,0,1.3,0
		c0.9,0.8,1.7,1.6,2.4,2.3c0,1.7,0,3.1,0,4.4c-1.2,0.4-2.2,0.7-3.5,1.2c0.2,1.3,0.5,2.5,0.7,3.9c-0.9,0.5-1.9,1.1-2.5,1.4
		c-1.9-0.3-3.4-0.5-4.6-0.7c-0.8,0.8-1.3,1.3-1.8,1.8c0,0.8,0,1.5,0,2.4c2.3,0,4.6,0,6.8,0c0.1-0.5,0.2-0.8,0.2-1.1
		c1.3-0.6,2.5-0.1,3.5,0.6c0.9,0.6,1.5,1.6,2.6,2.9c0.2,0.5,0.6,1.6,0.8,2.3c0.9,0.5,1.3,1.1,1.8,1c2-0.1,3.3,1,4.8,2
		c1.4,1,3,2,5.1,2.1c0-0.6,0-1.1,0-1.8c-1.7-1.7-3.5-3.5-5.3-5.3c-0.1-0.1-0.1-0.2-0.1-0.2c0-0.1,0.2-0.2,0.4-0.4
		c1.6,1,3.3,1.9,4.8,2.9c1,0,1.9,0,2.7,0c0.9-0.7,1.5-1.8,0.9-2.4c-1.3-1.3-1.4-3-2.2-4.4c-2-0.2-3.6-1.1-4.7-2.7
		c-0.6-0.9,1.2-1.7,0.1-2.6c0.3-0.4,0.7-0.9,1-1.2c1.4,0.7,2.5,1.2,3.7,1.8c0.5,1.8,2.2,2.5,3.1,3.8c1.3-0.1,0.8-1.9,2.2-2.1
		c0.8-0.1,1.3-1.7,2-2.5c0.7-0.8,1.6-1.3,2.4-2c-0.2-0.2-0.5-0.5-1-1c-0.9,0-1.9,0-2.7,0c-1.3-1.6-2.4-2.9-3.2-3.9
		c-3.3-0.6-6-1.7-8.3-3.2c0-0.8,0-1.2,0-1.7c0.9-0.1,1.8-0.3,3.2-0.5c-1.3-0.3-2-0.5-3.1-0.8c0.8-0.9,1.4-1.5,1.8-2
		c-0.6-1.3-1.9-1.1-3-1.1c-0.1,0-0.2-0.3-0.3-0.3c0.2-0.4,0.5-0.8,0.7-1.2c-0.4-0.4-0.7-0.8-1.2-1.3c-0.9,0-2,0-3,0
		c-0.1-0.6-0.2-0.9-0.3-1.3c-1.2-0.3-2.1,1.7-3.3,0.3C658.5,134,660,134,659.6,132.2z"/>
	<path class="st1" d="M352.9,359.7c-1.3-2-3.6-2.2-4.9-3.1c-0.4-0.7-0.5-1.1-0.8-1.4c-2-1.8-4.2-3.1-6.7-4c-2.5-1-5.1-1.7-7.5-2.9
		c-1.1-0.5-2.1-0.8-2.7-0.6c-1.4,0.9-2.8,1.4-3.3,2.4c-0.6,1.4-1.7,1.4-2.9,2c-0.4-2-0.7-3.7-1.1-5.7c-0.3-0.3-0.9-0.9-1.5-1.5
		c-1.1,0-2.3,0-3.3,0c-0.9,0.6-1.7,1.2-2.6,1.7c0.8,0.7,1.6,1.4,2.7,2.4c0.2,0,0.9,0.1,2.1,0.4c-1,0.7-1.4,1-2,1.4
		c0.5,0.8,1.1,1.7,1.7,2.7c0.5-0.3,0.9-0.5,1.2-0.7c3.5,1.4,6.9,2.8,9.9,4c0.7,1.7,1.3,3,1.9,4.5c-1.2,0.4-2.3,0.9-2.7,2.4
		c2,0,3.9,0,5.9,0c0.4,0.7,0.8,1.4,1.1,1.9c1.3,0.3,2.4,0.6,3.6,1c1-1.2,1.9-2.3,3.1-3.6c2.1-0.4,4.3,0.4,5.5,2.5
		c0.7,1.3,1.9,2,2.4,2.9c2.1,0.3,4.1,0.6,6,1c-1.2-1.5-2.2-3-3.9-3.8c-1.8-0.9-1.6-3.3-2.9-4.7c0,0,0-0.2,0-0.3
		C351.6,360.3,352.1,360.1,352.9,359.7z"/>
	<path class="st1" d="M267.9,340.8c0.6,0.6,1.1,1.2,1.6,1.8c0,0.7,0,1.4,0,2.1c0.7,0.7,1.4,1.3,2,2c0,0.7,0,1.4,0,2.1
		c0.5,0.5,0.9,1.1,1.5,1.5c0.6,0.4,1.4,0.6,2.1,0.7c1.5,0.2,2.9,0.2,4.8,0.4c0.2,0.3,0.6,0.8,1.2,1.6c1.3-0.8,2.5-1.5,3.7-2.2
		c0-1.2,0-2.4,0-3.5c0.7-0.7,1.4-1.4,2.1-2.1c0-0.9,0-1.9,0-3c1.2-0.6,2.3-1.1,3.5-1.6c-0.8-1-2-1.7-2-2.6c-0.1-1.3-0.9-1.7-1.5-2.5
		c0.3-0.4,0.5-0.7,0.7-1c-0.3-0.5-0.5-0.8-0.7-1.2c1.5-0.3,4-1.8,4.1-2.7c-0.3-0.1-0.8-0.4-1.4-0.6c0.1-0.1,0.3-0.3,0.4-0.4
		c-0.8,0-1.6-0.1-2.4-0.1c-0.1-0.4,0-0.8-0.2-1c-0.3-0.4-0.6-0.7-0.9-0.9c-0.9,0-1.7,0-2.1,0c-0.8,1.5-1.4,2.7-2.1,4.1
		c-0.9,0-2,0-3.2,0c-0.6,1.4-1.2,2.8-1.9,4.3c-1.1,0-2.4,0-3.6,0c-0.1,1.2-0.1,2.3-0.2,3.6c-1.4-0.7-2.6-1.2-3.8-1.8
		C269.1,338.9,268.5,339.8,267.9,340.8z"/>
	<path class="st1" d="M138.3,375.8c-0.1,0.9-0.1,1.7-0.1,2.6c-2.5,1.1-4.7,2.7-7.5,3c-0.3,1.9-0.6,3.8-0.7,5.6
		c-0.1,2,1.3,3.8,0.5,5.9c-2.3,2.7-2.4,3.1-1.2,8.3c0.5,2.3,2.1,3.8,4.1,4.3c1-0.3,1.7-0.5,2.7-0.9c0.5-1.1,1.1-2.2,1.5-3.4
		c0.4-1.1,0.1-2.7,0.8-3.4c1.1-1.1-0.1-2.9,1.3-3.7c0.5-2.7,1.6-5.2,2.1-7.8c0.3-1.9,0.6-3.9,0.9-5.8c0.5,0.3,0.8,0.5,1.2,0.9
		c0-4-0.7-7.1-2-9.3C139.7,372.5,141,376.1,138.3,375.8z"/>
	<path class="st1" d="M147.2,129.6c0.6,0.4,1.3,0.6,1.7,1.1c0.4,0.4,0.6,1,0.9,1.6c0.8-0.4,1.4-0.7,1.9-1c0.4,1,0.7,1.9,1.2,3
		c2.7-0.6,5,1.5,8,0.1c-0.8-0.9-1.5-1.7-2.5-2.4c-0.8-0.6-1.4-1.6-2-2.3c0-1,0-2.1,0-2.9c1-1.3,2.2-2.3,2.7-3.6
		c0.5-1.2,1.9-1.9,2-3.3c1.6-0.4,2.4-1.5,2.2-3.1c1.4,0,2.6,0,3.7,0c3-3.2,6.9-4.5,10.9-5.6c2.6-0.7,5.3-1.2,7.5-2.9
		c0-0.6,0-1.1,0-1.7c-0.6-0.3-1.2-0.6-1.6-0.8c-1.9,0.8-4.3,0.5-5.3,2.2c-2.2,0.5-4.1,1-6.2,1.5c0,0-0.2-0.3-0.5-0.4
		c-0.7-0.1-1.4-0.2-2.1,0c-2.4,0.8-4.8,1.7-7.1,2.5c-0.1-0.1-0.3-0.3-0.7-0.6c-0.6,0.8-1.3,1.6-1.8,2.2c-1,0.1-1.8,0.2-2.7,0.3
		c0.4,0.9,0.7,1.4,0.9,2c0,0.1,0,0.2-0.1,0.4c-0.3,0.1-0.6,0.1-1,0.2c-0.4,0.9-0.9,1.8-1.4,2.7c-0.6,0-1.2,0.1-1.8,0.1
		c0,1.2,0,2.3,0,2.7c-1.4,1.3-2.5,2.2-3,2.7c-0.7,1.7-1,2.7-1.4,3.6C148.4,127.9,147.5,128.3,147.2,129.6z"/>
	<path class="st1" d="M24.3,190.5c-0.2,0.2-0.4,0.4-0.6,0.6c0.5,0.4,1,0.8,1.5,1.1c0.5-0.4,0.8-0.6,1.4-1c-0.1,0.9,0,1.5-0.2,2
		c-0.1,0.5-0.4,0.9-0.9,1.8c1.6-0.2,2.7-0.4,3.8-0.5c0,0.5,0,1,0,1.4c0.5,0.5,0.9,1,1.2,1.3c-0.3,0.9-0.5,1.6-0.8,2.7
		c-0.8,0-1.6,0-2.7,0c0.3,1.1,0.6,2,0.9,3c-0.7,0.6-1.5,1.2-2.8,2.3c1.8,0.1,2.9,0.1,4,0.2c-0.1,0.1-0.1,0.2-0.2,0.3
		c0.4,0.2,0.8,0.4,1.2,0.6c0,0.1-0.1,0.3-0.1,0.4c-0.9,0-1.7,0-2.6,0c-0.4,0.8-0.7,1.4-1,1.9c-0.3,0.5-1.1,0.7-1.1,1.5
		c1.4-0.3,2.7-0.6,4-0.9c0.3-0.3,0.7-0.8,1.1-1.2c2.4,0,4.7,0,7,0c0.9-0.6,1.7-1.1,2.7-1.7c-0.6-0.3-1.1-0.5-1.4-0.7
		c0.9-1.2,1.8-2.4,2.6-3.5c-0.8-1.7-2.2-0.9-3.3-1.3c-0.6-1.8-1.1-3.6-1.5-5c-1-0.7-1.5-1-2.1-1.4c0-0.8,0-1.6,0-2.1
		c-1.3-0.9-2.4-1.6-3.7-2.5c1.2-1.4,2.5-2.6,2.4-4.3c-0.4-0.6-0.8-1-1.1-1.4c-1.4,0.3-2.5,0.6-3.6,0.9c0.8-1.4,1.8-2.5,1.7-4.9
		c-0.6,1.1-0.9,1.7-1,1.8c-1.3-0.2-2.1-0.4-2.5-0.4c-0.8,1.6-1.4,2.9-2,4.1c-0.6-0.3-0.9-0.4-1.2-0.6c-0.1,0.1-0.2,0.3-0.3,0.4
		c0.5,0.7,1,1.4,1.5,2C23.1,188.6,23.9,189.6,24.3,190.5z"/>
	<path class="st1" d="M63.7,93.2c-1.3,1.1-0.8,2.2-0.8,3.1c1.7,1.7,3.5,2,5.5,1.5c0.1-1.3,1.2-1.8,2-2.8c0.2,1,0.2,1.6,0.4,2.4
		c0.6-0.6,1.1-1,1.6-1.5c0.3,0.3,0.7,0.7,1,1c-1.8,1.6-4.6,1.5-6.7,3.4c2.3,1.1,4.2-1.2,6.1,0.4c-2-0.3-3.4,0.7-5.2,1.2
		c0.9,1.7,2,2.5,3.6,2.5c0.1,1.4,1.2,1.9,1.9,2.7c0.4-0.5,1-0.8,1-1.2c0-1.9,1-3.2,2.3-4.3c1-0.8,1.4-2,1.9-3.1
		c0.8-2,1.7-2.6,4.3-2.4c-0.6,0.3-1,0.5-1.8,0.8c0.9,0.7,1.7,1.4,2.5,2c-0.3,1.1-0.6,2-1,3.2c1.1-0.2,1.9-0.3,2.8-0.5
		c0.2,0.2,0.6,0.6,1.1,1.1c0.4,0,0.9,0,1.7,0c0.6-0.6,1.4-1.5,2.1-2.4c0.2-0.2,0-0.6,0-1.2c-0.9,0.3-1.5,0.6-2.3,0.9
		c-0.5-0.7-0.9-1.5-1.9-1.9c-0.8-0.3-0.7-1.6-1.9-2c-0.7-0.2-1.1-1.5-1.7-2.3c-2.2-0.5-4.4-0.6-5.3-3c-0.6,0.3-1,0.4-1.8,0.8
		c0.4-0.9,0.7-1.4,0.9-2c-1.3-0.5-2.6-1-3.9-1.5c-0.3,0.6-0.5,1.2-0.8,1.7c1.2,2.2,1.2,2.2,0.7,4c-0.8-1.7-1.4-3.1-2-4.5
		c-1.7,0.3-1.5,1.8-1.7,2.4c-0.5-0.2-1.1-0.4-1.5-0.6c0.4-0.8,0.6-1.3,0.8-1.7c-2.5-0.1-5-0.5-6.8,1.6c0.3,0.6,0.5,1.1,0.8,1.8
		C62.2,93,62.7,93.1,63.7,93.2z"/>
	<path class="st1" d="M543.3,130.8c0.2,0,0.9,0,1.7,0c0.9,1.2,1.8,2.4,2.7,3.6c1.8-0.8,3.2-1.9,4.6-1.5c1.8-0.9,0.9-2.3,1.6-3
		c1-1,1.9-1.9,3.2-3.2c0.5-0.1,1.5-1,2.6-0.7c-0.7,0.7-2,1.5-2,2.2c0,1.4-1.6,1.7-1.5,2.9c0.9,0.6,1.8,1.2,2.6,1.8
		c0.8,0.1,1.5,0.2,2.9,0.3c-1.6,0.7-3.3,0.2-3.3,2.1c2.1,1.2,2.1,1.2,3.6,1.2c2.9,0,5.8,0,8.7,0c0.3,0.5,0.9,0.6,0.8,1.4
		c-2.4,0-4.7,0-7,0c-1.8,0-3.3,0.5-4.8,1.9c1.3,0.9,2.4,1.6,3.4,2.4c1.4,0,2.8,0,3.8,0c0.9,1.1,1.6,1.9,2.1,2.6
		c1.4,0.3,2.7-0.3,3.7,0.7c1-1.2,2.4-0.3,3.5-0.7c1.4-1.2,3-1.5,5.1-1.2c0.5-0.7,1.1-1.5,1.6-2.1c1.7,0.9,3.1,1.7,4.9,2.7
		c1.8-0.1,4.2,0.6,6.2-1c0-0.6,0-1.1,0-1.9c-1.2,0-2.3,0-3.4,0c0-0.2,0-0.3,0-0.5c1.6-0.4,3.3-0.8,5.1-1.2c-1.6-3.3-5.5-3.1-7.8-5.5
		c0-0.9,0-1.9,0-3.5c-0.3-0.1-1-0.4-1.3-0.6c0-1.8,0-3.1,0-4.4c0.5-0.5,0.9-0.9,1.5-1.5c-0.3-0.7-0.6-1.5-1.1-2.6
		c-1.5,0.5-2.8,0.9-4.7,1.4c1,0.7,1.5,1,2,1.4c-0.1,0.1-0.1,0.3-0.2,0.4c-1-0.2-2-0.3-3.2-0.5c-0.1,0.1-0.3,0.3-0.7,0.7
		c0,0.9,0,1.9,0,3c1.2,2.1,1.2,2.1,0.9,3.6c-0.6,0-1.1,0-1.7,0c0.2-3.4-1.6-5.2-4.7-6.3c-0.1,0.5-0.2,0.9-0.2,1.3
		c0.7,0.4,1.9,0.2,1.2,1.6c-0.7,0-1.5,0-2.3,0c-0.5-2.1-2.3-2.5-4.3-2.8c-0.4,1-0.8,1.9-1.2,2.8c-0.6,0-1.1,0-1.8,0
		c0.6-0.7,1.1-1.3,1.8-2.1c-0.5-0.7-1-1.4-1.4-2c-1.5,0.3-2.6,0.5-3.8,0.8c0.5-0.7,1-1.4,1.5-2.2c-0.8-0.6-1.5-1.3-2.4-1.8
		c-1.2-0.6-2.4-1.1-3.8-0.9c-2.3,0.3-4,0.2-5.4-0.7c-0.7-0.5-1.4-0.8-2.2-0.6c-2.2,0.4-4.4,1-7.3,1.6c1.3,1,2,1.6,2.8,2.2
		c-1.5,1.4-2.4,2.9-2.1,4.9c-0.8,0.8-1.5,1.6-2.5,2.7C542,130,542.5,130.3,543.3,130.8z"/>
	<path class="st1" d="M262.5,350.8c0.5-0.2,0.9-0.3,1.5-0.6c-0.7-1.3-0.7-3-3.1-3.3c0.6,0.9,1,1.4,1.5,2c-2.4-0.9-3.8-2.8-5.5-4.3
		c0.4-0.5,0.5-0.8,0.8-1.1c-1.9-2.4-3.2-5.5-7.5-5.7c-0.3-3.5-4.3-3.7-5.3-6.6c-0.1-0.2-0.7-0.1-0.9-0.3c-0.6-0.6-1.3-0.7-2.2-0.7
		c-0.8-0.1-1.5-0.4-2.3-0.7c-0.2,0.2-0.4,0.4-0.6,0.6c1.3,1.1,1.7,2.7,3,3.8c1.4,1.2,2.3,2.9,3.9,3.9c0.3,0.2,0.2,1.1,0.5,1.5
		c0.9,0.9,0.4,2.4,1.4,3.3c2,1.7,3,3.7,3.4,5.8c1.3,1.7,2.3,3.2,3.5,4.5c1.2,1.3,2.7,2.4,4.2,3.8c0.9,0,2.1,0,3.5,0
		C262.5,354.6,262.5,352.6,262.5,350.8z"/>
	<path class="st1" d="M618.7,118.2c0.2,0,0.9,0,2.2,0c0.1-0.2,0.4-0.8,0.7-1.5c0.6,0.6,1,1,1.4,1.4c2.3,0.4,4.8-0.5,6.6,0.6
		c2.2-0.6,4.2-2,6-1.1c2.1,1.1,3.6,0.3,5.3-0.5c0.3-1.2,0.6-2.4,0.8-3.4c-2.7-2.3-6-0.2-8.1-1.6c-3.3-0.1-6,2.3-8.8,0.5
		c-1,0.3-1.7,0.5-2.3,0.7c-0.6-0.6-1.1-1.1-1.5-1.4c-0.7-0.2-1.2-0.3-1.8-0.4c0,0,0-0.2-0.1-0.6c0.4-0.4,0.9-1,1.6-1.7
		c-2.3-0.4-4.2-2.6-6.9-1c-1.1-0.6-2.4-1.2-3.9-2c-0.6,0-1.6,0-2.5,0c-1,0-2,0.1-3.4,0.2c1.6,2,3.6,2.2,5.2,3.2
		c0.6,0.4,1.8-0.2,3-0.3c0.8,1,1.8,2.2,2.4,3c-0.2,1.5-0.3,2.5-0.4,3.5C615.8,116.7,617,117.3,618.7,118.2z"/>
	<path class="st1" d="M781.8,154.6c-0.7-0.1-1.3-0.1-1.8-0.2c-0.4-0.4-0.9-0.9-1.3-1.3c-0.8,0.7-1.6,1.5-2.4,2.2
		c-0.5-0.3-0.9-0.5-1.1-0.6c-0.4,0.2-0.8,0.5-1,0.6c-0.8-0.3-1.3-0.6-1.9-0.8c-0.2,0.7-0.4,1.1-0.5,1.4c-0.5-0.3-1-0.5-1.6-0.9
		c-0.1,0.9-0.2,1.5-0.3,2.1c-0.6,0.3-1.2,0.6-2,0.9c0-1,0-1.8,0-2.7c-1-0.6-1.9-1.1-2.6-1.5c-2,0.3-2.4,2.2-3.6,3.2
		c0.1,0.1,0.2,0.2,0.2,0.2c0.2,0.2,0.5,0.5,0.7,0.7c1-0.2,2-0.5,3.1-0.8c0,0.9,0,1.5,0,2.2c-0.9,0-1.8,0-2.7,0
		c0.2,0.3,0.3,0.5,0.5,0.8c-0.5,0-0.9,0.1-1.4,0.1c0.1,0.2,0.3,0.4,0.4,0.5c0.8-0.2,1.6-0.4,1.7-0.4c1,1,1.7,1.7,2.4,2.4
		c-0.3,0.1-1,0.2-1.6,0.3c0.1,0.4,0.1,0.8,0.3,1.4c1-0.3,1.9-0.6,2.8-0.9c0.7,0.4,1.4,0.7,2,1.1c1.7,1.2,3.5,1.2,5.2,0.1
		c1.1-0.7,2.2-1.8,3.4-1.9c3-0.3,4.3-2.5,6.3-4.4c-1.1-0.9-2.1-1.7-3.1-2.5C781.9,155.7,781.9,155.2,781.8,154.6z"/>
	<path class="st1" d="M562.5,110.4c0.4,0.6,0.6,0.9,0.9,1.4c-0.7,0.1-1.3,0.2-1.9,0.3c-0.3,1.1-0.6,2.1-0.9,3.2
		c1.6,0.4,3.1,0.7,5.1,1.1c0.6-0.6,1.3-1.3,1.8-1.8c0,0,0.1,0.3,0.2,0.7c1.2,0.5,2.3,0.1,3.4-0.5c0.1-0.1,0.4,0.2,0.6,0.3
		c0,0.2,0,0.4,0.1,0.9c-1.3,0.4-2.6,0.8-4.3,1.2c-0.1,0.2-0.5,0.8-1.1,1.8c3-0.3,5.5,0.4,7.9-1.4c1-0.8,2.4-2.5,4.2-0.9
		c1.7-1.3,3.6-0.1,5.1-0.9c0.8-0.5,1.6-1,2-1.3c0-1.1,0-1.7,0-1.7c-0.8-1.1-1.3-1.6-2.4-3c-0.3,0.9-0.5,1.6-0.6,2.1
		c-2.7-0.9-3-3.3-4.2-5.1c-1.1,0.9-2.2,1.7-3.4,2.6c0.8,0.3,1.2,0.4,1.8,0.6c-0.3,0.6-0.6,1-1.1,2c0.4,0.2,1.1,0.5,1.7,0.7
		c-0.1,0.1-0.1,0.2-0.2,0.3c-1,0-2,0-3,0c-1.4-1.1-2.7-2.3-4.1-3.5c-1.1,0-2.1,0-3,0c-0.6-0.6-1.1-1-1.7-1.6c-0.6,0.6-0.9,1-1.4,1.3
		C563.6,109.8,563.1,110.1,562.5,110.4z"/>
	<path class="st1" d="M331.7,250.1c-0.5-0.3-1.1-0.6-1.6-0.8c-1.4,0.5-1.2,1.6-1.5,2.5c-0.3,0.9-1,1.6-1.4,2.2
		c-2.4-1.1-4.5,1.1-6.2,0.3c-1.5,1.1-2.8,2-4,3c-0.2,0.1,0,0.6,0,1c0.9,0,1.7,0,3,0c0.1-0.2,0.4-0.9,0.5-0.9
		c1.8-0.4,3.1-0.8,4.4-1.1c0.3-0.1,0.6,0.1,1.1,0.1c0,0.9,0.1,1.8,0.1,2.7c0.7,0,1.2,0,1.8,0c0.6-0.8,1.4-1.7,2-2.6
		c0.2,0.2,0.5,0.6,0.8,0.5c2.5-0.4,4.9-1,7-2.3c0.4-2.7,0.7-5.3,1.1-8.1c0.6-0.5,1.3-1.2,2-1.8c-0.2-2.4-0.3-4.8-2.1-7
		c-0.7,1-1.2,1.7-2,2.9c0.8,1.9-1.3,3.9-1.6,6C333.9,247.9,332.8,249,331.7,250.1z"/>
	<path class="st1" d="M409.6,450.1c-0.3-0.5-0.6-1-0.9-1.5c-0.6,0.4-1,0.7-1.1,0.8c-0.8-0.2-1.5-0.4-2.2-0.6
		c-0.8,1.3-1.7,2.5-2.3,3.8c-0.7,1.5-1.7,2.5-3.1,3.4c-2,1.2-3.9,2.7-5.5,4.5c-0.9,1-1.6,2.1-1.4,3.5c1.1,0.4,2.2,0.8,3.3,1.3
		c2.2,1,3.9,0.5,5-1.6c0.9-1.7,1.5-3.5,2.3-5.3c1.2-0.8,2.1-1.1,2.9-2.2c1.2-1.6,1.2-3.8,3.2-4.7c-0.3-0.3-0.5-0.5-0.7-0.7
		C409.3,450.4,409.5,450.2,409.6,450.1z"/>
	<path class="st1" d="M595.3,126.6c-0.6-0.5-1.3-1-2.1-1.6c-0.6,0.6-1,1.1-1.6,1.7c0.9,0.7,1.6,1.3,2.4,2c0.2,0,0.6,0,1.1,0
		c0.1-0.1,0.3-0.3,0.4-0.4c1.4,1.5,2.8,3,4.3,4.7c1.6-1.2,4-1.4,5-2.9c0.4-1.9,0.6-3.3,0.9-4.7c-0.3-0.3-0.6-0.6-1-1
		c-0.2,0.5-0.3,0.9-0.5,1.3c-0.9,0-1.7,0-2.6,0c0-0.6,0-1.1,0-1.4c1-0.8,1.9-1.5,2.7-2.2c-0.9-0.7-1.7-1.2-2.4-1.7
		c-0.9,0-1.7,0-2.6,0c0.4,0.4,0.6,0.7,1.2,1.3c-1.1-0.2-1.8-0.2-2.5-0.4c-1.2-0.4-3.1,0.1-3.5,1c0,0.5,0.1,1,0.2,1.6
		c1,0,1.8,0,2.6,0C597.3,126.1,597.3,126.1,595.3,126.6z"/>
	<path class="st1" d="M696.6,214c-0.8,0.2-1.6,0.4-2.4,0.6c-0.7-1.1-1.3-2-1.9-2.9c-0.3,0.3-0.6,0.5-1,0.9c-0.4-2.2,0.8-3.4,1.9-4.7
		c-0.3-0.3-0.7-0.7-1-1c-2.4,2.1-4,4.4-4,7.6c-0.7,0.4-1.3,0.8-2,1.2c0,0.5,0,0.9,0,2c-0.2,0.1-0.9,0.4-1.4,0.6
		c0.4,0.5,0.7,0.9,1,1.2c2.1-0.2,4.1,0.4,6.1-0.7c0.4-0.2,1.3,0.5,2.1,0.8c-0.4,0.5-0.6,0.7-1.3,1.4c1.2-0.4,1.9-0.6,2.8-0.9
		c0.5,0.5,1.2,1,2,1.8c0.8-0.6,1.5-1.1,2-1.5c-0.7-1.4-1.3-2.5-1.9-3.7c-0.3-0.1-0.7-0.3-1.1-0.5c0.3-0.6,0.5-1.1,0.7-1.5
		C697,214.4,696.8,214.2,696.6,214z"/>
	<path class="st1" d="M336.1,116.2c0.1,0.1,0.4,0.5,0.6,0.5c1.7-0.2,3.4-0.5,5.4-0.8c-0.2-0.9-0.3-1.7-0.5-2.7
		c0.4,0.1,0.8,0.2,1.1,0.2c0.1,0.6,0.1,1.2,0.2,1.8c1,0.3,2,0.7,3.1,1c0.7-1.1,1.2-2.1,1.9-3.2c-0.8-0.6-1.5-1.1-2.5-1.8
		c-1.7-0.2-3.9-0.5-5.8-0.8c-0.6,0.6-0.9,0.9-1.2,1.2c-1.8-0.7-2.9-2.5-5.2-1.8c-1.2,1.2-2.8,2.4-3,4.1c0.9,1.1,1.7,1.9,2.5,2.9
		C333.8,116.7,334.9,116.5,336.1,116.2z"/>
	<path class="st1" d="M80.2,89.7c0.9-0.5,2.4,0,3.6,0c-1.1,1-2.8,0-3.4,1.8c1.9,0.8,3.9,0.7,5.8,1.1c1.2,0.3,2.1,0.5,3.4,0
		c1.2-0.5,2.5-0.6,3.5-1.5c0.8-0.7,1.7-1.4,2.5-2.1c0-0.4-0.1-0.9-0.1-1.5c-1.7-0.1-3.4,0.2-5-0.7c-0.7-0.4-1.8-0.1-2.5,0.6
		c-0.1,0.1-0.4-0.1-0.6-0.1c-0.2-0.5-0.4-0.9-0.7-1.7c-0.7,0.6-1.2,1-1.5,1.3c0.2,0.4,0.4,0.7,0.7,1.4c-2.1-0.8-3.8-1.1-5-2.4
		c-1,0.6-1.7,1-2.5,1.4c-0.7-0.8-1.6-0.8-2.5-0.2c0.4,0.9,0.7,1.6,1,2.4C78,89.1,78.9,90.4,80.2,89.7z"/>
	<path class="st1" d="M15.7,205.3c1.7,0.2,3.4,0.3,4.6-1.1c1-1.2,2.3-0.8,3.6-1c-0.2-2-0.4-3.9-0.6-5.9c0.5-0.4,1.2-0.9,1.7-1.2
		c-0.7-1-1.2-1.8-1.8-2.7c-0.9,0.3-1.7,0.6-2.4,0.9c-0.6-0.3-1.1-0.6-1.5-0.8c-0.5,0.5-0.8,0.8-1.1,1.1c0.3,0.5,0.5,0.9,0.8,1.4
		c-0.8,0.4-1.4,0.7-1.8,0.9c-0.7-0.2-1.2-0.4-1.8-0.5c0,1.3,0,2.3,0,3.3c0.5,0.2,0.9,0.4,1.6,0.7c-0.9,1.5-1.7,2.7-2.5,4
		C15,204.7,15.3,205,15.7,205.3z"/>
	<path class="st1" d="M413.6,439c-0.3-0.6-0.4-1.3-0.5-1.8c-0.6,0.2-1.1,0.4-1.8,0.6c-0.2-2.5-1-4.6-2.9-6c-0.3-0.3-0.9-0.2-1.9-0.5
		c1.8,2.9,3.4,5.3,4.7,7.3c-0.4,1.5-0.7,2.7-0.9,3.8c-0.3,0.1-0.6,0.1-1,0.2c0,0.6,0,1.1,0,1.8c0.8,0.6,1.7,1.2,2.8,2.1
		c-0.2,0.9-0.6,2.1-0.8,3.2c-0.1,0.3,0.1,0.6,0.1,1c0.6,0,1.2,0,2.1,0c0.6-1.5,1.3-3.1,2-4.7c0.3-0.7,0.5-1.5,0.9-2
		c0.4-0.5,1.2-0.6,1.6-1c0.4-0.4,0.7-1.1,1-1.7c0.2-0.5,0.3-1.1,0.6-1.9c-1.6,0.4-3,0.7-4.4,1C414.5,440,413.9,439.6,413.6,439z"/>
	<path class="st1" d="M595.1,107.3c0.9,1.2,1.7,2.1,2.9,3.7c-2.1-0.5-2.8-2.8-4.7-1.4c0.2,0.3,0.4,0.7,0.5,1.1
		c0.1,0.4,0.2,0.7,0.3,1.1c-0.1,0.1-0.3,0.2-0.4,0.2c-1.1-1.4-2.3-2.9-3.2-4.1c-1.1,0-1.8,0-2.7,0c0.3,1.7,1.1,2.9,2.3,3.7
		c1,0.7,2.2,1.5,3.5,1.6c1.3,0.2,2.7-0.4,4.2-0.6c-0.4,1.2-0.7,2.2-0.8,2.5c0.5,0.9,0.8,1.4,1,1.9c0.7-0.4,1.2-0.8,1.7-0.9
		c0.6-0.1,1.3,0,2,0c-0.1-0.2-0.2-0.3-0.3-0.5c0.7-0.4,1.3-0.9,1.7-1.1c0-1.8,0-3.1,0-4.4c-0.8-0.8-1.6-1.6-2.3-2.3
		C598.8,109.9,597.4,106.6,595.1,107.3z"/>
	<path class="st1" d="M290.3,351.9c0.5,0.4,1.1,0.7,1.6,1.1c-0.6,1.3-1.4,2.5-0.3,4c0.6-0.5,1.2-0.9,1.7-1.3c-1.4-2-0.7-3.9-0.9-5.8
		c0.6,0,0.9,0.1,1.3,0.1c0,1.9,0.4,3.5,1.8,4.7c0.6-0.3,1.2-0.6,1.9-1c-0.5-1.8-1-3.7-1.5-5.6c2.1-1.1,2.1-1.1,2.7-3.1
		c-1.8,0.5-3.5,0.9-5.4,1.4c0-1.2,0-2.3,0-3.3c1.5-0.3,2.9-0.5,4.4-0.8c1.7,1.6,3,0.2,4.6-0.5c-0.1-0.4-0.2-0.6-0.2-0.8
		c-0.7,0.2-1.4,0.5-2.1,0.5c-1,0-1.9,0.2-2.9-0.5c-1.6-0.9-3,0.8-4.6,0.7c0.4,3.9-3.3,5.9-3.6,9.2
		C289.4,351.2,289.9,351.6,290.3,351.9z"/>
	<path class="st1" d="M637.7,162.9c-0.9-0.1-1.6-0.7-1.6-1.1c-0.1-1.7-1.7-1.7-2.5-2.4c-0.9-0.7-2.2-0.9-3.2-1.6
		c-0.7-0.5-1.3-1.2-1.9-1.9c-1.9,2-2.2,2.8-2.4,6.4c-0.5,0.7-1,1.3-1.9,2.5c1.2-0.2,1.9-0.3,2.6-0.4c0.3,0.5,0.8,1.2,1.2,1.9
		c2-0.2,3.6-0.9,4-2.8c0.9,0,1.6,0,2.2,0c0.5,0.5,0.9,0.9,1.3,1.3c1,0,2,0,3.8,0C638.5,163.9,638.1,163,637.7,162.9z"/>
	<path class="st1" d="M344.2,201.6c-0.6-0.6-1-1-1.4-1.4c-0.1-0.7-0.2-1.2-0.4-1.9c-2.6,2.4-2.3,5.4-1.7,7.8
		c0.7,2.8,0.3,5.4,0.5,8.1c0,0.5-0.4,1-0.7,1.7c2.2,2.5-1,5.1,0.5,7.7c0.4-0.6,0.8-1.2,1.1-1.7c1.4,1.3,1.4,1.3,3,1.3
		c-3.9-2.4-3.2-5.5-1.9-8.9c0.9,0.3,1.8,0.6,3,0.9c0-0.6,0.1-1,0-1.4c-0.8-2.6-1.5-5.2-2.5-7.7c-0.3-0.8-0.4-1.4,0-2.2
		C344.1,203.2,344.1,202.3,344.2,201.6z"/>
	<path class="st1" d="M292.6,306.3c0.4,0.4,0.8,0.8,1.2,1.2c0.1,0.9,0.2,1.7,0.2,2.3c1.8,0.4,3.3,0.7,5.1,1.1c0.6,0.5,1.1,1,1.7,1.5
		c-0.3,0.4-0.5,0.8-0.9,1.3c0.8,0.6,1.5,1.1,2.1,1.5c0.4,1.3,0.8,2.6,1.2,4c0.8-1.1,1.4-2,2-3c-0.1-0.4-0.2-0.8-0.4-1.2
		c-1.1-2.3-3.7-3.3-4.7-5.7c-1.2,0-2.2,0-3.1,0c-0.4-1.3-0.7-2.4-1-3.7c0.8-0.8,1.6-1.6,2.4-2.4c-0.4-1.5-0.8-2.9-1.1-4.3
		c-1.1,0-2.1,0-3.3,0c0,1.6,0,3.2,0,4.7c-0.6,0.1-0.9,0.2-1.3,0.3C292.6,304.7,292.6,305.5,292.6,306.3z"/>
	<path class="st1" d="M337.5,232.6c-0.9,1.5-1.4,3-0.8,4.8c0.7-0.3,1.3-0.6,2-1c-0.2-0.6-0.4-1.1-0.7-1.7c1.4,0,2.5,0,3.7,0
		c0.5,0.4,1,0.9,1.5,1.4c0.6-1,1.2-1.9,1.9-2.9c1,0,2,0,3.2,0c-0.6-2,1.3-2.6,2.1-4.1c-1.9,0.2-3.7,0.5-4.8,0.6
		c-2.4-1-3.2-3-4.6-4.1c-0.4,0.3-0.8,0.6-1.1,0.9c0.3,0.3,0.5,0.6,0.7,0.8c-0.5,1.8-1.1,3.5-1.6,5.2
		C338.4,232.6,337.9,232.6,337.5,232.6z"/>
	<path class="st1" d="M552.7,110.7c0.2,0.4,0.4,0.9,0.7,1.7c0.8-0.7,1.2-1.3,1.7-1.6c0.5-0.3,1.3-0.3,1.8-0.4
		c0.2-1.2-0.4-2.7,1.5-3.2c0.4,1,0.8,1.9,1.3,3.3c1-1.8,3.2-1.9,3.4-3.9c-0.2-0.2-0.3-0.4-0.7-0.8c0.5-0.3,1.1-0.7,2-1.2
		c-1.2-0.5-1.8-0.8-2.6-1.2c-0.7,0.6-1.3,1.1-1.8,1.6c-2.3-1-2.5-0.9-4.6,0.4c-2.1,1.4-3.8,3.3-6.5,3.8c-0.4,0.1-0.6,0.6-1,1
		c0.3,0.5,0.6,1.1,0.9,1.5C550.3,111.3,551.5,111,552.7,110.7z"/>
	<path class="st1" d="M282.4,363.4c-0.9-0.5-2-1-3.7-1.9c-0.2,0-1.2,0-2.8,0c1.2-0.7,1.9-1.2,2.7-1.7c-1.4-0.7-2.6,0-3.6,0.4
		c-1.3-0.5-2.2-0.9-3.3-1.3c-1.2,1.5-2.6,0.4-3.4-0.3c-1.1-0.9-2-1.3-3.4-1.2c-0.2,0-0.5-0.4-0.8-0.6c-0.7,0.9-2.6,0.5-2.5,2.3
		c1.4,0.9,2.9,1.8,4.2,2.6c2.8-1,2.8-1,5.3,0.7c0.4,0.3,1,0.5,1.5,0.6C275.4,363.9,279.5,364,282.4,363.4z"/>
	<path class="st1" d="M588.1,96c0.3,0.8,2.2,0.1,1.6,2c-0.8,0-1.6,0-2.6,0c0,0.6,0,0.9,0.1,1.3c2.2,0,4.4,0,6.4,0
		c1.2,0.8,2.2,1.5,3.2,2.2c1,0,2.3,0.3,2.8-1.1c-0.4-0.4-0.8-0.8-1.2-1.2c-0.1-0.5-0.1-1.1-0.2-1.6c-2.2-0.5-3.5-2.8-6-2.5
		c-0.1,0-0.3-0.3-0.5-0.5c-1.9-1.8-3.8-1.9-6.2-0.2c0.4,0.7,0.8,1.6,1.3,2.6C587.4,96.5,587.8,96.2,588.1,96z"/>
	<path class="st1" d="M249.3,100.9c1.3-0.3,2.4-0.9,3.3-0.8c2,0.3,3.8-0.5,5.6-0.9c1.2-0.3,3.4,0,3.6-2.3c-1.1-0.8-2.3-1.6-3.5-2.5
		c-0.6,0.3-1.2,0.6-2.1,1c0.3-1,0.5-1.6,0.8-2.6c-1.7,0.4-2.9,0.7-4.2,1C252.2,96.4,249,97.6,249.3,100.9z"/>
	<path class="st1" d="M234.7,91.6c1.1,0,1.8,0,2.5,0c0.5-0.7,0.9-1.4,1.3-2c0.5,0,0.7,0,0.9,0c0.6,1.5-1.8,1.8-1.4,2.9
		c1.2,1,2.3,1.8,3.1,2.5c1.9,0.4,3.7,0.6,5.3,1.3c1.4,0.6,2.1,0.2,2.6-0.4c0.4-1.9,0.6-3.5,0.9-5.2c-0.8-0.4-1.5-0.8-2.2-1.1
		c-0.6,0.4-1,0.6-1.5,1c-0.5-0.7-1-1.2-1.3-1.6c-1.2,0-2.3,0-3.3,0c0.5-1.5,1.8-0.2,2.6-0.8c0.2-0.8,0.4-1.6,0.7-2.4
		c-1.4-0.4-2.3-1.6-3.1-3.2c-1,0.5-1.9,1.5-2.8,1.5c-2.2-0.1-2.1,1.6-2.4,2.5c-0.9,0.6-1.4,1-2.1,1.5c0.5,0.2,1.3,1.2,1.3,1.6
		c-0.9,0.1-1.7,0.1-2.2,0.2C234,90.4,234.5,91.1,234.7,91.6z"/>
	<path class="st1" d="M651.7,293.4c-2.7-1.2-5.5-2.3-8.3-3.6c-1.2-0.5-2.2-1.4-3.4-1.8c-1.3-0.4-2.6-1.3-4.1-1
		c-1.6,0.4-3.1,0.9-4.6,1.5c-0.5,0.2-1.5,0.9-0.6,2c1.7-0.5,2.8-2.6,5-2.1c0.1,0.4,0.3,0.8,0.4,1.3c1.6,0.3,3.2,0.6,5.3,1.1
		c1.2,1.1,2.7,2.4,4.3,3.8c1.1,0.1,2.5,0.3,4.1,0.4c0.5-0.2,1.4-0.5,2.2-0.8C651.9,293.7,651.9,293.4,651.7,293.4z"/>
	<path class="st1" d="M302.5,323.5c-0.9-0.3-1.7-0.6-2.7-0.9c-1,1.3-2.6,2.1-3.3,3.8c0.4,0.2,0.7,0.3,1,0.5c0.6-0.5,1.2-1.1,1.9-1.7
		c0.7,0.3,1.4,0.6,2,0.9c0.1,1.1,0.2,1.9,0.3,2.9c1.1,0.5,2,1,3.3,1.6c0-1.4,0-2.5,0-3.6c0.8-0.1,1.3-0.1,2.1-0.2
		c0.3-2.5-0.5-4.7-1.4-6.8C304.6,321.1,303.6,322.3,302.5,323.5z"/>
	<path class="st1" d="M349,448.8c-1.1,0-2.3-0.7-3.5-1.1c0.3,2,0.6,3.8,1,6c0.6,0.6,1.4,1.4,2.2,2.2c0.5,0,0.9,0,1.4,0
		c0.5-0.9,0.7-2.2,2.2-2.2c0.7-2.2,1.8-4.2-0.1-6C351.2,448,350.1,448.8,349,448.8z"/>
	<path class="st1" d="M656.3,299.7c2.3,1.6,3.9-0.3,5.4-0.5c1.1,0.2,1.9,0.3,2.8,0.5c0-0.7,0-1.2,0-1.9c-0.6-0.4-1.3-1.3-2.2-1.5
		c-2.4-0.6-4.8-1-7.4-1.5c0,0.8,0,1.3,0,2.5c0.1,0.1,0.8,0.3,1.4,0.6c-0.5,0.5-0.7,0.7-1.2,1.2c-0.8,0-1.9,0-3.5,0
		c0.9,0.7,1.3,1.1,1.7,1.4C654.5,300,655.8,299.3,656.3,299.7z"/>
	<path class="st1" d="M638.5,121.8c0.9,1.7,1.6,3.1,2.5,5c1.4-0.4,2.5-0.7,3.7-0.9c1.3-0.2,2.6,0.3,4.1-0.4c-1.3-2-2.7-3.1-5-3.1
		c-0.9,0-1.7,0.2-2.6-0.5C640.7,121.5,639.6,121.8,638.5,121.8z"/>
	<path class="st1" d="M209.1,319.6c-0.4,1.5-1.2,2.9-0.9,4c0.3,1.4,0.6,2.8,0.6,4.2c0.4,0.4,0.7,0.7,1,1c0.1,0.1,0.2,0,0.3,0
		c1.9-1.5,1.9-1.5,2.9-4C211.9,323.2,211.6,320.8,209.1,319.6z"/>
	<path class="st1" d="M610.4,118c0.9-0.4,1.5-0.6,2.2-0.9c-1-1.5-1.8-2.7-2.5-3.7c-2.7-0.3-4.2,0.9-5.5,2.4c0,0,0.1,0.2,0.4,0.4
		c0.5,0.3,1.3,0.8,1.8,1.1C608.4,117.6,609.8,117.8,610.4,118z"/>
	<path class="st1" d="M359.9,116.8c0.1,0,0.2-0.1,0.2-0.2c0.1-0.1,0.1-0.2,0.1-0.6c-0.2-0.3-0.6-0.7-0.9-1c-3-0.5-5.9-1-8.9-1.5
		c0,0.6,0,1.1,0,1.7C355.9,117.6,355.9,117.6,359.9,116.8z"/>
	<path class="st1" d="M607.6,101.4c0.5-0.4,0.8-0.7,1.1-1c-0.3-0.3-0.5-0.5-0.7-0.8c0.2-0.3,0.4-0.5,0.6-0.7
		c-0.4-0.4-0.7-0.7-1.1-1.2c-2.1,0.9-3.6-0.7-5.7-1.4c0,1,0,1.8,0,2.5c0.6,0.9,1.1,1.6,1.7,2.5C604.9,101.4,606.3,101.4,607.6,101.4
		z"/>
	<path class="st1" d="M161.4,84.7c-0.3-0.5-0.5-0.8-1-1.5c1.4-0.3,2.5-0.6,3.6-0.9c0-0.3,0-0.5,0-1c-2-0.5-3.7,0.8-6.4,0.8
		c1.1,0.9,1.6,1.3,2.1,1.7c0,0.1-0.1,0.2-0.1,0.3c-0.9-0.2-1.8-0.5-2.9-0.8c-0.4,1-2,1.1-2.6,2.6c2.2,0,4.1,0,6.4,0
		C160.8,85.5,161.1,85.1,161.4,84.7z"/>
	<path class="st1" d="M650.5,149.3c0-1,0-2.1,0-3.1c-1-0.4-1.9-0.7-2.9-1.1c-0.7,0.7-1.3,1.4-1.8,1.9c0,1.1,0,2,0,3.1
		c1.5,0,2.8,0,3.9,0C650.1,149.8,650.3,149.5,650.5,149.3z"/>
	<path class="st1" d="M573.5,104.9c0.6-0.6,1.2-1.1,1.7-1.7c0-0.5,0-0.9,0-1.5c0.3-0.1,0.6-0.1,0.9-0.3c0.2-0.1,0.3-0.3,1-1
		c-2.9,0.4-5.1,0.7-7.1,0.9c-0.4,0.8-0.6,1.4-0.9,1.9C570.3,104.6,571.7,105.2,573.5,104.9z"/>
	<path class="st1" d="M295,289.5c0.8-2.8,2.4-5.2,2.4-8.3c-1.2,0.5-2,0.9-3.1,1.4C293.6,285,292.2,287.2,295,289.5z"/>
	<path class="st1" d="M314.2,261c-0.1,0.2,0.1,0.6,0.2,0.8c0.6-0.2,1.1-0.4,2.2-0.8c-0.9,2-1.5,3.6-0.7,5.4c2.2-1.3,2.5-3.4,3.4-5.6
		c-1.2-0.7-2.2-1.3-3.3-1.9C315.4,259.6,314.7,260.3,314.2,261z"/>
	<path class="st1" d="M429.1,134.1c0.1-0.1,0.1-0.4,0.3-0.8c-0.6-0.3-1.2-0.7-2-1.1c-2.1,0-4.6-0.4-6.2,2.8
		C424.3,134.8,426.8,135.5,429.1,134.1z"/>
	<path class="st1" d="M299.3,322c0.8-1.2,1.6-2.3,2.3-3.2c-1.1-1.4-2.1-2.7-3.1-3.9c-0.7,0.1-1.2,0.1-1.6,0.1c0,1,0,1.8,0,2.8
		c0.7,0,1.3,0,2.1,0c-0.3,1.2-0.5,2.2-0.8,3.1C298.5,321.3,298.7,321.5,299.3,322z"/>
	<path class="st1" d="M483.6,183c-1.7,1.2-2.7,3.2-4.6,3.8c0,0.6,0,1.1,0,1.7c1.1,0,2.1,0,3.2,0c0.6-0.7,1.2-1.4,1.8-2
		c-0.4-0.4-0.6-0.7-0.8-1c0.5-0.7,1-1.3,1.6-2.1C484.2,183.2,483.9,183.1,483.6,183z"/>
	<path class="st1" d="M268.8,295.7c0,0.9,0,1.9,0,3.1c1.1,0,1.8,0,2.7,0c0.7-1.3,1.4-2.6,2.2-4.2C271.9,295,270.1,293.9,268.8,295.7
		z"/>
	<path class="st1" d="M337.7,122.6c0.4,0.4,0.7,0.8,0.9,0.9c1.7,0.4,3.4,0.7,5.1,1c0.3-0.3,0.6-0.7,1-1c-1-1.3-2.3-2.2-4-2.6
		C339.8,121.4,338.9,121.9,337.7,122.6z"/>
	<path class="st1" d="M576.7,97.3c-2.9-0.2-5.3,0.6-8.1,1.8c3.2,0.4,5.9,0.7,9.1,1C577.2,98.9,577,98.1,576.7,97.3z"/>
	<path class="st1" d="M56,243.6c0.6-0.5,1.3-1.1,1.7-1.5c0-1.6,0-3.1,0-4.5c-2.2,0-3.2,0.4-3.2,0.9c0.5,1,1,1.9,1.4,2.7
		c-0.2,0.3-0.4,0.5-0.7,0.8C55.5,242.5,55.8,243.1,56,243.6z"/>
	<path class="st1" d="M359.2,358.8c1-1.3,3.2-1.7,3-4c-0.3-0.1-0.7-0.1-1-0.2c-0.8,1.5-0.9,1.3-2.8,2.3c-1.4,0.7-2.4,0.8-3.6-0.1
		c-0.2-0.1-0.6,0.1-1.1,0.3c0.4,0.7,0.8,1.2,1.1,1.7C356.4,358.8,357.8,358.8,359.2,358.8z"/>
	<path class="st1" d="M144,86.9c1-0.9,2.1-1.5,4.1-1.8c-1.2-0.8-1.9-1.3-2.3-1.5c-2.4,1.5-4.6,2.9-7.3,4.5
		C140.9,88.4,142.7,88,144,86.9z"/>
	<path class="st1" d="M299,367.8c1.1,0,1.6,0,2.3,0c0.6-0.6,1.3-1.4,2.1-2c0.6-0.5,1.7-1.3,2.1-1.1c1.2,0.7,1.5-0.6,2.2-0.7
		c-1-0.2-2.1-0.4-3.3-0.7C302.9,364.5,300.6,365.2,299,367.8z"/>
	<path class="st1" d="M158,88.3c-0.2,0.2-0.2,0.6-0.4,1.1c1.5,0,2.8,0,4,0c1.1-0.6,2.1-1.1,3.1-1.6c-0.3-0.3-0.5-0.7-0.8-0.8
		C162.7,86.6,158.9,87.4,158,88.3z"/>
	<path class="st1" d="M69.9,246c-2,0-3.8,0-5.6,0c0,0.4,0,0.8,0,0.9c1.5,0.9,2.9,1.8,4.4,2.7C69.1,248.3,69.5,247.2,69.9,246z"/>
	<path class="st1" d="M167.1,87.3c1.6-0.5,3.1-0.9,4.2-1.3c-0.4-0.7-0.9-1.5-1.2-2c-1.1,0-1.7,0-2.4,0c0.1,0.1,0.2,0.3,0.3,0.4
		c-0.9,0.7-1.7,1.3-2.6,2C166.1,86.8,166.7,87.1,167.1,87.3z"/>
	<path class="st1" d="M321.2,262.1c0.7-0.8,1.4-1.5,2.1-2.3c0.4,0,0.8-0.1,1.1-0.1c0.3-0.7,0.6-1.3,1-2.2c-1.7,0.3-3.2,0.5-4.6,0.9
		c-1.1,0.4-1.3,1.4-0.6,2.8C320.3,261.5,320.6,261.7,321.2,262.1z"/>
	<path class="st1" d="M525.6,200.2c1.7,0.9,1.6,3.5,4.4,4c-0.7-2.2-1.3-3.9-1.9-5.7C526.9,198.2,526,198.5,525.6,200.2z"/>
	<path class="st2" d="M316,235.8c0-0.1,0-0.2-0.1-0.3c0,0,0,0,0,0c0-0.1-0.1-0.2-0.1-0.4c0,0,0-0.1,0-0.1c-0.1,0-0.1,0-0.2,0
		c-0.1-0.1-0.2-0.2-0.3-0.3c0-0.1,0-0.2,0-0.3c0-0.1,0-0.1,0-0.2c-0.1,0-0.2,0-0.3-0.1c0-0.2,0-0.2-0.1-0.1c-0.1,0-0.1,0-0.2-0.1
		c0,0-0.1-0.1-0.1-0.1c-0.1,0-0.2,0.1-0.2,0.2c0,0.1-0.1,0.3-0.1,0.4c0,0.1-0.1,0.3-0.1,0.4c0,0.1-0.1,0.3,0,0.4c0,0,0,0.1,0,0.2
		c-0.1-0.1-0.2,0-0.3,0.1c-0.1,0-0.1-0.1-0.1-0.1c-0.1-0.1-0.2-0.1-0.3,0c-0.1,0.1-0.2,0.2-0.3,0.3c-0.1,0.1,0,0.2-0.1,0.3
		c0,0.1,0,0.1-0.1,0.2c-0.1,0-0.1,0-0.1,0.1c0,0,0,0-0.1,0.1c-0.1,0.1-0.1,0.1-0.2,0.2c0,0,0,0,0,0c-0.1,0-0.2-0.1-0.4,0
		c-0.1,0-0.1,0-0.2,0c-0.1,0.1-0.2,0.1-0.3,0c-0.1,0-0.2-0.1-0.3,0c-0.2,0-0.3,0.1-0.5,0.1c0,0.1,0,0.2,0,0.4c0,0.2,0.1,0.5,0.3,0.6
		c0.1,0.1,0.1,0.2,0,0.4c0,0,0,0.1-0.1,0.1c0,0,0,0.1,0,0.1c0,0-0.1,0.1-0.1,0.1c0,0-0.1,0-0.2-0.1c-0.1-0.1-0.2-0.1-0.4-0.1
		c-0.1,0.1-0.2,0.1-0.3,0c-0.1,0-0.3,0-0.4-0.1c0,0-0.1,0-0.2,0c-0.1,0-0.2,0-0.3,0c0,0-0.1,0-0.1,0c0-0.1-0.1-0.1-0.1-0.1
		c-0.1,0-0.2-0.1-0.2-0.1c0,0,0.1-0.1,0.1-0.1c-0.1-0.1-0.2-0.1-0.2-0.2c0-0.1,0-0.2-0.1-0.3c-0.1,0-0.1-0.1-0.2-0.2
		c0,0-0.1,0-0.1,0.1c-0.1,0.1-0.2,0.1-0.3,0.1c-0.1,0.1-0.1,0.1-0.1,0.2c0,0,0,0-0.1,0c-0.1,0-0.2,0.2-0.2,0.2c0,0.1,0,0.3-0.1,0.4
		c0,0,0,0.1,0,0.1c0,0.1,0,0.1-0.1,0.1c-0.1,0.1-0.2,0.2-0.3,0.3c-0.1,0.2-0.2,0.3-0.4,0.4c0,0-0.1,0-0.1,0.1
		c-0.1,0.2-0.1,0.2-0.3,0.4c0,0,0,0.1-0.1,0.1c-0.1,0-0.1,0-0.2,0c0,0-0.1,0-0.1,0c0,0-0.1,0-0.1,0c-0.2,0-0.3,0.1-0.3,0.3
		c0,0-0.1,0-0.1-0.1c-0.1,0.1-0.1,0.2-0.2,0.2c0,0,0,0,0,0c0,0.1-0.1,0.1-0.2,0.1c0,0-0.1,0-0.1,0c-0.1,0.1-0.3,0.1-0.5,0.2
		c-0.1,0.1-0.1,0.1-0.1,0.2c0,0,0,0,0,0.1c-0.1,0-0.2,0-0.3-0.1c0,0,0,0,0,0c-0.1,0.1-0.1,0.2-0.3,0.2c0,0-0.1,0.1-0.1,0.1
		c0,0.1-0.1,0.1-0.2,0.1c-0.1,0-0.2,0.1-0.2,0.1c-0.1,0.1-0.2,0.2-0.3,0.3c-0.1,0.1-0.1,0.2-0.1,0.3c0.1,0.1,0.1,0.1,0.2,0.1
		c0,0,0,0,0,0c-0.2,0-0.2,0-0.2,0.1c0,0.1-0.1,0.1-0.1,0.2c0.1,0.2,0.3,0.2,0.5,0.3c0.1,0.1,0.1,0.3,0.2,0.4c0,0.1-0.1,0.1,0,0.2
		c0.1,0,0.1-0.1,0.2-0.1c0-0.1,0-0.2,0-0.3c0.1,0.1,0.3,0.1,0.4,0.3c0.2,0,0.3,0.2,0.5,0.3c0,0,0,0,0,0c0.1-0.1,0.1-0.1,0.2,0
		c0,0,0.1,0.1,0.1,0.1c0.1,0,0.2-0.1,0.4-0.1c-0.1,0.1-0.2,0.2-0.2,0.3c0,0.1,0,0.1,0,0.2c0.1,0,0.1,0,0.2,0.1
		c0,0.1-0.1,0.1-0.1,0.1c0,0.1,0,0.1,0,0.2c0,0.1-0.2,0.1-0.2,0.3c-0.1,0.1,0,0.1,0,0.2c-0.1,0-0.2,0.1-0.2,0.2
		c0,0.1-0.1,0.2-0.1,0.3l0,0.3l0,0l0,0.4l-0.1,0l-0.1,0.1l-0.1,0.1c-0.1,0.1-0.1,0.2-0.2,0.3c-0.1,0.1-0.2,0.2-0.2,0.3l0,0.3
		c0,0-0.2,0.3-0.2,0.3c0.1,0,0.2,0,0.2-0.1c0,0,0.7,0.3,0.7,0.3c0.1,0.3-0.5,0-0.5,0.2c0,0.2,0.2,0.2,0.3,0.2l0.2,0.1l0.2,0.3l0.2,0
		c0.1,0,0.2-0.1,0.2-0.2c0.1,0,0.1,0,0.2,0c0-0.1,0-0.3,0.1-0.4c0.1,0,0.1,0,0.2,0c0-0.1,0-0.2-0.1-0.2c-0.1,0-0.1,0-0.1-0.1
		c0,0,0,0,0.1,0c0.1,0,0.2,0.1,0.4,0.1c0,0,0,0,0,0c0.1,0.1,0.2,0.2,0.2,0.3c0,0.1,0.1,0.1,0.1,0c0,0,0-0.1-0.1-0.2
		c0.1,0,0.1,0,0.1,0c0.1,0.1,0.2,0.2,0.2,0.4c0,0.1,0.1,0.1,0.1,0c0-0.1,0-0.1,0-0.2c0.1-0.1,0.2-0.1,0.3-0.1c0.1,0,0.2-0.1,0.2-0.1
		c0.2,0.1,0.6,0.4,0.8,0.6l3.7-2c-0.1-0.2-0.1-0.3-0.2-0.5c0,0,0-0.1,0-0.1c0-0.1,0-0.1-0.1-0.2c0,0-0.1-0.1-0.1-0.1
		c-0.1,0-0.1,0-0.2,0c-0.1-0.1-0.2-0.2-0.3-0.3c0,0,0,0,0,0c-0.1-0.2-0.2-0.3-0.4-0.5c0-0.1-0.1-0.1-0.1-0.2c-0.1,0-0.2,0-0.2,0
		c-0.1-0.1-0.2-0.1-0.3-0.1c0,0-0.1-0.1-0.1-0.1c0,0,0,0-0.1,0.1c-0.2-0.1-0.2-0.1-0.1-0.4l0.3,0c0-0.1,0-0.2,0-0.3
		c0-0.1,0-0.2,0.1-0.4c0.1-0.1,0-0.1,0-0.2c0,0-0.1,0-0.1-0.1c0-0.1,0.1-0.4,0.2-0.4c0.1,0,0.1,0,0.2-0.1c0.1-0.1,0.2-0.1,0.3-0.1
		c0,0,0.1-0.1,0.1-0.1c0,0,0-0.1,0.1-0.1c0.1-0.1,0.1-0.1,0.2-0.2c0.2,0,0.3,0.1,0.5,0c0,0,0.1,0,0.1,0.1c0.1-0.1,0.1-0.1,0.2-0.2
		c0.2-0.1,0.3-0.2,0.5-0.3c0.1,0,0.1-0.1,0.1-0.2c-0.1-0.1-0.1-0.2,0.1-0.2c0,0,0.1,0,0.1,0c0.1-0.1,0.3-0.1,0.3-0.2
		c0-0.1,0.1-0.1,0.2-0.1c0.1,0,0.2-0.1,0.2-0.2c0,0,0-0.1,0.1-0.1c0-0.1,0.1-0.2,0.1-0.3c0.1,0,0.1,0,0.2,0c0.1-0.2,0.2-0.3,0.4-0.3
		c0,0,0,0,0.1,0c0.1-0.1,0.2-0.1,0.3-0.1c0,0,0.1,0,0.1,0c0-0.1,0.1-0.2,0-0.3c-0.1-0.2-0.1-0.5,0-0.7c0-0.1,0.1-0.3,0.1-0.4
		c0,0-0.1-0.1-0.1-0.1c-0.2-0.1-0.2-0.3-0.1-0.4c0-0.2,0.1-0.3,0.2-0.5c0,0,0,0,0.1,0c0.1-0.1,0.2-0.1,0.2-0.2c0,0,0-0.1,0-0.1
		c0.1,0,0.2,0,0.2-0.1c0-0.1,0.1-0.2,0.2-0.3c0,0,0,0,0.1,0c0.1,0,0.2-0.1,0.2-0.2c0-0.1,0-0.2,0.1-0.2c0,0,0.1,0.1,0.1,0
		c0-0.1,0.1-0.1,0.1-0.1c0,0,0,0,0,0c0,0,0-0.1,0-0.1c0.1-0.1,0.2-0.1,0.3-0.1c0.1,0,0.1,0.1,0.1,0.1c0.1,0,0.1-0.1,0.2-0.1
		C316,235.8,316,235.8,316,235.8z"/>
	<path class="st3" d="M307.7,248.1l-0.2-0.2c0,0-0.1,0.2-0.1,0.2c-0.2,0-0.1,0.2-0.2,0.3c0,0,0,0,0,0c0,0,0-0.1-0.1-0.1
		c0,0.1,0,0.1,0,0.1c0,0,0,0,0,0.1c0,0,0,0.1,0.1,0.1c0,0,0.1,0,0.1,0c0,0-0.1,0.1-0.1,0.1c0.1,0.1,0.2,0,0.3,0.1c0,0,0-0.1,0-0.1
		c0.1,0.1,0.1,0.1,0.2,0.2c0,0,0,0.1,0,0.2c0,0-0.1,0-0.1,0c0,0,0,0.1,0.1,0.1c0.1,0.1,0.1,0.1,0.2,0.2c0,0,0,0,0,0.1
		c0.1,0,0.1,0.1,0.2,0.2c0,0,0,0.1-0.1,0.1c-0.1,0-0.1,0-0.2,0c0,0.1-0.1,0.3,0,0.4c0.1,0,0.1-0.2,0.2-0.1c0,0.1-0.1,0.2-0.1,0.3
		c0.1,0.1,0.2,0.3,0.3,0.4c-0.1,0.1-0.1,0.1-0.2,0.2c0,0,0-0.1,0-0.1c0-0.1-0.1-0.3-0.2-0.2c0,0,0,0-0.1,0c0,0,0,0.1-0.1,0.1
		c-0.1-0.1-0.2-0.2-0.3-0.3c0,0.1-0.1,0.1,0,0.1c0.1,0.1,0,0.1,0,0.2c-0.1-0.2-0.1-0.3-0.3-0.2c0,0.1,0.1,0.1,0.2,0.2
		c-0.1,0.1-0.1,0.2-0.2,0.1c0-0.1,0-0.1,0-0.2c0,0.1-0.1,0.1-0.1,0.2c0,0-0.1-0.1-0.1-0.1c-0.1,0.1-0.1,0.2-0.2,0.3c0,0,0,0.1,0,0.1
		c0,0,0,0,0.1,0h0v0c0,0,0,0.1,0,0.1c0.1,0,0.1-0.1,0.2-0.1c0,0.1,0.1,0.1,0.1,0.2c0,0,0,0,0,0.1c0.1,0.1,0.1,0.2,0.1,0.3
		c0,0.1,0,0.2,0.2,0.2c-0.1-0.3-0.1-0.5-0.2-0.7c0,0,0.1-0.1,0.1-0.1c0,0,0,0,0,0c0,0.1,0,0.2,0,0.2c0.1,0,0.1-0.1,0.2-0.2
		c0.1,0.1,0.1,0.2,0.1,0.2c0,0,0,0,0,0c-0.1,0-0.1,0.1-0.1,0.2c0,0.1,0,0.2,0,0.4c0,0,0,0,0,0c0,0,0.1,0.1,0.1,0.1
		c0,0.1-0.1,0.1,0,0.2c0,0,0,0,0,0.1c0,0.1,0,0.1,0,0.2c0,0,0,0-0.1,0c0,0,0,0-0.1,0.1c0.1,0,0.2,0,0.2,0.1c0.1,0.1,0.1,0.2,0.1,0.3
		c-0.1,0-0.1,0.1-0.2,0.1c0,0.1,0,0.1,0.1,0.2c0.1,0,0.2,0,0.3,0c0,0,0,0,0,0c-0.1,0-0.1,0-0.2,0.1c0,0.1,0.2,0.1,0.2,0.2
		c-0.1-0.1-0.2-0.1-0.3,0c0,0.1-0.1,0.2-0.2,0.3c0,0-0.1,0.1-0.1,0.1c0,0-0.1,0.1-0.1,0.1c0,0.1,0.1,0.1,0.1,0.1c0,0,0.1,0,0.1,0
		c0,0-0.1,0-0.1,0.1c-0.1,0-0.1,0-0.2,0.1c-0.1,0.1-0.1,0.2-0.2,0.3c-0.1,0.1-0.1,0.3-0.2,0.4c0.1,0.1,0.2,0.2,0.3,0.3
		c0,0.1,0,0.1,0,0.1c-0.1-0.1-0.2-0.1-0.2-0.2c-0.1,0-0.1,0-0.2,0c0,0.1,0,0.1,0,0.2c-0.1-0.1-0.1-0.1-0.3-0.1c0,0,0,0,0,0l0,0
		c0,0,0,0,0,0c0,0,0,0,0,0c0,0.1,0,0.2-0.1,0.2c0,0.1,0,0.1,0.1,0.2c0,0,0.1,0,0.1-0.1c0,0,0-0.1,0-0.1c0,0,0.1,0,0.1-0.1
		c0,0,0.1,0,0.1,0.1c0.1-0.1,0.1-0.1,0.2-0.2c0,0,0.1,0.1,0.1,0.1c0,0.1-0.1,0.1-0.1,0.2c0,0.1,0,0.2-0.1,0.2c0.1,0,0.1,0,0.2,0
		c0,0.1-0.1,0.2-0.1,0.3c-0.1,0.1,0,0.2,0,0.3c0,0-0.1,0-0.1,0c0,0,0,0.1,0,0.1c-0.1,0.1-0.2,0.1-0.3,0.2c0,0-0.1,0.1-0.1,0.1
		c0,0.1,0,0.2,0.1,0.2c0,0,0.1,0,0.1,0c0.1-0.1,0.2,0,0.3-0.1c0.1-0.1,0.2-0.2,0.1-0.4c0,0,0,0,0-0.1c0.1,0,0.2,0.1,0.3,0.1
		c0,0.2,0.1,0.3,0,0.5c0.1,0,0.1,0.2,0.2,0.2c0-0.1,0.1-0.1,0.1-0.1c0-0.1,0-0.1,0.1-0.2c0.1,0.1,0.1,0.1,0.1,0.2
		c0.1,0.1,0.1,0.1,0.2,0c0-0.1,0.1-0.1,0.2,0c0.1,0,0.1,0,0.1,0c0,0,0.1-0.1,0.1-0.1c0,0,0-0.1,0-0.1c-0.1,0-0.2,0-0.2-0.1
		c0.1,0,0.1-0.1,0.2-0.1c0.1,0,0.1,0,0.1-0.1c0-0.1,0.1-0.2,0.1-0.3c0.1-0.1,0.2-0.1,0.2-0.2c0,0,0.1,0,0.1,0c0.1,0,0.1,0,0.2-0.1
		c0,0,0,0,0.1-0.1c0,0.1,0,0.1,0,0.1c-0.1,0.1-0.1,0.1,0,0.2c0,0.1,0,0.1-0.1,0.1c0,0,0-0.1,0-0.1c-0.2,0.1-0.2,0.3-0.2,0.5
		c0.1,0.1,0.1,0.1,0.2,0.1c0,0,0.1-0.1,0.1-0.1c0,0,0-0.1-0.1-0.1c0,0-0.1,0-0.1,0c0.2-0.1,0.3-0.1,0.4,0.2c0.1-0.1,0.1-0.2,0.2-0.2
		c0.1,0.1,0.1,0.1,0.2,0.2c0,0,0.1,0,0.1,0c0,0,0-0.1,0-0.1c-0.1-0.1-0.1-0.2-0.2-0.3c0,0,0.1,0,0.2,0c0-0.1,0-0.2-0.1-0.2
		c0-0.1-0.1-0.1-0.2-0.1c0.1-0.2,0.1-0.2,0.2-0.2c0,0-0.1,0-0.1-0.1c0.1,0,0.1-0.1,0.2-0.1c0,0.1,0.1,0.2,0.1,0.3
		c-0.1,0.1-0.1,0.2,0,0.3c0.1,0,0.1,0,0.1,0.1c0,0,0,0,0,0c0,0,0,0,0,0c0,0,0,0,0,0c0,0.1,0,0.1,0,0.2c0.1,0.1,0.2,0.1,0.3,0.2
		c0,0.1,0,0.1,0,0.2c0,0,0,0,0,0c0-0.1,0-0.1,0-0.2c-0.1-0.1-0.2-0.1-0.2-0.3c0,0,0,0,0.1,0c0,0,0,0,0.1,0c0-0.1,0-0.2,0-0.2
		c0-0.1-0.1-0.2,0-0.4c0-0.1,0-0.2-0.1-0.2c0,0.1,0,0.2-0.2,0.2c0,0-0.1-0.1-0.1-0.2c0,0,0,0,0-0.1c0,0,0.1,0,0.1,0.1
		c0.1-0.1,0.3-0.2,0.5-0.1c-0.1,0.1-0.1,0.2,0,0.4c0,0,0,0.1,0,0.1c0,0,0.1,0.1,0.1,0.1c0,0,0.1,0,0.1-0.1c0,0,0.1,0.1,0.1,0.1
		c0.1,0,0.1,0,0.2,0c0-0.1,0-0.2,0-0.3c0-0.1,0-0.2-0.1-0.3c-0.1,0.1-0.1,0.2-0.1,0.3c-0.1,0-0.1-0.1-0.1-0.1c0.1-0.1,0.1-0.1,0-0.2
		c0,0,0-0.1,0-0.1c0.1,0,0.1,0,0.1,0.1c0-0.1,0-0.1,0.1-0.2c0,0.1,0,0.1,0,0.1c0,0.1,0.2,0.3,0.3,0.2c0,0,0,0,0.1-0.1
		c0,0,0.1,0,0.1,0c0.1,0.1,0.2,0.1,0.3,0.2c0,0-0.1,0-0.1,0c0.1,0.1,0.1,0.2,0.2,0.2c0,0,0-0.1,0.1-0.1c0,0.1,0,0.1,0,0.2
		c0.1,0,0.1,0,0.2,0c0,0,0.1,0.1,0.1,0.1c0,0,0.1-0.1,0.1-0.1c0,0,0,0,0,0c0-0.1,0-0.1,0.1-0.1c0,0,0,0,0.1-0.1c0,0,0-0.1,0.1-0.1
		c0-0.1-0.1-0.2-0.1-0.3c0-0.1,0-0.1-0.1-0.1c-0.1,0.1-0.2,0.1-0.1,0.3c0,0-0.1,0-0.1,0c0-0.1,0-0.1,0-0.1c0,0,0,0.1,0,0.1
		c0,0.1-0.1,0.1-0.1,0c0,0,0-0.1,0-0.1c0-0.1,0.1-0.1,0.1-0.1c0-0.1,0-0.1,0-0.2c0.1,0,0.1,0,0.2,0c0,0,0.1,0.1,0.1,0
		c0-0.1,0-0.1-0.1-0.2c0,0,0.1,0,0.1,0c0.1,0,0.2,0.1,0.3,0.1c0,0.1,0,0.1,0.1,0.2c0.1-0.1,0.1-0.2,0-0.3c0.2,0.1,0.3,0.2,0.4,0
		c0,0,0.1,0,0.1,0c0,0,0-0.1,0-0.1c0,0,0.1,0,0.1,0c0-0.1,0-0.1,0.1-0.1c0.1,0,0.1-0.1,0.1-0.1c0-0.1,0-0.1,0.1-0.2
		c0-0.1,0-0.1,0.1-0.2c0.1,0,0.1-0.1,0.1-0.2c0-0.1,0-0.1,0-0.2c0.1,0,0.1,0,0.2-0.1c0-0.1,0-0.2,0-0.4c0-0.2,0.1-0.3,0.1-0.5
		c0.1-0.2,0-0.4,0.1-0.6c0-0.1,0-0.1-0.1-0.2c0,0.1-0.1,0.1-0.2,0.2c0,0-0.1,0.1-0.1,0c0,0,0-0.1,0-0.1c0.1,0,0-0.1,0-0.2
		c-0.1-0.2-0.1-0.5,0-0.7c0.1-0.1,0.1-0.3,0-0.4c0-0.1,0-0.2,0-0.3c0.1-0.1,0.1-0.2,0-0.4c-0.1-0.2-0.1-0.4-0.1-0.6
		c0-0.1,0-0.1-0.1-0.2c-0.1-0.1-0.1-0.2-0.1-0.3c0,0,0-0.1,0-0.1c-0.1-0.1-0.2-0.2-0.2-0.4c-0.1-0.1-0.2-0.3-0.2-0.4
		c0-0.1-0.1-0.3-0.2-0.4c-0.1-0.1-0.2-0.3-0.3-0.4c-0.1-0.1-0.2-0.3-0.3-0.5c-0.1-0.1-0.2-0.3-0.2-0.5c0,0,0-0.1,0-0.1
		c-0.1-0.2-0.1-0.3-0.1-0.5c0-0.1,0,0-0.1-0.2c-0.1-0.3-0.2-0.4-0.2-0.4c0,0.1-0.2,0.1-0.2,0.2c0,0.3-0.1,0.4-0.3,0.6
		c-0.1,0.1-0.2,0.1-0.3,0.1c-0.2-0.1-0.3,0.1-0.5,0c0,0,0,0,0,0c-0.2,0-0.3,0-0.5,0.1c0,0-0.1,0-0.1,0c-0.2-0.1-0.5,0-0.7,0
		c-0.2,0.1-0.3,0.2-0.4,0.3c0,0.1-0.1,0.1-0.1,0.2c0,0-0.1,0.1-0.1,0.1c-0.1,0.2-0.2,0.3-0.4,0.4c0,0.2-0.1,0.1-0.1,0.2
		C307.9,248,307.8,248.1,307.7,248.1C307.8,248.1,307.7,248.1,307.7,248.1C307.7,248.1,307.7,248.1,307.7,248.1 M306.8,251
		C306.8,251,306.8,251.1,306.8,251C306.8,251.1,306.8,251,306.8,251z M307.2,256.3C307.2,256.3,307.2,256.3,307.2,256.3
		C307.3,256.3,307.3,256.2,307.2,256.3C307.3,256.2,307.3,256.3,307.2,256.3z M307.8,257.3L307.8,257.3
		C307.8,257.3,307.8,257.3,307.8,257.3C307.8,257.3,307.8,257.3,307.8,257.3z M308,257.4c0,0-0.1-0.1-0.1-0.1c0,0,0,0,0,0
		C307.9,257.3,307.9,257.4,308,257.4C308,257.4,308,257.4,308,257.4z M307.9,257.3c0,0,0.1-0.1,0.1-0.1
		C308,257.2,308,257.2,307.9,257.3z M308.2,257.4C308.2,257.4,308.2,257.4,308.2,257.4C308.2,257.4,308.2,257.4,308.2,257.4
		C308.2,257.4,308.2,257.4,308.2,257.4z"/>
</g>
<rect x="493.8" y="8.2" class="st4" width="54.4" height="26.8"/>
<text transform="matrix(0.583 0 0 0.583 504.1022 20.2457)"><tspan x="0" y="0" class="st5 st6">Maximum </tspan><tspan x="4.3" y="11.8" class="st5 st6">Density</tspan></text>
<path d="M515.2,26.7"/>
<g class="st7">
	<rect x="550.5" y="11" width="0.3" height="34.3"/>
</g>
<g>
	<path d="M500.3,40.1v-5.2h0.7v0.5c0.3-0.4,0.7-0.6,1.2-0.6c1,0,1.7,0.7,1.7,2s-0.7,2-1.7,2c-0.5,0-0.9-0.2-1.2-0.6v2H500.3z
		 M502,35.4c-0.4,0-0.9,0.2-1,0.6v1.6c0.2,0.3,0.6,0.6,1,0.6c0.7,0,1.1-0.6,1.1-1.4C503.1,36,502.7,35.4,502,35.4z"/>
	<path d="M507.2,38.2c-0.3,0.3-0.7,0.5-1.2,0.5c-0.6,0-1.3-0.4-1.3-1.2c0-0.9,0.7-1.2,1.3-1.2c0.5,0,0.9,0.2,1.2,0.5v-0.6
		c0-0.5-0.4-0.7-0.9-0.7c-0.4,0-0.8,0.2-1.1,0.5l-0.3-0.5c0.4-0.4,0.9-0.6,1.5-0.6c0.8,0,1.5,0.4,1.5,1.3v2.5h-0.7V38.2z
		 M507.2,37.2c-0.2-0.3-0.6-0.4-1-0.4c-0.5,0-0.9,0.3-0.9,0.7c0,0.4,0.4,0.7,0.9,0.7c0.4,0,0.8-0.1,1-0.4V37.2z"/>
	<path d="M509,34.9h0.7v0.6c0.3-0.4,0.7-0.7,1.2-0.7v0.7c-0.1,0-0.1,0-0.2,0c-0.3,0-0.8,0.3-1,0.5v2.6H509V34.9z"/>
	<path d="M511.9,37.8v-2.3h-0.6v-0.6h0.6v-1h0.7v1h0.8v0.6h-0.8v2.2c0,0.3,0.1,0.5,0.4,0.5c0.2,0,0.3-0.1,0.4-0.1l0.2,0.5
		c-0.1,0.1-0.4,0.2-0.7,0.2C512.2,38.7,511.9,38.4,511.9,37.8z"/>
	<path d="M514.1,33.8c0-0.2,0.2-0.5,0.5-0.5c0.2,0,0.5,0.2,0.5,0.5c0,0.2-0.2,0.4-0.5,0.4C514.3,34.3,514.1,34.1,514.1,33.8z
		 M514.2,34.9h0.7v3.8h-0.7V34.9z"/>
	<path d="M517.8,34.8c0.7,0,1.1,0.3,1.4,0.7l-0.5,0.4c-0.2-0.3-0.5-0.5-0.9-0.5c-0.7,0-1.2,0.6-1.2,1.3s0.5,1.4,1.2,1.4
		c0.4,0,0.7-0.2,0.9-0.5l0.5,0.4c-0.3,0.4-0.7,0.7-1.4,0.7c-1.1,0-1.9-0.8-1.9-2C515.9,35.6,516.6,34.8,517.8,34.8z"/>
	<path d="M520,33.5h0.7v5.2H520V33.5z"/>
	<path d="M523.6,34.8c1.1,0,1.8,0.9,1.8,2V37h-3c0.1,0.6,0.5,1.2,1.3,1.2c0.4,0,0.8-0.2,1.1-0.4l0.3,0.5c-0.4,0.4-0.9,0.6-1.5,0.6
		c-1.1,0-1.9-0.8-1.9-2C521.7,35.7,522.5,34.8,523.6,34.8z M522.4,36.5h2.3c0-0.5-0.3-1.1-1.1-1.1C522.8,35.4,522.4,36,522.4,36.5z"
		/>
	<path d="M526.3,37.6c0.3,0.3,0.8,0.5,1.3,0.5c0.5,0,0.8-0.2,0.8-0.5c0-0.4-0.4-0.5-0.9-0.6c-0.6-0.1-1.4-0.3-1.4-1.1
		c0-0.6,0.5-1.1,1.4-1.1c0.6,0,1.1,0.2,1.4,0.5l-0.3,0.5c-0.2-0.3-0.6-0.5-1.1-0.5s-0.8,0.2-0.8,0.5c0,0.3,0.4,0.4,0.9,0.5
		c0.7,0.1,1.4,0.3,1.4,1.2c0,0.6-0.5,1.2-1.5,1.2c-0.6,0-1.2-0.2-1.6-0.6L526.3,37.6z"/>
	<path d="M536.7,36.1c0-0.4-0.2-0.7-0.7-0.7c-0.4,0-0.8,0.3-0.9,0.5v2.7h-0.7v-2.5c0-0.4-0.2-0.7-0.7-0.7c-0.4,0-0.7,0.3-0.9,0.5
		v2.7h-0.7v-3.8h0.7v0.5c0.2-0.2,0.7-0.6,1.2-0.6c0.6,0,0.9,0.3,1,0.7c0.2-0.3,0.7-0.7,1.3-0.7c0.7,0,1.1,0.4,1.1,1.1v2.7h-0.7V36.1
		z"/>
	<path d="M538.2,34.8h1.1v0.4h-1.1V34.8z"/>
	<path d="M539.7,35.7c1.1-0.9,1.7-1.3,1.7-1.8c0-0.4-0.3-0.5-0.6-0.5c-0.4,0-0.6,0.2-0.8,0.4l-0.3-0.3c0.2-0.3,0.7-0.5,1.1-0.5
		c0.5,0,1.1,0.3,1.1,0.9c0,0.6-0.6,1.1-1.4,1.8h1.4v0.4h-2.1V35.7z"/>
</g>
<circle class="st8" cx="573.2" cy="27.2" r="16.4"/>
<circle class="st9" cx="38.9" cy="220.3" r="16.4"/>
<circle class="st9" cx="60.9" cy="217.5" r="12.2"/>
<circle class="st10" cx="317.2" cy="245.3" r="19"/>
<circle class="st10" cx="67.2" cy="240.8" r="14.5"/>
<circle class="st10" cx="74.7" cy="221.8" r="14.5"/>
<circle class="st8" cx="604" cy="27.2" r="13.9"/>
<circle class="st8" cx="629.6" cy="27.2" r="11.5"/>
<circle class="st8" cx="650.5" cy="27.2" r="9"/>
<circle class="st8" cx="666.4" cy="27.2" r="6.6"/>
<circle class="st8" cx="677.1" cy="27.2" r="4.1"/>
<g>
	<path d="M562.2,25.3l-0.7,0.8l-0.3-0.3l1.1-1.2h0.5v4.5h-0.6V25.3z"/>
	<path d="M565.4,24.5c1.2,0,1.7,1.2,1.7,2.3c0,1.1-0.5,2.4-1.7,2.4c-1.2,0-1.7-1.2-1.7-2.4C563.6,25.7,564.1,24.5,565.4,24.5z
		 M565.4,25c-0.9,0-1.2,0.9-1.2,1.8c0,0.9,0.3,1.8,1.2,1.8c0.9,0,1.2-0.9,1.2-1.8C566.5,25.9,566.2,25,565.4,25z"/>
	<path d="M569.6,24.5c1.2,0,1.7,1.2,1.7,2.3c0,1.1-0.5,2.4-1.7,2.4c-1.2,0-1.7-1.2-1.7-2.4C567.8,25.7,568.3,24.5,569.6,24.5z
		 M569.6,25c-0.9,0-1.2,0.9-1.2,1.8c0,0.9,0.3,1.8,1.2,1.8c0.9,0,1.2-0.9,1.2-1.8C570.7,25.9,570.4,25,569.6,25z"/>
	<path d="M571.8,29.8c0.2-0.1,0.4-0.4,0.4-0.6c0,0-0.1,0-0.1,0c-0.2,0-0.3-0.1-0.3-0.3c0-0.2,0.2-0.4,0.4-0.4c0.2,0,0.4,0.2,0.4,0.5
		c0,0.4-0.2,0.8-0.6,1L571.8,29.8z"/>
	<path d="M575.1,24.5c1.2,0,1.7,1.2,1.7,2.3c0,1.1-0.5,2.4-1.7,2.4c-1.2,0-1.7-1.2-1.7-2.4C573.3,25.7,573.8,24.5,575.1,24.5z
		 M575.1,25c-0.9,0-1.2,0.9-1.2,1.8c0,0.9,0.3,1.8,1.2,1.8c0.9,0,1.2-0.9,1.2-1.8C576.2,25.9,576,25,575.1,25z"/>
	<path d="M579.3,24.5c1.2,0,1.7,1.2,1.7,2.3c0,1.1-0.5,2.4-1.7,2.4c-1.2,0-1.7-1.2-1.7-2.4C577.5,25.7,578,24.5,579.3,24.5z
		 M579.3,25c-0.9,0-1.2,0.9-1.2,1.8c0,0.9,0.3,1.8,1.2,1.8c0.9,0,1.2-0.9,1.2-1.8C580.4,25.9,580.1,25,579.3,25z"/>
	<path d="M583.4,24.5c1.2,0,1.7,1.2,1.7,2.3c0,1.1-0.5,2.4-1.7,2.4c-1.2,0-1.7-1.2-1.7-2.4C581.7,25.7,582.2,24.5,583.4,24.5z
		 M583.4,25c-0.9,0-1.2,0.9-1.2,1.8c0,0.9,0.3,1.8,1.2,1.8c0.9,0,1.2-0.9,1.2-1.8C584.6,25.9,584.3,25,583.4,25z"/>
</g>
<g>
	<path d="M595.1,25.3l-0.7,0.8l-0.3-0.3l1.1-1.2h0.5v4.5h-0.6V25.3z"/>
	<path d="M598.3,24.5c1.2,0,1.7,1.2,1.7,2.3c0,1.1-0.5,2.4-1.7,2.4c-1.2,0-1.7-1.2-1.7-2.4C596.6,25.7,597.1,24.5,598.3,24.5z
		 M598.3,25c-0.9,0-1.2,0.9-1.2,1.8c0,0.9,0.3,1.8,1.2,1.8c0.9,0,1.2-0.9,1.2-1.8C599.5,25.9,599.2,25,598.3,25z"/>
	<path d="M600.6,29.8c0.2-0.1,0.4-0.4,0.4-0.6c0,0-0.1,0-0.1,0c-0.2,0-0.3-0.1-0.3-0.3c0-0.2,0.2-0.4,0.4-0.4c0.2,0,0.4,0.2,0.4,0.5
		c0,0.4-0.2,0.8-0.6,1L600.6,29.8z"/>
	<path d="M603.8,24.5c1.2,0,1.7,1.2,1.7,2.3c0,1.1-0.5,2.4-1.7,2.4c-1.2,0-1.7-1.2-1.7-2.4C602.1,25.7,602.6,24.5,603.8,24.5z
		 M603.8,25c-0.9,0-1.2,0.9-1.2,1.8c0,0.9,0.3,1.8,1.2,1.8c0.9,0,1.2-0.9,1.2-1.8C605,25.9,604.7,25,603.8,25z"/>
	<path d="M608,24.5c1.2,0,1.7,1.2,1.7,2.3c0,1.1-0.5,2.4-1.7,2.4c-1.2,0-1.7-1.2-1.7-2.4C606.3,25.7,606.8,24.5,608,24.5z M608,25
		c-0.9,0-1.2,0.9-1.2,1.8c0,0.9,0.3,1.8,1.2,1.8c0.9,0,1.2-0.9,1.2-1.8C609.2,25.9,608.9,25,608,25z"/>
	<path d="M612.2,24.5c1.2,0,1.7,1.2,1.7,2.3c0,1.1-0.5,2.4-1.7,2.4c-1.2,0-1.7-1.2-1.7-2.4C610.4,25.7,610.9,24.5,612.2,24.5z
		 M612.2,25c-0.9,0-1.2,0.9-1.2,1.8c0,0.9,0.3,1.8,1.2,1.8c0.9,0,1.2-0.9,1.2-1.8C613.3,25.9,613,25,612.2,25z"/>
</g>
<g>
	<path d="M623.5,25.7l-0.7,0.8l-0.3-0.3l1.1-1.2h0.5v4.5h-0.6V25.7z"/>
	<path d="M626.7,24.9c1.2,0,1.7,1.2,1.7,2.3c0,1.1-0.5,2.4-1.7,2.4c-1.2,0-1.7-1.2-1.7-2.4C625,26.1,625.5,24.9,626.7,24.9z
		 M626.7,25.4c-0.9,0-1.2,0.9-1.2,1.8c0,0.9,0.3,1.8,1.2,1.8c0.9,0,1.2-0.9,1.2-1.8C627.9,26.3,627.6,25.4,626.7,25.4z"/>
	<path d="M630.9,24.9c1.2,0,1.7,1.2,1.7,2.3c0,1.1-0.5,2.4-1.7,2.4c-1.2,0-1.7-1.2-1.7-2.4C629.1,26.1,629.6,24.9,630.9,24.9z
		 M630.9,25.4c-0.9,0-1.2,0.9-1.2,1.8c0,0.9,0.3,1.8,1.2,1.8c0.9,0,1.2-0.9,1.2-1.8C632,26.3,631.7,25.4,630.9,25.4z"/>
	<path d="M635.1,24.9c1.2,0,1.7,1.2,1.7,2.3c0,1.1-0.5,2.4-1.7,2.4c-1.2,0-1.7-1.2-1.7-2.4C633.3,26.1,633.8,24.9,635.1,24.9z
		 M635.1,25.4c-0.9,0-1.2,0.9-1.2,1.8c0,0.9,0.3,1.8,1.2,1.8c0.9,0,1.2-0.9,1.2-1.8C636.2,26.3,635.9,25.4,635.1,25.4z"/>
</g>
<g>
	<path d="M646.5,25.7l-0.7,0.8l-0.3-0.3l1.1-1.2h0.5v4.5h-0.6V25.7z"/>
	<path d="M649.6,24.9c1.2,0,1.7,1.2,1.7,2.3c0,1.1-0.5,2.4-1.7,2.4c-1.2,0-1.7-1.2-1.7-2.4C647.9,26.1,648.4,24.9,649.6,24.9z
		 M649.6,25.4c-0.9,0-1.2,0.9-1.2,1.8c0,0.9,0.3,1.8,1.2,1.8c0.9,0,1.2-0.9,1.2-1.8C650.8,26.3,650.5,25.4,649.6,25.4z"/>
	<path d="M653.8,24.9c1.2,0,1.7,1.2,1.7,2.3c0,1.1-0.5,2.4-1.7,2.4c-1.2,0-1.7-1.2-1.7-2.4C652.1,26.1,652.6,24.9,653.8,24.9z
		 M653.8,25.4c-0.9,0-1.2,0.9-1.2,1.8c0,0.9,0.3,1.8,1.2,1.8c0.9,0,1.2-0.9,1.2-1.8C655,26.3,654.7,25.4,653.8,25.4z"/>
</g>
<g>
	<path d="M664.5,25.7l-0.7,0.8l-0.3-0.3l1.1-1.2h0.5v4.5h-0.6V25.7z"/>
	<path d="M667.7,24.9c1.2,0,1.7,1.2,1.7,2.3c0,1.1-0.5,2.4-1.7,2.4c-1.2,0-1.7-1.2-1.7-2.4C665.9,26.1,666.4,24.9,667.7,24.9z
		 M667.7,25.4c-0.9,0-1.2,0.9-1.2,1.8c0,0.9,0.3,1.8,1.2,1.8c0.9,0,1.2-0.9,1.2-1.8C668.8,26.3,668.5,25.4,667.7,25.4z"/>
</g>
<g>
	<path d="M677.4,25.7l-0.7,0.8l-0.3-0.3l1.1-1.2h0.5v4.5h-0.6V25.7z"/>
</g>
<path class="st11" d="M642.8,66.8"/>
<g>
	<g>
		<g>
			<path d="M750.8,16.1h-0.9v1.8h-0.7v-4.7h2c0.9,0,1.5,0.6,1.5,1.4c0,0.8-0.6,1.3-1.2,1.4l1.2,1.9h-0.8L750.8,16.1z M751.1,13.8
				h-1.2v1.6h1.2c0.5,0,0.9-0.3,0.9-0.8S751.6,13.8,751.1,13.8z"/>
			<path d="M753.6,13.2h0.7v4.7h-0.7V13.2z"/>
			<path d="M755,13.2h0.8l1.5,3.9l1.5-3.9h0.8l-1.9,4.7h-0.9L755,13.2z"/>
			<path d="M760.2,13.2h3.2v0.6h-2.5v1.4h2.4v0.6h-2.4v1.5h2.5v0.6h-3.2V13.2z"/>
			<path d="M765.9,16.1H765v1.8h-0.7v-4.7h2c0.9,0,1.5,0.6,1.5,1.4c0,0.8-0.6,1.3-1.2,1.4l1.2,1.9H767L765.9,16.1z M766.2,13.8H765
				v1.6h1.2c0.5,0,0.9-0.3,0.9-0.8S766.7,13.8,766.2,13.8z"/>
		</g>
		<rect x="709.8" y="13.8" class="st12" width="29.3" height="3.5"/>
	</g>
	<g>
		<g>
			<path d="M749.2,25.8h0.7v4.1h2.1v0.6h-2.8V25.8z"/>
			<path d="M755.9,29.5h-2.3l-0.4,1h-0.8l1.9-4.7h0.9l1.9,4.7h-0.8L755.9,29.5z M753.8,28.9h1.9l-1-2.5L753.8,28.9z"/>
			<path d="M758.8,28.4l-0.4,0.5v1.5h-0.7v-4.7h0.7v2.3l2-2.3h0.9l-1.9,2.2l2.1,2.5h-0.9L758.8,28.4z"/>
			<path d="M762,25.8h3.2v0.6h-2.5v1.4h2.4v0.6h-2.4v1.5h2.5v0.6H762V25.8z"/>
			<path d="M766.3,29.3c0.3,0.4,0.8,0.7,1.5,0.7c0.8,0,1-0.4,1-0.7c0-0.5-0.5-0.6-1.1-0.8c-0.8-0.2-1.6-0.4-1.6-1.4
				c0-0.8,0.7-1.3,1.7-1.3c0.7,0,1.3,0.2,1.7,0.7l-0.4,0.5c-0.4-0.4-0.9-0.5-1.4-0.5c-0.5,0-0.9,0.3-0.9,0.7c0,0.4,0.5,0.6,1.1,0.7
				c0.8,0.2,1.7,0.4,1.7,1.4c0,0.7-0.5,1.4-1.8,1.4c-0.8,0-1.5-0.3-1.9-0.7L766.3,29.3z"/>
		</g>
		<rect x="709.8" y="26.4" class="st13" width="29.3" height="3.5"/>
	</g>
	<g>
		<g>
			<path d="M751.4,38.2c1.4,0,2.4,1,2.4,2.4c0,1.4-1,2.4-2.4,2.4c-1.4,0-2.4-1-2.4-2.4C749,39.3,750,38.2,751.4,38.2z M751.4,38.9
				c-1,0-1.6,0.8-1.6,1.8c0,1,0.6,1.8,1.6,1.8c1,0,1.6-0.8,1.6-1.8C753,39.6,752.4,38.9,751.4,38.9z"/>
			<path d="M754.5,40.7c0-1.4,1.1-2.4,2.4-2.4c0.9,0,1.5,0.4,1.9,1l-0.6,0.3c-0.2-0.4-0.7-0.7-1.3-0.7c-1,0-1.7,0.7-1.7,1.8
				c0,1.1,0.7,1.8,1.7,1.8c0.6,0,1-0.3,1.3-0.7l0.6,0.3c-0.4,0.5-0.9,1-1.9,1C755.6,43.1,754.5,42.1,754.5,40.7z"/>
			<path d="M759.5,38.3h3.2v0.6h-2.5v1.4h2.4v0.6h-2.4v1.5h2.5V43h-3.2V38.3z"/>
			<path d="M766.6,42h-2.3l-0.4,1h-0.8l1.9-4.7h0.9l1.9,4.7H767L766.6,42z M764.5,41.4h1.9l-1-2.5L764.5,41.4z"/>
			<path d="M769.1,39.4V43h-0.7v-4.7h0.7l2.6,3.5v-3.5h0.7V43h-0.7L769.1,39.4z"/>
		</g>
		<rect x="709.8" y="38.9" class="st14" width="29.3" height="3.5"/>
	</g>
</g>
<circle class="st15" cx="304.2" cy="257.3" r="19"/>
<circle class="st15" cx="79.2" cy="429.3" r="15"/>
<circle class="st15" cx="409.6" cy="454.6" r="10.3"/>
<circle class="st15" cx="297.1" cy="284.5" r="10.3"/>
<circle class="st15" cx="86.1" cy="208.5" r="10.3"/>
<circle class="st15" cx="104.1" cy="250.5" r="10.3"/>
<circle class="st9" cx="672.4" cy="219.8" r="14.9"/>
<circle class="st15" cx="733.9" cy="361.5" r="8.3"/>
<circle class="st15" cx="717.9" cy="404.5" r="8.3"/>
<circle class="st15" cx="626.9" cy="262.5" r="8.3"/>
<line class="st16" x1="317.6" y1="270.7" x2="392.2" y2="270.7"/>
<line class="st16" x1="317.6" y1="270.7" x2="392.2" y2="270.7"/>
<line class="st16" x1="335.6" y1="244.7" x2="410.2" y2="244.7"/>
<line class="st16" x1="335.6" y1="244.7" x2="410.2" y2="244.7"/>
<rect x="414.5" y="233.3" class="st4" width="147.7" height="26"/>
<text transform="matrix(1 0 0 1 414.5005 241.3526)"><tspan x="0" y="0" class="st17 st18 st19">2nd</tspan><tspan x="21.2" y="0" class="st17 st18 st20"> density</tspan><tspan x="0" y="10.8" class="st21 st22 st20">Korea | Incheon coast</tspan></text>
<rect x="395.1" y="267" class="st4" width="88.2" height="27"/>
<text transform="matrix(1 0 0 1 395.1002 275.0156)"><tspan x="0" y="0" class="st17 st18 st19">3rd</tspan><tspan x="18.4" y="0" class="st17 st18 st20"> density</tspan><tspan x="0" y="10.8" class="st21 st22 st20">Korea | Nakdong </tspan></text>
<g>
</g>
<g>
	<rect x="21" y="110.7" class="st4" width="108.3" height="38"/>
	<text transform="matrix(1 0 0 1 20.9634 118.6993)"><tspan x="0" y="0" class="st17 st18 st19">1st </tspan><tspan x="17.8" y="0" class="st17 st18 st20">density</tspan><tspan x="0" y="10.8" class="st21 st22 st20">England | Merge &amp; Irwell </tspan></text>
</g>
<line class="st16" x1="42.1" y1="205.3" x2="55" y2="137.3"/>
<text transform="matrix(1 0 0 1 1.032 20.3452)" class="st23"><tspan x="0" y="0" class="st24 st25 st26">Microplastic Contamination Density</tspan><tspan x="0" y="12" class="st24 st25 st27">Top 15  microplastic concentrated area. </tspan></text>
</svg>
