<svg xmlns="http://www.w3.org/2000/svg" viewBox="0 0 139.56 193.21"><defs><style>.cls-1{fill:#1d1d1b;}.cls-2{fill:#fff29f;}.cls-3{fill:#ffde01;}.cls-4{fill:#ffbc04;}</style></defs><title>Asset 3</title><g id="Layer_2" data-name="Layer 2"><g id="Layer_1-2" data-name="Layer 1"><rect class="cls-1" x="176.64" y="83.59" width="5.05" height="5.08" transform="translate(-137.49 72.95) rotate(-45)"/><rect class="cls-1" x="180.2" y="80.01" width="5.08" height="5.08" transform="translate(-133.92 74.43) rotate(-45)"/><rect class="cls-1" x="173.06" y="94.34" width="5.05" height="5.05" transform="translate(-146.13 73.56) rotate(-45)"/><rect class="cls-1" x="176.62" y="90.76" width="5.08" height="5.05" transform="translate(-142.56 75.04) rotate(-45)"/><rect class="cls-2" x="180.21" y="87.19" width="5.05" height="5.05" transform="translate(-138.98 76.53) rotate(-45)"/><rect class="cls-1" x="183.78" y="83.61" width="5.08" height="5.05" transform="translate(-135.4 78.01) rotate(-45)"/><rect class="cls-1" x="187.37" y="80.03" width="5.05" height="5.05" transform="translate(-131.82 79.49) rotate(-45)"/><rect class="cls-1" x="165.91" y="108.63" width="5.05" height="5.08" transform="translate(-158.34 72.7) rotate(-45)"/><rect class="cls-1" x="169.48" y="105.07" width="5.05" height="5.08" transform="translate(-154.77 74.18) rotate(-45)"/><rect class="cls-1" x="173.04" y="101.49" width="5.08" height="5.08" transform="translate(-151.2 75.66) rotate(-45)"/><rect class="cls-2" x="176.64" y="97.91" width="5.05" height="5.08" transform="translate(-147.62 77.14) rotate(-45)"/><rect class="cls-2" x="180.2" y="94.33" width="5.08" height="5.08" transform="translate(-144.04 78.62) rotate(-45)"/><rect class="cls-2" x="183.79" y="90.75" width="5.05" height="5.08" transform="translate(-140.46 80.11) rotate(-45)"/><rect class="cls-2" x="187.36" y="87.17" width="5.08" height="5.08" transform="translate(-136.88 81.59) rotate(-45)"/><rect class="cls-1" x="190.95" y="83.59" width="5.05" height="5.08" transform="translate(-133.3 83.07) rotate(-45)"/><rect class="cls-1" x="194.51" y="80.01" width="5.08" height="5.08" transform="translate(-129.72 84.55) rotate(-45)"/><rect class="cls-1" x="158.74" y="122.96" width="5.08" height="5.05" transform="translate(-170.56 71.83) rotate(-45)"/><rect class="cls-1" x="162.33" y="119.38" width="5.05" height="5.05" transform="translate(-166.98 73.31) rotate(-45)"/><rect class="cls-1" x="165.89" y="115.81" width="5.08" height="5.05" transform="translate(-163.4 74.79) rotate(-45)"/><rect class="cls-2" x="169.49" y="112.23" width="5.05" height="5.05" transform="translate(-159.83 76.28) rotate(-45)"/><rect class="cls-2" x="173.06" y="108.66" width="5.05" height="5.05" transform="translate(-156.26 77.76) rotate(-45)"/><rect class="cls-2" x="176.62" y="105.08" width="5.08" height="5.05" transform="translate(-152.68 79.24) rotate(-45)"/><rect class="cls-2" x="180.21" y="101.5" width="5.05" height="5.05" transform="translate(-149.1 80.72) rotate(-45)"/><rect class="cls-2" x="183.78" y="97.92" width="5.08" height="5.05" transform="translate(-145.52 82.2) rotate(-45)"/><rect class="cls-2" x="187.37" y="94.34" width="5.05" height="5.05" transform="translate(-141.94 83.68) rotate(-45)"/><rect class="cls-2" x="190.94" y="90.76" width="5.08" height="5.05" transform="translate(-138.36 85.17) rotate(-45)"/><rect class="cls-2" x="194.53" y="87.19" width="5.05" height="5.05" transform="translate(-134.78 86.65) rotate(-45)"/><rect class="cls-1" x="198.09" y="83.61" width="5.08" height="5.05" transform="translate(-131.21 88.13) rotate(-45)"/><rect class="cls-1" x="201.69" y="80.03" width="5.05" height="5.05" transform="translate(-127.63 89.61) rotate(-45)"/><rect class="cls-1" x="155.16" y="133.69" width="5.08" height="5.08" transform="translate(-179.2 72.44) rotate(-45)"/><rect class="cls-1" x="158.75" y="130.11" width="5.05" height="5.08" transform="translate(-175.62 73.93) rotate(-45)"/><rect class="cls-1" x="162.32" y="126.53" width="5.08" height="5.08" transform="translate(-172.04 75.41) rotate(-45)"/><rect class="cls-2" x="165.91" y="122.95" width="5.05" height="5.08" transform="translate(-168.47 76.89) rotate(-45)"/><rect class="cls-2" x="169.47" y="119.37" width="5.08" height="5.08" transform="translate(-164.89 78.37) rotate(-45)"/><rect class="cls-2" x="173.07" y="115.79" width="5.05" height="5.08" transform="translate(-161.31 79.86) rotate(-45)"/><rect class="cls-2" x="176.64" y="112.22" width="5.05" height="5.08" transform="translate(-157.74 81.33) rotate(-45)"/><rect class="cls-2" x="180.2" y="108.64" width="5.08" height="5.08" transform="translate(-154.16 82.82) rotate(-45)"/><rect class="cls-2" x="183.79" y="105.07" width="5.05" height="5.08" transform="translate(-150.58 84.3) rotate(-45)"/><rect class="cls-2" x="187.36" y="101.49" width="5.08" height="5.08" transform="translate(-147 85.78) rotate(-45)"/><rect class="cls-2" x="190.95" y="97.91" width="5.05" height="5.08" transform="translate(-143.42 87.26) rotate(-45)"/><rect class="cls-2" x="194.51" y="94.33" width="5.08" height="5.08" transform="translate(-139.85 88.75) rotate(-45)"/><rect class="cls-3" x="198.11" y="90.75" width="5.05" height="5.08" transform="translate(-136.27 90.23) rotate(-45)"/><rect class="cls-3" x="201.67" y="87.17" width="5.08" height="5.08" transform="translate(-132.69 91.71) rotate(-45)"/><rect class="cls-1" x="205.27" y="83.59" width="5.05" height="5.08" transform="translate(-129.11 93.19) rotate(-45)"/><rect class="cls-1" x="208.83" y="80.01" width="5.08" height="5.08" transform="translate(-125.53 94.68) rotate(-45)"/><rect class="cls-1" x="148.02" y="148.02" width="5.05" height="5.05" transform="translate(-191.42 71.58) rotate(-45)"/><rect class="cls-1" x="151.58" y="144.44" width="5.08" height="5.05" transform="translate(-187.84 73.06) rotate(-45)"/><rect class="cls-1" x="155.17" y="140.86" width="5.05" height="5.05" transform="translate(-184.26 74.54) rotate(-45)"/><rect class="cls-2" x="158.74" y="137.28" width="5.08" height="5.05" transform="translate(-180.68 76.02) rotate(-45)"/><rect class="cls-2" x="162.33" y="133.7" width="5.05" height="5.05" transform="translate(-177.11 77.51) rotate(-45)"/><rect class="cls-2" x="165.89" y="130.12" width="5.08" height="5.05" transform="translate(-173.53 78.99) rotate(-45)"/><rect class="cls-2" x="169.49" y="126.54" width="5.05" height="5.05" transform="translate(-169.95 80.47) rotate(-45)"/><rect class="cls-2" x="173.05" y="122.96" width="5.08" height="5.05" transform="translate(-166.37 81.95) rotate(-45)"/><rect class="cls-2" x="176.65" y="119.38" width="5.05" height="5.05" transform="translate(-162.79 83.43) rotate(-45)"/><rect class="cls-2" x="180.21" y="115.82" width="5.05" height="5.05" transform="translate(-159.22 84.91) rotate(-45)"/><rect class="cls-2" x="183.78" y="112.24" width="5.08" height="5.05" transform="translate(-155.64 86.4) rotate(-45)"/><rect class="cls-3" x="187.37" y="108.66" width="5.05" height="5.05" transform="translate(-152.06 87.88) rotate(-45)"/><rect class="cls-3" x="190.94" y="105.08" width="5.08" height="5.05" transform="translate(-148.49 89.36) rotate(-45)"/><rect class="cls-3" x="194.53" y="101.5" width="5.05" height="5.05" transform="translate(-144.91 90.84) rotate(-45)"/><rect class="cls-3" x="198.09" y="97.92" width="5.08" height="5.05" transform="translate(-141.33 92.32) rotate(-45)"/><rect class="cls-3" x="201.69" y="94.34" width="5.05" height="5.05" transform="translate(-137.75 93.81) rotate(-45)"/><rect class="cls-3" x="205.25" y="90.76" width="5.08" height="5.05" transform="translate(-134.17 95.29) rotate(-45)"/><rect class="cls-3" x="208.84" y="87.19" width="5.05" height="5.05" transform="translate(-130.59 96.77) rotate(-45)"/><rect class="cls-1" x="212.41" y="83.61" width="5.08" height="5.05" transform="translate(-127.01 98.25) rotate(-45)"/><rect class="cls-1" x="216" y="80.03" width="5.05" height="5.05" transform="translate(-123.43 99.74) rotate(-45)"/><rect class="cls-1" x="140.83" y="162.32" width="5.08" height="5.05" transform="translate(-203.64 70.7) rotate(-45)"/><rect class="cls-1" x="144.43" y="158.74" width="5.05" height="5.05" transform="translate(-200.06 72.18) rotate(-45)"/><rect class="cls-1" x="147.99" y="155.16" width="5.08" height="5.05" transform="translate(-196.48 73.66) rotate(-45)"/><rect class="cls-2" x="151.58" y="151.58" width="5.05" height="5.05" transform="translate(-192.9 75.14) rotate(-45)"/><rect class="cls-2" x="155.15" y="148" width="5.08" height="5.05" transform="translate(-189.32 76.63) rotate(-45)"/><rect class="cls-2" x="158.74" y="144.43" width="5.05" height="5.05" transform="translate(-185.74 78.11) rotate(-45)"/><rect class="cls-2" x="162.31" y="140.85" width="5.08" height="5.05" transform="translate(-182.16 79.59) rotate(-45)"/><rect class="cls-2" x="165.9" y="137.27" width="5.05" height="5.05" transform="translate(-178.58 81.07) rotate(-45)"/><rect class="cls-2" x="169.46" y="133.69" width="5.08" height="5.05" transform="translate(-175.01 82.56) rotate(-45)"/><rect class="cls-2" x="173.06" y="130.11" width="5.05" height="5.05" transform="translate(-171.43 84.04) rotate(-45)"/><rect class="cls-2" x="176.62" y="126.53" width="5.08" height="5.05" transform="translate(-167.85 85.52) rotate(-45)"/><rect class="cls-3" x="180.21" y="122.95" width="5.05" height="5.05" transform="translate(-164.27 87) rotate(-45)"/><rect class="cls-3" x="183.78" y="119.38" width="5.05" height="5.05" transform="translate(-160.7 88.48) rotate(-45)"/><rect class="cls-3" x="187.35" y="115.81" width="5.08" height="5.05" transform="translate(-157.12 89.96) rotate(-45)"/><rect class="cls-3" x="190.94" y="112.23" width="5.05" height="5.05" transform="translate(-153.54 91.45) rotate(-45)"/><rect class="cls-3" x="194.5" y="108.65" width="5.08" height="5.05" transform="translate(-149.96 92.93) rotate(-45)"/><rect class="cls-3" x="198.1" y="105.07" width="5.05" height="5.05" transform="translate(-146.39 94.41) rotate(-45)"/><rect class="cls-3" x="201.66" y="101.49" width="5.08" height="5.05" transform="translate(-142.81 95.89) rotate(-45)"/><rect class="cls-3" x="205.26" y="97.91" width="5.05" height="5.05" transform="translate(-139.23 97.38) rotate(-45)"/><rect class="cls-3" x="208.82" y="94.33" width="5.08" height="5.05" transform="translate(-135.65 98.86) rotate(-45)"/><rect class="cls-3" x="212.41" y="90.75" width="5.05" height="5.05" transform="translate(-132.07 100.34) rotate(-45)"/><rect class="cls-3" x="215.98" y="87.18" width="5.08" height="5.05" transform="translate(-128.49 101.82) rotate(-45)"/><rect class="cls-1" x="219.57" y="83.6" width="5.05" height="5.05" transform="translate(-124.91 103.31) rotate(-45)"/><rect class="cls-1" x="223.13" y="80.02" width="5.08" height="5.05" transform="translate(-121.33 104.79) rotate(-45)"/><rect class="cls-1" x="137.25" y="173.04" width="5.08" height="5.08" transform="translate(-212.28 71.31) rotate(-45)"/><rect class="cls-1" x="140.85" y="169.46" width="5.05" height="5.08" transform="translate(-208.7 72.79) rotate(-45)"/><rect class="cls-2" x="144.41" y="165.88" width="5.08" height="5.08" transform="translate(-205.12 74.28) rotate(-45)"/><rect class="cls-2" x="148" y="162.31" width="5.05" height="5.08" transform="translate(-201.54 75.76) rotate(-45)"/><rect class="cls-2" x="151.57" y="158.73" width="5.08" height="5.08" transform="translate(-197.96 77.24) rotate(-45)"/><rect class="cls-2" x="155.16" y="155.15" width="5.05" height="5.08" transform="translate(-194.38 78.72) rotate(-45)"/><rect class="cls-2" x="158.73" y="151.57" width="5.08" height="5.08" transform="translate(-190.8 80.21) rotate(-45)"/><rect class="cls-2" x="162.32" y="147.99" width="5.05" height="5.08" transform="translate(-187.22 81.69) rotate(-45)"/><rect class="cls-3" x="165.88" y="144.41" width="5.08" height="5.08" transform="translate(-183.65 83.17) rotate(-45)"/><rect class="cls-3" x="169.48" y="140.83" width="5.05" height="5.08" transform="translate(-180.07 84.65) rotate(-45)"/><rect class="cls-3" x="173.04" y="137.25" width="5.08" height="5.08" transform="translate(-176.49 86.13) rotate(-45)"/><rect class="cls-3" x="176.64" y="133.68" width="5.05" height="5.08" transform="translate(-172.91 87.62) rotate(-45)"/><rect class="cls-3" x="180.2" y="130.1" width="5.08" height="5.08" transform="translate(-169.33 89.1) rotate(-45)"/><rect class="cls-3" x="183.79" y="126.52" width="5.05" height="5.08" transform="translate(-165.75 90.58) rotate(-45)"/><rect class="cls-3" x="187.36" y="122.95" width="5.05" height="5.08" transform="translate(-162.18 92.06) rotate(-45)"/><rect class="cls-3" x="190.93" y="119.37" width="5.08" height="5.08" transform="translate(-158.6 93.54) rotate(-45)"/><rect class="cls-3" x="194.52" y="115.79" width="5.05" height="5.08" transform="translate(-155.02 95.02) rotate(-45)"/><rect class="cls-3" x="198.08" y="112.21" width="5.08" height="5.08" transform="translate(-151.45 96.51) rotate(-45)"/><rect class="cls-3" x="201.68" y="108.63" width="5.05" height="5.08" transform="translate(-147.87 97.99) rotate(-45)"/><rect class="cls-3" x="205.24" y="105.06" width="5.08" height="5.08" transform="translate(-144.29 99.47) rotate(-45)"/><rect class="cls-3" x="208.83" y="101.48" width="5.05" height="5.08" transform="translate(-140.71 100.95) rotate(-45)"/><rect class="cls-3" x="212.4" y="97.9" width="5.08" height="5.08" transform="translate(-137.13 102.44) rotate(-45)"/><rect class="cls-3" x="215.99" y="94.32" width="5.05" height="5.08" transform="translate(-133.55 103.92) rotate(-45)"/><rect class="cls-3" x="219.56" y="90.74" width="5.08" height="5.08" transform="translate(-129.97 105.4) rotate(-45)"/><rect class="cls-3" x="223.15" y="87.16" width="5.05" height="5.08" transform="translate(-126.39 106.88) rotate(-45)"/><rect class="cls-1" x="226.71" y="83.58" width="5.08" height="5.08" transform="translate(-122.82 108.37) rotate(-45)"/><rect class="cls-1" x="230.31" y="80" width="5.05" height="5.08" transform="translate(-119.24 109.85) rotate(-45)"/><rect class="cls-1" x="130.11" y="187.37" width="5.05" height="5.05" transform="translate(-224.49 70.44) rotate(-45)"/><rect class="cls-1" x="133.68" y="183.79" width="5.08" height="5.05" transform="translate(-220.92 71.93) rotate(-45)"/><rect class="cls-1" x="137.27" y="180.21" width="5.05" height="5.05" transform="translate(-217.34 73.41) rotate(-45)"/><rect class="cls-2" x="140.83" y="176.64" width="5.08" height="5.05" transform="translate(-213.76 74.89) rotate(-45)"/><rect class="cls-2" x="144.43" y="173.06" width="5.05" height="5.05" transform="translate(-210.18 76.37) rotate(-45)"/><rect class="cls-2" x="147.99" y="169.48" width="5.08" height="5.05" transform="translate(-206.6 77.85) rotate(-45)"/><rect class="cls-2" x="151.58" y="165.9" width="5.05" height="5.05" transform="translate(-203.02 79.34) rotate(-45)"/><rect class="cls-2" x="155.15" y="162.32" width="5.08" height="5.05" transform="translate(-199.44 80.82) rotate(-45)"/><rect class="cls-3" x="158.74" y="158.74" width="5.05" height="5.05" transform="translate(-195.86 82.3) rotate(-45)"/><rect class="cls-3" x="162.31" y="155.16" width="5.08" height="5.05" transform="translate(-192.28 83.78) rotate(-45)"/><rect class="cls-3" x="165.9" y="151.58" width="5.05" height="5.05" transform="translate(-188.71 85.27) rotate(-45)"/><rect class="cls-3" x="169.46" y="148" width="5.08" height="5.05" transform="translate(-185.13 86.75) rotate(-45)"/><rect class="cls-3" x="173.06" y="144.43" width="5.05" height="5.05" transform="translate(-181.55 88.23) rotate(-45)"/><rect class="cls-3" x="176.62" y="140.85" width="5.08" height="5.05" transform="translate(-177.97 89.71) rotate(-45)"/><rect class="cls-3" x="180.21" y="137.27" width="5.05" height="5.05" transform="translate(-174.39 91.2) rotate(-45)"/><rect class="cls-3" x="183.78" y="133.69" width="5.08" height="5.05" transform="translate(-170.81 92.68) rotate(-45)"/><rect class="cls-3" x="187.37" y="130.11" width="5.05" height="5.05" transform="translate(-167.23 94.16) rotate(-45)"/><rect class="cls-3" x="190.94" y="126.54" width="5.05" height="5.05" transform="translate(-163.66 95.64) rotate(-45)"/><rect class="cls-3" x="194.5" y="122.96" width="5.08" height="5.05" transform="translate(-160.09 97.12) rotate(-45)"/><rect class="cls-3" x="198.1" y="119.38" width="5.05" height="5.05" transform="translate(-156.51 98.6) rotate(-45)"/><rect class="cls-3" x="201.66" y="115.81" width="5.08" height="5.05" transform="translate(-152.93 100.09) rotate(-45)"/><rect class="cls-3" x="205.26" y="112.23" width="5.05" height="5.05" transform="translate(-149.35 101.57) rotate(-45)"/><rect class="cls-3" x="208.82" y="108.65" width="5.08" height="5.05" transform="translate(-145.77 103.05) rotate(-45)"/><rect class="cls-3" x="212.41" y="105.07" width="5.05" height="5.05" transform="translate(-142.19 104.53) rotate(-45)"/><rect class="cls-3" x="215.98" y="101.49" width="5.08" height="5.05" transform="translate(-138.61 106.02) rotate(-45)"/><rect class="cls-3" x="219.57" y="97.91" width="5.05" height="5.05" transform="translate(-135.03 107.5) rotate(-45)"/><rect class="cls-3" x="223.13" y="94.33" width="5.08" height="5.05" transform="translate(-131.46 108.98) rotate(-45)"/><rect class="cls-4" x="226.73" y="90.75" width="5.05" height="5.05" transform="translate(-127.88 110.46) rotate(-45)"/><rect class="cls-4" x="230.29" y="87.18" width="5.08" height="5.05" transform="translate(-124.3 111.95) rotate(-45)"/><rect class="cls-1" x="233.89" y="83.6" width="5.05" height="5.05" transform="translate(-120.72 113.43) rotate(-45)"/><rect class="cls-1" x="237.45" y="80.02" width="5.08" height="5.05" transform="translate(-117.14 114.91) rotate(-45)"/><rect class="cls-1" x="137.25" y="187.36" width="5.08" height="5.08" transform="translate(-222.4 75.5) rotate(-45)"/><rect class="cls-2" x="140.85" y="183.78" width="5.05" height="5.08" transform="translate(-218.82 76.99) rotate(-45)"/><rect class="cls-2" x="144.41" y="180.2" width="5.08" height="5.08" transform="translate(-215.24 78.47) rotate(-45)"/><rect class="cls-2" x="148" y="176.62" width="5.05" height="5.08" transform="translate(-211.66 79.95) rotate(-45)"/><rect class="cls-2" x="151.57" y="173.04" width="5.08" height="5.08" transform="translate(-208.08 81.43) rotate(-45)"/><rect class="cls-3" x="155.16" y="169.46" width="5.05" height="5.08" transform="translate(-204.5 82.92) rotate(-45)"/><rect class="cls-3" x="158.73" y="165.88" width="5.08" height="5.08" transform="translate(-200.92 84.4) rotate(-45)"/><rect class="cls-3" x="162.32" y="162.31" width="5.05" height="5.08" transform="translate(-197.35 85.88) rotate(-45)"/><rect class="cls-3" x="165.88" y="158.73" width="5.08" height="5.08" transform="translate(-193.77 87.36) rotate(-45)"/><rect class="cls-3" x="169.48" y="155.15" width="5.05" height="5.08" transform="translate(-190.19 88.85) rotate(-45)"/><rect class="cls-3" x="173.04" y="151.57" width="5.08" height="5.08" transform="translate(-186.61 90.33) rotate(-45)"/><rect class="cls-3" x="176.64" y="147.99" width="5.05" height="5.08" transform="translate(-183.03 91.81) rotate(-45)"/><rect class="cls-3" x="180.2" y="144.41" width="5.08" height="5.08" transform="translate(-179.45 93.29) rotate(-45)"/><rect class="cls-3" x="183.79" y="140.83" width="5.05" height="5.08" transform="translate(-175.87 94.77) rotate(-45)"/><rect class="cls-3" x="187.36" y="137.25" width="5.08" height="5.08" transform="translate(-172.29 96.26) rotate(-45)"/><rect class="cls-3" x="190.95" y="133.68" width="5.05" height="5.08" transform="translate(-168.72 97.74) rotate(-45)"/><rect class="cls-3" x="194.52" y="130.11" width="5.05" height="5.08" transform="translate(-165.15 99.22) rotate(-45)"/><rect class="cls-3" x="198.08" y="126.53" width="5.08" height="5.08" transform="translate(-161.57 100.7) rotate(-45)"/><rect class="cls-3" x="201.68" y="122.95" width="5.05" height="5.08" transform="translate(-157.99 102.18) rotate(-45)"/><rect class="cls-3" x="205.24" y="119.37" width="5.08" height="5.08" transform="translate(-154.41 103.66) rotate(-45)"/><rect class="cls-3" x="208.83" y="115.79" width="5.05" height="5.08" transform="translate(-150.83 105.15) rotate(-45)"/><rect class="cls-3" x="212.4" y="112.21" width="5.08" height="5.08" transform="translate(-147.25 106.63) rotate(-45)"/><rect class="cls-4" x="215.99" y="108.63" width="5.05" height="5.08" transform="translate(-143.67 108.11) rotate(-45)"/><rect class="cls-4" x="219.56" y="105.06" width="5.08" height="5.08" transform="translate(-140.1 109.59) rotate(-45)"/><rect class="cls-4" x="223.15" y="101.48" width="5.05" height="5.08" transform="translate(-136.52 111.08) rotate(-45)"/><rect class="cls-4" x="226.71" y="97.9" width="5.08" height="5.08" transform="translate(-132.94 112.56) rotate(-45)"/><rect class="cls-4" x="230.31" y="94.32" width="5.05" height="5.08" transform="translate(-129.36 114.04) rotate(-45)"/><rect class="cls-4" x="233.87" y="90.74" width="5.08" height="5.08" transform="translate(-125.78 115.52) rotate(-45)"/><rect class="cls-4" x="237.46" y="87.16" width="5.05" height="5.08" transform="translate(-122.2 117.01) rotate(-45)"/><rect class="cls-1" x="241.03" y="83.58" width="5.08" height="5.08" transform="translate(-118.62 118.49) rotate(-45)"/><rect class="cls-1" x="244.62" y="80" width="5.05" height="5.08" transform="translate(-115.04 119.97) rotate(-45)"/><rect class="cls-1" x="144.43" y="187.37" width="5.05" height="5.05" transform="translate(-220.3 80.57) rotate(-45)"/><rect class="cls-3" x="147.99" y="183.79" width="5.08" height="5.05" transform="translate(-216.72 82.05) rotate(-45)"/><rect class="cls-3" x="151.58" y="180.21" width="5.05" height="5.05" transform="translate(-213.14 83.53) rotate(-45)"/><rect class="cls-3" x="155.15" y="176.64" width="5.08" height="5.05" transform="translate(-209.56 85.01) rotate(-45)"/><rect class="cls-3" x="158.74" y="173.06" width="5.05" height="5.05" transform="translate(-205.99 86.49) rotate(-45)"/><rect class="cls-3" x="162.31" y="169.48" width="5.08" height="5.05" transform="translate(-202.41 87.98) rotate(-45)"/><rect class="cls-3" x="165.9" y="165.9" width="5.05" height="5.05" transform="translate(-198.83 89.46) rotate(-45)"/><rect class="cls-3" x="169.46" y="162.32" width="5.08" height="5.05" transform="translate(-195.25 90.94) rotate(-45)"/><rect class="cls-3" x="173.06" y="158.74" width="5.05" height="5.05" transform="translate(-191.67 92.42) rotate(-45)"/><rect class="cls-3" x="176.62" y="155.16" width="5.08" height="5.05" transform="translate(-188.09 93.91) rotate(-45)"/><rect class="cls-3" x="180.21" y="151.58" width="5.05" height="5.05" transform="translate(-184.51 95.39) rotate(-45)"/><rect class="cls-3" x="183.78" y="148" width="5.08" height="5.05" transform="translate(-180.93 96.87) rotate(-45)"/><rect class="cls-3" x="187.37" y="144.43" width="5.05" height="5.05" transform="translate(-177.36 98.35) rotate(-45)"/><rect class="cls-3" x="190.94" y="140.85" width="5.08" height="5.05" transform="translate(-173.78 99.84) rotate(-45)"/><rect class="cls-3" x="194.53" y="137.27" width="5.05" height="5.05" transform="translate(-170.2 101.32) rotate(-45)"/><rect class="cls-3" x="198.1" y="133.7" width="5.05" height="5.05" transform="translate(-166.63 102.8) rotate(-45)"/><rect class="cls-3" x="201.66" y="130.12" width="5.08" height="5.05" transform="translate(-163.05 104.28) rotate(-45)"/><rect class="cls-4" x="205.26" y="126.54" width="5.05" height="5.05" transform="translate(-159.47 105.76) rotate(-45)"/><rect class="cls-4" x="208.82" y="122.96" width="5.08" height="5.05" transform="translate(-155.89 107.24) rotate(-45)"/><rect class="cls-4" x="212.41" y="119.38" width="5.05" height="5.05" transform="translate(-152.31 108.73) rotate(-45)"/><rect class="cls-4" x="215.98" y="115.81" width="5.08" height="5.05" transform="translate(-148.74 110.21) rotate(-45)"/><rect class="cls-4" x="219.57" y="112.23" width="5.05" height="5.05" transform="translate(-145.16 111.69) rotate(-45)"/><rect class="cls-4" x="223.13" y="108.65" width="5.08" height="5.05" transform="translate(-141.58 113.17) rotate(-45)"/><rect class="cls-4" x="226.73" y="105.07" width="5.05" height="5.05" transform="translate(-138 114.66) rotate(-45)"/><rect class="cls-4" x="230.29" y="101.49" width="5.08" height="5.05" transform="translate(-134.42 116.14) rotate(-45)"/><rect class="cls-4" x="233.89" y="97.91" width="5.05" height="5.05" transform="translate(-130.84 117.62) rotate(-45)"/><rect class="cls-4" x="237.45" y="94.33" width="5.08" height="5.05" transform="translate(-127.26 119.1) rotate(-45)"/><rect class="cls-4" x="241.04" y="90.75" width="5.05" height="5.05" transform="translate(-123.68 120.59) rotate(-45)"/><rect class="cls-4" x="244.61" y="87.18" width="5.08" height="5.05" transform="translate(-120.11 122.07) rotate(-45)"/><rect class="cls-1" x="248.2" y="83.6" width="5.05" height="5.05" transform="translate(-116.53 123.55) rotate(-45)"/><rect class="cls-1" x="251.76" y="80.02" width="5.08" height="5.05" transform="translate(-112.95 125.03) rotate(-45)"/><rect class="cls-1" x="151.57" y="187.36" width="5.08" height="5.08" transform="translate(-218.2 85.63) rotate(-45)"/><rect class="cls-3" x="155.16" y="183.78" width="5.05" height="5.08" transform="translate(-214.63 87.11) rotate(-45)"/><rect class="cls-3" x="158.73" y="180.2" width="5.08" height="5.08" transform="translate(-211.05 88.59) rotate(-45)"/><rect class="cls-3" x="162.32" y="176.62" width="5.05" height="5.08" transform="translate(-207.47 90.07) rotate(-45)"/><rect class="cls-3" x="165.88" y="173.04" width="5.08" height="5.08" transform="translate(-203.89 91.56) rotate(-45)"/><rect class="cls-3" x="169.48" y="169.46" width="5.05" height="5.08" transform="translate(-200.31 93.04) rotate(-45)"/><rect class="cls-3" x="173.04" y="165.88" width="5.08" height="5.08" transform="translate(-196.73 94.52) rotate(-45)"/><rect class="cls-3" x="176.64" y="162.31" width="5.05" height="5.08" transform="translate(-193.15 96) rotate(-45)"/><rect class="cls-3" x="180.2" y="158.73" width="5.08" height="5.08" transform="translate(-189.57 97.49) rotate(-45)"/><rect class="cls-3" x="183.79" y="155.15" width="5.05" height="5.08" transform="translate(-186 98.97) rotate(-45)"/><rect class="cls-3" x="187.36" y="151.57" width="5.08" height="5.08" transform="translate(-182.42 100.45) rotate(-45)"/><rect class="cls-3" x="190.95" y="147.99" width="5.05" height="5.08" transform="translate(-178.84 101.93) rotate(-45)"/><rect class="cls-4" x="194.51" y="144.41" width="5.08" height="5.08" transform="translate(-175.26 103.41) rotate(-45)"/><rect class="cls-4" x="198.11" y="140.83" width="5.05" height="5.08" transform="translate(-171.68 104.9) rotate(-45)"/><rect class="cls-4" x="201.68" y="137.26" width="5.05" height="5.08" transform="translate(-168.11 106.38) rotate(-45)"/><rect class="cls-4" x="205.24" y="133.69" width="5.08" height="5.08" transform="translate(-164.53 107.86) rotate(-45)"/><rect class="cls-4" x="208.83" y="130.11" width="5.05" height="5.08" transform="translate(-160.95 109.34) rotate(-45)"/><rect class="cls-4" x="212.4" y="126.53" width="5.08" height="5.08" transform="translate(-157.38 110.82) rotate(-45)"/><rect class="cls-4" x="215.99" y="122.95" width="5.05" height="5.08" transform="translate(-153.8 112.3) rotate(-45)"/><rect class="cls-4" x="219.56" y="119.37" width="5.08" height="5.08" transform="translate(-150.22 113.79) rotate(-45)"/><rect class="cls-4" x="223.15" y="115.79" width="5.05" height="5.08" transform="translate(-146.64 115.27) rotate(-45)"/><rect class="cls-4" x="226.71" y="112.21" width="5.08" height="5.08" transform="translate(-143.06 116.75) rotate(-45)"/><rect class="cls-4" x="230.31" y="108.63" width="5.05" height="5.08" transform="translate(-139.48 118.23) rotate(-45)"/><rect class="cls-4" x="233.87" y="105.06" width="5.08" height="5.08" transform="translate(-135.9 119.72) rotate(-45)"/><rect class="cls-4" x="237.46" y="101.48" width="5.05" height="5.08" transform="translate(-132.32 121.2) rotate(-45)"/><rect class="cls-4" x="241.03" y="97.9" width="5.08" height="5.08" transform="translate(-128.75 122.68) rotate(-45)"/><rect class="cls-4" x="244.62" y="94.32" width="5.05" height="5.08" transform="translate(-125.17 124.16) rotate(-45)"/><rect class="cls-4" x="248.19" y="90.74" width="5.08" height="5.08" transform="translate(-121.59 125.65) rotate(-45)"/><rect class="cls-4" x="251.78" y="87.16" width="5.05" height="5.08" transform="translate(-118.01 127.13) rotate(-45)"/><rect class="cls-1" x="255.34" y="83.58" width="5.08" height="5.08" transform="translate(-114.43 128.61) rotate(-45)"/><rect class="cls-1" x="258.94" y="80" width="5.05" height="5.08" transform="translate(-110.85 130.09) rotate(-45)"/><rect class="cls-1" x="158.74" y="187.37" width="5.05" height="5.05" transform="translate(-216.11 90.69) rotate(-45)"/><rect class="cls-3" x="162.31" y="183.79" width="5.08" height="5.05" transform="translate(-212.53 92.17) rotate(-45)"/><rect class="cls-3" x="165.9" y="180.21" width="5.05" height="5.05" transform="translate(-208.95 93.65) rotate(-45)"/><rect class="cls-3" x="169.46" y="176.64" width="5.08" height="5.05" transform="translate(-205.37 95.13) rotate(-45)"/><rect class="cls-3" x="173.06" y="173.06" width="5.05" height="5.05" transform="translate(-201.79 96.62) rotate(-45)"/><rect class="cls-3" x="176.62" y="169.48" width="5.08" height="5.05" transform="translate(-198.21 98.1) rotate(-45)"/><rect class="cls-3" x="180.21" y="165.9" width="5.05" height="5.05" transform="translate(-194.64 99.58) rotate(-45)"/><rect class="cls-3" x="183.78" y="162.32" width="5.08" height="5.05" transform="translate(-191.06 101.06) rotate(-45)"/><rect class="cls-3" x="187.37" y="158.74" width="5.05" height="5.05" transform="translate(-187.48 102.55) rotate(-45)"/><rect class="cls-3" x="190.94" y="155.16" width="5.08" height="5.05" transform="translate(-183.9 104.03) rotate(-45)"/><rect class="cls-3" x="194.53" y="151.58" width="5.05" height="5.05" transform="translate(-180.32 105.51) rotate(-45)"/><rect class="cls-4" x="198.09" y="148" width="5.08" height="5.05" transform="translate(-176.74 106.99) rotate(-45)"/><rect class="cls-4" x="201.69" y="144.43" width="5.05" height="5.05" transform="translate(-173.16 108.48) rotate(-45)"/><rect class="cls-4" x="205.26" y="140.86" width="5.05" height="5.05" transform="translate(-169.59 109.95) rotate(-45)"/><rect class="cls-4" x="208.82" y="137.28" width="5.08" height="5.05" transform="translate(-166.02 111.44) rotate(-45)"/><rect class="cls-4" x="212.41" y="133.7" width="5.05" height="5.05" transform="translate(-162.44 112.92) rotate(-45)"/><rect class="cls-4" x="215.98" y="130.12" width="5.08" height="5.05" transform="translate(-158.86 114.4) rotate(-45)"/><rect class="cls-4" x="219.57" y="126.54" width="5.05" height="5.05" transform="translate(-155.28 115.88) rotate(-45)"/><rect class="cls-4" x="223.13" y="122.96" width="5.08" height="5.05" transform="translate(-151.7 117.37) rotate(-45)"/><rect x="226.73" y="119.38" width="5.05" height="5.05" transform="translate(-148.12 118.85) rotate(-45)"/><rect class="cls-1" x="230.29" y="115.81" width="5.08" height="5.05" transform="translate(-144.54 120.33) rotate(-45)"/><rect class="cls-1" x="233.89" y="112.23" width="5.05" height="5.05" transform="translate(-140.96 121.81) rotate(-45)"/><rect class="cls-1" x="237.45" y="108.65" width="5.08" height="5.05" transform="translate(-137.39 123.3) rotate(-45)"/><rect class="cls-1" x="241.04" y="105.07" width="5.05" height="5.05" transform="translate(-133.81 124.78) rotate(-45)"/><rect class="cls-1" x="244.61" y="101.49" width="5.08" height="5.05" transform="translate(-130.23 126.26) rotate(-45)"/><rect class="cls-1" x="248.2" y="97.91" width="5.05" height="5.05" transform="translate(-126.65 127.74) rotate(-45)"/><rect class="cls-1" x="251.76" y="94.33" width="5.08" height="5.05" transform="translate(-123.07 129.23) rotate(-45)"/><rect class="cls-1" x="255.36" y="90.75" width="5.05" height="5.05" transform="translate(-119.49 130.71) rotate(-45)"/><rect class="cls-1" x="258.92" y="87.18" width="5.08" height="5.05" transform="translate(-115.91 132.19) rotate(-45)"/><rect class="cls-1" x="262.52" y="83.6" width="5.05" height="5.05" transform="translate(-112.33 133.67) rotate(-45)"/><rect class="cls-1" x="165.88" y="187.36" width="5.08" height="5.08" transform="translate(-214.01 95.75) rotate(-45)"/><rect class="cls-3" x="169.48" y="183.78" width="5.05" height="5.08" transform="translate(-210.43 97.23) rotate(-45)"/><rect class="cls-3" x="173.04" y="180.2" width="5.08" height="5.08" transform="translate(-206.85 98.71) rotate(-45)"/><rect class="cls-3" x="176.64" y="176.62" width="5.05" height="5.08" transform="translate(-203.28 100.2) rotate(-45)"/><rect class="cls-3" x="180.2" y="173.04" width="5.08" height="5.08" transform="translate(-199.7 101.68) rotate(-45)"/><rect class="cls-3" x="183.79" y="169.46" width="5.05" height="5.08" transform="translate(-196.12 103.16) rotate(-45)"/><rect class="cls-3" x="187.36" y="165.88" width="5.08" height="5.08" transform="translate(-192.54 104.64) rotate(-45)"/><rect class="cls-3" x="190.95" y="162.31" width="5.05" height="5.08" transform="translate(-188.96 106.13) rotate(-45)"/><rect class="cls-3" x="194.51" y="158.73" width="5.08" height="5.08" transform="translate(-185.38 107.61) rotate(-45)"/><rect class="cls-3" x="198.11" y="155.15" width="5.05" height="5.08" transform="translate(-181.8 109.09) rotate(-45)"/><rect class="cls-3" x="201.67" y="151.57" width="5.08" height="5.08" transform="translate(-178.22 110.57) rotate(-45)"/><rect class="cls-1" x="205.27" y="147.99" width="5.05" height="5.08" transform="translate(-174.65 112.05) rotate(-45)"/><rect class="cls-1" x="208.83" y="144.42" width="5.05" height="5.08" transform="translate(-171.08 113.53) rotate(-45)"/><rect class="cls-1" x="212.4" y="140.84" width="5.08" height="5.08" transform="translate(-167.5 115.02) rotate(-45)"/><rect class="cls-1" x="215.99" y="137.26" width="5.05" height="5.08" transform="translate(-163.92 116.5) rotate(-45)"/><rect class="cls-1" x="219.56" y="133.69" width="5.08" height="5.08" transform="translate(-160.34 117.98) rotate(-45)"/><rect class="cls-1" x="223.15" y="130.11" width="5.05" height="5.08" transform="translate(-156.76 119.46) rotate(-45)"/><rect class="cls-1" x="226.71" y="126.53" width="5.08" height="5.08" transform="translate(-153.18 120.94) rotate(-45)"/><rect x="230.31" y="122.95" width="5.05" height="5.08" transform="translate(-149.6 122.43) rotate(-45)"/><rect x="165.9" y="194.53" width="5.05" height="5.05" transform="translate(-219.07 97.84) rotate(-45)"/><rect class="cls-1" x="169.46" y="190.95" width="5.08" height="5.05" transform="translate(-215.49 99.33) rotate(-45)"/><rect class="cls-1" x="173.06" y="187.37" width="5.05" height="5.05" transform="translate(-211.92 100.81) rotate(-45)"/><rect class="cls-2" x="176.62" y="183.79" width="5.08" height="5.05" transform="translate(-208.34 102.29) rotate(-45)"/><rect class="cls-3" x="180.21" y="180.21" width="5.05" height="5.05" transform="translate(-204.76 103.77) rotate(-45)"/><rect class="cls-3" x="183.78" y="176.64" width="5.08" height="5.05" transform="translate(-201.18 105.26) rotate(-45)"/><rect class="cls-3" x="187.37" y="173.06" width="5.05" height="5.05" transform="translate(-197.6 106.74) rotate(-45)"/><rect class="cls-3" x="190.94" y="169.48" width="5.08" height="5.05" transform="translate(-194.02 108.22) rotate(-45)"/><rect class="cls-3" x="194.53" y="165.9" width="5.05" height="5.05" transform="translate(-190.44 109.7) rotate(-45)"/><rect class="cls-3" x="198.09" y="162.32" width="5.08" height="5.05" transform="translate(-186.86 111.19) rotate(-45)"/><rect class="cls-3" x="201.69" y="158.74" width="5.05" height="5.05" transform="translate(-183.29 112.67) rotate(-45)"/><rect class="cls-3" x="205.25" y="155.16" width="5.08" height="5.05" transform="translate(-179.71 114.15) rotate(-45)"/><rect class="cls-1" x="208.84" y="151.58" width="5.05" height="5.05" transform="translate(-176.13 115.63) rotate(-45)"/><rect class="cls-1" x="212.41" y="148.02" width="5.05" height="5.05" transform="translate(-172.56 117.11) rotate(-45)"/><rect class="cls-1" x="155.16" y="212.41" width="5.05" height="5.08" transform="translate(-234.87 95.49) rotate(-45)"/><rect class="cls-1" x="158.73" y="208.83" width="5.08" height="5.08" transform="translate(-231.29 96.98) rotate(-45)"/><rect class="cls-1" x="162.32" y="205.25" width="5.05" height="5.08" transform="translate(-227.71 98.46) rotate(-45)"/><rect class="cls-1" x="165.88" y="201.67" width="5.08" height="5.08" transform="translate(-224.13 99.94) rotate(-45)"/><rect class="cls-2" x="169.48" y="198.09" width="5.05" height="5.08" transform="translate(-220.56 101.42) rotate(-45)"/><rect class="cls-2" x="173.04" y="194.51" width="5.08" height="5.08" transform="translate(-216.98 102.91) rotate(-45)"/><rect class="cls-2" x="176.64" y="190.94" width="5.05" height="5.08" transform="translate(-213.4 104.39) rotate(-45)"/><rect class="cls-2" x="180.2" y="187.36" width="5.08" height="5.08" transform="translate(-209.82 105.87) rotate(-45)"/><rect class="cls-2" x="183.79" y="183.78" width="5.05" height="5.08" transform="translate(-206.24 107.35) rotate(-45)"/><rect class="cls-3" x="187.36" y="180.2" width="5.08" height="5.08" transform="translate(-202.66 108.84) rotate(-45)"/><rect class="cls-3" x="190.95" y="176.62" width="5.05" height="5.08" transform="translate(-199.08 110.32) rotate(-45)"/><rect class="cls-3" x="194.51" y="173.04" width="5.08" height="5.08" transform="translate(-195.5 111.8) rotate(-45)"/><rect class="cls-3" x="198.11" y="169.46" width="5.05" height="5.08" transform="translate(-191.93 113.28) rotate(-45)"/><rect class="cls-3" x="201.67" y="165.88" width="5.08" height="5.08" transform="translate(-188.35 114.77) rotate(-45)"/><rect class="cls-3" x="205.27" y="162.31" width="5.05" height="5.08" transform="translate(-184.77 116.25) rotate(-45)"/><rect class="cls-3" x="208.83" y="158.73" width="5.08" height="5.08" transform="translate(-181.19 117.73) rotate(-45)"/><rect class="cls-3" x="212.42" y="155.15" width="5.05" height="5.08" transform="translate(-177.61 119.21) rotate(-45)"/><rect class="cls-1" x="215.99" y="151.58" width="5.05" height="5.08" transform="translate(-174.04 120.69) rotate(-45)"/><rect class="cls-1" x="219.56" y="148" width="5.08" height="5.08" transform="translate(-170.46 122.17) rotate(-45)"/><rect class="cls-1" x="140.86" y="233.89" width="5.05" height="5.05" transform="translate(-254.24 91.67) rotate(-45)"/><rect class="cls-1" x="144.42" y="230.31" width="5.08" height="5.05" transform="translate(-250.66 93.15) rotate(-45)"/><rect class="cls-1" x="148.02" y="226.73" width="5.05" height="5.05" transform="translate(-247.08 94.63) rotate(-45)"/><rect class="cls-1" x="151.58" y="223.15" width="5.08" height="5.05" transform="translate(-243.5 96.11) rotate(-45)"/><rect class="cls-1" x="155.17" y="219.57" width="5.05" height="5.05" transform="translate(-239.92 97.59) rotate(-45)"/><rect class="cls-2" x="158.74" y="216" width="5.05" height="5.05" transform="translate(-236.35 99.07) rotate(-45)"/><rect class="cls-2" x="162.31" y="212.42" width="5.08" height="5.05" transform="translate(-232.77 100.56) rotate(-45)"/><rect class="cls-2" x="165.9" y="208.84" width="5.05" height="5.05" transform="translate(-229.2 102.04) rotate(-45)"/><rect class="cls-2" x="169.46" y="205.27" width="5.08" height="5.05" transform="translate(-225.62 103.52) rotate(-45)"/><rect class="cls-2" x="173.06" y="201.69" width="5.05" height="5.05" transform="translate(-222.04 105) rotate(-45)"/><rect class="cls-2" x="176.62" y="198.11" width="5.08" height="5.05" transform="translate(-218.46 106.48) rotate(-45)"/><rect class="cls-2" x="180.21" y="194.53" width="5.05" height="5.05" transform="translate(-214.88 107.97) rotate(-45)"/><rect class="cls-3" x="183.78" y="190.95" width="5.08" height="5.05" transform="translate(-211.3 109.45) rotate(-45)"/><rect class="cls-3" x="187.37" y="187.37" width="5.05" height="5.05" transform="translate(-207.72 110.93) rotate(-45)"/><rect class="cls-3" x="190.94" y="183.79" width="5.08" height="5.05" transform="translate(-204.14 112.41) rotate(-45)"/><rect class="cls-3" x="194.53" y="180.21" width="5.05" height="5.05" transform="translate(-200.57 113.9) rotate(-45)"/><rect class="cls-3" x="198.09" y="176.64" width="5.08" height="5.05" transform="translate(-196.99 115.38) rotate(-45)"/><rect class="cls-3" x="201.69" y="173.06" width="5.05" height="5.05" transform="translate(-193.41 116.86) rotate(-45)"/><rect class="cls-3" x="205.25" y="169.48" width="5.08" height="5.05" transform="translate(-189.83 118.34) rotate(-45)"/><rect class="cls-3" x="208.84" y="165.9" width="5.05" height="5.05" transform="translate(-186.25 119.83) rotate(-45)"/><rect class="cls-3" x="212.41" y="162.32" width="5.08" height="5.05" transform="translate(-182.67 121.31) rotate(-45)"/><rect class="cls-3" x="216" y="158.74" width="5.05" height="5.05" transform="translate(-179.09 122.79) rotate(-45)"/><rect class="cls-3" x="219.57" y="155.17" width="5.05" height="5.05" transform="translate(-175.52 124.27) rotate(-45)"/><rect class="cls-1" x="223.13" y="151.59" width="5.08" height="5.05" transform="translate(-171.95 125.75) rotate(-45)"/><rect class="cls-1" x="226.73" y="148.02" width="5.05" height="5.05" transform="translate(-168.37 127.23) rotate(-45)"/><rect class="cls-1" x="148" y="233.87" width="5.08" height="5.08" transform="translate(-252.14 96.73) rotate(-45)"/><rect class="cls-2" x="151.59" y="230.29" width="5.05" height="5.08" transform="translate(-248.56 98.21) rotate(-45)"/><rect class="cls-2" x="155.16" y="226.71" width="5.08" height="5.08" transform="translate(-244.98 99.69) rotate(-45)"/><rect class="cls-2" x="158.75" y="223.13" width="5.05" height="5.08" transform="translate(-241.4 101.17) rotate(-45)"/><rect class="cls-2" x="162.32" y="219.57" width="5.05" height="5.08" transform="translate(-237.84 102.65) rotate(-45)"/><rect class="cls-3" x="165.88" y="215.99" width="5.08" height="5.08" transform="translate(-234.26 104.13) rotate(-45)"/><rect class="cls-3" x="169.48" y="212.41" width="5.05" height="5.08" transform="translate(-230.68 105.62) rotate(-45)"/><rect class="cls-3" x="173.04" y="208.83" width="5.08" height="5.08" transform="translate(-227.1 107.1) rotate(-45)"/><rect class="cls-3" x="176.64" y="205.25" width="5.05" height="5.08" transform="translate(-223.52 108.58) rotate(-45)"/><rect class="cls-3" x="180.2" y="201.67" width="5.08" height="5.08" transform="translate(-219.94 110.06) rotate(-45)"/><rect class="cls-3" x="183.79" y="198.09" width="5.05" height="5.08" transform="translate(-216.36 111.55) rotate(-45)"/><rect class="cls-3" x="187.36" y="194.51" width="5.08" height="5.08" transform="translate(-212.78 113.03) rotate(-45)"/><rect class="cls-3" x="190.95" y="190.94" width="5.05" height="5.08" transform="translate(-209.21 114.51) rotate(-45)"/><rect class="cls-3" x="194.51" y="187.36" width="5.08" height="5.08" transform="translate(-205.63 115.99) rotate(-45)"/><rect class="cls-3" x="198.11" y="183.78" width="5.05" height="5.08" transform="translate(-202.05 117.48) rotate(-45)"/><rect class="cls-3" x="201.67" y="180.2" width="5.08" height="5.08" transform="translate(-198.47 118.96) rotate(-45)"/><rect class="cls-3" x="205.27" y="176.62" width="5.05" height="5.08" transform="translate(-194.89 120.44) rotate(-45)"/><rect class="cls-3" x="208.83" y="173.04" width="5.08" height="5.08" transform="translate(-191.31 121.92) rotate(-45)"/><rect class="cls-3" x="212.42" y="169.46" width="5.05" height="5.08" transform="translate(-187.73 123.41) rotate(-45)"/><rect class="cls-3" x="215.99" y="165.88" width="5.08" height="5.08" transform="translate(-184.15 124.89) rotate(-45)"/><rect class="cls-3" x="219.58" y="162.31" width="5.05" height="5.08" transform="translate(-180.57 126.37) rotate(-45)"/><rect class="cls-3" x="223.15" y="158.74" width="5.05" height="5.08" transform="translate(-177.01 127.85) rotate(-45)"/><rect class="cls-3" x="226.71" y="155.16" width="5.08" height="5.08" transform="translate(-173.43 129.33) rotate(-45)"/><rect class="cls-1" x="230.31" y="151.58" width="5.05" height="5.08" transform="translate(-169.85 130.81) rotate(-45)"/><rect class="cls-1" x="233.87" y="148" width="5.08" height="5.08" transform="translate(-166.27 132.3) rotate(-45)"/><rect class="cls-1" x="155.17" y="233.89" width="5.05" height="5.05" transform="translate(-250.04 101.79) rotate(-45)"/><rect class="cls-3" x="158.74" y="230.31" width="5.08" height="5.05" transform="translate(-246.47 103.27) rotate(-45)"/><rect class="cls-3" x="162.33" y="226.73" width="5.05" height="5.05" transform="translate(-242.89 104.75) rotate(-45)"/><rect class="cls-3" x="165.9" y="223.16" width="5.05" height="5.05" transform="translate(-239.32 106.23) rotate(-45)"/><rect class="cls-3" x="169.46" y="219.58" width="5.08" height="5.05" transform="translate(-235.74 107.71) rotate(-45)"/><rect class="cls-3" x="173.06" y="216" width="5.05" height="5.05" transform="translate(-232.16 109.2) rotate(-45)"/><rect class="cls-3" x="176.62" y="212.42" width="5.08" height="5.05" transform="translate(-228.58 110.68) rotate(-45)"/><rect class="cls-3" x="180.21" y="208.84" width="5.05" height="5.05" transform="translate(-225 112.16) rotate(-45)"/><rect class="cls-3" x="183.78" y="205.27" width="5.08" height="5.05" transform="translate(-221.42 113.64) rotate(-45)"/><rect class="cls-3" x="187.37" y="201.69" width="5.05" height="5.05" transform="translate(-217.85 115.12) rotate(-45)"/><rect class="cls-3" x="190.94" y="198.11" width="5.08" height="5.05" transform="translate(-214.27 116.61) rotate(-45)"/><rect class="cls-3" x="194.53" y="194.53" width="5.05" height="5.05" transform="translate(-210.69 118.09) rotate(-45)"/><rect class="cls-3" x="198.09" y="190.95" width="5.08" height="5.05" transform="translate(-207.11 119.57) rotate(-45)"/><rect class="cls-3" x="201.69" y="187.37" width="5.05" height="5.05" transform="translate(-203.53 121.05) rotate(-45)"/><rect class="cls-3" x="205.25" y="183.79" width="5.08" height="5.05" transform="translate(-199.95 122.54) rotate(-45)"/><rect class="cls-3" x="208.84" y="180.21" width="5.05" height="5.05" transform="translate(-196.37 124.02) rotate(-45)"/><rect class="cls-3" x="212.41" y="176.64" width="5.08" height="5.05" transform="translate(-192.79 125.5) rotate(-45)"/><rect class="cls-3" x="216" y="173.06" width="5.05" height="5.05" transform="translate(-189.21 126.98) rotate(-45)"/><rect class="cls-3" x="219.57" y="169.48" width="5.08" height="5.05" transform="translate(-185.64 128.47) rotate(-45)"/><rect class="cls-3" x="223.16" y="165.9" width="5.05" height="5.05" transform="translate(-182.06 129.95) rotate(-45)"/><rect class="cls-3" x="226.73" y="162.33" width="5.05" height="5.05" transform="translate(-178.49 131.43) rotate(-45)"/><rect class="cls-3" x="230.29" y="158.75" width="5.08" height="5.05" transform="translate(-174.91 132.91) rotate(-45)"/><rect class="cls-3" x="233.89" y="155.17" width="5.05" height="5.05" transform="translate(-171.33 134.39) rotate(-45)"/><rect class="cls-1" x="237.45" y="151.59" width="5.08" height="5.05" transform="translate(-167.75 135.87) rotate(-45)"/><rect class="cls-1" x="241.04" y="148.02" width="5.05" height="5.05" transform="translate(-164.17 137.36) rotate(-45)"/><rect class="cls-1" x="162.32" y="233.87" width="5.08" height="5.08" transform="translate(-247.95 106.85) rotate(-45)"/><rect class="cls-3" x="165.91" y="230.29" width="5.05" height="5.08" transform="translate(-244.37 108.33) rotate(-45)"/><rect class="cls-3" x="169.48" y="226.72" width="5.05" height="5.08" transform="translate(-240.8 109.81) rotate(-45)"/><rect class="cls-3" x="173.04" y="223.14" width="5.08" height="5.08" transform="translate(-237.22 111.29) rotate(-45)"/><rect class="cls-3" x="176.64" y="219.57" width="5.05" height="5.08" transform="translate(-233.64 112.77) rotate(-45)"/><rect class="cls-3" x="180.2" y="215.99" width="5.08" height="5.08" transform="translate(-230.06 114.26) rotate(-45)"/><rect class="cls-3" x="183.79" y="212.41" width="5.05" height="5.08" transform="translate(-226.49 115.74) rotate(-45)"/><rect class="cls-3" x="187.36" y="208.83" width="5.08" height="5.08" transform="translate(-222.91 117.22) rotate(-45)"/><rect class="cls-3" x="190.95" y="205.25" width="5.05" height="5.08" transform="translate(-219.33 118.7) rotate(-45)"/><rect class="cls-3" x="194.51" y="201.67" width="5.08" height="5.08" transform="translate(-215.75 120.19) rotate(-45)"/><rect class="cls-3" x="198.11" y="198.09" width="5.05" height="5.08" transform="translate(-212.17 121.67) rotate(-45)"/><rect class="cls-3" x="201.67" y="194.51" width="5.08" height="5.08" transform="translate(-208.59 123.15) rotate(-45)"/><rect class="cls-3" x="205.27" y="190.94" width="5.05" height="5.08" transform="translate(-205.01 124.63) rotate(-45)"/><rect class="cls-3" x="208.83" y="187.36" width="5.08" height="5.08" transform="translate(-201.43 126.12) rotate(-45)"/><rect class="cls-4" x="212.42" y="183.78" width="5.05" height="5.08" transform="translate(-197.85 127.6) rotate(-45)"/><rect class="cls-4" x="215.99" y="180.2" width="5.08" height="5.08" transform="translate(-194.28 129.08) rotate(-45)"/><rect class="cls-4" x="219.58" y="176.62" width="5.05" height="5.08" transform="translate(-190.7 130.56) rotate(-45)"/><rect class="cls-4" x="223.14" y="173.04" width="5.08" height="5.08" transform="translate(-187.12 132.04) rotate(-45)"/><rect class="cls-4" x="226.74" y="169.46" width="5.05" height="5.08" transform="translate(-183.54 133.53) rotate(-45)"/><rect class="cls-4" x="230.31" y="165.89" width="5.05" height="5.08" transform="translate(-179.97 135.01) rotate(-45)"/><rect class="cls-4" x="233.87" y="162.32" width="5.08" height="5.08" transform="translate(-176.39 136.49) rotate(-45)"/><rect class="cls-4" x="237.46" y="158.74" width="5.05" height="5.08" transform="translate(-172.81 137.97) rotate(-45)"/><rect class="cls-4" x="241.03" y="155.16" width="5.08" height="5.08" transform="translate(-169.23 139.45) rotate(-45)"/><rect class="cls-1" x="244.62" y="151.58" width="5.05" height="5.08" transform="translate(-165.66 140.94) rotate(-45)"/><rect class="cls-1" x="248.19" y="148" width="5.08" height="5.08" transform="translate(-162.08 142.42) rotate(-45)"/><rect class="cls-1" x="169.49" y="233.89" width="5.05" height="5.05" transform="translate(-245.85 111.91) rotate(-45)"/><rect class="cls-3" x="173.06" y="230.32" width="5.05" height="5.05" transform="translate(-242.28 113.39) rotate(-45)"/><rect class="cls-3" x="176.62" y="226.74" width="5.08" height="5.05" transform="translate(-238.7 114.87) rotate(-45)"/><rect class="cls-3" x="180.21" y="223.16" width="5.05" height="5.05" transform="translate(-235.12 116.35) rotate(-45)"/><rect class="cls-3" x="183.78" y="219.58" width="5.08" height="5.05" transform="translate(-231.55 117.84) rotate(-45)"/><rect class="cls-3" x="187.37" y="216" width="5.05" height="5.05" transform="translate(-227.97 119.32) rotate(-45)"/><rect class="cls-4" x="190.94" y="212.42" width="5.08" height="5.05" transform="translate(-224.39 120.8) rotate(-45)"/><rect class="cls-4" x="194.53" y="208.84" width="5.05" height="5.05" transform="translate(-220.81 122.28) rotate(-45)"/><rect class="cls-4" x="198.09" y="205.27" width="5.08" height="5.05" transform="translate(-217.23 123.76) rotate(-45)"/><rect class="cls-4" x="201.69" y="201.69" width="5.05" height="5.05" transform="translate(-213.65 125.25) rotate(-45)"/><rect class="cls-4" x="205.25" y="198.11" width="5.08" height="5.05" transform="translate(-210.07 126.73) rotate(-45)"/><rect class="cls-4" x="208.84" y="194.53" width="5.05" height="5.05" transform="translate(-206.49 128.21) rotate(-45)"/><rect class="cls-4" x="212.41" y="190.95" width="5.08" height="5.05" transform="translate(-202.92 129.69) rotate(-45)"/><rect class="cls-4" x="216" y="187.37" width="5.05" height="5.05" transform="translate(-199.34 131.18) rotate(-45)"/><rect class="cls-4" x="219.57" y="183.79" width="5.08" height="5.05" transform="translate(-195.76 132.66) rotate(-45)"/><rect class="cls-4" x="223.16" y="180.21" width="5.05" height="5.05" transform="translate(-192.18 134.14) rotate(-45)"/><rect class="cls-4" x="226.72" y="176.64" width="5.08" height="5.05" transform="translate(-188.6 135.62) rotate(-45)"/><rect class="cls-4" x="230.32" y="173.06" width="5.05" height="5.05" transform="translate(-185.02 137.11) rotate(-45)"/><rect class="cls-4" x="233.89" y="169.49" width="5.05" height="5.05" transform="translate(-181.45 138.58) rotate(-45)"/><rect class="cls-4" x="237.45" y="165.91" width="5.08" height="5.05" transform="translate(-177.87 140.07) rotate(-45)"/><rect class="cls-4" x="241.04" y="162.33" width="5.05" height="5.05" transform="translate(-174.3 141.55) rotate(-45)"/><rect class="cls-4" x="244.61" y="158.75" width="5.08" height="5.05" transform="translate(-170.72 143.03) rotate(-45)"/><rect class="cls-4" x="248.2" y="155.17" width="5.05" height="5.05" transform="translate(-167.14 144.51) rotate(-45)"/><rect class="cls-1" x="251.76" y="151.59" width="5.08" height="5.05" transform="translate(-163.56 146) rotate(-45)"/><rect class="cls-1" x="255.36" y="148.02" width="5.05" height="5.05" transform="translate(-159.98 147.48) rotate(-45)"/><rect class="cls-1" x="176.64" y="233.88" width="5.05" height="5.08" transform="translate(-243.76 116.97) rotate(-45)"/><rect class="cls-3" x="180.2" y="230.3" width="5.08" height="5.08" transform="translate(-240.19 118.45) rotate(-45)"/><rect class="cls-3" x="183.79" y="226.72" width="5.05" height="5.08" transform="translate(-236.61 119.93) rotate(-45)"/><rect class="cls-3" x="187.36" y="223.14" width="5.08" height="5.08" transform="translate(-233.03 121.41) rotate(-45)"/><rect class="cls-3" x="190.95" y="219.57" width="5.05" height="5.08" transform="translate(-229.45 122.9) rotate(-45)"/><rect class="cls-3" x="194.51" y="215.99" width="5.08" height="5.08" transform="translate(-225.87 124.38) rotate(-45)"/><rect class="cls-1" x="198.11" y="212.41" width="5.05" height="5.08" transform="translate(-222.29 125.86) rotate(-45)"/><rect class="cls-1" x="201.67" y="208.83" width="5.08" height="5.08" transform="translate(-218.71 127.34) rotate(-45)"/><rect class="cls-1" x="205.27" y="205.25" width="5.05" height="5.08" transform="translate(-215.13 128.83) rotate(-45)"/><rect class="cls-1" x="208.83" y="201.67" width="5.08" height="5.08" transform="translate(-211.56 130.31) rotate(-45)"/><rect x="212.42" y="198.09" width="5.05" height="5.08" transform="translate(-207.98 131.79) rotate(-45)"/><rect x="215.99" y="194.51" width="5.08" height="5.08" transform="translate(-204.4 133.27) rotate(-45)"/><rect x="219.58" y="190.94" width="5.05" height="5.08" transform="translate(-200.82 134.76) rotate(-45)"/><rect x="223.14" y="187.36" width="5.08" height="5.08" transform="translate(-197.24 136.24) rotate(-45)"/><rect x="226.74" y="183.78" width="5.05" height="5.08" transform="translate(-193.66 137.72) rotate(-45)"/><rect x="230.3" y="180.2" width="5.08" height="5.08" transform="translate(-190.08 139.2) rotate(-45)"/><rect x="233.9" y="176.62" width="5.05" height="5.08" transform="translate(-186.5 140.68) rotate(-45)"/><rect x="237.46" y="173.05" width="5.05" height="5.08" transform="translate(-182.94 142.16) rotate(-45)"/><rect x="241.03" y="169.47" width="5.08" height="5.08" transform="translate(-179.36 143.65) rotate(-45)"/><rect x="244.62" y="165.89" width="5.05" height="5.08" transform="translate(-175.78 145.13) rotate(-45)"/><rect x="248.19" y="162.32" width="5.08" height="5.08" transform="translate(-172.2 146.61) rotate(-45)"/><rect x="251.78" y="158.74" width="5.05" height="5.08" transform="translate(-168.62 148.09) rotate(-45)"/><rect x="255.34" y="155.16" width="5.08" height="5.08" transform="translate(-165.04 149.57) rotate(-45)"/><rect class="cls-1" x="258.94" y="151.58" width="5.05" height="5.08" transform="translate(-161.46 151.06) rotate(-45)"/><rect class="cls-1" x="262.5" y="148" width="5.08" height="5.08" transform="translate(-157.88 152.54) rotate(-45)"/><rect class="cls-1" x="162.33" y="255.36" width="5.05" height="5.05" transform="translate(-263.13 113.14) rotate(-45)"/><rect class="cls-1" x="165.89" y="251.78" width="5.08" height="5.05" transform="translate(-259.55 114.62) rotate(-45)"/><rect class="cls-1" x="169.49" y="248.2" width="5.05" height="5.05" transform="translate(-255.97 116.1) rotate(-45)"/><rect class="cls-1" x="173.05" y="244.62" width="5.08" height="5.05" transform="translate(-252.39 117.59) rotate(-45)"/><rect class="cls-1" x="176.65" y="241.04" width="5.05" height="5.05" transform="translate(-248.82 119.07) rotate(-45)"/><rect class="cls-1" x="180.21" y="237.47" width="5.05" height="5.05" transform="translate(-245.25 120.55) rotate(-45)"/><rect class="cls-1" x="183.78" y="233.9" width="5.08" height="5.05" transform="translate(-241.67 122.03) rotate(-45)"/><rect class="cls-3" x="187.37" y="230.32" width="5.05" height="5.05" transform="translate(-238.09 123.51) rotate(-45)"/><rect class="cls-3" x="190.94" y="226.74" width="5.08" height="5.05" transform="translate(-234.51 124.99) rotate(-45)"/><rect class="cls-3" x="194.53" y="223.16" width="5.05" height="5.05" transform="translate(-230.93 126.48) rotate(-45)"/><rect class="cls-3" x="198.09" y="219.58" width="5.08" height="5.05" transform="translate(-227.35 127.96) rotate(-45)"/><rect class="cls-3" x="201.69" y="216" width="5.05" height="5.05" transform="translate(-223.77 129.44) rotate(-45)"/><rect class="cls-1" x="205.25" y="212.42" width="5.08" height="5.05" transform="translate(-220.2 130.92) rotate(-45)"/><rect class="cls-1" x="208.84" y="208.84" width="5.05" height="5.05" transform="translate(-216.62 132.4) rotate(-45)"/><rect class="cls-1" x="158.74" y="266.08" width="5.05" height="5.05" transform="translate(-271.77 113.74) rotate(-45)"/><rect class="cls-1" x="162.31" y="262.51" width="5.08" height="5.05" transform="translate(-268.19 115.22) rotate(-45)"/><rect class="cls-1" x="165.9" y="258.93" width="5.05" height="5.05" transform="translate(-264.61 116.71) rotate(-45)"/><rect class="cls-3" x="169.46" y="255.35" width="5.08" height="5.05" transform="translate(-261.03 118.19) rotate(-45)"/><rect class="cls-3" x="173.06" y="251.77" width="5.05" height="5.05" transform="translate(-257.45 119.67) rotate(-45)"/><rect class="cls-3" x="176.62" y="248.19" width="5.08" height="5.05" transform="translate(-253.87 121.15) rotate(-45)"/><rect class="cls-3" x="180.21" y="244.61" width="5.05" height="5.05" transform="translate(-250.29 122.64) rotate(-45)"/><rect class="cls-3" x="183.78" y="241.04" width="5.05" height="5.05" transform="translate(-246.73 124.11) rotate(-45)"/><rect class="cls-3" x="187.35" y="237.46" width="5.08" height="5.05" transform="translate(-243.15 125.6) rotate(-45)"/><rect class="cls-3" x="190.94" y="233.89" width="5.05" height="5.05" transform="translate(-239.57 127.08) rotate(-45)"/><rect class="cls-3" x="194.5" y="230.31" width="5.08" height="5.05" transform="translate(-235.99 128.56) rotate(-45)"/><rect class="cls-3" x="198.1" y="226.73" width="5.05" height="5.05" transform="translate(-232.41 130.04) rotate(-45)"/><rect class="cls-3" x="201.66" y="223.15" width="5.08" height="5.05" transform="translate(-228.83 131.53) rotate(-45)"/><rect class="cls-3" x="205.26" y="219.57" width="5.05" height="5.05" transform="translate(-225.25 133.01) rotate(-45)"/><rect class="cls-3" x="208.82" y="215.99" width="5.08" height="5.05" transform="translate(-221.67 134.49) rotate(-45)"/><rect class="cls-1" x="212.41" y="212.41" width="5.05" height="5.05" transform="translate(-218.1 135.97) rotate(-45)"/><rect class="cls-1" x="215.98" y="208.83" width="5.08" height="5.05" transform="translate(-214.52 137.46) rotate(-45)"/><rect class="cls-1" x="169.48" y="262.49" width="5.05" height="5.08" transform="translate(-266.09 120.29) rotate(-45)"/><rect class="cls-1" x="173.04" y="258.91" width="5.08" height="5.08" transform="translate(-262.51 121.77) rotate(-45)"/><rect class="cls-1" x="176.64" y="255.33" width="5.05" height="5.08" transform="translate(-258.93 123.25) rotate(-45)"/><rect class="cls-1" x="180.2" y="251.75" width="5.08" height="5.08" transform="translate(-255.36 124.73) rotate(-45)"/><rect class="cls-3" x="183.79" y="248.18" width="5.05" height="5.08" transform="translate(-251.78 126.21) rotate(-45)"/><rect class="cls-3" x="187.36" y="244.61" width="5.05" height="5.08" transform="translate(-248.21 127.69) rotate(-45)"/><rect class="cls-3" x="190.93" y="241.03" width="5.08" height="5.08" transform="translate(-244.63 129.18) rotate(-45)"/><rect class="cls-3" x="194.52" y="237.45" width="5.05" height="5.08" transform="translate(-241.05 130.66) rotate(-45)"/><rect class="cls-3" x="198.08" y="233.87" width="5.08" height="5.08" transform="translate(-237.47 132.14) rotate(-45)"/><rect class="cls-3" x="201.68" y="230.29" width="5.05" height="5.08" transform="translate(-233.89 133.62) rotate(-45)"/><rect class="cls-3" x="205.24" y="226.71" width="5.08" height="5.08" transform="translate(-230.31 135.1) rotate(-45)"/><rect class="cls-3" x="208.83" y="223.13" width="5.05" height="5.08" transform="translate(-226.74 136.59) rotate(-45)"/><rect class="cls-3" x="212.4" y="219.56" width="5.08" height="5.08" transform="translate(-223.16 138.07) rotate(-45)"/><rect class="cls-3" x="215.99" y="215.98" width="5.05" height="5.08" transform="translate(-219.58 139.55) rotate(-45)"/><rect class="cls-1" x="219.56" y="212.4" width="5.08" height="5.08" transform="translate(-216 141.03) rotate(-45)"/><rect class="cls-1" x="223.15" y="208.82" width="5.05" height="5.08" transform="translate(-212.42 142.52) rotate(-45)"/><rect class="cls-1" x="187.37" y="251.77" width="5.05" height="5.05" transform="translate(-253.26 129.79) rotate(-45)"/><rect class="cls-1" x="190.94" y="248.2" width="5.05" height="5.05" transform="translate(-249.69 131.27) rotate(-45)"/><rect class="cls-1" x="194.5" y="244.62" width="5.08" height="5.05" transform="translate(-246.11 132.75) rotate(-45)"/><rect class="cls-1" x="198.1" y="241.04" width="5.05" height="5.05" transform="translate(-242.53 134.24) rotate(-45)"/><rect class="cls-3" x="201.66" y="237.46" width="5.08" height="5.05" transform="translate(-238.95 135.72) rotate(-45)"/><rect class="cls-3" x="205.26" y="233.89" width="5.05" height="5.05" transform="translate(-235.38 137.2) rotate(-45)"/><rect class="cls-3" x="208.82" y="230.31" width="5.08" height="5.05" transform="translate(-231.8 138.68) rotate(-45)"/><rect class="cls-3" x="212.41" y="226.73" width="5.05" height="5.05" transform="translate(-228.22 140.17) rotate(-45)"/><rect class="cls-3" x="215.98" y="223.15" width="5.08" height="5.05" transform="translate(-224.64 141.65) rotate(-45)"/><rect class="cls-3" x="219.57" y="219.57" width="5.05" height="5.05" transform="translate(-221.06 143.13) rotate(-45)"/><rect class="cls-3" x="223.13" y="215.99" width="5.08" height="5.05" transform="translate(-217.48 144.61) rotate(-45)"/><rect class="cls-1" x="226.73" y="212.41" width="5.05" height="5.05" transform="translate(-213.9 146.1) rotate(-45)"/><rect class="cls-1" x="230.29" y="208.83" width="5.08" height="5.05" transform="translate(-210.32 147.58) rotate(-45)"/><rect class="cls-1" x="205.24" y="241.03" width="5.08" height="5.08" transform="translate(-240.44 139.3) rotate(-45)"/><rect class="cls-1" x="208.83" y="237.45" width="5.05" height="5.08" transform="translate(-236.86 140.78) rotate(-45)"/><rect class="cls-1" x="212.4" y="233.87" width="5.08" height="5.08" transform="translate(-233.28 142.26) rotate(-45)"/><rect x="215.99" y="230.29" width="5.05" height="5.08" transform="translate(-229.7 143.74) rotate(-45)"/><rect class="cls-4" x="219.56" y="226.71" width="5.08" height="5.08" transform="translate(-226.12 145.23) rotate(-45)"/><rect class="cls-4" x="223.15" y="223.13" width="5.05" height="5.08" transform="translate(-222.54 146.71) rotate(-45)"/><rect class="cls-4" x="226.71" y="219.56" width="5.08" height="5.08" transform="translate(-218.96 148.19) rotate(-45)"/><rect class="cls-4" x="230.31" y="215.98" width="5.05" height="5.08" transform="translate(-215.38 149.67) rotate(-45)"/><rect x="233.87" y="212.4" width="5.08" height="5.08" transform="translate(-211.81 151.16) rotate(-45)"/><rect class="cls-1" x="237.46" y="208.82" width="5.05" height="5.08" transform="translate(-208.23 152.64) rotate(-45)"/><rect x="219.57" y="233.89" width="5.05" height="5.05" transform="translate(-231.18 147.32) rotate(-45)"/><rect x="223.13" y="230.31" width="5.08" height="5.05" transform="translate(-227.6 148.81) rotate(-45)"/><rect class="cls-1" x="226.73" y="226.73" width="5.05" height="5.05" transform="translate(-224.02 150.29) rotate(-45)"/><rect class="cls-4" x="230.29" y="223.15" width="5.08" height="5.05" transform="translate(-220.45 151.77) rotate(-45)"/><rect class="cls-4" x="233.89" y="219.57" width="5.05" height="5.05" transform="translate(-216.87 153.25) rotate(-45)"/><rect class="cls-4" x="237.45" y="215.99" width="5.08" height="5.05" transform="translate(-213.29 154.74) rotate(-45)"/><rect class="cls-4" x="241.04" y="212.41" width="5.05" height="5.05" transform="translate(-209.71 156.22) rotate(-45)"/><rect class="cls-1" x="244.61" y="208.83" width="5.08" height="5.05" transform="translate(-206.13 157.7) rotate(-45)"/><rect class="cls-1" x="233.87" y="226.71" width="5.08" height="5.08" transform="translate(-221.93 155.35) rotate(-45)"/><rect class="cls-1" x="237.46" y="223.13" width="5.05" height="5.08" transform="translate(-218.35 156.83) rotate(-45)"/><rect class="cls-1" x="241.03" y="219.56" width="5.08" height="5.08" transform="translate(-214.77 158.31) rotate(-45)"/><rect class="cls-4" x="244.62" y="215.98" width="5.05" height="5.08" transform="translate(-211.19 159.8) rotate(-45)"/><rect class="cls-4" x="248.19" y="212.4" width="5.08" height="5.08" transform="translate(-207.61 161.28) rotate(-45)"/><rect class="cls-1" x="251.78" y="208.82" width="5.05" height="5.08" transform="translate(-204.03 162.76) rotate(-45)"/><rect class="cls-1" x="248.2" y="219.57" width="5.05" height="5.05" transform="translate(-212.67 163.38) rotate(-45)"/><rect class="cls-1" x="251.76" y="215.99" width="5.08" height="5.05" transform="translate(-209.1 164.86) rotate(-45)"/><rect class="cls-1" x="255.36" y="212.41" width="5.05" height="5.05" transform="translate(-205.52 166.34) rotate(-45)"/><rect class="cls-1" x="258.92" y="208.83" width="5.08" height="5.05" transform="translate(-201.94 167.82) rotate(-45)"/></g></g></svg>