<?xml version="1.0" encoding="utf-8"?>
<!-- Generator: Adobe Illustrator 23.0.6, SVG Export Plug-In . SVG Version: 6.00 Build 0)  -->
<svg version="1.1" id="레이어_1" xmlns="http://www.w3.org/2000/svg" xmlns:xlink="http://www.w3.org/1999/xlink" x="0px"
	 y="0px" viewBox="0 0 90 90" style="enable-background:new 0 0 90 90;" xml:space="preserve">
<style type="text/css">
	.st0{fill:#FFFFFF;stroke:#000000;stroke-miterlimit:10;}
</style>
<rect x="-36" y="-36.7" class="st0" width="239.1" height="213.9"/>
<title>대지 1</title>
<rect x="73.7" y="21.6" width="5.3" height="5.3"/>
<rect x="68.5" y="53.2" width="5.3" height="5.3"/>
<rect x="68.5" y="47.9" width="5.3" height="5.3"/>
<rect x="68.5" y="42.6" width="5.3" height="5.3"/>
<rect x="68.5" y="37.4" width="5.3" height="5.3"/>
<rect x="68.5" y="32.1" width="5.3" height="5.3"/>
<rect x="68.5" y="21.6" width="5.3" height="5.3"/>
<rect x="68.5" y="16.3" width="5.3" height="5.3"/>
<rect x="63.2" y="79.5" width="5.3" height="5.3"/>
<rect x="63.2" y="74.2" width="5.3" height="5.3"/>
<rect x="63.2" y="68.9" width="5.3" height="5.3"/>
<rect x="63.2" y="63.7" width="5.3" height="5.3"/>
<rect x="63.2" y="58.4" width="5.3" height="5.3"/>
<rect x="63.2" y="53.2" width="5.3" height="5.3"/>
<rect x="63.2" y="32.1" width="5.3" height="5.3"/>
<rect x="63.2" y="21.6" width="5.3" height="5.3"/>
<rect x="63.2" y="16.3" width="5.3" height="5.3"/>
<rect x="57.9" y="79.5" width="5.3" height="5.3"/>
<rect x="57.9" y="32.1" width="5.3" height="5.3"/>
<rect x="57.9" y="21.6" width="5.3" height="5.3"/>
<rect x="57.9" y="16.3" width="5.3" height="5.3"/>
<rect x="52.7" y="79.5" width="5.3" height="5.3"/>
<rect x="52.7" y="68.9" width="5.3" height="5.3"/>
<rect x="52.7" y="63.7" width="5.3" height="5.3"/>
<rect x="52.7" y="58.4" width="5.3" height="5.3"/>
<rect x="52.7" y="53.2" width="5.3" height="5.3"/>
<rect x="52.7" y="47.9" width="5.3" height="5.3"/>
<rect x="52.7" y="42.6" width="5.3" height="5.3"/>
<rect x="52.7" y="37.4" width="5.3" height="5.3"/>
<rect x="52.7" y="32.1" width="5.3" height="5.3"/>
<rect x="52.7" y="21.6" width="5.3" height="5.3"/>
<rect x="52.7" y="16.3" width="5.3" height="5.3"/>
<rect x="52.7" y="11.1" width="5.3" height="5.3"/>
<rect x="47.4" y="79.5" width="5.3" height="5.3"/>
<rect x="47.4" y="32.1" width="5.3" height="5.3"/>
<rect x="47.4" y="21.6" width="5.3" height="5.3"/>
<rect x="47.4" y="16.3" width="5.3" height="5.3"/>
<rect x="47.4" y="5.8" width="5.3" height="5.3"/>
<rect x="42.1" y="79.5" width="5.3" height="5.3"/>
<rect x="42.1" y="68.9" width="5.3" height="5.3"/>
<rect x="42.1" y="63.7" width="5.3" height="5.3"/>
<rect x="42.1" y="58.4" width="5.3" height="5.3"/>
<rect x="42.1" y="53.2" width="5.3" height="5.3"/>
<rect x="42.1" y="47.9" width="5.3" height="5.3"/>
<rect x="42.1" y="42.6" width="5.3" height="5.3"/>
<rect x="42.1" y="37.4" width="5.3" height="5.3"/>
<rect x="42.1" y="32.1" width="5.3" height="5.3"/>
<rect x="42.1" y="21.6" width="5.3" height="5.3"/>
<rect x="42.1" y="16.3" width="5.3" height="5.3"/>
<rect x="42.1" y="5.8" width="5.3" height="5.3"/>
<rect x="36.9" y="79.5" width="5.3" height="5.3"/>
<rect x="36.9" y="32.1" width="5.3" height="5.3"/>
<rect x="36.9" y="21.6" width="5.3" height="5.3"/>
<rect x="36.9" y="16.3" width="5.3" height="5.3"/>
<rect x="36.9" y="5.8" width="5.3" height="5.3"/>
<rect x="31.6" y="79.5" width="5.3" height="5.3"/>
<rect x="31.6" y="68.9" width="5.3" height="5.3"/>
<rect x="31.6" y="63.7" width="5.3" height="5.3"/>
<rect x="31.6" y="58.4" width="5.3" height="5.3"/>
<rect x="31.6" y="53.2" width="5.3" height="5.3"/>
<rect x="31.6" y="47.9" width="5.3" height="5.3"/>
<rect x="31.6" y="42.6" width="5.3" height="5.3"/>
<rect x="31.6" y="37.4" width="5.3" height="5.3"/>
<rect x="31.6" y="32.1" width="5.3" height="5.3"/>
<rect x="31.6" y="21.6" width="5.3" height="5.3"/>
<rect x="31.6" y="16.3" width="5.3" height="5.3"/>
<rect x="31.6" y="11.1" width="5.3" height="5.3"/>
<rect x="26.3" y="79.5" width="5.3" height="5.3"/>
<rect x="26.3" y="32.1" width="5.3" height="5.3"/>
<rect x="26.3" y="21.6" width="5.3" height="5.3"/>
<rect x="26.3" y="16.3" width="5.3" height="5.3"/>
<rect x="21.1" y="79.5" width="5.3" height="5.3"/>
<rect x="21.1" y="74.2" width="5.3" height="5.3"/>
<rect x="21.1" y="68.9" width="5.3" height="5.3"/>
<rect x="21.1" y="63.7" width="5.3" height="5.3"/>
<rect x="21.1" y="58.4" width="5.3" height="5.3"/>
<rect x="21.1" y="53.2" width="5.3" height="5.3"/>
<rect x="21.1" y="32.1" width="5.3" height="5.3"/>
<rect x="21.1" y="21.6" width="5.3" height="5.3"/>
<rect x="21.1" y="16.3" width="5.3" height="5.3"/>
<rect x="15.8" y="53.2" width="5.3" height="5.3"/>
<rect x="15.8" y="47.9" width="5.3" height="5.3"/>
<rect x="15.8" y="42.6" width="5.3" height="5.3"/>
<rect x="15.8" y="37.4" width="5.3" height="5.3"/>
<rect x="15.8" y="32.1" width="5.3" height="5.3"/>
<rect x="15.8" y="21.6" width="5.3" height="5.3"/>
<rect x="15.8" y="16.3" width="5.3" height="5.3"/>
<rect x="10.5" y="21.6" width="5.3" height="5.3"/>
</svg>
