<svg id="레이어_1" data-name="레이어 1" xmlns="http://www.w3.org/2000/svg" viewBox="0 0 63.21 89.47"><defs><style>.cls-1{fill:#3e3a36;}.cls-2{fill:#fab237;}.cls-3{fill:#fada3a;}.cls-4{fill:#fcf199;}</style></defs><title>대지 1</title><rect class="cls-1" y="26.31" width="5.26" height="5.27"/><rect class="cls-1" x="5.26" y="52.63" width="5.27" height="5.26"/><rect class="cls-1" x="5.26" y="31.58" width="5.27" height="5.26"/><rect class="cls-1" x="5.26" y="26.31" width="5.27" height="5.27"/><rect class="cls-1" x="5.26" y="5.26" width="5.27" height="5.26"/><rect class="cls-1" x="5.26" width="5.27" height="5.26"/><rect class="cls-1" x="10.53" y="57.89" width="5.27" height="5.26"/><rect class="cls-1" x="10.53" y="52.63" width="5.27" height="5.26"/><rect class="cls-1" x="10.53" y="42.1" width="5.27" height="5.26"/><rect class="cls-1" x="10.53" y="36.84" width="5.27" height="5.26"/><rect class="cls-2" x="10.53" y="31.58" width="5.27" height="5.26"/><rect class="cls-1" x="10.53" y="26.31" width="5.27" height="5.27"/><rect class="cls-1" x="10.53" y="15.79" width="5.27" height="5.26"/><rect class="cls-1" x="10.53" y="10.52" width="5.27" height="5.27"/><rect class="cls-2" x="10.53" y="5.26" width="5.27" height="5.26"/><rect class="cls-1" x="10.53" width="5.27" height="5.26"/><rect class="cls-1" x="15.8" y="63.15" width="5.27" height="5.27"/><rect class="cls-2" x="15.8" y="57.89" width="5.27" height="5.26"/><rect class="cls-1" x="15.8" y="52.63" width="5.27" height="5.26"/><rect class="cls-1" x="15.8" y="47.36" width="5.27" height="5.27"/><rect class="cls-1" x="15.8" y="42.1" width="5.27" height="5.26"/><rect class="cls-2" x="15.8" y="36.84" width="5.27" height="5.26"/><rect class="cls-3" x="15.8" y="31.58" width="5.27" height="5.26"/><rect class="cls-1" x="15.8" y="26.31" width="5.27" height="5.27"/><rect class="cls-1" x="15.8" y="21.05" width="5.27" height="5.26"/><rect class="cls-2" x="15.8" y="15.79" width="5.27" height="5.26"/><rect class="cls-2" x="15.8" y="10.52" width="5.27" height="5.27"/><rect class="cls-3" x="15.8" y="5.26" width="5.27" height="5.26"/><rect class="cls-1" x="15.8" width="5.27" height="5.26"/><rect class="cls-1" x="21.07" y="68.42" width="5.26" height="5.26"/><rect class="cls-2" x="21.07" y="63.15" width="5.26" height="5.27"/><rect class="cls-3" x="21.07" y="57.89" width="5.26" height="5.26"/><rect class="cls-1" x="21.07" y="52.63" width="5.26" height="5.26"/><rect class="cls-2" x="21.07" y="47.36" width="5.26" height="5.27"/><rect class="cls-2" x="21.07" y="42.1" width="5.26" height="5.26"/><rect class="cls-3" x="21.07" y="36.84" width="5.26" height="5.26"/><rect class="cls-3" x="21.07" y="31.58" width="5.26" height="5.26"/><rect class="cls-1" x="21.07" y="26.31" width="5.26" height="5.27"/><rect class="cls-2" x="21.07" y="21.05" width="5.26" height="5.26"/><rect class="cls-2" x="21.07" y="15.79" width="5.26" height="5.26"/><rect class="cls-3" x="21.07" y="10.52" width="5.26" height="5.27"/><rect class="cls-3" x="21.07" y="5.26" width="5.26" height="5.26"/><rect class="cls-1" x="21.07" width="5.26" height="5.26"/><rect class="cls-1" x="26.33" y="73.68" width="5.27" height="5.26"/><rect class="cls-3" x="26.33" y="68.42" width="5.27" height="5.26"/><rect class="cls-3" x="26.33" y="63.15" width="5.27" height="5.27"/><rect class="cls-3" x="26.33" y="57.89" width="5.27" height="5.26"/><rect class="cls-2" x="26.33" y="52.63" width="5.27" height="5.26"/><rect class="cls-3" x="26.33" y="47.36" width="5.27" height="5.27"/><rect class="cls-3" x="26.33" y="42.1" width="5.27" height="5.26"/><rect class="cls-3" x="26.33" y="36.84" width="5.27" height="5.26"/><rect class="cls-3" x="26.33" y="31.58" width="5.27" height="5.26"/><rect class="cls-2" x="26.33" y="26.31" width="5.27" height="5.27"/><rect class="cls-3" x="26.33" y="21.05" width="5.27" height="5.26"/><rect class="cls-3" x="26.33" y="15.79" width="5.27" height="5.26"/><rect class="cls-3" x="26.33" y="10.52" width="5.27" height="5.27"/><rect class="cls-3" x="26.33" y="5.26" width="5.27" height="5.26"/><rect class="cls-1" x="26.33" width="5.27" height="5.26"/><rect class="cls-1" x="31.6" y="78.94" width="5.27" height="5.27"/><rect class="cls-3" x="31.6" y="73.68" width="5.27" height="5.26"/><rect class="cls-3" x="31.6" y="68.42" width="5.27" height="5.26"/><rect class="cls-3" x="31.6" y="63.15" width="5.27" height="5.27"/><rect class="cls-3" x="31.6" y="57.89" width="5.27" height="5.26"/><rect class="cls-3" x="31.6" y="52.63" width="5.27" height="5.26"/><rect class="cls-4" x="31.6" y="47.36" width="5.27" height="5.27"/><rect class="cls-4" x="31.6" y="42.1" width="5.27" height="5.26"/><rect class="cls-3" x="31.6" y="36.84" width="5.27" height="5.26"/><rect class="cls-3" x="31.6" y="31.58" width="5.27" height="5.26"/><rect class="cls-3" x="31.6" y="26.31" width="5.27" height="5.27"/><rect class="cls-3" x="31.6" y="21.05" width="5.27" height="5.26"/><rect class="cls-3" x="31.6" y="15.79" width="5.27" height="5.26"/><rect class="cls-4" x="31.6" y="10.52" width="5.27" height="5.27"/><rect class="cls-4" x="31.6" y="5.26" width="5.27" height="5.26"/><rect class="cls-1" x="31.6" width="5.27" height="5.26"/><rect class="cls-1" x="36.87" y="84.21" width="5.27" height="5.26"/><rect class="cls-3" x="36.87" y="78.94" width="5.27" height="5.27"/><rect class="cls-3" x="36.87" y="73.68" width="5.27" height="5.26"/><rect class="cls-1" x="36.87" y="68.42" width="5.27" height="5.26"/><rect class="cls-1" x="36.87" y="63.15" width="5.27" height="5.27"/><rect class="cls-3" x="36.87" y="57.89" width="5.27" height="5.26"/><rect class="cls-4" x="36.87" y="52.63" width="5.27" height="5.26"/><rect class="cls-1" x="36.87" y="47.36" width="5.27" height="5.27"/><rect class="cls-3" x="36.87" y="42.1" width="5.27" height="5.26"/><rect class="cls-3" x="36.87" y="36.84" width="5.27" height="5.26"/><rect class="cls-3" x="36.87" y="31.58" width="5.27" height="5.26"/><rect class="cls-3" x="36.87" y="26.31" width="5.27" height="5.27"/><rect class="cls-4" x="36.87" y="21.05" width="5.27" height="5.26"/><rect class="cls-4" x="36.87" y="15.79" width="5.27" height="5.26"/><rect class="cls-4" x="36.87" y="10.52" width="5.27" height="5.27"/><rect class="cls-1" x="36.87" y="5.26" width="5.27" height="5.26"/><rect class="cls-1" x="36.87" width="5.27" height="5.26"/><rect class="cls-1" x="42.14" y="84.21" width="5.26" height="5.26"/><rect class="cls-1" x="42.14" y="78.94" width="5.26" height="5.27"/><rect class="cls-1" x="42.14" y="73.68" width="5.26" height="5.26"/><rect class="cls-1" x="42.14" y="63.15" width="5.26" height="5.27"/><rect class="cls-4" x="42.14" y="57.89" width="5.26" height="5.26"/><rect class="cls-1" x="42.14" y="52.63" width="5.26" height="5.26"/><rect class="cls-1" x="42.14" y="42.1" width="5.26" height="5.26"/><rect class="cls-3" x="42.14" y="36.84" width="5.26" height="5.26"/><rect class="cls-4" x="42.14" y="31.58" width="5.26" height="5.26"/><rect class="cls-4" x="42.14" y="26.31" width="5.26" height="5.27"/><rect class="cls-4" x="42.14" y="21.05" width="5.26" height="5.26"/><rect class="cls-1" x="42.14" y="15.79" width="5.26" height="5.26"/><rect class="cls-1" x="42.14" y="10.52" width="5.26" height="5.27"/><rect class="cls-1" x="47.4" y="63.15" width="5.27" height="5.27"/><rect class="cls-1" x="47.4" y="57.89" width="5.27" height="5.26"/><rect class="cls-1" x="47.4" y="42.1" width="5.27" height="5.26"/><rect class="cls-4" x="47.4" y="36.84" width="5.27" height="5.26"/><rect class="cls-4" x="47.4" y="31.58" width="5.27" height="5.26"/><rect class="cls-1" x="47.4" y="26.31" width="5.27" height="5.27"/><rect class="cls-1" x="47.4" y="21.05" width="5.27" height="5.26"/><rect class="cls-1" x="52.67" y="63.15" width="5.27" height="5.27"/><rect class="cls-1" x="52.67" y="42.1" width="5.27" height="5.26"/><rect class="cls-1" x="52.67" y="36.84" width="5.27" height="5.26"/><rect class="cls-1" x="52.67" y="31.58" width="5.27" height="5.26"/><rect class="cls-1" x="57.94" y="42.1" width="5.27" height="5.26"/></svg>