<?xml version="1.0" encoding="utf-8"?>
<!-- Generator: Adobe Illustrator 24.0.1, SVG Export Plug-In . SVG Version: 6.00 Build 0)  -->
<svg version="1.1" id="Layer_1" xmlns="http://www.w3.org/2000/svg" xmlns:xlink="http://www.w3.org/1999/xlink" x="0px" y="0px"
	 viewBox="0 0 185.5 185.5" style="enable-background:new 0 0 185.5 185.5;" xml:space="preserve">
<style type="text/css">
	.st0{fill:none;stroke:#FFFFFF;stroke-width:4;stroke-miterlimit:10;}
	.st1{fill:#FFFFFF;}
</style>
<title>Asset 1</title>
<g id="Layer_4">
	<rect x="5" y="5" class="st0" width="175.5" height="175.5"/>
	<path class="st1" d="M74.4,77.5l-3.8-9.4H52.8L49,77.5h-9.4l18-42.3h8.5l18,42.3H74.4z M61.7,46.3L56.1,60h11.2L61.7,46.3z"/>
	<path class="st1" d="M130.3,44v33.5h-9.2V44h-12.8v-8.5h34.8V44H130.3z"/>
	<path class="st1" d="M61.8,150.2c-13,0-22.3-9.7-22.3-21.6v-0.1c0-11.9,9.4-21.7,22.4-21.7s22.3,9.7,22.3,21.6v0.1
		C84.2,140.5,74.8,150.2,61.8,150.2z M74.6,128.5c0-7.2-5.3-13.2-12.7-13.2s-12.6,5.9-12.6,13.1v0.1c0,7.2,5.3,13.2,12.7,13.2
		s12.6-5.9,12.6-13.1V128.5z"/>
	<path class="st1" d="M108.2,149.5v-7l23.1-26.9h-22.4v-8.1h34.2v7L120,141.4h23.1v8.1H108.2z"/>
</g>
</svg>
