<svg xmlns="http://www.w3.org/2000/svg" xmlns:xlink="http://www.w3.org/1999/xlink" viewBox="0 0 1980 1020"><defs><style>.cls-1{fill:#fe4b77;}</style></defs><title>Asset 2</title><g id="Layer_2" data-name="Layer 2"><g id="Layer_1-2" data-name="Layer 1"><image width="1980" height="1020" xlink:href="../bear1-1.png"/><path class="cls-1" d="M1266.34,342.92l1.53,4.4-5.94,2.07,2,5.64,5.93-2.07,1.53,4.4-15.86,5.52-1.53-4.4,6-2.09-2-5.65-6,2.1-1.53-4.39Z"/><path class="cls-1" d="M1264.23,362.65l0,0a9.06,9.06,0,0,1,5,17.39h0a9.05,9.05,0,0,1-5-17.38Zm3.68,12.83,0,0a4.36,4.36,0,0,0,3.17-5.4,4.28,4.28,0,0,0-5.49-2.85l-.05,0a4.35,4.35,0,0,0-3.17,5.38A4.29,4.29,0,0,0,1267.91,375.48Z"/><path class="cls-1" d="M1277.51,378.39l1.17,5.07-9.51,6.1,11.22,1.34,1.14,5-18-2.85-1-4.21Z"/><path class="cls-1" d="M1281.93,398.17l2.32,13.3-3.91.68-1.52-8.77-2.51.44,1.39,7.94-3.62.63-1.38-7.94-2.63.46,1.55,8.89-3.9.68-2.34-13.43Z"/><path class="cls-1" d="M1284.72,414.61l.94,7.89c.3,2.55-.15,4.4-1.16,5.65a5.21,5.21,0,0,1-3.71,1.94h0a5.31,5.31,0,0,1-5.53-2.82l-5.34,4.67-.64-5.34,4.65-4v0l-.24-2-5.05.61-.55-4.63Zm-7.09,8.63c.19,1.58,1.06,2.39,2.27,2.25h0c1.31-.16,1.86-1.19,1.68-2.74l-.36-3-4,.47Z"/><path class="cls-1" d="M1287.29,439.56l.14,4.92-6.39,4.18,6.61,3.83.14,4.92-16.79.47-.13-4.63,9.64-.27-6.69-4.11v-.1l6.4-4.45-9.59.27-.13-4.56Z"/><path class="cls-1" d="M1277,465.71l10.78-5.91-.23,5.3-6.27,3.17,6,3.75-.23,5.21-10.15-6.85-6.35-.28.21-4.67Z"/><path class="cls-1" d="M1286.08,486.57l-.63,4.3-9.79,5.55,8.79,1.29-.67,4.56-16.62-2.44.59-4,10.16-5.77-9.12-1.33.67-4.56Z"/><path class="cls-1" d="M1275,503.75h0A9.06,9.06,0,0,1,1271,521.4h0a9.06,9.06,0,0,1,4.06-17.64Zm-3,13h0a4.36,4.36,0,0,0,5.39-3.18,4.28,4.28,0,0,0-3.4-5.16h0a4.36,4.36,0,0,0-5.39,3.16A4.29,4.29,0,0,0,1271.94,516.75Z"/><path class="cls-1" d="M1264.85,521l2.16,3.41a8.66,8.66,0,0,0-3.58,4.58c-.38,1.19-.17,2,.52,2.18h0c.67.21,1.2-.2,2.4-2.21,1.86-3.16,3.66-5.48,6.95-4.43h.05c3,1,4.37,4,3.15,7.83a10.55,10.55,0,0,1-4.23,5.91l-2.43-3.21a8.45,8.45,0,0,0,3-4c.34-1.08,0-1.75-.52-1.93l0,0c-.73-.23-1.23.21-2.44,2.27-2,3.43-3.89,5.34-6.89,4.38h0c-3.27-1-4.39-4.25-3.15-8.14A11.75,11.75,0,0,1,1264.85,521Z"/><path class="cls-1" d="M1272.93,542.25l-5,12.55-3.68-1.48,3.31-8.26-2.36-.95-3,7.49-3.41-1.37,3-7.48-2.47-1-3.36,8.37-3.67-1.47,5.07-12.65Z"/></g></g></svg>